<?xml version="1.0" encoding="utf-8" standalone="no"?>
<!DOCTYPE svg PUBLIC "-//W3C//DTD SVG 1.1//EN"
  "http://www.w3.org/Graphics/SVG/1.1/DTD/svg11.dtd">
<!-- Created with matplotlib (https://matplotlib.org/) -->
<svg height="57.157pt" version="1.1" viewBox="0 0 212.412 57.157" width="212.412pt" xmlns="http://www.w3.org/2000/svg" xmlns:xlink="http://www.w3.org/1999/xlink">
 <defs>
  <style type="text/css">
*{stroke-linecap:butt;stroke-linejoin:round;}
  </style>
 </defs>
 <g id="figure_1">
  <g id="patch_1">
   <path d="M 0 57.157 
L 212.412 57.157 
L 212.412 0 
L 0 0 
z
" style="fill:none;"/>
  </g>
  <g id="axes_1">
   <g id="patch_2">
    <path clip-path="url(#p67a53bb8ae)" d="M 157.56 28.8225 
C 158.59111 28.8225 159.580127 28.469734 160.309231 27.841894 
C 161.038336 27.214053 161.448 26.3624 161.448 25.4745 
C 161.448 24.5866 161.038336 23.734947 160.309231 23.107106 
C 159.580127 22.479266 158.59111 22.1265 157.56 22.1265 
C 156.52889 22.1265 155.539873 22.479266 154.810769 23.107106 
C 154.081664 23.734947 153.672 24.5866 153.672 25.4745 
C 153.672 26.3624 154.081664 27.214053 154.810769 27.841894 
C 155.539873 28.469734 156.52889 28.8225 157.56 28.8225 
z
" style="fill:none;stroke:#000000;stroke-linejoin:miter;stroke-width:2;"/>
   </g>
   <g id="line2d_1">
    <path clip-path="url(#p67a53bb8ae)" d="M 42.54 39.1455 
L 60.591429 39.054398 
L 62.442857 38.781092 
L 64.294286 38.325582 
L 66.608571 37.499969 
L 68.922857 36.389663 
L 71.237143 34.994663 
L 73.551429 33.314969 
L 75.865714 31.350582 
L 78.18 29.1015 
L 80.494286 26.567724 
L 81.42 25.4745 
L 81.42 25.4745 
L 78.642857 22.33148 
L 76.328571 20.025459 
L 74.014286 18.004133 
L 71.7 16.2675 
L 69.385714 14.815561 
L 67.071429 13.648316 
L 64.757143 12.765765 
L 62.442857 12.167908 
L 60.591429 11.894602 
L 58.74 11.8035 
L 42.54 11.8035 
L 42.54 11.8035 
L 44.8728 14.0355 
L 46.35024 15.7095 
L 47.5944 17.3835 
L 48.60528 19.0575 
L 49.38288 20.7315 
L 49.9272 22.4055 
L 50.23824 24.0795 
L 50.316 25.7535 
L 50.16048 27.4275 
L 49.77168 29.1015 
L 49.1496 30.7755 
L 48.29424 32.4495 
L 47.2056 34.1235 
L 45.88368 35.7975 
L 44.32848 37.4715 
L 42.54 39.1455 
L 42.54 39.1455 
" style="fill:none;stroke:#000000;stroke-linecap:round;stroke-width:2;"/>
   </g>
   <g id="line2d_2">
    <path clip-path="url(#p67a53bb8ae)" d="M 31.2 32.4495 
L 48.29424 32.4495 
" style="fill:none;stroke:#000000;stroke-linecap:round;stroke-width:2;"/>
   </g>
   <g id="line2d_3">
    <path clip-path="url(#p67a53bb8ae)" d="M 31.2 18.4995 
L 48.29424 18.4995 
" style="fill:none;stroke:#000000;stroke-linecap:round;stroke-width:2;"/>
   </g>
   <g id="line2d_4">
    <path clip-path="url(#p67a53bb8ae)" d="M 31.2 25.4745 
M 81.42 25.4745 
L 92.76 25.4745 
" style="fill:none;stroke:#000000;stroke-linecap:round;stroke-width:2;"/>
   </g>
   <g id="line2d_5">
    <path clip-path="url(#p67a53bb8ae)" d="M 132.612 25.4745 
L 132.612 39.4245 
L 153.672 25.4745 
L 132.612 11.5245 
L 132.612 25.4745 
" style="fill:none;stroke:#000000;stroke-linecap:round;stroke-width:2;"/>
   </g>
   <g id="line2d_6">
    <path clip-path="url(#p67a53bb8ae)" d="M 161.448 25.4745 
L 165.012 25.4745 
" style="fill:none;stroke:#000000;stroke-linecap:round;stroke-width:2;"/>
   </g>
   <g id="line2d_7">
    <path clip-path="url(#p67a53bb8ae)" d="M 92.76 25.4745 
L 121.272 25.4745 
L 132.612 25.4745 
M 161.448 25.4745 
L 189.96 25.4745 
" style="fill:none;stroke:#000000;stroke-linecap:round;stroke-width:2;"/>
   </g>
   <g id="line2d_8">
    <path clip-path="url(#p67a53bb8ae)" d="M 31.2 18.4995 
L 26.34 18.4995 
L 21.48 18.4995 
" style="fill:none;stroke:#000000;stroke-linecap:round;stroke-width:2;"/>
   </g>
   <g id="line2d_9">
    <path clip-path="url(#p67a53bb8ae)" d="M 31.2 32.4495 
L 26.34 32.4495 
L 21.48 32.4495 
" style="fill:none;stroke:#000000;stroke-linecap:round;stroke-width:2;"/>
   </g>
   <g id="line2d_10">
    <path clip-path="url(#p67a53bb8ae)" d="M 181.212 25.4745 
L 186.072 25.4745 
L 190.932 25.4745 
" style="fill:none;stroke:#000000;stroke-linecap:round;stroke-width:2;"/>
   </g>
   <g id="line2d_11">
    <path clip-path="url(#p67a53bb8ae)" d="M 181.212 25.4745 
L 181.212 33.8445 
L 181.212 42.2145 
" style="fill:none;stroke:#000000;stroke-linecap:round;stroke-width:2;"/>
   </g>
   <g id="line2d_12">
    <path clip-path="url(#p67a53bb8ae)" d="M 181.212 42.2145 
L 186.072 42.2145 
L 190.932 42.2145 
" style="fill:none;stroke:#000000;stroke-linecap:round;stroke-width:2;"/>
   </g>
   <g id="text_1">
    <!-- $B$ -->
    <defs>
     <path d="M 19.671875 34.8125 
L 19.671875 8.109375 
L 35.5 8.109375 
Q 43.453125 8.109375 47.28125 11.40625 
Q 51.125 14.703125 51.125 21.484375 
Q 51.125 28.328125 47.28125 31.5625 
Q 43.453125 34.8125 35.5 34.8125 
z
M 19.671875 64.796875 
L 19.671875 42.828125 
L 34.28125 42.828125 
Q 41.5 42.828125 45.03125 45.53125 
Q 48.578125 48.25 48.578125 53.8125 
Q 48.578125 59.328125 45.03125 62.0625 
Q 41.5 64.796875 34.28125 64.796875 
z
M 9.8125 72.90625 
L 35.015625 72.90625 
Q 46.296875 72.90625 52.390625 68.21875 
Q 58.5 63.53125 58.5 54.890625 
Q 58.5 48.1875 55.375 44.234375 
Q 52.25 40.28125 46.1875 39.3125 
Q 53.46875 37.75 57.5 32.78125 
Q 61.53125 27.828125 61.53125 20.40625 
Q 61.53125 10.640625 54.890625 5.3125 
Q 48.25 0 35.984375 0 
L 9.8125 0 
z
" id="DejaVuSans-66"/>
    </defs>
    <g transform="translate(7.2 22.9145)scale(0.16 -0.16)">
     <use transform="translate(0 0.09375)" xlink:href="#DejaVuSans-66"/>
    </g>
   </g>
   <g id="text_2">
    <!-- $B$ -->
    <g transform="translate(7.2 36.8645)scale(0.16 -0.16)">
     <use transform="translate(0 0.09375)" xlink:href="#DejaVuSans-66"/>
    </g>
   </g>
   <g id="text_3">
    <!-- $B$ -->
    <g transform="translate(194.172 29.8895)scale(0.16 -0.16)">
     <use transform="translate(0 0.09375)" xlink:href="#DejaVuSans-66"/>
    </g>
   </g>
   <g id="text_4">
    <!-- $B$ -->
    <g transform="translate(194.172 46.6295)scale(0.16 -0.16)">
     <use transform="translate(0 0.09375)" xlink:href="#DejaVuSans-66"/>
    </g>
   </g>
  </g>
 </g>
 <defs>
  <clipPath id="p67a53bb8ae">
   <rect height="39.339" width="192.8772" x="9.7674" y="7.2"/>
  </clipPath>
 </defs>
</svg>
