<?xml version="1.0" encoding="UTF-8" standalone="no"?>
<!-- Uploaded to: SVG Repo, www.svgrepo.com, Generator: SVG Repo Mixer Tools -->

<svg
   width="800px"
   height="800px"
   viewBox="0 0 24 24"
   fill="none"
   version="1.1"
   id="svg188"
   sodipodi:docname="quote.svg"
   inkscape:version="1.2.2 (b0a84865, 2022-12-01)"
   xmlns:inkscape="http://www.inkscape.org/namespaces/inkscape"
   xmlns:sodipodi="http://sodipodi.sourceforge.net/DTD/sodipodi-0.dtd"
   xmlns="http://www.w3.org/2000/svg"
   xmlns:svg="http://www.w3.org/2000/svg">
  <defs
     id="defs192" />
  <sodipodi:namedview
     id="namedview190"
     pagecolor="#ffffff"
     bordercolor="#999999"
     borderopacity="1"
     inkscape:showpageshadow="0"
     inkscape:pageopacity="0"
     inkscape:pagecheckerboard="0"
     inkscape:deskcolor="#d1d1d1"
     showgrid="false"
     inkscape:zoom="0.59"
     inkscape:cx="-158.47458"
     inkscape:cy="627.11864"
     inkscape:window-width="1920"
     inkscape:window-height="1024"
     inkscape:window-x="0"
     inkscape:window-y="0"
     inkscape:window-maximized="0"
     inkscape:current-layer="svg188" />
  <path
     opacity="0.4"
     d="M16.1898 2H7.81977C4.17977 2 2.00977 4.17 2.00977 7.81V16.18C2.00977 19.82 4.17977 21.99 7.81977 21.99H16.1898C19.8298 21.99 21.9998 19.82 21.9998 16.18V7.81C21.9998 4.17 19.8298 2 16.1898 2Z"
     fill="#292D32"
     id="path182"
     style="opacity:1;fill:#a4b4c9;fill-opacity:1" />
  <path
     d="M15.8109 7.21997H14.3209C13.2309 7.21997 12.3809 8.06997 12.3809 9.15997V10.65C12.3809 11.74 13.2309 12.59 14.3209 12.59H16.2309C16.1509 14.4 15.7309 14.67 14.5209 15.38C14.1609 15.59 14.0509 16.05 14.2609 16.41C14.4009 16.65 14.6509 16.78 14.9109 16.78C15.0409 16.78 15.1709 16.75 15.2909 16.68C17.0809 15.62 17.7509 14.93 17.7509 11.85V9.17999C17.7509 8.08999 16.8809 7.21997 15.8109 7.21997Z"
     fill="#292D32"
     id="path184" />
  <path
     d="M9.68 7.21997H8.19C7.1 7.21997 6.25 8.06997 6.25 9.15997V10.65C6.25 11.74 7.1 12.59 8.19 12.59H10.1C10.02 14.4 9.6 14.67 8.39 15.38C8.03 15.59 7.92 16.05 8.13 16.41C8.27 16.65 8.52 16.78 8.78 16.78C8.91 16.78 9.04 16.75 9.16 16.68C10.95 15.62 11.62 14.93 11.62 11.85V9.17999C11.61 8.08999 10.74 7.21997 9.68 7.21997Z"
     fill="#292D32"
     id="path186" />
</svg>
