<?xml version="1.0" encoding="UTF-8" standalone="no"?>
<!-- Generator: Adobe Illustrator 19.0.0, SVG Export Plug-In . SVG Version: 6.00 Build 0)  -->

<svg
   version="1.1"
   id="Layer_1"
   x="0px"
   y="0px"
   viewBox="0 0 748.0166 783.68407"
   xml:space="preserve"
   width="748.03998"
   height="783.70856"
   sodipodi:docname="logo.svg"
   inkscape:version="1.2.2 (b0a84865, 2022-12-01)"
   xmlns:inkscape="http://www.inkscape.org/namespaces/inkscape"
   xmlns:sodipodi="http://sodipodi.sourceforge.net/DTD/sodipodi-0.dtd"
   xmlns="http://www.w3.org/2000/svg"
   xmlns:svg="http://www.w3.org/2000/svg"><defs
   id="defs205" /><sodipodi:namedview
   id="namedview203"
   pagecolor="#ffffff"
   bordercolor="#999999"
   borderopacity="1"
   inkscape:showpageshadow="0"
   inkscape:pageopacity="0"
   inkscape:pagecheckerboard="0"
   inkscape:deskcolor="#d1d1d1"
   showgrid="false"
   inkscape:zoom="0.4609375"
   inkscape:cx="-309.15254"
   inkscape:cy="352.54237"
   inkscape:window-width="1800"
   inkscape:window-height="1069"
   inkscape:window-x="0"
   inkscape:window-y="44"
   inkscape:window-maximized="0"
   inkscape:current-layer="Layer_1" />


<g
   id="g366"
   transform="matrix(22.221528,0,0,22.221528,-29.736906,-0.59884837)"><path
     fill="#90603e"
     d="m 6.203,21.641 c -0.078,0.922 0.321,1.198 0.946,1.636 0.618,0.433 4.383,-2.867 5.614,-3.369 1.231,-0.502 12.787,-2.949 12.286,-5.183 -0.501,-2.234 -3.993,-2.564 -6.683,-2.108 -2.69,0.456 -7.838,2.822 -9.342,4.099 -1.504,1.276 -2.821,4.925 -2.821,4.925 z m 8.622,1.497 c 0,0 -3.557,1.155 -3.557,4.155 0,3 0.866,4.692 1.276,5.513 0.411,0.82 1.688,1.616 3.455,0.851 2.052,-0.889 -0.491,-6.004 6,-3.656 2.974,1.075 6.059,2.528 9.059,1.528 C 33.904,30.58 35,27 35,25 c 0,-4.094 -3,-3 -4,-2 -1,1 -9,3 -10,3 -1,0 -6.175,-2.862 -6.175,-2.862 z"
     id="path324" /><path
     fill="#9b6a49"
     d="m 19.312,28.188 c 0,0 -0.12,-1.316 -1.375,-1.469 -1.031,-0.125 -2.656,0.219 -3.5,1.906 -0.844,1.688 -2.344,1.406 -2.281,2.812 0.062,1.406 0.5,2.5 1.406,2.781 C 14.469,34.5 15.75,34 15.906,32.5 c 0.156,-1.5 0.344,-2.875 1.312,-3.469 0.97,-0.593 2.094,-0.843 2.094,-0.843 z"
     id="path326" /><path
     fill="#90603e"
     d="m 18,26 c 0,0 -1,-1 -3,-1 -2,0 -6.664,2.133 -5.25,6.375 1,3 3.844,1.594 4.25,-1.375 0.407,-2.973 4,-4 4,-4 z"
     id="path328" /><path
     fill="#9b6a49"
     d="m 17,26 c 0,0 -1,-1 -3,-1 -2,0 -4.885,1.53 -5,6 -0.094,3.656 4.031,2 4,-1 -0.031,-3 4,-4 4,-4 z"
     id="path330" /><path
     fill="#90603e"
     d="m 5,27 c 0,3.297 0.457,5.286 2.428,4.947 3.269,-0.562 2.028,-4.614 4.889,-5.754 2.077,-0.827 5.101,-0.63 8.02,1.103 C 22.26,28.438 21,24 19,23 c -2,-1 -8,0 -9,0 -1,0 -5,4 -5,4 z"
     id="path332" /><path
     fill="#9b6a49"
     d="M 4.842,27.174 C 3.251,29.839 4.219,32.594 7,32 9.691,31.426 8.343,27.93 11,26 12.489,24.918 15.698,24.555 17.698,25.555 19.698,26.555 20,24 18,23 16,22 9.46,22.975 8.462,23.037 c -1.909,0.119 -3.62,4.137 -3.62,4.137 z"
     id="path334" /><path
     fill="#3b88c3"
     d="m 9.418,29.114 a 1.87,1.87 0 0 1 -2.639,0.18 L 6.583,29.123 A 1.869,1.869 0 0 1 6.403,26.485 L 28.926,0.668 a 1.87,1.87 0 0 1 2.639,-0.18 l 0.195,0.171 a 1.87,1.87 0 0 1 0.181,2.638 z"
     id="path336" /><path
     fill="#3b88c3"
     d="m 10.49,27.886 c -2.36,2.705 -8.313,8.009 -9.067,7.352 -0.753,-0.657 3.693,-7.275 6.053,-9.981 2.36,-2.706 1.661,-0.542 2.493,0.185 0.832,0.726 2.881,-0.26 0.521,2.444 z"
     id="path338" /><path
     fill="#90603e"
     d="m 6.672,25.026 c 0,1 2.421,1.915 3.421,0.915 1,-1 3.341,-2.228 6.419,-0.941 C 23.716,28.01 21,24 18,23 15,22 10,23 9,23 8,23 6.672,25.026 6.672,25.026 Z"
     id="path340" /><path
     fill="#af7e57"
     d="M 6.195,22.043 C 5.837,20.93 8.383,14.764 9.536,13.809 10.988,12.607 16.605,10.746 18.605,10.746 20.605,10.746 35,18 35,23 c 0,5 -2,5.625 -4.875,6.406 -2.299,0.625 -7.115,0.242 -9.219,-1.719 C 19.062,25.969 17.781,24.781 16,24 c -3.302,-1.448 -5.503,0.424 -6.503,1.424 -2,2 -5.768,-0.159 -2.625,-3.58 C 9.121,19.395 11.102,18.632 13,18 c 6,-2 10,-2 8,-4 -0.707,-0.707 -1.092,0.346 -2.076,0.525 -1.98,0.36 -3.556,0.602 -6.165,1.472 -0.902,0.3 -5.172,3.023 -6.564,6.046 z"
     id="path342" /><path
     fill="#90603e"
     d="m 13.196,16.275 c 1.064,-0.388 5.702,-1.232 8.115,-2.068 1.949,-0.676 3.659,0.636 -0.04,2.028 -3.57,1.343 -7.279,1.233 -9.984,2.307 -1.023,0.406 -1.91,-0.875 1.909,-2.267 z"
     id="path344" /><path
     fill="#3b88c3"
     d="m 22.487,8.023 c 0,0 -5.928,6.795 -8.446,9.661 2.254,-0.926 4.271,-0.75 6.198,-1.884 1.927,-1.133 2.806,-2.342 5.73,-5.695 1.086,-1.244 -3.482,-2.082 -3.482,-2.082 z"
     id="path346" /></g></svg>
