<?xml version="1.0" encoding="UTF-8" standalone="no"?>
<!-- Created with Inkscape (http://www.inkscape.org/) -->

<svg
   width="450"
   height="300"
   viewBox="0 0 450.00002 300.00001"
   id="svg3372"
   version="1.1"
   inkscape:version="1.2.2 (b0a84865, 2022-12-01)"
   sodipodi:docname="logo.svg"
   xmlns:inkscape="http://www.inkscape.org/namespaces/inkscape"
   xmlns:sodipodi="http://sodipodi.sourceforge.net/DTD/sodipodi-0.dtd"
   xmlns="http://www.w3.org/2000/svg"
   xmlns:svg="http://www.w3.org/2000/svg"
   xmlns:rdf="http://www.w3.org/1999/02/22-rdf-syntax-ns#"
   xmlns:cc="http://creativecommons.org/ns#"
   xmlns:dc="http://purl.org/dc/elements/1.1/">
  <defs
     id="defs3374" />
  <sodipodi:namedview
     id="base"
     pagecolor="#ffffff"
     bordercolor="#666666"
     borderopacity="1.0"
     inkscape:pageopacity="0.0"
     inkscape:pageshadow="2"
     inkscape:zoom="0.70710682"
     inkscape:cx="408.00059"
     inkscape:cy="221.32441"
     inkscape:document-units="px"
     inkscape:current-layer="layer2"
     showgrid="false"
     showguides="true"
     inkscape:guide-bbox="true"
     inkscape:snap-intersection-paths="true"
     inkscape:object-nodes="true"
     units="px"
     inkscape:snap-to-guides="true"
     inkscape:window-width="1920"
     inkscape:window-height="999"
     inkscape:window-x="1920"
     inkscape:window-y="25"
     inkscape:window-maximized="0"
     inkscape:snap-bbox="false"
     inkscape:object-paths="true"
     inkscape:snap-center="true"
     inkscape:snap-object-midpoints="false"
     inkscape:snap-text-baseline="true"
     inkscape:snap-smooth-nodes="true"
     inkscape:showpageshadow="0"
     inkscape:pagecheckerboard="0"
     inkscape:deskcolor="#d1d1d1">
    <sodipodi:guide
       position="0,90.000003"
       orientation="0,1"
       id="guide3384"
       inkscape:label=""
       inkscape:color="rgb(255,0,0)"
       inkscape:locked="false" />
    <sodipodi:guide
       position="0,209.26801"
       orientation="0,1"
       id="guide3386"
       inkscape:label=""
       inkscape:color="rgb(255,0,0)"
       inkscape:locked="false" />
    <sodipodi:guide
       position="0,171.03501"
       orientation="0,1"
       id="guide3464"
       inkscape:label=""
       inkscape:color="rgb(0,0,255)"
       inkscape:locked="false" />
    <sodipodi:guide
       position="0,50.713002"
       orientation="0,1"
       id="guide3466"
       inkscape:label=""
       inkscape:color="rgb(0,0,255)"
       inkscape:locked="false" />
    <sodipodi:guide
       position="0,250.04901"
       orientation="0,1"
       id="guide3698"
       inkscape:label=""
       inkscape:color="rgb(0,0,255)"
       inkscape:locked="false" />
    <inkscape:grid
       type="xygrid"
       id="grid4557" />
    <sodipodi:guide
       position="0,213.22301"
       orientation="0,1"
       id="guide4568"
       inkscape:label=""
       inkscape:color="rgb(0,0,255)"
       inkscape:locked="false" />
    <sodipodi:guide
       position="0,219.90201"
       orientation="0,1"
       id="guide4626"
       inkscape:label=""
       inkscape:color="rgb(0,0,255)"
       inkscape:locked="false" />
    <sodipodi:guide
       position="0,10.81"
       orientation="0,1"
       id="guide4653"
       inkscape:label=""
       inkscape:color="rgb(0,0,255)"
       inkscape:locked="false" />
  </sodipodi:namedview>
  <metadata
     id="metadata3377">
    <rdf:RDF>
      <cc:Work
         rdf:about="">
        <dc:format>image/svg+xml</dc:format>
        <dc:type
           rdf:resource="http://purl.org/dc/dcmitype/StillImage" />
        <dc:title />
      </cc:Work>
    </rdf:RDF>
  </metadata>
  <g
     inkscape:label="Lines"
     inkscape:groupmode="layer"
     id="layer1"
     transform="translate(0,-752.36216)"
     style="display:inline">
    <path
       sodipodi:nodetypes="cc"
       inkscape:connector-curvature="0"
       id="path4659"
       d="m 0,1041.5522 450.00002,0"
       style="fill:none;fill-rule:evenodd;stroke:#b3b3b3;stroke-width:1.99999988;stroke-linecap:butt;stroke-linejoin:miter;stroke-opacity:1" />
    <path
       style="fill:none;fill-rule:evenodd;stroke:#b3b3b3;stroke-width:1.99999988;stroke-linecap:butt;stroke-linejoin:miter;stroke-opacity:1"
       d="m 0,839.13916 450.00002,0"
       id="path4616"
       inkscape:connector-curvature="0"
       sodipodi:nodetypes="cc" />
    <path
       style="fill:none;fill-rule:evenodd;stroke:#b3b3b3;stroke-width:1.99999988;stroke-linecap:butt;stroke-linejoin:miter;stroke-opacity:1"
       d="m 0,1001.6492 450.00002,0"
       id="path3747"
       inkscape:connector-curvature="0"
       sodipodi:nodetypes="cc" />
    <path
       sodipodi:nodetypes="cc"
       inkscape:connector-curvature="0"
       id="path4549"
       d="m 0,962.36216 450.00002,0"
       style="fill:none;fill-rule:evenodd;stroke:#b3b3b3;stroke-width:1.99999988;stroke-linecap:butt;stroke-linejoin:miter;stroke-opacity:1" />
    <path
       style="fill:none;fill-rule:evenodd;stroke:#b3b3b3;stroke-width:1.99999988;stroke-linecap:butt;stroke-linejoin:miter;stroke-opacity:1"
       d="m 0,881.32716 450.00002,0"
       id="path4551"
       inkscape:connector-curvature="0"
       sodipodi:nodetypes="cc" />
    <path
       sodipodi:nodetypes="cc"
       inkscape:connector-curvature="0"
       id="path4553"
       d="m 0,843.09416 450.00002,0"
       style="fill:none;fill-rule:evenodd;stroke:#b3b3b3;stroke-width:1.99999988;stroke-linecap:butt;stroke-linejoin:miter;stroke-opacity:1" />
    <path
       style="fill:none;fill-rule:evenodd;stroke:#b3b3b3;stroke-width:1.99999988;stroke-linecap:butt;stroke-linejoin:miter;stroke-opacity:1"
       d="m 0,802.31316 450.00002,0"
       id="path4555"
       inkscape:connector-curvature="0"
       sodipodi:nodetypes="cc" />
  </g>
  <g
     inkscape:groupmode="layer"
     id="layer4"
     inkscape:label="Info"
     style="display:inline" />
  <g
     inkscape:groupmode="layer"
     id="layer2"
     inkscape:label="Outline letter"
     style="display:inline">
    <g
       id="g3428">
      <g
         id="g3414"
         style="display:inline" />
    </g>
    <g
       style="font-style:normal;font-weight:normal;font-size:80px;line-height:125%;font-family:sans-serif;text-align:center;letter-spacing:0px;word-spacing:-70px;text-anchor:middle;display:inline;fill:#000000;fill-opacity:1;stroke:none;stroke-width:1px;stroke-linecap:butt;stroke-linejoin:miter;stroke-opacity:1"
       id="text3393-4" />
    <g
       id="g93"
       transform="translate(46.500007)"
       style="stroke:#999999;fill:#999999">
      <path
         d="m 110.0332,97.324219 v 47.109371 h 22.58789 q 10.10743,0 14.23828,-3.77929 4.13086,-3.7793 4.83399,-13.53516 h 3.16406 v 41.39648 h -3.16406 q -1.05469,-8.78906 -2.90039,-11.77734 -1.75781,-3.07617 -5.97656,-4.92187 -2.02149,-0.9668 -10.19532,-0.9668 H 110.0332 v 39.46289 q 0,7.99805 0.61524,9.58008 0.61523,1.49414 2.54883,2.54883 1.93359,1.05468 6.94336,1.05468 h 15.99609 q 9.58008,0 14.76562,-1.58203 5.18555,-1.58203 10.01953,-6.15234 6.41602,-5.97656 10.54688,-15.73242 h 3.33984 L 165.31641,210 H 75.84375 v -3.25195 h 4.482422 q 7.294922,0 10.722656,-4.30664 2.109375,-2.8125 2.109375,-13.44727 V 163.85742 H 58.353516 l -10.898438,20.47852 q -6.152344,11.60156 -6.152344,15.20508 0,2.46093 2.636719,4.57031 2.724609,2.02148 11.162109,2.63672 V 210 H 17.660156 v -3.25195 q 3.867188,-0.0879 6.591797,-1.66993 2.8125,-1.58203 6.064453,-5.71289 3.251953,-4.13086 8.261719,-13.44726 L 74.789062,118.1543 q 6.767579,-12.56836 6.767579,-16.96289 0,-2.812504 -2.373047,-4.394535 -2.988282,-2.197266 -12.832032,-2.724609 v -3.251954 h 97.646488 l 1.31836,26.191408 h -2.98829 q -1.14257,-9.05274 -4.39453,-13.79883 -2.37304,-3.427734 -6.85547,-5.009765 -2.54882,-0.878906 -11.95312,-0.878906 z m -16.874997,0 -31.376953,60.117191 h 31.376953 z"
         style="font-style:normal;font-variant:normal;font-weight:normal;font-stretch:normal;font-size:180px;line-height:0%;font-family:'Times New Roman';-inkscape-font-specification:'Times New Roman, ';text-align:center;letter-spacing:0px;word-spacing:0px;text-anchor:middle;fill:#999999;fill-opacity:1;stroke:#999999;stroke-width:1px;stroke-linecap:butt;stroke-linejoin:miter;stroke-opacity:1"
         id="path84"
         inkscape:connector-curvature="0" />
      <path
         d="m 289.24219,160.16602 q -0.0879,4.48242 -0.0879,6.5039 0,17.66602 6.32812,25.13672 6.32813,7.4707 16.17188,7.4707 8.52539,0 15.46875,-5.36132 4.39453,-3.42774 9.40429,-13.97461 l 2.8125,1.93359 q -3.16406,14.23828 -13.62304,23.73047 -7.5586,6.85547 -18.89649,6.85547 -9.49219,0 -16.25976,-4.13086 -3.16407,-2.02149 -9.75586,-9.93164 -1.05469,0.79101 -4.83399,3.77929 -5.09765,4.13086 -6.85547,5.09766 -4.13086,2.37305 -8.78906,3.7793 -4.6582,1.40625 -9.58008,1.40625 -8.26172,0 -13.97461,-5.80078 -5.625,-5.88868 -5.625,-14.32618 0,-7.64648 3.7793,-13.00781 3.86719,-5.36133 15.0293,-11.07422 13.71094,-7.03125 24.25781,-10.72265 v -8.08594 q 0,-9.49219 -3.51562,-13.35938 -3.51563,-3.95507 -9.4043,-3.95507 -5.80078,0 -9.05274,2.8125 -3.33984,2.90039 -3.33984,6.41601 0,7.38281 -0.79102,9.58008 -0.70312,2.19727 -2.28515,3.33984 -1.58203,1.14258 -3.95508,1.14258 -3.42773,0 -5.27344,-2.02148 -2.63672,-2.8125 -2.63672,-6.32813 0,-4.57031 3.16407,-9.14062 3.25195,-4.57032 10.10742,-7.73438 6.94336,-3.16406 16.17187,-3.16406 10.89844,0 16.43555,3.16406 5.53711,3.07617 7.29492,7.64649 4.21875,-5.27344 8.87696,-7.64649 6.24023,-3.16406 14.76562,-3.16406 12.65625,0 20.56641,8.52539 7.99804,8.52539 7.99804,24.60938 z m 0,-5.7129 h 33.22265 q -0.17578,-11.07421 -4.74609,-16.08398 -4.48242,-5.09766 -11.51367,-5.09766 -7.03125,0 -11.95313,5.53711 -4.83398,5.44922 -5.00976,15.64453 z m -10.89844,39.375 q -1.8457,-3.95507 -2.98828,-10.2832 -1.14258,-6.41601 -1.14258,-12.48047 v -7.82226 q -11.86523,3.6914 -21.79687,11.25 -6.50391,5.00976 -6.50391,12.83203 0,6.94336 4.13086,11.33789 4.21875,4.39453 10.01953,4.39453 3.42773,0 7.20703,-1.75781 3.86719,-1.84571 11.07422,-7.47071 z"
         style="font-style:normal;font-variant:normal;font-weight:normal;font-stretch:normal;font-size:180px;line-height:0%;font-family:'Times New Roman';-inkscape-font-specification:'Times New Roman, ';text-align:center;letter-spacing:0px;word-spacing:0px;text-anchor:middle;fill:#999999;fill-opacity:1;stroke:#999999;stroke-width:1px;stroke-linecap:butt;stroke-linejoin:miter;stroke-opacity:1"
         id="path86"
         inkscape:connector-curvature="0" />
    </g>
  </g>
  <g
     inkscape:groupmode="layer"
     id="layer3"
     inkscape:label="Text letter"
     style="display:none">
    <text
       id="text3393"
       y="210.00003"
       x="224.209"
       style="font-style:normal;font-weight:normal;line-height:0%;font-family:sans-serif;text-align:center;letter-spacing:0px;word-spacing:-70px;text-anchor:middle;display:inline;fill:#000000;fill-opacity:1;stroke:none;stroke-width:1px;stroke-linecap:butt;stroke-linejoin:miter;stroke-opacity:1"
       xml:space="preserve"><tspan
         style="font-style:normal;font-variant:normal;font-weight:normal;font-stretch:normal;font-size:180px;font-family:'Times New Roman';-inkscape-font-specification:'Times New Roman, ';text-align:center;letter-spacing:0px;word-spacing:0px;text-anchor:middle"
         y="210.00003"
         x="224.209"
         id="tspan3395"
         sodipodi:role="line">Æ æ</tspan></text>
  </g>
</svg>
