<?xml version="1.0" encoding="UTF-8" standalone="no"?>
<!-- Created with Inkscape (http://www.inkscape.org/) -->

<svg
   xmlns:dc="http://purl.org/dc/elements/1.1/"
   xmlns:cc="http://creativecommons.org/ns#"
   xmlns:rdf="http://www.w3.org/1999/02/22-rdf-syntax-ns#"
   xmlns:svg="http://www.w3.org/2000/svg"
   xmlns="http://www.w3.org/2000/svg"
   xmlns:sodipodi="http://sodipodi.sourceforge.net/DTD/sodipodi-0.dtd"
   xmlns:inkscape="http://www.inkscape.org/namespaces/inkscape"
   width="98.888046mm"
   height="35.165958mm"
   viewBox="0 0 98.888046 35.165958"
   version="1.1"
   id="svg8"
   inkscape:version="0.92.4 (5da689c313, 2019-01-14)"
   sodipodi:docname="intel_fpga.svg">
  <defs
     id="defs2" />
  <sodipodi:namedview
     id="base"
     pagecolor="#ffffff"
     bordercolor="#666666"
     borderopacity="1.0"
     inkscape:pageopacity="0.0"
     inkscape:pageshadow="2"
     inkscape:zoom="0.98994949"
     inkscape:cx="258.40271"
     inkscape:cy="157.31113"
     inkscape:document-units="mm"
     inkscape:current-layer="layer1"
     showgrid="false"
     fit-margin-top="0"
     fit-margin-left="0"
     fit-margin-right="0"
     fit-margin-bottom="0"
     inkscape:window-width="1920"
     inkscape:window-height="1001"
     inkscape:window-x="-9"
     inkscape:window-y="41"
     inkscape:window-maximized="1" />
  <metadata
     id="metadata5">
    <rdf:RDF>
      <cc:Work
         rdf:about="">
        <dc:format>image/svg+xml</dc:format>
        <dc:type
           rdf:resource="http://purl.org/dc/dcmitype/StillImage" />
        <dc:title></dc:title>
      </cc:Work>
    </rdf:RDF>
  </metadata>
  <g
     inkscape:label="Layer 1"
     inkscape:groupmode="layer"
     id="layer1"
     transform="translate(-140.36375,-213.10918)">
    <g
       id="g828"
       transform="translate(-42.228585,-37.551369)"
       style="fill:#0071c5;fill-opacity:1">
      <path
         style="fill:#0071c5;fill-opacity:1;stroke-width:0.08466667"
         d="m 200.28505,285.78546 c -5.99419,-0.42646 -10.66333,-2.02015 -13.81502,-4.71538 -2.01757,-1.72536 -3.25665,-3.9474 -3.72077,-6.67241 -0.2497,-1.46609 -0.19511,-3.83021 0.11895,-5.15138 0.65687,-2.76331 2.10818,-5.19732 4.54256,-7.61842 l 0.97861,-0.97327 0.0245,0.79051 0.0244,0.79051 -0.45834,0.56376 c -3.54596,4.3616 -4.22465,10.00516 -1.66247,13.82416 0.48247,0.71914 1.75077,1.96292 2.53666,2.48761 1.98126,1.32277 4.75445,2.2816 7.95693,2.7511 3.29271,0.48274 7.83094,0.49671 11.89833,0.0366 5.81804,-0.6581 12.9369,-2.78059 17.16984,-5.11919 0.50262,-0.27769 0.93124,-0.50488 0.9525,-0.50488 0.0213,0 0.0387,0.92721 0.0387,2.06046 v 2.06046 l -1.3335,0.64283 c -5.20055,2.507 -12.09333,4.23122 -18.8595,4.71767 -1.06833,0.0768 -5.44242,0.0968 -6.39233,0.0292 z m -7.80965,-11.50521 c -0.94819,-0.22982 -1.57711,-0.72127 -1.94401,-1.5191 -0.19419,-0.42227 -0.19474,-0.43454 -0.22,-4.8895 l -0.0253,-4.46617 h 1.44349 1.4435 v 5.50334 c 0,4.34998 -0.0222,5.50185 -0.10584,5.49628 -0.0582,-0.004 -0.32452,-0.0601 -0.59181,-0.12485 z m 23.04965,10e-4 c -1.75783,-0.48781 -2.90381,-1.66137 -3.40283,-3.48473 -0.24216,-0.88482 -0.26477,-2.91643 -0.0418,-3.75077 0.20023,-0.74907 0.63949,-1.6454 1.06664,-2.17652 1.28833,-1.60197 3.96642,-2.15324 5.8916,-1.21275 1.1065,0.54055 1.85256,1.46119 2.30061,2.83894 0.18365,0.56472 0.22712,0.88495 0.26147,1.92616 l 0.0412,1.24884 h -3.45127 -3.45127 l 0.0494,0.41754 c 0.0663,0.55961 0.31613,1.02364 0.75211,1.39682 0.93598,0.80116 2.69593,0.70992 3.7244,-0.19309 0.16701,-0.14663 0.33743,-0.26661 0.37873,-0.26661 0.0413,0 0.44863,0.37496 0.90519,0.83325 l 0.83012,0.83324 -0.44444,0.39959 c -0.54391,0.48901 -1.02485,0.7765 -1.75918,1.05155 -0.48964,0.1834 -0.72629,0.21358 -1.87279,0.23885 -0.98973,0.0218 -1.42681,-0.003 -1.778,-0.10031 z m 3.302,-6.79708 c 0,-0.74534 -0.64868,-1.65706 -1.32216,-1.85829 -1.09935,-0.32848 -2.29578,0.28721 -2.60924,1.34274 -0.24359,0.82025 -0.4092,0.75446 1.8994,0.75446 h 2.032 z m -23.28334,1.33597 v -5.42227 l 3.40784,0.0248 3.40783,0.0248 0.49142,0.24882 c 0.58964,0.29854 1.01596,0.74899 1.31747,1.39202 l 0.22311,0.47582 0.0241,4.33917 0.0241,4.33917 h -1.39753 -1.39753 l -0.0236,-4.0198 -0.0236,-4.01981 -0.23453,-0.23469 -0.23453,-0.2347 -1.3953,-0.0269 -1.39531,-0.0269 v 4.28136 4.28137 h -1.397 -1.397 z m 13.03867,5.28671 c -0.63103,-0.16861 -1.27229,-0.61082 -1.59732,-1.10152 -0.52753,-0.79644 -0.51935,-0.6876 -0.51935,-6.90628 v -5.6573 h 1.397 1.397 v 1.48167 1.48166 h 1.016 1.016 v 1.143 1.143 h -1.016 -1.016 v 2.75587 c 0,3.51799 -0.0367,3.4248 1.3491,3.4248 h 0.76757 v 1.18533 1.18534 l -1.16417,-0.006 c -0.73931,-0.004 -1.3341,-0.051 -1.62983,-0.13 z m 19.2243,-1.36727 0.005,-1.50283 0.6,-0.381 c 0.79695,-0.50606 2.27645,-1.92928 2.88589,-2.77612 1.32615,-1.84273 1.98625,-4.08639 1.7619,-5.98867 -0.24274,-2.05822 -1.06317,-3.74027 -2.54054,-5.20862 -3.87084,-3.84722 -11.98229,-5.21898 -21.48841,-3.63398 -4.67616,0.77967 -9.40468,2.25295 -13.4786,4.19957 -0.71728,0.34273 -1.3191,0.62315 -1.33737,0.62315 -0.0183,0 -0.0219,-0.25513 -0.008,-0.56697 l 0.025,-0.56697 0.67733,-0.40942 c 1.02412,-0.61905 3.73216,-1.93146 5.19972,-2.51998 2.58147,-1.03522 5.67102,-1.94792 8.43162,-2.49081 8.46595,-1.66491 16.70231,-0.86944 21.74816,2.10045 3.33541,1.96316 5.1482,4.63101 5.56174,8.18512 0.49558,4.25915 -1.68135,8.61797 -5.61924,11.25131 -0.63599,0.42529 -2.13419,1.18861 -2.33296,1.18861 -0.0682,0 -0.0946,-0.43585 -0.0911,-1.50284 z m -2.49841,1.28223 c -0.96627,-0.23368 -1.65453,-0.81814 -1.95902,-1.66357 -0.1507,-0.4184 -0.16145,-0.82094 -0.18554,-6.94232 l -0.0256,-6.49817 h 1.44279 1.44278 v 7.62 c 0,6.04332 -0.0219,7.61854 -0.10583,7.61295 -0.0582,-0.004 -0.33253,-0.0619 -0.60961,-0.12889 z m 39.66211,-0.96481 c -1.52796,-0.40861 -2.56161,-1.22823 -3.20315,-2.53992 -0.53205,-1.08781 -0.63808,-1.6052 -0.63334,-3.09033 0.003,-1.01607 0.0397,-1.40205 0.18223,-1.93044 0.66427,-2.46215 2.58109,-3.86923 5.27093,-3.86923 1.09477,0 1.93334,0.16273 2.642,0.51269 0.79994,0.39504 0.79753,0.38935 0.43268,1.01937 -0.17272,0.29825 -0.3272,0.55796 -0.34328,0.57713 -0.0161,0.0192 -0.21039,-0.0629 -0.43181,-0.18245 -0.66359,-0.35819 -1.24377,-0.4874 -2.18842,-0.4874 -1.03547,0 -1.70926,0.1811 -2.372,0.63754 -0.50273,0.34624 -0.75842,0.64972 -1.0679,1.26746 -0.35147,0.70154 -0.44739,1.25324 -0.44164,2.54 0.005,1.06211 0.0292,1.25456 0.23554,1.85134 0.47973,1.38773 1.28774,2.11993 2.66316,2.41329 0.57719,0.12311 1.80126,0.12278 2.41588,-6.7e-4 l 0.47979,-0.0964 v -1.51231 -1.51231 h -1.27 -1.27 v -0.635 -0.635 h 2.032 2.032 v 2.57935 2.57936 l -0.18868,0.10097 c -0.10375,0.0555 -0.51333,0.1947 -0.91016,0.30927 -1.03661,0.29926 -3.13433,0.35273 -4.06583,0.10363 z m -21.92867,-5.50325 v -5.588 h 3.429 3.429 v 0.67733 0.67734 h -2.62466 -2.62467 v 1.82033 1.82033 h 2.20133 2.20134 v 0.67734 0.67733 h -2.20134 -2.20133 v 2.413 2.413 h -0.80433 -0.80434 z m 8.72067,0 v -5.588 h 2.27444 c 2.47595,0 2.92748,0.0505 3.69419,0.4135 0.9645,0.45658 1.5034,1.22519 1.6725,2.38537 0.25124,1.72376 -0.39669,3.1877 -1.6874,3.81252 -0.71059,0.34399 -1.18223,0.41389 -2.7999,0.41494 l -1.54516,0.001 v 2.07434 2.07433 h -0.80434 -0.80433 z m 4.61441,0.0388 c 1.04273,-0.2716 1.43812,-0.85227 1.43883,-2.11309 5.1e-4,-0.94325 -0.16152,-1.32123 -0.72907,-1.70054 -0.52357,-0.34992 -1.13599,-0.45846 -2.58662,-0.45846 h -1.21355 v 2.20133 2.20133 h 1.29454 c 0.89332,0 1.44993,-0.0405 1.79587,-0.13057 z m 15.02759,5.44341 c 0,-0.0582 0.94117,-2.57281 2.0923,-5.588 l 2.09296,-5.48217 h 0.82255 0.82255 l 0.26951,0.6985 c 0.89759,2.32639 3.97613,10.41018 3.97613,10.44075 0,0.0202 -0.37639,0.0368 -0.83642,0.0368 h -0.83642 l -0.44582,-1.2065 c -0.2452,-0.66357 -0.50104,-1.36842 -0.56853,-1.56633 l -0.12273,-0.35984 h -2.3008 -2.3008 l -0.41077,1.12184 c -0.22591,0.61701 -0.48511,1.32186 -0.57598,1.56633 l -0.16523,0.4445 h -0.75591 c -0.54794,0 -0.75611,-0.0291 -0.75659,-0.10583 z m 6.68933,-4.36849 c 0,-0.0546 -0.9412,-2.59699 -1.76678,-4.77257 -0.0353,-0.0931 -0.32519,0.60619 -0.80721,1.94733 -0.41366,1.15091 -0.82233,2.27354 -0.90815,2.49473 l -0.15605,0.40216 h 1.8191 c 1.0005,0 1.81909,-0.0322 1.81909,-0.0717 z m -87.79933,-8.05635 v -1.35466 h 1.43933 1.43934 v 1.35466 1.35467 h -1.43934 -1.43933 z m 38.00669,0.31457 c -0.48254,-0.32444 -0.60662,-1.04361 -0.26896,-1.55894 0.4123,-0.62925 1.53004,-0.59287 1.91713,0.0624 0.29708,0.50293 0.11422,1.26374 -0.3729,1.55149 -0.34406,0.20324 -0.92873,0.17805 -1.27527,-0.055 z m 1.02464,-0.14523 c 0.11009,-0.0711 0.10838,-0.0822 -0.0128,-0.0834 -0.0769,-6.8e-4 -0.21915,-0.12512 -0.31607,-0.27647 l -0.17622,-0.27516 -0.001,0.27516 c -10e-4,0.21825 -0.0365,0.27517 -0.17076,0.27517 -0.15542,0 -0.16956,-0.0574 -0.17215,-0.6985 l -0.003,-0.6985 -0.16651,0.19988 c -0.4142,0.49719 -0.025,1.36808 0.61013,1.36516 0.15493,-6.8e-4 0.33883,-0.0382 0.40868,-0.0834 z m 0.50744,-0.76433 c 0.001,-0.45739 -0.41212,-0.84303 -0.88844,-0.82893 l -0.33866,0.01 0.3794,0.0508 c 0.31843,0.0426 0.39273,0.0889 0.46229,0.28773 0.0592,0.16934 0.0526,0.28548 -0.0233,0.407 -0.0847,0.13562 -0.085,0.22871 -0.001,0.45981 l 0.10478,0.28977 0.15239,-0.2311 c 0.0838,-0.1271 0.15265,-0.32739 0.15295,-0.44509 z m -0.77176,-0.15884 c 0.13661,-0.0865 0.0551,-0.26217 -0.12167,-0.26217 -0.0671,0 -0.12201,0.0762 -0.12201,0.16934 0,0.18382 0.0625,0.20761 0.24368,0.0928 z"
         id="path838"
         inkscape:connector-curvature="0" />
      <path
         style="fill:#0071c5;fill-opacity:1;stroke-width:0.08466667"
         d="m 200.28505,285.78546 c -5.99419,-0.42646 -10.66333,-2.02015 -13.81502,-4.71538 -2.01757,-1.72536 -3.25665,-3.9474 -3.72077,-6.67241 -0.2497,-1.46609 -0.19511,-3.83021 0.11895,-5.15138 0.65687,-2.76331 2.10818,-5.19732 4.54256,-7.61842 l 0.97861,-0.97327 0.0245,0.79051 0.0244,0.79051 -0.45834,0.56376 c -3.54596,4.3616 -4.22465,10.00516 -1.66247,13.82416 0.48247,0.71914 1.75077,1.96292 2.53666,2.48761 1.98126,1.32277 4.75445,2.2816 7.95693,2.7511 3.29271,0.48274 7.83094,0.49671 11.89833,0.0366 5.81804,-0.6581 12.9369,-2.78059 17.16984,-5.11919 0.50262,-0.27769 0.93124,-0.50488 0.9525,-0.50488 0.0213,0 0.0387,0.92721 0.0387,2.06046 v 2.06046 l -1.3335,0.64283 c -5.20055,2.507 -12.09333,4.23122 -18.8595,4.71767 -1.06833,0.0768 -5.44242,0.0968 -6.39233,0.0292 z m -7.80965,-11.50521 c -0.94819,-0.22982 -1.57711,-0.72127 -1.94401,-1.5191 -0.19419,-0.42227 -0.19474,-0.43454 -0.22,-4.8895 l -0.0253,-4.46617 h 1.44349 1.4435 v 5.50334 c 0,4.34998 -0.0222,5.50185 -0.10584,5.49628 -0.0582,-0.004 -0.32452,-0.0601 -0.59181,-0.12485 z m 23.04965,10e-4 c -1.75783,-0.48781 -2.90381,-1.66137 -3.40283,-3.48473 -0.24216,-0.88482 -0.26477,-2.91643 -0.0418,-3.75077 0.20023,-0.74907 0.63949,-1.6454 1.06664,-2.17652 1.28833,-1.60197 3.96642,-2.15324 5.8916,-1.21275 1.1065,0.54055 1.85256,1.46119 2.30061,2.83894 0.18365,0.56472 0.22712,0.88495 0.26147,1.92616 l 0.0412,1.24884 h -3.45127 -3.45127 l 0.0494,0.41754 c 0.0663,0.55961 0.31613,1.02364 0.75211,1.39682 0.93598,0.80116 2.69593,0.70992 3.7244,-0.19309 0.16701,-0.14663 0.33743,-0.26661 0.37873,-0.26661 0.0413,0 0.44863,0.37496 0.90519,0.83325 l 0.83012,0.83324 -0.44444,0.39959 c -0.54391,0.48901 -1.02485,0.7765 -1.75918,1.05155 -0.48964,0.1834 -0.72629,0.21358 -1.87279,0.23885 -0.98973,0.0218 -1.42681,-0.003 -1.778,-0.10031 z m 3.302,-6.79708 c 0,-0.74534 -0.64868,-1.65706 -1.32216,-1.85829 -1.09935,-0.32848 -2.29578,0.28721 -2.60924,1.34274 -0.24359,0.82025 -0.4092,0.75446 1.8994,0.75446 h 2.032 z m -23.28334,1.33597 v -5.42227 l 3.40784,0.0248 3.40783,0.0248 0.49142,0.24882 c 0.58964,0.29854 1.01596,0.74899 1.31747,1.39202 l 0.22311,0.47582 0.0241,4.33917 0.0241,4.33917 h -1.39753 -1.39753 l -0.0236,-4.0198 -0.0236,-4.01981 -0.23453,-0.23469 -0.23453,-0.2347 -1.3953,-0.0269 -1.39531,-0.0269 v 4.28136 4.28137 h -1.397 -1.397 z m 13.03867,5.28671 c -0.63103,-0.16861 -1.27229,-0.61082 -1.59732,-1.10152 -0.52753,-0.79644 -0.51935,-0.6876 -0.51935,-6.90628 v -5.6573 h 1.397 1.397 v 1.48167 1.48166 h 1.016 1.016 v 1.143 1.143 h -1.016 -1.016 v 2.75587 c 0,3.51799 -0.0367,3.4248 1.3491,3.4248 h 0.76757 v 1.18533 1.18534 l -1.16417,-0.006 c -0.73931,-0.004 -1.3341,-0.051 -1.62983,-0.13 z m 19.2243,-1.36727 0.005,-1.50283 0.6,-0.381 c 0.79695,-0.50606 2.27645,-1.92928 2.88589,-2.77612 1.32615,-1.84273 1.98625,-4.08639 1.7619,-5.98867 -0.24274,-2.05822 -1.06317,-3.74027 -2.54054,-5.20862 -3.87084,-3.84722 -11.98229,-5.21898 -21.48841,-3.63398 -4.67616,0.77967 -9.40468,2.25295 -13.4786,4.19957 -0.71728,0.34273 -1.3191,0.62315 -1.33737,0.62315 -0.0183,0 -0.0219,-0.25513 -0.008,-0.56697 l 0.025,-0.56697 0.67733,-0.40942 c 1.02412,-0.61905 3.73216,-1.93146 5.19972,-2.51998 2.58147,-1.03522 5.67102,-1.94792 8.43162,-2.49081 8.46595,-1.66491 16.70231,-0.86944 21.74816,2.10045 3.33541,1.96316 5.1482,4.63101 5.56174,8.18512 0.49558,4.25915 -1.68135,8.61797 -5.61924,11.25131 -0.63599,0.42529 -2.13419,1.18861 -2.33296,1.18861 -0.0682,0 -0.0946,-0.43585 -0.0911,-1.50284 z m -2.49841,1.28223 c -0.96627,-0.23368 -1.65453,-0.81814 -1.95902,-1.66357 -0.1507,-0.4184 -0.16145,-0.82094 -0.18554,-6.94232 l -0.0256,-6.49817 h 1.44279 1.44278 v 7.62 c 0,6.04332 -0.0219,7.61854 -0.10583,7.61295 -0.0582,-0.004 -0.33253,-0.0619 -0.60961,-0.12889 z m 39.66211,-0.96481 c -1.52796,-0.40861 -2.56161,-1.22823 -3.20315,-2.53992 -0.53205,-1.08781 -0.63808,-1.6052 -0.63334,-3.09033 0.003,-1.01607 0.0397,-1.40205 0.18223,-1.93044 0.66427,-2.46215 2.58109,-3.86923 5.27093,-3.86923 1.09477,0 1.93334,0.16273 2.642,0.51269 0.79994,0.39504 0.79753,0.38935 0.43268,1.01937 -0.17272,0.29825 -0.3272,0.55796 -0.34328,0.57713 -0.0161,0.0192 -0.21039,-0.0629 -0.43181,-0.18245 -0.66359,-0.35819 -1.24377,-0.4874 -2.18842,-0.4874 -1.03547,0 -1.70926,0.1811 -2.372,0.63754 -0.50273,0.34624 -0.75842,0.64972 -1.0679,1.26746 -0.35147,0.70154 -0.44739,1.25324 -0.44164,2.54 0.005,1.06211 0.0292,1.25456 0.23554,1.85134 0.47973,1.38773 1.28774,2.11993 2.66316,2.41329 0.57719,0.12311 1.80126,0.12278 2.41588,-6.7e-4 l 0.47979,-0.0964 v -1.51231 -1.51231 h -1.27 -1.27 v -0.635 -0.635 h 2.032 2.032 v 2.57935 2.57936 l -0.18868,0.10097 c -0.10375,0.0555 -0.51333,0.1947 -0.91016,0.30927 -1.03661,0.29926 -3.13433,0.35273 -4.06583,0.10363 z m -21.92867,-5.50325 v -5.588 h 3.429 3.429 v 0.67733 0.67734 h -2.62466 -2.62467 v 1.82033 1.82033 h 2.20133 2.20134 v 0.67734 0.67733 h -2.20134 -2.20133 v 2.413 2.413 h -0.80433 -0.80434 z m 8.72067,0 v -5.588 h 2.27444 c 2.47595,0 2.92748,0.0505 3.69419,0.4135 0.9645,0.45658 1.5034,1.22519 1.6725,2.38537 0.25124,1.72376 -0.39669,3.1877 -1.6874,3.81252 -0.71059,0.34399 -1.18223,0.41389 -2.7999,0.41494 l -1.54516,0.001 v 2.07434 2.07433 h -0.80434 -0.80433 z m 4.61441,0.0388 c 1.04273,-0.2716 1.43812,-0.85227 1.43883,-2.11309 5.1e-4,-0.94325 -0.16152,-1.32123 -0.72907,-1.70054 -0.52357,-0.34992 -1.13599,-0.45846 -2.58662,-0.45846 h -1.21355 v 2.20133 2.20133 h 1.29454 c 0.89332,0 1.44993,-0.0405 1.79587,-0.13057 z m 15.02759,5.44341 c 0,-0.0582 0.94117,-2.57281 2.0923,-5.588 l 2.09296,-5.48217 h 0.82255 0.82255 l 0.26951,0.6985 c 0.89759,2.32639 3.97613,10.41018 3.97613,10.44075 0,0.0202 -0.37639,0.0368 -0.83642,0.0368 h -0.83642 l -0.44582,-1.2065 c -0.2452,-0.66357 -0.50104,-1.36842 -0.56853,-1.56633 l -0.12273,-0.35984 h -2.3008 -2.3008 l -0.41077,1.12184 c -0.22591,0.61701 -0.48511,1.32186 -0.57598,1.56633 l -0.16523,0.4445 h -0.75591 c -0.54794,0 -0.75611,-0.0291 -0.75659,-0.10583 z m 6.68933,-4.36849 c 0,-0.0546 -0.9412,-2.59699 -1.76678,-4.77257 -0.0353,-0.0931 -0.32519,0.60619 -0.80721,1.94733 -0.41366,1.15091 -0.82233,2.27354 -0.90815,2.49473 l -0.15605,0.40216 h 1.8191 c 1.0005,0 1.81909,-0.0322 1.81909,-0.0717 z m -87.79933,-8.05635 v -1.35466 h 1.43933 1.43934 v 1.35466 1.35467 h -1.43934 -1.43933 z m 38.00669,0.31457 c -0.48254,-0.32444 -0.60662,-1.04361 -0.26896,-1.55894 0.4123,-0.62925 1.53004,-0.59287 1.91713,0.0624 0.29708,0.50293 0.11422,1.26374 -0.3729,1.55149 -0.34406,0.20324 -0.92873,0.17805 -1.27527,-0.055 z m 1.02464,-0.14523 c 0.11009,-0.0711 0.10838,-0.0822 -0.0128,-0.0834 -0.0769,-6.8e-4 -0.21915,-0.12512 -0.31607,-0.27647 l -0.17622,-0.27516 -0.001,0.27516 c -10e-4,0.21825 -0.0365,0.27517 -0.17076,0.27517 -0.15542,0 -0.16956,-0.0574 -0.17215,-0.6985 l -0.003,-0.6985 -0.16651,0.19988 c -0.4142,0.49719 -0.025,1.36808 0.61013,1.36516 0.15493,-6.8e-4 0.33883,-0.0382 0.40868,-0.0834 z m 0.50744,-0.76433 c 0.001,-0.45739 -0.41212,-0.84303 -0.88844,-0.82893 l -0.33866,0.01 0.3794,0.0508 c 0.31843,0.0426 0.39273,0.0889 0.46229,0.28773 0.0592,0.16934 0.0526,0.28548 -0.0233,0.407 -0.0847,0.13562 -0.085,0.22871 -0.001,0.45981 l 0.10478,0.28977 0.15239,-0.2311 c 0.0838,-0.1271 0.15265,-0.32739 0.15295,-0.44509 z m -0.77176,-0.15884 c 0.13661,-0.0865 0.0551,-0.26217 -0.12167,-0.26217 -0.0671,0 -0.12201,0.0762 -0.12201,0.16934 0,0.18382 0.0625,0.20761 0.24368,0.0928 z"
         id="path836"
         inkscape:connector-curvature="0" />
      <path
         style="fill:#0071c5;fill-opacity:1;stroke-width:0.08466667"
         d="m 200.28505,285.78546 c -5.99419,-0.42646 -10.66333,-2.02015 -13.81502,-4.71538 -2.01757,-1.72536 -3.25665,-3.9474 -3.72077,-6.67241 -0.2497,-1.46609 -0.19511,-3.83021 0.11895,-5.15138 0.65687,-2.76331 2.10818,-5.19732 4.54256,-7.61842 l 0.97861,-0.97327 0.0245,0.79051 0.0244,0.79051 -0.45834,0.56376 c -3.54596,4.3616 -4.22465,10.00516 -1.66247,13.82416 0.48247,0.71914 1.75077,1.96292 2.53666,2.48761 1.98126,1.32277 4.75445,2.2816 7.95693,2.7511 3.29271,0.48274 7.83094,0.49671 11.89833,0.0366 5.81804,-0.6581 12.9369,-2.78059 17.16984,-5.11919 0.50262,-0.27769 0.93124,-0.50488 0.9525,-0.50488 0.0213,0 0.0387,0.92721 0.0387,2.06046 v 2.06046 l -1.3335,0.64283 c -5.20055,2.507 -12.09333,4.23122 -18.8595,4.71767 -1.06833,0.0768 -5.44242,0.0968 -6.39233,0.0292 z m -7.80965,-11.50521 c -0.94819,-0.22982 -1.57711,-0.72127 -1.94401,-1.5191 -0.19419,-0.42227 -0.19474,-0.43454 -0.22,-4.8895 l -0.0253,-4.46617 h 1.44349 1.4435 v 5.50334 c 0,4.34998 -0.0222,5.50185 -0.10584,5.49628 -0.0582,-0.004 -0.32452,-0.0601 -0.59181,-0.12485 z m 23.04965,10e-4 c -1.75783,-0.48781 -2.90381,-1.66137 -3.40283,-3.48473 -0.24216,-0.88482 -0.26477,-2.91643 -0.0418,-3.75077 0.20023,-0.74907 0.63949,-1.6454 1.06664,-2.17652 1.28833,-1.60197 3.96642,-2.15324 5.8916,-1.21275 1.1065,0.54055 1.85256,1.46119 2.30061,2.83894 0.18365,0.56472 0.22712,0.88495 0.26147,1.92616 l 0.0412,1.24884 h -3.45127 -3.45127 l 0.0494,0.41754 c 0.0663,0.55961 0.31613,1.02364 0.75211,1.39682 0.93598,0.80116 2.69593,0.70992 3.7244,-0.19309 0.16701,-0.14663 0.33743,-0.26661 0.37873,-0.26661 0.0413,0 0.44863,0.37496 0.90519,0.83325 l 0.83012,0.83324 -0.44444,0.39959 c -0.54391,0.48901 -1.02485,0.7765 -1.75918,1.05155 -0.48964,0.1834 -0.72629,0.21358 -1.87279,0.23885 -0.98973,0.0218 -1.42681,-0.003 -1.778,-0.10031 z m 3.302,-6.79708 c 0,-0.74534 -0.64868,-1.65706 -1.32216,-1.85829 -1.09935,-0.32848 -2.29578,0.28721 -2.60924,1.34274 -0.24359,0.82025 -0.4092,0.75446 1.8994,0.75446 h 2.032 z m -23.28334,1.33597 v -5.42227 l 3.40784,0.0248 3.40783,0.0248 0.49142,0.24882 c 0.58964,0.29854 1.01596,0.74899 1.31747,1.39202 l 0.22311,0.47582 0.0241,4.33917 0.0241,4.33917 h -1.39753 -1.39753 l -0.0236,-4.0198 -0.0236,-4.01981 -0.23453,-0.23469 -0.23453,-0.2347 -1.3953,-0.0269 -1.39531,-0.0269 v 4.28136 4.28137 h -1.397 -1.397 z m 13.03867,5.28671 c -0.63103,-0.16861 -1.27229,-0.61082 -1.59732,-1.10152 -0.52753,-0.79644 -0.51935,-0.6876 -0.51935,-6.90628 v -5.6573 h 1.397 1.397 v 1.48167 1.48166 h 1.016 1.016 v 1.143 1.143 h -1.016 -1.016 v 2.75587 c 0,3.51799 -0.0367,3.4248 1.3491,3.4248 h 0.76757 v 1.18533 1.18534 l -1.16417,-0.006 c -0.73931,-0.004 -1.3341,-0.051 -1.62983,-0.13 z m 19.2243,-1.36727 0.005,-1.50283 0.6,-0.381 c 0.79695,-0.50606 2.27645,-1.92928 2.88589,-2.77612 1.32615,-1.84273 1.98625,-4.08639 1.7619,-5.98867 -0.24274,-2.05822 -1.06317,-3.74027 -2.54054,-5.20862 -3.87084,-3.84722 -11.98229,-5.21898 -21.48841,-3.63398 -4.67616,0.77967 -9.40468,2.25295 -13.4786,4.19957 -0.71728,0.34273 -1.3191,0.62315 -1.33737,0.62315 -0.0183,0 -0.0219,-0.25513 -0.008,-0.56697 l 0.025,-0.56697 0.67733,-0.40942 c 1.02412,-0.61905 3.73216,-1.93146 5.19972,-2.51998 2.58147,-1.03522 5.67102,-1.94792 8.43162,-2.49081 8.46595,-1.66491 16.70231,-0.86944 21.74816,2.10045 3.33541,1.96316 5.1482,4.63101 5.56174,8.18512 0.49558,4.25915 -1.68135,8.61797 -5.61924,11.25131 -0.63599,0.42529 -2.13419,1.18861 -2.33296,1.18861 -0.0682,0 -0.0946,-0.43585 -0.0911,-1.50284 z m -2.49841,1.28223 c -0.96627,-0.23368 -1.65453,-0.81814 -1.95902,-1.66357 -0.1507,-0.4184 -0.16145,-0.82094 -0.18554,-6.94232 l -0.0256,-6.49817 h 1.44279 1.44278 v 7.62 c 0,6.04332 -0.0219,7.61854 -0.10583,7.61295 -0.0582,-0.004 -0.33253,-0.0619 -0.60961,-0.12889 z m 39.66211,-0.96481 c -1.52796,-0.40861 -2.56161,-1.22823 -3.20315,-2.53992 -0.53205,-1.08781 -0.63808,-1.6052 -0.63334,-3.09033 0.003,-1.01607 0.0397,-1.40205 0.18223,-1.93044 0.66427,-2.46215 2.58109,-3.86923 5.27093,-3.86923 1.09477,0 1.93334,0.16273 2.642,0.51269 0.79994,0.39504 0.79753,0.38935 0.43268,1.01937 -0.17272,0.29825 -0.3272,0.55796 -0.34328,0.57713 -0.0161,0.0192 -0.21039,-0.0629 -0.43181,-0.18245 -0.66359,-0.35819 -1.24377,-0.4874 -2.18842,-0.4874 -1.03547,0 -1.70926,0.1811 -2.372,0.63754 -0.50273,0.34624 -0.75842,0.64972 -1.0679,1.26746 -0.35147,0.70154 -0.44739,1.25324 -0.44164,2.54 0.005,1.06211 0.0292,1.25456 0.23554,1.85134 0.47973,1.38773 1.28774,2.11993 2.66316,2.41329 0.57719,0.12311 1.80126,0.12278 2.41588,-6.7e-4 l 0.47979,-0.0964 v -1.51231 -1.51231 h -1.27 -1.27 v -0.635 -0.635 h 2.032 2.032 v 2.57935 2.57936 l -0.18868,0.10097 c -0.10375,0.0555 -0.51333,0.1947 -0.91016,0.30927 -1.03661,0.29926 -3.13433,0.35273 -4.06583,0.10363 z m -21.92867,-5.50325 v -5.588 h 3.429 3.429 v 0.67733 0.67734 h -2.62466 -2.62467 v 1.82033 1.82033 h 2.20133 2.20134 v 0.67734 0.67733 h -2.20134 -2.20133 v 2.413 2.413 h -0.80433 -0.80434 z m 8.72067,0 v -5.588 h 2.27444 c 2.47595,0 2.92748,0.0505 3.69419,0.4135 0.9645,0.45658 1.5034,1.22519 1.6725,2.38537 0.25124,1.72376 -0.39669,3.1877 -1.6874,3.81252 -0.71059,0.34399 -1.18223,0.41389 -2.7999,0.41494 l -1.54516,0.001 v 2.07434 2.07433 h -0.80434 -0.80433 z m 4.61441,0.0388 c 1.04273,-0.2716 1.43812,-0.85227 1.43883,-2.11309 5.1e-4,-0.94325 -0.16152,-1.32123 -0.72907,-1.70054 -0.52357,-0.34992 -1.13599,-0.45846 -2.58662,-0.45846 h -1.21355 v 2.20133 2.20133 h 1.29454 c 0.89332,0 1.44993,-0.0405 1.79587,-0.13057 z m 15.02759,5.44341 c 0,-0.0582 0.94117,-2.57281 2.0923,-5.588 l 2.09296,-5.48217 h 0.82255 0.82255 l 0.26951,0.6985 c 0.89759,2.32639 3.97613,10.41018 3.97613,10.44075 0,0.0202 -0.37639,0.0368 -0.83642,0.0368 h -0.83642 l -0.44582,-1.2065 c -0.2452,-0.66357 -0.50104,-1.36842 -0.56853,-1.56633 l -0.12273,-0.35984 h -2.3008 -2.3008 l -0.41077,1.12184 c -0.22591,0.61701 -0.48511,1.32186 -0.57598,1.56633 l -0.16523,0.4445 h -0.75591 c -0.54794,0 -0.75611,-0.0291 -0.75659,-0.10583 z m 6.68933,-4.36849 c 0,-0.0546 -0.9412,-2.59699 -1.76678,-4.77257 -0.0353,-0.0931 -0.32519,0.60619 -0.80721,1.94733 -0.41366,1.15091 -0.82233,2.27354 -0.90815,2.49473 l -0.15605,0.40216 h 1.8191 c 1.0005,0 1.81909,-0.0322 1.81909,-0.0717 z m -87.79933,-8.05635 v -1.35466 h 1.43933 1.43934 v 1.35466 1.35467 h -1.43934 -1.43933 z m 38.00669,0.31457 c -0.48254,-0.32444 -0.60662,-1.04361 -0.26896,-1.55894 0.4123,-0.62925 1.53004,-0.59287 1.91713,0.0624 0.29708,0.50293 0.11422,1.26374 -0.3729,1.55149 -0.34406,0.20324 -0.92873,0.17805 -1.27527,-0.055 z m 1.02464,-0.14523 c 0.11009,-0.0711 0.10838,-0.0822 -0.0128,-0.0834 -0.0769,-6.8e-4 -0.21915,-0.12512 -0.31607,-0.27647 l -0.17622,-0.27516 -0.001,0.27516 c -10e-4,0.21825 -0.0365,0.27517 -0.17076,0.27517 -0.15542,0 -0.16956,-0.0574 -0.17215,-0.6985 l -0.003,-0.6985 -0.16651,0.19988 c -0.4142,0.49719 -0.025,1.36808 0.61013,1.36516 0.15493,-6.8e-4 0.33883,-0.0382 0.40868,-0.0834 z m 0.50744,-0.76433 c 0.001,-0.45739 -0.41212,-0.84303 -0.88844,-0.82893 l -0.33866,0.01 0.3794,0.0508 c 0.31843,0.0426 0.39273,0.0889 0.46229,0.28773 0.0592,0.16934 0.0526,0.28548 -0.0233,0.407 -0.0847,0.13562 -0.085,0.22871 -0.001,0.45981 l 0.10478,0.28977 0.15239,-0.2311 c 0.0838,-0.1271 0.15265,-0.32739 0.15295,-0.44509 z m -0.77176,-0.15884 c 0.13661,-0.0865 0.0551,-0.26217 -0.12167,-0.26217 -0.0671,0 -0.12201,0.0762 -0.12201,0.16934 0,0.18382 0.0625,0.20761 0.24368,0.0928 z"
         id="path834"
         inkscape:connector-curvature="0" />
      <path
         style="fill:#0071c5;fill-opacity:1;stroke-width:0.08466667"
         d="m 200.28505,285.78546 c -5.99419,-0.42646 -10.66333,-2.02015 -13.81502,-4.71538 -2.01757,-1.72536 -3.25665,-3.9474 -3.72077,-6.67241 -0.2497,-1.46609 -0.19511,-3.83021 0.11895,-5.15138 0.65687,-2.76331 2.10818,-5.19732 4.54256,-7.61842 l 0.97861,-0.97327 0.0245,0.79051 0.0244,0.79051 -0.45834,0.56376 c -3.54596,4.3616 -4.22465,10.00516 -1.66247,13.82416 0.48247,0.71914 1.75077,1.96292 2.53666,2.48761 1.98126,1.32277 4.75445,2.2816 7.95693,2.7511 3.29271,0.48274 7.83094,0.49671 11.89833,0.0366 5.81804,-0.6581 12.9369,-2.78059 17.16984,-5.11919 0.50262,-0.27769 0.93124,-0.50488 0.9525,-0.50488 0.0213,0 0.0387,0.92721 0.0387,2.06046 v 2.06046 l -1.3335,0.64283 c -5.20055,2.507 -12.09333,4.23122 -18.8595,4.71767 -1.06833,0.0768 -5.44242,0.0968 -6.39233,0.0292 z m -7.80965,-11.50521 c -0.94819,-0.22982 -1.57711,-0.72127 -1.94401,-1.5191 -0.19419,-0.42227 -0.19474,-0.43454 -0.22,-4.8895 l -0.0253,-4.46617 h 1.44349 1.4435 v 5.50334 c 0,4.34998 -0.0222,5.50185 -0.10584,5.49628 -0.0582,-0.004 -0.32452,-0.0601 -0.59181,-0.12485 z m 23.04965,10e-4 c -1.75783,-0.48781 -2.90381,-1.66137 -3.40283,-3.48473 -0.24216,-0.88482 -0.26477,-2.91643 -0.0418,-3.75077 0.20023,-0.74907 0.63949,-1.6454 1.06664,-2.17652 1.28833,-1.60197 3.96642,-2.15324 5.8916,-1.21275 1.1065,0.54055 1.85256,1.46119 2.30061,2.83894 0.18365,0.56472 0.22712,0.88495 0.26147,1.92616 l 0.0412,1.24884 h -3.45127 -3.45127 l 0.0494,0.41754 c 0.0663,0.55961 0.31613,1.02364 0.75211,1.39682 0.93598,0.80116 2.69593,0.70992 3.7244,-0.19309 0.16701,-0.14663 0.33743,-0.26661 0.37873,-0.26661 0.0413,0 0.44863,0.37496 0.90519,0.83325 l 0.83012,0.83324 -0.44444,0.39959 c -0.54391,0.48901 -1.02485,0.7765 -1.75918,1.05155 -0.48964,0.1834 -0.72629,0.21358 -1.87279,0.23885 -0.98973,0.0218 -1.42681,-0.003 -1.778,-0.10031 z m 3.302,-6.79708 c 0,-0.74534 -0.64868,-1.65706 -1.32216,-1.85829 -1.09935,-0.32848 -2.29578,0.28721 -2.60924,1.34274 -0.24359,0.82025 -0.4092,0.75446 1.8994,0.75446 h 2.032 z m -23.28334,1.33597 v -5.42227 l 3.40784,0.0248 3.40783,0.0248 0.49142,0.24882 c 0.58964,0.29854 1.01596,0.74899 1.31747,1.39202 l 0.22311,0.47582 0.0241,4.33917 0.0241,4.33917 h -1.39753 -1.39753 l -0.0236,-4.0198 -0.0236,-4.01981 -0.23453,-0.23469 -0.23453,-0.2347 -1.3953,-0.0269 -1.39531,-0.0269 v 4.28136 4.28137 h -1.397 -1.397 z m 13.03867,5.28671 c -0.63103,-0.16861 -1.27229,-0.61082 -1.59732,-1.10152 -0.52753,-0.79644 -0.51935,-0.6876 -0.51935,-6.90628 v -5.6573 h 1.397 1.397 v 1.48167 1.48166 h 1.016 1.016 v 1.143 1.143 h -1.016 -1.016 v 2.75587 c 0,3.51799 -0.0367,3.4248 1.3491,3.4248 h 0.76757 v 1.18533 1.18534 l -1.16417,-0.006 c -0.73931,-0.004 -1.3341,-0.051 -1.62983,-0.13 z m 19.2243,-1.36727 0.005,-1.50283 0.6,-0.381 c 0.79695,-0.50606 2.27645,-1.92928 2.88589,-2.77612 1.32615,-1.84273 1.98625,-4.08639 1.7619,-5.98867 -0.24274,-2.05822 -1.06317,-3.74027 -2.54054,-5.20862 -3.87084,-3.84722 -11.98229,-5.21898 -21.48841,-3.63398 -4.67616,0.77967 -9.40468,2.25295 -13.4786,4.19957 -0.71728,0.34273 -1.3191,0.62315 -1.33737,0.62315 -0.0183,0 -0.0219,-0.25513 -0.008,-0.56697 l 0.025,-0.56697 0.67733,-0.40942 c 1.02412,-0.61905 3.73216,-1.93146 5.19972,-2.51998 2.58147,-1.03522 5.67102,-1.94792 8.43162,-2.49081 8.46595,-1.66491 16.70231,-0.86944 21.74816,2.10045 3.33541,1.96316 5.1482,4.63101 5.56174,8.18512 0.49558,4.25915 -1.68135,8.61797 -5.61924,11.25131 -0.63599,0.42529 -2.13419,1.18861 -2.33296,1.18861 -0.0682,0 -0.0946,-0.43585 -0.0911,-1.50284 z m -2.49841,1.28223 c -0.96627,-0.23368 -1.65453,-0.81814 -1.95902,-1.66357 -0.1507,-0.4184 -0.16145,-0.82094 -0.18554,-6.94232 l -0.0256,-6.49817 h 1.44279 1.44278 v 7.62 c 0,6.04332 -0.0219,7.61854 -0.10583,7.61295 -0.0582,-0.004 -0.33253,-0.0619 -0.60961,-0.12889 z m 39.66211,-0.96481 c -1.52796,-0.40861 -2.56161,-1.22823 -3.20315,-2.53992 -0.53205,-1.08781 -0.63808,-1.6052 -0.63334,-3.09033 0.003,-1.01607 0.0397,-1.40205 0.18223,-1.93044 0.66427,-2.46215 2.58109,-3.86923 5.27093,-3.86923 1.09477,0 1.93334,0.16273 2.642,0.51269 0.79994,0.39504 0.79753,0.38935 0.43268,1.01937 -0.17272,0.29825 -0.3272,0.55796 -0.34328,0.57713 -0.0161,0.0192 -0.21039,-0.0629 -0.43181,-0.18245 -0.66359,-0.35819 -1.24377,-0.4874 -2.18842,-0.4874 -1.03547,0 -1.70926,0.1811 -2.372,0.63754 -0.50273,0.34624 -0.75842,0.64972 -1.0679,1.26746 -0.35147,0.70154 -0.44739,1.25324 -0.44164,2.54 0.005,1.06211 0.0292,1.25456 0.23554,1.85134 0.47973,1.38773 1.28774,2.11993 2.66316,2.41329 0.57719,0.12311 1.80126,0.12278 2.41588,-6.7e-4 l 0.47979,-0.0964 v -1.51231 -1.51231 h -1.27 -1.27 v -0.635 -0.635 h 2.032 2.032 v 2.57935 2.57936 l -0.18868,0.10097 c -0.10375,0.0555 -0.51333,0.1947 -0.91016,0.30927 -1.03661,0.29926 -3.13433,0.35273 -4.06583,0.10363 z m -21.92867,-5.50325 v -5.588 h 3.429 3.429 v 0.67733 0.67734 h -2.62466 -2.62467 v 1.82033 1.82033 h 2.20133 2.20134 v 0.67734 0.67733 h -2.20134 -2.20133 v 2.413 2.413 h -0.80433 -0.80434 z m 8.72067,0 v -5.588 h 2.27444 c 2.47595,0 2.92748,0.0505 3.69419,0.4135 0.9645,0.45658 1.5034,1.22519 1.6725,2.38537 0.25124,1.72376 -0.39669,3.1877 -1.6874,3.81252 -0.71059,0.34399 -1.18223,0.41389 -2.7999,0.41494 l -1.54516,0.001 v 2.07434 2.07433 h -0.80434 -0.80433 z m 4.61441,0.0388 c 1.04273,-0.2716 1.43812,-0.85227 1.43883,-2.11309 5.1e-4,-0.94325 -0.16152,-1.32123 -0.72907,-1.70054 -0.52357,-0.34992 -1.13599,-0.45846 -2.58662,-0.45846 h -1.21355 v 2.20133 2.20133 h 1.29454 c 0.89332,0 1.44993,-0.0405 1.79587,-0.13057 z m 15.02759,5.44341 c 0,-0.0582 0.94117,-2.57281 2.0923,-5.588 l 2.09296,-5.48217 h 0.82255 0.82255 l 0.26951,0.6985 c 0.89759,2.32639 3.97613,10.41018 3.97613,10.44075 0,0.0202 -0.37639,0.0368 -0.83642,0.0368 h -0.83642 l -0.44582,-1.2065 c -0.2452,-0.66357 -0.50104,-1.36842 -0.56853,-1.56633 l -0.12273,-0.35984 h -2.3008 -2.3008 l -0.41077,1.12184 c -0.22591,0.61701 -0.48511,1.32186 -0.57598,1.56633 l -0.16523,0.4445 h -0.75591 c -0.54794,0 -0.75611,-0.0291 -0.75659,-0.10583 z m 6.68933,-4.36849 c 0,-0.0546 -0.9412,-2.59699 -1.76678,-4.77257 -0.0353,-0.0931 -0.32519,0.60619 -0.80721,1.94733 -0.41366,1.15091 -0.82233,2.27354 -0.90815,2.49473 l -0.15605,0.40216 h 1.8191 c 1.0005,0 1.81909,-0.0322 1.81909,-0.0717 z m -87.79933,-8.05635 v -1.35466 h 1.43933 1.43934 v 1.35466 1.35467 h -1.43934 -1.43933 z m 38.00669,0.31457 c -0.48254,-0.32444 -0.60662,-1.04361 -0.26896,-1.55894 0.4123,-0.62925 1.53004,-0.59287 1.91713,0.0624 0.29708,0.50293 0.11422,1.26374 -0.3729,1.55149 -0.34406,0.20324 -0.92873,0.17805 -1.27527,-0.055 z m 1.02464,-0.14523 c 0.11009,-0.0711 0.10838,-0.0822 -0.0128,-0.0834 -0.0769,-6.8e-4 -0.21915,-0.12512 -0.31607,-0.27647 l -0.17622,-0.27516 -0.001,0.27516 c -10e-4,0.21825 -0.0365,0.27517 -0.17076,0.27517 -0.15542,0 -0.16956,-0.0574 -0.17215,-0.6985 l -0.003,-0.6985 -0.16651,0.19988 c -0.4142,0.49719 -0.025,1.36808 0.61013,1.36516 0.15493,-6.8e-4 0.33883,-0.0382 0.40868,-0.0834 z m 0.50744,-0.76433 c 0.001,-0.45739 -0.41212,-0.84303 -0.88844,-0.82893 l -0.33866,0.01 0.3794,0.0508 c 0.31843,0.0426 0.39273,0.0889 0.46229,0.28773 0.0592,0.16934 0.0526,0.28548 -0.0233,0.407 -0.0847,0.13562 -0.085,0.22871 -0.001,0.45981 l 0.10478,0.28977 0.15239,-0.2311 c 0.0838,-0.1271 0.15265,-0.32739 0.15295,-0.44509 z m -0.77176,-0.15884 c 0.13661,-0.0865 0.0551,-0.26217 -0.12167,-0.26217 -0.0671,0 -0.12201,0.0762 -0.12201,0.16934 0,0.18382 0.0625,0.20761 0.24368,0.0928 z"
         id="path832"
         inkscape:connector-curvature="0" />
      <path
         style="fill:#0071c5;fill-opacity:1;stroke-width:0.08466667"
         d="m 200.28505,285.78546 c -5.99419,-0.42646 -10.66333,-2.02015 -13.81502,-4.71538 -2.01757,-1.72536 -3.25665,-3.9474 -3.72077,-6.67241 -0.2497,-1.46609 -0.19511,-3.83021 0.11895,-5.15138 0.65687,-2.76331 2.10818,-5.19732 4.54256,-7.61842 l 0.97861,-0.97327 0.0245,0.79051 0.0244,0.79051 -0.45834,0.56376 c -3.54596,4.3616 -4.22465,10.00516 -1.66247,13.82416 0.48247,0.71914 1.75077,1.96292 2.53666,2.48761 1.98126,1.32277 4.75445,2.2816 7.95693,2.7511 3.29271,0.48274 7.83094,0.49671 11.89833,0.0366 5.81804,-0.6581 12.9369,-2.78059 17.16984,-5.11919 0.50262,-0.27769 0.93124,-0.50488 0.9525,-0.50488 0.0213,0 0.0387,0.92721 0.0387,2.06046 v 2.06046 l -1.3335,0.64283 c -5.20055,2.507 -12.09333,4.23122 -18.8595,4.71767 -1.06833,0.0768 -5.44242,0.0968 -6.39233,0.0292 z m -7.80965,-11.50521 c -0.94819,-0.22982 -1.57711,-0.72127 -1.94401,-1.5191 -0.19419,-0.42227 -0.19474,-0.43454 -0.22,-4.8895 l -0.0253,-4.46617 h 1.44349 1.4435 v 5.50334 c 0,4.34998 -0.0222,5.50185 -0.10584,5.49628 -0.0582,-0.004 -0.32452,-0.0601 -0.59181,-0.12485 z m 23.04965,10e-4 c -1.75783,-0.48781 -2.90381,-1.66137 -3.40283,-3.48473 -0.24216,-0.88482 -0.26477,-2.91643 -0.0418,-3.75077 0.20023,-0.74907 0.63949,-1.6454 1.06664,-2.17652 1.28833,-1.60197 3.96642,-2.15324 5.8916,-1.21275 1.1065,0.54055 1.85256,1.46119 2.30061,2.83894 0.18365,0.56472 0.22712,0.88495 0.26147,1.92616 l 0.0412,1.24884 h -3.45127 -3.45127 l 0.0494,0.41754 c 0.0663,0.55961 0.31613,1.02364 0.75211,1.39682 0.93598,0.80116 2.69593,0.70992 3.7244,-0.19309 0.16701,-0.14663 0.33743,-0.26661 0.37873,-0.26661 0.0413,0 0.44863,0.37496 0.90519,0.83325 l 0.83012,0.83324 -0.44444,0.39959 c -0.54391,0.48901 -1.02485,0.7765 -1.75918,1.05155 -0.48964,0.1834 -0.72629,0.21358 -1.87279,0.23885 -0.98973,0.0218 -1.42681,-0.003 -1.778,-0.10031 z m 3.302,-6.79708 c 0,-0.74534 -0.64868,-1.65706 -1.32216,-1.85829 -1.09935,-0.32848 -2.29578,0.28721 -2.60924,1.34274 -0.24359,0.82025 -0.4092,0.75446 1.8994,0.75446 h 2.032 z m -23.28334,1.33597 v -5.42227 l 3.40784,0.0248 3.40783,0.0248 0.49142,0.24882 c 0.58964,0.29854 1.01596,0.74899 1.31747,1.39202 l 0.22311,0.47582 0.0241,4.33917 0.0241,4.33917 h -1.39753 -1.39753 l -0.0236,-4.0198 -0.0236,-4.01981 -0.23453,-0.23469 -0.23453,-0.2347 -1.3953,-0.0269 -1.39531,-0.0269 v 4.28136 4.28137 h -1.397 -1.397 z m 13.03867,5.28671 c -0.63103,-0.16861 -1.27229,-0.61082 -1.59732,-1.10152 -0.52753,-0.79644 -0.51935,-0.6876 -0.51935,-6.90628 v -5.6573 h 1.397 1.397 v 1.48167 1.48166 h 1.016 1.016 v 1.143 1.143 h -1.016 -1.016 v 2.75587 c 0,3.51799 -0.0367,3.4248 1.3491,3.4248 h 0.76757 v 1.18533 1.18534 l -1.16417,-0.006 c -0.73931,-0.004 -1.3341,-0.051 -1.62983,-0.13 z m 19.2243,-1.36727 0.005,-1.50283 0.6,-0.381 c 0.79695,-0.50606 2.27645,-1.92928 2.88589,-2.77612 1.32615,-1.84273 1.98625,-4.08639 1.7619,-5.98867 -0.24274,-2.05822 -1.06317,-3.74027 -2.54054,-5.20862 -3.87084,-3.84722 -11.98229,-5.21898 -21.48841,-3.63398 -4.67616,0.77967 -9.40468,2.25295 -13.4786,4.19957 -0.71728,0.34273 -1.3191,0.62315 -1.33737,0.62315 -0.0183,0 -0.0219,-0.25513 -0.008,-0.56697 l 0.025,-0.56697 0.67733,-0.40942 c 1.02412,-0.61905 3.73216,-1.93146 5.19972,-2.51998 2.58147,-1.03522 5.67102,-1.94792 8.43162,-2.49081 8.46595,-1.66491 16.70231,-0.86944 21.74816,2.10045 3.33541,1.96316 5.1482,4.63101 5.56174,8.18512 0.49558,4.25915 -1.68135,8.61797 -5.61924,11.25131 -0.63599,0.42529 -2.13419,1.18861 -2.33296,1.18861 -0.0682,0 -0.0946,-0.43585 -0.0911,-1.50284 z m -2.49841,1.28223 c -0.96627,-0.23368 -1.65453,-0.81814 -1.95902,-1.66357 -0.1507,-0.4184 -0.16145,-0.82094 -0.18554,-6.94232 l -0.0256,-6.49817 h 1.44279 1.44278 v 7.62 c 0,6.04332 -0.0219,7.61854 -0.10583,7.61295 -0.0582,-0.004 -0.33253,-0.0619 -0.60961,-0.12889 z m 39.66211,-0.96481 c -1.52796,-0.40861 -2.56161,-1.22823 -3.20315,-2.53992 -0.53205,-1.08781 -0.63808,-1.6052 -0.63334,-3.09033 0.003,-1.01607 0.0397,-1.40205 0.18223,-1.93044 0.66427,-2.46215 2.58109,-3.86923 5.27093,-3.86923 1.09477,0 1.93334,0.16273 2.642,0.51269 0.79994,0.39504 0.79753,0.38935 0.43268,1.01937 -0.17272,0.29825 -0.3272,0.55796 -0.34328,0.57713 -0.0161,0.0192 -0.21039,-0.0629 -0.43181,-0.18245 -0.66359,-0.35819 -1.24377,-0.4874 -2.18842,-0.4874 -1.03547,0 -1.70926,0.1811 -2.372,0.63754 -0.50273,0.34624 -0.75842,0.64972 -1.0679,1.26746 -0.35147,0.70154 -0.44739,1.25324 -0.44164,2.54 0.005,1.06211 0.0292,1.25456 0.23554,1.85134 0.47973,1.38773 1.28774,2.11993 2.66316,2.41329 0.57719,0.12311 1.80126,0.12278 2.41588,-6.7e-4 l 0.47979,-0.0964 v -1.51231 -1.51231 h -1.27 -1.27 v -0.635 -0.635 h 2.032 2.032 v 2.57935 2.57936 l -0.18868,0.10097 c -0.10375,0.0555 -0.51333,0.1947 -0.91016,0.30927 -1.03661,0.29926 -3.13433,0.35273 -4.06583,0.10363 z m -21.92867,-5.50325 v -5.588 h 3.429 3.429 v 0.67733 0.67734 h -2.62466 -2.62467 v 1.82033 1.82033 h 2.20133 2.20134 v 0.67734 0.67733 h -2.20134 -2.20133 v 2.413 2.413 h -0.80433 -0.80434 z m 8.72067,0 v -5.588 h 2.27444 c 2.47595,0 2.92748,0.0505 3.69419,0.4135 0.9645,0.45658 1.5034,1.22519 1.6725,2.38537 0.25124,1.72376 -0.39669,3.1877 -1.6874,3.81252 -0.71059,0.34399 -1.18223,0.41389 -2.7999,0.41494 l -1.54516,0.001 v 2.07434 2.07433 h -0.80434 -0.80433 z m 4.61441,0.0388 c 1.04273,-0.2716 1.43812,-0.85227 1.43883,-2.11309 5.1e-4,-0.94325 -0.16152,-1.32123 -0.72907,-1.70054 -0.52357,-0.34992 -1.13599,-0.45846 -2.58662,-0.45846 h -1.21355 v 2.20133 2.20133 h 1.29454 c 0.89332,0 1.44993,-0.0405 1.79587,-0.13057 z m 15.02759,5.44341 c 0,-0.0582 0.94117,-2.57281 2.0923,-5.588 l 2.09296,-5.48217 h 0.82255 0.82255 l 0.26951,0.6985 c 0.89759,2.32639 3.97613,10.41018 3.97613,10.44075 0,0.0202 -0.37639,0.0368 -0.83642,0.0368 h -0.83642 l -0.44582,-1.2065 c -0.2452,-0.66357 -0.50104,-1.36842 -0.56853,-1.56633 l -0.12273,-0.35984 h -2.3008 -2.3008 l -0.41077,1.12184 c -0.22591,0.61701 -0.48511,1.32186 -0.57598,1.56633 l -0.16523,0.4445 h -0.75591 c -0.54794,0 -0.75611,-0.0291 -0.75659,-0.10583 z m 6.68933,-4.36849 c 0,-0.0546 -0.9412,-2.59699 -1.76678,-4.77257 -0.0353,-0.0931 -0.32519,0.60619 -0.80721,1.94733 -0.41366,1.15091 -0.82233,2.27354 -0.90815,2.49473 l -0.15605,0.40216 h 1.8191 c 1.0005,0 1.81909,-0.0322 1.81909,-0.0717 z m -87.79933,-8.05635 v -1.35466 h 1.43933 1.43934 v 1.35466 1.35467 h -1.43934 -1.43933 z m 38.00669,0.31457 c -0.48254,-0.32444 -0.60662,-1.04361 -0.26896,-1.55894 0.4123,-0.62925 1.53004,-0.59287 1.91713,0.0624 0.29708,0.50293 0.11422,1.26374 -0.3729,1.55149 -0.34406,0.20324 -0.92873,0.17805 -1.27527,-0.055 z m 1.02464,-0.14523 c 0.11009,-0.0711 0.10838,-0.0822 -0.0128,-0.0834 -0.0769,-6.8e-4 -0.21915,-0.12512 -0.31607,-0.27647 l -0.17622,-0.27516 -0.001,0.27516 c -10e-4,0.21825 -0.0365,0.27517 -0.17076,0.27517 -0.15542,0 -0.16956,-0.0574 -0.17215,-0.6985 l -0.003,-0.6985 -0.16651,0.19988 c -0.4142,0.49719 -0.025,1.36808 0.61013,1.36516 0.15493,-6.8e-4 0.33883,-0.0382 0.40868,-0.0834 z m 0.50744,-0.76433 c 0.001,-0.45739 -0.41212,-0.84303 -0.88844,-0.82893 l -0.33866,0.01 0.3794,0.0508 c 0.31843,0.0426 0.39273,0.0889 0.46229,0.28773 0.0592,0.16934 0.0526,0.28548 -0.0233,0.407 -0.0847,0.13562 -0.085,0.22871 -0.001,0.45981 l 0.10478,0.28977 0.15239,-0.2311 c 0.0838,-0.1271 0.15265,-0.32739 0.15295,-0.44509 z m -0.77176,-0.15884 c 0.13661,-0.0865 0.0551,-0.26217 -0.12167,-0.26217 -0.0671,0 -0.12201,0.0762 -0.12201,0.16934 0,0.18382 0.0625,0.20761 0.24368,0.0928 z"
         id="path830"
         inkscape:connector-curvature="0" />
    </g>
  </g>
</svg>
