<?xml version="1.0" encoding="UTF-8" standalone="no"?>
<!-- Created with Inkscape (http://www.inkscape.org/) -->

<svg
   width="67.733337mm"
   height="67.73333mm"
   viewBox="0 0 67.733337 67.73333"
   version="1.1"
   id="svg5"
   inkscape:version="1.1 (c68e22c387, 2021-05-23)"
   sodipodi:docname="cmder.svg"
   xmlns:inkscape="http://www.inkscape.org/namespaces/inkscape"
   xmlns:sodipodi="http://sodipodi.sourceforge.net/DTD/sodipodi-0.dtd"
   xmlns="http://www.w3.org/2000/svg"
   xmlns:svg="http://www.w3.org/2000/svg">
  <sodipodi:namedview
     id="namedview7"
     pagecolor="#505050"
     bordercolor="#eeeeee"
     borderopacity="1"
     inkscape:pageshadow="0"
     inkscape:pageopacity="0"
     inkscape:pagecheckerboard="0"
     inkscape:document-units="mm"
     showgrid="false"
     inkscape:zoom="0.9814281"
     inkscape:cx="87.627407"
     inkscape:cy="165.57504"
     inkscape:window-width="3440"
     inkscape:window-height="1369"
     inkscape:window-x="-8"
     inkscape:window-y="-8"
     inkscape:window-maximized="1"
     inkscape:current-layer="layer1" />
  <defs
     id="defs2" />
  <g
     inkscape:label="Layer 1"
     inkscape:groupmode="layer"
     id="layer1"
     transform="translate(-125.66211,-116.96901)">
    <g
       id="g1754"
       transform="translate(67.73333)">
      <path
         style="fill:#b0cf65;stroke-width:0.264583"
         d="m 57.928776,150.83567 v -33.86666 h 33.866665 33.866669 v 33.86666 33.86667 H 91.795441 57.928776 Z"
         id="path1762" />
      <path
         style="fill:#8ab81b;stroke-width:0.264583"
         d="m 57.928776,150.83567 v -33.86666 h 33.866665 33.866669 v 33.86666 33.86667 H 91.795441 57.928776 Z m 60.589584,26.19375 v -1.05833 H 91.398566 64.278776 v 1.05833 1.05834 h 27.11979 27.119794 z m -42.283119,-5.68854 -0.10811,-0.92604 h -5.924178 -5.924177 v 0.92604 0.92604 h 6.032287 6.032288 z m 23.493548,-0.004 -0.901708,-0.93033 -6.870001,0.0704 -6.870001,0.0704 -0.350745,0.8599 -0.350744,0.85989 h 8.122453 8.122447 z m 18.789571,0.004 v -0.92604 h -5.02709 -5.02708 v 0.92604 0.92604 h 5.02708 5.02709 z m -40.242551,-5.72802 c 0.159756,-0.45828 0.290466,-0.875 0.290466,-0.92604 0,-0.0511 -3.214687,-0.0928 -7.14375,-0.0928 h -7.143749 v 0.92604 0.92604 h 6.853283 6.853284 z m 18.546715,0.74042 c 0,-0.051 -0.130709,-0.46776 -0.290467,-0.92604 l -0.290465,-0.83323 h -4.332946 -4.332949 l -0.40367,0.78061 c -0.222017,0.42934 -0.403669,0.84605 -0.403669,0.92604 0,0.08 2.262187,0.14543 5.027083,0.14543 2.764896,0 5.027083,-0.0418 5.027083,-0.0928 z m 21.695836,-0.83323 v -0.92604 h -6.75619 c -6.67419,0 -6.75274,0.006 -6.47298,0.52916 0.21645,0.40445 0.55399,0.52917 1.43212,0.52917 0.69848,0 1.27805,0.1556 1.4783,0.39688 0.27149,0.32713 1.20712,0.39687 5.32406,0.39687 h 4.99469 z m -37.835418,-5.68854 0.539921,-1.05834 h -8.472044 -8.472043 v 1.05834 1.05833 h 7.932122 7.932122 z m 14.022916,0.83323 c 0,-0.1238 -0.13071,-0.60005 -0.290468,-1.05833 l -0.290465,-0.83324 h -2.169924 -2.169922 l -0.317736,0.87869 c -0.174754,0.48327 -0.317735,0.95952 -0.317735,1.05833 0,0.0988 1.250156,0.17965 2.778125,0.17965 1.527968,0 2.778125,-0.10129 2.778125,-0.2251 z m 23.812502,-0.83323 v -1.05834 h -7.80521 c -5.27326,0 -7.80521,0.0901 -7.80521,0.27773 0,0.15274 0.18165,0.62899 0.40367,1.05833 l 0.40367,0.78061 h 7.40154 7.40154 z m -35.718752,-4.86248 c 0,-0.055 0.180192,-0.53124 0.400426,-1.05834 l 0.400425,-0.95835 h -9.660841 -9.660842 v 1.05833 1.05834 h 9.260416 c 5.093229,0 9.260416,-0.045 9.260416,-0.1 z m 9.718423,-0.83259 c -0.309327,-1.00788 -0.58122,-0.94344 -0.864843,0.20496 -0.16016,0.64851 -0.10736,0.72761 0.48568,0.72761 0.639063,0 0.654057,-0.0369 0.379163,-0.93257 z m 26.000329,-0.12577 v -1.05833 h -8.86354 c -4.87495,0 -8.86355,0.0634 -8.86355,0.14079 0,0.0774 0.17252,0.55368 0.38338,1.05833 l 0.38337,0.91755 h 8.48017 8.48017 z m -32.861488,-5.90576 c 0.174755,-0.48327 0.317736,-0.95952 0.317736,-1.05833 0,-0.0988 -4.881562,-0.17965 -10.847916,-0.17965 H 64.278776 v 1.05833 1.05833 h 10.530181 10.53018 z m 32.861488,-0.17965 v -1.05833 h -9.95019 c -8.993815,0 -9.934634,0.0405 -9.788449,0.42145 0.08895,0.2318 0.233656,0.70805 0.321572,1.05833 l 0.159848,0.63688 h 9.628609 9.62861 z m -30.497647,-5.37475 c 0.178935,-0.39273 0.189449,-0.77221 0.02932,-1.05834 -0.228301,-0.40795 -1.25493,-0.44608 -12.010451,-0.44608 h -11.76081 v 1.05834 1.05833 H 76.01026 87.741748 Z m 30.497647,-0.44608 v -1.05834 h -10.84792 c -11.777103,0 -11.168046,-0.0827 -10.589881,1.43799 l 0.258035,0.67868 h 10.589886 10.58988 z m -32.279169,-5.02709 c 0,-0.43799 -0.999728,-1.29812 -1.718484,-1.47852 -0.370488,-0.093 -1.200146,-0.0365 -1.843686,0.12556 -1.453735,0.36606 -2.968208,0.38034 -3.184704,0.0301 -0.102813,-0.16636 -2.957262,-0.26459 -7.688532,-0.26459 h -7.525009 v 0.92604 0.92605 h 10.980207 c 7.14375,0 10.980208,-0.0924 10.980208,-0.26459 z m 32.279169,-0.66146 v -0.92604 h -11.90625 c -6.54844,0 -11.906252,0.0418 -11.906252,0.0928 0,0.0511 0.130709,0.46777 0.290467,0.92604 l 0.290465,0.83324 h 11.61578 11.61579 z m -39.422918,-5.82083 v -0.92604 h -7.408333 -7.408333 v 0.92604 0.92604 h 7.408333 7.408333 z m 39.422918,0 v -0.92604 H 104.57583 90.633304 l 0.897554,0.92604 0.897554,0.92604 h 13.044978 13.04497 z m 0,-5.68854 v -1.05833 H 91.398566 64.278776 v 1.05833 1.05833 h 27.11979 27.119794 z"
         id="path1760" />
      <path
         style="fill:#6e892d;stroke-width:0.264583"
         d="m 57.928776,150.83567 v -33.86666 h 33.866665 33.866669 v 33.86666 33.86667 H 91.795441 57.928776 Z m 64.822914,0 V 119.87943 H 91.795441 60.839193 v 30.95624 30.95625 h 30.956248 30.956249 z m -20.20761,20.5302 c -1.3545,-0.50502 -2.6837,-1.82713 -3.479823,-3.46127 -0.355365,-0.72942 -2.052106,-5.33575 -3.77054,-10.23628 l -3.124422,-8.91007 -0.734365,2.0309 c -0.403899,1.11699 -2.422781,6.19809 -4.486404,11.29132 l -3.752043,9.26041 -2.622506,0.0762 c -1.442379,0.0419 -2.714576,-0.0176 -2.827106,-0.13229 -0.112529,-0.11469 2.526115,-6.68456 5.863652,-14.59971 3.337537,-7.91514 6.068251,-14.53668 6.068251,-14.71451 0,-0.63292 -1.823817,-5.21621 -2.428067,-6.10179 -0.849109,-1.24444 -2.319745,-1.79776 -4.165296,-1.56717 -0.793098,0.0991 -1.722252,0.28672 -2.064787,0.41695 l -0.622791,0.23678 0.07641,-2.31246 0.07641,-2.31245 1.5875,-0.339 c 2.035989,-0.43476 5.057174,-0.24578 6.526561,0.40826 1.447128,0.64413 3.107105,2.44063 3.980212,4.30754 0.371435,0.79422 2.788115,7.45669 5.370404,14.80549 5.89757,16.7836 5.58231,15.95003 6.34282,16.77065 0.51034,0.55066 0.88674,0.69185 1.84445,0.69185 h 1.20326 v 2.10105 c 0,1.15558 -0.11421,2.17163 -0.2538,2.2579 -0.61262,0.37862 -3.62196,0.3993 -4.60798,0.0317 z"
         id="path1758" />
      <path
         style="fill:#494b42;stroke-width:0.264583"
         d="m 57.928776,150.83567 v -33.86666 h 33.866665 33.866669 v 33.86666 33.86667 H 91.795441 57.928776 Z m 65.087494,-0.001 v -31.22195 l -31.154683,0.0672 -31.154686,0.0672 -0.06723,31.15469 -0.06724,31.15469 h 31.221922 31.221917 v -31.22192 z m -21.11009,20.07682 c -2.115997,-1.0474 -2.531192,-1.93419 -7.226955,-15.43562 -2.270422,-6.52801 -2.503848,-7.06774 -2.748603,-6.35546 -0.147111,0.42811 -2.180135,5.54334 -4.517834,11.36718 l -4.25036,10.58876 -2.694951,0.0754 c -1.482224,0.0415 -2.694952,0.0111 -2.694952,-0.0676 0,-0.0786 2.737422,-6.64364 6.083161,-14.5889 l 6.083161,-14.44594 -0.779421,-2.20826 c -1.056261,-2.99262 -1.681284,-4.15217 -2.700273,-5.00959 -0.818801,-0.68898 -0.967161,-0.71865 -2.988165,-0.59758 -1.169624,0.0701 -2.334948,0.21547 -2.589609,0.32312 -0.418671,0.17698 -0.463021,-0.007 -0.463021,-1.91839 0,-2.48367 -0.155645,-2.36989 3.580655,-2.61751 4.280219,-0.28366 6.558316,0.90947 8.291286,4.34247 0.426228,0.84434 3.049482,7.99828 5.829456,15.89763 2.779975,7.89935 5.230325,14.70246 5.445225,15.11803 0.57087,1.10395 1.66319,1.86063 2.68593,1.86063 h 0.89036 v 1.95352 c 0,1.80221 -0.0461,1.96587 -0.59531,2.11305 -1.31039,0.35117 -3.51078,0.16385 -4.63978,-0.395 z"
         id="path1756" />
    </g>
  </g>
</svg>
