<?xml version="1.0" encoding="iso-8859-1"?>
<!-- Uploaded to: SVG Repo, www.svgrepo.com, Generator: SVG Repo Mixer Tools -->
<svg version="1.1" id="Layer_1" xmlns="http://www.w3.org/2000/svg" xmlns:xlink="http://www.w3.org/1999/xlink" 
	 viewBox="0 0 512 512" xml:space="preserve">
<g>
	<path style="fill:#ABB8B9;" d="M224,154.666c0-0.122,0-0.246-0.002-0.369C223.998,154.419,223.998,154.545,224,154.666L224,154.666
		z M117.331,261.333c-58.907,0-106.664-47.756-106.664-106.667S58.424,48,117.331,48C176.12,48,223.8,95.557,223.998,154.297
		C224.197,95.557,271.878,48,330.665,48c58.91,0,106.667,47.756,106.667,106.667c0,58.911-47.757,106.667-106.667,106.667
		c-58.787,0-106.468-47.557-106.667-106.296C223.8,213.776,176.121,261.333,117.331,261.333L117.331,261.333z M309.331,208
		c0,11.782,9.554,21.335,21.335,21.335c11.781,0,21.332-9.553,21.332-21.335c0-11.781-9.551-21.334-21.332-21.334
		C318.885,186.665,309.331,196.219,309.331,208L309.331,208z M170.665,176.002c11.783,0,21.334-9.551,21.334-21.335
		c0-11.781-9.551-21.332-21.334-21.332c-11.781,0-21.334,9.551-21.334,21.332C149.331,166.451,158.883,176.002,170.665,176.002
		L170.665,176.002z M117.331,186.665c-11.781,0-21.332,9.554-21.332,21.334c0,11.782,9.551,21.335,21.332,21.335
		c11.783,0,21.335-9.553,21.335-21.335C138.666,196.219,129.115,186.665,117.331,186.665L117.331,186.665z M127.998,154.666
		c0-5.89-4.775-10.664-10.666-10.664c-5.89,0-10.664,4.775-10.664,10.664c0,5.892,4.776,10.666,10.664,10.666
		C123.224,165.333,127.998,160.558,127.998,154.666L127.998,154.666z M277.332,176.002c11.781,0,21.334-9.551,21.334-21.335
		c0-11.781-9.553-21.332-21.334-21.332c-11.781,0-21.334,9.551-21.334,21.332C255.998,166.451,265.551,176.002,277.332,176.002
		L277.332,176.002z M330.666,165.333c5.888,0,10.666-4.774,10.666-10.666c0-5.89-4.778-10.664-10.666-10.664
		c-5.892,0-10.666,4.775-10.666,10.664C319.999,160.558,324.773,165.333,330.666,165.333L330.666,165.333z M117.331,122.668
		c11.783,0,21.335-9.551,21.335-21.335c0-11.781-9.552-21.332-21.335-21.332c-11.781,0-21.332,9.551-21.332,21.332
		C95.999,113.117,105.55,122.668,117.331,122.668L117.331,122.668z M330.666,122.668c11.781,0,21.332-9.551,21.332-21.335
		c0-11.781-9.551-21.332-21.332-21.332c-11.781,0-21.335,9.551-21.335,21.332C309.331,113.117,318.885,122.668,330.666,122.668
		L330.666,122.668z M362.664,154.666c0,11.784,9.551,21.335,21.335,21.335c11.781,0,21.332-9.551,21.332-21.335
		c0-11.781-9.551-21.332-21.332-21.332C372.215,133.335,362.664,142.885,362.664,154.666L362.664,154.666z M85.335,154.666
		c0-11.781-9.553-21.332-21.335-21.332c-11.781,0-21.334,9.551-21.334,21.332c0,11.784,9.553,21.335,21.334,21.335
		C75.782,176.002,85.335,166.451,85.335,154.666z"/>
	<path style="fill:#657694;" d="M330.666,261.333H117.331H69.998v202.665h341.331v-64v-74.665v-64H330.666L330.666,261.333z
		 M112.663,314.667h111.335v95.998H112.663V314.667z"/>
	<rect x="112.66" y="314.671" style="fill:#D12D4E;" width="111.337" height="95.998"/>
	<polygon style="fill:#ABB8B9;" points="458.667,420.889 458.667,304.443 411.329,322.761 411.329,402.57 	"/>
	<polygon style="fill:#D12D4E;" points="458.667,304.443 458.667,420.889 458.667,431.555 501.335,431.555 501.335,293.777 
		458.667,293.777 	"/>
</g>
<g>
	<path style="fill:#000003;" d="M501.332,283.11h-42.668c-5.892,0-10.668,4.776-10.668,10.668v3.358l-26,10.061v-45.863
		c0-5.892-4.776-10.668-10.668-10.668h-13.277C428.239,229.414,448,194.308,448,154.669c0-64.7-52.637-117.336-117.334-117.336
		c-47.271,0-88.1,28.104-106.666,68.478c-18.566-40.374-59.395-68.478-106.666-68.478C52.636,37.332,0,89.969,0,154.669
		c0,43.968,24.315,82.359,60.2,102.449c-0.557,1.294-0.868,2.718-0.868,4.216V464c0,5.892,4.777,10.668,10.668,10.668h341.33
		c5.892,0,10.668-4.776,10.668-10.668v-45.863l26,10.063v3.357c0,5.892,4.776,10.668,10.668,10.668h42.668
		c5.892,0,10.668-4.776,10.668-10.668v-137.78C512,287.886,507.223,283.11,501.332,283.11z M330.666,58.667
		c52.934,0,95.999,43.067,95.999,96.001c0,52.933-43.065,95.997-95.999,95.997c-52.908,0-95.953-43.02-95.998-95.916
		c0-0.027,0.001-0.054,0.001-0.082s-0.001-0.054-0.001-0.082C234.711,101.689,277.758,58.667,330.666,58.667z M263.279,250.666
		H184.72c16.916-11.909,30.555-28.169,39.279-47.14C232.724,222.497,246.362,238.756,263.279,250.666z M21.335,154.669
		c0-52.935,43.064-96.001,95.998-96.001c52.908,0,95.953,43.022,95.998,95.919c0,0.027-0.001,0.054-0.001,0.082
		c0,0.028,0.001,0.054,0.001,0.082c-0.045,52.895-43.09,95.916-95.998,95.916C64.399,250.666,21.335,207.601,21.335,154.669z
		 M400.662,453.333H80.666V272.001h319.996v50.76v79.809V453.333z M421.997,395.261v-65.189l26-10.059v85.311L421.997,395.261z
		 M490.665,420.89h-21.331V304.445l0,0h21.331V420.89z"/>
	<path style="fill:#000003;" d="M106.667,154.669c0,5.875,4.792,10.666,10.666,10.666c5.875,0,10.666-4.792,10.666-10.666
		s-4.792-10.666-10.666-10.666C111.459,144.002,106.667,148.794,106.667,154.669z"/>
	<path style="fill:#000003;" d="M117.331,133.338c17.646,0,32.003-14.356,32.003-32.003s-14.356-32.003-32.003-32.003
		c-17.644,0-31.999,14.356-31.999,32.003S99.687,133.338,117.331,133.338z M117.331,90.669c5.883,0,10.668,4.785,10.668,10.668
		c0,5.882-4.784,10.668-10.668,10.668c-5.881,0-10.664-4.785-10.664-10.668C106.667,95.453,111.451,90.669,117.331,90.669z"/>
	<path style="fill:#000003;" d="M96.002,154.669c0-17.646-14.356-32.002-32.003-32.002s-32.002,14.356-32.002,32.002
		c0,17.646,14.355,32.003,32.002,32.003S96.002,172.315,96.002,154.669z M64,165.336c-5.882,0-10.666-4.785-10.666-10.668
		c0-5.881,4.784-10.666,10.666-10.666c5.883,0,10.668,4.785,10.668,10.666C74.667,160.551,69.883,165.336,64,165.336z"/>
	<path style="fill:#000003;" d="M149.334,208c0-17.644-14.356-31.999-32.003-31.999C99.687,176,85.332,190.356,85.332,208
		c0,17.648,14.355,32.005,31.999,32.005C134.977,240.005,149.334,225.647,149.334,208z M117.331,218.669
		c-5.881,0-10.664-4.787-10.664-10.67c0-5.88,4.783-10.664,10.664-10.664c5.883,0,10.668,4.784,10.668,10.664
		C127.999,213.883,123.214,218.669,117.331,218.669z"/>
	<path style="fill:#000003;" d="M138.663,154.669c0,17.646,14.355,32.003,32.002,32.003s32.002-14.356,32.002-32.003
		s-14.355-32.002-32.002-32.002C153.018,122.667,138.663,137.022,138.663,154.669z M170.665,144.002
		c5.882,0,10.666,4.785,10.666,10.666c0,5.882-4.784,10.668-10.666,10.668c-5.882,0-10.666-4.785-10.666-10.668
		C159.998,148.788,164.784,144.002,170.665,144.002z"/>
	<path style="fill:#000003;" d="M341.332,154.669c0-5.875-4.792-10.666-10.666-10.666c-5.875,0-10.664,4.792-10.664,10.666
		c0,5.875,4.79,10.666,10.664,10.666C336.539,165.335,341.332,160.543,341.332,154.669z"/>
	<path style="fill:#000003;" d="M330.666,133.338c17.644,0,31.999-14.356,31.999-32.003s-14.355-32.003-31.999-32.003
		c-17.646,0-32.003,14.356-32.003,32.003S313.02,133.338,330.666,133.338z M330.666,90.669c5.881,0,10.664,4.785,10.664,10.668
		c0,5.882-4.783,10.668-10.664,10.668c-5.883,0-10.668-4.785-10.668-10.668C319.998,95.453,324.783,90.669,330.666,90.669z"/>
	<path style="fill:#000003;" d="M277.332,186.671c17.646,0,32.002-14.356,32.002-32.003s-14.355-32.002-32.002-32.002
		c-17.646,0-32.002,14.356-32.002,32.002C245.331,172.315,259.686,186.671,277.332,186.671z M277.332,144.002
		c5.882,0,10.666,4.785,10.666,10.666c0,5.882-4.784,10.668-10.666,10.668c-5.882,0-10.666-4.785-10.666-10.668
		C266.666,148.788,271.45,144.002,277.332,144.002z"/>
	<path style="fill:#000003;" d="M330.666,176c-17.646,0-32.003,14.355-32.003,31.999c0,17.648,14.356,32.005,32.003,32.005
		c17.644,0,31.999-14.356,31.999-32.005C362.665,190.355,348.31,176,330.666,176z M330.666,218.669
		c-5.883,0-10.668-4.787-10.668-10.67c0-5.88,4.784-10.664,10.668-10.664c5.881,0,10.664,4.784,10.664,10.664
		C341.33,213.883,336.546,218.669,330.666,218.669z"/>
	<path style="fill:#000003;" d="M351.997,154.669c0,17.646,14.356,32.003,32.003,32.003c17.644,0,31.999-14.356,31.999-32.003
		s-14.355-32.002-31.999-32.002C366.353,122.667,351.997,137.022,351.997,154.669z M383.999,144.002
		c5.881,0,10.664,4.785,10.664,10.666c0,5.882-4.783,10.668-10.664,10.668c-5.883,0-10.668-4.785-10.668-10.668
		C373.332,148.788,378.116,144.002,383.999,144.002z"/>
	<path style="fill:#000003;" d="M223.998,303.999H112.663c-5.892,0-10.668,4.776-10.668,10.668v96
		c0,5.892,4.776,10.668,10.668,10.668h111.335c5.892,0,10.668-4.776,10.668-10.668v-96
		C234.665,308.775,229.89,303.999,223.998,303.999z M213.33,399.999h-90v-74.665h90V399.999z"/>
	<path style="fill:#000003;" d="M266.664,390.436c5.892,0,10.668-4.776,10.668-10.668v-65.1c0-5.892-4.776-10.668-10.668-10.668
		c-5.892,0-10.668,4.776-10.668,10.668v65.1C255.996,385.66,260.771,390.436,266.664,390.436z"/>
	<path style="fill:#000003;" d="M266.667,399.746c-5.892,0-10.668,4.776-10.668,10.668v0.254c0,5.892,4.776,10.668,10.668,10.668
		c5.892,0,10.668-4.776,10.668-10.668v-0.254C277.335,404.521,272.56,399.746,266.667,399.746z"/>
	<path style="fill:#000003;" d="M309.331,303.999c-5.891,0-10.668,4.776-10.668,10.668v96c0,5.892,4.777,10.668,10.668,10.668
		s10.668-4.776,10.668-10.668v-96C319.998,308.775,315.221,303.999,309.331,303.999z"/>
	<path style="fill:#000003;" d="M352,304.001c-5.891,0-10.668,4.776-10.668,10.668v0.256c0,5.892,4.777,10.668,10.668,10.668
		c5.892,0,10.668-4.776,10.668-10.668v-0.256C362.667,308.777,357.892,304.001,352,304.001z"/>
	<path style="fill:#000003;" d="M351.996,334.902c-5.892,0-10.668,4.776-10.668,10.668v65.1c0,5.892,4.776,10.668,10.668,10.668
		s10.668-4.776,10.668-10.668v-65.1C362.663,339.678,357.887,334.902,351.996,334.902z"/>
</g>
</svg>