<?xml version="1.0" encoding="UTF-8" standalone="no"?>
<!-- Uploaded to: SVG Repo, www.svgrepo.com, Generator: SVG Repo Mixer Tools -->

<svg
   fill="#000000"
   version="1.1"
   id="Capa_1"
   width="800px"
   height="800px"
   viewBox="0 0 588.601 588.6"
   xml:space="preserve"
   sodipodi:docname="logo.svg"
   inkscape:version="1.2.2 (b0a84865, 2022-12-01)"
   xmlns:inkscape="http://www.inkscape.org/namespaces/inkscape"
   xmlns:sodipodi="http://sodipodi.sourceforge.net/DTD/sodipodi-0.dtd"
   xmlns="http://www.w3.org/2000/svg"
   xmlns:svg="http://www.w3.org/2000/svg"><defs
   id="defs389" /><sodipodi:namedview
   id="namedview387"
   pagecolor="#ffffff"
   bordercolor="#999999"
   borderopacity="1"
   inkscape:showpageshadow="0"
   inkscape:pageopacity="0"
   inkscape:pagecheckerboard="0"
   inkscape:deskcolor="#d1d1d1"
   showgrid="false"
   inkscape:zoom="0.295"
   inkscape:cx="261.01695"
   inkscape:cy="400"
   inkscape:window-width="1309"
   inkscape:window-height="404"
   inkscape:window-x="0"
   inkscape:window-y="25"
   inkscape:window-maximized="0"
   inkscape:current-layer="Capa_1" />
<g
   id="g384"
   style="fill:#808080">
	<path
   d="M271.016,245.45c-6.144,0.137-10.281,0.807-12.445,1.421v37.66c2.565,0.567,5.7,0.778,10.054,0.789   c16.261,0.058,26.448-7.836,26.448-21.228C295.078,252.076,286.287,245.104,271.016,245.45z"
   id="path372"
   style="fill:#808080" />
	<path
   d="M163.255,247.833c-5.332,0.118-8.923,0.738-10.805,1.305v35.084c2.228,0.536,4.962,0.726,8.735,0.741   c14.093,0.042,22.902-7.307,22.902-19.754C184.093,254.038,176.505,247.541,163.255,247.833z"
   id="path374"
   style="fill:#808080" />
	<path
   d="M359.031,537.786c0.781,0.053,1.551,0.115,2.342,0.115h178.2c20.851,0,37.8-16.964,37.8-37.8V86.999   c0-20.838-16.949-37.8-37.8-37.8h-178.2c-0.786,0-1.561,0.076-2.342,0.124V0L11.228,46.417v494.564L359.031,588.6V537.786z    M359.031,71.042c0.771-0.114,1.54-0.243,2.342-0.243h178.2c8.933,0,16.2,7.27,16.2,16.2v413.103c0,8.928-7.268,16.2-16.2,16.2   h-178.2c-0.796,0-1.571-0.116-2.342-0.232V71.042z M87.265,324.981c7.167,0.232,15.227-1.208,19.992-3.111l3.688,20.503   c-4.482,2.204-14.462,4.282-27.25,3.676c-35.04-1.672-52.423-25.94-52.423-56.972c0-37.188,23.852-58.767,54.752-59.896   c12.355-0.454,21.869,1.933,26.201,4.168l-4.962,20.849c-4.92-2.138-11.712-4.01-20.147-3.833   c-18.528,0.396-32.574,12.695-32.574,37.367C54.53,309.941,66.479,324.306,87.265,324.981z M200.082,293.472   c-9.373,8.802-23.042,12.535-38.717,12.261c-3.441-0.053-6.513-0.285-8.91-0.686v42.515l-25.241-1.171V231.125   c7.765-1.653,18.818-3.104,34.657-3.684c16.395-0.588,28.303,2.23,36.408,8.521c7.818,5.967,13.155,16.126,13.155,28.237   C211.434,276.312,207.368,286.593,200.082,293.472z M313.559,294.49c-10.837,9.439-26.644,13.447-44.719,13.131   c-3.963-0.073-7.507-0.316-10.265-0.738v45.604l-29.025-1.35V227.61c8.92-1.799,21.621-3.386,39.894-4.05   c18.889-0.686,32.656,2.328,42.021,9.065c9.07,6.413,15.235,17.323,15.235,30.364C326.7,276.025,322.022,287.086,313.559,294.49z"
   id="path376"
   style="fill:#808080" />
	<path
   d="M466.726,331.542c17.286,0,32.495-2.985,40.532-6.561l-5.358-33.392c-6.855,2.689-15.198,4.472-25.935,4.472   c-22.064,0-39.951-14.009-39.951-40.843c-0.296-23.856,15.208-40.845,39.055-40.845c11.929,0,19.976,2.091,25.339,4.472   l7.15-33.685c-9.539-3.586-22.649-5.666-34.577-5.666c-54.259,0-83.479,34.879-83.479,77.512   C389.502,302.917,419.613,331.542,466.726,331.542z"
   id="path378"
   style="fill:#808080" />
	<polygon
   points="409.973,428.029 422.276,428.029 422.276,400.413 448.521,400.413 448.521,388.6 422.276,388.6 422.276,361.231    409.973,361.231 409.973,388.6 383.722,388.6 383.722,400.413 409.973,400.413  "
   id="polygon380"
   style="fill:#808080" />
	<polygon
   points="497.133,361.231 484.829,361.231 484.829,388.6 458.584,388.6 458.584,400.413 484.829,400.413 484.829,428.029    497.133,428.029 497.133,400.413 523.384,400.413 523.384,388.6 497.133,388.6  "
   id="polygon382"
   style="fill:#808080" />
</g>
</svg>
