<?xml version="1.0" encoding="UTF-8" standalone="no"?>
<!-- Created with Inkscape (http://www.inkscape.org/) -->

<svg
   width="372.58932"
   height="37.903999"
   id="svg2"
   sodipodi:version="0.32"
   inkscape:version="1.2.2 (b0a84865, 2022-12-01)"
   version="1.0"
   sodipodi:docname="braille-numbers.svg"
   inkscape:output_extension="org.inkscape.output.svg.inkscape"
   xmlns:inkscape="http://www.inkscape.org/namespaces/inkscape"
   xmlns:sodipodi="http://sodipodi.sourceforge.net/DTD/sodipodi-0.dtd"
   xmlns="http://www.w3.org/2000/svg"
   xmlns:svg="http://www.w3.org/2000/svg"
   xmlns:rdf="http://www.w3.org/1999/02/22-rdf-syntax-ns#"
   xmlns:cc="http://creativecommons.org/ns#"
   xmlns:dc="http://purl.org/dc/elements/1.1/">
  <defs
     id="defs4">
    <rect
       x="-5.8000001e-06"
       y="42.666683"
       width="255.99998"
       height="74.666695"
       id="rect4359" />
    <marker
       style="overflow:visible"
       id="Arrow2Send"
       refX="0"
       refY="0"
       orient="auto"
       inkscape:stockid="Arrow2Send"
       inkscape:isstock="true">
      <path
         transform="matrix(-0.3,0,0,-0.3,0.69,0)"
         d="M 8.7185878,4.0337352 -2.2072895,0.01601326 8.7185884,-4.0017078 c -1.7454984,2.3720609 -1.7354408,5.6174519 -6e-7,8.035443 z"
         style="fill:context-stroke;fill-rule:evenodd;stroke-width:0.625;stroke-linejoin:round"
         id="path1733" />
    </marker>
    <marker
       style="overflow:visible"
       id="Arrow2Sstart"
       refX="0"
       refY="0"
       orient="auto"
       inkscape:stockid="Arrow2Sstart"
       inkscape:isstock="true">
      <path
         transform="matrix(0.3,0,0,0.3,-0.69,0)"
         d="M 8.7185878,4.0337352 -2.2072895,0.01601326 8.7185884,-4.0017078 c -1.7454984,2.3720609 -1.7354408,5.6174519 -6e-7,8.035443 z"
         style="fill:context-stroke;fill-rule:evenodd;stroke-width:0.625;stroke-linejoin:round"
         id="path1730" />
    </marker>
    <marker
       style="overflow:visible"
       id="Arrow1Sstart"
       refX="0"
       refY="0"
       orient="auto"
       inkscape:stockid="Arrow1Sstart"
       inkscape:isstock="true">
      <path
         transform="matrix(0.2,0,0,0.2,1.2,0)"
         style="fill:context-stroke;fill-rule:evenodd;stroke:context-stroke;stroke-width:1pt"
         d="M 0,0 5,-5 -12.5,0 5,5 Z"
         id="path1712" />
    </marker>
    <marker
       style="overflow:visible"
       id="Arrow2Mend"
       refX="0"
       refY="0"
       orient="auto"
       inkscape:stockid="Arrow2Mend"
       inkscape:isstock="true">
      <path
         transform="scale(-0.6)"
         d="M 8.7185878,4.0337352 -2.2072895,0.01601326 8.7185884,-4.0017078 c -1.7454984,2.3720609 -1.7354408,5.6174519 -6e-7,8.035443 z"
         style="fill:context-stroke;fill-rule:evenodd;stroke-width:0.625;stroke-linejoin:round"
         id="path1727" />
    </marker>
    <marker
       style="overflow:visible"
       id="Arrow2Lstart"
       refX="0"
       refY="0"
       orient="auto"
       inkscape:stockid="Arrow2Lstart"
       inkscape:isstock="true">
      <path
         transform="matrix(1.1,0,0,1.1,1.1,0)"
         d="M 8.7185878,4.0337352 -2.2072895,0.01601326 8.7185884,-4.0017078 c -1.7454984,2.3720609 -1.7354408,5.6174519 -6e-7,8.035443 z"
         style="fill:context-stroke;fill-rule:evenodd;stroke-width:0.625;stroke-linejoin:round"
         id="path1718" />
    </marker>
    <marker
       inkscape:stockid="EmptyTriangleOutM"
       orient="auto"
       refY="0"
       refX="0"
       id="EmptyTriangleOutM"
       style="overflow:visible"
       inkscape:isstock="true">
      <path
         id="path1339"
         d="M 5.77,0 -2.88,5 V -5 Z"
         style="fill:#ffffff;fill-rule:evenodd;stroke:#000000;stroke-width:1pt;stroke-opacity:1"
         transform="matrix(0.4,0,0,0.4,-1.8,0)"
         inkscape:connector-curvature="0" />
    </marker>
    <marker
       inkscape:stockid="Arrow2Mend"
       orient="auto"
       refY="0"
       refX="0"
       id="marker2124"
       style="overflow:visible"
       inkscape:isstock="true">
      <path
         id="path2122"
         style="fill:#000000;fill-opacity:1;fill-rule:evenodd;stroke:#000000;stroke-width:0.625;stroke-linejoin:round;stroke-opacity:1"
         d="M 8.7185878,4.0337352 -2.2072895,0.01601326 8.7185884,-4.0017078 c -1.7454984,2.3720609 -1.7354408,5.6174519 -6e-7,8.035443 z"
         transform="scale(-0.6)"
         inkscape:connector-curvature="0" />
    </marker>
    <marker
       inkscape:stockid="Arrow2Lend"
       orient="auto"
       refY="0"
       refX="0"
       id="Arrow2Lend"
       style="overflow:visible"
       inkscape:isstock="true">
      <path
         id="path1197"
         style="fill:#000000;fill-opacity:1;fill-rule:evenodd;stroke:#000000;stroke-width:0.625;stroke-linejoin:round;stroke-opacity:1"
         d="M 8.7185878,4.0337352 -2.2072895,0.01601326 8.7185884,-4.0017078 c -1.7454984,2.3720609 -1.7354408,5.6174519 -6e-7,8.035443 z"
         transform="matrix(-1.1,0,0,-1.1,-1.1,0)"
         inkscape:connector-curvature="0" />
    </marker>
    <inkscape:perspective
       sodipodi:type="inkscape:persp3d"
       inkscape:vp_x="0 : 505.90861 : 1"
       inkscape:vp_y="0 : 1066.6667 : 0"
       inkscape:vp_z="793.70078 : 505.90861 : 1"
       inkscape:persp3d-origin="396.85039 : 318.822 : 1"
       id="perspective10" />
    <inkscape:perspective
       id="perspective2410"
       inkscape:persp3d-origin="396.85039 : 318.822 : 1"
       inkscape:vp_z="793.70078 : 505.90861 : 1"
       inkscape:vp_y="0 : 1066.6667 : 0"
       inkscape:vp_x="0 : 505.90861 : 1"
       sodipodi:type="inkscape:persp3d" />
    <rect
       x="-5.8000001e-06"
       y="42.666683"
       width="255.99998"
       height="74.666695"
       id="rect8138" />
    <rect
       x="-5.8000001e-06"
       y="42.666683"
       width="255.99998"
       height="74.666695"
       id="rect8144" />
    <rect
       x="-5.8000001e-06"
       y="42.666683"
       width="255.99998"
       height="74.666695"
       id="rect8150" />
    <rect
       x="-5.8000001e-06"
       y="42.666683"
       width="255.99998"
       height="74.666695"
       id="rect8156" />
    <rect
       x="-5.8000001e-06"
       y="42.666683"
       width="255.99998"
       height="74.666695"
       id="rect9425" />
    <rect
       x="-5.8000001e-06"
       y="42.666683"
       width="255.99998"
       height="74.666695"
       id="rect11679" />
    <rect
       x="-5.8000001e-06"
       y="42.666683"
       width="255.99998"
       height="74.666695"
       id="rect11685" />
    <rect
       x="-5.8000001e-06"
       y="42.666683"
       width="255.99998"
       height="74.666695"
       id="rect11793" />
    <rect
       x="-5.8000001e-06"
       y="42.666683"
       width="255.99998"
       height="74.666695"
       id="rect12211" />
    <rect
       x="-5.8000001e-06"
       y="42.666683"
       width="255.99998"
       height="74.666695"
       id="rect12219" />
    <rect
       x="-5.8000001e-06"
       y="42.666683"
       width="255.99998"
       height="74.666695"
       id="rect12227" />
    <clipPath
       clipPathUnits="userSpaceOnUse"
       id="clipPath1015">
      <path
         d="m 184.507,563.998 h 50.995 v -43.002 h -50.995 z"
         id="path1013" />
    </clipPath>
  </defs>
  <sodipodi:namedview
     id="base"
     pagecolor="#ffffff"
     bordercolor="#666666"
     borderopacity="1.0"
     gridtolerance="10000"
     guidetolerance="10"
     objecttolerance="10"
     inkscape:pageopacity="0.0"
     inkscape:pageshadow="2"
     inkscape:zoom="2.7777612"
     inkscape:cx="199.9812"
     inkscape:cy="62.100372"
     inkscape:document-units="pt"
     inkscape:current-layer="g911"
     showgrid="true"
     inkscape:window-width="1800"
     inkscape:window-height="1069"
     inkscape:window-x="0"
     inkscape:window-y="44"
     units="in"
     inkscape:window-maximized="0"
     showguides="true"
     inkscape:snap-text-baseline="true"
     fit-margin-top="0"
     fit-margin-left="0"
     fit-margin-right="0"
     fit-margin-bottom="0"
     inkscape:pagecheckerboard="0"
     inkscape:snap-global="true"
     inkscape:snap-center="true"
     inkscape:showpageshadow="0"
     inkscape:deskcolor="#d1d1d1">
    <inkscape:grid
       type="xygrid"
       id="grid3017"
       empspacing="8"
       visible="true"
       enabled="true"
       snapvisiblegridlinesonly="true"
       units="pt"
       spacingx="1.3333333"
       spacingy="1.3333333"
       dotted="true"
       originx="-379.67654"
       originy="48.513262" />
    <inkscape:grid
       type="xygrid"
       id="grid3019"
       empspacing="8"
       visible="true"
       enabled="true"
       snapvisiblegridlinesonly="true"
       units="pt"
       spacingx="10.666667"
       spacingy="10.666667"
       originx="-379.67654"
       originy="48.513262" />
  </sodipodi:namedview>
  <metadata
     id="metadata7">
    <rdf:RDF>
      <cc:Work
         rdf:about="">
        <dc:format>image/svg+xml</dc:format>
        <dc:type
           rdf:resource="http://purl.org/dc/dcmitype/StillImage" />
      </cc:Work>
    </rdf:RDF>
  </metadata>
  <g
     inkscape:label="Layer 1"
     inkscape:groupmode="layer"
     id="layer1"
     transform="translate(-153.3103,707.08841)">
    <g
       id="g973"
       inkscape:label="Code - The Hidden Language of Computer Hardware and Software"
       transform="matrix(1.3333333,0,0,-1.3333333,71.892409,-192.43083)">
      <g
         id="g911"
         inkscape:label="Code - The Hidden Language of Computer Hardware and Software"
         transform="translate(-21.141579,-52.329804)">
        <path
           d="m 403.5,11.303 h 18.1 v 13.7 h -18.1 z"
           style="fill:#231f20;fill-opacity:1;fill-rule:nonzero;stroke:none"
           id="path921" />
        <path
           d="m 385.5,11.303 h 18.1 v 13.7 h -18.1 z"
           style="fill:#ef3e42;fill-opacity:1;fill-rule:nonzero;stroke:none"
           id="path923" />
        <path
           d="m 379.4,7.603 h 46.8 v 20.6 h -46.8 z"
           style="fill:#ffffff;fill-opacity:1;fill-rule:nonzero;stroke:none"
           id="path925" />
        <g
           id="g977"
           transform="translate(83.787,435.159)"
           style="fill:#999999">
          <path
             d="m 0,0 c -0.422,0 -0.791,0.159 -1.108,0.475 -0.316,0.317 -0.474,0.685 -0.474,1.107 0,0.422 0.158,0.791 0.474,1.108 C -0.791,3.006 -0.422,3.164 0,3.164 0.422,3.164 0.791,3.006 1.107,2.69 1.424,2.373 1.582,2.004 1.582,1.582 1.582,1.16 1.424,0.792 1.107,0.475 0.791,0.159 0.422,0 0,0 Z m 0,-3.787 c -0.129,0 -0.246,0.053 -0.352,0.158 -0.105,0.106 -0.158,0.223 -0.158,0.352 0,0.129 0.053,0.246 0.158,0.351 0.106,0.106 0.223,0.159 0.352,0.159 0.129,0 0.246,-0.053 0.352,-0.159 C 0.457,-3.031 0.51,-3.148 0.51,-3.277 0.51,-3.406 0.457,-3.523 0.352,-3.629 0.246,-3.734 0.129,-3.787 0,-3.787 Z m 0,-4.86 c -0.129,0 -0.246,0.053 -0.352,0.159 -0.105,0.105 -0.158,0.222 -0.158,0.351 0,0.129 0.053,0.246 0.158,0.352 0.106,0.105 0.223,0.158 0.352,0.158 0.129,0 0.246,-0.053 0.352,-0.158 C 0.457,-7.891 0.51,-8.008 0.51,-8.137 0.51,-8.266 0.457,-8.383 0.352,-8.488 0.246,-8.594 0.129,-8.647 0,-8.647 Z m 4.86,9.72 C 4.731,1.073 4.614,1.126 4.508,1.231 4.403,1.337 4.35,1.454 4.35,1.582 4.35,1.711 4.403,1.828 4.508,1.934 4.614,2.039 4.731,2.092 4.86,2.092 4.989,2.092 5.106,2.039 5.212,1.934 5.317,1.828 5.37,1.711 5.37,1.582 5.37,1.454 5.317,1.337 5.212,1.231 5.106,1.126 4.989,1.073 4.86,1.073 Z m 0,-4.86 c -0.129,0 -0.246,0.053 -0.352,0.158 -0.105,0.106 -0.158,0.223 -0.158,0.352 0,0.129 0.053,0.246 0.158,0.351 0.106,0.106 0.223,0.159 0.352,0.159 0.129,0 0.246,-0.053 0.352,-0.159 C 5.317,-3.031 5.37,-3.148 5.37,-3.277 5.37,-3.406 5.317,-3.523 5.212,-3.629 5.106,-3.734 4.989,-3.787 4.86,-3.787 Z m 0,-4.86 c -0.129,0 -0.246,0.053 -0.352,0.159 -0.105,0.105 -0.158,0.222 -0.158,0.351 0,0.129 0.053,0.246 0.158,0.352 0.106,0.105 0.223,0.158 0.352,0.158 0.129,0 0.246,-0.053 0.352,-0.158 C 5.317,-7.891 5.37,-8.008 5.37,-8.137 5.37,-8.266 5.317,-8.383 5.212,-8.488 5.106,-8.594 4.989,-8.647 4.86,-8.647"
             style="fill:#999999;fill-opacity:1;fill-rule:evenodd;stroke:none"
             id="path979" />
        </g>
        <g
           id="g981"
           transform="translate(113.944,435.159)"
           style="fill:#999999">
          <path
             d="m 0,0 c -0.422,0 -0.791,0.159 -1.107,0.475 -0.316,0.317 -0.475,0.685 -0.475,1.107 0,0.422 0.159,0.791 0.475,1.108 C -0.791,3.006 -0.422,3.164 0,3.164 0.422,3.164 0.791,3.006 1.108,2.69 1.424,2.373 1.582,2.004 1.582,1.582 1.582,1.16 1.424,0.792 1.108,0.475 0.791,0.159 0.422,0 0,0 Z m 0,-4.859 c -0.422,0 -0.791,0.158 -1.107,0.474 -0.316,0.317 -0.475,0.686 -0.475,1.108 0,0.421 0.159,0.791 0.475,1.107 0.316,0.316 0.685,0.475 1.107,0.475 0.422,0 0.791,-0.159 1.108,-0.475 0.316,-0.316 0.474,-0.686 0.474,-1.107 0,-0.422 -0.158,-0.791 -0.474,-1.108 C 0.791,-4.701 0.422,-4.859 0,-4.859 Z m 0,-3.788 c -0.129,0 -0.246,0.053 -0.351,0.159 -0.106,0.105 -0.158,0.222 -0.158,0.351 0,0.129 0.052,0.246 0.158,0.352 0.105,0.105 0.222,0.158 0.351,0.158 0.129,0 0.246,-0.053 0.352,-0.158 C 0.457,-7.891 0.51,-8.008 0.51,-8.137 0.51,-8.266 0.457,-8.383 0.352,-8.488 0.246,-8.594 0.129,-8.647 0,-8.647 Z m 4.86,9.72 c -0.129,0 -0.246,0.053 -0.351,0.158 -0.106,0.106 -0.158,0.223 -0.158,0.351 0,0.129 0.052,0.246 0.158,0.352 0.105,0.105 0.222,0.158 0.351,0.158 0.129,0 0.246,-0.053 0.352,-0.158 C 5.317,1.828 5.37,1.711 5.37,1.582 5.37,1.454 5.317,1.337 5.212,1.231 5.106,1.126 4.989,1.073 4.86,1.073 Z m 0,-4.86 c -0.129,0 -0.246,0.053 -0.351,0.158 -0.106,0.106 -0.158,0.223 -0.158,0.352 0,0.129 0.052,0.246 0.158,0.351 0.105,0.106 0.222,0.159 0.351,0.159 0.129,0 0.246,-0.053 0.352,-0.159 C 5.317,-3.031 5.37,-3.148 5.37,-3.277 5.37,-3.406 5.317,-3.523 5.212,-3.629 5.106,-3.734 4.989,-3.787 4.86,-3.787 Z m 0,-4.86 c -0.129,0 -0.246,0.053 -0.351,0.159 -0.106,0.105 -0.158,0.222 -0.158,0.351 0,0.129 0.052,0.246 0.158,0.352 0.105,0.105 0.222,0.158 0.351,0.158 0.129,0 0.246,-0.053 0.352,-0.158 C 5.317,-7.891 5.37,-8.008 5.37,-8.137 5.37,-8.266 5.317,-8.383 5.212,-8.488 5.106,-8.594 4.989,-8.647 4.86,-8.647"
             style="fill:#999999;fill-opacity:1;fill-rule:evenodd;stroke:none"
             id="path983" />
        </g>
        <g
           id="g985"
           transform="translate(144.102,435.159)"
           style="fill:#999999">
          <path
             d="m 0,0 c -0.422,0 -0.791,0.159 -1.107,0.475 -0.317,0.317 -0.475,0.685 -0.475,1.107 0,0.422 0.158,0.791 0.475,1.108 C -0.791,3.006 -0.422,3.164 0,3.164 0.422,3.164 0.791,3.006 1.107,2.69 1.424,2.373 1.582,2.004 1.582,1.582 1.582,1.16 1.424,0.792 1.107,0.475 0.791,0.159 0.422,0 0,0 Z M 4.86,0 C 4.438,0 4.069,0.159 3.752,0.475 3.436,0.792 3.278,1.16 3.278,1.582 3.278,2.004 3.436,2.373 3.752,2.69 4.069,3.006 4.438,3.164 4.86,3.164 5.282,3.164 5.651,3.006 5.967,2.69 6.284,2.373 6.442,2.004 6.442,1.582 6.442,1.16 6.284,0.792 5.967,0.475 5.651,0.159 5.282,0 4.86,0 Z M 0,-3.787 c -0.129,0 -0.246,0.053 -0.351,0.158 -0.106,0.106 -0.159,0.223 -0.159,0.352 0,0.129 0.053,0.246 0.159,0.351 0.105,0.106 0.222,0.159 0.351,0.159 0.129,0 0.246,-0.053 0.352,-0.159 C 0.457,-3.031 0.51,-3.148 0.51,-3.277 0.51,-3.406 0.457,-3.523 0.352,-3.629 0.246,-3.734 0.129,-3.787 0,-3.787 Z m 0,-4.86 c -0.129,0 -0.246,0.053 -0.351,0.159 -0.106,0.105 -0.159,0.222 -0.159,0.351 0,0.129 0.053,0.246 0.159,0.352 0.105,0.105 0.222,0.158 0.351,0.158 0.129,0 0.246,-0.053 0.352,-0.158 C 0.457,-7.891 0.51,-8.008 0.51,-8.137 0.51,-8.266 0.457,-8.383 0.352,-8.488 0.246,-8.594 0.129,-8.647 0,-8.647 Z m 4.86,4.86 c -0.129,0 -0.246,0.053 -0.352,0.158 -0.105,0.106 -0.158,0.223 -0.158,0.352 0,0.129 0.053,0.246 0.158,0.351 0.106,0.106 0.223,0.159 0.352,0.159 0.129,0 0.246,-0.053 0.352,-0.159 C 5.317,-3.031 5.37,-3.148 5.37,-3.277 5.37,-3.406 5.317,-3.523 5.212,-3.629 5.106,-3.734 4.989,-3.787 4.86,-3.787 Z m 0,-4.86 c -0.129,0 -0.246,0.053 -0.352,0.159 -0.105,0.105 -0.158,0.222 -0.158,0.351 0,0.129 0.053,0.246 0.158,0.352 0.106,0.105 0.223,0.158 0.352,0.158 0.129,0 0.246,-0.053 0.352,-0.158 C 5.317,-7.891 5.37,-8.008 5.37,-8.137 5.37,-8.266 5.317,-8.383 5.212,-8.488 5.106,-8.594 4.989,-8.647 4.86,-8.647"
             style="fill:#999999;fill-opacity:1;fill-rule:evenodd;stroke:none"
             id="path987" />
        </g>
        <g
           id="g989"
           transform="translate(174.259,435.159)"
           style="fill:#999999">
          <path
             d="m 0,0 c -0.421,0 -0.791,0.159 -1.107,0.475 -0.316,0.317 -0.475,0.685 -0.475,1.107 0,0.422 0.159,0.791 0.475,1.108 C -0.791,3.006 -0.421,3.164 0,3.164 0.422,3.164 0.791,3.006 1.108,2.69 1.424,2.373 1.582,2.004 1.582,1.582 1.582,1.16 1.424,0.792 1.108,0.475 0.791,0.159 0.422,0 0,0 Z M 4.86,0 C 4.439,0 4.069,0.159 3.753,0.475 3.437,0.792 3.278,1.16 3.278,1.582 3.278,2.004 3.437,2.373 3.753,2.69 4.069,3.006 4.439,3.164 4.86,3.164 5.282,3.164 5.651,3.006 5.968,2.69 6.284,2.373 6.442,2.004 6.442,1.582 6.442,1.16 6.284,0.792 5.968,0.475 5.651,0.159 5.282,0 4.86,0 Z m 0,-4.859 c -0.421,0 -0.791,0.158 -1.107,0.474 -0.316,0.317 -0.475,0.686 -0.475,1.108 0,0.421 0.159,0.791 0.475,1.107 0.316,0.316 0.686,0.475 1.107,0.475 0.422,0 0.791,-0.159 1.108,-0.475 0.316,-0.316 0.474,-0.686 0.474,-1.107 0,-0.422 -0.158,-0.791 -0.474,-1.108 C 5.651,-4.701 5.282,-4.859 4.86,-4.859 Z M 0,-3.787 c -0.128,0 -0.246,0.053 -0.351,0.158 -0.106,0.106 -0.158,0.223 -0.158,0.352 0,0.129 0.052,0.246 0.158,0.351 0.105,0.106 0.223,0.159 0.351,0.159 0.129,0 0.247,-0.053 0.352,-0.159 C 0.458,-3.031 0.51,-3.148 0.51,-3.277 0.51,-3.406 0.458,-3.523 0.352,-3.629 0.247,-3.734 0.129,-3.787 0,-3.787 Z m 0,-4.86 c -0.128,0 -0.246,0.053 -0.351,0.159 -0.106,0.105 -0.158,0.222 -0.158,0.351 0,0.129 0.052,0.246 0.158,0.352 0.105,0.105 0.223,0.158 0.351,0.158 0.129,0 0.247,-0.053 0.352,-0.158 C 0.458,-7.891 0.51,-8.008 0.51,-8.137 0.51,-8.266 0.458,-8.383 0.352,-8.488 0.247,-8.594 0.129,-8.647 0,-8.647 Z m 4.86,0 c -0.128,0 -0.246,0.053 -0.351,0.159 -0.106,0.105 -0.158,0.222 -0.158,0.351 0,0.129 0.052,0.246 0.158,0.352 0.105,0.105 0.223,0.158 0.351,0.158 0.129,0 0.247,-0.053 0.352,-0.158 C 5.318,-7.891 5.37,-8.008 5.37,-8.137 5.37,-8.266 5.318,-8.383 5.212,-8.488 5.107,-8.594 4.989,-8.647 4.86,-8.647"
             style="fill:#999999;fill-opacity:1;fill-rule:evenodd;stroke:none"
             id="path991" />
        </g>
        <g
           id="g993"
           transform="translate(204.417,435.159)"
           style="fill:#999999">
          <path
             d="m 0,0 c -0.422,0 -0.791,0.159 -1.108,0.475 -0.316,0.317 -0.474,0.685 -0.474,1.107 0,0.422 0.158,0.791 0.474,1.108 C -0.791,3.006 -0.422,3.164 0,3.164 0.422,3.164 0.791,3.006 1.107,2.69 1.424,2.373 1.582,2.004 1.582,1.582 1.582,1.16 1.424,0.792 1.107,0.475 0.791,0.159 0.422,0 0,0 Z m 4.86,-4.859 c -0.422,0 -0.791,0.158 -1.108,0.474 -0.316,0.317 -0.474,0.686 -0.474,1.108 0,0.421 0.158,0.791 0.474,1.107 0.317,0.316 0.686,0.475 1.108,0.475 0.422,0 0.791,-0.159 1.107,-0.475 0.317,-0.316 0.475,-0.686 0.475,-1.107 0,-0.422 -0.158,-0.791 -0.475,-1.108 C 5.651,-4.701 5.282,-4.859 4.86,-4.859 Z M 0,-3.787 c -0.129,0 -0.246,0.053 -0.352,0.158 -0.105,0.106 -0.158,0.223 -0.158,0.352 0,0.129 0.053,0.246 0.158,0.351 0.106,0.106 0.223,0.159 0.352,0.159 0.129,0 0.246,-0.053 0.352,-0.159 C 0.457,-3.031 0.51,-3.148 0.51,-3.277 0.51,-3.406 0.457,-3.523 0.352,-3.629 0.246,-3.734 0.129,-3.787 0,-3.787 Z m 0,-4.86 c -0.129,0 -0.246,0.053 -0.352,0.159 -0.105,0.105 -0.158,0.222 -0.158,0.351 0,0.129 0.053,0.246 0.158,0.352 0.106,0.105 0.223,0.158 0.352,0.158 0.129,0 0.246,-0.053 0.352,-0.158 C 0.457,-7.891 0.51,-8.008 0.51,-8.137 0.51,-8.266 0.457,-8.383 0.352,-8.488 0.246,-8.594 0.129,-8.647 0,-8.647 Z m 4.86,9.72 C 4.731,1.073 4.614,1.126 4.509,1.231 4.403,1.337 4.35,1.454 4.35,1.582 4.35,1.711 4.403,1.828 4.509,1.934 4.614,2.039 4.731,2.092 4.86,2.092 4.989,2.092 5.106,2.039 5.212,1.934 5.317,1.828 5.37,1.711 5.37,1.582 5.37,1.454 5.317,1.337 5.212,1.231 5.106,1.126 4.989,1.073 4.86,1.073 Z m 0,-9.72 c -0.129,0 -0.246,0.053 -0.351,0.159 -0.106,0.105 -0.159,0.222 -0.159,0.351 0,0.129 0.053,0.246 0.159,0.352 0.105,0.105 0.222,0.158 0.351,0.158 0.129,0 0.246,-0.053 0.352,-0.158 C 5.317,-7.891 5.37,-8.008 5.37,-8.137 5.37,-8.266 5.317,-8.383 5.212,-8.488 5.106,-8.594 4.989,-8.647 4.86,-8.647"
             style="fill:#999999;fill-opacity:1;fill-rule:evenodd;stroke:none"
             id="path995" />
        </g>
        <g
           id="g997"
           transform="translate(234.574,435.159)"
           style="fill:#999999">
          <path
             d="m 0,0 c -0.421,0 -0.791,0.159 -1.107,0.475 -0.316,0.317 -0.475,0.685 -0.475,1.107 0,0.422 0.159,0.791 0.475,1.108 C -0.791,3.006 -0.421,3.164 0,3.164 0.422,3.164 0.792,3.006 1.108,2.69 1.424,2.373 1.583,2.004 1.583,1.582 1.583,1.16 1.424,0.792 1.108,0.475 0.792,0.159 0.422,0 0,0 Z m 0,-4.859 c -0.421,0 -0.791,0.158 -1.107,0.474 -0.316,0.317 -0.475,0.686 -0.475,1.108 0,0.421 0.159,0.791 0.475,1.107 0.316,0.316 0.686,0.475 1.107,0.475 0.422,0 0.792,-0.159 1.108,-0.475 0.316,-0.316 0.475,-0.686 0.475,-1.107 0,-0.422 -0.159,-0.791 -0.475,-1.108 C 0.792,-4.701 0.422,-4.859 0,-4.859 Z M 4.86,0 C 4.439,0 4.069,0.159 3.753,0.475 3.436,0.792 3.278,1.16 3.278,1.582 3.278,2.004 3.436,2.373 3.753,2.69 4.069,3.006 4.439,3.164 4.86,3.164 5.282,3.164 5.651,3.006 5.968,2.69 6.284,2.373 6.442,2.004 6.442,1.582 6.442,1.16 6.284,0.792 5.968,0.475 5.651,0.159 5.282,0 4.86,0 Z M 0,-8.647 c -0.128,0 -0.245,0.053 -0.351,0.159 -0.105,0.105 -0.158,0.222 -0.158,0.351 0,0.129 0.053,0.246 0.158,0.352 0.106,0.105 0.223,0.158 0.351,0.158 0.129,0 0.247,-0.053 0.352,-0.158 C 0.458,-7.891 0.51,-8.008 0.51,-8.137 0.51,-8.266 0.458,-8.383 0.352,-8.488 0.247,-8.594 0.129,-8.647 0,-8.647 Z m 4.86,4.86 c -0.128,0 -0.246,0.053 -0.351,0.158 -0.105,0.106 -0.158,0.223 -0.158,0.352 0,0.129 0.053,0.246 0.158,0.351 0.105,0.106 0.223,0.159 0.351,0.159 0.129,0 0.247,-0.053 0.352,-0.159 C 5.317,-3.031 5.37,-3.148 5.37,-3.277 5.37,-3.406 5.317,-3.523 5.212,-3.629 5.107,-3.734 4.989,-3.787 4.86,-3.787 Z m 0,-4.86 c -0.128,0 -0.246,0.053 -0.351,0.159 -0.105,0.105 -0.158,0.222 -0.158,0.351 0,0.129 0.053,0.246 0.158,0.352 0.105,0.105 0.223,0.158 0.351,0.158 0.129,0 0.247,-0.053 0.352,-0.158 C 5.317,-7.891 5.37,-8.008 5.37,-8.137 5.37,-8.266 5.317,-8.383 5.212,-8.488 5.107,-8.594 4.989,-8.647 4.86,-8.647"
             style="fill:#999999;fill-opacity:1;fill-rule:evenodd;stroke:none"
             id="path999" />
        </g>
        <g
           id="g1001"
           transform="translate(264.732,435.159)"
           style="fill:#999999">
          <path
             d="m 0,0 c -0.422,0 -0.791,0.159 -1.107,0.475 -0.317,0.317 -0.475,0.685 -0.475,1.107 0,0.422 0.158,0.791 0.475,1.108 C -0.791,3.006 -0.422,3.164 0,3.164 0.422,3.164 0.791,3.006 1.107,2.69 1.424,2.373 1.582,2.004 1.582,1.582 1.582,1.16 1.424,0.792 1.107,0.475 0.791,0.159 0.422,0 0,0 Z m 0,-4.859 c -0.422,0 -0.791,0.158 -1.107,0.474 -0.317,0.317 -0.475,0.686 -0.475,1.108 0,0.421 0.158,0.791 0.475,1.107 0.316,0.316 0.685,0.475 1.107,0.475 0.422,0 0.791,-0.159 1.107,-0.475 0.317,-0.316 0.475,-0.686 0.475,-1.107 0,-0.422 -0.158,-0.791 -0.475,-1.108 C 0.791,-4.701 0.422,-4.859 0,-4.859 Z M 4.86,0 C 4.438,0 4.069,0.159 3.753,0.475 3.436,0.792 3.278,1.16 3.278,1.582 3.278,2.004 3.436,2.373 3.753,2.69 4.069,3.006 4.438,3.164 4.86,3.164 5.282,3.164 5.651,3.006 5.967,2.69 6.284,2.373 6.442,2.004 6.442,1.582 6.442,1.16 6.284,0.792 5.967,0.475 5.651,0.159 5.282,0 4.86,0 Z m 0,-4.859 c -0.422,0 -0.791,0.158 -1.107,0.474 -0.317,0.317 -0.475,0.686 -0.475,1.108 0,0.421 0.158,0.791 0.475,1.107 0.316,0.316 0.685,0.475 1.107,0.475 0.422,0 0.791,-0.159 1.107,-0.475 0.317,-0.316 0.475,-0.686 0.475,-1.107 0,-0.422 -0.158,-0.791 -0.475,-1.108 C 5.651,-4.701 5.282,-4.859 4.86,-4.859 Z M 0,-8.647 c -0.129,0 -0.246,0.053 -0.352,0.159 -0.105,0.105 -0.158,0.222 -0.158,0.351 0,0.129 0.053,0.246 0.158,0.352 0.106,0.105 0.223,0.158 0.352,0.158 0.129,0 0.246,-0.053 0.352,-0.158 C 0.457,-7.891 0.51,-8.008 0.51,-8.137 0.51,-8.266 0.457,-8.383 0.352,-8.488 0.246,-8.594 0.129,-8.647 0,-8.647 Z m 4.86,0 c -0.129,0 -0.246,0.053 -0.351,0.159 -0.106,0.105 -0.159,0.222 -0.159,0.351 0,0.129 0.053,0.246 0.159,0.352 0.105,0.105 0.222,0.158 0.351,0.158 0.129,0 0.246,-0.053 0.352,-0.158 C 5.317,-7.891 5.37,-8.008 5.37,-8.137 5.37,-8.266 5.317,-8.383 5.212,-8.488 5.106,-8.594 4.989,-8.647 4.86,-8.647"
             style="fill:#999999;fill-opacity:1;fill-rule:evenodd;stroke:none"
             id="path1003" />
        </g>
        <g
           id="g1005"
           transform="translate(294.89,435.159)"
           style="fill:#999999">
          <path
             d="m 0,0 c -0.422,0 -0.791,0.159 -1.108,0.475 -0.316,0.317 -0.475,0.685 -0.475,1.107 0,0.422 0.159,0.791 0.475,1.108 C -0.791,3.006 -0.422,3.164 0,3.164 0.421,3.164 0.79,3.006 1.107,2.69 1.423,2.373 1.581,2.004 1.581,1.582 1.581,1.16 1.423,0.792 1.107,0.475 0.79,0.159 0.421,0 0,0 Z m 0,-4.859 c -0.422,0 -0.791,0.158 -1.108,0.474 -0.316,0.317 -0.475,0.686 -0.475,1.108 0,0.421 0.159,0.791 0.475,1.107 0.317,0.316 0.686,0.475 1.108,0.475 0.421,0 0.79,-0.159 1.107,-0.475 0.316,-0.316 0.474,-0.686 0.474,-1.107 0,-0.422 -0.158,-0.791 -0.474,-1.108 C 0.79,-4.701 0.421,-4.859 0,-4.859 Z m 4.86,0 c -0.422,0 -0.791,0.158 -1.108,0.474 -0.316,0.317 -0.475,0.686 -0.475,1.108 0,0.421 0.159,0.791 0.475,1.107 0.317,0.316 0.686,0.475 1.108,0.475 0.421,0 0.791,-0.159 1.107,-0.475 0.316,-0.316 0.474,-0.686 0.474,-1.107 0,-0.422 -0.158,-0.791 -0.474,-1.108 C 5.651,-4.701 5.281,-4.859 4.86,-4.859 Z M 0,-8.647 c -0.129,0 -0.247,0.053 -0.352,0.159 -0.105,0.105 -0.158,0.222 -0.158,0.351 0,0.129 0.053,0.246 0.158,0.352 0.105,0.105 0.223,0.158 0.352,0.158 0.128,0 0.246,-0.053 0.351,-0.158 0.106,-0.106 0.158,-0.223 0.158,-0.352 0,-0.129 -0.052,-0.246 -0.158,-0.351 C 0.246,-8.594 0.128,-8.647 0,-8.647 Z m 4.86,9.72 C 4.731,1.073 4.613,1.126 4.508,1.231 4.403,1.337 4.35,1.454 4.35,1.582 4.35,1.711 4.403,1.828 4.508,1.934 4.613,2.039 4.731,2.092 4.86,2.092 4.988,2.092 5.106,2.039 5.211,1.934 5.317,1.828 5.369,1.711 5.369,1.582 5.369,1.454 5.317,1.337 5.211,1.231 5.106,1.126 4.988,1.073 4.86,1.073 Z m 0,-9.72 c -0.129,0 -0.247,0.053 -0.352,0.159 -0.105,0.105 -0.158,0.222 -0.158,0.351 0,0.129 0.053,0.246 0.158,0.352 0.105,0.105 0.223,0.158 0.352,0.158 0.128,0 0.246,-0.053 0.351,-0.158 0.106,-0.106 0.158,-0.223 0.158,-0.352 0,-0.129 -0.052,-0.246 -0.158,-0.351 C 5.106,-8.594 4.988,-8.647 4.86,-8.647"
             style="fill:#999999;fill-opacity:1;fill-rule:evenodd;stroke:none"
             id="path1007" />
        </g>
        <g
           id="g1009"
           transform="translate(325.047,430.3)"
           style="fill:#999999">
          <path
             d="m 0,0 c -0.422,0 -0.791,0.158 -1.107,0.474 -0.317,0.317 -0.475,0.686 -0.475,1.108 0,0.421 0.158,0.791 0.475,1.107 C -0.791,3.005 -0.422,3.164 0,3.164 0.422,3.164 0.791,3.005 1.107,2.689 1.424,2.373 1.582,2.003 1.582,1.582 1.582,1.16 1.424,0.791 1.107,0.474 0.791,0.158 0.422,0 0,0 Z m 4.86,4.859 c -0.422,0 -0.791,0.159 -1.107,0.475 -0.317,0.317 -0.475,0.685 -0.475,1.107 0,0.422 0.158,0.791 0.475,1.108 0.316,0.316 0.685,0.474 1.107,0.474 0.422,0 0.791,-0.158 1.107,-0.474 C 6.284,7.232 6.442,6.863 6.442,6.441 6.442,6.019 6.284,5.651 5.967,5.334 5.651,5.018 5.282,4.859 4.86,4.859 Z M 0,5.932 c -0.129,0 -0.246,0.053 -0.351,0.158 -0.106,0.106 -0.158,0.223 -0.158,0.351 0,0.129 0.052,0.246 0.158,0.352 C -0.246,6.898 -0.129,6.951 0,6.951 0.129,6.951 0.246,6.898 0.352,6.793 0.457,6.687 0.51,6.57 0.51,6.441 0.51,6.313 0.457,6.196 0.352,6.09 0.246,5.985 0.129,5.932 0,5.932 Z m 0,-9.72 c -0.129,0 -0.246,0.053 -0.351,0.159 -0.106,0.105 -0.158,0.222 -0.158,0.351 0,0.129 0.052,0.246 0.158,0.352 0.105,0.105 0.222,0.158 0.351,0.158 0.129,0 0.246,-0.053 0.352,-0.158 C 0.457,-3.032 0.51,-3.149 0.51,-3.278 0.51,-3.407 0.457,-3.524 0.352,-3.629 0.246,-3.735 0.129,-3.788 0,-3.788 Z m 4.86,4.86 C 4.731,1.072 4.614,1.125 4.509,1.23 4.403,1.336 4.351,1.453 4.351,1.582 c 0,0.129 0.052,0.246 0.158,0.351 0.105,0.106 0.222,0.159 0.351,0.159 0.129,0 0.246,-0.053 0.352,-0.159 C 5.317,1.828 5.37,1.711 5.37,1.582 5.37,1.453 5.317,1.336 5.212,1.23 5.106,1.125 4.989,1.072 4.86,1.072 Z m 0,-4.86 c -0.129,0 -0.246,0.053 -0.351,0.159 -0.106,0.105 -0.158,0.222 -0.158,0.351 0,0.129 0.052,0.246 0.158,0.352 0.105,0.105 0.222,0.158 0.351,0.158 0.129,0 0.246,-0.053 0.352,-0.158 C 5.317,-3.032 5.37,-3.149 5.37,-3.278 5.37,-3.407 5.317,-3.524 5.212,-3.629 5.106,-3.735 4.989,-3.788 4.86,-3.788"
             style="fill:#999999;fill-opacity:1;fill-rule:evenodd;stroke:none"
             id="path1011" />
        </g>
        <g
           id="g1013"
           transform="translate(355.205,430.3)"
           style="fill:#999999">
          <path
             d="m 0,0 c -0.422,0 -0.791,0.158 -1.108,0.474 -0.316,0.317 -0.474,0.686 -0.474,1.108 0,0.421 0.158,0.791 0.474,1.107 C -0.791,3.005 -0.422,3.164 0,3.164 0.421,3.164 0.791,3.005 1.107,2.689 1.423,2.373 1.582,2.003 1.582,1.582 1.582,1.16 1.423,0.791 1.107,0.474 0.791,0.158 0.421,0 0,0 Z m 4.86,4.859 c -0.422,0 -0.791,0.159 -1.108,0.475 -0.316,0.317 -0.474,0.685 -0.474,1.107 0,0.422 0.158,0.791 0.474,1.108 0.317,0.316 0.686,0.474 1.108,0.474 0.421,0 0.791,-0.158 1.107,-0.474 C 6.283,7.232 6.442,6.863 6.442,6.441 6.442,6.019 6.283,5.651 5.967,5.334 5.651,5.018 5.281,4.859 4.86,4.859 Z M 4.86,0 C 4.438,0 4.069,0.158 3.752,0.474 3.436,0.791 3.278,1.16 3.278,1.582 c 0,0.421 0.158,0.791 0.474,1.107 0.317,0.316 0.686,0.475 1.108,0.475 0.421,0 0.791,-0.159 1.107,-0.475 C 6.283,2.373 6.442,2.003 6.442,1.582 6.442,1.16 6.283,0.791 5.967,0.474 5.651,0.158 5.281,0 4.86,0 Z M 0,5.932 c -0.129,0 -0.246,0.053 -0.352,0.158 -0.105,0.106 -0.158,0.223 -0.158,0.351 0,0.129 0.053,0.246 0.158,0.352 C -0.246,6.898 -0.129,6.951 0,6.951 0.128,6.951 0.246,6.898 0.351,6.793 0.457,6.687 0.509,6.57 0.509,6.441 0.509,6.313 0.457,6.196 0.351,6.09 0.246,5.985 0.128,5.932 0,5.932 Z m 0,-9.72 c -0.129,0 -0.246,0.053 -0.352,0.159 -0.105,0.105 -0.158,0.222 -0.158,0.351 0,0.129 0.053,0.246 0.158,0.352 0.106,0.105 0.223,0.158 0.352,0.158 0.128,0 0.246,-0.053 0.351,-0.158 0.106,-0.106 0.158,-0.223 0.158,-0.352 0,-0.129 -0.052,-0.246 -0.158,-0.351 C 0.246,-3.735 0.128,-3.788 0,-3.788 Z m 4.86,0 c -0.129,0 -0.246,0.053 -0.352,0.159 -0.105,0.105 -0.158,0.222 -0.158,0.351 0,0.129 0.053,0.246 0.158,0.352 0.106,0.105 0.223,0.158 0.352,0.158 0.128,0 0.246,-0.053 0.351,-0.158 C 5.317,-3.032 5.37,-3.149 5.37,-3.278 5.37,-3.407 5.317,-3.524 5.211,-3.629 5.106,-3.735 4.988,-3.788 4.86,-3.788"
             style="fill:#999999;fill-opacity:1;fill-rule:evenodd;stroke:none"
             id="path1015" />
        </g>
        <g
           id="g1017"
           transform="translate(86.74,415.622)"
           style="fill:#999999">
          <path
             d="M 0,0 -0.08,0.032 C -0.688,-0.384 -1.32,-0.784 -1.984,-1.12 l 0.104,-0.192 c 0.384,0.192 0.784,0.408 1.144,0.616 v -4.359 c 0,-0.256 -0.136,-0.344 -0.52,-0.344 h -0.44 v -0.208 c 0.432,0.008 0.872,0.016 1.32,0.016 0.416,0 0.84,-0.016 1.256,-0.016 v 0.208 H 0.52 C 0.136,-5.399 0,-5.311 0,-5.055 V 0"
             style="fill:#999999;fill-opacity:1;fill-rule:nonzero;stroke:none"
             id="path1019" />
        </g>
        <g
           id="g1021"
           transform="translate(114.37,410.015)"
           style="fill:#999999">
          <path
             d="M 0,0 H 3.64 L 3.872,1.056 H 3.648 L 3.472,0.64 h -2.6 c 0.872,0.903 2.424,2.159 2.424,3.527 0,0.816 -0.528,1.472 -1.368,1.472 -0.84,0 -1.328,-0.6 -1.688,-1.128 L 0.392,4.352 C 0.704,4.72 1.008,5.111 1.552,5.111 2.264,5.111 2.56,4.511 2.56,3.872 2.56,2.815 1.56,1.52 0,0.16 V 0"
             style="fill:#999999;fill-opacity:1;fill-rule:evenodd;stroke:none"
             id="path1023" />
        </g>
        <g
           id="g1025"
           transform="translate(145.791,412.735)"
           style="fill:#999999">
          <path
             d="m 0,0 c 0.904,0.055 1.608,-0.216 1.608,-1.248 0,-0.744 -0.488,-1.336 -1.264,-1.336 -0.824,0 -0.824,0.672 -1.12,0.672 -0.12,0 -0.256,-0.112 -0.256,-0.256 0,-0.256 0.48,-0.672 1.216,-0.672 1.528,0 2.16,1.135 2.16,1.912 0,1.119 -1.008,1.319 -1.448,1.28 L 0.88,0.368 c 0.608,0.239 1.16,0.759 1.16,1.416 0,0.671 -0.504,1.135 -1.152,1.135 -0.696,0 -1.104,-0.376 -1.544,-0.88 l 0.12,-0.152 C -0.24,2.183 0.032,2.439 0.472,2.439 1.04,2.439 1.4,2.031 1.4,1.463 1.4,0.704 0.68,0.263 0,0.207 V 0"
             style="fill:#999999;fill-opacity:1;fill-rule:nonzero;stroke:none"
             id="path1027" />
        </g>
        <g
           id="g1029"
           transform="translate(174.685,411.767)"
           style="fill:#999999">
          <path
             d="M 0,0 H 2.4 V -1.752 H 3.088 V 0 H 3.872 V 0.528 H 3.088 V 3.887 H 2.736 L 0,0.32 Z M 2.4,0.528 H 0.592 L 2.384,2.927 H 2.4 V 0.528"
             style="fill:#999999;fill-opacity:1;fill-rule:evenodd;stroke:none"
             id="path1031" />
        </g>
        <g
           id="g1033"
           transform="translate(205.794,413.486)"
           style="fill:#999999">
          <path
             d="m 0,0 c 0.848,-0.424 1.736,-0.896 1.736,-1.983 0,-0.728 -0.44,-1.352 -1.208,-1.352 -0.736,0 -0.72,0.624 -1.048,0.624 -0.112,0 -0.248,-0.057 -0.248,-0.24 0,-0.408 0.72,-0.64 1.136,-0.64 1.112,0 2.008,0.831 2.008,1.96 0,1.2 -0.928,1.727 -1.88,2.207 l 0.32,0.832 h 1.8 l 0.168,0.64 H 0.76 L 0,0"
             style="fill:#999999;fill-opacity:1;fill-rule:nonzero;stroke:none"
             id="path1035" />
        </g>
        <g
           id="g1037"
           transform="translate(238.84,415.654)"
           style="fill:#999999">
          <path
             d="m 0,0 c -0.824,-0.008 -3.56,-1.24 -3.56,-3.719 0,-0.976 0.512,-2.04 1.688,-2.04 1.24,0 1.736,1.08 1.736,1.752 0,0.608 -0.4,1.4 -1.336,1.4 -0.664,0 -1.032,-0.321 -1.336,-0.801 l -0.016,0.017 c 0.16,1.599 1.344,2.839 2.896,3.231 z m -0.824,-4.295 c 0,-0.624 -0.288,-1.208 -0.984,-1.208 -0.776,0 -1.016,0.792 -1.016,1.552 0,0.536 0.488,0.864 0.992,0.864 0.68,0 1.008,-0.593 1.008,-1.208"
             style="fill:#999999;fill-opacity:1;fill-rule:evenodd;stroke:none"
             id="path1039" />
        </g>
        <g
           id="g1041"
           transform="translate(265.437,414.462)"
           style="fill:#999999">
          <path
             d="M 0,0 0.208,-0.031 0.424,0.432 H 3.232 L 0.68,-4.447 1.024,-4.567 3.88,1.008 3.816,1.072 H 0.208 L 0,0"
             style="fill:#999999;fill-opacity:1;fill-rule:nonzero;stroke:none"
             id="path1043" />
        </g>
        <g
           id="g1045"
           transform="translate(298.235,411.127)"
           style="fill:#999999">
          <path
             d="m 0,0 c 0,-0.56 -0.352,-0.976 -0.936,-0.976 -0.56,0 -0.92,0.456 -0.92,0.991 0,0.641 0.16,0.968 0.736,1.417 C -0.616,1.128 0,0.656 0,0 Z m 0.048,3.24 c 0,-0.6 -0.304,-0.984 -0.72,-1.289 -0.472,0.321 -1.024,0.728 -1.024,1.36 0,0.592 0.344,1.008 0.896,1.008 0.464,0 0.848,-0.423 0.848,-1.079 z M 0.64,3.271 c 0,0.808 -0.656,1.256 -1.424,1.256 -0.912,0 -1.552,-0.6 -1.552,-1.527 0,-0.673 0.552,-1.097 1.056,-1.44 -0.648,-0.377 -1.168,-0.761 -1.168,-1.496 0,-0.552 0.504,-1.296 1.52,-1.296 0.848,0 1.616,0.672 1.616,1.536 0,0.688 -0.616,1.24 -1.176,1.544 C 0.04,2.136 0.64,2.599 0.64,3.271"
             style="fill:#999999;fill-opacity:1;fill-rule:evenodd;stroke:none"
             id="path1047" />
        </g>
        <g
           id="g1049"
           transform="translate(325.712,409.895)"
           style="fill:#999999">
          <path
             d="m 0,0 c 0.825,0.008 3.561,1.24 3.561,3.719 0,0.976 -0.513,2.04 -1.688,2.04 -1.24,0 -1.736,-1.08 -1.736,-1.752 0,-0.607 0.399,-1.399 1.336,-1.399 0.664,0 1.032,0.32 1.336,0.799 L 2.824,3.392 C 2.665,1.792 1.481,0.552 -0.071,0.16 Z m 0.825,4.296 c 0,0.623 0.288,1.207 0.983,1.207 0.776,0 1.016,-0.791 1.016,-1.552 0,-0.536 -0.487,-0.863 -0.991,-0.863 -0.681,0 -1.008,0.592 -1.008,1.208"
             style="fill:#999999;fill-opacity:1;fill-rule:evenodd;stroke:none"
             id="path1051" />
        </g>
        <g
           id="g1053"
           transform="translate(359.588,412.935)"
           style="fill:#999999">
          <path
             d="m 0,0 c 0,1.271 -0.576,2.719 -1.744,2.719 -0.752,0 -1.872,-0.776 -1.872,-3.04 0,-1.272 0.576,-2.719 1.744,-2.719 C -1.12,-3.04 0,-2.264 0,0 Z m -0.736,0.04 c 0,-0.601 0.024,-2.824 -1.136,-2.824 -0.848,0 -1.056,1.496 -1.056,2.424 0,0.6 -0.024,2.823 1.136,2.823 0.848,0 1.056,-1.496 1.056,-2.423"
             style="fill:#999999;fill-opacity:1;fill-rule:evenodd;stroke:none"
             id="path1055" />
        </g>
      </g>
    </g>
  </g>
</svg>
