<?xml version="1.0" encoding="UTF-8" standalone="no"?>
<!-- Uploaded to: SVG Repo, www.svgrepo.com, Generator: SVG Repo Mixer Tools -->

<svg
   width="800px"
   height="800px"
   viewBox="0 0 24 24"
   fill="none"
   version="1.1"
   id="svg309"
   sodipodi:docname="logo.svg"
   inkscape:version="1.2.2 (b0a84865, 2022-12-01)"
   xmlns:inkscape="http://www.inkscape.org/namespaces/inkscape"
   xmlns:sodipodi="http://sodipodi.sourceforge.net/DTD/sodipodi-0.dtd"
   xmlns="http://www.w3.org/2000/svg"
   xmlns:svg="http://www.w3.org/2000/svg">
  <defs
     id="defs313" />
  <sodipodi:namedview
     id="namedview311"
     pagecolor="#ffffff"
     bordercolor="#999999"
     borderopacity="1"
     inkscape:showpageshadow="0"
     inkscape:pageopacity="0"
     inkscape:pagecheckerboard="0"
     inkscape:deskcolor="#d1d1d1"
     showgrid="false"
     inkscape:zoom="0.295"
     inkscape:cx="261.01695"
     inkscape:cy="400"
     inkscape:window-width="1309"
     inkscape:window-height="404"
     inkscape:window-x="0"
     inkscape:window-y="44"
     inkscape:window-maximized="0"
     inkscape:current-layer="svg309" />
  <path
     d="M7.55556 4H5C4.44771 4 4 4.44772 4 5V7.55556M16.4444 4H19C19.5523 4 20 4.44772 20 5V7.55556M20 16.4444V19C20 19.5523 19.5523 20 19 20H16.4444M7.55556 20H5C4.44771 20 4 19.5523 4 19V16.4444M5.77778 12.8889H6.66667M8.44444 12.8889H9.33333M5.77778 11H10.1111C10.6634 11 11.1111 10.5523 11.1111 10V5.77778M12.8889 5.77778V11.1111M16.4444 11H18.2222M14.6667 11H15.1111M13.7778 12.8889H15.1111M17 12.8889H18.2222M18.2222 15H15.5556M15.5556 16.8889V18.2222M13.7778 15V18.2222M12 18.2222V12.8889H11.1111M10.2222 14.6667V18.2222M18.2222 17.7778V17.7778C18.2222 17.5323 18.0232 17.3333 17.7778 17.3333V17.3333C17.5323 17.3333 17.3333 17.5323 17.3333 17.7778V17.7778C17.3333 18.0232 17.5323 18.2222 17.7778 18.2222V18.2222C18.0232 18.2222 18.2222 18.0232 18.2222 17.7778ZM18.2222 6.77778V8.33333C18.2222 8.88562 17.7745 9.33333 17.2222 9.33333H15.6667C15.1144 9.33333 14.6667 8.88562 14.6667 8.33333V6.77778C14.6667 6.22549 15.1144 5.77778 15.6667 5.77778H17.2222C17.7745 5.77778 18.2222 6.22549 18.2222 6.77778ZM6.77778 9.33333H8.33333C8.88562 9.33333 9.33333 8.88562 9.33333 8.33333V6.77778C9.33333 6.22549 8.88562 5.77778 8.33333 5.77778H6.77778C6.22549 5.77778 5.77778 6.22549 5.77778 6.77778V8.33333C5.77778 8.88562 6.22549 9.33333 6.77778 9.33333ZM7.44444 18.2222H6.77778C6.22549 18.2222 5.77778 17.7745 5.77778 17.2222V15.6667C5.77778 15.1144 6.22549 14.6667 6.77778 14.6667H7.44444C7.99673 14.6667 8.44444 15.1144 8.44444 15.6667V17.2222C8.44444 17.7745 7.99673 18.2222 7.44444 18.2222Z"
     stroke="#464455"
     stroke-linecap="round"
     stroke-linejoin="round"
     id="path307"
     style="stroke:#999999" />
</svg>
