<?xml version="1.0" encoding="UTF-8" standalone="no"?>
<!-- Created with Inkscape (http://www.inkscape.org/) -->

<svg
   version="1.0"
   width="445.06516"
   height="548.71759"
   viewBox="0 0 384.58451 444.34947"
   id="Layer_2"
   xml:space="preserve"
   inkscape:version="1.2.2 (b0a84865, 2022-12-01)"
   sodipodi:docname="morse-code.svg"
   xmlns:inkscape="http://www.inkscape.org/namespaces/inkscape"
   xmlns:sodipodi="http://sodipodi.sourceforge.net/DTD/sodipodi-0.dtd"
   xmlns:xlink="http://www.w3.org/1999/xlink"
   xmlns="http://www.w3.org/2000/svg"
   xmlns:svg="http://www.w3.org/2000/svg"
   xmlns:rdf="http://www.w3.org/1999/02/22-rdf-syntax-ns#"
   xmlns:cc="http://creativecommons.org/ns#"
   xmlns:dc="http://purl.org/dc/elements/1.1/"><metadata
   id="metadata3375"><rdf:RDF><cc:Work
       rdf:about=""><dc:format>image/svg+xml</dc:format><dc:type
         rdf:resource="http://purl.org/dc/dcmitype/StillImage" /></cc:Work></rdf:RDF></metadata><sodipodi:namedview
   pagecolor="#ffffff"
   bordercolor="#666666"
   borderopacity="1"
   objecttolerance="10"
   gridtolerance="10"
   guidetolerance="10"
   inkscape:pageopacity="0"
   inkscape:pageshadow="2"
   inkscape:window-width="1800"
   inkscape:window-height="1069"
   id="namedview3373"
   showgrid="false"
   inkscape:zoom="1.4142136"
   inkscape:cx="161.5739"
   inkscape:cy="168.64496"
   inkscape:window-x="0"
   inkscape:window-y="44"
   inkscape:window-maximized="0"
   inkscape:current-layer="g3029"
   inkscape:pagecheckerboard="0"
   inkscape:showpageshadow="0"
   inkscape:deskcolor="#d1d1d1" />
<defs
   id="defs3017" />
<g
   id="g2643"
   transform="translate(-17.153843,-133.46821)">



<text
   x="54.051781"
   y="38.502422"
   style="font-size:10px;line-height:0%;font-family:'DejaVu Sans'"
   id="text3401"><tspan
     x="54.051781"
     y="38.502422"
     id="tspan3403" /></text>


</g>
<g
   transform="translate(-20.970322,-133.46821)"
   id="g3272">
<g
   transform="translate(-206.51385,369.83834)"
   id="g3132"
   style="fill:#999999">
<circle
   cx="39.400002"
   cy="141.48"
   r="3.5550001"
   transform="matrix(1.296365,0,0,1.296365,202.38592,-57.340438)"
   id="circle3554"
   style="fill:#999999" />
<rect
   width="27.651466"
   height="9.217145"
   x="285.73181"
   y="121.45683"
   id="rect3556"
   style="fill:#999999" />
<circle
   cx="39.400002"
   cy="141.48"
   r="3.5550001"
   transform="matrix(1.296365,0,0,1.296365,220.82023,-57.340438)"
   id="circle3558"
   style="fill:#999999" />
<circle
   cx="39.400002"
   cy="141.48"
   r="3.5550001"
   transform="matrix(1.296365,0,0,1.296365,202.38592,-38.906127)"
   id="circle3560"
   style="fill:#999999" />
<circle
   cx="39.400002"
   cy="141.48"
   r="3.5550001"
   transform="matrix(1.296365,0,0,1.296365,220.82023,-38.906126)"
   id="circle3562"
   style="fill:#999999" />
<circle
   cx="39.400002"
   cy="141.48"
   r="3.5550001"
   transform="matrix(1.296365,0,0,1.296365,239.25454,-38.906126)"
   id="circle3564"
   style="fill:#999999" />
<rect
   width="27.651466"
   height="9.217145"
   x="304.16614"
   y="139.89114"
   id="rect3566"
   style="fill:#999999" />
<circle
   cx="39.400002"
   cy="141.48"
   r="3.5550001"
   transform="matrix(1.296365,0,0,1.296365,202.38592,-20.471816)"
   id="circle3568"
   style="fill:#999999" />
<rect
   width="27.651466"
   height="9.217145"
   x="267.29752"
   y="158.32545"
   id="rect3570"
   style="fill:#999999" />
<rect
   width="27.651466"
   height="9.217145"
   x="304.16614"
   y="158.32544"
   id="rect3572"
   style="fill:#999999" />
<rect
   width="27.651466"
   height="9.217145"
   x="248.8632"
   y="176.75975"
   id="rect3574"
   style="fill:#999999" />
<circle
   cx="39.400002"
   cy="141.48"
   r="3.5550001"
   transform="matrix(1.296365,0,0,1.296365,239.25454,-2.0375037)"
   id="circle3576"
   style="fill:#999999" />
<circle
   cx="39.400002"
   cy="141.48"
   r="3.5550001"
   transform="matrix(1.296365,0,0,1.296365,257.68885,-2.0375037)"
   id="circle3578"
   style="fill:#999999" />
<rect
   width="27.651466"
   height="9.217145"
   x="322.60043"
   y="176.75977"
   id="rect3580"
   style="fill:#999999" />
<rect
   width="27.651466"
   height="9.217145"
   x="248.8632"
   y="195.19408"
   id="rect3588"
   style="fill:#999999" />
<rect
   width="27.651466"
   height="9.217145"
   x="304.16614"
   y="195.19408"
   id="rect3590"
   style="fill:#999999" />
<rect
   width="27.651466"
   height="9.217145"
   x="341.03476"
   y="195.19408"
   id="rect3592"
   style="fill:#999999" />
<circle
   cx="39.400002"
   cy="141.48"
   r="3.5550001"
   transform="matrix(1.296365,0,0,1.296365,239.25454,16.396807)"
   id="circle3594"
   style="fill:#999999" />
<rect
   width="27.651466"
   height="9.217145"
   x="248.8632"
   y="213.62837"
   id="rect3596"
   style="fill:#999999" />
<rect
   width="27.651466"
   height="9.217145"
   x="285.73181"
   y="213.62839"
   id="rect3598"
   style="fill:#999999" />
<circle
   cx="39.400002"
   cy="141.48"
   r="3.5550001"
   transform="matrix(1.296365,0,0,1.296365,276.12316,34.831118)"
   id="circle3600"
   style="fill:#999999" />
<circle
   cx="39.400002"
   cy="141.48"
   r="3.5550001"
   transform="matrix(1.296365,0,0,1.296365,294.55748,34.831118)"
   id="circle3602"
   style="fill:#999999" />
<g
   transform="translate(-1.8497366)"
   id="g2615"
   style="fill:#999999">
<text
   x="231.22548"
   y="130.67398"
   id="text3604"
   xml:space="preserve"
   style="font-style:normal;font-variant:normal;font-weight:normal;font-stretch:normal;font-size:18px;line-height:0%;font-family:'Cambria Math';-inkscape-font-specification:'Cambria Math';fill:#999999">U</text>

<text
   x="231.74756"
   y="149.10829"
   id="text3608"
   xml:space="preserve"
   style="font-style:normal;font-variant:normal;font-weight:normal;font-stretch:normal;font-size:18px;line-height:0%;font-family:'Cambria Math';-inkscape-font-specification:'Cambria Math';fill:#999999">V</text>

<text
   x="229.15523"
   y="167.31757"
   id="text3612"
   xml:space="preserve"
   style="font-style:normal;font-variant:normal;font-weight:normal;font-stretch:normal;font-size:18px;line-height:0%;font-family:'Cambria Math';-inkscape-font-specification:'Cambria Math';fill:#999999">W</text>

<text
   x="231.73405"
   y="185.97691"
   id="text3616"
   xml:space="preserve"
   style="font-style:normal;font-variant:normal;font-weight:normal;font-stretch:normal;font-size:18px;line-height:0%;font-family:'Cambria Math';-inkscape-font-specification:'Cambria Math';fill:#999999">X</text>

<text
   x="231.76105"
   y="204.41122"
   id="text3620"
   xml:space="preserve"
   style="font-style:normal;font-variant:normal;font-weight:normal;font-stretch:normal;font-size:18px;line-height:0%;font-family:'Cambria Math';-inkscape-font-specification:'Cambria Math';fill:#999999">Y</text>

<text
   x="232.27863"
   y="222.84554"
   id="text3624"
   xml:space="preserve"
   style="font-style:normal;font-variant:normal;font-weight:normal;font-stretch:normal;font-size:18px;line-height:0%;font-family:'Cambria Math';-inkscape-font-specification:'Cambria Math';fill:#999999">Z</text>

</g>
</g>
<g
   id="g3169"
   transform="translate(4.3205431)"
   style="fill:#999999">
<circle
   cx="39.400002"
   cy="141.48"
   r="3.5550001"
   transform="matrix(1.296365,0,0,1.296365,-9.6086576,-57.340437)"
   id="circle2870"
   style="fill:#999999" />
<rect
   width="27.651466"
   height="9.217145"
   x="55.302933"
   y="121.45683"
   id="rect3010"
   style="fill:#999999" />
<circle
   cx="39.400002"
   cy="141.48"
   r="3.5550001"
   transform="matrix(1.296365,0,0,1.296365,27.496285,-38.906126)"
   id="circle3324"
   style="fill:#999999" />
<circle
   cx="39.400002"
   cy="141.48"
   r="3.5550001"
   transform="matrix(1.296365,0,0,1.296365,45.694276,-38.611276)"
   id="circle3326"
   style="fill:#999999" />
<circle
   cx="39.400002"
   cy="141.48"
   r="3.5550001"
   transform="matrix(1.296365,0,0,1.296365,64.122679,-38.906126)"
   id="circle3328"
   style="fill:#999999" />
<rect
   width="27.651466"
   height="9.217145"
   x="36.868622"
   y="158.32544"
   id="rect3330"
   style="fill:#999999" />
<circle
   cx="39.400002"
   cy="141.48"
   r="3.5550001"
   transform="matrix(1.296365,0,0,1.296365,27.23125,-20.471815)"
   id="circle3332"
   style="fill:#999999" />
<rect
   width="27.651466"
   height="9.217145"
   x="92.171555"
   y="158.32544"
   id="rect3334"
   style="fill:#999999" />
<circle
   cx="39.400002"
   cy="141.48"
   r="3.5550001"
   transform="matrix(1.296365,0,0,1.296365,82.623628,-20.471815)"
   id="circle3336"
   style="fill:#999999" />
<rect
   width="27.651466"
   height="9.217145"
   x="36.868622"
   y="176.75977"
   id="rect3338"
   style="fill:#999999" />
<circle
   cx="39.400002"
   cy="141.48"
   r="3.5550001"
   transform="matrix(1.296365,0,0,1.296365,27.17162,-2.0375044)"
   id="circle3340"
   style="fill:#999999" />
<circle
   cx="39.400002"
   cy="141.48"
   r="3.5550001"
   transform="matrix(1.296365,0,0,1.296365,45.694276,-1.8597136)"
   id="circle3342"
   style="fill:#999999" />
<circle
   cx="39.400002"
   cy="141.48"
   r="3.5550001"
   transform="matrix(1.296365,0,0,1.296365,-9.6086576,16.396807)"
   id="circle3412"
   style="fill:#999999" />
<circle
   cx="39.400002"
   cy="141.48"
   r="3.5550001"
   transform="matrix(1.296365,0,0,1.296365,-9.6086574,34.831118)"
   id="circle3414"
   style="fill:#999999" />
<circle
   cx="39.400002"
   cy="141.48"
   r="3.5550001"
   transform="matrix(1.296365,0,0,1.296365,8.8256537,34.831118)"
   id="circle3416"
   style="fill:#999999" />
<rect
   width="27.651466"
   height="9.217145"
   x="73.737244"
   y="213.62837"
   id="rect3420"
   style="fill:#999999" />
<circle
   cx="39.400002"
   cy="141.48"
   r="3.5550001"
   transform="matrix(1.296365,0,0,1.296365,64.128587,34.831118)"
   id="circle3422"
   style="fill:#999999" />
<rect
   width="27.651466"
   height="9.217145"
   x="36.868622"
   y="232.06268"
   id="rect3424"
   style="fill:#999999" />
<rect
   width="27.651466"
   height="9.217145"
   x="73.737244"
   y="232.06268"
   id="rect3426"
   style="fill:#999999" />
<circle
   cx="39.400002"
   cy="141.48"
   r="3.5550001"
   transform="matrix(1.296365,0,0,1.296365,64.128587,53.265429)"
   id="circle3428"
   style="fill:#999999" />
<circle
   cx="39.400002"
   cy="141.48"
   r="3.5550001"
   transform="matrix(1.296365,0,0,1.296365,-9.6086576,71.69974)"
   id="circle3458"
   style="fill:#999999" />
<circle
   cx="39.400002"
   cy="141.48"
   r="3.5550001"
   transform="matrix(1.296365,0,0,1.296365,8.8256535,71.69974)"
   id="circle3460"
   style="fill:#999999" />
<circle
   cx="39.400002"
   cy="141.48"
   r="3.5550001"
   transform="matrix(1.296365,0,0,1.296365,27.259965,71.69974)"
   id="circle3462"
   style="fill:#999999" />
<circle
   cx="39.400002"
   cy="141.48"
   r="3.5550001"
   transform="matrix(1.296365,0,0,1.296365,45.694276,71.69974)"
   id="circle3464"
   style="fill:#999999" />
<circle
   cx="39.400002"
   cy="141.48"
   r="3.5550001"
   transform="matrix(1.296365,0,0,1.296365,-9.6086576,90.134051)"
   id="circle3466"
   style="fill:#999999" />
<circle
   cx="39.400002"
   cy="141.48"
   r="3.5550001"
   transform="matrix(1.296365,0,0,1.296365,8.8256537,90.134051)"
   id="circle3468"
   style="fill:#999999" />
<circle
   cx="39.400002"
   cy="141.48"
   r="3.5550001"
   transform="matrix(1.296365,0,0,1.296365,-9.6086576,108.56836)"
   id="circle3470"
   style="fill:#999999" />
<rect
   width="27.651466"
   height="9.217145"
   x="55.302933"
   y="287.36563"
   id="rect3472"
   style="fill:#999999" />
<rect
   width="27.651466"
   height="9.217145"
   x="92.171555"
   y="287.36563"
   id="rect3474"
   style="fill:#999999" />
<rect
   width="27.651466"
   height="9.217145"
   x="129.04018"
   y="287.36563"
   id="rect3476"
   style="fill:#999999" />
<rect
   width="27.651466"
   height="9.217145"
   x="36.868622"
   y="305.79993"
   id="rect3478"
   style="fill:#999999" />
<circle
   cx="39.400002"
   cy="141.48"
   r="3.5550001"
   transform="matrix(1.296365,0,0,1.296365,27.259965,127.00267)"
   id="circle3480"
   style="fill:#999999" />
<rect
   width="27.651466"
   height="9.217145"
   x="92.171555"
   y="305.79996"
   id="rect3482"
   style="fill:#999999" />
<circle
   cx="39.400002"
   cy="141.48"
   r="3.5550001"
   transform="matrix(1.296365,0,0,1.296365,-9.6086576,145.43698)"
   id="circle3484"
   style="fill:#999999" />
<rect
   width="27.651466"
   height="9.217145"
   x="55.302933"
   y="324.23425"
   id="rect3486"
   style="fill:#999999" />
<circle
   cx="39.400002"
   cy="141.48"
   r="3.5550001"
   transform="matrix(1.296365,0,0,1.296365,45.694276,145.43698)"
   id="circle3488"
   style="fill:#999999" />
<circle
   cx="39.400002"
   cy="141.48"
   r="3.5550001"
   transform="matrix(1.296365,0,0,1.296365,64.128587,145.43698)"
   id="circle3490"
   style="fill:#999999" />
<rect
   width="27.651466"
   height="9.217145"
   x="36.868622"
   y="342.66858"
   id="rect3492"
   style="fill:#999999" />
<rect
   width="27.651466"
   height="9.217145"
   x="73.737244"
   y="342.66858"
   id="rect3494"
   style="fill:#999999" />
<rect
   width="27.651466"
   height="9.217145"
   x="36.868622"
   y="361.10287"
   id="rect3496"
   style="fill:#999999" />
<circle
   cx="39.400002"
   cy="141.48"
   r="3.5550001"
   transform="matrix(1.296365,0,0,1.296365,27.259965,182.30561)"
   id="circle3498"
   style="fill:#999999" />
<rect
   width="27.651466"
   height="9.217145"
   x="36.868622"
   y="379.5372"
   id="rect3500"
   style="fill:#999999" />
<rect
   width="27.651466"
   height="9.217145"
   x="73.737244"
   y="379.5372"
   id="rect3502"
   style="fill:#999999" />
<rect
   width="27.651466"
   height="9.217145"
   x="110.60587"
   y="379.5372"
   id="rect3504"
   style="fill:#999999" />
<circle
   cx="39.400002"
   cy="141.48"
   r="3.5550001"
   transform="matrix(1.296365,0,0,1.296365,-9.6086576,219.17423)"
   id="circle3506"
   style="fill:#999999" />
<rect
   width="27.651466"
   height="9.217145"
   x="55.302933"
   y="397.9715"
   id="rect3508"
   style="fill:#999999" />
<rect
   width="27.651466"
   height="9.217145"
   x="92.171555"
   y="397.9715"
   id="rect3510"
   style="fill:#999999" />
<circle
   cx="39.400002"
   cy="141.48"
   r="3.5550001"
   transform="matrix(1.296365,0,0,1.296365,82.562898,219.17423)"
   id="circle3512"
   style="fill:#999999" />
<rect
   width="27.651466"
   height="9.217145"
   x="36.868622"
   y="416.40579"
   id="rect3514"
   style="fill:#999999" />
<rect
   width="27.651466"
   height="9.217145"
   x="73.737244"
   y="416.40582"
   id="rect3516"
   style="fill:#999999" />
<circle
   cx="39.400002"
   cy="141.48"
   r="3.5550001"
   transform="matrix(1.296365,0,0,1.296365,64.128587,237.60854)"
   id="circle3518"
   style="fill:#999999" />
<rect
   width="27.651466"
   height="9.217145"
   x="129.04018"
   y="416.40582"
   id="rect3520"
   style="fill:#999999" />
<circle
   cx="39.400002"
   cy="141.48"
   r="3.5550001"
   transform="matrix(1.296365,0,0,1.296365,-9.6086574,256.04285)"
   id="circle3522"
   style="fill:#999999" />
<rect
   width="27.651466"
   height="9.217145"
   x="55.302933"
   y="434.84012"
   id="rect3524"
   style="fill:#999999" />
<circle
   cx="39.400002"
   cy="141.48"
   r="3.5550001"
   transform="matrix(1.296365,0,0,1.296365,45.694276,256.04285)"
   id="circle3526"
   style="fill:#999999" />
<circle
   cx="39.400002"
   cy="141.48"
   r="3.5550001"
   transform="matrix(1.296365,0,0,1.296365,27.259965,274.47716)"
   id="circle3528"
   style="fill:#999999" />
<circle
   cx="39.400002"
   cy="141.48"
   r="3.5550001"
   transform="matrix(1.296365,0,0,1.296365,8.8256537,274.47716)"
   id="circle3530"
   style="fill:#999999" />
<circle
   cx="39.400002"
   cy="141.48"
   r="3.5550001"
   transform="matrix(1.296365,0,0,1.296365,-9.6086574,274.47716)"
   id="circle3532"
   style="fill:#999999" />
<rect
   width="27.651466"
   height="9.217145"
   x="36.868622"
   y="471.70874"
   id="rect3534"
   style="fill:#999999" />
<g
   id="g2573"
   style="fill:#999999">
<text
   x="17.138149"
   y="130.67398"
   id="text3309"
   xml:space="preserve"
   style="font-style:normal;font-variant:normal;font-weight:normal;font-stretch:normal;font-size:18px;line-height:0%;font-family:'Cambria Math';-inkscape-font-specification:'Cambria Math';fill:#999999"><tspan
     style="font-style:normal;font-variant:normal;font-weight:normal;font-stretch:normal;font-family:'Cambria Math';-inkscape-font-specification:'Cambria Math';fill:#999999"
     id="tspan6683">A</tspan></text>

<text
   x="16.953625"
   y="149.10829"
   id="text3344"
   xml:space="preserve"
   style="font-style:normal;font-variant:normal;font-weight:normal;font-stretch:normal;font-size:18px;line-height:0%;font-family:'Cambria Math';-inkscape-font-specification:'Cambria Math';fill:#999999">B</text>

<text
   x="16.535072"
   y="167.31757"
   id="text3350"
   xml:space="preserve"
   style="font-style:normal;font-variant:normal;font-weight:normal;font-stretch:normal;font-size:18px;line-height:0%;font-family:'Cambria Math';-inkscape-font-specification:'Cambria Math';fill:#999999">C</text>

<text
   x="16.409058"
   y="185.97691"
   id="text3356"
   xml:space="preserve"
   style="font-style:normal;font-variant:normal;font-weight:normal;font-stretch:normal;font-size:18px;line-height:0%;font-family:'Cambria Math';-inkscape-font-specification:'Cambria Math';fill:#999999">D</text>

<text
   x="16.904119"
   y="204.41122"
   id="text3360"
   xml:space="preserve"
   style="font-style:normal;font-variant:normal;font-weight:normal;font-stretch:normal;font-size:18px;line-height:0%;font-family:'Cambria Math';-inkscape-font-specification:'Cambria Math';fill:#999999">E</text>

<text
   x="17.322672"
   y="222.84554"
   id="text3364"
   xml:space="preserve"
   style="font-style:normal;font-variant:normal;font-weight:normal;font-stretch:normal;font-size:18px;line-height:0%;font-family:'Cambria Math';-inkscape-font-specification:'Cambria Math';fill:#999999">F</text>

<text
   x="16.202032"
   y="241.05481"
   id="text3368"
   xml:space="preserve"
   style="font-style:normal;font-variant:normal;font-weight:normal;font-stretch:normal;font-size:18px;line-height:0%;font-family:'Cambria Math';-inkscape-font-specification:'Cambria Math';fill:#999999">G</text>

<text
   x="16.634085"
   y="259.71414"
   id="text3372"
   xml:space="preserve"
   style="font-style:normal;font-variant:normal;font-weight:normal;font-stretch:normal;font-size:18px;line-height:0%;font-family:'Cambria Math';-inkscape-font-specification:'Cambria Math';fill:#999999">H</text>

<text
   x="20.693594"
   y="278.14847"
   id="text3376"
   xml:space="preserve"
   style="font-style:normal;font-variant:normal;font-weight:normal;font-stretch:normal;font-size:18px;line-height:0%;font-family:'Cambria Math';-inkscape-font-specification:'Cambria Math';fill:#999999">I</text>

<text
   x="19.145401"
   y="296.58276"
   id="text3380"
   xml:space="preserve"
   style="font-style:normal;font-variant:normal;font-weight:normal;font-stretch:normal;font-size:18px;line-height:0%;font-family:'Cambria Math';-inkscape-font-specification:'Cambria Math';fill:#999999">J</text>

<text
   x="16.481066"
   y="315.01709"
   id="text3384"
   xml:space="preserve"
   style="font-style:normal;font-variant:normal;font-weight:normal;font-stretch:normal;font-size:18px;line-height:0%;font-family:'Cambria Math';-inkscape-font-specification:'Cambria Math';fill:#999999">K</text>

<text
   x="17.813232"
   y="333.45139"
   id="text3388"
   xml:space="preserve"
   style="font-style:normal;font-variant:normal;font-weight:normal;font-stretch:normal;font-size:18px;line-height:0%;font-family:'Cambria Math';-inkscape-font-specification:'Cambria Math';fill:#999999">L</text>

<text
   x="15.621459"
   y="351.88571"
   id="text3392"
   xml:space="preserve"
   style="font-style:normal;font-variant:normal;font-weight:normal;font-stretch:normal;font-size:18px;line-height:0%;font-family:'Cambria Math';-inkscape-font-specification:'Cambria Math';fill:#999999">M</text>

<text
   x="16.683592"
   y="370.32001"
   id="text3396"
   xml:space="preserve"
   style="font-style:normal;font-variant:normal;font-weight:normal;font-stretch:normal;font-size:18px;line-height:0%;font-family:'Cambria Math';-inkscape-font-specification:'Cambria Math';fill:#999999">N</text>

<text
   x="16.085016"
   y="388.75433"
   id="text3400"
   xml:space="preserve"
   style="font-style:normal;font-variant:normal;font-weight:normal;font-stretch:normal;font-size:18px;line-height:0%;font-family:'Cambria Math';-inkscape-font-specification:'Cambria Math';fill:#999999">O</text>

<text
   x="16.058014"
   y="425.62296"
   id="text3404"
   xml:space="preserve"
   style="font-style:normal;font-variant:normal;font-weight:normal;font-stretch:normal;font-size:18px;line-height:0%;font-family:'Cambria Math';-inkscape-font-specification:'Cambria Math';fill:#999999">Q</text>

<text
   x="16.82761"
   y="407.18866"
   id="text3408"
   xml:space="preserve"
   style="font-style:normal;font-variant:normal;font-weight:normal;font-stretch:normal;font-size:18px;line-height:0%;font-family:'Cambria Math';-inkscape-font-specification:'Cambria Math';fill:#999999">P</text>

<text
   x="16.022009"
   y="444.05728"
   id="text3536"
   xml:space="preserve"
   style="font-style:normal;font-variant:normal;font-weight:normal;font-stretch:normal;font-size:18px;line-height:0%;font-family:'Cambria Math';-inkscape-font-specification:'Cambria Math';fill:#999999">R</text>

<text
   x="17.205658"
   y="462.49158"
   id="text3540"
   xml:space="preserve"
   style="font-style:normal;font-variant:normal;font-weight:normal;font-stretch:normal;font-size:18px;line-height:0%;font-family:'Cambria Math';-inkscape-font-specification:'Cambria Math';fill:#999999">S</text>

<text
   x="17.62421"
   y="480.9259"
   id="text3544"
   xml:space="preserve"
   style="font-style:normal;font-variant:normal;font-weight:normal;font-stretch:normal;font-size:18px;line-height:0%;font-family:'Cambria Math';-inkscape-font-specification:'Cambria Math';fill:#999999">T</text>

</g>
<use
   transform="translate(-18.43431,18.434311)"
   id="use2703"
   x="0"
   y="0"
   width="414.772"
   height="500.99399"
   xlink:href="#rect3010"
   style="fill:#999999" />
</g>
<g
   transform="translate(-18.434314,-119.82301)"
   id="g3051">
<use
   transform="translate(211.99458,119.82302)"
   id="use2707"
   x="0"
   y="0"
   width="414.772"
   height="500.99399"
   xlink:href="#rect3010"
   style="fill:#999999" />
<use
   transform="translate(248.8632,119.82301)"
   id="use2709"
   x="0"
   y="0"
   width="414.772"
   height="500.99399"
   xlink:href="#rect3010"
   style="fill:#999999" />
<use
   id="use2711"
   x="0"
   y="0"
   width="414.772"
   height="500.99399"
   xlink:href="#use2709"
   style="fill:#999999" />
<use
   transform="translate(285.73182,119.82301)"
   id="use2713"
   x="0"
   y="0"
   width="414.772"
   height="500.99399"
   xlink:href="#rect3010"
   style="fill:#999999" />
<use
   transform="translate(322.60045,119.82301)"
   id="use2715"
   x="0"
   y="0"
   width="414.772"
   height="500.99399"
   xlink:href="#rect3010"
   style="fill:#999999" />
<use
   transform="translate(211.99458,119.82302)"
   id="use2717"
   x="0"
   y="0"
   width="414.772"
   height="500.99399"
   xlink:href="#circle2870"
   style="fill:#999999" />
<use
   transform="translate(211.99458,138.25733)"
   id="use2719"
   x="0"
   y="0"
   width="414.772"
   height="500.99399"
   xlink:href="#circle2870"
   style="fill:#999999" />
<use
   transform="translate(230.42889,138.25733)"
   id="use2721"
   x="0"
   y="0"
   width="414.772"
   height="500.99399"
   xlink:href="#circle2870"
   style="fill:#999999" />
<use
   transform="translate(230.42889,138.25733)"
   id="use2723"
   x="0"
   y="0"
   width="414.772"
   height="500.99399"
   xlink:href="#rect3010"
   style="fill:#999999" />
<use
   transform="translate(267.29751,138.25733)"
   id="use2725"
   x="0"
   y="0"
   width="414.772"
   height="500.99399"
   xlink:href="#rect3010"
   style="fill:#999999" />
<use
   transform="translate(304.16613,138.25732)"
   id="use2727"
   x="0"
   y="0"
   width="414.772"
   height="500.99399"
   xlink:href="#rect3010"
   style="fill:#999999" />
<use
   transform="translate(211.99458,156.69164)"
   id="use2779"
   x="0"
   y="0"
   width="414.772"
   height="500.99399"
   xlink:href="#circle2870"
   style="fill:#999999" />
<use
   transform="translate(18.434309)"
   id="use2781"
   x="0"
   y="0"
   width="414.772"
   height="500.99399"
   xlink:href="#use2779"
   style="fill:#999999" />
<use
   transform="translate(18.434311)"
   id="use2783"
   x="0"
   y="0"
   width="414.772"
   height="500.99399"
   xlink:href="#use2781"
   style="fill:#999999" />
<use
   transform="translate(18.434309,18.434308)"
   id="use2785"
   x="0"
   y="0"
   width="414.772"
   height="500.99399"
   xlink:href="#use2723"
   style="fill:#999999" />
<use
   transform="translate(36.868622)"
   id="use2787"
   x="0"
   y="0"
   width="414.772"
   height="500.99399"
   xlink:href="#use2785"
   style="fill:#999999" />
<use
   transform="translate(2.324722e-7,18.434311)"
   id="use2789"
   x="0"
   y="0"
   width="414.772"
   height="500.99399"
   xlink:href="#use2779"
   style="fill:#999999" />
<use
   transform="translate(18.434311)"
   id="use2791"
   x="0"
   y="0"
   width="414.772"
   height="500.99399"
   xlink:href="#use2789"
   style="fill:#999999" />
<use
   transform="translate(18.434311)"
   id="use2793"
   x="0"
   y="0"
   width="414.772"
   height="500.99399"
   xlink:href="#use2791"
   style="fill:#999999" />
<use
   transform="translate(18.434311)"
   id="use2795"
   x="0"
   y="0"
   width="414.772"
   height="500.99399"
   xlink:href="#use2793"
   style="fill:#999999" />
<use
   transform="translate(18.434313,18.434307)"
   id="use2797"
   x="0"
   y="0"
   width="414.772"
   height="500.99399"
   xlink:href="#use2785"
   style="fill:#999999" />
<use
   transform="translate(-2.3247221e-7,18.434311)"
   id="use2799"
   x="0"
   y="0"
   width="414.772"
   height="500.99399"
   xlink:href="#use2789"
   style="fill:#999999" />
<use
   transform="translate(18.434311)"
   id="use2801"
   x="0"
   y="0"
   width="414.772"
   height="500.99399"
   xlink:href="#use2799"
   style="fill:#999999" />
<use
   transform="translate(18.434311)"
   id="use2803"
   x="0"
   y="0"
   width="414.772"
   height="500.99399"
   xlink:href="#use2801"
   style="fill:#999999" />
<use
   transform="translate(18.434312)"
   id="use2805"
   x="0"
   y="0"
   width="414.772"
   height="500.99399"
   xlink:href="#use2803"
   style="fill:#999999" />
<use
   transform="translate(18.434311)"
   id="use2807"
   x="0"
   y="0"
   width="414.772"
   height="500.99399"
   xlink:href="#use2805"
   style="fill:#999999" />
<use
   transform="translate(36.868622,36.868622)"
   id="use2809"
   x="0"
   y="0"
   width="414.772"
   height="500.99399"
   xlink:href="#use2789"
   style="fill:#999999" />
<use
   transform="translate(36.868622,36.868622)"
   id="use2811"
   x="0"
   y="0"
   width="414.772"
   height="500.99399"
   xlink:href="#use2791"
   style="fill:#999999" />
<use
   transform="translate(36.868622,36.868622)"
   id="use2813"
   x="0"
   y="0"
   width="414.772"
   height="500.99399"
   xlink:href="#use2793"
   style="fill:#999999" />
<use
   transform="translate(36.868622,36.868622)"
   id="use2815"
   x="0"
   y="0"
   width="414.772"
   height="500.99399"
   xlink:href="#use2795"
   style="fill:#999999" />
<use
   transform="translate(-73.737245,36.868622)"
   id="use2817"
   x="0"
   y="0"
   width="414.772"
   height="500.99399"
   xlink:href="#use2797"
   style="fill:#999999" />
<use
   id="use2819"
   x="0"
   y="0"
   width="414.772"
   height="500.99399"
   xlink:href="#use2779"
   style="fill:#999999" />
<use
   id="use2821"
   x="0"
   y="0"
   width="414.772"
   height="500.99399"
   xlink:href="#use2781"
   style="fill:#999999" />
<use
   id="use2823"
   x="0"
   y="0"
   width="414.772"
   height="500.99399"
   xlink:href="#use2783"
   style="fill:#999999" />
<use
   id="use2825"
   x="0"
   y="0"
   width="414.772"
   height="500.99399"
   xlink:href="#use2785"
   style="fill:#999999" />
<use
   id="use2827"
   x="0"
   y="0"
   width="414.772"
   height="500.99399"
   xlink:href="#use2787"
   style="fill:#999999" />
<use
   transform="translate(73.737242,73.737248)"
   id="use2829"
   x="0"
   y="0"
   width="414.772"
   height="500.99399"
   xlink:href="#use2779"
   style="fill:#999999" />
<use
   transform="translate(73.737244,73.737244)"
   id="use2831"
   x="0"
   y="0"
   width="414.772"
   height="500.99399"
   xlink:href="#use2781"
   style="fill:#999999" />
<use
   transform="translate(73.737244,73.737244)"
   id="use2833"
   x="0"
   y="0"
   width="414.772"
   height="500.99399"
   xlink:href="#use2783"
   style="fill:#999999" />
<use
   transform="translate(-55.302932,73.73724)"
   id="use2845"
   x="0"
   y="0"
   width="414.772"
   height="500.99399"
   xlink:href="#use2825"
   style="fill:#999999" />
<use
   transform="translate(-55.302931,73.737251)"
   id="use2847"
   x="0"
   y="0"
   width="414.772"
   height="500.99399"
   xlink:href="#use2827"
   style="fill:#999999" />
<use
   transform="translate(36.868622,18.434311)"
   id="use2849"
   x="0"
   y="0"
   width="414.772"
   height="500.99399"
   xlink:href="#use2829"
   style="fill:#999999" />
<use
   transform="translate(36.868622,18.434311)"
   id="use2851"
   x="0"
   y="0"
   width="414.772"
   height="500.99399"
   xlink:href="#use2831"
   style="fill:#999999" />
<use
   transform="translate(36.868622,18.434311)"
   id="use2855"
   x="0"
   y="0"
   width="414.772"
   height="500.99399"
   xlink:href="#use2845"
   style="fill:#999999" />
<use
   transform="translate(36.868622,18.434311)"
   id="use2857"
   x="0"
   y="0"
   width="414.772"
   height="500.99399"
   xlink:href="#use2847"
   style="fill:#999999" />
<use
   transform="translate(-36.868622)"
   id="use2859"
   x="0"
   y="0"
   width="414.772"
   height="500.99399"
   xlink:href="#use2855"
   style="fill:#999999" />
<use
   transform="translate(-18.434316,147.4745)"
   id="use2861"
   x="0"
   y="0"
   width="414.772"
   height="500.99399"
   xlink:href="#use2707"
   style="fill:#999999" />
<use
   transform="translate(-18.434316,147.4745)"
   id="use2863"
   x="0"
   y="0"
   width="414.772"
   height="500.99399"
   xlink:href="#use2709"
   style="fill:#999999" />
<use
   transform="translate(-18.434316,147.4745)"
   id="use2865"
   x="0"
   y="0"
   width="414.772"
   height="500.99399"
   xlink:href="#use2711"
   style="fill:#999999" />
<use
   transform="translate(-18.434316,147.4745)"
   id="use2867"
   x="0"
   y="0"
   width="414.772"
   height="500.99399"
   xlink:href="#use2713"
   style="fill:#999999" />
<use
   transform="translate(-18.434316,147.4745)"
   id="use2869"
   x="0"
   y="0"
   width="414.772"
   height="500.99399"
   xlink:href="#use2715"
   style="fill:#999999" />
<use
   transform="translate(-110.60587,18.434302)"
   id="use2873"
   x="0"
   y="0"
   width="414.772"
   height="500.99399"
   xlink:href="#use2869"
   style="fill:#999999" />
<use
   transform="translate(18.434312,18.434312)"
   id="use2875"
   x="0"
   y="0"
   width="414.772"
   height="500.99399"
   xlink:href="#use2851"
   style="fill:#999999" />
<use
   transform="translate(36.868625,18.434302)"
   id="use2877"
   x="0"
   y="0"
   width="414.772"
   height="500.99399"
   xlink:href="#use2861"
   style="fill:#999999" />
<use
   transform="translate(36.868625,18.434302)"
   id="use2879"
   x="0"
   y="0"
   width="414.772"
   height="500.99399"
   xlink:href="#use2863"
   style="fill:#999999" />
<use
   transform="translate(36.868625,18.434302)"
   id="use2881"
   x="0"
   y="0"
   width="414.772"
   height="500.99399"
   xlink:href="#use2865"
   style="fill:#999999" />
<use
   transform="translate(36.868625,18.434302)"
   id="use2883"
   x="0"
   y="0"
   width="414.772"
   height="500.99399"
   xlink:href="#use2867"
   style="fill:#999999" />
<use
   transform="translate(36.868625,18.434302)"
   id="use2885"
   x="0"
   y="0"
   width="414.772"
   height="500.99399"
   xlink:href="#use2869"
   style="fill:#999999" />
<g
   id="g3029">
<text
   x="231.75656"
   y="250.49699"
   id="text2889"
   xml:space="preserve"
   style="font-style:normal;font-variant:normal;font-weight:normal;font-stretch:normal;font-size:18px;line-height:0%;font-family:'Cambria Math';-inkscape-font-specification:'Cambria Math';fill:#999999">1</text>

<text
   x="231.284"
   y="268.9313"
   id="text2893"
   xml:space="preserve"
   style="font-style:normal;font-variant:normal;font-weight:normal;font-stretch:normal;font-size:18px;line-height:0%;font-family:'Cambria Math';-inkscape-font-specification:'Cambria Math';fill:#999999">2</text>

<text
   x="231.09947"
   y="287.14056"
   id="text2897"
   xml:space="preserve"
   style="font-style:normal;font-variant:normal;font-weight:normal;font-stretch:normal;font-size:18px;line-height:0%;font-family:'Cambria Math';-inkscape-font-specification:'Cambria Math';fill:#999999">3</text>

<text
   x="231.39651"
   y="305.79993"
   id="text2901"
   xml:space="preserve"
   style="font-style:normal;font-variant:normal;font-weight:normal;font-stretch:normal;font-size:18px;line-height:0%;font-family:'Cambria Math';-inkscape-font-specification:'Cambria Math';fill:#999999">4</text>

<text
   x="231.05447"
   y="324.23422"
   id="text2905"
   xml:space="preserve"
   style="font-style:normal;font-variant:normal;font-weight:normal;font-stretch:normal;font-size:18px;line-height:0%;font-family:'Cambria Math';-inkscape-font-specification:'Cambria Math';fill:#999999">5</text>

<text
   x="231.14449"
   y="342.66855"
   id="text2909"
   xml:space="preserve"
   style="font-style:normal;font-variant:normal;font-weight:normal;font-stretch:normal;font-size:18px;line-height:0%;font-family:'Cambria Math';-inkscape-font-specification:'Cambria Math';fill:#999999">6</text>

<text
   x="231.04997"
   y="360.87781"
   id="text2913"
   xml:space="preserve"
   style="font-style:normal;font-variant:normal;font-weight:normal;font-stretch:normal;font-size:18px;line-height:0%;font-family:'Cambria Math';-inkscape-font-specification:'Cambria Math';fill:#999999">7</text>

<text
   x="231.09947"
   y="379.53714"
   id="text2917"
   xml:space="preserve"
   style="font-style:normal;font-variant:normal;font-weight:normal;font-stretch:normal;font-size:18px;line-height:0%;font-family:'Cambria Math';-inkscape-font-specification:'Cambria Math';fill:#999999">8</text>

<text
   x="231.09048"
   y="397.97147"
   id="text2921"
   xml:space="preserve"
   style="font-style:normal;font-variant:normal;font-weight:normal;font-stretch:normal;font-size:18px;line-height:0%;font-family:'Cambria Math';-inkscape-font-specification:'Cambria Math';fill:#999999">9</text>

<text
   x="231.12648"
   y="416.40576"
   id="text2925"
   xml:space="preserve"
   style="font-style:normal;font-variant:normal;font-weight:normal;font-stretch:normal;font-size:18px;line-height:0%;font-family:'Cambria Math';-inkscape-font-specification:'Cambria Math';fill:#999999">0</text>

</g>
</g>
</g>
</svg>
