<?xml version="1.0" encoding="UTF-8" standalone="no"?>
<!-- Uploaded to: SVG Repo, www.svgrepo.com, Generator: SVG Repo Mixer Tools -->

<svg
   height="800px"
   width="800px"
   version="1.1"
   id="Layer_1"
   viewBox="0 0 371.938 371.938"
   xml:space="preserve"
   sodipodi:docname="logo.svg"
   inkscape:version="1.2.2 (b0a84865, 2022-12-01)"
   xmlns:inkscape="http://www.inkscape.org/namespaces/inkscape"
   xmlns:sodipodi="http://sodipodi.sourceforge.net/DTD/sodipodi-0.dtd"
   xmlns="http://www.w3.org/2000/svg"
   xmlns:svg="http://www.w3.org/2000/svg"><defs
   id="defs379" /><sodipodi:namedview
   id="namedview377"
   pagecolor="#ffffff"
   bordercolor="#999999"
   borderopacity="1"
   inkscape:showpageshadow="0"
   inkscape:pageopacity="0"
   inkscape:pagecheckerboard="0"
   inkscape:deskcolor="#d1d1d1"
   showgrid="false"
   inkscape:zoom="0.834386"
   inkscape:cx="445.23758"
   inkscape:cy="261.26996"
   inkscape:window-width="1920"
   inkscape:window-height="1024"
   inkscape:window-x="0"
   inkscape:window-y="0"
   inkscape:window-maximized="0"
   inkscape:current-layer="g374" />
<g
   id="g374">
	<path
   style="fill:#666666"
   d="M190.661,36.303c-82.658,0-149.665,67.008-149.665,149.666s67.007,149.666,149.665,149.666   c82.658,0,149.665-67.008,149.665-149.666S273.319,36.303,190.661,36.303z M190.661,198.209c-6.759,0-12.239-5.479-12.239-12.239   c0-6.76,5.48-12.239,12.239-12.239c6.76,0,12.24,5.479,12.24,12.239C202.901,192.729,197.421,198.209,190.661,198.209z"
   id="path340" />
	<g
   id="g354">
		<path
   style="fill:#004D7A;"
   d="M287.199,278.15c-0.489,0-0.979-0.179-1.365-0.539c-0.807-0.754-0.85-2.02-0.096-2.826    c22.59-24.171,35.031-55.713,35.031-88.816c0-4.526-0.235-9.092-0.699-13.569c-0.114-1.099,0.685-2.081,1.783-2.195    c1.098-0.122,2.082,0.684,2.195,1.783c0.478,4.613,0.721,9.317,0.721,13.981c0,34.121-12.823,66.633-36.108,91.547    C288.267,277.937,287.733,278.15,287.199,278.15z"
   id="path342" />
		<path
   style="fill:#004D7A;"
   d="M190.661,320.075c-6.63,0-13.287-0.487-19.785-1.449c-1.092-0.162-1.847-1.179-1.686-2.272    c0.162-1.093,1.173-1.847,2.271-1.686c6.305,0.934,12.765,1.406,19.199,1.406c19.512,0,38.27-4.211,55.752-12.516    c1-0.473,2.191-0.049,2.665,0.948c0.474,0.998,0.049,2.191-0.948,2.665C230.107,315.734,210.772,320.075,190.661,320.075z"
   id="path344" />
		<path
   style="fill:#004D7A;"
   d="M132.52,306.626c-0.296,0-0.596-0.065-0.88-0.205c-34.107-16.741-59.614-47.242-69.982-83.681    c-0.302-1.061,0.314-2.168,1.376-2.471c1.064-0.301,2.169,0.313,2.471,1.377c10.058,35.351,34.805,64.94,67.897,81.185    c0.992,0.486,1.401,1.685,0.914,2.676C133.969,306.215,133.259,306.626,132.52,306.626z"
   id="path346" />
		<path
   style="fill:#004D7A;"
   d="M60.307,209.557c-0.962,0-1.81-0.695-1.971-1.676c-1.182-7.193-1.782-14.565-1.782-21.913    c0-1.105,0.896-2,2-2c1.104,0,2,0.895,2,2c0,7.131,0.582,14.285,1.729,21.265c0.179,1.09-0.559,2.118-1.649,2.298    C60.524,209.548,60.415,209.557,60.307,209.557z"
   id="path348" />
		<path
   style="fill:#004D7A;"
   d="M63.587,151.73c-0.181,0-0.365-0.025-0.548-0.077c-1.062-0.303-1.679-1.409-1.376-2.472    c10.37-36.43,35.875-66.925,69.977-83.665c0.991-0.49,2.19-0.079,2.677,0.914c0.487,0.991,0.078,2.189-0.914,2.676    c-33.086,16.242-57.831,45.828-67.892,81.171C65.259,151.156,64.458,151.73,63.587,151.73z"
   id="path350" />
		<path
   style="fill:#004D7A;"
   d="M282.437,92.945c-0.5,0-1.001-0.187-1.39-0.562c-24.38-23.552-56.479-36.523-90.386-36.523    c-1.104,0-2-0.896-2-2s0.896-2,2-2c34.949,0,68.036,13.369,93.165,37.646c0.794,0.768,0.816,2.033,0.049,2.828    C283.483,92.741,282.96,92.945,282.437,92.945z"
   id="path352" />
	</g>
	<g
   id="g366">
		<path
   style="fill:#004D7A;"
   d="M258.032,210.72c-0.213,0-0.429-0.035-0.642-0.107c-1.046-0.355-1.607-1.49-1.252-2.536    c2.406-7.1,3.626-14.538,3.626-22.109c0-10.153-2.158-19.93-6.414-29.057c-0.467-1.001-0.034-2.19,0.967-2.657    c1.002-0.468,2.191-0.034,2.658,0.968c4.504,9.66,6.788,20.004,6.789,30.746c0,8.009-1.291,15.879-3.838,23.393    C259.644,210.195,258.866,210.72,258.032,210.72z"
   id="path356" />
		<path
   style="fill:#004D7A;"
   d="M190.925,258.808c-23.154,0-44.41-10.639-58.317-29.187c-0.663-0.884-0.483-2.138,0.4-2.801    c0.884-0.661,2.137-0.481,2.8,0.4c13.145,17.532,33.234,27.588,55.117,27.588c11.564,0,22.999-2.922,33.071-8.449    c0.968-0.532,2.184-0.177,2.716,0.791c0.531,0.968,0.177,2.184-0.791,2.715C215.26,255.715,203.159,258.808,190.925,258.808z"
   id="path358" />
		<path
   style="fill:#004D7A;"
   d="M128.295,154.832c-0.316,0-0.636-0.074-0.935-0.233c-0.976-0.517-1.347-1.727-0.83-2.703    c7.082-13.357,18.43-24.423,31.956-31.162c0.988-0.492,2.19-0.091,2.682,0.898c0.493,0.988,0.09,2.189-0.898,2.682    c-12.785,6.37-23.512,16.831-30.206,29.455C129.705,154.446,129.012,154.832,128.295,154.832z"
   id="path360" />
		<path
   style="fill:#004D7A;"
   d="M224.66,125.664c-0.322,0-0.649-0.078-0.952-0.242c-9.996-5.426-21.332-8.293-32.783-8.293    c-4.67,0-9.339,0.471-13.876,1.398c-1.085,0.225-2.139-0.477-2.36-1.559c-0.221-1.082,0.477-2.139,1.559-2.359    c4.801-0.982,9.739-1.48,14.678-1.48c12.116,0,24.112,3.035,34.691,8.777c0.971,0.527,1.331,1.741,0.804,2.712    C226.058,125.286,225.37,125.664,224.66,125.664z"
   id="path362" />
		<path
   style="fill:#004D7A;"
   d="M242.692,139.61c-0.535,0-1.068-0.213-1.462-0.635c-2.229-2.385-4.649-4.632-7.194-6.68    c-0.86-0.693-0.997-1.952-0.304-2.813c0.692-0.86,1.951-0.996,2.812-0.305c2.692,2.167,5.252,4.544,7.609,7.066    c0.754,0.807,0.711,2.072-0.096,2.826C243.671,139.431,243.181,139.61,242.692,139.61z"
   id="path364" />
	</g>
	<path
   style="fill:#FFB819;"
   d="M190.661,142.602c-23.95,0-43.366,19.418-43.366,43.367c0,23.951,19.416,43.367,43.366,43.367   c23.951,0,43.366-19.416,43.366-43.367C234.027,162.02,214.612,142.602,190.661,142.602z M190.661,198.209   c-6.759,0-12.239-5.479-12.239-12.239c0-6.76,5.48-12.239,12.239-12.239c6.76,0,12.24,5.479,12.24,12.239   C202.901,192.729,197.421,198.209,190.661,198.209z"
   id="path368" />
	<path
   style="fill:#D85C72;"
   d="M355.643,101.534l-77.34,13.754v84.394c-3.641-0.676-7.702-0.696-11.989,0.065   c-15.621,2.778-28.284,14.852-28.284,26.966c0,12.114,12.663,19.684,28.284,16.904c15.622-2.778,28.285-14.852,28.285-26.966   v-78.265l61.045-10.857v58.397c-3.641-0.675-7.701-0.696-11.989,0.066c-15.621,2.78-28.284,14.85-28.284,26.967   c0,12.113,12.663,19.682,28.284,16.902c15.621-2.776,28.285-14.851,28.285-26.962V98.635L355.643,101.534z"
   id="path370" />
	<path
   style="fill:#D85C72;"
   d="M40.274,141.611v84.394c-3.641-0.675-7.702-0.696-11.99,0.066C12.663,228.849,0,240.922,0,253.036   c0,12.115,12.663,19.684,28.284,16.904c15.622-2.778,28.285-14.852,28.285-26.965v-78.266l25.423-4.521v-25.996L40.274,141.611z"
   id="path372" />
</g>
</svg>
