<?xml version="1.0" encoding="utf-8"?>
<!-- Uploaded to: SVG Repo, www.svgrepo.com, Generator: SVG Repo Mixer Tools -->
<svg width="800px" height="800px" viewBox="0 -114.15 504.267 504.267" xmlns="http://www.w3.org/2000/svg"><defs><style>.a{fill:#ffffff;}.b{fill:#c6c6c6;}.c{fill:#211715;}.d{fill:#908b8a;}.e{fill:#b3b3b3;}.f{fill:#ffda71;}.g{fill:none;}</style></defs><path class="a" d="M214.458,197.968a4.379,4.379,0,0,1,3.164-1.158,4.062,4.062,0,0,1,3.649,2.027c1.24,2.15,1.187,6.112.355,8.563a13.225,13.225,0,0,1-3.882,6.3,4.821,4.821,0,0,1-3.72,1.074l-.353-.06a28.918,28.918,0,0,1-1.284,3.473c-1.012,2.747-6.925,12.862-14.194,15.732.07.6.16,1.189.26,1.779.29,1.65.2,3.12,2.49,3.95.15.05,6.64,3.14,6.87,3.24l1.493.649-.728.734c-3.108,3.135-10.958,8.332-22.315,8.234-9.5-.082-18.727-4.368-21.949-8.6l-.242-.317,1.031-.352c.44-.15,7.68-3.54,7.83-3.59,2.29-.83,2.2-2.3,2.49-3.95.09-.509.17-.988.238-1.471-3.769-1.325-7.049-3.9-10.144-7.6A33.288,33.288,0,0,1,159.2,214.7a4.721,4.721,0,0,1-4.024-1,13.217,13.217,0,0,1-3.882-6.3c-.832-2.451-.885-6.413.355-8.563a4.061,4.061,0,0,1,3.648-2.027,4.377,4.377,0,0,1,3.164,1.158s-6.636-28.733,28.734-28.733S214.458,197.968,214.458,197.968Z"/><path class="b" d="M172.984,176.776a30.992,30.992,0,0,0-4.111,1.722,9.139,9.139,0,0,0-2.919,2.076,7.5,7.5,0,0,0-1.374,4.244l-.414,3.887a8.848,8.848,0,0,1-.574,2.687,5.255,5.255,0,0,1-1.025,1.512l-4.105,5.064a4.377,4.377,0,0,0-3.164-1.158,4.061,4.061,0,0,0-3.648,2.027l-.719-5.1a17.4,17.4,0,0,0,1.427-5.591,41.964,41.964,0,0,0-.225-6.983,26.869,26.869,0,0,1,.247-7.289,10.174,10.174,0,0,1,3.277-5.986,3.5,3.5,0,0,1,3.6-.358l3.131-5.994a28.578,28.578,0,0,1,11.819-9.153,25.147,25.147,0,0,1,10.859-2c1.494-.011,4.315.2,5.614.9a6.743,6.743,0,0,1,3.052,4.012c6.779-.789,11.977,1.938,15.739,4.321a26.693,26.693,0,0,1,8.375,9.708c3.357,7.055,3.824,19.475,1.241,27.73a5.262,5.262,0,0,0-1.462-.247,4.246,4.246,0,0,0-3.691,1.789c-.437-2.367-1.616-8.549-2.182-11.579a9.891,9.891,0,0,0-1.516-4.262,5.519,5.519,0,0,0-4.632-2.2c-4.091-.4-8.547-3.306-12.428-4.493a23.5,23.5,0,0,0-3.429-.851,22.491,22.491,0,0,0-4.373-.106,49.245,49.245,0,0,0-12.387,1.663"/><path class="a" d="M133.343,273.979c.909-4.164,3.449-11.026,6.773-14.942,6.321-7.446,12.807-12.118,23.749-15.776,2.73,4.424,12.414,9.154,22.4,9.24,12.529.108,20.79-6.228,23.124-9.131,10.73,3.652,17.6,7.992,23.418,15.667a44.558,44.558,0,0,1,6.772,14.942Z"/><path class="c" d="M165.635,245.163c1.775-.634,3.483-1.562,5.191-2.354q1.3-.6,2.6-1.2l.343-.157c.36-.167-.221.076-.3.124.435-.262.962-.365,1.4-.644a4.84,4.84,0,0,0,1.109-.927c1.232-1.464,1.355-3.435,1.621-5.256a2.057,2.057,0,0,0-1.4-2.461,2.023,2.023,0,0,0-2.46,1.4c-.115.79-.254,1.576-.378,2.365a8.354,8.354,0,0,1-.163.831,2.384,2.384,0,0,0-.132.416s.2-.39.093-.229a2.648,2.648,0,0,0-.131.24c-.091.184-.155.025.118-.131a1.248,1.248,0,0,0-.155.174.978.978,0,0,0-.131.126c-.123.2.323-.187.1-.074-.146.074-.286.175-.429.256-.351.2.273-.1-.137.063-.309.123-.61.26-.912.4-1.793.824-3.58,1.662-5.372,2.486q-.645.3-1.292.589l-.459.2c-.372.168.556-.214.215-.092a2,2,0,0,0,1.063,3.858Z"/><path class="c" d="M196.193,233.914c.119.992.286,1.974.434,2.961a7.381,7.381,0,0,0,.474,1.827,4.857,4.857,0,0,0,1.772,2.133,6.442,6.442,0,0,0,1.318.652c.7.278-.53-.248-.134-.062q2.438,1.146,4.87,2.3c.625.3,1.245.606,1.877.886a2.051,2.051,0,0,0,2.736-.718,2.023,2.023,0,0,0-.717-2.736c-1.39-.616-2.752-1.3-4.126-1.952-.763-.361-1.525-.723-2.289-1.08-.3-.141-.607-.282-.919-.4-.049-.019-.3-.128-.063-.02s-.265-.147-.324-.183-.138-.1-.21-.137c-.177-.1.169.115.172.132a1.447,1.447,0,0,0-.162-.152c-.2-.2-.08-.244.043.084a2.464,2.464,0,0,0-.206-.344c-.153-.255.076.178.081.207a2.466,2.466,0,0,0-.1-.282,6.619,6.619,0,0,1-.183-.847c-.053-.32-.1-.642-.15-.962-.042-.254-.085-.508-.124-.763-.018-.119-.035-.237-.052-.356.053.362-.006-.051-.022-.184a2.051,2.051,0,0,0-2-2c-.976.044-2.133.887-2,2Z"/><path class="c" d="M162.551,241.6a53.485,53.485,0,0,0-18.686,10.636,41.28,41.28,0,0,0-7.009,7.878,42.579,42.579,0,0,0-4.71,10.569c-.761,2.465,3.1,3.519,3.857,1.063a38.569,38.569,0,0,1,4.307-9.613,37.42,37.42,0,0,1,6.383-7.069,48.576,48.576,0,0,1,16.922-9.607c2.415-.842,1.376-4.708-1.064-3.857Z"/><path class="c" d="M209.306,245.455c6.228,2.167,12.294,5.018,17.175,9.54a38.807,38.807,0,0,1,10.6,17.368c.752,2.454,4.615,1.407,3.857-1.063a42.876,42.876,0,0,0-11.631-19.133C223.9,247.159,217.269,244,210.37,241.6c-2.437-.848-3.484,3.015-1.064,3.857Z"/><path class="c" d="M207.164,242.853c-8.476,8.452-22.921,9.494-33.642,5a19.088,19.088,0,0,1-7.794-5.362,2.01,2.01,0,0,0-2.828,0,2.051,2.051,0,0,0,0,2.829,20.577,20.577,0,0,0,7.405,5.446,38.327,38.327,0,0,0,11.389,3.385,36.306,36.306,0,0,0,21.7-3.73,27.4,27.4,0,0,0,6.6-4.738c1.825-1.82-1-4.649-2.828-2.828Z"/><path class="c" d="M159.877,196.554a6.774,6.774,0,0,0-7.382-1.1,6.442,6.442,0,0,0-3.367,4.331,16.108,16.108,0,0,0,2.337,12.715c1.654,2.461,4.267,4.679,7.432,4.269a2.066,2.066,0,0,0,2-2,2.012,2.012,0,0,0-2-2c-2.2.285-3.633-1.536-4.586-3.3a12.976,12.976,0,0,1-1.565-4.863,8.346,8.346,0,0,1,.833-5.084c-.324.519.512-.439.21-.218a1.869,1.869,0,0,1,.929-.424,2.544,2.544,0,0,1,2.33.5c1.916,1.709,4.754-1.111,2.829-2.829Z"/><path class="c" d="M215.872,199.383a2.517,2.517,0,0,1,2.2-.524,1.968,1.968,0,0,1,1.057.451c-.3-.218.525.723.209.218a8.33,8.33,0,0,1,.834,5.084,13.018,13.018,0,0,1-1.565,4.863c-.953,1.759-2.386,3.58-4.586,3.3a2.009,2.009,0,0,0-2,2,2.052,2.052,0,0,0,2,2c5.149.668,8.313-4.889,9.6-9.052,1.155-3.738,1.1-9.525-2.555-11.916a6.737,6.737,0,0,0-8.025.752c-1.925,1.718.912,4.538,2.828,2.829Z"/><path class="c" d="M212.267,212.122a28.24,28.24,0,0,1-1.275,4.251c-.193.507-.331.782-.569,1.373-.2.5.143-.289-.029.071-.062.129-.119.259-.181.387a36.018,36.018,0,0,1-3.114,5.184c-2.7,3.83-6.4,8.014-11.154,9.131-2.5.589-1.445,4.447,1.063,3.857,5.638-1.325,9.975-6.031,13.241-10.545a36.98,36.98,0,0,0,3.385-5.539c.2-.42.384-.848.564-1.278.215-.514-.163.352.074-.17.154-.338.293-.684.43-1.029a28.32,28.32,0,0,0,1.422-4.629c.524-2.512-3.331-3.586-3.857-1.064Z"/><path class="c" d="M156.716,213.086c2.42,10.61,10.407,22.177,21.872,23.907a2.067,2.067,0,0,0,2.461-1.4,2.017,2.017,0,0,0-1.4-2.461c-10.173-1.534-16.938-11.725-19.078-21.112-.573-2.509-4.43-1.447-3.858,1.063Z"/><path class="c" d="M177.774,231.943l.018,1.291a2.054,2.054,0,0,0,2,2l.531-.071a2,2,0,0,0,.883-.515l.313-.4a1.991,1.991,0,0,0,.273-1.01l-.018-1.291a2.222,2.222,0,0,0-.586-1.415,1.489,1.489,0,0,0-.643-.413,1.506,1.506,0,0,0-.771-.172l-.532.071a2,2,0,0,0-.882.514l-.313.405a1.988,1.988,0,0,0-.273,1.01Z"/><path class="c" d="M184.466,232.908c-.016.447.022.9,0,1.341a1.5,1.5,0,0,0,.173.771,2.054,2.054,0,0,0,1.827,1.229l.532-.071a2,2,0,0,0,.883-.515l.312-.4a1.991,1.991,0,0,0,.273-1.01c.024-.446-.014-.894,0-1.341a2.057,2.057,0,0,0-2-2l-.531.072a2,2,0,0,0-.883.514l-.313.405a2.007,2.007,0,0,0-.273,1.009Z"/><path class="c" d="M190.608,232.065a9.171,9.171,0,0,0,.116,1.63,2.065,2.065,0,0,0,2.46,1.4l.478-.2a2.008,2.008,0,0,0,.718-.718l.2-.477a2,2,0,0,0,0-1.064v0l.071.531c-.022-.168-.028-.339-.035-.508-.009-.194-.017-.389-.009-.584a2.057,2.057,0,0,0-2-2l-.531.072a2,2,0,0,0-.883.514l-.313.405a1.987,1.987,0,0,0-.273,1.009Z"/><path class="c" d="M197.737,229.933c.029.372.088.742.15,1.11.028.169.054.341.1.506a2.238,2.238,0,0,0,.919,1.195,1.48,1.48,0,0,0,.744.238,1.523,1.523,0,0,0,.8-.036l.478-.2a2,2,0,0,0,.717-.717l.2-.478a2.018,2.018,0,0,0,0-1.063,6.861,6.861,0,0,1-.151-.853l.071.531c-.01-.077-.019-.153-.025-.231a2.056,2.056,0,0,0-2-2l-.532.072a2,2,0,0,0-.883.514l-.312.405a1.987,1.987,0,0,0-.273,1.009Z"/><path class="c" d="M171.27,229.661c-.006.077-.016.154-.026.231l.072-.532a7.215,7.215,0,0,1-.151.853,1.506,1.506,0,0,0-.036.8,1.486,1.486,0,0,0,.237.743,1.52,1.52,0,0,0,.515.561,1.5,1.5,0,0,0,.681.358l.531.072a1.991,1.991,0,0,0,1.01-.273l.4-.313a2,2,0,0,0,.515-.882c.044-.166.07-.337.1-.506.061-.368.121-.739.15-1.11a2.054,2.054,0,0,0-2-2l-.532.071a2.005,2.005,0,0,0-.882.514l-.313.405a1.991,1.991,0,0,0-.273,1.01Z"/><path class="c" d="M169.028,228.932l.638-.761.31-.37a3.9,3.9,0,0,0,.377-.482l.021-.036.2-.477.006-.016a1.627,1.627,0,0,0,.074-.554.876.876,0,0,0-.035-.273,1.443,1.443,0,0,0-.039-.279l-.2-.478-.007-.011a2.238,2.238,0,0,0-.729-.726,1.486,1.486,0,0,0-.743-.237,2.05,2.05,0,0,0-1.993.955l-.2.477a2.022,2.022,0,0,0,0,1.064l.2.477a2.008,2.008,0,0,0,.718.718l.011.008-.717-.717.007.011-.2-.478,0,.013-.071-.531v.014l.072-.532a.158.158,0,0,1-.009.031l.2-.478a.19.19,0,0,1-.026.043l.313-.405-1.008,1.2a1.492,1.492,0,0,0-.413.644,1.8,1.8,0,0,0,0,1.541,1.492,1.492,0,0,0,.413.644l.405.312a2,2,0,0,0,1.009.274l.532-.072a2,2,0,0,0,.883-.514Z"/><path class="c" d="M206.932,226.1l-1.007-1.2.312.405a.307.307,0,0,1-.026-.043l.2.478a.085.085,0,0,1-.009-.031l.071.532v-.014l-.072.531,0-.013-.2.478.007-.011-.718.717.012-.008a1.928,1.928,0,0,0,.955-1.993,1.477,1.477,0,0,0-.238-.743l-.312-.405a2,2,0,0,0-.883-.515l-.531-.071a1.991,1.991,0,0,0-1.01.273l-.011.009a1.5,1.5,0,0,0-.562.515,1.413,1.413,0,0,0-.365.691l0,.013-.071.532a1.334,1.334,0,0,0,.036.28,1.792,1.792,0,0,0,.037.273,1.886,1.886,0,0,0,.226.531c.054.072.11.144.166.215s.107.144.165.213l.042.05.319.38.638.761a1.489,1.489,0,0,0,.643.413,1.8,1.8,0,0,0,1.542,0,1.5,1.5,0,0,0,.643-.413l.313-.405a1.987,1.987,0,0,0,.273-1.009l-.071-.532a2,2,0,0,0-.515-.883Z"/><path class="c" d="M181.45,222.11a11.994,11.994,0,0,0,5.783,1.35,9.53,9.53,0,0,0,5.95-1.8,2,2,0,0,0,0-2.828,2.064,2.064,0,0,0-2.829,0c.692-.539-.02-.015-.238.1-.169.089-.62.23.012.015-.157.053-.31.119-.469.17-.423.136-.9.153-1.311.3.211-.075.327-.039.027-.009-.128.012-.257.023-.386.031-.31.02-.621.028-.932.026q-.418,0-.835-.03c-.128-.008-.255-.018-.382-.031-.073-.007-.145-.015-.218-.024q-.236-.029.185.024a4.765,4.765,0,0,1-1.225-.272c-.171-.051-.339-.113-.508-.171-.447-.153.423.2.017.011-.21-.1-.417-.2-.623-.31a2,2,0,1,0-2.018,3.453Z"/><path class="c" d="M185.956,208.824a25.863,25.863,0,0,1,.606,2.776l-.071-.531a1.692,1.692,0,0,1,.01.383l.072-.532a.929.929,0,0,1-.042.173l.2-.478a.707.707,0,0,1-.061.111l.313-.405a.547.547,0,0,1-.091.089l.405-.312a1.773,1.773,0,0,1-.22.116l.478-.2a1.548,1.548,0,0,1-.371.108l.532-.071a1.447,1.447,0,0,1-.348,0l.532.072c-.131-.018-.26-.05-.391-.068a1.526,1.526,0,0,0-.8-.036,1.477,1.477,0,0,0-.743.238,2,2,0,0,0-.718,2.736l.313.405a2,2,0,0,0,.882.514c.35.047.69.135,1.046.15a3.435,3.435,0,0,0,1.605-.391,2.442,2.442,0,0,0,1.317-1.595,3.769,3.769,0,0,0-.013-1.654c-.152-.9-.358-1.781-.588-2.658a2,2,0,0,0-2.461-1.4,2.024,2.024,0,0,0-1.195.919,2.1,2.1,0,0,0-.2,1.541Z"/><path class="c" d="M171.774,200.809c-.464,1.506-.162,4.972,2.693,5.267,3.772-.023,3.973-4.213,2.7-6.183C176.13,198.28,173.073,197.609,171.774,200.809Z"/><path class="c" d="M202.1,200.809c.464,1.506.162,4.972-2.692,5.267-3.773-.023-3.974-4.213-2.7-6.183C197.744,198.28,200.8,197.609,202.1,200.809Z"/><path class="c" d="M160.263,165.8c-3.011-1.322-5.735-.149-7.615,2.4a15.939,15.939,0,0,0-2.633,9.066c-.1,3.4.582,6.786.393,10.186-.114,2.062-.475,4.989-2.041,6.493-1.86,1.786.971,4.612,2.829,2.828,1.653-1.588,2.4-3.993,2.816-6.186a30.493,30.493,0,0,0,.212-8.258,26.063,26.063,0,0,1,.268-8.706c.334-1.272,1.758-5.24,3.752-4.364a2.064,2.064,0,0,0,2.737-.718,2.015,2.015,0,0,0-.718-2.736Z"/><path class="c" d="M172.452,174.848c-3.552,1.218-7.844,2.821-9.251,6.635a22.736,22.736,0,0,0-.844,5.428c-.164,1.544-.1,3.366-1.2,4.579a2.043,2.043,0,0,0,0,2.828,2.021,2.021,0,0,0,2.829,0,8.685,8.685,0,0,0,2.14-5.2c.194-1.672.3-3.586.562-5.12a4.029,4.029,0,0,1,2.033-3.127,24.209,24.209,0,0,1,4.8-2.162,2.049,2.049,0,0,0,1.4-2.46,2.02,2.02,0,0,0-2.461-1.4Z"/><path class="c" d="M163.8,162.95a27.281,27.281,0,0,1,14-9.727,26.135,26.135,0,0,1,8.107-.826c2.561.1,4.932.5,5.841,3.243.806,2.432,4.67,1.39,3.857-1.063a8.127,8.127,0,0,0-7.662-6.009,29.908,29.908,0,0,0-9.832.455,30.227,30.227,0,0,0-17.14,11.1,2.067,2.067,0,0,0,0,2.829,2.013,2.013,0,0,0,2.828,0Z"/><path class="c" d="M195.51,157.161c6.8-.116,13.36,3.4,17.627,8.577,4.14,5.024,5.4,11.385,5.58,17.758a42.589,42.589,0,0,1-1.163,11.633c-.632,2.5,3.225,3.561,3.857,1.063a47.179,47.179,0,0,0-.038-22.851,26.925,26.925,0,0,0-12.856-16.628,25.509,25.509,0,0,0-13.007-3.552c-2.571.043-2.579,4.044,0,4Z"/><path class="c" d="M185.69,174.958c.2-.267-.25.306-.1.121.044-.052.087-.106.131-.159q.15-.177.311-.347a8.916,8.916,0,0,1,.692-.655c.068-.058.139-.113.207-.171.187-.16-.348.257-.147.113.133-.1.265-.2.4-.287.293-.2.6-.382.907-.552s.611-.308.924-.45c.231-.1-.4.156-.158.068.091-.034.181-.071.271-.105.165-.062.331-.119.5-.174a12.923,12.923,0,0,1,2.145-.493,2,2,0,0,0,1.195-.919,2,2,0,0,0-.717-2.737,2.346,2.346,0,0,0-1.541-.2,12.783,12.783,0,0,0-8.477,4.929,2.01,2.01,0,0,0-.2,1.541,2,2,0,0,0,2.46,1.4,2.317,2.317,0,0,0,1.195-.919Z"/><path class="c" d="M193.789,178.318a15.129,15.129,0,0,1,1.676-1.108q.218-.12.439-.228c.076-.037.153-.073.23-.108.2-.087.156-.072-.119.045a2.931,2.931,0,0,1,.945-.34c.312-.092.627-.151.945-.215q.33-.051-.135.013c.09-.011.179-.022.269-.031.179-.018.36-.031.54-.041q.537-.027,1.074,0c.173.008.346.019.518.036.084.008.167.017.251.027q-.49-.069-.168-.019a2.177,2.177,0,0,0,1.541-.2,2,2,0,0,0-.477-3.655,12.584,12.584,0,0,0-5.3.2,13.044,13.044,0,0,0-4.248,2.177,2.177,2.177,0,0,0-.919,1.2,2.043,2.043,0,0,0,.2,1.541,2.021,2.021,0,0,0,2.736.717Z"/><path class="c" d="M205.6,182.563c3.676-.127,4.017,3.919,4.534,6.66.573,3.046,1.155,6.09,1.724,9.136a2.019,2.019,0,0,0,2.46,1.4,2.043,2.043,0,0,0,1.4-2.46c-.634-3.391-1.282-6.778-1.918-10.168a12.5,12.5,0,0,0-2.226-5.88,7.483,7.483,0,0,0-5.971-2.685c-2.567.088-2.578,4.088,0,4Z"/><path class="a" d="M1.985,123.979c.909-4.164,3.449-11.026,6.773-14.942,6.321-7.446,12.806-12.118,23.749-15.776,2.729,4.423,12.413,9.154,22.4,9.24,12.529.108,20.791-6.229,23.124-9.131,10.73,3.653,17.6,7.992,23.417,15.667a44.542,44.542,0,0,1,6.773,14.942Z"/><path class="a" d="M26.864,47.756c.082.067.162.138.24.212,0,0-1.675-23.807,28.1-23.807S83.1,47.968,83.1,47.968a4.379,4.379,0,0,1,3.164-1.158,4.061,4.061,0,0,1,3.648,2.027c1.24,2.15,1.188,6.112.356,8.563a13.233,13.233,0,0,1-3.882,6.3,4.822,4.822,0,0,1-3.72,1.074l-.353-.06a28.918,28.918,0,0,1-1.284,3.473c-1.012,2.748-6.929,12.868-14.2,15.736.072.59.162,1.184.266,1.778.288,1.647.2,3.119,2.487,3.946.152.054,6.646,3.144,6.877,3.239l1.515.624-.755.761C74.111,97.4,66.261,102.6,54.905,102.5c-9.5-.082-18.728-4.368-21.95-8.6l-.241-.317,1.031-.351c.441-.151,7.682-3.538,7.834-3.592,2.289-.827,2.2-2.3,2.488-3.946.089-.51.168-1,.235-1.484-3.771-1.316-7.049-3.89-10.143-7.593a33.307,33.307,0,0,1-6.316-11.915A4.738,4.738,0,0,1,23.818,63.7a13.233,13.233,0,0,1-3.882-6.3c-.832-2.451-.884-6.413.355-8.563A4.065,4.065,0,0,1,23.94,46.81,4.435,4.435,0,0,1,26.864,47.756Z"/><path class="c" d="M34.276,95.163c1.776-.634,3.484-1.562,5.191-2.354q1.3-.6,2.6-1.2l.343-.157c.359-.167-.221.076-.3.124.436-.262.962-.365,1.4-.644A4.835,4.835,0,0,0,44.612,90c1.233-1.464,1.356-3.435,1.621-5.256a2.055,2.055,0,0,0-1.4-2.461,2.024,2.024,0,0,0-2.46,1.4c-.115.79-.254,1.576-.378,2.365a8.354,8.354,0,0,1-.163.831,2.471,2.471,0,0,0-.132.416s.2-.39.094-.229a2.422,2.422,0,0,0-.131.24c-.091.184-.155.025.118-.131a1.248,1.248,0,0,0-.155.174.986.986,0,0,0-.132.126c-.122.195.323-.187.1-.074-.145.074-.286.175-.429.256-.35.2.273-.1-.137.063-.309.123-.61.26-.911.4-1.793.824-3.58,1.662-5.373,2.486q-.645.3-1.291.589L33,91.4c-.373.168.556-.214.214-.092a2,2,0,0,0,1.063,3.858Z"/><path class="c" d="M77.464,91.157c-1.39-.616-2.752-1.3-4.126-1.952-.762-.361-1.524-.723-2.288-1.08-.3-.141-.607-.282-.92-.4-.048-.019-.3-.128-.063-.02s-.265-.147-.324-.183-.137-.1-.21-.137c-.177-.1.17.115.173.132a1.447,1.447,0,0,0-.162-.152c-.2-.2-.08-.244.043.084a2.471,2.471,0,0,0-.207-.344c-.153-.255.077.178.082.207a2.677,2.677,0,0,0-.1-.282,6.622,6.622,0,0,1-.184-.847c-.052-.32-.095-.642-.149-.962-.046-.268-.092-.536-.132-.8-.019-.125-.037-.25-.055-.375s-.057-.712-.011-.123a2,2,0,0,0-4,0c.078.993.286,1.977.434,2.961a7.379,7.379,0,0,0,.473,1.827,4.866,4.866,0,0,0,1.773,2.133,6.392,6.392,0,0,0,1.318.652c.7.278-.531-.248-.135-.062q2.438,1.146,4.871,2.3c.624.3,1.244.606,1.876.886a2.053,2.053,0,0,0,2.737-.718,2.023,2.023,0,0,0-.718-2.736Z"/><path class="c" d="M31.193,91.6A52.993,52.993,0,0,0,11.12,103.543a36.385,36.385,0,0,0-7.061,9.06,44.983,44.983,0,0,0-4,10.845c-.561,2.507,3.3,3.578,3.857,1.063a40.935,40.935,0,0,1,3.6-9.89,32.939,32.939,0,0,1,6.437-8.25A48.38,48.38,0,0,1,32.256,95.455c2.415-.842,1.377-4.708-1.063-3.857Z"/><path class="c" d="M77.948,95.455C84.12,97.6,90.141,100.42,95,104.88a38.776,38.776,0,0,1,10.635,17.182c.773,2.446,4.636,1.4,3.857-1.064a42.85,42.85,0,0,0-11.664-18.946C92.442,97.108,85.857,93.98,79.011,91.6c-2.436-.848-3.483,3.015-1.063,3.857Z"/><path class="c" d="M75.805,92.853c-8.476,8.452-22.921,9.494-33.641,5a19.088,19.088,0,0,1-7.794-5.362,2.012,2.012,0,0,0-2.829,0,2.052,2.052,0,0,0,0,2.829,20.585,20.585,0,0,0,7.4,5.446,38.336,38.336,0,0,0,11.389,3.385,36.31,36.31,0,0,0,21.7-3.73,27.4,27.4,0,0,0,6.6-4.738c1.825-1.82-1-4.649-2.829-2.828Z"/><path class="d" d="M50.771,3.58a37.459,37.459,0,0,1,4.25-.238A33.163,33.163,0,0,1,75.159,9.833c6.449,4.655,13.123,12.882,13.683,26.126a35.757,35.757,0,0,1-1.333,11.033,5.433,5.433,0,0,0-1.245-.182A4.379,4.379,0,0,0,83.1,47.968L78.659,44.45c-1.434-3.608-4.671-7.594-8.048-10.5a17.982,17.982,0,0,0-5.124-3.223s-2.812-.5-5.5-.709l-.061.026c-3.752,1.581-9.043,4.9-12.012,6.55A1.015,1.015,0,0,1,46.464,35.5a5.358,5.358,0,0,0-.128-1.951c-.2-.815-.824-1.161-1.312-.905-4.16,2.181-10.087,7.822-13.445,11.564L27.1,47.968A4.379,4.379,0,0,0,23.94,46.81a5.222,5.222,0,0,0-1.365.218A36.935,36.935,0,0,1,21.2,35.959,33.542,33.542,0,0,1,35.054,9.713,32.159,32.159,0,0,1,50.771,3.58Z"/><path class="c" d="M50.091,72.11a12,12,0,0,0,5.784,1.35,9.525,9.525,0,0,0,5.949-1.8,2,2,0,0,0,0-2.828,2.062,2.062,0,0,0-2.828,0c.692-.539-.02-.015-.238.1-.169.089-.62.23.012.015-.158.053-.31.119-.469.17-.424.136-.9.153-1.311.3.211-.075.327-.039.027-.009-.129.012-.257.023-.387.031-.31.02-.621.028-.932.026-.278,0-.557-.011-.834-.03-.128-.008-.255-.018-.383-.031-.072-.007-.145-.015-.217-.024-.157-.019-.1-.011.185.024a4.756,4.756,0,0,1-1.225-.272c-.172-.051-.339-.113-.508-.171-.448-.153.422.2.017.011q-.315-.148-.623-.31a2,2,0,0,0-2.019,3.453Z"/><path class="c" d="M54.6,58.824A25.627,25.627,0,0,1,55.2,61.6l-.072-.531a1.636,1.636,0,0,1,.011.383l.071-.532a.929.929,0,0,1-.042.173l.2-.478a.8.8,0,0,1-.061.111l.313-.405a.589.589,0,0,1-.091.089l.405-.312a1.773,1.773,0,0,1-.22.116l.478-.2a1.548,1.548,0,0,1-.371.108l.532-.071a1.447,1.447,0,0,1-.348,0l.532.072c-.132-.018-.26-.05-.392-.068a1.522,1.522,0,0,0-.8-.036,1.484,1.484,0,0,0-.744.238,2,2,0,0,0-.717,2.736l.313.405a1.99,1.99,0,0,0,.882.514c.35.047.689.135,1.045.15a3.439,3.439,0,0,0,1.606-.391,2.441,2.441,0,0,0,1.316-1.595,3.754,3.754,0,0,0-.013-1.654c-.151-.895-.358-1.781-.588-2.658a2,2,0,0,0-2.46-1.4,2.021,2.021,0,0,0-1.2.919,2.1,2.1,0,0,0-.2,1.541Z"/><path class="c" d="M40.415,50.809c-.463,1.506-.161,4.972,2.693,5.267,3.773-.023,3.973-4.213,2.7-6.183C44.772,48.28,41.714,47.609,40.415,50.809Z"/><path class="c" d="M70.742,50.809c.464,1.506.162,4.972-2.693,5.267-3.772-.023-3.973-4.213-2.7-6.183C66.385,48.28,69.443,47.609,70.742,50.809Z"/><path class="c" d="M28.518,46.554a6.772,6.772,0,0,0-7.381-1.1,6.437,6.437,0,0,0-3.367,4.331A16.108,16.108,0,0,0,20.107,62.5c1.653,2.461,4.266,4.679,7.431,4.269a2.066,2.066,0,0,0,2-2,2.011,2.011,0,0,0-2-2c-2.2.285-3.632-1.536-4.586-3.3a12.994,12.994,0,0,1-1.565-4.863,8.346,8.346,0,0,1,.834-5.084c-.325.519.512-.439.209-.218a1.873,1.873,0,0,1,.929-.424,2.547,2.547,0,0,1,2.331.5c1.915,1.709,4.754-1.111,2.828-2.829Z"/><path class="c" d="M84.514,49.383a2.517,2.517,0,0,1,2.2-.524,1.971,1.971,0,0,1,1.057.451c-.3-.218.525.723.209.218a8.33,8.33,0,0,1,.834,5.084,13.019,13.019,0,0,1-1.566,4.863c-.953,1.759-2.386,3.58-4.585,3.3a2.009,2.009,0,0,0-2,2,2.051,2.051,0,0,0,2,2c5.148.668,8.313-4.889,9.6-9.052,1.155-3.738,1.1-9.525-2.555-11.916a6.737,6.737,0,0,0-8.025.752c-1.925,1.718.912,4.538,2.828,2.829Z"/><path class="c" d="M80.908,62.122a28.24,28.24,0,0,1-1.275,4.251c-.192.507-.33.782-.568,1.373-.2.5.143-.289-.03.071-.061.129-.119.259-.18.387a36.109,36.109,0,0,1-3.114,5.184c-2.7,3.83-6.4,8.014-11.155,9.131-2.5.589-1.444,4.447,1.064,3.857,5.637-1.325,9.975-6.031,13.241-10.545a36.974,36.974,0,0,0,3.384-5.539c.2-.42.385-.848.565-1.278.215-.514-.163.352.074-.17.154-.338.292-.684.429-1.029a28.323,28.323,0,0,0,1.423-4.629c.523-2.512-3.331-3.586-3.858-1.064Z"/><path class="c" d="M25.358,63.086C27.777,73.7,35.764,85.263,47.23,86.993a2.066,2.066,0,0,0,2.46-1.4,2.016,2.016,0,0,0-1.4-2.461C38.12,81.6,31.356,71.41,29.215,62.023c-.572-2.509-4.429-1.447-3.857,1.063Z"/><path class="c" d="M74.707,7.1A36.861,36.861,0,0,0,40.2,4.406,35.865,35.865,0,0,0,20.942,25.9a38.134,38.134,0,0,0-.43,21.158c.633,2.494,4.492,1.437,3.857-1.063-2.576-10.145-.738-21.185,6.128-29.283a32.294,32.294,0,0,1,42.191-6.152c2.168,1.4,4.175-2.059,2.019-3.454Z"/><path class="c" d="M89.552,47.054a39.084,39.084,0,0,0-.416-21.184,34.589,34.589,0,0,0-9.049-14.538c-1.859-1.781-4.691,1.043-2.829,2.829a30.39,30.39,0,0,1,8.021,12.772A35,35,0,0,1,85.7,45.991c-.609,2.5,3.247,3.567,3.857,1.063Z"/><path class="c" d="M64.477,32.454a21.672,21.672,0,0,1,7.117,5.183,30,30,0,0,1,2.952,3.538c.456.65.886,1.319,1.279,2.009q.269.471.512.955c.094.188.182.379.273.569.173.359-.04-.121.12.274a2.063,2.063,0,0,0,2.461,1.4,2.014,2.014,0,0,0,1.4-2.46,28.991,28.991,0,0,0-6-8.936A25.229,25.229,0,0,0,66.5,29a2.064,2.064,0,0,0-2.736.717,2.015,2.015,0,0,0,.717,2.736Z"/><path class="c" d="M32.993,45.625a80.636,80.636,0,0,1,7-6.879,44.226,44.226,0,0,1,3.643-2.889,12.687,12.687,0,0,0,1.885-1.2q.709-.276-.432-.356-.927-.613-.613.12a5.248,5.248,0,0,0-.014,1.242,3.049,3.049,0,0,0,3.707,2.966,16.337,16.337,0,0,0,3.816-2.072,82.4,82.4,0,0,1,8.943-4.781,2.012,2.012,0,0,0,.718-2.736,2.054,2.054,0,0,0-2.737-.718A82.491,82.491,0,0,0,49.971,33.1c-.685.4-1.37.8-2.058,1.2-.671.385-1.07.265-.11.824q.779.852.69.04a5.12,5.12,0,0,0-.012-.743c-.122-1.809-1.02-3.846-3.13-3.843-1.42,0-2.9,1.238-4.01,2.028-1.393.994-2.731,2.072-4.025,3.19A80.557,80.557,0,0,0,30.165,42.8c-1.721,1.907,1.1,4.744,2.828,2.828Z"/><path class="e" d="M133.343,123.979a44.675,44.675,0,0,1,6.77-14.95,41.548,41.548,0,0,1,3.8-4.37c3.031-9.348,4.673-31.358,4.74-56.968.066-25.7,14.844-44.7,37.4-44.7,24.555,0,36.333,18,36.534,44.723.172,22.763,7.092,38.283-1.76,50.688A39.221,39.221,0,0,1,232.8,109.029a44.478,44.478,0,0,1,6.77,14.95Z"/><path class="c" d="M146.763,101.8c1.941-8.553,2.579-17.443,3.1-26.177.349-5.84.558-11.689.677-17.538.115-5.646-.129-11.346.467-16.968.881-8.3,3.65-16.627,8.769-23.3A32.567,32.567,0,0,1,178.583,5.768a36.436,36.436,0,0,1,23,2.414,30.593,30.593,0,0,1,14.2,14.841c3.618,7.648,4.716,16.312,4.807,24.689.11,10.055,1.85,19.917,2.555,29.921.528,7.479,0,15.163-5.1,21.1a33.466,33.466,0,0,1-18.924,10.678,26.311,26.311,0,0,1-7.564.243,2.013,2.013,0,0,0-2,2,2.045,2.045,0,0,0,2,2c9.482,1,19.051-2.948,26.222-9a27.317,27.317,0,0,0,9.472-19.7A76.3,76.3,0,0,0,226.615,72c-.567-5.114-1.241-10.216-1.633-15.348-.409-5.348-.24-10.722-.739-16.063A64.347,64.347,0,0,0,221.7,27.291c-2.377-7.566-6.541-14.534-12.913-19.379-6.572-5-14.9-6.99-23.056-6.921a36.888,36.888,0,0,0-23.44,8.46c-6.678,5.57-11.1,13.494-13.438,21.791a60.815,60.815,0,0,0-2.157,14.4c-.214,6.376-.121,12.762-.335,19.14a247.305,247.305,0,0,1-2.468,30.783c-.278,1.731-.6,3.455-.985,5.166-.569,2.506,3.286,3.576,3.857,1.063Z"/><path class="a" d="M186.9,32.691a3.044,3.044,0,0,0-.757.018c-6.9,1.039-17.159,4.942-21.2,11.492-2.84,4.6-2.825,13.715-1.232,20.467C166.755,77.584,177.853,83.9,188.677,83.4c10.17-.471,19.958-7.223,21.868-18.234,1.346-7.758,1.692-17.5-1.809-22.42C204.76,37.165,195.531,33.535,186.9,32.691Z"/><path class="c" d="M135.908,122.128a36.614,36.614,0,0,1,16.908-21.848c2.209-1.317.2-4.777-2.019-3.454a42.368,42.368,0,0,0-11.735,10.319,43.82,43.82,0,0,0-7.011,13.92c-.771,2.462,3.089,3.515,3.857,1.063Z"/><path class="c" d="M221.384,101.076a37.907,37.907,0,0,1,9.692,8.963,39.484,39.484,0,0,1,5.828,11.745c.787,2.44,4.651,1.4,3.857-1.063a40.768,40.768,0,0,0-17.358-23.1c-2.173-1.394-4.181,2.067-2.019,3.454Z"/><path class="c" d="M181.45,72.106a12.017,12.017,0,0,0,5.783,1.35,9.536,9.536,0,0,0,5.95-1.8,2,2,0,0,0,0-2.829,2.062,2.062,0,0,0-2.828,0c.691-.538-.02-.015-.239.1-.169.088-.62.229.012.014-.157.054-.31.119-.468.17-.424.136-.9.154-1.312.3.212-.075.327-.04.028-.01-.129.013-.258.024-.387.032-.31.02-.621.028-.932.026-.279,0-.557-.011-.835-.03-.127-.009-.255-.019-.382-.032-.073-.007-.145-.015-.218-.024q-.236-.029.186.025a4.8,4.8,0,0,1-1.226-.272c-.171-.052-.339-.113-.508-.171-.447-.153.423.2.017.011q-.315-.148-.622-.311a2,2,0,1,0-2.019,3.454Z"/><path class="c" d="M185.956,58.82a26.058,26.058,0,0,1,.607,2.776l-.072-.532a1.694,1.694,0,0,1,.011.383l.071-.531a.938.938,0,0,1-.042.172l.2-.478a.623.623,0,0,1-.06.111l.312-.4a.547.547,0,0,1-.09.09l.4-.313a1.834,1.834,0,0,1-.219.116l.477-.2a1.652,1.652,0,0,1-.37.108l.531-.072a1.5,1.5,0,0,1-.348,0l.532.071c-.131-.018-.26-.05-.391-.068a1.512,1.512,0,0,0-.8-.035,1.486,1.486,0,0,0-.744.237,2,2,0,0,0-.718,2.736l.313.405a2,2,0,0,0,.883.515c.349.047.689.134,1.045.15a3.436,3.436,0,0,0,1.605-.392,2.442,2.442,0,0,0,1.317-1.595,3.754,3.754,0,0,0-.013-1.654c-.151-.894-.358-1.78-.588-2.658a2,2,0,0,0-2.46-1.4,2.03,2.03,0,0,0-1.2.919,2.106,2.106,0,0,0-.2,1.542Z"/><path class="c" d="M171.774,50.8c-.464,1.507-.162,4.973,2.693,5.267,3.772-.022,3.973-4.212,2.7-6.183C176.13,48.275,173.073,47.6,171.774,50.8Z"/><path class="c" d="M202.1,50.8c.463,1.507.161,4.973-2.693,5.267-3.773-.022-3.974-4.213-2.7-6.183C197.744,48.275,200.8,47.6,202.1,50.8Z"/><path class="c" d="M158.369,85.8c3.7,6.116,9.393,11.727,16.324,13.935a2,2,0,1,0,1.063-3.857c-5.848-1.864-10.793-6.912-13.933-12.1-1.332-2.2-4.792-.191-3.454,2.019Z"/><path class="c" d="M186.9,30.691c-2.521-.1-5.386.881-7.755,1.661a41.892,41.892,0,0,0-7.563,3.3c-4.653,2.64-8.684,6.4-10.062,11.714a37.942,37.942,0,0,0,.221,17.658,26.236,26.236,0,0,0,8.217,13.982,27.285,27.285,0,0,0,29.5,3.633,23.945,23.945,0,0,0,11.1-11,28.573,28.573,0,0,0,2.333-8.585,58.438,58.438,0,0,0,.609-9.193,26.987,26.987,0,0,0-1.552-9.257,16.1,16.1,0,0,0-5.308-6.809c-5.584-4.347-12.785-6.387-19.731-7.1a2.012,2.012,0,0,0-2,2,2.045,2.045,0,0,0,2,2A36.43,36.43,0,0,1,202.425,39.7a15.186,15.186,0,0,1,4.906,4.537,15.227,15.227,0,0,1,1.933,6.217,43.885,43.885,0,0,1-1.038,15.975A19.388,19.388,0,0,1,200.343,77.5a23.3,23.3,0,0,1-25.125.451c-8.69-5.443-11.289-16.156-10.46-25.838a15.6,15.6,0,0,1,2.077-7.17,17.529,17.529,0,0,1,5.411-5.026,34.859,34.859,0,0,1,7.308-3.49q1.9-.658,3.852-1.14a13.169,13.169,0,0,1,3.493-.6C189.473,34.788,189.469,30.788,186.9,30.691Z"/><path class="f" d="M453.593,2.157c-12.1-.784-20.4,1.121-29.156,8.762-10.425,9.092-12.42,26.762-10.066,36.26l1.566,14.815c-.555,1.944,0,5.1-.025,6.937-.059,3.635-1.947,6.646-3.78,10.313a19.439,19.439,0,0,0-.542,14.625c.668,1.68,3.292,4.125,5.458,4.292l70.717,9.582c8.572-5.472,10.4-17.9,6.568-27.325-2.384-5.867-6.541-11.038-7.871-17.23-.844-3.929-.484-8-.375-12.017.3-11.1-1.455-22.515-7.008-32.129S465.808,4.174,453.593,2.157"/><path class="a" d="M418.357,64.039a4.813,4.813,0,0,1-.476-.343A13.225,13.225,0,0,1,414,57.4c-.832-2.451-.885-6.413.355-8.563A4.061,4.061,0,0,1,418,46.81a4.38,4.38,0,0,1,3.165,1.158l4.61-3.171c5.856-5.268,13.973-11.955,17.382-14.651l5.556-2.1c6.444-1.889,11.445-.732,16.111,3.222,5.78,4.9,7.038,11.049,7.978,17.677,1.053,7.416-2.947,14.267.211,21.139q.282.614.5,1.226c-2.415,4.133-7.135,10.442-12.631,12.6q.111.894.268,1.784c.289,1.647.2,3.119,2.488,3.946.152.054,6.645,3.144,6.877,3.239l1.515.624-.755.761c-3.108,3.135-10.958,8.332-22.315,8.234-9.5-.082-18.727-4.368-21.949-8.6l-.242-.317,1.031-.351c.441-.151,7.683-3.538,7.834-3.592,2.29-.827,2.2-2.3,2.488-3.946.089-.509.168-1,.233-1.475-3.768-1.325-7.047-3.9-10.14-7.6a33.282,33.282,0,0,1-6.316-11.915A4.627,4.627,0,0,1,418.357,64.039Z"/><path class="c" d="M428.343,95.163c1.792-.64,3.516-1.577,5.239-2.376.858-.4,1.716-.8,2.575-1.193.111-.051.222-.1.333-.152.42-.2-.565.225-.235.1a5.607,5.607,0,0,0,2.494-1.629,5.52,5.52,0,0,0,1.127-2.519c.186-1.054.35-2.118.486-3.18a2,2,0,0,0-2-2,2.061,2.061,0,0,0-2,2c.053-.418-.049.3-.063.385-.034.208-.071.416-.106.623-.053.313-.095.627-.146.939a6.956,6.956,0,0,1-.174.823c-.026.091-.177.493-.044.171.165-.4-.157.227-.157.243,0-.043.338-.366.1-.136-.042.04-.085.085-.123.128-.294.335.247-.127-.042.048-.17.1-.339.193-.513.287.139-.075.278-.115,0,0-.315.125-.623.266-.932.408-1.784.82-3.563,1.653-5.347,2.474q-.645.3-1.292.589c-.152.069-.306.137-.459.205-.372.168.557-.214.215-.092a2,2,0,0,0,1.063,3.858Z"/><path class="c" d="M458.892,83.914c.119,1,.3,1.983.442,2.975a6.848,6.848,0,0,0,.385,1.619,5.014,5.014,0,0,0,1.884,2.349,6.833,6.833,0,0,0,1.354.658c.545.218-.557-.257-.2-.089q2.446,1.146,4.889,2.3c.621.294,1.236.6,1.864.88a2.051,2.051,0,0,0,2.736-.718,2.022,2.022,0,0,0-.717-2.736c-1.377-.61-2.728-1.289-4.09-1.934-.765-.362-1.531-.725-2.3-1.083-.314-.146-.627-.288-.948-.417a1.371,1.371,0,0,1-.173-.065c.422.235-.074-.052-.181-.115a1.238,1.238,0,0,0-.219-.139c.045.007.349.317.121.09a3.864,3.864,0,0,0-.307-.318c.31.235.214.311.13.15a1.678,1.678,0,0,0-.125-.222c-.145-.186.15.428.079.2-.025-.081-.058-.159-.083-.24a6.651,6.651,0,0,1-.2-.917c-.049-.309-.087-.621-.14-.93-.043-.255-.091-.509-.131-.764-.019-.119-.036-.237-.054-.356.055.362-.006-.051-.022-.184a2.052,2.052,0,0,0-2-2c-.977.044-2.134.887-2,2Z"/><path class="c" d="M444.154,72.11a11.994,11.994,0,0,0,5.783,1.35,9.53,9.53,0,0,0,5.95-1.8,2,2,0,0,0,0-2.828,2.062,2.062,0,0,0-2.828,0c.691-.539-.02-.015-.239.1-.169.089-.62.23.012.015-.157.053-.31.119-.468.17-.424.136-.9.153-1.312.3.212-.075.327-.039.028-.009-.129.012-.258.023-.387.031-.31.02-.621.028-.932.026q-.418,0-.835-.03c-.127-.008-.255-.018-.382-.031-.073-.007-.145-.015-.218-.024q-.236-.029.186.024a4.762,4.762,0,0,1-1.226-.272c-.171-.051-.339-.113-.508-.171-.447-.153.423.2.017.011q-.315-.148-.622-.31a2,2,0,1,0-2.019,3.453Z"/><path class="c" d="M448.66,58.824a26.112,26.112,0,0,1,.607,2.776l-.072-.531a1.692,1.692,0,0,1,.01.383l.072-.532a.929.929,0,0,1-.042.173l.2-.478a.7.7,0,0,1-.06.111l.312-.405a.541.541,0,0,1-.09.089l.4-.312a1.773,1.773,0,0,1-.22.116l.478-.2a1.554,1.554,0,0,1-.37.108l.531-.071a1.447,1.447,0,0,1-.348,0l.532.072c-.131-.018-.26-.05-.391-.068a1.526,1.526,0,0,0-.8-.036,1.477,1.477,0,0,0-.743.238,2,2,0,0,0-.718,2.736l.313.405a2,2,0,0,0,.883.514c.349.047.689.135,1.045.15a3.435,3.435,0,0,0,1.6-.391,2.442,2.442,0,0,0,1.317-1.595,3.754,3.754,0,0,0-.013-1.654c-.151-.895-.358-1.781-.588-2.658a2,2,0,0,0-2.46-1.4,2.026,2.026,0,0,0-1.2.919,2.1,2.1,0,0,0-.2,1.541Z"/><path class="c" d="M434.478,50.809c-.464,1.506-.162,4.972,2.693,5.267,3.772-.023,3.973-4.213,2.7-6.183C438.834,48.28,435.777,47.609,434.478,50.809Z"/><path class="c" d="M464.8,50.809c.464,1.506.162,4.972-2.692,5.267-3.773-.023-3.974-4.213-2.7-6.183C460.448,48.28,463.505,47.609,464.8,50.809Z"/><path class="c" d="M422.581,46.554a6.774,6.774,0,0,0-7.382-1.1,6.438,6.438,0,0,0-3.366,4.331A16.112,16.112,0,0,0,414.169,62.5c1.654,2.461,4.267,4.679,7.432,4.269a2.066,2.066,0,0,0,2-2,2.011,2.011,0,0,0-2-2c-2.2.285-3.632-1.536-4.586-3.3a12.976,12.976,0,0,1-1.565-4.863,8.346,8.346,0,0,1,.833-5.084c-.324.519.513-.439.21-.218a1.869,1.869,0,0,1,.929-.424,2.544,2.544,0,0,1,2.33.5c1.916,1.709,4.754-1.111,2.829-2.829Z"/><path class="c" d="M459.713,86.373c3.62-.834,6.751-3.2,9.308-5.808a42.024,42.024,0,0,0,6.217-8.242,2,2,0,1,0-3.453-2.018,35.986,35.986,0,0,1-5.444,7.28,22.276,22.276,0,0,1-3.6,3.087,16.014,16.014,0,0,1-2.1,1.192c-.089.042-.178.083-.269.123.147-.061.155-.065.026-.013q-.272.108-.547.2a11.967,11.967,0,0,1-1.2.339,2,2,0,0,0,1.063,3.858Z"/><path class="c" d="M419.421,63.086c2.419,10.61,10.406,22.177,21.872,23.907a2.066,2.066,0,0,0,2.46-1.4,2.016,2.016,0,0,0-1.4-2.461C432.183,81.6,425.418,71.41,423.278,62.023c-.572-2.509-4.43-1.447-3.857,1.063Z"/><path class="g" d="M467.76,8.829a34.5,34.5,0,0,0-38.644.884,33.548,33.548,0,0,0-13.85,26.246A36.653,36.653,0,0,0,416.5,46.523"/><path class="g" d="M481.686,46.523a35,35,0,0,0,1.219-10.564c-.476-11.259-5.371-18.891-10.789-23.786"/><path class="c" d="M449.247,29.978c4.176-1.187,8.328-1.114,12.1,1.213a18.5,18.5,0,0,1,7.782,9.994,32.649,32.649,0,0,1,1.7,13.335c-.481,4.761-1.79,9.538-.416,14.28.758,2.617,2.069,4.805,1.962,7.626a8.707,8.707,0,0,1-2.878,6.1c-1.884,1.762.949,4.587,2.829,2.829a13.4,13.4,0,0,0,3.26-14.182c-.412-1.233-1.031-2.378-1.374-3.636a13.85,13.85,0,0,1-.431-3.927,81.74,81.74,0,0,1,.954-8.247,35.858,35.858,0,0,0-1.692-15.067,23.055,23.055,0,0,0-8.74-11.939c-4.818-3.393-10.554-3.815-16.118-2.234-2.472.7-1.421,4.563,1.064,3.857Z"/><path class="c" d="M453.593.157a49.445,49.445,0,0,0-15.872,1.158,36.229,36.229,0,0,0-13.479,7.16c-7.641,6.233-11.347,15.7-12.451,25.294a40.084,40.084,0,0,0,.651,13.941c.606,2.5,4.465,1.442,3.857-1.063-1.835-7.572-.71-16.142,2.092-23.342A30.366,30.366,0,0,1,437.319,5.6c5.263-1.687,10.8-1.786,16.274-1.445,2.571.161,2.561-3.84,0-4Z"/><path class="c" d="M427.191,46.211q8.45-7.59,17.383-14.651a2.012,2.012,0,0,0,0-2.828,2.05,2.05,0,0,0-2.829,0q-8.907,7.05-17.383,14.65a2,2,0,0,0,2.829,2.829Z"/><path class="c" d="M414.009,61.462c-.891,3.557.474,7.148-.712,10.68-1.317,3.918-3.918,7.163-4.571,11.332-1,6.4.406,15.715,8.322,16.687a2.012,2.012,0,0,0,2-2,2.049,2.049,0,0,0-2-2,5.652,5.652,0,0,1-3.11-2.223,7.194,7.194,0,0,1-1.114-2.911,17.692,17.692,0,0,1,.4-9.2c1.135-3.478,3.514-6.417,4.33-10.04a16.376,16.376,0,0,0,.271-4.793,14.466,14.466,0,0,1,.04-4.465c.625-2.5-3.232-3.563-3.857-1.064Z"/><path class="a" d="M417.677,60.882a4.91,4.91,0,0,0-5.007,4.976,4.7,4.7,0,0,0,5.008,5.07c3.141,0,5.007-1.964,5.007-5.07A4.906,4.906,0,0,0,417.677,60.882Z"/><path class="c" d="M417.677,58.882a7.014,7.014,0,0,0-6.736,5.02,7.244,7.244,0,0,0,2.29,7.6,7.746,7.746,0,0,0,8.1.557,6.918,6.918,0,0,0,3.313-6.865,6.989,6.989,0,0,0-2.17-4.469,7.217,7.217,0,0,0-4.8-1.842,2,2,0,0,0,0,4c.146,0,.291.014.436.017.485.011-.439-.1.027,0a6.241,6.241,0,0,1,.659.169l.127.043q.3.117-.11-.053a2.306,2.306,0,0,1,.235.114c.114.06.227.124.337.193.072.045.143.092.213.142.173.125.139.1-.1-.081,0,0,.426.4.459.436l.085.094q.162.2,0-.007l-.078-.1c.05.067.1.136.146.206.127.191.211.423.344.606.157.214-.157-.467-.026-.067.054.164.112.324.155.491.022.084.042.169.059.253.1.474-.042.009.009-.012-.017.007.027.6.025.675,0,.137-.008.274-.019.411l-.011.134c-.025.223-.017.177.022-.14-.09.069-.131.622-.165.737s-.077.229-.115.344c-.072.217-.115.021.065-.15a3.865,3.865,0,0,0-.335.6,1.629,1.629,0,0,0-.129.185c.171-.4.186-.232.026-.059-.063.068-.129.134-.2.2-.04.039-.081.076-.124.113q-.239.2.142-.1a4.964,4.964,0,0,0-.48.306,1.754,1.754,0,0,0-.313.155c.272-.25.3-.116.033-.027a5.346,5.346,0,0,1-.6.162c-.155.032-.53.024.018.013-.133,0-.271.028-.4.036a7.217,7.217,0,0,1-.832,0c-.089-.006-.177-.016-.266-.022-.461-.031.458.1.018,0-.2-.049-.4-.088-.6-.15a1.663,1.663,0,0,0-.34-.12q.442.194.154.061c-.052-.025-.1-.052-.155-.079a5.21,5.21,0,0,0-.532-.333c.349.128.265.231.1.065-.067-.065-.138-.126-.2-.192-.079-.081-.152-.166-.227-.25-.219-.24.1.1.105.137a3.555,3.555,0,0,0-.406-.7c-.114-.219.087-.04.062.15a1.432,1.432,0,0,0-.118-.344c-.062-.2-.1-.405-.148-.61-.1-.444.028.478,0,.013-.008-.136-.022-.271-.027-.407,0-.093.052-.793.021-.81.08.043-.1.478,0,.079.036-.147.063-.3.105-.441.036-.124.08-.243.121-.365.136-.412-.212.386,0,.009.134-.238.294-.466.425-.7s-.33.357-.037.058c.118-.121.228-.248.352-.363.023-.022.19-.169.191-.168-.24.179-.273.206-.1.08.07-.05.141-.1.214-.143.091-.057.184-.111.279-.163.058-.031.116-.061.174-.089.2-.09.158-.076-.116.043.022-.1.655-.206.776-.233l.136-.027c.221-.036.183-.033-.114.011.091-.074.463-.029.579-.03a2,2,0,0,0,0-4Z"/><path class="a" d="M396.047,123.979a44.561,44.561,0,0,1,6.773-14.942c5.881-7.755,12.831-12.1,23.754-15.778,2.727,4.427,12.41,9.156,22.393,9.242,12.53.108,20.792-6.229,23.125-9.132,10.729,3.654,17.6,7.993,23.417,15.668a44.561,44.561,0,0,1,6.773,14.942Z"/><path class="a" d="M396.047,123.979a44.561,44.561,0,0,1,6.773-14.942c5.882-7.755,12.831-12.105,23.754-15.779,2.73,4.429,12.412,9.157,22.393,9.243,12.529.108,20.79-6.228,23.125-9.131,10.729,3.652,17.6,7.992,23.417,15.667a44.561,44.561,0,0,1,6.773,14.942"/><path class="c" d="M425.255,91.6c-6.846,2.382-13.43,5.51-18.815,10.454a42.854,42.854,0,0,0-11.707,19.087c-.768,2.463,3.092,3.517,3.857,1.064a38.783,38.783,0,0,1,10.679-17.323c4.857-4.46,10.877-7.277,17.05-9.425,2.416-.841,1.377-4.706-1.064-3.857Z"/><path class="c" d="M472.01,95.455c6.737,2.345,13.193,5.5,18.28,10.606a38.193,38.193,0,0,1,10.063,18.45c.565,2.51,4.423,1.448,3.857-1.063a42.086,42.086,0,0,0-11.091-20.216c-5.582-5.6-12.655-9.062-20.045-11.634-2.436-.848-3.484,3.015-1.064,3.857Z"/><path class="c" d="M469.868,92.853c-8.476,8.452-22.921,9.494-33.642,5a19.088,19.088,0,0,1-7.794-5.362,2.01,2.01,0,0,0-2.828,0,2.051,2.051,0,0,0,0,2.829,20.577,20.577,0,0,0,7.405,5.446,38.336,38.336,0,0,0,11.389,3.385,36.306,36.306,0,0,0,21.7-3.73,27.377,27.377,0,0,0,6.6-4.738c1.826-1.82-1-4.649-2.828-2.828Z"/><path class="c" d="M453.061,4.086c6.968,1.175,13.672,3.638,18.777,8.685,5.737,5.672,9.08,13.474,10.789,21.253a67.608,67.608,0,0,1,1.482,13.463c.077,4.935-.573,9.906.17,14.813,1.3,8.572,7.939,15.05,9.554,23.509,1.388,7.272-.567,15.956-7.078,20.207-2.147,1.4-.145,4.867,2.019,3.454,6.547-4.274,9.592-11.987,9.459-19.621a29.459,29.459,0,0,0-2.672-11.605c-1.889-4.209-4.61-8.037-6.219-12.373-1.855-5-1.344-10.129-1.24-15.349a78.439,78.439,0,0,0-1-14.374c-1.457-8.789-4.82-17.51-10.676-24.323C470.7,5.173,462.64,1.664,454.125.229a2.059,2.059,0,0,0-2.461,1.4,2.018,2.018,0,0,0,1.4,2.461Z"/><path class="a" d="M296.453,243.234c.44-.15,7.68-3.54,7.83-3.59,2.29-.83,2.2-2.3,2.49-3.95.09-.509.17-.988.238-1.471-3.769-1.325-7.049-3.9-10.144-7.6a33.3,33.3,0,0,1-6.333-11.976c-1.658.56-2.909-.309-3.9-1.1a10.815,10.815,0,0,1-2.8-3.672,17.017,17.017,0,0,1-1.735-9.023,5.671,5.671,0,0,1,.594-2.285,4.019,4.019,0,0,1,2.889-1.92,4.255,4.255,0,0,1,3.4,1s-2-22.989,28.664-22.989,28.976,22.989,28.976,22.989a4.258,4.258,0,0,1,3.405-1,4.018,4.018,0,0,1,2.888,1.92,5.672,5.672,0,0,1,.595,2.285,17.018,17.018,0,0,1-1.736,9.023,10.8,10.8,0,0,1-2.8,3.672,3.264,3.264,0,0,1-3.271.765l-.531-.162a29.817,29.817,0,0,1-1.446,4.034c-1.012,2.747-6.925,12.862-14.193,15.733.069.6.159,1.188.259,1.778.29,1.65.2,3.12,2.49,3.95.15.05,6.64,3.14,6.87,3.24l1.493.649-.728.734c-3.108,3.135-10.959,8.332-22.315,8.234-9.5-.082-18.728-4.368-21.949-8.6"/><path class="a" d="M264.693,273.979c.909-4.164,3.449-11.026,6.773-14.942,6.321-7.446,12.807-12.118,23.749-15.776,2.731,4.424,12.414,9.154,22.4,9.24,12.528.108,20.79-6.228,23.124-9.131,10.73,3.652,17.6,7.992,23.418,15.667a44.558,44.558,0,0,1,6.772,14.942Z"/><path class="f" d="M284.127,182.993q-.151,1.452-.215,2.966a36.79,36.79,0,0,0,1.29,10.766,3.309,3.309,0,0,1,.384-.079,4.255,4.255,0,0,1,3.4,1l1.5,1.357a33.279,33.279,0,0,1,5.366-14c1.778-2.278,3.052-2.873,4.815-2.865,6.477.03,13.069.021,19.259-1.381a37.6,37.6,0,0,0,10.982-4.325l3.944,3.238c1.555,1.277,3.066,2.76,4.473,3.687a14.855,14.855,0,0,1,2.536,2.194,6.186,6.186,0,0,1,1.353,3.072,91.086,91.086,0,0,1,1.693,10.254l.034.292,1.681-1.518a4.258,4.258,0,0,1,3.405-1c.085.013.171.028.255.046a35.214,35.214,0,0,0,1.26-10.733c-.542-12.843-6.835-20.968-13.1-25.695a33.266,33.266,0,0,0-20.725-6.922c-7.9,0-14.12,1.735-19.7,5.569a17.606,17.606,0,0,0-5.343,5.371C288.01,167.859,285,174.605,284.127,182.993Z"/><path class="c" d="M312.8,222.11a11.992,11.992,0,0,0,5.783,1.35,9.53,9.53,0,0,0,5.95-1.8,2,2,0,0,0,0-2.828,2.064,2.064,0,0,0-2.829,0c.692-.539-.02-.015-.238.1-.169.089-.62.23.012.015-.157.053-.31.119-.469.17-.423.136-.9.153-1.311.3.211-.075.327-.039.027-.009-.128.012-.257.023-.386.031-.31.02-.621.028-.932.026q-.418,0-.835-.03c-.128-.008-.255-.018-.382-.031-.073-.007-.146-.015-.218-.024q-.236-.029.185.024a4.765,4.765,0,0,1-1.225-.272c-.171-.051-.339-.113-.508-.171-.448-.153.423.2.017.011-.21-.1-.417-.2-.623-.31a2,2,0,1,0-2.018,3.453Z"/><path class="c" d="M317.305,208.824a25.627,25.627,0,0,1,.607,2.776l-.071-.531a1.692,1.692,0,0,1,.01.383l.072-.532a.929.929,0,0,1-.042.173l.2-.478a.707.707,0,0,1-.061.111l.313-.405a.547.547,0,0,1-.091.089l.405-.312a1.773,1.773,0,0,1-.22.116l.478-.2a1.548,1.548,0,0,1-.371.108l.532-.071a1.447,1.447,0,0,1-.348,0l.532.072c-.131-.018-.26-.05-.391-.068a1.526,1.526,0,0,0-.8-.036,1.477,1.477,0,0,0-.743.238,2,2,0,0,0-.718,2.736l.313.405a2,2,0,0,0,.882.514c.35.047.689.135,1.046.15a3.435,3.435,0,0,0,1.605-.391,2.442,2.442,0,0,0,1.317-1.595,3.754,3.754,0,0,0-.014-1.654c-.151-.9-.357-1.781-.587-2.658a2,2,0,0,0-2.461-1.4,2.024,2.024,0,0,0-1.195.919,2.109,2.109,0,0,0-.2,1.541Z"/><path class="c" d="M348.044,199.056a2.173,2.173,0,0,1,3.152.52,5.363,5.363,0,0,1,.379,2.355,14.181,14.181,0,0,1-.2,2.851,15.1,15.1,0,0,1-2.019,5.34,7.459,7.459,0,0,1-1.582,1.854,1.423,1.423,0,0,1-1.526.406c-2.49-.664-3.552,3.194-1.064,3.858,3.137.836,5.594-1.177,7.305-3.617a18.233,18.233,0,0,0,2.957-8.227c.334-2.742.322-6.209-1.9-8.2a6.309,6.309,0,0,0-8.332.035,2.015,2.015,0,0,0,0,2.828,2.043,2.043,0,0,0,2.828,0Z"/><path class="c" d="M290.4,196.228a6.312,6.312,0,0,0-8.333-.035c-2.278,2.049-2.227,5.632-1.865,8.432a17.967,17.967,0,0,0,3.1,8.234c1.767,2.424,4.4,4.475,7.551,3.781a2,2,0,0,0-1.063-3.857c-1.316.29-2.724-1.451-3.367-2.418a14.849,14.849,0,0,1-2.148-5.431,14.116,14.116,0,0,1-.234-2.806,5.664,5.664,0,0,1,.382-2.552,2.172,2.172,0,0,1,3.152-.52,2.055,2.055,0,0,0,2.829,0,2.016,2.016,0,0,0,0-2.828Z"/><path class="c" d="M316.379,201.315a11.319,11.319,0,0,1,1.21-.231l-.532.071a10.834,10.834,0,0,1,2.758.008l-.532-.072a11.248,11.248,0,0,1,1.507.319,2,2,0,1,0,1.063-3.857,12.731,12.731,0,0,0-6.537-.095,2.019,2.019,0,0,0-1.4,2.46,2.041,2.041,0,0,0,2.46,1.4Z"/><path class="c" d="M296.847,196.881a11.673,11.673,0,0,0-2.879-.295,2.094,2.094,0,0,0-1.415.586,2.228,2.228,0,0,0-.585,1.414,2,2,0,0,0,2,2,9.7,9.7,0,0,1,1.542.078l-.532-.071c.27.037.539.085.805.145a1.526,1.526,0,0,0,.8.036,1.487,1.487,0,0,0,.743-.238,2.238,2.238,0,0,0,.919-1.195,2,2,0,0,0-1.4-2.46Z"/><path class="c" d="M341.067,200.738c.267-.06.535-.108.806-.145l-.532.071a9.688,9.688,0,0,1,1.542-.078,2.054,2.054,0,0,0,2-2,2.02,2.02,0,0,0-.586-1.414,2.134,2.134,0,0,0-1.414-.586,9.471,9.471,0,0,0-1.2.039,13.727,13.727,0,0,0-1.676.256,1.929,1.929,0,0,0-1.433,1.662,1.526,1.526,0,0,0,.036.8,2.025,2.025,0,0,0,.919,1.195l.478.2a2.018,2.018,0,0,0,1.063,0Z"/><path class="c" d="M330.69,209.572c-6.858-.155-9.44-3.84-9.627-9.483-.134-4.023,3.864-6.754,9.921-6.664,6.1.09,9.673,2.831,9.608,7.221C340.513,205.975,337.262,209.721,330.69,209.572Z"/><path class="c" d="M306.024,209.574c6.858-.3,9.364-4.042,9.431-9.692.049-4.028-4.009-6.676-10.067-6.458-6.1.22-9.619,3.038-9.461,7.429C296.119,206.183,299.452,209.862,306.024,209.574Z"/><path class="c" d="M296.985,245.163c1.775-.634,3.483-1.562,5.191-2.354q1.3-.6,2.6-1.2l.343-.157c.36-.167-.221.076-.3.124.435-.262.962-.365,1.4-.644a4.862,4.862,0,0,0,1.109-.927c1.232-1.464,1.355-3.435,1.621-5.256a2.057,2.057,0,0,0-1.4-2.461,2.023,2.023,0,0,0-2.46,1.4c-.115.79-.254,1.576-.378,2.365a8.354,8.354,0,0,1-.163.831,2.384,2.384,0,0,0-.132.416s.2-.39.093-.229a2.422,2.422,0,0,0-.131.24c-.091.184-.155.025.118-.131a1.248,1.248,0,0,0-.155.174.978.978,0,0,0-.131.126c-.123.2.323-.187.1-.074-.146.074-.286.175-.429.256-.351.2.272-.1-.137.063-.309.123-.611.26-.912.4-1.793.824-3.58,1.662-5.372,2.486q-.645.3-1.292.589l-.459.2c-.372.168.556-.214.215-.092a2,2,0,0,0,1.063,3.858Z"/><path class="c" d="M327.543,233.914c.119.992.286,1.974.434,2.961a7.381,7.381,0,0,0,.474,1.827,4.857,4.857,0,0,0,1.772,2.133,6.442,6.442,0,0,0,1.318.652c.7.278-.53-.248-.135-.062q2.439,1.146,4.871,2.3c.625.3,1.245.606,1.877.886a2.051,2.051,0,0,0,2.736-.718,2.023,2.023,0,0,0-.717-2.736c-1.39-.616-2.752-1.3-4.126-1.952-.763-.361-1.525-.723-2.289-1.08-.3-.141-.607-.282-.919-.4-.049-.019-.3-.128-.063-.02s-.266-.147-.324-.183-.138-.1-.21-.137c-.177-.1.169.115.172.132a1.447,1.447,0,0,0-.162-.152c-.2-.2-.08-.244.043.084a2.464,2.464,0,0,0-.206-.344c-.153-.255.076.178.081.207a2.466,2.466,0,0,0-.1-.282,6.619,6.619,0,0,1-.183-.847c-.053-.32-.1-.642-.15-.962-.042-.254-.085-.508-.124-.763-.018-.119-.035-.237-.052-.356.053.362-.006-.051-.022-.184a2.051,2.051,0,0,0-2-2c-.976.044-2.133.887-2,2Z"/><path class="c" d="M293.9,241.6a53.422,53.422,0,0,0-18.813,10.752,40.747,40.747,0,0,0-7,7.953,43.09,43.09,0,0,0-4.731,10.854c-.732,2.473,3.127,3.53,3.857,1.063a39.409,39.409,0,0,1,4.223-9.733,36.6,36.6,0,0,1,6.482-7.308,48.541,48.541,0,0,1,17.048-9.724c2.416-.842,1.377-4.708-1.063-3.857Z"/><path class="c" d="M340.656,245.455c6.117,2.129,12.093,4.913,16.925,9.31a38.745,38.745,0,0,1,10.735,17.215c.778,2.444,4.641,1.4,3.857-1.063a42.827,42.827,0,0,0-11.763-18.98c-5.363-4.88-11.9-7.975-18.691-10.339-2.436-.848-3.483,3.015-1.063,3.857Z"/><path class="c" d="M338.514,242.853c-8.476,8.452-22.921,9.494-33.642,5a19.088,19.088,0,0,1-7.794-5.362,2.01,2.01,0,0,0-2.828,0,2.051,2.051,0,0,0,0,2.829,20.577,20.577,0,0,0,7.4,5.446,38.318,38.318,0,0,0,11.389,3.385,36.306,36.306,0,0,0,21.7-3.73,27.4,27.4,0,0,0,6.6-4.738c1.825-1.82-1-4.649-2.828-2.828Z"/><path class="c" d="M343.617,212.122a28.24,28.24,0,0,1-1.275,4.251c-.193.507-.331.782-.569,1.373-.2.5.143-.289-.029.071-.062.129-.119.259-.181.387a36.018,36.018,0,0,1-3.114,5.184c-2.7,3.83-6.4,8.014-11.154,9.131-2.5.589-1.445,4.447,1.063,3.857,5.638-1.325,9.975-6.031,13.241-10.545a36.98,36.98,0,0,0,3.385-5.539c.2-.42.384-.848.564-1.278.215-.514-.163.352.074-.17.154-.338.293-.684.43-1.029a28.32,28.32,0,0,0,1.422-4.629c.524-2.512-3.331-3.586-3.857-1.064Z"/><path class="c" d="M288.066,213.086c2.42,10.61,10.407,22.177,21.872,23.907a2.067,2.067,0,0,0,2.461-1.4,2.017,2.017,0,0,0-1.4-2.461c-10.173-1.534-16.938-11.725-19.079-21.112-.572-2.509-4.429-1.447-3.857,1.063Z"/><path class="c" d="M337.416,157.1a38.151,38.151,0,0,0-33.622-3.45,32.7,32.7,0,0,0-7.3,3.9,23.329,23.329,0,0,0-2.844,2.336c-1.079,1.066-1.83,2.454-2.953,3.445-3.773,3.328-6.061,7.976-7.348,12.78a41.377,41.377,0,0,0-.128,20.943c.633,2.494,4.492,1.437,3.857-1.063a37.019,37.019,0,0,1-.325-16.927c.921-4.343,2.59-8.791,5.781-11.991.352-.353.72-.691,1.1-1.009a7.38,7.38,0,0,0,1.284-1.542,15.163,15.163,0,0,1,2.649-2.8,27.162,27.162,0,0,1,6.044-3.693,34.285,34.285,0,0,1,15.454-2.667,31.849,31.849,0,0,1,16.329,5.191c2.167,1.4,4.175-2.059,2.019-3.454Z"/><path class="c" d="M352.261,197.054a39.032,39.032,0,0,0-.456-21.31,34.61,34.61,0,0,0-9.124-14.52c-1.867-1.772-4.7,1.051-2.829,2.829a30.417,30.417,0,0,1,8.1,12.754,34.966,34.966,0,0,1,.455,19.184c-.608,2.5,3.248,3.567,3.858,1.063Z"/><path class="c" d="M292.4,199.7a32.393,32.393,0,0,1,4.222-12.1c.766-1.319,1.785-3.186,3.471-3.445a19.971,19.971,0,0,1,2.956-.018c1.189,0,2.378-.007,3.567-.029,9.281-.172,18.6-1.546,26.518-6.719,2.147-1.4.144-4.868-2.019-3.454-6.278,4.1-13.534,5.675-20.939,6.054-1.978.1-3.958.136-5.938.145a23.88,23.88,0,0,0-5.34.194c-3.351.8-5.227,4.195-6.7,7a34.092,34.092,0,0,0-3.659,11.3,2.072,2.072,0,0,0,1.4,2.461,2.015,2.015,0,0,0,2.461-1.4Z"/><path class="c" d="M333.446,181.075c1.54,1.279,2.987,2.677,4.628,3.831,1.377.968,2.637,1.95,3.074,3.628a75.431,75.431,0,0,1,1.767,10.334,2.062,2.062,0,0,0,2,2,2.012,2.012,0,0,0,2-2,72.318,72.318,0,0,0-1.991-11.7,9.47,9.47,0,0,0-3.616-4.839c-1.708-1.335-3.363-2.7-5.034-4.084a2.056,2.056,0,0,0-2.828,0,2.016,2.016,0,0,0,0,2.829Z"/><path class="a" d="M425.248,273.979h-29.2c.909-4.164,3.449-11.026,6.773-14.942,6.169-7.267,12.5-11.892,22.967-15.511l3.193-1.305a76.7,76.7,0,0,0,22.079,15.734,131.068,131.068,0,0,0,15.679-16.472c1.891.664,5.8,2.043,5.8,2.043,10.472,3.619,17.228,7.944,22.967,15.511a44.561,44.561,0,0,1,6.773,14.942Z"/><path class="d" d="M466.658,232.772a13.7,13.7,0,0,0,7.348-1.882,12.787,12.787,0,0,0,4.585-4.423,18.784,18.784,0,0,0,2.512-12.2l.583-17.749a35,35,0,0,0,1.219-10.564c-.476-11.259-5.371-18.891-10.789-23.786l-4.356-3.344a34.5,34.5,0,0,0-38.644.884,33.548,33.548,0,0,0-13.85,26.246,36.653,36.653,0,0,0,1.237,10.564l.323,17.749a18.784,18.784,0,0,0,2.512,12.2,12.787,12.787,0,0,0,4.585,4.423,13.7,13.7,0,0,0,7.348,1.882Z"/><path class="a" d="M459.18,234.448c8.038-1.786,14.821-13.305,15.911-16.265a28.145,28.145,0,0,0,1.28-3.474l.357.061a4.821,4.821,0,0,0,3.72-1.074,13.225,13.225,0,0,0,3.882-6.3c.832-2.451.885-6.413-.355-8.563a4.061,4.061,0,0,0-3.648-2.027,4.4,4.4,0,0,0-2.887.924,182.53,182.53,0,0,1-27.8-20.073c-7.18,6.439-19.745,15.694-28.389,20.392A4.358,4.358,0,0,0,418,196.81a4.061,4.061,0,0,0-3.648,2.027c-1.24,2.15-1.187,6.112-.355,8.563a13.225,13.225,0,0,0,3.882,6.3,4.724,4.724,0,0,0,4.024,1.006,33.3,33.3,0,0,0,6.317,11.918c3.094,3.7,6.374,6.278,10.145,7.6-.07.489-.15.968-.24,1.477-.29,1.65-.2,3.12-2.49,3.95-.11.037-4.073,1.888-6.325,2.92a76.813,76.813,0,0,0,21.746,15.391,131.073,131.073,0,0,0,15.9-16.752c-1.639-.777-3.24-1.534-3.314-1.559-2.29-.83-2.2-2.3-2.49-3.95-.1-.59-.19-1.18-.26-1.78"/><path class="c" d="M428.339,245.163c1.775-.634,3.483-1.562,5.191-2.354q1.3-.6,2.6-1.2l.343-.157c.36-.167-.22.076-.3.124.435-.262.962-.365,1.4-.644a4.857,4.857,0,0,0,1.108-.927c1.232-1.464,1.356-3.435,1.621-5.256a2.056,2.056,0,0,0-1.4-2.461,2.023,2.023,0,0,0-2.46,1.4c-.115.79-.254,1.576-.378,2.365a8.354,8.354,0,0,1-.163.831,2.384,2.384,0,0,0-.132.416s.2-.39.093-.229a2.648,2.648,0,0,0-.131.24c-.091.184-.154.025.118-.131a1.248,1.248,0,0,0-.155.174.978.978,0,0,0-.131.126c-.123.2.323-.187.1-.074-.145.074-.286.175-.429.256-.351.2.273-.1-.137.063-.309.123-.61.26-.912.4-1.793.824-3.579,1.662-5.372,2.486q-.645.3-1.292.589c-.152.069-.306.137-.459.2-.372.168.556-.214.215-.092a2,2,0,0,0,1.063,3.858Z"/><path class="c" d="M458.9,233.914c.12.992.286,1.974.434,2.961a7.381,7.381,0,0,0,.474,1.827,4.857,4.857,0,0,0,1.772,2.133,6.442,6.442,0,0,0,1.318.652c.7.278-.53-.248-.134-.062q2.438,1.146,4.87,2.3c.625.3,1.245.606,1.877.886a2.051,2.051,0,0,0,2.736-.718,2.022,2.022,0,0,0-.717-2.736c-1.39-.616-2.752-1.3-4.126-1.952-.762-.361-1.525-.723-2.289-1.08-.3-.141-.607-.282-.919-.4-.048-.019-.3-.128-.063-.02s-.265-.147-.324-.183-.137-.1-.21-.137c-.177-.1.169.115.173.132a1.561,1.561,0,0,0-.163-.152c-.2-.2-.08-.244.043.084a2.464,2.464,0,0,0-.206-.344c-.153-.255.077.178.081.207a2.466,2.466,0,0,0-.1-.282,6.794,6.794,0,0,1-.183-.847c-.053-.32-.1-.642-.15-.962-.042-.254-.085-.508-.124-.763-.018-.119-.035-.237-.052-.356.053.362-.006-.051-.022-.184a2.051,2.051,0,0,0-2-2c-.976.044-2.133.887-2,2Z"/><path class="c" d="M398.8,271.441a37.569,37.569,0,0,1,4.419-9.623,38.672,38.672,0,0,1,6.433-6.986c4.9-4.38,10.595-7.062,16.673-9.38,1.6-.61,3.17-1.3,4.753-1.946a2.065,2.065,0,0,0,1.4-2.46,2.013,2.013,0,0,0-2.46-1.4c-4.773,1.954-9.723,3.586-14.264,6.049a47.927,47.927,0,0,0-15.223,13.033,38.592,38.592,0,0,0-5.585,11.646c-.779,2.46,3.082,3.513,3.857,1.064Z"/><path class="c" d="M503.664,271.364A42.556,42.556,0,0,0,491,251.262c-5.415-4.664-11.843-7.518-18.524-9.874l-6.233-2.2c-2.433-.857-3.479,3.006-1.064,3.858,4.243,1.5,8.592,2.848,12.7,4.7A39.992,39.992,0,0,1,494,260.34a40.419,40.419,0,0,1,5.807,12.087c.749,2.456,4.611,1.409,3.857-1.063Z"/><path class="c" d="M444.154,222.11a11.994,11.994,0,0,0,5.783,1.35,9.53,9.53,0,0,0,5.95-1.8,2,2,0,0,0,0-2.828,2.062,2.062,0,0,0-2.828,0c.691-.539-.02-.015-.239.1-.169.089-.62.23.012.015-.157.053-.31.119-.468.17-.424.136-.9.153-1.312.3.212-.075.327-.039.028-.009-.129.012-.258.023-.387.031-.31.02-.621.028-.932.026q-.418,0-.835-.03c-.127-.008-.255-.018-.382-.031-.073-.007-.145-.015-.218-.024q-.236-.029.186.024a4.762,4.762,0,0,1-1.226-.272c-.171-.051-.339-.113-.508-.171-.447-.153.423.2.017.011q-.315-.149-.622-.31a2,2,0,1,0-2.019,3.453Z"/><path class="c" d="M448.66,208.824a26.112,26.112,0,0,1,.607,2.776l-.072-.531a1.692,1.692,0,0,1,.01.383l.072-.532a.929.929,0,0,1-.042.173l.2-.478a.7.7,0,0,1-.06.111l.312-.405a.541.541,0,0,1-.09.089l.4-.312a1.773,1.773,0,0,1-.22.116l.478-.2a1.554,1.554,0,0,1-.37.108l.531-.071a1.447,1.447,0,0,1-.348,0l.532.072c-.131-.018-.26-.05-.391-.068a1.526,1.526,0,0,0-.8-.036,1.477,1.477,0,0,0-.743.238,2,2,0,0,0-.718,2.736l.313.405a2,2,0,0,0,.883.514c.349.047.689.135,1.045.15a3.435,3.435,0,0,0,1.6-.391,2.442,2.442,0,0,0,1.317-1.595,3.754,3.754,0,0,0-.013-1.654c-.151-.9-.358-1.781-.588-2.658a2,2,0,0,0-2.46-1.4,2.026,2.026,0,0,0-1.2.919,2.1,2.1,0,0,0-.2,1.541Z"/><path class="c" d="M434.478,200.809c-.464,1.506-.162,4.972,2.693,5.267,3.772-.023,3.973-4.213,2.7-6.183C438.834,198.28,435.777,197.609,434.478,200.809Z"/><path class="c" d="M464.8,200.809c.464,1.506.162,4.972-2.692,5.267-3.773-.023-3.974-4.213-2.7-6.183C460.448,198.28,463.505,197.609,464.8,200.809Z"/><path class="c" d="M422.581,196.554a6.774,6.774,0,0,0-7.382-1.1,6.438,6.438,0,0,0-3.366,4.331,16.112,16.112,0,0,0,2.336,12.715c1.654,2.461,4.267,4.679,7.432,4.269a2.066,2.066,0,0,0,2-2,2.011,2.011,0,0,0-2-2c-2.2.285-3.632-1.536-4.586-3.3a12.976,12.976,0,0,1-1.565-4.863,8.346,8.346,0,0,1,.833-5.084c-.324.519.513-.439.21-.218a1.869,1.869,0,0,1,.929-.424,2.544,2.544,0,0,1,2.33.5c1.916,1.709,4.754-1.111,2.829-2.829Z"/><path class="c" d="M478.577,199.383a2.517,2.517,0,0,1,2.2-.524,1.965,1.965,0,0,1,1.056.451c-.3-.218.525.723.21.218a8.33,8.33,0,0,1,.833,5.084,13.018,13.018,0,0,1-1.565,4.863c-.953,1.759-2.386,3.58-4.586,3.3a2.009,2.009,0,0,0-2,2,2.052,2.052,0,0,0,2,2c5.149.668,8.314-4.889,9.6-9.052,1.155-3.738,1.1-9.525-2.555-11.916a6.737,6.737,0,0,0-8.025.752c-1.925,1.718.912,4.538,2.829,2.829Z"/><path class="c" d="M474.971,212.122a28.24,28.24,0,0,1-1.275,4.251c-.193.507-.331.782-.569,1.373-.2.5.143-.289-.029.071-.062.129-.119.259-.181.387a36.018,36.018,0,0,1-3.114,5.184c-2.7,3.83-6.4,8.014-11.154,9.131-2.5.589-1.445,4.447,1.063,3.857,5.638-1.325,9.975-6.031,13.242-10.545a37.057,37.057,0,0,0,3.384-5.539c.2-.42.384-.848.565-1.278.215-.514-.163.352.074-.17.153-.338.292-.684.429-1.029a28.32,28.32,0,0,0,1.422-4.629c.524-2.512-3.331-3.586-3.857-1.064Z"/><path class="c" d="M419.421,213.086c2.419,10.61,10.406,22.177,21.872,23.907a2.066,2.066,0,0,0,2.46-1.4,2.016,2.016,0,0,0-1.4-2.461c-10.173-1.534-16.938-11.725-19.078-21.112-.572-2.509-4.43-1.447-3.857,1.063Z"/><path class="c" d="M483.615,197.054c2.314-9.5,1.482-19.655-3.511-28.208A36.141,36.141,0,0,0,467.2,156.129a36.876,36.876,0,0,0-28.075-3.479,35.851,35.851,0,0,0-19.343,13.731c-6.377,8.848-7.856,20.232-5.2,30.673.634,2.494,4.492,1.437,3.858-1.063a33.143,33.143,0,0,1,3.276-25.275,31.8,31.8,0,0,1,15.514-13.237,32.96,32.96,0,0,1,25.662.878A39.967,39.967,0,0,1,469.8,162.9c.362.277.734.545,1.086.833.047.039.3.273.123.109-.248-.231.184.2.235.249.176.175.36.343.536.517a29.514,29.514,0,0,1,3.337,3.881c5.7,8.026,6.941,18.073,4.644,27.507-.609,2.5,3.247,3.567,3.857,1.063Z"/><path class="c" d="M424.012,198.8a166.172,166.172,0,0,0,27.043-19.728h-2.828A166.18,166.18,0,0,0,475.271,198.8c2.23,1.3,4.246-2.161,2.019-3.454a160.915,160.915,0,0,1-26.235-19.1,2.055,2.055,0,0,0-2.828,0,160.966,160.966,0,0,1-26.234,19.1c-2.226,1.292-.214,4.75,2.019,3.454Z"/><path class="c" d="M479.1,214.272a16.832,16.832,0,0,1-2.675,11.853,11.867,11.867,0,0,1-9.77,4.647c-2.572.021-2.578,4.021,0,4a15.985,15.985,0,0,0,12.8-6.053,20.078,20.078,0,0,0,3.647-14.447,2.066,2.066,0,0,0-2-2,2.011,2.011,0,0,0-2,2Z"/><path class="c" d="M414.826,214.272a20.082,20.082,0,0,0,3.647,14.447,15.985,15.985,0,0,0,12.8,6.053c2.574.021,2.577-3.979,0-4a11.858,11.858,0,0,1-9.77-4.647,16.866,16.866,0,0,1-2.675-11.853,2.01,2.01,0,0,0-2-2,2.051,2.051,0,0,0-2,2Z"/><path class="c" d="M466.341,238.778A130.8,130.8,0,0,1,440.3,264.042a2.057,2.057,0,0,0-.717,2.736,2.014,2.014,0,0,0,2.736.717,134.2,134.2,0,0,0,26.852-25.888,2.066,2.066,0,0,0,0-2.829,2.013,2.013,0,0,0-2.828,0Z"/><path class="c" d="M426.84,242.881a79.262,79.262,0,0,0,21.677,16.057c2.294,1.153,4.322-2.3,2.019-3.454a76.013,76.013,0,0,1-20.868-15.431c-1.781-1.866-4.607.966-2.828,2.828Z"/><path class="c" d="M449.641,189.883c-1.751,0-2.962,1.1-2.962,2.388,0,1.491,1.146,2.434,2.962,2.434,1.859,0,2.962-.943,2.962-2.434C452.6,190.975,451.386,189.883,449.641,189.883Z"/><path class="c" d="M447.593,173.938c0,1.262.044,2.523.045,3.784a2.062,2.062,0,0,0,.586,1.414,2,2,0,0,0,2.828,0,2.078,2.078,0,0,0,.586-1.414c0-1.261-.044-2.522-.045-3.784a2.066,2.066,0,0,0-.586-1.414,2,2,0,0,0-2.829,0,2.075,2.075,0,0,0-.585,1.414Z"/><path class="a" d="M1.985,273.979a44.542,44.542,0,0,1,6.773-14.942c5.881-7.755,12.831-12.1,23.753-15.779,2.73,4.429,12.412,9.157,22.394,9.243,12.529.108,20.791-6.229,23.124-9.131,10.73,3.653,17.6,7.992,23.417,15.667a44.542,44.542,0,0,1,6.773,14.942Z"/><path class="d" d="M83.7,214.807a4.079,4.079,0,0,1-1.029-.037l-.357-.061a28.311,28.311,0,0,1-1.28,3.474,38.079,38.079,0,0,1-6.527,9.945,6.82,6.82,0,0,0,9.318-.958,4.413,4.413,0,0,0,.716-4.954,4.17,4.17,0,0,0,3.293-3.625,7.023,7.023,0,0,0-1.181-5.136A5,5,0,0,1,83.7,214.807Z"/><path class="a" d="M83.1,197.968a4.379,4.379,0,0,1,3.164-1.158,4.061,4.061,0,0,1,3.648,2.027c1.24,2.15,1.188,6.112.356,8.563a13.233,13.233,0,0,1-3.882,6.3,4.822,4.822,0,0,1-3.72,1.074l-.355-.06a28.63,28.63,0,0,1-1.282,3.473c-1.012,2.748-6.929,12.868-14.2,15.736.072.59.162,1.184.266,1.778.288,1.647.2,3.119,2.487,3.946.152.054,6.646,3.144,6.877,3.239l1.515.624-.755.761C74.111,247.4,66.261,252.6,54.905,252.5c-9.5-.082-18.728-4.368-21.95-8.6l-.241-.317,1.031-.351c.441-.151,7.682-3.538,7.834-3.592,2.289-.827,2.2-2.3,2.488-3.946.089-.509.168-1,.232-1.475-3.767-1.325-7.046-3.9-10.14-7.6A33.277,33.277,0,0,1,27.843,214.7a4.727,4.727,0,0,1-4.025-1.006,13.233,13.233,0,0,1-3.882-6.3c-.832-2.451-.884-6.413.355-8.563a4.065,4.065,0,0,1,3.649-2.027,4.379,4.379,0,0,1,3.164,1.158s-3.722-23.141,28.944-23.141C86.715,174.827,83.1,197.968,83.1,197.968Z"/><path class="d" d="M20.917,176.657a12.527,12.527,0,0,0,.09,2.754,9.175,9.175,0,0,0-1.584,3.75c-.555,2.833.181,4.111.625,5.958a6.15,6.15,0,0,0-.75,4.25,5.715,5.715,0,0,0,2.75,3.417l.556.235a5.2,5.2,0,0,1,1.336-.211,4.508,4.508,0,0,1,2.573.691c.12-.5.2-.84.2-.84a37.243,37.243,0,0,1,3.229-7.812c1.854-.522,4.627-3.968,5.261-6.17,3.853.612,7.234-2.323,9.941-5.027A9.3,9.3,0,0,0,55.8,176.494c2.137,3.407,6.334,3.125,9.542,2.208,1.125,1.834,5.293,4.25,7.859,3.177-.349,2.731,2.529,5.374,5.353,4.917,2.327,3.228,4.739,11.214,4.889,10.881a4.454,4.454,0,0,1,2.823-.867,5.4,5.4,0,0,1,1.233.179l.885-.634c1.083-.778,2.521-4.061,2.416-6.278a8.631,8.631,0,0,0-1.694-5.139,8.875,8.875,0,0,0,.028-5.944c-.77-2.367-1.542-4.083-2.75-4.75a9.488,9.488,0,0,0-1.292-6.792c-1.708-2.514-3.486-3.791-5.417-4-.625-2.833-5.083-6.375-7.973-5.761a8.8,8.8,0,0,0-4.9-4.28c-2.421-1-5.666-.917-7.649.479a17.3,17.3,0,0,0-7.1-1.285,10.98,10.98,0,0,0-6.791,3.014c-2.05-.637-5.228-.744-7.07.4-2.944,1.833-3.333,3-3.861,4.25a9.978,9.978,0,0,0-6.528,3.222c-2.722,3.222-2.916,5.458-2.708,7.833a6.063,6.063,0,0,0-3.708,3.542A6.963,6.963,0,0,0,20.917,176.657Z"/><path class="c" d="M34.277,245.163c1.792-.64,3.515-1.577,5.239-2.376.858-.4,1.715-.8,2.574-1.193.111-.051.223-.1.333-.152.421-.2-.565.225-.235.1a5.607,5.607,0,0,0,2.494-1.629c1.254-1.578,1.363-3.76,1.613-5.689l-.586,1.414.01-.01a2,2,0,1,0-2.828-2.828,2.285,2.285,0,0,0-.6,1.424c.061-.426-.047.286-.062.38-.063.385-.133.768-.191,1.153-.043.285-.084.57-.143.851-.027.126-.057.252-.093.376-.02.07-.046.139-.065.208-.1.353.167-.3.056-.127-.056.087-.33.444-.1.221.251-.246-.1.085-.152.146-.252.282.112-.1.112-.071a1.3,1.3,0,0,1-.228.152c-.084.051-.171.095-.257.143-.323.185.2-.065-.045.028-.308.12-.61.253-.91.39-1.8.823-3.583,1.663-5.377,2.488-.459.211-.919.423-1.38.63l-.438.2c-.4.18.527-.2.193-.083a2,2,0,1,0,1.064,3.858Z"/><path class="c" d="M77.464,241.157c-1.419-.629-2.81-1.329-4.212-1.993-.749-.354-1.5-.71-2.248-1.06-.292-.136-.582-.269-.882-.387-.38-.149.242.141-.084-.036-.155-.085-.3-.174-.455-.265-.219-.131.068-.08.123.1-.009-.03-.15-.139-.162-.152a1.173,1.173,0,0,0-.144-.158c.1.055.257.406.1.115-.023-.044-.052-.085-.076-.129-.109-.2-.067-.34.035.119-.032-.143-.1-.284-.136-.426a8.581,8.581,0,0,1-.176-.912q-.083-.539-.171-1.075c-.043-.258-.1-.523-.123-.783.019.219.078.7-.042-.33.007.066.021.483.021.132a2,2,0,0,0-4,0,6.214,6.214,0,0,0,.1.8c-.086-.652.03.23.04.3.015.108.033.215.049.323.067.442.143.883.211,1.325a8.3,8.3,0,0,0,.368,1.71,5.041,5.041,0,0,0,1.766,2.357,4.745,4.745,0,0,0,.913.528c.247.111.515.227.775.319-.789-.28-.561-.244-.386-.161,1.618.765,3.238,1.525,4.856,2.292.638.3,1.271.619,1.917.905a2.051,2.051,0,0,0,2.736-.718,2.022,2.022,0,0,0-.718-2.736Z"/><path class="c" d="M31.193,241.6c-7.39,2.572-14.463,6.035-20.045,11.634A42.079,42.079,0,0,0,.056,273.448c-.564,2.507,3.291,3.577,3.857,1.063a38.2,38.2,0,0,1,10.063-18.45c5.087-5.1,11.543-8.261,18.28-10.606,2.416-.841,1.377-4.706-1.063-3.857Z"/><path class="c" d="M77.948,245.455C84.12,247.6,90.141,250.42,95,254.88a38.767,38.767,0,0,1,10.654,17.244c.769,2.448,4.632,1.4,3.857-1.063a42.853,42.853,0,0,0-11.683-19.009c-5.384-4.944-11.969-8.072-18.815-10.454-2.436-.848-3.483,3.015-1.063,3.857Z"/><path class="c" d="M75.805,242.853c-8.476,8.452-22.921,9.494-33.641,5a19.088,19.088,0,0,1-7.794-5.362,2.012,2.012,0,0,0-2.829,0,2.052,2.052,0,0,0,0,2.829,20.585,20.585,0,0,0,7.4,5.446,38.336,38.336,0,0,0,11.389,3.385,36.31,36.31,0,0,0,21.7-3.73,27.4,27.4,0,0,0,6.6-4.738c1.825-1.82-1-4.649-2.829-2.828Z"/><path class="c" d="M50.091,222.11a12,12,0,0,0,5.784,1.35,9.525,9.525,0,0,0,5.949-1.8,2,2,0,0,0,0-2.828,2.062,2.062,0,0,0-2.828,0c.692-.539-.02-.015-.238.1-.169.089-.62.23.012.015-.158.053-.31.119-.469.17-.424.136-.9.153-1.311.3.211-.075.327-.039.027-.009-.129.012-.257.023-.387.031-.31.02-.621.028-.932.026-.278,0-.557-.011-.834-.03-.128-.008-.255-.018-.383-.031-.072-.007-.145-.015-.217-.024-.157-.019-.1-.011.185.024a4.756,4.756,0,0,1-1.225-.272c-.172-.051-.339-.113-.508-.171-.448-.153.422.2.017.011q-.315-.149-.623-.31a2,2,0,0,0-2.019,3.453Z"/><path class="c" d="M54.6,208.824A25.627,25.627,0,0,1,55.2,211.6l-.072-.531a1.636,1.636,0,0,1,.011.383l.071-.532a.929.929,0,0,1-.042.173l.2-.478a.8.8,0,0,1-.061.111l.313-.405a.589.589,0,0,1-.091.089l.405-.312a1.773,1.773,0,0,1-.22.116l.478-.2a1.548,1.548,0,0,1-.371.108l.532-.071a1.447,1.447,0,0,1-.348,0l.532.072c-.132-.018-.26-.05-.392-.068a1.522,1.522,0,0,0-.8-.036,1.484,1.484,0,0,0-.744.238,2,2,0,0,0-.717,2.736l.313.405a1.99,1.99,0,0,0,.882.514c.35.047.689.135,1.045.15a3.439,3.439,0,0,0,1.606-.391,2.441,2.441,0,0,0,1.316-1.595,3.754,3.754,0,0,0-.013-1.654c-.151-.9-.358-1.781-.588-2.658a2,2,0,0,0-2.46-1.4,2.021,2.021,0,0,0-1.2.919,2.1,2.1,0,0,0-.2,1.541Z"/><path class="c" d="M40.415,200.809c-.463,1.506-.161,4.972,2.693,5.267,3.773-.023,3.973-4.213,2.7-6.183C44.772,198.28,41.714,197.609,40.415,200.809Z"/><path class="c" d="M70.742,200.809c.464,1.506.162,4.972-2.693,5.267-3.772-.023-3.973-4.213-2.7-6.183C66.385,198.28,69.443,197.609,70.742,200.809Z"/><path class="c" d="M28.518,196.554a6.772,6.772,0,0,0-7.381-1.1,6.437,6.437,0,0,0-3.367,4.331A16.108,16.108,0,0,0,20.107,212.5c1.653,2.461,4.266,4.679,7.431,4.269a2.066,2.066,0,0,0,2-2,2.011,2.011,0,0,0-2-2c-2.2.285-3.632-1.536-4.586-3.3a12.994,12.994,0,0,1-1.565-4.863,8.346,8.346,0,0,1,.834-5.084c-.325.519.512-.439.209-.218a1.873,1.873,0,0,1,.929-.424,2.547,2.547,0,0,1,2.331.5c1.915,1.709,4.754-1.111,2.828-2.829Z"/><path class="c" d="M84.514,199.383a2.517,2.517,0,0,1,2.2-.524,1.971,1.971,0,0,1,1.057.451c-.3-.218.525.723.209.218a8.33,8.33,0,0,1,.834,5.084,13.019,13.019,0,0,1-1.566,4.863c-.953,1.759-2.386,3.58-4.585,3.3a2.009,2.009,0,0,0-2,2,2.051,2.051,0,0,0,2,2c5.148.668,8.313-4.889,9.6-9.052,1.155-3.738,1.1-9.525-2.555-11.916a6.737,6.737,0,0,0-8.025.752c-1.925,1.718.912,4.538,2.828,2.829Z"/><path class="c" d="M80.908,212.122a28.24,28.24,0,0,1-1.275,4.251c-.192.507-.33.782-.568,1.373-.2.5.143-.289-.03.071-.061.129-.119.259-.18.387a36.109,36.109,0,0,1-3.114,5.184c-2.7,3.83-6.4,8.014-11.155,9.131-2.5.589-1.444,4.447,1.064,3.857,5.637-1.325,9.975-6.031,13.241-10.545a36.974,36.974,0,0,0,3.384-5.539c.2-.42.385-.848.565-1.278.215-.514-.163.352.074-.17.154-.338.292-.684.429-1.029a28.323,28.323,0,0,0,1.423-4.629c.523-2.512-3.331-3.586-3.858-1.064Z"/><path class="c" d="M25.358,213.086c2.419,10.61,10.406,22.177,21.872,23.907a2.066,2.066,0,0,0,2.46-1.4,2.016,2.016,0,0,0-1.4-2.461C38.12,231.6,31.356,221.41,29.215,212.023c-.572-2.509-4.429-1.447-3.857,1.063Z"/><path class="c" d="M23.058,195.059a3.337,3.337,0,0,1-1.5-4.52,2.969,2.969,0,0,0,.376-2.1c-.1-.44-.245-.869-.366-1.3a7.384,7.384,0,0,1-.315-2.83,8.087,8.087,0,0,1,1.066-3.3,3.074,3.074,0,0,0,.683-1.593c.009-.574-.128-1.158-.136-1.735-.034-2.371,1.205-3.7,3.228-4.622a1.934,1.934,0,0,0,.991-1.727,8.1,8.1,0,0,1,1.819-6.051,7.522,7.522,0,0,1,3.092-2.4,9.459,9.459,0,0,1,1.252-.392c.252-.064.507-.119.762-.166a1.119,1.119,0,0,1,.311-.046,2.142,2.142,0,0,0,1.929-1.469,7.6,7.6,0,0,1,.588-1.121,7.628,7.628,0,0,1,2.354-1.933,7.431,7.431,0,0,1,5.528-.2,2.017,2.017,0,0,0,1.946-.515,8.758,8.758,0,0,1,5.169-2.414,13.275,13.275,0,0,1,3.978.32c1.074.238,2.515,1.078,3.6.916,1.027-.155,1.838-.916,2.927-1.062a7.511,7.511,0,0,1,3.245.3,7.323,7.323,0,0,1,4.386,3.606,2.054,2.054,0,0,0,2.259.919c1.016-.172,2.424.72,3.222,1.335a6.019,6.019,0,0,1,2.291,3.03,1.947,1.947,0,0,0,1.4,1.4c3.655.5,5.922,4.919,5.311,8.331a2.086,2.086,0,0,0,.919,2.259c1.229.761,1.775,3.13,2.076,4.428a6.676,6.676,0,0,1,.045,2.91c-.275,1.279-.566,1.939.246,3.1a6.835,6.835,0,0,1,1.016,4.6,6.558,6.558,0,0,1-1.788,3.931,2.013,2.013,0,0,0,0,2.828,2.047,2.047,0,0,0,2.829,0c1.78-1.441,2.66-4.289,2.928-6.469a10.4,10.4,0,0,0-2.206-7.776l.514,1.946a11.526,11.526,0,0,0-.116-7.444c-.7-2.086-1.572-4.3-3.525-5.509l.919,2.259a11.467,11.467,0,0,0-1.621-8.517c-1.543-2.232-3.676-4.353-6.484-4.735l1.4,1.4c-1.076-4.187-6.108-7.89-10.433-7.159l2.258.919c-2.7-5.145-10.213-7.844-15.288-4.518l1.542-.2c-5.272-2.194-11.6-1.859-15.839,2.243l1.946-.515c-2.75-.8-6.068-.864-8.61.6A10.78,10.78,0,0,0,32.4,159.74l1.929-1.468A12.281,12.281,0,0,0,23.09,171.327l.991-1.727c-4.058,1.848-5.486,5.525-5.074,9.811L19.592,178a11.629,11.629,0,0,0-2.327,6.258,15.914,15.914,0,0,0,.855,5.4l.2-1.541c-1.932,3.608-1.249,8.452,2.718,10.4,2.3,1.131,4.331-2.317,2.019-3.454Z"/><path class="c" d="M28.644,197.192a26.961,26.961,0,0,1,3.027-7.334l-1.2.919c3.114-1.036,5.7-4.539,6.658-7.566l-1.929,1.468c4.547.587,8.346-2.625,11.355-5.612l-2.423.312a11.427,11.427,0,0,0,13.075-1.471l-3.141-.405c2.7,4.049,7.467,4.328,11.8,3.128l-2.259-.919c1.961,2.956,6.589,5.382,10.117,4.095L71.2,181.879a6.764,6.764,0,0,0,7.353,6.917l-1.727-.99c1.91,2.734,2.97,6.038,4.128,9.136.894,2.39,4.761,1.355,3.857-1.063-1.274-3.407-2.432-7.086-4.531-10.092a2,2,0,0,0-1.727-.991,2.819,2.819,0,0,1-3.353-2.917,2.011,2.011,0,0,0-2.532-1.929c-1.827.666-4.589-.732-5.6-2.257a2.061,2.061,0,0,0-2.259-.919c-2.419.67-5.671,1.128-7.283-1.289a2.032,2.032,0,0,0-3.141-.405,7.3,7.3,0,0,1-8.228.845,2.056,2.056,0,0,0-2.424.313c-2.311,2.294-5.016,4.894-8.527,4.441a2.01,2.01,0,0,0-1.928,1.469,9.457,9.457,0,0,1-2.23,3.475c-.952,1-2.264,1.32-2.937,2.394a29.5,29.5,0,0,0-3.324,8.112c-.635,2.5,3.222,3.56,3.858,1.063Z"/><path class="c" d="M84.98,214.547a5.259,5.259,0,0,1,.869,2.078,4.462,4.462,0,0,1,.06.842c0,.209-.007.418-.023.626l-.025.25c.009-.11,0-.1-.019.028a2.618,2.618,0,0,1-.587,1.266c-.033.036-.376.37-.255.268.1-.081-.3.19-.305.195-.083.051-.28.115-.084.048a3.6,3.6,0,0,1-.606.139,2.017,2.017,0,0,0-1.2,2.938c.11.222.139.26.085.114a3.167,3.167,0,0,1,.119.415c-.055-.264.009.348,0,.442a1.756,1.756,0,0,1-.087.454,2.016,2.016,0,0,1-.215.573,3.779,3.779,0,0,1-1.673,1.688,5.376,5.376,0,0,1-2.2.63c-.282.01-.561,0-.842-.018-.426-.027.082.053-.3-.049-.271-.072-.54-.138-.808-.224q-.341-.129-.105-.037c-.127-.06-.252-.124-.375-.193a2.042,2.042,0,0,0-2.736.718,2.021,2.021,0,0,0,.717,2.736,9,9,0,0,0,9.031-.327c2.885-1.876,4.688-5.722,2.843-8.941l-1.2,2.938a6.07,6.07,0,0,0,4.581-4.5,8.973,8.973,0,0,0-1.215-7.111,2.048,2.048,0,0,0-2.737-.718,2.02,2.02,0,0,0-.717,2.736Z"/><path class="a" d="M345.808,47.968a4.379,4.379,0,0,1,3.164-1.158,4.065,4.065,0,0,1,3.649,2.027c1.24,2.15,1.187,6.112.355,8.563a13.225,13.225,0,0,1-3.882,6.3,4.821,4.821,0,0,1-3.72,1.074l-.353-.06a28.918,28.918,0,0,1-1.284,3.473c-1.012,2.747-6.925,12.862-14.194,15.732.07.6.16,1.189.26,1.779.29,1.65.2,3.12,2.49,3.95.15.05,6.64,3.14,6.87,3.24l1.493.649-.728.734c-3.108,3.135-10.959,8.332-22.315,8.234-9.5-.082-18.728-4.368-21.949-8.6l-.242-.317,1.031-.352c.44-.15,7.68-3.54,7.83-3.59,2.29-.83,2.2-2.3,2.49-3.95.09-.509.17-.988.238-1.471-3.769-1.325-7.049-3.9-10.144-7.6A33.288,33.288,0,0,1,290.551,64.7a4.721,4.721,0,0,1-4.024-1,13.217,13.217,0,0,1-3.882-6.3c-.832-2.451-.885-6.413.355-8.563a4.061,4.061,0,0,1,3.648-2.027,4.379,4.379,0,0,1,3.164,1.158s-.619-23.974,28.734-23.974C348.693,23.994,345.808,47.968,345.808,47.968Z"/><path class="d" d="M350.661,29.155a32.118,32.118,0,0,0-9.9-16.982l-4.356-3.344A33.006,33.006,0,0,0,317.73,3.342c-7.9,0-14.12,1.735-19.7,5.569a17.606,17.606,0,0,0-5.343,5.371c-5.213,3.99-8.36,11.922-8.772,21.677a36.926,36.926,0,0,0,1.371,11.067,5.319,5.319,0,0,1,1.365-.216,4.2,4.2,0,0,1,3.876,2.092l2.5-7.946a7.456,7.456,0,0,1,2.8-4.434c1.915-1.283,4.837-1.629,7.56-1.658a55.352,55.352,0,0,0,8.142-.239c3.653-.59,6.593-2.32,9.806-3.614s7.391-2.157,10.647-.911a9.639,9.639,0,0,1,4.289,3.6,48.759,48.759,0,0,1,7.7,14.844l.282.916,1.548-1.488a4.379,4.379,0,0,1,3.164-1.158,5.482,5.482,0,0,1,1.244.181,35.688,35.688,0,0,0,1.334-11.032A37.977,37.977,0,0,0,350.661,29.155Z"/><path class="a" d="M264.693,123.979c.909-4.164,3.449-11.026,6.773-14.942,6.321-7.446,12.807-12.118,23.749-15.776,2.73,4.424,12.414,9.154,22.4,9.24,12.529.108,20.79-6.228,23.124-9.131,10.73,3.652,17.6,7.992,23.418,15.667a44.558,44.558,0,0,1,6.772,14.942Z"/><path class="c" d="M296.985,95.163c1.775-.634,3.483-1.562,5.191-2.354q1.3-.6,2.6-1.2l.343-.157c.36-.167-.221.076-.3.124.435-.262.962-.365,1.4-.644A4.862,4.862,0,0,0,307.321,90c1.232-1.464,1.355-3.435,1.621-5.256a2.057,2.057,0,0,0-1.4-2.461,2.023,2.023,0,0,0-2.46,1.4c-.115.79-.254,1.576-.378,2.365a8.354,8.354,0,0,1-.163.831,2.384,2.384,0,0,0-.132.416s.2-.39.093-.229a2.422,2.422,0,0,0-.131.24c-.091.184-.155.025.118-.131a1.248,1.248,0,0,0-.155.174.978.978,0,0,0-.131.126c-.123.195.323-.187.1-.074-.146.074-.286.175-.429.256-.351.2.272-.1-.137.063-.309.123-.611.26-.912.4-1.793.824-3.58,1.662-5.372,2.486q-.645.3-1.292.589l-.459.205c-.372.168.556-.214.215-.092a2,2,0,0,0,1.063,3.858Z"/><path class="c" d="M327.543,83.914c.119.992.286,1.974.434,2.961a7.381,7.381,0,0,0,.474,1.827,4.857,4.857,0,0,0,1.772,2.133,6.442,6.442,0,0,0,1.318.652c.7.278-.53-.248-.135-.062q2.439,1.146,4.871,2.3c.625.3,1.245.606,1.877.886a2.051,2.051,0,0,0,2.736-.718,2.023,2.023,0,0,0-.717-2.736c-1.39-.616-2.752-1.3-4.126-1.952-.763-.361-1.525-.723-2.289-1.08-.3-.141-.607-.282-.919-.4-.049-.019-.3-.128-.063-.02s-.266-.147-.324-.183-.138-.1-.21-.137c-.177-.1.169.115.172.132a1.447,1.447,0,0,0-.162-.152c-.2-.2-.08-.244.043.084a2.464,2.464,0,0,0-.206-.344c-.153-.255.076.178.081.207a2.466,2.466,0,0,0-.1-.282,6.619,6.619,0,0,1-.183-.847c-.053-.32-.1-.642-.15-.962-.042-.254-.085-.508-.124-.763-.018-.119-.035-.237-.052-.356.053.362-.006-.051-.022-.184a2.051,2.051,0,0,0-2-2c-.976.044-2.133.887-2,2Z"/><path class="c" d="M293.9,91.6a53.485,53.485,0,0,0-18.686,10.636,41.221,41.221,0,0,0-7.023,7.9,42.686,42.686,0,0,0-4.73,10.659c-.754,2.467,3.105,3.522,3.857,1.063a38.68,38.68,0,0,1,4.327-9.7,37.418,37.418,0,0,1,6.4-7.09,48.581,48.581,0,0,1,16.921-9.607c2.416-.842,1.377-4.708-1.063-3.857Z"/><path class="c" d="M340.656,95.455c6.117,2.129,12.093,4.913,16.925,9.31a38.708,38.708,0,0,1,10.671,17.014c.791,2.438,4.654,1.4,3.857-1.064a42.814,42.814,0,0,0-11.7-18.778c-5.363-4.88-11.9-7.975-18.691-10.339-2.436-.848-3.483,3.015-1.063,3.857Z"/><path class="c" d="M338.514,92.853c-8.476,8.452-22.921,9.494-33.642,5a19.088,19.088,0,0,1-7.794-5.362,2.01,2.01,0,0,0-2.828,0,2.051,2.051,0,0,0,0,2.829,20.577,20.577,0,0,0,7.4,5.446,38.318,38.318,0,0,0,11.389,3.385,36.306,36.306,0,0,0,21.7-3.73,27.4,27.4,0,0,0,6.6-4.738c1.825-1.82-1-4.649-2.828-2.828Z"/><path class="c" d="M312.8,72.11a11.992,11.992,0,0,0,5.783,1.35,9.53,9.53,0,0,0,5.95-1.8,2,2,0,0,0,0-2.828,2.064,2.064,0,0,0-2.829,0c.692-.539-.02-.015-.238.1-.169.089-.62.23.012.015-.157.053-.31.119-.469.17-.423.136-.9.153-1.311.3.211-.075.327-.039.027-.009-.128.012-.257.023-.386.031-.31.02-.621.028-.932.026q-.418,0-.835-.03c-.128-.008-.255-.018-.382-.031-.073-.007-.146-.015-.218-.024q-.236-.029.185.024a4.765,4.765,0,0,1-1.225-.272c-.171-.051-.339-.113-.508-.171-.448-.153.423.2.017.011-.21-.1-.417-.2-.623-.31A2,2,0,1,0,312.8,72.11Z"/><path class="c" d="M317.305,58.824a25.627,25.627,0,0,1,.607,2.776l-.071-.531a1.692,1.692,0,0,1,.01.383l.072-.532a.929.929,0,0,1-.042.173l.2-.478a.707.707,0,0,1-.061.111l.313-.405a.547.547,0,0,1-.091.089l.405-.312a1.773,1.773,0,0,1-.22.116l.478-.2a1.548,1.548,0,0,1-.371.108l.532-.071a1.447,1.447,0,0,1-.348,0l.532.072c-.131-.018-.26-.05-.391-.068a1.526,1.526,0,0,0-.8-.036,1.477,1.477,0,0,0-.743.238,2,2,0,0,0-.718,2.736l.313.405a2,2,0,0,0,.882.514c.35.047.689.135,1.046.15a3.435,3.435,0,0,0,1.605-.391,2.442,2.442,0,0,0,1.317-1.595,3.754,3.754,0,0,0-.014-1.654c-.151-.895-.357-1.781-.587-2.658a2,2,0,0,0-2.461-1.4,2.024,2.024,0,0,0-1.195.919,2.109,2.109,0,0,0-.2,1.541Z"/><path class="c" d="M303.124,50.809c-.464,1.506-.162,4.972,2.692,5.267,3.773-.023,3.974-4.213,2.7-6.183C307.48,48.28,304.423,47.609,303.124,50.809Z"/><path class="c" d="M333.45,50.809c.464,1.506.162,4.972-2.692,5.267-3.773-.023-3.974-4.213-2.7-6.183C329.094,48.28,332.151,47.609,333.45,50.809Z"/><path class="c" d="M291.227,46.554a6.774,6.774,0,0,0-7.382-1.1,6.442,6.442,0,0,0-3.367,4.331A16.108,16.108,0,0,0,282.815,62.5c1.654,2.461,4.267,4.679,7.432,4.269a2.066,2.066,0,0,0,2-2,2.012,2.012,0,0,0-2-2c-2.2.285-3.633-1.536-4.586-3.3a12.976,12.976,0,0,1-1.565-4.863,8.346,8.346,0,0,1,.833-5.084c-.324.519.512-.439.21-.218a1.87,1.87,0,0,1,.928-.424,2.546,2.546,0,0,1,2.331.5c1.916,1.709,4.754-1.111,2.829-2.829Z"/><path class="c" d="M347.222,49.383a2.517,2.517,0,0,1,2.2-.524,1.968,1.968,0,0,1,1.057.451c-.3-.218.525.723.209.218a8.33,8.33,0,0,1,.834,5.084,13.018,13.018,0,0,1-1.565,4.863c-.954,1.759-2.386,3.58-4.586,3.3a2.009,2.009,0,0,0-2,2,2.052,2.052,0,0,0,2,2c5.149.668,8.313-4.889,9.6-9.052,1.155-3.738,1.1-9.525-2.555-11.916a6.737,6.737,0,0,0-8.025.752c-1.925,1.718.912,4.538,2.828,2.829Z"/><path class="c" d="M343.617,62.122a28.24,28.24,0,0,1-1.275,4.251c-.193.507-.331.782-.569,1.373-.2.5.143-.289-.029.071-.062.129-.119.259-.181.387a36.018,36.018,0,0,1-3.114,5.184c-2.7,3.83-6.4,8.014-11.154,9.131-2.5.589-1.445,4.447,1.063,3.857,5.638-1.325,9.975-6.031,13.241-10.545a36.98,36.98,0,0,0,3.385-5.539c.2-.42.384-.848.564-1.278.215-.514-.163.352.074-.17.154-.338.293-.684.43-1.029a28.32,28.32,0,0,0,1.422-4.629c.524-2.512-3.331-3.586-3.857-1.064Z"/><path class="c" d="M288.066,63.086c2.42,10.61,10.407,22.177,21.872,23.907a2.067,2.067,0,0,0,2.461-1.4,2.017,2.017,0,0,0-1.4-2.461C300.829,81.6,294.064,71.41,291.923,62.023c-.572-2.509-4.429-1.447-3.857,1.063Z"/><path class="c" d="M352.261,47.054c2.288-9.4,1.5-19.407-3.341-27.912A35.941,35.941,0,0,0,336.478,6.509c-8.22-5.029-18.188-6.218-27.56-4.335a32.42,32.42,0,0,0-12.293,5.283,20.9,20.9,0,0,0-4.9,4.687c-1.161,1.578-2.763,2.782-3.954,4.377a30.376,30.376,0,0,0-5.18,13.049,41.643,41.643,0,0,0,.626,17.484c.633,2.494,4.492,1.437,3.857-1.063C285,37.8,285.5,28.161,289.8,20.708a17.353,17.353,0,0,1,2.948-3.847,13.416,13.416,0,0,0,1.916-1.963,15.665,15.665,0,0,1,2.223-2.573A26.185,26.185,0,0,1,307,6.777c8.137-2.454,17.595-1.989,25.2,1.914a42.825,42.825,0,0,1,6.512,4.408c.312.24.643.466.942.723.2.174-.222-.233.129.162.293.331.651.623.962.938a29.415,29.415,0,0,1,3.206,3.83c5.553,7.987,6.725,17.917,4.455,27.239-.608,2.5,3.248,3.567,3.858,1.063Z"/><path class="c" d="M292.506,49.264q1.152-3.658,2.305-7.319c.56-1.775,1.112-3.416,2.953-4.212a15.576,15.576,0,0,1,6.107-.871,55.3,55.3,0,0,0,7.723-.24c4.49-.643,8.243-3.227,12.538-4.464a12.561,12.561,0,0,1,6.2-.469,7.812,7.812,0,0,1,4.487,3.388,47.688,47.688,0,0,1,7.226,14c.768,2.448,4.63,1.4,3.857-1.063a50.684,50.684,0,0,0-7.089-14.2c-1.393-1.959-2.871-3.953-5.054-5.089a12.519,12.519,0,0,0-7.325-1.088c-5.02.62-9.122,3.54-13.944,4.757-5.157,1.3-10.7-.451-15.763,1.479a8.729,8.729,0,0,0-5.255,5.439c-1.086,2.905-1.9,5.94-2.828,8.9-.775,2.461,3.086,3.514,3.858,1.063Z"/><path class="a" d="M238.129,273.979c1.33-4.115,6.19-19.342,7.55-23.529,6,.51,12.67,1.011,18.67,1.521-1.27,7.846-2.67,13.948-3.96,22.008Z"/><path class="a" d="M263.623,273.979h-3.234c.891-5.565,1.834-10.2,2.75-15.112l1.1,1.72c1.78,2.782,6.03,9.2,8.9,13.392Z"/><path class="a" d="M264.754,249.926c3.381-4.452,5.874-10.832,6.293-19.129a8.008,8.008,0,0,0-.584-3.282,6.808,6.808,0,0,0-2.334-2.933,31.1,31.1,0,0,0-8.375-3.8c-3.171-.968-7.921.489-10.149,2.512a5.7,5.7,0,0,0-2.159,3.168,6.3,6.3,0,0,0-3.3,1.991,4.21,4.21,0,0,0-.838,2.4c-.288,7.358,2.12,15.273,3.418,19.694,5.308.443,11.069.882,16.387,1.329A24.047,24.047,0,0,0,264.754,249.926Z"/><path class="c" d="M240.058,274.511c2.532-7.838,5.007-15.694,7.55-23.529l-1.929,1.468c6.222.528,12.449.994,18.67,1.521l-1.928-2.531c-1.2,7.358-2.775,14.647-3.96,22.008a2.061,2.061,0,0,0,1.4,2.46,2.015,2.015,0,0,0,2.46-1.4c1.185-7.36,2.761-14.65,3.96-22.008a2.042,2.042,0,0,0-1.929-2.532c-6.221-.527-12.448-.993-18.67-1.521a2.024,2.024,0,0,0-1.928,1.469c-2.543,7.834-5.018,15.691-7.55,23.529-.793,2.455,3.068,3.507,3.857,1.063Z"/><path class="c" d="M262.512,261.6c2.89,4.513,5.876,8.969,8.9,13.393a2.051,2.051,0,0,0,2.737.717,2.018,2.018,0,0,0,.717-2.736c-3.024-4.424-6.01-8.88-8.9-13.393a2.043,2.043,0,0,0-2.736-.717,2.022,2.022,0,0,0-.718,2.736Z"/><path class="c" d="M248.224,248.553a65.632,65.632,0,0,1-2.876-14.308c-.125-2.084-.571-4.462,1.64-5.5a16.479,16.479,0,0,1,6.092-1.1c2.3-.115,5.159-.22,7.326.728,0,0,.579.388.473.213.144.237-.033.224.013.165-.486.631-2.064.613-2.772.737-1.859.328-4.628.411-6.013,1.852a2.6,2.6,0,0,0-.388,3.066c.67,1.266,1.888,1.56,3.2,1.7a41.177,41.177,0,0,1,4.317.451c.225.048.389.337.254.016-.059-.138-.04-.026-.01-.063-.65.805.09.118-.07.155-1.012.237-2.026.6-3.032.894a10.778,10.778,0,0,0-3.619,1.493,2.063,2.063,0,0,0-.718,2.736,2.014,2.014,0,0,0,2.737.718c2.095-1.584,5.213-1.153,7.255-2.851a3.944,3.944,0,0,0-.237-6.23,7.116,7.116,0,0,0-3.886-1.036c-.726-.041-1.447-.117-2.17-.2-.194-.021-.838-.2-1.016-.109l.145,2.154.361-.11a11.285,11.285,0,0,0,2.138-.454c.5-.095,1-.185,1.494-.274a10.12,10.12,0,0,0,4.076-1.221,4.087,4.087,0,0,0,.573-6.531c-2.087-1.826-5.6-1.991-8.222-2.043-4.77-.095-12.9.313-13.885,6.344-.548,3.373.12,7.166.719,10.492a90.04,90.04,0,0,0,2.244,9.169c.718,2.466,4.579,1.417,3.857-1.064Z"/><path class="c" d="M249.565,226.35c1.646-2.885,6.2-4.452,9.346-3.73a24.337,24.337,0,0,1,5.5,2.116c1.731.886,3.544,1.783,4.274,3.707.767,2.022.275,4.523-.057,6.6a37.456,37.456,0,0,1-1.383,5.761,26.327,26.327,0,0,1-4.915,8.957c-1.668,1.944,1.148,4.786,2.829,2.829,4.807-5.6,7.117-12.729,7.768-20a11.671,11.671,0,0,0-.874-6.4,10.006,10.006,0,0,0-4.269-4.163c-3.16-1.833-7.171-3.75-10.906-3.53-4.074.24-8.66,2.153-10.763,5.839-1.277,2.24,2.177,4.257,3.454,2.019Z"/><path class="a" d="M106.775,273.979c1.33-4.115,6.19-19.342,7.55-23.529,6,.51,12.67,1.011,18.67,1.521-1.27,7.846-2.67,13.948-3.96,22.008Z"/><path class="a" d="M132.269,273.979h-3.234c.891-5.565,1.834-10.2,2.75-15.112l1.1,1.72c1.78,2.782,6.03,9.2,8.9,13.392Z"/><path class="a" d="M133.4,249.926c3.382-4.452,5.875-10.832,6.294-19.129a7.992,7.992,0,0,0-.585-3.282,6.8,6.8,0,0,0-2.333-2.933,31.112,31.112,0,0,0-8.375-3.8c-3.172-.968-7.922.489-10.149,2.512a5.7,5.7,0,0,0-2.16,3.168,6.3,6.3,0,0,0-3.3,1.991,4.218,4.218,0,0,0-.839,2.4c-.288,7.358,2.121,15.273,3.419,19.694,5.308.443,11.069.882,16.387,1.329A23.836,23.836,0,0,0,133.4,249.926Z"/><path class="c" d="M108.7,274.511c2.532-7.838,5.006-15.694,7.55-23.529l-1.929,1.468c6.222.528,12.448.994,18.67,1.521l-1.928-2.531c-1.2,7.358-2.775,14.647-3.96,22.008a2.061,2.061,0,0,0,1.4,2.46,2.016,2.016,0,0,0,2.461-1.4c1.185-7.36,2.761-14.65,3.96-22.008A2.042,2.042,0,0,0,133,249.971c-6.222-.527-12.448-.993-18.67-1.521a2.024,2.024,0,0,0-1.928,1.469c-2.544,7.834-5.019,15.691-7.55,23.529-.794,2.455,3.067,3.507,3.857,1.063Z"/><path class="c" d="M131.158,261.6c2.89,4.513,5.876,8.969,8.9,13.393a2.051,2.051,0,0,0,2.737.717,2.018,2.018,0,0,0,.717-2.736c-3.024-4.424-6.01-8.88-8.9-13.393a2.043,2.043,0,0,0-2.736-.717,2.022,2.022,0,0,0-.718,2.736Z"/><path class="c" d="M116.87,248.553a65.632,65.632,0,0,1-2.876-14.308c-.125-2.084-.571-4.462,1.64-5.5a16.479,16.479,0,0,1,6.092-1.1c2.3-.115,5.159-.22,7.325.728,0,0,.58.388.473.213.144.237-.032.224.014.165-.486.631-2.064.613-2.772.737-1.859.328-4.628.411-6.014,1.852a2.6,2.6,0,0,0-.387,3.066c.67,1.266,1.888,1.56,3.2,1.7a41.177,41.177,0,0,1,4.317.451c.225.048.389.337.254.016-.059-.138-.04-.026-.01-.063-.65.805.09.118-.07.155a20.639,20.639,0,0,0-6.651,2.387c-2.122,1.433-.123,4.9,2.018,3.454,2.168-1.464,5.231-1.167,7.256-2.851a3.944,3.944,0,0,0-.238-6.23,7.113,7.113,0,0,0-3.885-1.036c-.726-.041-1.447-.117-2.17-.2-.194-.021-.838-.2-1.016-.109l.145,2.154.361-.11a11.259,11.259,0,0,0,2.137-.454c.5-.095,1-.185,1.495-.274a10.12,10.12,0,0,0,4.076-1.221,4.087,4.087,0,0,0,.573-6.531c-2.087-1.826-5.6-1.991-8.222-2.043-4.771-.095-12.9.313-13.885,6.344-.548,3.373.12,7.166.719,10.492a90.04,90.04,0,0,0,2.244,9.169c.718,2.466,4.579,1.417,3.857-1.064Z"/><path class="c" d="M118.211,226.35c1.646-2.885,6.2-4.452,9.346-3.73a24.311,24.311,0,0,1,5.495,2.116c1.732.886,3.545,1.783,4.275,3.707.767,2.022.275,4.523-.058,6.6a37.337,37.337,0,0,1-1.382,5.761,26.327,26.327,0,0,1-4.915,8.957c-1.669,1.944,1.148,4.786,2.828,2.829,4.808-5.6,7.118-12.729,7.768-20a11.661,11.661,0,0,0-.873-6.4,10.006,10.006,0,0,0-4.269-4.163c-3.16-1.833-7.171-3.75-10.907-3.53-4.073.24-8.659,2.153-10.762,5.839-1.278,2.24,2.177,4.257,3.454,2.019Z"/><path class="a" d="M369.482,273.979c1.33-4.115,6.19-19.342,7.55-23.529,6,.51,12.67,1.011,18.67,1.521-1.27,7.846-2.67,13.948-3.96,22.008Z"/><path class="a" d="M394.976,273.979h-3.234c.891-5.565,1.834-10.2,2.75-15.112l1.1,1.72c1.78,2.782,6.03,9.2,8.9,13.392Z"/><path class="a" d="M396.107,249.926c3.381-4.452,5.874-10.832,6.294-19.129a8.009,8.009,0,0,0-.585-3.282,6.808,6.808,0,0,0-2.334-2.933,31.1,31.1,0,0,0-8.375-3.8c-3.171-.968-7.921.489-10.149,2.512a5.7,5.7,0,0,0-2.159,3.168,6.308,6.308,0,0,0-3.3,1.991,4.217,4.217,0,0,0-.838,2.4c-.288,7.358,2.12,15.273,3.418,19.694,5.308.443,11.069.882,16.387,1.329A24.047,24.047,0,0,0,396.107,249.926Z"/><path class="c" d="M371.411,274.511c2.532-7.838,5.007-15.694,7.55-23.529l-1.929,1.468c6.222.528,12.449.994,18.67,1.521l-1.928-2.531c-1.2,7.358-2.775,14.647-3.96,22.008a2.061,2.061,0,0,0,1.4,2.46,2.015,2.015,0,0,0,2.46-1.4c1.186-7.36,2.761-14.65,3.96-22.008a2.042,2.042,0,0,0-1.929-2.532c-6.221-.527-12.448-.993-18.67-1.521a2.024,2.024,0,0,0-1.928,1.469c-2.543,7.834-5.018,15.691-7.55,23.529-.793,2.455,3.068,3.507,3.857,1.063Z"/><path class="c" d="M393.865,261.6c2.89,4.513,5.876,8.969,8.9,13.393a2.051,2.051,0,0,0,2.737.717,2.017,2.017,0,0,0,.717-2.736c-3.024-4.424-6.01-8.88-8.9-13.393a2,2,0,0,0-3.454,2.019Z"/><path class="c" d="M379.578,248.553a64.962,64.962,0,0,1-2.889-14.521c-.113-2.082-.494-4.305,1.7-5.312a17.028,17.028,0,0,1,6.264-1.08,17.861,17.861,0,0,1,7.225.8c.066.026.45.288.35.149.38.524,0,.159-.022.177-.718.644-2.155.622-3.058.782-1.883.334-4.856.429-6,2.2a2.632,2.632,0,0,0,.037,2.863c.8,1.265,2.138,1.4,3.5,1.541,1.319.138,2.655.2,3.951.424.726.127.037.231.181-.055-.155.308.029.12-.087.144-1.112.229-2.219.678-3.315.992a12.277,12.277,0,0,0-3.3,1.4c-2.164,1.38-.16,4.843,2.019,3.454,2.079-1.326,4.812-1.187,6.851-2.538a3.988,3.988,0,0,0,.572-6.23,6.236,6.236,0,0,0-3.835-1.334c-.737-.051-1.47-.085-2.206-.163a5.113,5.113,0,0,0-1.241-.135c-.852.163-.762,2.169.151,2.072,1.15-.122,2.336-.517,3.486-.722a11.693,11.693,0,0,0,4.259-1.188,4.113,4.113,0,0,0,.883-6.453c-1.976-2.011-5.8-2.157-8.409-2.209-4.671-.093-12.542.261-13.827,5.987a18.894,18.894,0,0,0-.053,5.5c.139,1.724.377,3.444.677,5.146a89.084,89.084,0,0,0,2.282,9.374c.717,2.466,4.578,1.417,3.857-1.064Z"/><path class="c" d="M380.918,226.35c1.646-2.885,6.2-4.452,9.346-3.73a24.337,24.337,0,0,1,5.5,2.116c1.731.886,3.544,1.783,4.274,3.707.767,2.022.275,4.523-.057,6.6a37.456,37.456,0,0,1-1.383,5.761,26.327,26.327,0,0,1-4.915,8.957c-1.668,1.944,1.149,4.786,2.829,2.829,4.807-5.6,7.118-12.729,7.768-20a11.671,11.671,0,0,0-.874-6.4,10,10,0,0,0-4.269-4.163c-3.16-1.833-7.171-3.75-10.906-3.53-4.074.24-8.66,2.153-10.763,5.839-1.277,2.24,2.177,4.257,3.454,2.019Z"/><path class="e" d="M238.129,123.979c1.33-4.115,6.19-19.342,7.55-23.529,6,.51,12.67,1.011,18.67,1.521-1.27,7.846-2.67,13.948-3.96,22.008Z"/><path class="a" d="M263.623,123.979h-3.234c.891-5.565,1.834-10.2,2.75-15.112l1.1,1.72c1.78,2.782,6.03,9.2,8.9,13.392Z"/><path class="a" d="M264.754,99.926c3.381-4.452,5.874-10.832,6.293-19.129a8.008,8.008,0,0,0-.584-3.282,6.808,6.808,0,0,0-2.334-2.933,31.1,31.1,0,0,0-8.375-3.8c-3.171-.968-7.921.489-10.149,2.512a5.7,5.7,0,0,0-2.159,3.168,6.3,6.3,0,0,0-3.3,1.991,4.21,4.21,0,0,0-.838,2.4c-.288,7.358,2.12,15.273,3.418,19.694,5.308.443,11.069.882,16.387,1.329A24.047,24.047,0,0,0,264.754,99.926Z"/><path class="c" d="M240.058,124.511c2.532-7.838,5.007-15.694,7.55-23.529l-1.929,1.468c6.222.528,12.449.994,18.67,1.521l-1.928-2.531c-1.2,7.358-2.775,14.647-3.96,22.008a2.061,2.061,0,0,0,1.4,2.46,2.015,2.015,0,0,0,2.46-1.4c1.185-7.36,2.761-14.65,3.96-22.008a2.042,2.042,0,0,0-1.929-2.532c-6.221-.527-12.448-.993-18.67-1.521a2.024,2.024,0,0,0-1.928,1.469c-2.543,7.834-5.018,15.691-7.55,23.529-.793,2.455,3.068,3.507,3.857,1.063Z"/><path class="c" d="M262.512,111.6c2.89,4.513,5.876,8.969,8.9,13.393a2.051,2.051,0,0,0,2.737.717,2.018,2.018,0,0,0,.717-2.736c-3.024-4.424-6.01-8.88-8.9-13.393a2.043,2.043,0,0,0-2.736-.717,2.022,2.022,0,0,0-.718,2.736Z"/><path class="c" d="M248.224,98.553a65.632,65.632,0,0,1-2.876-14.308c-.125-2.084-.571-4.462,1.64-5.5a16.479,16.479,0,0,1,6.092-1.1c2.3-.115,5.159-.22,7.326.728,0,0,.579.388.473.213.144.237-.033.224.013.165-.486.631-2.064.613-2.772.737-1.859.328-4.628.411-6.013,1.852a2.6,2.6,0,0,0-.388,3.066c.67,1.266,1.888,1.56,3.2,1.7a41.177,41.177,0,0,1,4.317.451c.225.048.389.337.254.016-.059-.138-.04-.026-.01-.063-.65.8.09.118-.07.155-1.012.237-2.026.6-3.032.894a11.742,11.742,0,0,0-3.619,1.493,2.054,2.054,0,0,0-.718,2.736,2.018,2.018,0,0,0,2.737.718c2.143-1.511,5.221-1.16,7.255-2.851a3.944,3.944,0,0,0-.237-6.23A7.116,7.116,0,0,0,257.91,82.4c-.726-.041-1.447-.117-2.17-.195-.194-.021-.838-.2-1.016-.109l.145,2.154.361-.11a11.285,11.285,0,0,0,2.138-.454c.5-.095,1-.185,1.494-.274a10.12,10.12,0,0,0,4.076-1.221,4.087,4.087,0,0,0,.573-6.531c-2.087-1.826-5.6-1.991-8.222-2.043-4.77-.095-12.9.313-13.885,6.344-.548,3.373.12,7.166.719,10.492a90.04,90.04,0,0,0,2.244,9.169c.718,2.466,4.579,1.417,3.857-1.064Z"/><path class="c" d="M249.565,76.35c1.646-2.885,6.2-4.452,9.346-3.73a24.337,24.337,0,0,1,5.5,2.116c1.731.886,3.544,1.783,4.274,3.707.767,2.022.275,4.523-.057,6.6a37.456,37.456,0,0,1-1.383,5.761,26.327,26.327,0,0,1-4.915,8.957c-1.668,1.944,1.148,4.786,2.829,2.829,4.807-5.6,7.117-12.729,7.768-20a11.671,11.671,0,0,0-.874-6.4,10.006,10.006,0,0,0-4.269-4.163c-3.16-1.833-7.171-3.75-10.906-3.53-4.074.24-8.66,2.153-10.763,5.839-1.277,2.24,2.177,4.257,3.454,2.019Z"/><path class="a" d="M106.775,123.979c1.33-4.115,6.19-19.342,7.55-23.529,6,.51,12.67,1.011,18.67,1.521-1.27,7.846-2.67,13.948-3.96,22.008Z"/><path class="e" d="M132.269,123.979h-3.234c.891-5.565,1.834-10.2,2.75-15.112l1.1,1.72c1.78,2.782,6.03,9.2,8.9,13.392Z"/><path class="a" d="M133.4,99.926c3.382-4.452,5.875-10.832,6.294-19.129a7.992,7.992,0,0,0-.585-3.282,6.8,6.8,0,0,0-2.333-2.933,31.112,31.112,0,0,0-8.375-3.8c-3.172-.968-7.922.489-10.149,2.512a5.7,5.7,0,0,0-2.16,3.168,6.3,6.3,0,0,0-3.3,1.991,4.218,4.218,0,0,0-.839,2.4c-.288,7.358,2.121,15.273,3.419,19.694,5.308.443,11.069.882,16.387,1.329A23.836,23.836,0,0,0,133.4,99.926Z"/><path class="c" d="M108.7,124.511c2.532-7.838,5.006-15.694,7.55-23.529l-1.929,1.468c6.222.528,12.448.994,18.67,1.521l-1.928-2.531c-1.2,7.358-2.775,14.647-3.96,22.008a2.061,2.061,0,0,0,1.4,2.46,2.016,2.016,0,0,0,2.461-1.4c1.185-7.36,2.761-14.65,3.96-22.008A2.042,2.042,0,0,0,133,99.971c-6.222-.527-12.448-.993-18.67-1.521a2.024,2.024,0,0,0-1.928,1.469c-2.544,7.834-5.019,15.691-7.55,23.529-.794,2.455,3.067,3.507,3.857,1.063Z"/><path class="c" d="M131.158,111.6c2.89,4.513,5.876,8.969,8.9,13.393a2.051,2.051,0,0,0,2.737.717,2.018,2.018,0,0,0,.717-2.736c-3.024-4.424-6.01-8.88-8.9-13.393a2.043,2.043,0,0,0-2.736-.717,2.022,2.022,0,0,0-.718,2.736Z"/><path class="c" d="M116.87,98.553a65.632,65.632,0,0,1-2.876-14.308c-.125-2.084-.571-4.462,1.64-5.5a16.479,16.479,0,0,1,6.092-1.1c2.3-.115,5.159-.22,7.325.728,0,0,.58.388.473.213.144.237-.032.224.014.165-.486.631-2.064.613-2.772.737-1.859.328-4.628.411-6.014,1.852a2.6,2.6,0,0,0-.387,3.066c.67,1.266,1.888,1.56,3.2,1.7a41.177,41.177,0,0,1,4.317.451c.225.048.389.337.254.016-.059-.138-.04-.026-.01-.063-.65.8.09.118-.07.155a21.271,21.271,0,0,0-6.651,2.387c-2.145,1.4-.143,4.87,2.018,3.454,2.181-1.43,5.238-1.174,7.256-2.851a3.944,3.944,0,0,0-.238-6.23,7.113,7.113,0,0,0-3.885-1.036c-.726-.041-1.447-.117-2.17-.195-.194-.021-.838-.2-1.016-.109l.145,2.154.361-.11a11.259,11.259,0,0,0,2.137-.454c.5-.095,1-.185,1.495-.274a10.12,10.12,0,0,0,4.076-1.221,4.087,4.087,0,0,0,.573-6.531c-2.087-1.826-5.6-1.991-8.222-2.043-4.771-.095-12.9.313-13.885,6.344-.548,3.373.12,7.166.719,10.492a90.04,90.04,0,0,0,2.244,9.169c.718,2.466,4.579,1.417,3.857-1.064Z"/><path class="c" d="M118.211,76.35c1.646-2.885,6.2-4.452,9.346-3.73a24.311,24.311,0,0,1,5.495,2.116c1.732.886,3.545,1.783,4.275,3.707.767,2.022.275,4.523-.058,6.6a37.337,37.337,0,0,1-1.382,5.761,26.327,26.327,0,0,1-4.915,8.957c-1.669,1.944,1.148,4.786,2.828,2.829,4.808-5.6,7.118-12.729,7.768-20a11.661,11.661,0,0,0-.873-6.4,10.006,10.006,0,0,0-4.269-4.163c-3.16-1.833-7.171-3.75-10.907-3.53-4.073.24-8.659,2.153-10.762,5.839-1.278,2.24,2.177,4.257,3.454,2.019Z"/><path class="a" d="M369.482,123.979c1.33-4.115,6.19-19.342,7.55-23.529,6,.51,12.67,1.011,18.67,1.521-1.27,7.846-2.67,13.948-3.96,22.008Z"/><path class="a" d="M394.976,123.979h-3.234c.891-5.565,1.834-10.2,2.75-15.112l1.1,1.72c1.78,2.782,6.03,9.2,8.9,13.392Z"/><path class="a" d="M396.107,99.926c3.381-4.452,5.874-10.832,6.294-19.129a8.009,8.009,0,0,0-.585-3.282,6.808,6.808,0,0,0-2.334-2.933,31.1,31.1,0,0,0-8.375-3.8c-3.171-.968-7.921.489-10.149,2.512a5.7,5.7,0,0,0-2.159,3.168,6.308,6.308,0,0,0-3.3,1.991,4.217,4.217,0,0,0-.838,2.4c-.288,7.358,2.12,15.273,3.418,19.694,5.308.443,11.069.882,16.387,1.329A24.047,24.047,0,0,0,396.107,99.926Z"/><path class="c" d="M371.411,124.511c2.532-7.838,5.007-15.694,7.55-23.529l-1.929,1.468c6.222.528,12.449.994,18.67,1.521l-1.928-2.531c-1.2,7.358-2.775,14.647-3.96,22.008a2.061,2.061,0,0,0,1.4,2.46,2.015,2.015,0,0,0,2.46-1.4c1.186-7.36,2.761-14.65,3.96-22.008a2.042,2.042,0,0,0-1.929-2.532c-6.221-.527-12.448-.993-18.67-1.521a2.024,2.024,0,0,0-1.928,1.469c-2.543,7.834-5.018,15.691-7.55,23.529-.793,2.455,3.068,3.507,3.857,1.063Z"/><path class="c" d="M393.865,111.6c2.89,4.513,5.876,8.969,8.9,13.393a2.051,2.051,0,0,0,2.737.717,2.017,2.017,0,0,0,.717-2.736c-3.024-4.424-6.01-8.88-8.9-13.393a2,2,0,0,0-3.454,2.019Z"/><path class="c" d="M379.578,98.553A65.575,65.575,0,0,1,376.7,84.245c-.125-2.084-.571-4.462,1.64-5.5a16.48,16.48,0,0,1,6.093-1.1c2.3-.115,5.158-.22,7.325.728,0,0,.579.388.473.213.144.237-.032.224.013.165-.486.631-2.064.613-2.772.737-1.859.328-4.628.411-6.013,1.852a2.6,2.6,0,0,0-.387,3.066c.669,1.266,1.887,1.56,3.2,1.7a41.149,41.149,0,0,1,4.317.451c.225.048.389.337.254.016-.058-.138-.04-.026-.01-.063-.65.8.09.118-.069.155a21.4,21.4,0,0,0-6.652,2.387c-2.149,1.4-.146,4.865,2.019,3.454,2.183-1.423,5.239-1.175,7.256-2.851a3.945,3.945,0,0,0-.238-6.23,7.116,7.116,0,0,0-3.886-1.036c-.726-.041-1.447-.117-2.17-.195-.194-.021-.838-.2-1.016-.109l.146,2.154.36-.11a11.285,11.285,0,0,0,2.138-.454c.5-.095,1-.185,1.494-.274a10.13,10.13,0,0,0,4.077-1.221,4.087,4.087,0,0,0,.572-6.531c-2.087-1.826-5.6-1.991-8.222-2.043-4.77-.095-12.9.313-13.885,6.344-.548,3.373.12,7.166.719,10.492a89.781,89.781,0,0,0,2.245,9.169c.717,2.466,4.578,1.417,3.857-1.064Z"/><path class="c" d="M380.918,76.35c1.646-2.885,6.2-4.452,9.346-3.73a24.337,24.337,0,0,1,5.5,2.116c1.731.886,3.544,1.783,4.274,3.707.767,2.022.275,4.523-.057,6.6a37.456,37.456,0,0,1-1.383,5.761,26.327,26.327,0,0,1-4.915,8.957c-1.668,1.944,1.149,4.786,2.829,2.829,4.807-5.6,7.118-12.729,7.768-20a11.671,11.671,0,0,0-.874-6.4,10,10,0,0,0-4.269-4.163c-3.16-1.833-7.171-3.75-10.906-3.53-4.074.24-8.66,2.153-10.763,5.839-1.277,2.24,2.177,4.257,3.454,2.019Z"/></svg>