<?xml version="1.0" encoding="utf-8"?>
<!-- Uploaded to: SVG Repo, www.svgrepo.com, Generator: SVG Repo Mixer Tools -->
<svg width="800px" height="800px" viewBox="0 -8.13 359.214 359.214" xmlns="http://www.w3.org/2000/svg"><defs><style>.a{fill:#ffffff;}.b{fill:#211715;}.c{fill:#b3b3b3;}.d{fill:#957f6e;}.e{fill:#64a4d6;}.f{fill:#ffda71;}</style></defs><path class="a" d="M297.429,62.453c-1.769-.639-1.7-1.776-1.922-3.049-.2-1.116-.238-1.849-.3-2.523a17.192,17.192,0,0,1-2.483.726,27.372,27.372,0,0,1-4.892.495,30.912,30.912,0,0,1-4.514-.435,16.531,16.531,0,0,1-3.944-1.2l-.016.182c0,.442-.272,2.692-.37,3.219-.236,1.27-.153,2.41-1.923,3.048-.065.024-.353.12-.656.211l-.852.258c.553,1.69,1.144,3.409,1.776,5.135a19.825,19.825,0,0,0,20.955-.944c.5-1.424.984-2.839,1.44-4.234l-.634-.245C298.441,62.845,297.508,62.482,297.429,62.453Z"/><path class="a" d="M99.819,245.916a2.441,2.441,0,0,0,1.526-2.279c.08-5.007-2.376-12.785-4.51-19.082-3.386.188-8.711.318-10.918.37l-1.082.025-.007.926-.054,7.072a37.527,37.527,0,0,0,.174,3.873,3.269,3.269,0,0,0,1.219,2.639,2.852,2.852,0,0,0,1.754.611,4.384,4.384,0,0,0,3.637-2.6,48.158,48.158,0,0,0,2.874,5.413,8.628,8.628,0,0,0,1.825,2.4,3.62,3.62,0,0,0,2.852.857A3.275,3.275,0,0,0,99.819,245.916Z"/><path class="b" d="M93.985,222.391c2.034,5.932,4.305,12,5.164,18.241.085.612.141,1.231.173,1.848.017.336.178,1.041-.009,1.345-.643,1.045-2.038-.265-2.461-.842a35.973,35.973,0,0,1-3.911-7.334,2.068,2.068,0,0,0-2.461-1.4,2.011,2.011,0,0,0-1.4,2.46,47.017,47.017,0,0,0,2.114,4.534,24.579,24.579,0,0,0,3.094,4.907,5.663,5.663,0,0,0,5.958,1.733,4.611,4.611,0,0,0,3.1-4.389c.111-3.592-.9-7.336-1.851-10.767-1.063-3.848-2.358-7.627-3.653-11.4-.83-2.421-4.695-1.381-3.857,1.064Z"/><path class="b" d="M89.2,237.383a2.355,2.355,0,0,1-.482.4,4.25,4.25,0,0,1-.373.21q.249-.09-.081.026a3,3,0,0,1-.363.089c.239-.033.244-.046.017-.038.136.038.09.031-.141-.021a3.015,3.015,0,0,1-.373-.111q.306.129.017-.024.319.275-.009-.029c-.1-.1-.193-.2-.284-.3q.175.239-.01-.034l-.083-.147q.126.343.013.018a3.226,3.226,0,0,1-.082-.336q.033.339,0-.045c-.124-1.553-.2-3.1-.186-4.654l.05-6.508a2,2,0,0,0-4,0l-.045,5.886c-.008.988-.022,1.977.021,2.965.1,2.221.137,4.442,1.866,6.067,2.2,2.067,5.365,1.348,7.361-.582a2,2,0,0,0-2.828-2.829Z"/><path class="a" d="M23.8,245.916a2.441,2.441,0,0,1-1.526-2.279c-.08-5.007,2.376-12.785,4.51-19.082,3.386.188,8.711.318,10.918.37l1.082.025.007.926.054,7.072a37.26,37.26,0,0,1-.175,3.873,3.268,3.268,0,0,1-1.218,2.639,2.854,2.854,0,0,1-1.754.611,4.386,4.386,0,0,1-3.638-2.6,47.955,47.955,0,0,1-2.873,5.413,8.628,8.628,0,0,1-1.825,2.4,3.62,3.62,0,0,1-2.852.857A3.275,3.275,0,0,1,23.8,245.916Z"/><path class="b" d="M25.774,221.327c-1.274,3.714-2.548,7.431-3.6,11.215-.971,3.488-2.016,7.3-1.9,10.955.149,4.817,5.875,5.955,8.922,2.794a23.065,23.065,0,0,0,3.225-5.045,46.787,46.787,0,0,0,2.115-4.534,2.012,2.012,0,0,0-1.4-2.46,2.051,2.051,0,0,0-2.46,1.4,39.2,39.2,0,0,1-3.8,7.179c-.419.6-1.88,2.113-2.569,1-.182-.295-.026-1-.008-1.345.031-.617.088-1.236.173-1.848.859-6.243,3.129-12.309,5.164-18.241.836-2.441-3.026-3.489-3.857-1.064Z"/><path class="b" d="M31.585,240.212c1.746,1.688,4.325,2.506,6.556,1.2a5.333,5.333,0,0,0,2.2-2.694,11.394,11.394,0,0,0,.434-3.243c.148-2.293.055-4.608.038-6.9l-.021-2.694a2,2,0,0,0-4,0l.05,6.508c.012,1.557-.062,3.1-.186,4.654-.026.256-.027.271-.005.045a3.226,3.226,0,0,1-.082.336c-.066.187-.072.211-.02.07s.041-.119-.05.059q-.186.273-.01.034c-.091.105-.186.206-.285.3q-.327.3-.008.029c-.193.1-.188.11.017.024a3.015,3.015,0,0,1-.373.111q-.347.078-.141.021-.342-.012.017.038a3,3,0,0,1-.363-.089q-.33-.115-.082-.026c-.127-.064-.252-.134-.373-.21a2.353,2.353,0,0,1-.481-.4,2,2,0,0,0-2.828,2.829Z"/><path class="a" d="M75.23,337.5a25.7,25.7,0,0,0-6.4-3.56c-1.475-.558-3.625-.918-4.8-1.817-1.628-1.25-1.535-3.63-1.535-5.323,0-1.19-.039-4.649-.039-6.012v-2.267c4.53,0,8.993-.057,13.362-.135,5.432,3.208,11.72,8.96,15.651,12.842,1.366,1.348,2.578,3.071,1.947,5.508a3.947,3.947,0,0,1-1.869,2.821,10.52,10.52,0,0,1-4.126,1.2,18.409,18.409,0,0,1-9.712-1.642,12.839,12.839,0,0,1-2.378-1.529Z"/><path class="a" d="M31.183,338.891a4.7,4.7,0,0,1-1.014-2.152c-.63-2.437.84-4.108,2.205-5.457a88.838,88.838,0,0,1,15.812-12.746c4.116.012,8.608-.009,12.835-.011,0,1.319,0,2.284,0,2.284,0,1.568-.005,4.855-.005,5.994,0,1.693.17,4.073-1.458,5.323-1.169.9-3.319,1.259-4.794,1.817a25.651,25.651,0,0,0-6.507,3.643,12.806,12.806,0,0,1-2.378,1.529,18.407,18.407,0,0,1-9.711,1.642,10.524,10.524,0,0,1-4.127-1.2A3.646,3.646,0,0,1,31.183,338.891Z"/><path class="a" d="M40.036,218.407a136.68,136.68,0,0,0-1.143,24.637c.5,14.934,1.956,58.2,4.026,75.478,5.513.052,12.546,0,18.882,0,6.636,0,13.131-.1,19.4-.244,1.406-17.463,3.939-60.435,4.433-75.236a136.5,136.5,0,0,0-1.143-24.637"/><path class="b" d="M59.021,320.809q0,2.47,0,4.941c0,1.315.3,3.067-.285,4.285-.639,1.321-3.1,1.48-4.337,1.921a26.313,26.313,0,0,0-6.138,3.161,18.733,18.733,0,0,1-5.494,3.053,16.467,16.467,0,0,1-6.595.587c-1.674-.2-3.587-.566-4.025-2.392-.409-1.707.787-2.822,1.916-3.932a94.484,94.484,0,0,1,11.664-9.915c2.087-1.472.091-4.942-2.019-3.454A100.443,100.443,0,0,0,31.1,329.737c-1.614,1.593-3.068,3.465-3.075,5.846a6.564,6.564,0,0,0,3.194,5.8c4.7,2.568,11.468,1.7,16.041-.73,2.257-1.2,4.126-2.962,6.451-4.093,2.186-1.064,4.865-1.291,6.86-2.711,2.234-1.588,2.46-4.24,2.449-6.762-.008-2.094,0-4.188,0-6.282,0-2.574-4-2.578-4,0Z"/><path class="b" d="M60.462,320.791c0,1.872.032,3.743.038,5.614.007,2.027-.063,4.267,1.13,6.02,1.473,2.165,4.041,2.531,6.343,3.33a27.983,27.983,0,0,1,7,4.04,18.567,18.567,0,0,0,15.766,2.3,6.531,6.531,0,0,0,4.616-4.825,7.484,7.484,0,0,0-1.989-6.962,72.984,72.984,0,0,0-6.035-5.694,90.844,90.844,0,0,0-7.687-6.134c-2.108-1.487-4.108,1.979-2.019,3.454a94.231,94.231,0,0,1,10.441,8.775c1.182,1.123,3,2.409,3.438,4.061a2.8,2.8,0,0,1-2.031,3.538,14.765,14.765,0,0,1-12.643-2.087,31.014,31.014,0,0,0-5.945-3.583,25.291,25.291,0,0,0-2.91-1.072,7.867,7.867,0,0,1-2.661-.983c-1.161-.936-.8-3.1-.811-4.417-.009-1.792-.034-3.584-.037-5.376,0-2.573-4-2.578-4,0Z"/><path class="b" d="M59.8,243.956v74.122c0,2.574,4,2.578,4,0V243.956c0-2.573-4-2.578-4,0Z"/><path class="b" d="M43.686,320.524q18.052.143,36.111-.213c2.57-.054,2.579-4.054,0-4q-18.048.382-36.111.213c-2.575-.02-2.577,3.98,0,4Z"/><path class="b" d="M82.563,218.939c1.913,13.686,1,27.492.287,41.23Q81.8,280.22,80.483,300.254c-.394,6.021-.8,12.042-1.283,18.057-.206,2.566,3.8,2.553,4,0,.965-12,1.69-24.031,2.407-36.053.721-12.083,1.429-24.17,1.918-36.264a156.561,156.561,0,0,0-1.105-28.119,2.013,2.013,0,0,0-2.46-1.4,2.055,2.055,0,0,0-1.4,2.461Z"/><path class="b" d="M38.108,217.875c-1.942,13.894-1.155,27.834-.631,41.793.5,13.4,1.065,26.8,1.9,40.178.381,6.084.788,12.176,1.488,18.232a2.061,2.061,0,0,0,2,2,2.013,2.013,0,0,0,2-2C43.5,306.261,43,294.326,42.436,282.45c-.573-12.035-1.025-24.075-1.433-36.117a158.387,158.387,0,0,1,.962-27.394,2.069,2.069,0,0,0-1.4-2.461,2.014,2.014,0,0,0-2.46,1.4Z"/><path class="b" d="M1.932,342.857H123.545c2.574,0,2.578-4,0-4H1.932c-2.574,0-2.578,4,0,4Z"/><path class="b" d="M50.933,220.407h21.75c2.574,0,2.578-4,0-4H50.933c-2.574,0-2.578,4,0,4Z"/><path class="a" d="M58.1,181.839c-.405-.9-.844-1.9-1.384-3.122-1.871-4.241-3.685-8.792-5.3-13.287a19.844,19.844,0,0,0,20.963-.942c-1.7,4.8-3.632,9.692-5.634,14.229-1.952,4.424-2.6,5.927-5.016,10.452C59.986,185.894,59.165,184.2,58.1,181.839Z"/><path class="c" d="M85.316,224.592c-2.782.1-9.446.288-12.609-.185a15.785,15.785,0,0,1-6.259-2.191,8.817,8.817,0,0,1-3.421-4.666,45.946,45.946,0,0,1-1.352-7.8,46.046,46.046,0,0,1-1.352,7.8,8.817,8.817,0,0,1-3.421,4.666,15.785,15.785,0,0,1-6.259,2.191c-3.163.473-9.828.285-12.61.185l-.334.333c-2.857-.067-10.936-.265-13.278-.548a1.564,1.564,0,0,1-1.31-1.675c.485-8.366,3.411-41.416,8.869-50.465a20.918,20.918,0,0,1,5.591-6.291c3.159-2.357,8.4-4.414,12.06-5.747,1.994,6.117,4.486,12.618,7.089,18.518,1.953,4.424,2.6,5.927,5.016,10.452,2.418-4.525,3.064-6.028,5.016-10.452,2.61-5.915,5.108-12.434,7.109-18.564,3.657,1.329,8.987,3.407,12.183,5.793a20.906,20.906,0,0,1,5.592,6.291c5.458,9.049,8.384,42.1,8.868,50.465a1.563,1.563,0,0,1-1.31,1.675c-2.341.283-10.42.481-13.277.548Z"/><path class="a" d="M350.016,243.954H228.4v96.9H350.016Z"/><path class="a" d="M257.1,241.987a4.7,4.7,0,0,1-1.014-2.151c-.63-2.438.839-4.109,2.2-5.457a88.8,88.8,0,0,1,15.812-12.747c4.116.012,8.608-.009,12.835-.011,0,1.319,0,2.284,0,2.284,0,1.568,0,4.855,0,6,0,1.692.17,4.072-1.458,5.323-1.169.9-3.319,1.258-4.794,1.816a25.682,25.682,0,0,0-6.507,3.643,12.755,12.755,0,0,1-2.378,1.529,18.407,18.407,0,0,1-9.711,1.642,10.508,10.508,0,0,1-4.127-1.2A3.62,3.62,0,0,1,257.1,241.987Z"/><path class="a" d="M301.145,240.6a25.663,25.663,0,0,0-6.4-3.56c-1.475-.558-3.625-.918-4.795-1.816-1.628-1.251-1.534-3.631-1.534-5.323,0-1.191-.039-4.65-.039-6.012V221.62c4.53,0,8.993-.056,13.361-.134,5.432,3.207,11.72,8.96,15.651,12.841,1.366,1.349,2.578,3.071,1.948,5.509a3.945,3.945,0,0,1-1.869,2.82,10.512,10.512,0,0,1-4.127,1.2,18.406,18.406,0,0,1-9.711-1.642,12.755,12.755,0,0,1-2.378-1.529Z"/><path class="a" d="M325.733,149.013a2.44,2.44,0,0,0,1.527-2.279c.08-5.008-2.375-12.786-4.51-19.081-3.387.186-8.71.316-10.917.368l-1.082.025-.008.926-.054,7.072a37.57,37.57,0,0,0,.175,3.874,3.269,3.269,0,0,0,1.218,2.638,2.854,2.854,0,0,0,1.754.611,4.386,4.386,0,0,0,3.638-2.6,47.905,47.905,0,0,0,2.874,5.413,8.624,8.624,0,0,0,1.824,2.4,3.621,3.621,0,0,0,2.853.857A3.348,3.348,0,0,0,325.733,149.013Z"/><path class="b" d="M319.9,125.487c2.034,5.933,4.3,12,5.164,18.241.084.613.141,1.231.173,1.848.017.336.178,1.042-.009,1.345-.644,1.045-2.038-.265-2.462-.842a35.97,35.97,0,0,1-3.911-7.334,2.066,2.066,0,0,0-2.46-1.4,2.013,2.013,0,0,0-1.4,2.46,46.787,46.787,0,0,0,2.115,4.534,24.574,24.574,0,0,0,3.093,4.907,5.663,5.663,0,0,0,5.958,1.733,4.609,4.609,0,0,0,3.1-4.389c.111-3.592-.9-7.336-1.85-10.767-1.063-3.848-2.359-7.627-3.653-11.4-.83-2.421-4.7-1.382-3.857,1.063Z"/><path class="b" d="M315.118,140.479a2.3,2.3,0,0,1-.481.4,4.15,4.15,0,0,1-.373.211q.247-.09-.082.025a3,3,0,0,1-.363.089q.358-.05.017-.038.206.057-.14-.021a3.026,3.026,0,0,1-.374-.11q.308.129.017-.024.32.274-.008-.03c-.1-.1-.194-.2-.285-.3q.175.24-.01-.034l-.083-.146q.126.342.014.018a3.248,3.248,0,0,1-.083-.337q.033.34,0-.045c-.125-1.552-.2-3.1-.186-4.654l.049-6.508a2,2,0,1,0-4,0l-.045,5.886c-.007.988-.021,1.977.021,2.965.1,2.221.137,4.442,1.866,6.067,2.2,2.067,5.365,1.348,7.362-.582a2,2,0,1,0-2.829-2.829Z"/><path class="a" d="M297.048,127.2a14.112,14.112,0,0,1-4.685-1.888,8.818,8.818,0,0,1-3.421-4.666,46.129,46.129,0,0,1-1.352-7.8,46.042,46.042,0,0,1-1.351,7.8,8.815,8.815,0,0,1-3.422,4.666,15.785,15.785,0,0,1-6.259,2.191,81.541,81.541,0,0,1-11.132.233,84.975,84.975,0,0,0-1.021,15.993c.5,14.934,1.956,60.647,4.026,77.885,5.57.058,12.794.007,19.286.007,6.424,0,12.717-.1,18.8-.231,1.35-15.524,4.115-62.121,4.635-77.661a109.277,109.277,0,0,0-.75-16.012,86.642,86.642,0,0,1-11.775-.214C298.083,127.421,297.556,127.319,297.048,127.2Z"/><path class="b" d="M284.937,223.905q0,2.47,0,4.941c0,1.315.3,3.067-.285,4.285-.639,1.321-3.1,1.48-4.336,1.921a26.378,26.378,0,0,0-6.139,3.161,18.72,18.72,0,0,1-5.494,3.053,16.462,16.462,0,0,1-6.594.587c-1.674-.2-3.587-.565-4.025-2.391-.409-1.708.787-2.822,1.916-3.932a94.332,94.332,0,0,1,11.664-9.916c2.087-1.472.091-4.942-2.019-3.453a100.364,100.364,0,0,0-12.607,10.672c-1.614,1.593-3.068,3.465-3.075,5.846a6.559,6.559,0,0,0,3.194,5.8c4.695,2.568,11.467,1.7,16.04-.73,2.257-1.2,4.127-2.962,6.451-4.093,2.187-1.064,4.866-1.291,6.861-2.71,2.233-1.589,2.459-4.24,2.449-6.762-.009-2.095,0-4.189,0-6.283,0-2.574-4-2.578-4,0Z"/><path class="b" d="M286.378,223.888c0,1.871.032,3.742.038,5.613.006,2.027-.063,4.267,1.13,6.02,1.472,2.165,4.041,2.531,6.343,3.33a28,28,0,0,1,7,4.04,18.566,18.566,0,0,0,15.767,2.3,6.526,6.526,0,0,0,4.615-4.825,7.484,7.484,0,0,0-1.988-6.962,73.3,73.3,0,0,0-6.035-5.694,90.9,90.9,0,0,0-7.688-6.134c-2.107-1.487-4.108,1.98-2.019,3.454a94.334,94.334,0,0,1,10.442,8.775c1.182,1.123,3,2.409,3.438,4.062a2.8,2.8,0,0,1-2.031,3.538,14.77,14.77,0,0,1-12.644-2.088,30.928,30.928,0,0,0-5.945-3.582,25.164,25.164,0,0,0-2.909-1.073,7.867,7.867,0,0,1-2.661-.983c-1.161-.936-.805-3.1-.811-4.417-.009-1.792-.035-3.584-.037-5.375,0-2.574-4-2.579-4,0Z"/><path class="b" d="M307.333,119.624a144.621,144.621,0,0,1,1.752,25.846c-.195,5.13-.455,10.258-.723,15.384Q307.314,180.9,306,200.939c-.395,6.022-.8,12.043-1.284,18.058-.206,2.566,3.8,2.552,4,0,.965-12.006,1.69-24.032,2.407-36.054.721-12.082,1.43-24.169,1.918-36.263.159-3.931.216-7.852-.016-11.782-.322-5.474-1.063-10.911-1.831-16.337a2.012,2.012,0,0,0-2.46-1.4,2.052,2.052,0,0,0-1.4,2.46Z"/><path class="b" d="M264.408,120.972c-.645,4.531-1.4,9.057-1.786,13.621a92.984,92.984,0,0,0-.158,10.9q.262,7.908.545,15.815c.5,13.818,1.057,27.638,1.9,41.44.373,6.149.767,12.309,1.474,18.43a2.061,2.061,0,0,0,2,2,2.012,2.012,0,0,0,2-2c-1.392-12.057-1.857-24.244-2.414-36.362-.572-12.44-1.02-24.886-1.435-37.333-.118-3.554-.257-7.1-.062-10.66.271-4.963,1.1-9.869,1.8-14.784a2.067,2.067,0,0,0-1.4-2.46,2.015,2.015,0,0,0-2.461,1.4Z"/><path class="b" d="M285.717,147.053v74.121c0,2.574,4,2.579,4,0V147.053c0-2.574-4-2.578-4,0Z"/><path class="b" d="M269.6,223.621q18.053.141,36.111-.214c2.571-.054,2.58-4.054,0-4q-18.048.382-36.111.214c-2.574-.021-2.577,3.979,0,4Z"/><path class="b" d="M276.848,123.5H298.6c2.574,0,2.578-4,0-4h-21.75c-2.573,0-2.578,4,0,4Z"/><path class="c" d="M244.1,77.954c.38,5.01.39,8.63,1.06,15.95a26.072,26.072,0,0,0,.93,5.63c1.25,3.97,4.73,7.35,8.87,7.78a13.362,13.362,0,0,0,8.165-1.482c-.124,6.764-.247,13.529-.37,20.721a1.248,1.248,0,0,0,1.193,1.135c2.782.1,9.447.289,12.609-.185a15.785,15.785,0,0,0,6.259-2.191,8.815,8.815,0,0,0,3.422-4.666,46.042,46.042,0,0,0,1.351-7.8,46.129,46.129,0,0,0,1.352,7.8,8.818,8.818,0,0,0,3.421,4.666,15.8,15.8,0,0,0,6.26,2.191c3.162.474,9.827.285,12.609.185l.6.333c2.857-.067,10.936-.265,13.277-.547a1.565,1.565,0,0,0,1.31-1.675c-.485-8.367-3.411-41.417-8.868-50.466a20.945,20.945,0,0,0-5.592-6.291c-3.2-2.385-8.525-4.463-12.183-5.792-2,6.129-4.5,12.649-7.109,18.563-1.953,4.424-2.6,5.927-5.016,10.452-2.418-4.525-3.064-6.028-5.016-10.452-2.6-5.9-5.1-12.4-7.09-18.518-3.659,1.333-8.9,3.39-12.059,5.747a20.945,20.945,0,0,0-5.592,6.291,18.442,18.442,0,0,0-1.266,2.621Z"/><path class="a" d="M288.442,71.019a19.227,19.227,0,0,1-11.109-2.509c1.614,4.5,3.43,9.058,5.3,13.3,1.952,4.424,2.6,5.927,5.016,10.452,2.417-4.525,3.063-6.028,5.016-10.452,2-4.537,3.938-9.429,5.633-14.228A18.83,18.83,0,0,1,288.442,71.019Z"/><path class="d" d="M312.248,27.624a7.516,7.516,0,0,1,9.66,5.55c.81,5.12,1.35,12.76,6.16,14.48-.97,3.1-6.55,3.97-8.55,4.03a13.658,13.658,0,0,1-6.91-2,12.639,12.639,0,0,1-5.26-4.93,3.83,3.83,0,0,1-.3-.65"/><path class="d" d="M294.892,17.016a23.724,23.724,0,0,0,4.27,8.079A29.2,29.2,0,0,0,306.91,31.9a4.717,4.717,0,0,1,4.559,1.2c.457-3.279,1.019-5.494.789-7.809-.574-5.792-3.218-12.659-7.478-16.55-1.129-1.031-1.912-1.728-2.794-2.393A20.413,20.413,0,0,0,298,4.04a27.361,27.361,0,0,0-10.842-2.077,26.571,26.571,0,0,0-17.069,6.673c-5.033,4.819-8.389,12.532-6.5,24.962a4.711,4.711,0,0,1,4.7-1.734c5.128-.828,20.162-8.744,26.605-14.848"/><path class="b" d="M277.374,56.656a21.023,21.023,0,0,1-.269,2.538l.072-.531a10.064,10.064,0,0,1-.474,2.409l.2-.478a2.363,2.363,0,0,1-.162.312c-.117.187-.218.157.141-.17-.047.042-.086.094-.131.139a1.292,1.292,0,0,0-.149.132c0-.054.463-.318.158-.138a4.657,4.657,0,0,1-.482.247l.477-.2c-.485.2-.993.342-1.488.51a2,2,0,1,0,1.063,3.857,9.886,9.886,0,0,0,2.629-1.081,4.462,4.462,0,0,0,1.842-3c.139-.828.261-1.656.365-2.489a18.687,18.687,0,0,0,.206-2.056,2,2,0,0,0-4,0Z"/><path class="b" d="M293.228,56.89c.083.941.172,1.877.322,2.811a9.426,9.426,0,0,0,.388,1.909,4.289,4.289,0,0,0,2.074,2.4c.555.276,1.158.48,1.736.7.483.188.968.372,1.448.568a2,2,0,0,0,1.541-.2,2,2,0,0,0,.718-2.736,2.343,2.343,0,0,0-1.195-.919c-.822-.335-1.657-.637-2.48-.968l.477.2a3.411,3.411,0,0,1-.71-.4l.4.313a2.476,2.476,0,0,1-.37-.368l.312.4a2.359,2.359,0,0,1-.275-.471l.2.478a10.385,10.385,0,0,1-.5-2.524l.071.531c-.074-.574-.118-1.15-.169-1.726a2.147,2.147,0,0,0-.586-1.414,2,2,0,0,0-3.414,1.414Z"/><path class="b" d="M276.324,70.237a21.713,21.713,0,0,0,22.979-.92,2.056,2.056,0,0,0,.717-2.736,2.016,2.016,0,0,0-2.736-.718,17.757,17.757,0,0,1-18.941.92c-2.221-1.312-4.236,2.144-2.019,3.454Z"/><path class="b" d="M309.943,84.539c.188,11.152.237,22.306.373,33.459q.024,2.01.053,4.019.015,1.088.032,2.174.011.612.02,1.224l.008.493q-.141,1.143.593-.212c-.245-.222-1.917.058-2.258.066q-1.582.039-3.166.047c-3.969.017-8.291.182-11.789-1.938a7.186,7.186,0,0,1-3.179-4.658,36.979,36.979,0,0,1-1.04-6.365,2,2,0,0,0-4,0,37.022,37.022,0,0,1-.863,5.586,8.31,8.31,0,0,1-2.12,4.452c-2.9,2.852-7.487,2.875-11.263,2.918-1.982.023-3.966-.011-5.947-.069a3.4,3.4,0,0,0-1.014-.032c-.3.12-.227-.073,0,.091.7.51.255.158.393-.231a8.807,8.807,0,0,0,.038-2.211q.021-1.213.043-2.429.148-8.494.306-16.991.175-9.7.344-19.393c.044-2.575-3.956-2.576-4,0q-.328,19.284-.689,38.569c-.025,1.467-.408,3.4.278,4.752a3.476,3.476,0,0,0,3.178,1.839c2.115.123,4.251.12,6.369.11,4.522-.02,9.747-.172,13.513-3.015,4.262-3.218,5.135-8.918,5.437-13.946h-4a44.186,44.186,0,0,0,1.067,6.925,11.916,11.916,0,0,0,2.828,5.675c3.434,3.684,8.9,4.255,13.653,4.346,2.26.043,4.522,0,6.781-.063a5.767,5.767,0,0,0,2.942-.508c1.586-.984,1.579-2.638,1.552-4.3-.1-6.334-.162-12.669-.219-19-.064-7.127-.131-14.255-.251-21.381-.044-2.572-4.044-2.58-4,0Z"/><path class="b" d="M298.747,65a61.708,61.708,0,0,1,10.146,4.43,19.24,19.24,0,0,1,7.094,7.192,24.176,24.176,0,0,1,2.12,5.427c.771,2.6,1.371,5.246,1.9,7.9a269.229,269.229,0,0,1,4.227,33.136c.035.482.07.964.1,1.447.016.241-.065.95.072,1.141.084.116.789-.087.3-.156a4.16,4.16,0,0,0-.807.066c-.746.053-1.492.091-2.239.126-3.274.154-6.552.236-9.828.313-2.57.061-2.58,4.061,0,4,3.076-.073,6.152-.152,9.226-.286,1.3-.057,2.607-.1,3.9-.244a3.669,3.669,0,0,0,3.446-3.949c-.158-4.8-.752-9.623-1.271-14.39-.721-6.616-1.584-13.227-2.787-19.774-.977-5.318-2.041-10.867-4.39-15.781-3.891-8.141-12.154-11.57-20.147-14.456-2.425-.875-3.47,2.988-1.063,3.857Z"/><path class="b" d="M275.637,61.141c-4.231,1.527-8.631,3.122-12.392,5.634A23.25,23.25,0,0,0,254.7,77.422a2.013,2.013,0,0,0,1.4,2.46,2.049,2.049,0,0,0,2.46-1.4,18.688,18.688,0,0,1,3.465-5.426,17.05,17.05,0,0,1,3.709-3.134A55.783,55.783,0,0,1,276.7,65a2.052,2.052,0,0,0,1.4-2.46,2.017,2.017,0,0,0-2.46-1.4Z"/><path class="b" d="M265.439,32.577c-.69-5.444-.658-11.306,1.693-16.384a19.731,19.731,0,0,1,8.5-9.075c10.075-5.611,24.09-3.7,30.567,6.444a27.572,27.572,0,0,1,3.611,8.987,17.418,17.418,0,0,1,.49,4.472,48.387,48.387,0,0,1-.684,5.024,2.064,2.064,0,0,0,1.4,2.46,2.014,2.014,0,0,0,2.46-1.4c.514-3.4,1.054-6.531.506-9.967a32.216,32.216,0,0,0-3-9.257A25.032,25.032,0,0,0,296.826,1.471c-11.465-3.9-25.783.036-32.125,10.757-3.612,6.107-4.137,13.447-3.262,20.349a2.064,2.064,0,0,0,2,2,2.012,2.012,0,0,0,2-2Z"/><path class="a" d="M294.892,17.016c-6.443,6.1-21.478,14.02-26.605,14.848a4.67,4.67,0,0,0-4.95,2.111,6.366,6.366,0,0,0,.221,6.17,10.052,10.052,0,0,0,5.326,4.295,21.922,21.922,0,0,0,4.355,7.486,17.419,17.419,0,0,0,10.1,5.748,30.912,30.912,0,0,0,4.514.435,27.362,27.362,0,0,0,4.892-.5,17.142,17.142,0,0,0,9.648-5.833,21.861,21.861,0,0,0,4.267-7.518c.1-.043.2-.078.2-.078a10.106,10.106,0,0,0,4.929-3.953,6.365,6.365,0,0,0,.415-6.159A4.663,4.663,0,0,0,306.91,31.9a29.2,29.2,0,0,1-7.748-6.809,23.724,23.724,0,0,1-4.27-8.079"/><path class="b" d="M307.441,33.832c.162-.044.321-.075.484-.111-.457.1.019.013.126.011.166,0,.331.01.5.018-.277-.014-.176-.03.042.017a4.816,4.816,0,0,1,.481.13c.184.06.313.132.064.011.149.072.3.147.44.233.06.036.479.351.14.068a4.895,4.895,0,0,1,.369.337c.072.074.359.46.116.107.079.115.155.233.225.355.045.078.087.157.126.238q-.094-.252-.02-.053a5.809,5.809,0,0,1,.265.988c-.078-.409,0,.166,0,.218.008.19.007.381,0,.571,0,.087-.077.629-.01.231-.027.158-.059.315-.1.472-.045.187-.1.373-.157.556-.037.113-.145.412-.038.151a5.983,5.983,0,0,1-.548,1c0,.009-.355.5-.139.219-.118.155-.248.3-.378.447a10.238,10.238,0,0,1-.768.763q-.184.165-.376.321c.261-.212-.173.124-.228.162a10.357,10.357,0,0,1-1,.614c-.17.092-.344.175-.518.259-.38.184.2-.073-.223.088a2.046,2.046,0,0,0-1.4,2.461,2.023,2.023,0,0,0,2.461,1.4c3.974-1.5,7.468-5.045,7.424-9.524a6.893,6.893,0,0,0-2.8-5.623,6.708,6.708,0,0,0-5.63-.991,2,2,0,0,0,1.063,3.857Z"/><path class="b" d="M269.218,30.044a6.7,6.7,0,0,0-5.653.863,6.932,6.932,0,0,0-2.919,5.564c-.185,4.489,3.276,8.092,7.183,9.708a2.007,2.007,0,0,0,2.461-1.4,2.064,2.064,0,0,0-1.4-2.461c.362.15-.194-.1-.214-.11-.172-.086-.342-.178-.509-.274a10.482,10.482,0,0,1-.9-.588q-.166-.123.012.014c-.077-.062-.154-.125-.229-.19-.125-.106-.249-.216-.369-.328a11.559,11.559,0,0,1-.816-.855c-.4-.457.178.283-.165-.21-.11-.158-.218-.317-.318-.481q-.124-.2-.236-.413c-.045-.084-.087-.17-.127-.256.06.157.065.169.014.037a6.6,6.6,0,0,1-.305-1.013c-.009-.038-.088-.632-.052-.228-.017-.191-.032-.382-.035-.574s.01-.38.014-.571c.008-.37-.043.085.012-.123a7.826,7.826,0,0,1,.277-.985c-.15.364.076-.116.119-.188s.351-.475.071-.148c.109-.127.22-.25.341-.366.076-.074.466-.352.108-.111.115-.077.23-.154.35-.223.051-.03.519-.264.282-.158s.176-.058.228-.074c.16-.049.322-.084.484-.123.5-.119-.384,0,.126-.014.166,0,.33,0,.5,0,.419,0-.316-.107.124.009.161.043.321.078.48.127a2.021,2.021,0,0,0,2.461-1.4,2.044,2.044,0,0,0-1.4-2.461Z"/><path class="b" d="M304.726,43.731a19.374,19.374,0,0,1-6.588,9.323,17.013,17.013,0,0,1-10.29,3.055,17.614,17.614,0,0,1-10.541-3.14,19.009,19.009,0,0,1-6.5-9.087c-.842-2.416-4.708-1.377-3.857,1.063,2.319,6.652,7.406,12.476,14.38,14.336,7.046,1.879,15.057.73,20.6-4.185a23.991,23.991,0,0,0,6.659-10.3c.828-2.444-3.034-3.492-3.857-1.064Z"/><path class="b" d="M292.5,36.529a3.849,3.849,0,0,1,.951-3.092,2.939,2.939,0,0,1,2.013-.858,3.153,3.153,0,0,1,2.637,1.236,3.868,3.868,0,0,1-.083,4.513,3,3,0,0,1-4.05.661A3.3,3.3,0,0,1,292.5,36.529Z"/><path class="b" d="M277.159,36.529a3.849,3.849,0,0,1,.951-3.092,2.937,2.937,0,0,1,2.013-.858,3.153,3.153,0,0,1,2.637,1.236,3.87,3.87,0,0,1-.083,4.513,3,3,0,0,1-4.05.661A3.3,3.3,0,0,1,277.159,36.529Z"/><path class="b" d="M293.477,15.6a63.692,63.692,0,0,1-12.861,8.8c-3.852,2.135-7.981,4.422-12.307,5.432-2.506.585-1.445,4.443,1.063,3.857,4.644-1.084,9.126-3.542,13.263-5.835a67.9,67.9,0,0,0,13.671-9.424c1.882-1.764-.951-4.589-2.829-2.828Z"/><path class="b" d="M307.919,30.177a23.278,23.278,0,0,1-3.715-2.7c-.661-.575-1.3-1.176-1.91-1.8q-.437-.45-.85-.922c-.119-.138-.238-.276-.353-.417.006.008-.386-.495-.2-.251a30.371,30.371,0,0,1-2.8-4.374q-.211-.411-.4-.832c-.018-.039-.249-.58-.078-.167-.055-.132-.108-.265-.159-.4-.233-.6-.435-1.213-.624-1.83a2,2,0,1,0-3.857,1.064A28.782,28.782,0,0,0,305.9,33.631c2.231,1.294,4.247-2.161,2.019-3.454Z"/><path class="b" d="M312.78,29.552a5.808,5.808,0,0,1,6.2,1.87c1.23,1.583,1.21,3.785,1.518,5.774.743,4.8,2,10.446,7.039,12.386l-1.4-2.46c-.692,1.945-4.879,2.491-6.543,2.559a12.04,12.04,0,0,1-6.148-1.814c-1.717-.926-3.709-2.416-4.472-4.295a2.064,2.064,0,0,0-2.46-1.4,2.014,2.014,0,0,0-1.4,2.461,13.582,13.582,0,0,0,5.808,6.4,16.345,16.345,0,0,0,8.669,2.64c3.875-.156,8.956-1.439,10.4-5.495a2.043,2.043,0,0,0-1.4-2.461c-1.907-.734-2.751-3.064-3.269-4.861a59.673,59.673,0,0,1-1.41-7.674,9.094,9.094,0,0,0-3.416-5.831,9.974,9.974,0,0,0-8.788-1.664c-2.5.625-1.439,4.484,1.063,3.857Z"/><path class="b" d="M297.907,62.538a179.434,179.434,0,0,1-11.982,28.717c-1.211,2.271,2.241,4.294,3.454,2.019A185.646,185.646,0,0,0,301.764,63.6c.8-2.452-3.06-3.5-3.857-1.063Z"/><path class="b" d="M298.225,92.471c2.509-3.524,4.862-7.146,7.155-10.814a26.833,26.833,0,0,0,2.576-4.194,3.248,3.248,0,0,0-.829-3.341c-.817-1.046-1.663-2.069-2.508-3.092v2.829c1.261-1.549,2.492-3.135,3.844-4.606,1.739-1.893-1.083-4.729-2.829-2.829-1.352,1.472-2.583,3.057-3.844,4.606a2.078,2.078,0,0,0,0,2.829c.477.577.954,1.153,1.426,1.734.31.382.965,1,1.033,1.379V75.909a6.014,6.014,0,0,1-.78,1.272q-.5.784-.99,1.572c-.691,1.1-1.378,2.209-2.075,3.308q-2.706,4.269-5.632,8.391a2.016,2.016,0,0,0,.717,2.736,2.043,2.043,0,0,0,2.736-.717Z"/><path class="b" d="M273.539,63.6a185.65,185.65,0,0,0,12.386,29.673c1.211,2.273,4.665.254,3.454-2.019A179.434,179.434,0,0,1,277.4,62.538c-.8-2.436-4.66-1.393-3.858,1.063Z"/><path class="b" d="M280.674,91.938q-3.111-4.37-5.976-8.9c-.739-1.166-1.468-2.339-2.2-3.509q-.483-.772-.971-1.543a6.318,6.318,0,0,1-.919-1.5v1.063c.08-.448.822-1.141,1.127-1.517q.752-.924,1.513-1.84a2.078,2.078,0,0,0,0-2.829c-1.338-1.643-2.644-3.325-4.078-4.886-1.746-1.9-4.568.935-2.829,2.829,1.435,1.561,2.741,3.242,4.078,4.886V71.358c-.848,1.027-1.7,2.053-2.52,3.1-.791,1.009-1.489,2-1.1,3.352a10.06,10.06,0,0,0,1.35,2.318q.744,1.175,1.478,2.356c2.432,3.89,4.928,7.733,7.59,11.471a2.055,2.055,0,0,0,2.736.718,2.016,2.016,0,0,0,.718-2.736Z"/><path class="b" d="M242.1,77.954c.241,3.222.367,6.451.572,9.675q.2,3.141.488,6.275a25.812,25.812,0,0,0,1.237,6.836,13.508,13.508,0,0,0,7.639,7.909,15.026,15.026,0,0,0,11.084-.608,2.013,2.013,0,0,0,.717-2.737,2.053,2.053,0,0,0-2.736-.717,10.378,10.378,0,0,1-8.482-.036,10.22,10.22,0,0,1-5.061-7.395,84.568,84.568,0,0,1-.971-10.928c-.16-2.759-.281-5.519-.487-8.274-.19-2.551-4.192-2.572-4,0Z"/><path class="a" d="M243.014,73.927c-.194-.411-.4-.834-.615-1.245a19.56,19.56,0,0,0-1.461-2.471,5.854,5.854,0,0,1-1.209-3.7,6.782,6.782,0,0,1,.585-2.291c1.343-2.088,2.5-3.913,3.905-5.683a15.136,15.136,0,0,1,1.083-1.182,3.382,3.382,0,0,1,2.344-.971,2.81,2.81,0,0,1,2.018,1.116c1.837.576,2.213-.576,3.028-1.217a3.01,3.01,0,0,1,3.166.035,12.607,12.607,0,0,1,2.47,1.912,3.516,3.516,0,0,1,1.083,2.055,1.557,1.557,0,0,1-.366,1.462,2.706,2.706,0,0,1-2.1.767c.613,1.243,1.068,2.169,1.068,2.169a3.107,3.107,0,0,1,.24,1.309,2.151,2.151,0,0,1-.037.538,2.334,2.334,0,0,1-.225.53c-.833,1.578-2.35,3.439-1.646,5.352,1.735,5.027,1.5,7.536-.134,8.958a11.851,11.851,0,0,1-4.466,2.376,10.525,10.525,0,0,1-2.987.258,5.5,5.5,0,0,1-2.265-1.316,5.734,5.734,0,0,1-1.021-2.142c-.255-.922-1.035-3.2-1.623-4.69C243.646,75.316,243.35,74.637,243.014,73.927Z"/><path class="b" d="M257.959,60.786c-2.284-1.734-4.626-3.41-7.054-4.937a10.928,10.928,0,0,0-2.489-1.332,4.685,4.685,0,0,0-3.845.864,14.627,14.627,0,0,0-3.091,3.486,34.47,34.47,0,0,0-2.98,4.506,7.906,7.906,0,0,0,.858,8.052,31.25,31.25,0,0,1,3.441,7.343c.422,1.216.725,2.5,1.247,3.674a6.207,6.207,0,0,0,3.705,3.288c2.168.915,5.2-.077,7.165-1.1,2.117-1.1,4.034-2.644,4.485-5.1a11.766,11.766,0,0,0-.263-4.7c-.37-1.643-1.353-3.132-.559-4.749.725-1.477,1.691-2.587,1.676-4.309a7.162,7.162,0,0,0-1.891-4.675c-1.649-1.981-4.465.862-2.829,2.828a2.792,2.792,0,0,1,.719,2.2c-.038.275.32-.37-.162.243a5.926,5.926,0,0,0-.384.66,16.215,16.215,0,0,0-1.017,1.991,5.894,5.894,0,0,0-.271,3.922,30.073,30.073,0,0,1,1.065,4.019,5.483,5.483,0,0,1-.035,1.966c-.14.595-.231.706-.852,1.2a9.5,9.5,0,0,1-5.065,1.924c-.345.041-.7-.173-.119.072-.229-.1-.466-.185-.691-.29a1.755,1.755,0,0,1-1.009-.938,27.306,27.306,0,0,1-1-3.016,45.663,45.663,0,0,0-2.742-6.5c-.923-1.747-2.6-3.456-2.148-5.41a7.885,7.885,0,0,1,1.433-2.63,41.126,41.126,0,0,1,2.374-3.392,5.005,5.005,0,0,1,1.452-1.447c.1-.047.5-.064.561-.12-.093.09-.483-.055-.528-.1a4.911,4.911,0,0,0,.966.532c.444.263.88.539,1.313.818,2.242,1.445,4.419,3,6.543,4.611a2.014,2.014,0,0,0,2.737-.718,2.05,2.05,0,0,0-.718-2.736Z"/><path class="b" d="M252.566,59.077a7.349,7.349,0,0,0,.98-.837c.09-.095.178-.191.271-.283.061-.061.124-.121.189-.178l-.214.163a1.86,1.86,0,0,1,.191-.115q.284-.138-.171.071a1.085,1.085,0,0,0,.327-.083q-.489.055-.249.038c.058-.005.115-.007.173-.007a1.8,1.8,0,0,0,.35.017c-.336-.05-.4-.056-.181-.018.077.016.154.034.23.054.115.031.225.072.338.108.384.122-.392-.221-.052-.017.107.065.222.12.33.185a3.768,3.768,0,0,1,.793.538c-.332-.354-.054-.039.043.041.132.109.261.22.389.333.237.208.477.417.7.641.082.083.156.188.241.265-.19-.254-.226-.3-.106-.126.032.048.063.1.091.146s.058.1.085.15c.091.19.072.135-.057-.163a2.178,2.178,0,0,0,.116.335c.034.118.06.237.088.357.094.4-.068-.459-.009.04q-.007.245.045-.248a1.313,1.313,0,0,1-.053.2l.12-.288c-.106.174-.059.124.14-.148a1.365,1.365,0,0,0-.176.18c-.187.231.46-.277.095-.079a1.529,1.529,0,0,0-.305.171l.279-.116c-.07.027-.142.051-.214.072a2.29,2.29,0,0,1-.231.057l.287-.034a2.572,2.572,0,0,0-.532.005,2.011,2.011,0,0,0-2,2,2.046,2.046,0,0,0,2,2,4.612,4.612,0,0,0,3.625-1.428,4.239,4.239,0,0,0,.335-4.729A8.314,8.314,0,0,0,258.2,55.5a7.144,7.144,0,0,0-3.849-1.643,4.4,4.4,0,0,0-2.391.515,4.329,4.329,0,0,0-.976.756c-.123.122-.239.252-.361.377-.1.1-.521.443-.08.117a2.178,2.178,0,0,0-.919,1.2,2.043,2.043,0,0,0,.2,1.541,2.022,2.022,0,0,0,2.736.718Z"/><path class="d" d="M86.333,124.528a7.516,7.516,0,0,1,9.66,5.55c.81,5.12,1.35,12.76,6.16,14.48-.97,3.1-6.55,3.97-8.55,4.03a13.658,13.658,0,0,1-6.91-2,12.639,12.639,0,0,1-5.26-4.93,3.83,3.83,0,0,1-.3-.65"/><path class="d" d="M68.976,113.92A23.731,23.731,0,0,0,73.246,122a29.215,29.215,0,0,0,7.748,6.81,4.715,4.715,0,0,1,4.559,1.2c.457-3.279,1.02-5.494.79-7.809-.575-5.792-3.219-12.659-7.479-16.551-1.128-1.03-1.912-1.727-2.794-2.392a20.357,20.357,0,0,0-3.989-2.31,27.366,27.366,0,0,0-10.843-2.077A26.56,26.56,0,0,0,44.17,105.54c-5.034,4.819-8.389,12.532-6.5,24.961a4.71,4.71,0,0,1,4.7-1.733c5.127-.829,20.161-8.745,26.6-14.848"/><path class="a" d="M71.53,159.364c-1.77-.639-1.7-1.777-1.923-3.049-.195-1.116-.237-1.849-.3-2.523a17.526,17.526,0,0,1-2.483.726,27.473,27.473,0,0,1-4.892.5,30.885,30.885,0,0,1-4.514-.435,16.474,16.474,0,0,1-3.944-1.2l-.016.182c0,.442-.273,2.693-.37,3.219-.236,1.27-.154,2.41-1.923,3.049-.065.024-.353.119-.656.211l-.852.257c.553,1.69,1.144,3.409,1.775,5.135a19.824,19.824,0,0,0,20.956-.944q.753-2.136,1.44-4.233l-.635-.245C72.541,159.755,71.609,159.392,71.53,159.364Z"/><path class="b" d="M51.459,153.559a21.429,21.429,0,0,1-.269,2.539l.071-.532a10.11,10.11,0,0,1-.473,2.41l.2-.478a2.42,2.42,0,0,1-.161.312c-.117.186-.219.157.14-.17-.046.042-.085.094-.13.138a1.413,1.413,0,0,0-.15.133c0-.055.464-.318.158-.138a4.283,4.283,0,0,1-.482.246l.478-.2c-.486.2-.993.341-1.489.51a2,2,0,1,0,1.064,3.857,9.916,9.916,0,0,0,2.629-1.082,4.458,4.458,0,0,0,1.842-3q.209-1.242.364-2.489a18.442,18.442,0,0,0,.207-2.057,2,2,0,0,0-4,0Z"/><path class="b" d="M67.312,153.794c.083.941.173,1.877.322,2.811a9.509,9.509,0,0,0,.388,1.909,4.3,4.3,0,0,0,2.074,2.4c.555.276,1.159.48,1.737.705.483.188.968.372,1.448.567a2,2,0,0,0,1.541-.2,2,2,0,0,0,.717-2.737,2.34,2.34,0,0,0-1.2-.919c-.822-.335-1.657-.636-2.48-.967l.478.2a3.427,3.427,0,0,1-.71-.4l.405.313a2.442,2.442,0,0,1-.371-.369l.313.405a2.391,2.391,0,0,1-.276-.471l.2.478a10.432,10.432,0,0,1-.5-2.525l.072.532c-.074-.574-.119-1.15-.17-1.726a2.144,2.144,0,0,0-.585-1.414,2,2,0,0,0-3.415,1.414Z"/><path class="b" d="M51.423,167.43h.01l-1.009-.273a21.7,21.7,0,0,0,22.969-.94,2.058,2.058,0,0,0,.717-2.736,2.015,2.015,0,0,0-2.736-.718,17.226,17.226,0,0,1-9.791,3.208,18.272,18.272,0,0,1-5.153-.6,15.909,15.909,0,0,1-2.251-.765c-.859-.375-1.8-1.178-2.756-1.178-2.573,0-2.578,4,0,4Z"/><path class="b" d="M84.073,184.315c.174,10.289.21,20.58.332,30.871q.023,1.908.05,3.815.015,1.057.031,2.115.01.6.02,1.207l.008.489q-.141,1.143.592-.213c-.245-.221-1.916.059-2.258.067-1.055.025-2.11.043-3.166.047-3.969.017-8.291.181-11.789-1.938a7.19,7.19,0,0,1-3.178-4.658,36.995,36.995,0,0,1-1.04-6.365,2,2,0,0,0-4,0,36.865,36.865,0,0,1-.864,5.585,8.308,8.308,0,0,1-2.119,4.453c-2.9,2.852-7.487,2.875-11.263,2.918-1.983.023-3.966-.011-5.948-.069a3.4,3.4,0,0,0-1.014-.032c-.3.12-.226-.074,0,.091.7.514.256.157.392-.229a8.7,8.7,0,0,0,.038-2.186l.042-2.376q.141-8.056.291-16.114.169-9.32.331-18.641c.044-2.575-3.956-2.575-4,0q-.315,18.446-.66,36.89c-.025,1.46-.4,3.377.279,4.721a3.474,3.474,0,0,0,3.178,1.84c2.115.123,4.251.12,6.369.11,4.521-.02,9.747-.172,13.513-3.016,4.261-3.217,5.134-8.917,5.437-13.945h-4a44.186,44.186,0,0,0,1.067,6.925,11.911,11.911,0,0,0,2.827,5.674c3.435,3.684,8.9,4.255,13.654,4.346,2.26.044,4.522,0,6.781-.062a5.778,5.778,0,0,0,2.942-.508c1.582-.982,1.578-2.632,1.552-4.29-.095-5.875-.149-11.75-.2-17.625-.054-6.633-.116-13.265-.228-19.9-.043-2.572-4.043-2.58-4,0Z"/><path class="b" d="M72.831,161.9a61.715,61.715,0,0,1,10.146,4.429,19.235,19.235,0,0,1,7.094,7.193,24.11,24.11,0,0,1,2.12,5.427c.771,2.6,1.371,5.246,1.905,7.9a269.211,269.211,0,0,1,4.226,33.135q.054.725.1,1.447c.016.242-.066.95.072,1.142.083.115.788-.087.294-.156a4.171,4.171,0,0,0-.807.065c-.745.054-1.492.092-2.238.127-3.275.154-6.552.235-9.829.313-2.57.06-2.579,4.061,0,4,3.076-.073,6.152-.152,9.226-.286,1.3-.057,2.607-.1,3.9-.244a3.669,3.669,0,0,0,3.445-3.95c-.158-4.8-.751-9.622-1.271-14.389-.72-6.616-1.583-13.228-2.786-19.774-.977-5.318-2.042-10.867-4.39-15.781-3.891-8.142-12.155-11.571-20.147-14.456-2.426-.876-3.471,2.988-1.064,3.857Z"/><path class="b" d="M49.721,158.045a67.4,67.4,0,0,0-11.1,4.833,23.418,23.418,0,0,0-8.367,8.35c-2.6,4.372-3.636,9.784-4.619,14.7A276.748,276.748,0,0,0,21.207,221.2c-.107,1.565-.184,3.065,1.06,4.26,1.224,1.175,3.294,1.037,4.885,1.12,3.513.183,7.031.266,10.547.349,2.575.06,2.574-3.94,0-4-2.869-.068-5.738-.143-8.6-.26-1.33-.054-2.663-.107-3.99-.22-.149-.013-.922-.032-.277.085.53.1.141.254.3-.085a4.113,4.113,0,0,0,.075-1.169c.323-4.755.779-9.5,1.308-14.24.673-6.02,1.48-12.031,2.586-17.988.516-2.78,1.095-5.551,1.821-8.284.311-1.173.65-2.34,1.036-3.491a25.225,25.225,0,0,1,1-2.587,18.651,18.651,0,0,1,6.464-7.6A52.671,52.671,0,0,1,50.785,161.9c2.4-.867,1.366-4.734-1.064-3.857Z"/><path class="b" d="M39.523,129.48c-.69-5.443-.658-11.306,1.694-16.383a19.724,19.724,0,0,1,8.5-9.075c10.075-5.611,24.091-3.7,30.567,6.444a27.528,27.528,0,0,1,3.611,8.987,17.33,17.33,0,0,1,.49,4.472,48.693,48.693,0,0,1-.683,5.024,2.065,2.065,0,0,0,1.4,2.46,2.016,2.016,0,0,0,2.461-1.4c.513-3.4,1.054-6.532.506-9.967a32.232,32.232,0,0,0-3.005-9.258A25.043,25.043,0,0,0,70.911,98.374c-11.466-3.9-25.783.037-32.125,10.758-3.613,6.107-4.138,13.447-3.263,20.348a2.064,2.064,0,0,0,2,2,2.012,2.012,0,0,0,2-2Z"/><path class="a" d="M68.976,113.92c-6.443,6.1-21.477,14.019-26.6,14.848a4.669,4.669,0,0,0-4.951,2.111,6.366,6.366,0,0,0,.221,6.17,10.054,10.054,0,0,0,5.327,4.295,21.9,21.9,0,0,0,4.355,7.486,17.416,17.416,0,0,0,10.095,5.748,30.885,30.885,0,0,0,4.514.435,27.473,27.473,0,0,0,4.892-.5,17.146,17.146,0,0,0,9.648-5.833,21.873,21.873,0,0,0,4.266-7.518c.1-.043.195-.078.195-.078a10.1,10.1,0,0,0,4.93-3.953,6.367,6.367,0,0,0,.414-6.16,4.661,4.661,0,0,0-5.284-2.168A29.215,29.215,0,0,1,73.246,122a23.731,23.731,0,0,1-4.27-8.078"/><path class="b" d="M81.526,130.736c.161-.044.32-.075.484-.111-.457.1.018.013.126.011.166,0,.33.009.5.018-.276-.014-.175-.03.042.017a4.675,4.675,0,0,1,.481.13c.184.06.314.132.064.01.15.073.3.148.441.234.059.035.479.351.14.068.128.107.251.217.368.336.073.074.36.461.116.107.08.116.156.234.225.356.046.078.088.157.127.238l-.02-.053a5.82,5.82,0,0,1,.264.987c-.078-.409,0,.167.006.219.008.19.006.381,0,.571,0,.086-.077.629-.011.231q-.039.237-.1.471c-.044.188-.1.373-.157.557-.037.113-.145.412-.037.151a6.1,6.1,0,0,1-.548,1c-.006.009-.356.5-.14.219-.118.155-.247.3-.378.446a9.713,9.713,0,0,1-.768.764c-.123.109-.248.217-.376.321.261-.212-.173.124-.227.162a10.45,10.45,0,0,1-1,.614c-.17.092-.344.174-.517.259-.38.184.2-.073-.223.088a2.045,2.045,0,0,0-1.4,2.46,2.022,2.022,0,0,0,2.46,1.4c3.974-1.5,7.469-5.045,7.425-9.525a6.9,6.9,0,0,0-2.8-5.623,6.71,6.71,0,0,0-5.63-.99,2,2,0,1,0,1.064,3.857Z"/><path class="b" d="M43.3,126.948a6.705,6.705,0,0,0-5.652.862,6.936,6.936,0,0,0-2.92,5.565c-.184,4.489,3.277,8.092,7.184,9.707a2,2,0,0,0,2.46-1.4,2.062,2.062,0,0,0-1.4-2.46c.362.15-.193-.1-.213-.11q-.26-.129-.51-.275a10.472,10.472,0,0,1-.9-.587c-.11-.082-.106-.077.013.013-.078-.061-.154-.124-.229-.189q-.189-.161-.37-.328a11.535,11.535,0,0,1-.815-.855c-.4-.457.177.283-.165-.21-.11-.158-.218-.317-.319-.481q-.124-.2-.235-.414c-.045-.083-.088-.169-.128-.255.06.156.065.169.014.037a6.714,6.714,0,0,1-.3-1.013c-.008-.038-.088-.632-.051-.228-.018-.192-.032-.382-.036-.574s.011-.38.015-.571c.008-.37-.043.085.012-.123a7.616,7.616,0,0,1,.277-.985c-.15.364.076-.116.118-.188s.352-.476.072-.148c.109-.127.219-.25.34-.367.077-.073.466-.351.109-.11.115-.077.23-.154.35-.224.051-.029.519-.263.282-.157s.176-.058.228-.074c.159-.05.321-.084.483-.123.5-.119-.383,0,.126-.014.166,0,.331,0,.5,0,.419,0-.316-.107.124.009.16.042.321.078.48.126a2.018,2.018,0,0,0,2.46-1.4,2.041,2.041,0,0,0-1.4-2.46Z"/><path class="b" d="M78.81,140.635a19.367,19.367,0,0,1-6.588,9.323,17.012,17.012,0,0,1-10.289,3.055,17.622,17.622,0,0,1-10.542-3.14,19.017,19.017,0,0,1-6.5-9.088c-.843-2.415-4.708-1.376-3.858,1.064,2.32,6.652,7.406,12.476,14.381,14.336,7.046,1.878,15.056.73,20.6-4.185a23.993,23.993,0,0,0,6.66-10.3c.827-2.444-3.035-3.493-3.858-1.064Z"/><path class="b" d="M66.588,133.433a3.852,3.852,0,0,1,.951-3.093,2.942,2.942,0,0,1,2.013-.858,3.158,3.158,0,0,1,2.637,1.236,3.871,3.871,0,0,1-.083,4.514,3.005,3.005,0,0,1-4.051.66A3.3,3.3,0,0,1,66.588,133.433Z"/><path class="b" d="M51.244,133.433a3.852,3.852,0,0,1,.951-3.093,2.941,2.941,0,0,1,2.013-.858,3.156,3.156,0,0,1,2.636,1.236,3.87,3.87,0,0,1-.083,4.514,3,3,0,0,1-4.05.66A3.3,3.3,0,0,1,51.244,133.433Z"/><path class="b" d="M67.562,112.506A63.72,63.72,0,0,1,54.7,121.3c-3.852,2.135-7.981,4.421-12.307,5.432-2.506.585-1.446,4.442,1.063,3.857,4.644-1.085,9.125-3.542,13.263-5.835a67.9,67.9,0,0,0,13.67-9.424c1.882-1.765-.951-4.589-2.828-2.828Z"/><path class="b" d="M82,127.081a23.27,23.27,0,0,1-3.714-2.7c-.661-.575-1.3-1.176-1.911-1.805q-.436-.451-.849-.923c-.12-.137-.238-.275-.354-.416.006.008-.385-.495-.2-.251a30.365,30.365,0,0,1-2.8-4.374q-.212-.411-.4-.832c-.018-.04-.249-.581-.079-.168-.054-.131-.107-.264-.159-.4-.233-.6-.435-1.213-.623-1.83a2,2,0,1,0-3.857,1.063,28.771,28.771,0,0,0,12.937,16.083c2.23,1.3,4.246-2.16,2.018-3.453Z"/><path class="b" d="M86.865,126.456a5.809,5.809,0,0,1,6.2,1.87c1.23,1.583,1.209,3.784,1.517,5.773.744,4.8,2,10.447,7.039,12.387l-1.4-2.46c-.692,1.944-4.879,2.491-6.543,2.559a12.039,12.039,0,0,1-6.147-1.814c-1.717-.926-3.71-2.416-4.473-4.295a2.064,2.064,0,0,0-2.46-1.4,2.014,2.014,0,0,0-1.4,2.46,13.578,13.578,0,0,0,5.808,6.405,16.337,16.337,0,0,0,8.669,2.641c3.876-.156,8.957-1.439,10.4-5.5a2.041,2.041,0,0,0-1.4-2.46c-1.908-.734-2.751-3.065-3.269-4.861a59.673,59.673,0,0,1-1.41-7.674,9.1,9.1,0,0,0-3.416-5.831A9.975,9.975,0,0,0,85.8,122.6c-2.5.625-1.438,4.484,1.064,3.857Z"/><path class="b" d="M71.991,159.442a179.434,179.434,0,0,1-11.982,28.717c-1.21,2.271,2.241,4.294,3.454,2.019a185.592,185.592,0,0,0,12.385-29.673c.8-2.452-3.06-3.5-3.857-1.063Z"/><path class="b" d="M72.31,189.374c2.509-3.524,4.862-7.146,7.154-10.813a26.879,26.879,0,0,0,2.576-4.194,3.244,3.244,0,0,0-.829-3.341c-.816-1.046-1.663-2.069-2.508-3.092v2.828c1.261-1.549,2.492-3.134,3.844-4.6,1.739-1.893-1.082-4.729-2.828-2.829-1.352,1.472-2.583,3.057-3.844,4.606a2.077,2.077,0,0,0,0,2.828c.477.578.954,1.154,1.425,1.735.31.381.966,1,1.034,1.379v-1.063a6.056,6.056,0,0,1-.78,1.272q-.5.785-.99,1.572c-.691,1.1-1.379,2.208-2.075,3.308q-2.706,4.269-5.633,8.39a2.016,2.016,0,0,0,.718,2.737,2.043,2.043,0,0,0,2.736-.718Z"/><path class="b" d="M47.624,160.505a185.592,185.592,0,0,0,12.385,29.673c1.212,2.273,4.666.254,3.454-2.019a179.434,179.434,0,0,1-11.982-28.717c-.8-2.436-4.66-1.394-3.857,1.063Z"/><path class="b" d="M54.758,188.841q-3.11-4.368-5.975-8.9c-.739-1.167-1.469-2.339-2.2-3.509q-.485-.773-.971-1.543a6.329,6.329,0,0,1-.92-1.5v1.064c.08-.448.823-1.141,1.128-1.517.5-.617,1.007-1.228,1.512-1.84a2.078,2.078,0,0,0,0-2.829c-1.337-1.643-2.643-3.325-4.078-4.886-1.745-1.9-4.568.935-2.828,2.828,1.434,1.561,2.74,3.243,4.078,4.887v-2.829c-.848,1.027-1.7,2.053-2.52,3.1-.792,1.009-1.489,2-1.1,3.351a10.009,10.009,0,0,0,1.35,2.319c.5.783.986,1.569,1.478,2.356,2.431,3.89,4.928,7.733,7.589,11.471a2.056,2.056,0,0,0,2.737.718,2.017,2.017,0,0,0,.717-2.737Z"/><path class="b" d="M350.016,241.954H228.4a2.029,2.029,0,0,0-2,2v96.9a2.028,2.028,0,0,0,2,2H350.016a2.029,2.029,0,0,0,2-2v-96.9c0-2.574-4-2.578-4,0v96.9l2-2H228.4l2,2v-96.9l-2,2H350.016C352.589,245.954,352.594,241.954,350.016,241.954Z"/><path class="e" d="M218.675,137.617c-9.458,5.1-19.71,11.036-30.468,13.708a1,1,0,0,0,.012,1.942l9.282,2.267a1.007,1.007,0,0,1,.55,1.61c-14.9,18.132-42.548,35.032-66.81,45.031a1.21,1.21,0,0,0,.722,2.3c15.677-2.948,34.46-9.123,43.484-13.974,11.786-6.336,23.639-14.156,30.535-23.219a.964.964,0,0,1,1.585.175c1.419,2.482,3.491,5.775,5.409,8.971a1,1,0,0,0,1.836-.3,364.62,364.62,0,0,0,5.327-37.54A1,1,0,0,0,218.675,137.617Z"/><path class="f" d="M216.207,106.087h0a21.145,21.145,0,0,1,4.722-8.486,15.024,15.024,0,0,1,8.473-4.592v0a16.1,16.1,0,0,1-8.928-4.662c-2.477-2.674-4-8.546-4.261-9.057-.215.512-2.03,6.428-4.508,9.1a15.358,15.358,0,0,1-8.7,4.617h0a14.121,14.121,0,0,1,8.586,4.628A23.668,23.668,0,0,1,216.207,106.087Z"/><path class="b" d="M216.207,108.087h0a2.029,2.029,0,0,0,1.929-1.468,15.427,15.427,0,0,1,11.8-11.681,2.018,2.018,0,0,0,1.468-1.929v0a2.01,2.01,0,0,0-1.468-1.928c-3.462-.553-7.12-2.362-8.973-5.443-1.4-2.322-1.933-4.918-3.021-7.357-.782-1.755-3.1-.925-3.655.477a41.479,41.479,0,0,1-3.042,6.922,12.648,12.648,0,0,1-8.768,5.4,2.012,2.012,0,0,0-1.469,1.928h0a2.015,2.015,0,0,0,1.469,1.929,12.843,12.843,0,0,1,7.559,3.951,19,19,0,0,1,4.243,7.732c.6,2.5,4.463,1.441,3.857-1.064a23.273,23.273,0,0,0-5.272-9.5,16.313,16.313,0,0,0-9.324-4.98l1.468,1.928h0l-1.468,1.929a16.518,16.518,0,0,0,10.813-6.706c1.759-2.572,2.658-5.545,3.791-8.41l-3.655.478c-.217-.486-.127-.309-.018.036.072.231.15.461.225.691.246.748.5,1.492.78,2.228a23.117,23.117,0,0,0,2.541,5.187,16.847,16.847,0,0,0,10.856,6.5L227.4,93.006v0l1.469-1.928c-7.088,1.32-12.975,7.489-14.592,14.474l1.928-1.468h0C213.633,104.067,213.63,108.067,216.207,108.087Z"/><path class="f" d="M344.016,43.816h0a21.145,21.145,0,0,1,4.722-8.486,15.024,15.024,0,0,1,8.473-4.592v0a16.1,16.1,0,0,1-8.928-4.662c-2.477-2.674-4.005-8.546-4.261-9.057-.215.512-2.03,6.428-4.508,9.1a15.358,15.358,0,0,1-8.7,4.617h0a14.121,14.121,0,0,1,8.586,4.628A23.668,23.668,0,0,1,344.016,43.816Z"/><path class="b" d="M344.016,45.816h0a2.029,2.029,0,0,0,1.929-1.468,15.427,15.427,0,0,1,11.8-11.681,2.018,2.018,0,0,0,1.468-1.929v0a2.012,2.012,0,0,0-1.468-1.929c-3.462-.552-7.12-2.361-8.973-5.442-1.4-2.322-1.933-4.918-3.021-7.357-.782-1.755-3.1-.925-3.655.477a41.479,41.479,0,0,1-3.042,6.922,12.648,12.648,0,0,1-8.768,5.4,2.012,2.012,0,0,0-1.469,1.928h0a2.015,2.015,0,0,0,1.469,1.929,12.843,12.843,0,0,1,7.559,3.951,19,19,0,0,1,4.243,7.732c.6,2.5,4.463,1.441,3.857-1.064a23.273,23.273,0,0,0-5.272-9.5,16.313,16.313,0,0,0-9.324-4.98l1.468,1.928h0l-1.468,1.929a16.518,16.518,0,0,0,10.813-6.706c1.759-2.573,2.658-5.545,3.791-8.41l-3.655.477c-.217-.485-.127-.308-.018.037.072.231.149.461.225.691.246.748.5,1.492.78,2.228a23.117,23.117,0,0,0,2.541,5.187,16.847,16.847,0,0,0,10.856,6.5l-1.469-1.929v0l1.469-1.928c-7.088,1.32-12.975,7.489-14.592,14.474l1.928-1.468h0C341.442,41.8,341.439,45.8,344.016,45.816Z"/></svg>