<?xml version="1.0" encoding="us-ascii" standalone="no"?><svg xmlns="http://www.w3.org/2000/svg" xmlns:xlink="http://www.w3.org/1999/xlink" contentStyleType="text/css" height="387px" preserveAspectRatio="none" style="width:637px;height:387px;background:#FFFFFF;" version="1.1" viewBox="0 0 637 387" width="637px" zoomAndPan="magnify"><defs/><g><rect fill="#F1F1F1" height="36.2969" rx="12.5" ry="12.5" style="stroke:#181818;stroke-width:1.5;" width="40" x="321" y="174.8164"/><text fill="#000000" font-family="sans-serif" font-size="14" lengthAdjust="spacing" textLength="20" x="331" y="197.8115">OS</text><rect fill="#F1F1F1" height="36.2969" rx="12.5" ry="12.5" style="stroke:#181818;stroke-width:1.5;" width="71" x="411" y="104.4453"/><text fill="#000000" font-family="sans-serif" font-size="14" lengthAdjust="spacing" textLength="51" x="421" y="127.4404">Ubuntu</text><rect fill="#F1F1F1" height="36.2969" rx="12.5" ry="12.5" style="stroke:#181818;stroke-width:1.5;" width="93" x="532" y="20"/><text fill="#000000" font-family="sans-serif" font-size="14" lengthAdjust="spacing" textLength="73" x="542" y="42.9951">Linux Mint</text><path d="M482,122.5938 L492,122.5938 C507,122.5938 507,38.1484 522,38.1484 L532,38.1484 " fill="none" style="stroke:#181818;stroke-width:1.0;"/><rect fill="#F1F1F1" height="36.2969" rx="12.5" ry="12.5" style="stroke:#181818;stroke-width:1.5;" width="80" x="532" y="76.2969"/><text fill="#000000" font-family="sans-serif" font-size="14" lengthAdjust="spacing" textLength="60" x="542" y="99.292">Kubuntu</text><path d="M482,122.5938 L492,122.5938 C507,122.5938 507,94.4453 522,94.4453 L532,94.4453 " fill="none" style="stroke:#181818;stroke-width:1.0;"/><rect fill="#F1F1F1" height="36.2969" rx="12.5" ry="12.5" style="stroke:#181818;stroke-width:1.5;" width="78" x="532" y="132.5938"/><text fill="#000000" font-family="sans-serif" font-size="14" lengthAdjust="spacing" textLength="58" x="542" y="155.5889">Lubuntu</text><path d="M482,122.5938 L492,122.5938 C507,122.5938 507,150.7422 522,150.7422 L532,150.7422 " fill="none" style="stroke:#181818;stroke-width:1.0;"/><rect fill="#F1F1F1" height="36.2969" rx="12.5" ry="12.5" style="stroke:#181818;stroke-width:1.5;" width="91" x="532" y="188.8906"/><text fill="#000000" font-family="sans-serif" font-size="14" lengthAdjust="spacing" textLength="71" x="542" y="211.8857">KDE Neon</text><path d="M482,122.5938 L492,122.5938 C507,122.5938 507,207.0391 522,207.0391 L532,207.0391 " fill="none" style="stroke:#181818;stroke-width:1.0;"/><path d="M361,192.9648 L371,192.9648 C386,192.9648 386,122.5938 401,122.5938 L411,122.5938 " fill="none" style="stroke:#181818;stroke-width:1.0;"/><rect fill="#F1F1F1" height="36.2969" rx="12.5" ry="12.5" style="stroke:#181818;stroke-width:1.5;" width="60" x="411" y="160.7422"/><text fill="#000000" font-family="sans-serif" font-size="14" lengthAdjust="spacing" textLength="40" x="421" y="183.7373">LMDE</text><path d="M361,192.9648 L371,192.9648 C386,192.9648 386,178.8906 401,178.8906 L411,178.8906 " fill="none" style="stroke:#181818;stroke-width:1.0;"/><rect fill="#F1F1F1" height="36.2969" rx="12.5" ry="12.5" style="stroke:#181818;stroke-width:1.5;" width="79" x="411" y="217.0391"/><text fill="#000000" font-family="sans-serif" font-size="14" lengthAdjust="spacing" textLength="59" x="421" y="240.0342">SolydXK</text><path d="M361,192.9648 L371,192.9648 C386,192.9648 386,235.1875 401,235.1875 L411,235.1875 " fill="none" style="stroke:#181818;stroke-width:1.0;"/><rect fill="#F1F1F1" height="36.2969" rx="12.5" ry="12.5" style="stroke:#181818;stroke-width:1.5;" width="87" x="411" y="273.3359"/><text fill="#000000" font-family="sans-serif" font-size="14" lengthAdjust="spacing" textLength="67" x="421" y="296.3311">SteamOS</text><path d="M361,192.9648 L371,192.9648 C386,192.9648 386,291.4844 401,291.4844 L411,291.4844 " fill="none" style="stroke:#181818;stroke-width:1.0;"/><rect fill="#F1F1F1" height="36.2969" rx="12.5" ry="12.5" style="stroke:#181818;stroke-width:1.5;" width="86" x="411" y="329.6328"/><text fill="#000000" font-family="sans-serif" font-size="14" lengthAdjust="spacing" textLength="66" x="421" y="352.6279">Raspbian</text><path d="M361,192.9648 L371,192.9648 C386,192.9648 386,347.7813 401,347.7813 L411,347.7813 " fill="none" style="stroke:#181818;stroke-width:1.0;"/><rect fill="#F1F1F1" height="36.2969" rx="12.5" ry="12.5" style="stroke:#181818;stroke-width:1.5;" width="105" x="166" y="104.4453"/><text fill="#000000" font-family="sans-serif" font-size="14" lengthAdjust="spacing" textLength="85" x="176" y="127.4404">Windows 95</text><path d="M321,192.9648 L311,192.9648 C296,192.9648 296,122.5938 281,122.5938 L271,122.5938 " fill="none" style="stroke:#181818;stroke-width:1.0;"/><rect fill="#F1F1F1" height="36.2969" rx="12.5" ry="12.5" style="stroke:#181818;stroke-width:1.5;" width="104" x="167" y="160.7422"/><text fill="#000000" font-family="sans-serif" font-size="14" lengthAdjust="spacing" textLength="84" x="177" y="183.7373">Windows 98</text><path d="M321,192.9648 L311,192.9648 C296,192.9648 296,178.8906 281,178.8906 L271,178.8906 " fill="none" style="stroke:#181818;stroke-width:1.0;"/><rect fill="#F1F1F1" height="36.2969" rx="12.5" ry="12.5" style="stroke:#181818;stroke-width:1.5;" width="106" x="165" y="217.0391"/><text fill="#000000" font-family="sans-serif" font-size="14" lengthAdjust="spacing" textLength="86" x="175" y="240.0342">Windows NT</text><rect fill="#F1F1F1" height="36.2969" rx="12.5" ry="12.5" style="stroke:#181818;stroke-width:1.5;" width="95" x="20" y="188.8906"/><text fill="#000000" font-family="sans-serif" font-size="14" lengthAdjust="spacing" textLength="75" x="30" y="211.8857">Windows 8</text><path d="M165,235.1875 L155,235.1875 C140,235.1875 140,207.0391 125,207.0391 L115,207.0391 " fill="none" style="stroke:#181818;stroke-width:1.0;"/><rect fill="#F1F1F1" height="36.2969" rx="12.5" ry="12.5" style="stroke:#181818;stroke-width:1.5;" width="105" x="10" y="245.1875"/><text fill="#000000" font-family="sans-serif" font-size="14" lengthAdjust="spacing" textLength="85" x="20" y="268.1826">Windows 10</text><path d="M165,235.1875 L155,235.1875 C140,235.1875 140,263.3359 125,263.3359 L115,263.3359 " fill="none" style="stroke:#181818;stroke-width:1.0;"/><path d="M321,192.9648 L311,192.9648 C296,192.9648 296,235.1875 281,235.1875 L271,235.1875 " fill="none" style="stroke:#181818;stroke-width:1.0;"/><!--SRC=[LP11Ry8m38Nl-HK-KbL51R69SK8RtIPe6Q8jspMb6OhMEbNgmFZtCsNJoYdlY_tydCnRafPgZMKj6-73Mofy7_B28JbMFiGQtJSa6gd3bUkLUdgrY62j35xSSRA8BcTggdFviUeaALbVPszbsnHQeWW2UETSSshXuUw6fdrQPqp_EBsXKIZcYdV_tLziAecK9p4SbMsrGHWDn-5uCWmBHN8yoF4BpGbXR-f6Lmf8ryeJWvTD3ArnTg-Wr2rPNJXYioUMyYXXou_alXbSQ90b7gJHtoL4UDJMOAtuVvQxvDe4huRInb3NV3y97ZL1gYpl1Bj4BDIdT1MnTMzAZOSPvDbpC1Mnn8EJ1mvIA9uC1zWprz8V]--></g></svg>