<?xml version="1.0" encoding="us-ascii" standalone="no"?><svg xmlns="http://www.w3.org/2000/svg" xmlns:xlink="http://www.w3.org/1999/xlink" contentStyleType="text/css" height="99px" preserveAspectRatio="none" style="width:640px;height:99px;background:#FFFFFF;" version="1.1" viewBox="0 0 640 99" width="640px" zoomAndPan="magnify"><defs/><g><line style="stroke:#333333;stroke-width:0.5;" x1="10" x2="10" y1="10" y2="70"/><line style="stroke:#333333;stroke-width:0.5;" x1="628" x2="628" y1="10" y2="70"/><line style="stroke:#333333;stroke-width:0.5;stroke-dasharray:3.0,5.0;" x1="73" x2="73" y1="10" y2="70"/><line style="stroke:#333333;stroke-width:0.5;stroke-dasharray:3.0,5.0;" x1="123" x2="123" y1="10" y2="70"/><line style="stroke:#333333;stroke-width:0.5;stroke-dasharray:3.0,5.0;" x1="173" x2="173" y1="10" y2="70"/><line style="stroke:#333333;stroke-width:0.5;stroke-dasharray:3.0,5.0;" x1="223" x2="223" y1="10" y2="70"/><line style="stroke:#333333;stroke-width:0.5;stroke-dasharray:3.0,5.0;" x1="273" x2="273" y1="10" y2="70"/><line style="stroke:#333333;stroke-width:0.5;stroke-dasharray:3.0,5.0;" x1="323" x2="323" y1="10" y2="70"/><line style="stroke:#333333;stroke-width:0.5;stroke-dasharray:3.0,5.0;" x1="373" x2="373" y1="10" y2="70"/><line style="stroke:#333333;stroke-width:0.5;stroke-dasharray:3.0,5.0;" x1="423" x2="423" y1="10" y2="70"/><line style="stroke:#333333;stroke-width:0.5;stroke-dasharray:3.0,5.0;" x1="473" x2="473" y1="10" y2="70"/><line style="stroke:#333333;stroke-width:0.5;stroke-dasharray:3.0,5.0;" x1="523" x2="523" y1="10" y2="70"/><line style="stroke:#333333;stroke-width:0.5;stroke-dasharray:3.0,5.0;" x1="573" x2="573" y1="10" y2="70"/><line style="stroke:#333333;stroke-width:0.5;stroke-dasharray:3.0,5.0;" x1="623" x2="623" y1="10" y2="70"/><line style="stroke:#333333;stroke-width:0.5;" x1="10" x2="628" y1="10" y2="10"/><line style="stroke:#006400;stroke-width:1.5;" x1="73" x2="73" y1="18" y2="32"/><line style="stroke:#006400;stroke-width:1.5;" x1="73" x2="98" y1="18" y2="18"/><line style="stroke:#006400;stroke-width:1.5;" x1="98" x2="98" y1="18" y2="32"/><line style="stroke:#006400;stroke-width:1.5;" x1="98" x2="123" y1="32" y2="32"/><line style="stroke:#006400;stroke-width:1.5;" x1="123" x2="123" y1="18" y2="32"/><line style="stroke:#006400;stroke-width:1.5;" x1="123" x2="148" y1="18" y2="18"/><line style="stroke:#006400;stroke-width:1.5;" x1="148" x2="148" y1="18" y2="32"/><line style="stroke:#006400;stroke-width:1.5;" x1="148" x2="173" y1="32" y2="32"/><line style="stroke:#006400;stroke-width:1.5;" x1="173" x2="173" y1="18" y2="32"/><line style="stroke:#006400;stroke-width:1.5;" x1="173" x2="198" y1="18" y2="18"/><line style="stroke:#006400;stroke-width:1.5;" x1="198" x2="198" y1="18" y2="32"/><line style="stroke:#006400;stroke-width:1.5;" x1="198" x2="223" y1="32" y2="32"/><line style="stroke:#006400;stroke-width:1.5;" x1="223" x2="223" y1="18" y2="32"/><line style="stroke:#006400;stroke-width:1.5;" x1="223" x2="248" y1="18" y2="18"/><line style="stroke:#006400;stroke-width:1.5;" x1="248" x2="248" y1="18" y2="32"/><line style="stroke:#006400;stroke-width:1.5;" x1="248" x2="273" y1="32" y2="32"/><line style="stroke:#006400;stroke-width:1.5;" x1="273" x2="273" y1="18" y2="32"/><line style="stroke:#006400;stroke-width:1.5;" x1="273" x2="298" y1="18" y2="18"/><line style="stroke:#006400;stroke-width:1.5;" x1="298" x2="298" y1="18" y2="32"/><line style="stroke:#006400;stroke-width:1.5;" x1="298" x2="323" y1="32" y2="32"/><line style="stroke:#006400;stroke-width:1.5;" x1="323" x2="323" y1="18" y2="32"/><line style="stroke:#006400;stroke-width:1.5;" x1="323" x2="348" y1="18" y2="18"/><line style="stroke:#006400;stroke-width:1.5;" x1="348" x2="348" y1="18" y2="32"/><line style="stroke:#006400;stroke-width:1.5;" x1="348" x2="373" y1="32" y2="32"/><line style="stroke:#006400;stroke-width:1.5;" x1="373" x2="373" y1="18" y2="32"/><line style="stroke:#006400;stroke-width:1.5;" x1="373" x2="398" y1="18" y2="18"/><line style="stroke:#006400;stroke-width:1.5;" x1="398" x2="398" y1="18" y2="32"/><line style="stroke:#006400;stroke-width:1.5;" x1="398" x2="423" y1="32" y2="32"/><line style="stroke:#006400;stroke-width:1.5;" x1="423" x2="423" y1="18" y2="32"/><line style="stroke:#006400;stroke-width:1.5;" x1="423" x2="448" y1="18" y2="18"/><line style="stroke:#006400;stroke-width:1.5;" x1="448" x2="448" y1="18" y2="32"/><line style="stroke:#006400;stroke-width:1.5;" x1="448" x2="473" y1="32" y2="32"/><line style="stroke:#006400;stroke-width:1.5;" x1="473" x2="473" y1="18" y2="32"/><line style="stroke:#006400;stroke-width:1.5;" x1="473" x2="498" y1="18" y2="18"/><line style="stroke:#006400;stroke-width:1.5;" x1="498" x2="498" y1="18" y2="32"/><line style="stroke:#006400;stroke-width:1.5;" x1="498" x2="523" y1="32" y2="32"/><line style="stroke:#006400;stroke-width:1.5;" x1="523" x2="523" y1="18" y2="32"/><line style="stroke:#006400;stroke-width:1.5;" x1="523" x2="548" y1="18" y2="18"/><line style="stroke:#006400;stroke-width:1.5;" x1="548" x2="548" y1="18" y2="32"/><line style="stroke:#006400;stroke-width:1.5;" x1="548" x2="573" y1="32" y2="32"/><line style="stroke:#006400;stroke-width:1.5;" x1="573" x2="573" y1="18" y2="32"/><line style="stroke:#006400;stroke-width:1.5;" x1="573" x2="598" y1="18" y2="18"/><line style="stroke:#006400;stroke-width:1.5;" x1="598" x2="598" y1="18" y2="32"/><line style="stroke:#006400;stroke-width:1.5;" x1="598" x2="623" y1="32" y2="32"/><line style="stroke:#006400;stroke-width:1.5;" x1="623" x2="623" y1="18" y2="32"/><line style="stroke:#006400;stroke-width:1.5;" x1="623" x2="623" y1="18" y2="18"/><line style="stroke:#333333;stroke-width:0.5;" x1="10" x2="628" y1="40" y2="40"/><text fill="#333333" font-family="sans-serif" font-size="14" font-weight="bold" lengthAdjust="spacing" textLength="53" x="15" y="59.8467">Enable</text><line style="stroke:#006400;stroke-width:2.0;" x1="73" x2="73" y1="62" y2="62"/><line style="stroke:#006400;stroke-width:2.0;" x1="73" x2="323" y1="62" y2="62"/><line style="stroke:#006400;stroke-width:2.0;" x1="323" x2="323" y1="48" y2="62"/><line style="stroke:#006400;stroke-width:2.0;" x1="323" x2="573" y1="48" y2="48"/><line style="stroke:#006400;stroke-width:2.0;" x1="573" x2="573" y1="48" y2="62"/><line style="stroke:#006400;stroke-width:2.0;" x1="573" x2="623" y1="62" y2="62"/><line style="stroke:#333333;stroke-width:2.0;" x1="73" x2="73" y1="70" y2="75"/><line style="stroke:#333333;stroke-width:2.0;" x1="123" x2="123" y1="70" y2="75"/><line style="stroke:#333333;stroke-width:2.0;" x1="173" x2="173" y1="70" y2="75"/><line style="stroke:#333333;stroke-width:2.0;" x1="223" x2="223" y1="70" y2="75"/><line style="stroke:#333333;stroke-width:2.0;" x1="273" x2="273" y1="70" y2="75"/><line style="stroke:#333333;stroke-width:2.0;" x1="323" x2="323" y1="70" y2="75"/><line style="stroke:#333333;stroke-width:2.0;" x1="373" x2="373" y1="70" y2="75"/><line style="stroke:#333333;stroke-width:2.0;" x1="423" x2="423" y1="70" y2="75"/><line style="stroke:#333333;stroke-width:2.0;" x1="473" x2="473" y1="70" y2="75"/><line style="stroke:#333333;stroke-width:2.0;" x1="523" x2="523" y1="70" y2="75"/><line style="stroke:#333333;stroke-width:2.0;" x1="573" x2="573" y1="70" y2="75"/><line style="stroke:#333333;stroke-width:2.0;" x1="623" x2="623" y1="70" y2="75"/><line style="stroke:#333333;stroke-width:2.0;" x1="73" x2="623" y1="70" y2="70"/><text fill="#333333" font-family="sans-serif" font-size="11" lengthAdjust="spacing" textLength="7" x="69.5" y="86.2104">0</text><text fill="#333333" font-family="sans-serif" font-size="11" lengthAdjust="spacing" textLength="7" x="119.5" y="86.2104">1</text><text fill="#333333" font-family="sans-serif" font-size="11" lengthAdjust="spacing" textLength="7" x="319.5" y="86.2104">5</text><text fill="#333333" font-family="sans-serif" font-size="11" lengthAdjust="spacing" textLength="14" x="566" y="86.2104">10</text><!--SRC=[Iyx9JyvMICx9LYZFBCbGA4WjoinFKJ3aIihCIoogL51opKjCoabLKaWiLd3ru-9oCE1ozLF8B5R8oIy7yaoXl8pCz0mWrn195W00]--></g></svg>