<?xml version="1.0" encoding="us-ascii" standalone="no"?><svg xmlns="http://www.w3.org/2000/svg" xmlns:xlink="http://www.w3.org/1999/xlink" contentStyleType="text/css" height="218px" preserveAspectRatio="none" style="width:184px;height:218px;background:#FFFFFF;" version="1.1" viewBox="0 0 184 218" width="184px" zoomAndPan="magnify"><defs/><g><!--class Object--><g id="elem_Object"><rect fill="#F1F1F1" height="64.2969" id="Object" rx="2.5" ry="2.5" style="stroke:#181818;stroke-width:0.5;" width="81" x="51.5" y="7"/><ellipse cx="66.5" cy="23" fill="#ADD1B2" rx="11" ry="11" style="stroke:#181818;stroke-width:1.0;"/><path d="M68.8438,18.6719 C67.9063,18.2344 67.3125,18.0938 66.4375,18.0938 C63.8125,18.0938 61.8125,20.1719 61.8125,22.8906 L61.8125,24.0156 C61.8125,26.5938 63.9219,28.4844 66.8125,28.4844 C68.0313,28.4844 69.1875,28.1875 69.9375,27.6406 C70.5156,27.2344 70.8438,26.7813 70.8438,26.3906 C70.8438,25.9375 70.4531,25.5469 69.9844,25.5469 C69.7656,25.5469 69.5625,25.625 69.375,25.8125 C68.9219,26.2969 68.9219,26.2969 68.7344,26.3906 C68.3125,26.6563 67.625,26.7813 66.8594,26.7813 C64.8125,26.7813 63.5156,25.6875 63.5156,23.9844 L63.5156,22.8906 C63.5156,21.1094 64.7656,19.7969 66.5,19.7969 C67.0781,19.7969 67.6875,19.9531 68.1563,20.2031 C68.6406,20.4844 68.8125,20.7031 68.9063,21.1094 C68.9688,21.5156 69,21.6406 69.1406,21.7656 C69.2813,21.9063 69.5156,22.0156 69.7344,22.0156 C70,22.0156 70.2656,21.875 70.4375,21.6563 C70.5469,21.5 70.5781,21.3125 70.5781,20.8906 L70.5781,19.4688 C70.5781,19.0313 70.5625,18.9063 70.4688,18.75 C70.3125,18.4844 70.0313,18.3438 69.7344,18.3438 C69.4375,18.3438 69.2344,18.4375 69.0156,18.75 L68.8438,18.6719 Z " fill="#000000"/><text fill="#000000" font-family="sans-serif" font-size="14" lengthAdjust="spacing" textLength="49" x="80.5" y="27.8467">Object</text><line style="stroke:#181818;stroke-width:0.5;" x1="52.5" x2="131.5" y1="39" y2="39"/><line style="stroke:#181818;stroke-width:0.5;" x1="52.5" x2="131.5" y1="47" y2="47"/><text fill="#000000" font-family="sans-serif" font-size="14" lengthAdjust="spacing" textLength="55" x="57.5" y="63.9951">equals()</text></g><!--class ArrayList--><g id="elem_ArrayList"><rect fill="#F1F1F1" height="80.5938" id="ArrayList" rx="2.5" ry="2.5" style="stroke:#181818;stroke-width:0.5;" width="170" x="7" y="131"/><ellipse cx="55.75" cy="147" fill="#ADD1B2" rx="11" ry="11" style="stroke:#181818;stroke-width:1.0;"/><path d="M58.0938,142.6719 C57.1563,142.2344 56.5625,142.0938 55.6875,142.0938 C53.0625,142.0938 51.0625,144.1719 51.0625,146.8906 L51.0625,148.0156 C51.0625,150.5938 53.1719,152.4844 56.0625,152.4844 C57.2813,152.4844 58.4375,152.1875 59.1875,151.6406 C59.7656,151.2344 60.0938,150.7813 60.0938,150.3906 C60.0938,149.9375 59.7031,149.5469 59.2344,149.5469 C59.0156,149.5469 58.8125,149.625 58.625,149.8125 C58.1719,150.2969 58.1719,150.2969 57.9844,150.3906 C57.5625,150.6563 56.875,150.7813 56.1094,150.7813 C54.0625,150.7813 52.7656,149.6875 52.7656,147.9844 L52.7656,146.8906 C52.7656,145.1094 54.0156,143.7969 55.75,143.7969 C56.3281,143.7969 56.9375,143.9531 57.4063,144.2031 C57.8906,144.4844 58.0625,144.7031 58.1563,145.1094 C58.2188,145.5156 58.25,145.6406 58.3906,145.7656 C58.5313,145.9063 58.7656,146.0156 58.9844,146.0156 C59.25,146.0156 59.5156,145.875 59.6875,145.6563 C59.7969,145.5 59.8281,145.3125 59.8281,144.8906 L59.8281,143.4688 C59.8281,143.0313 59.8125,142.9063 59.7188,142.75 C59.5625,142.4844 59.2813,142.3438 58.9844,142.3438 C58.6875,142.3438 58.4844,142.4375 58.2656,142.75 L58.0938,142.6719 Z " fill="#000000"/><text fill="#000000" font-family="sans-serif" font-size="14" lengthAdjust="spacing" textLength="64" x="76.25" y="151.8467">ArrayList</text><line style="stroke:#181818;stroke-width:0.5;" x1="8" x2="176" y1="163" y2="163"/><text fill="#000000" font-family="sans-serif" font-size="14" lengthAdjust="spacing" textLength="158" x="13" y="179.9951">Object[] elementData</text><line style="stroke:#181818;stroke-width:0.5;" x1="8" x2="176" y1="187.2969" y2="187.2969"/><text fill="#000000" font-family="sans-serif" font-size="14" lengthAdjust="spacing" textLength="38" x="13" y="204.292">size()</text></g><!--reverse link Object to ArrayList--><g id="link_Object_ArrayList"><path codeLine="1" d="M92,89.258 C92,107.054 92,111.529 92,130.5894 " fill="none" id="Object-backto-ArrayList" style="stroke:#181818;stroke-width:1.0;"/><polygon fill="none" points="92,71.258,86,89.258,98,89.258,92,71.258" style="stroke:#181818;stroke-width:1.0;"/></g><!--SRC=[yq_AIaqkKR2fqTLLS2mgIgpqoImkuUBoXmXRAQGMbYRc56jeSi4bWO8GsUXOXTISrDpKl1ANn99450N5cLMf6fe0]--></g></svg>