<?xml version="1.0" encoding="us-ascii" standalone="no"?><svg xmlns="http://www.w3.org/2000/svg" xmlns:xlink="http://www.w3.org/1999/xlink" contentStyleType="text/css" height="354px" preserveAspectRatio="none" style="width:246px;height:354px;background:#FFFFFF;" version="1.1" viewBox="0 0 246 354" width="246px" zoomAndPan="magnify"><defs/><g><ellipse cx="105.5" cy="16" fill="#222222" rx="10" ry="10" style="stroke:#222222;stroke-width:1.0;"/><rect fill="#F1F1F1" height="33.9688" rx="12.5" ry="12.5" style="stroke:#181818;stroke-width:0.5;" width="89" x="61" y="67"/><text fill="#000000" font-family="sans-serif" font-size="12" lengthAdjust="spacing" textLength="69" x="71" y="88.1387">Initialization</text><g id="elem_#5"><polygon fill="#F1F1F1" points="105.5,142,117.5,154,105.5,166,93.5,154,105.5,142" style="stroke:#181818;stroke-width:0.5;"/></g><rect fill="#F1F1F1" height="33.9688" rx="12.5" ry="12.5" style="stroke:#181818;stroke-width:0.5;" width="102" x="10.5" y="240"/><text fill="#000000" font-family="sans-serif" font-size="12" lengthAdjust="spacing" textLength="82" x="20.5" y="261.1387">Some Activity</text><rect fill="#F1F1F1" height="33.9688" rx="12.5" ry="12.5" style="stroke:#181818;stroke-width:0.5;" width="113" x="7" y="315"/><text fill="#000000" font-family="sans-serif" font-size="12" lengthAdjust="spacing" textLength="93" x="17" y="336.1387">Another activity</text><ellipse cx="151.5" cy="332" fill="none" rx="11" ry="11" style="stroke:#222222;stroke-width:1.0;"/><ellipse cx="151.5" cy="332" fill="#222222" rx="6" ry="6" style="stroke:#222222;stroke-width:1.0;"/><rect fill="#F1F1F1" height="33.9688" rx="12.5" ry="12.5" style="stroke:#181818;stroke-width:0.5;" width="114" x="94.5" y="186"/><text fill="#000000" font-family="sans-serif" font-size="12" lengthAdjust="spacing" textLength="94" x="104.5" y="207.1387">Something else</text><!--link start to Initialization--><g id="link_start_Initialization"><path d="M105.5,26.177 C105.5,36.661 105.5,48.015 105.5,60.791 " fill="none" id="start-to-Initialization" style="stroke:#181818;stroke-width:1.0;"/><polygon fill="#181818" points="105.5,66.791,109.5,57.791,105.5,61.791,101.5,57.791,105.5,66.791" style="stroke:#181818;stroke-width:1.0;"/></g><!--link Initialization to #5--><g id="link_Initialization_#5"><path d="M105.5,101.115 C105.5,113.683 105.5,124.808 105.5,135.885 " fill="none" id="Initialization-to-#5" style="stroke:#181818;stroke-width:1.0;"/><polygon fill="#181818" points="105.5,141.885,109.5,132.885,105.5,136.885,101.5,132.885,105.5,141.885" style="stroke:#181818;stroke-width:1.0;"/><text fill="#000000" font-family="sans-serif" font-size="11" lengthAdjust="spacing" textLength="63" x="27.1438" y="131.4605">Some Test</text></g><!--link #5 to Some Activity--><g id="link_#5_Some Activity"><path d="M97.1632,157.806 C86.2174,161.995 67.4603,171.036 59.5,186 C50.5925,202.744 51.9251,219.2308 55.3868,234.1218 " fill="none" id="#5-to-Some Activity" style="stroke:#181818;stroke-width:1.0;"/><polygon fill="#181818" points="56.7454,239.966,58.6036,230.294,55.6132,235.0959,50.8114,232.1055,56.7454,239.966" style="stroke:#181818;stroke-width:1.0;"/><text fill="#000000" font-family="sans-serif" font-size="11" lengthAdjust="spacing" textLength="23" x="60.5" y="207.2104">true</text></g><!--link Some Activity to Another activity--><g id="link_Some Activity_Another activity"><path d="M61.9439,274.2011 C62.2753,286.2984 62.5618,296.7601 62.893,308.8465 " fill="none" id="Some Activity-to-Another activity" style="stroke:#181818;stroke-width:1.0;"/><polygon fill="#181818" points="63.0574,314.8442,66.8094,305.738,62.9204,309.8461,58.8124,305.9571,63.0574,314.8442" style="stroke:#181818;stroke-width:1.0;"/></g><!--link Another activity to end--><g id="link_Another activity_end"><path d="M120.219,332 C126.899,332 127.578,332 134.258,332 " fill="none" id="Another activity-to-end" style="stroke:#181818;stroke-width:1.0;"/><polygon fill="#181818" points="140.258,332,131.258,328,135.258,332,131.258,336,140.258,332" style="stroke:#181818;stroke-width:1.0;"/></g><!--link #5 to Something else--><g id="link_#5_Something else"><path d="M111.141,160.763 C117.186,166.94 122.8615,172.7378 131.3275,181.3888 " fill="none" id="#5-to-Something else" style="stroke:#181818;stroke-width:1.0;"/><polygon fill="#181818" points="135.524,185.677,132.088,176.4469,132.0269,182.1035,126.3704,182.0423,135.524,185.677" style="stroke:#181818;stroke-width:1.0;"/><text fill="#000000" font-family="sans-serif" font-size="11" lengthAdjust="spacing" textLength="28" x="123.425" y="169.5034">false</text></g><!--link Something else to end--><g id="link_Something else_end"><path d="M151.5,220.085 C151.5,246.65 151.5,292.9364 151.5,314.9034 " fill="none" id="Something else-to-end" style="stroke:#181818;stroke-width:1.0;"/><polygon fill="#181818" points="151.5,320.9034,155.5,311.9034,151.5,315.9034,147.5,311.9034,151.5,320.9034" style="stroke:#181818;stroke-width:1.0;"/><text fill="#000000" font-family="sans-serif" font-size="11" lengthAdjust="spacing" textLength="86" x="152.5" y="261.2104">Ending process</text></g><!--SRC=[JOon2iCm34HtVuNGb0Jo2u4C7JgtcybWKZaMf7AnbKBxzRM9Xsx7UtVN3JsCumHu5LPsEt-TSXGqXZtWBJu9xfGLGGE9WTgrcWvQcfnNvJVh1qy7E4iirGJkNoJUWXRR3RsXFLDba_Mkn7QaWMM3wjgJlSYZebUAA-MydDl2_0y0]--></g></svg>