<?xml version="1.0" standalone="no"?>
<!DOCTYPE svg PUBLIC "-//W3C//DTD SVG 1.1//EN" "http://www.w3.org/Graphics/SVG/1.1/DTD/svg11.dtd">
<!-- Created with WaveDrom -->
<svg xmlns="http://www.w3.org/2000/svg" xmlns:xlink="http://www.w3.org/1999/xlink" width="750" height="56" viewBox="0 0 750 56" class="WaveDrom"><g transform="translate(0.5,0.5)" text-anchor="middle" font-size="14" font-family="sans-serif" font-weight="normal"><g transform="translate(4,21)"><g stroke="black" stroke-width="1" stroke-linecap="round"><line x2="741"/><line y2="31"/><line x2="741" y1="31" y2="31"/><line x1="741" x2="741" y2="31"/><line x1="648" x2="648" y2="31"/><line x1="556" x2="556" y2="31"/><line x1="463" x2="463" y2="31"/><line x1="371" x2="371" y2="31"/><line x1="278" x2="278" y2="31"/><line x1="185" x2="185" y2="31"/><line x1="93" x2="93" y2="31"/></g><g><g><rect x="556" width="93" height="31" field="type 1" style="fill-opacity:0.1"/><rect x="463" width="93" height="31" field="type 2" style="fill-opacity:0.1;fill:hsl(0,100%,50%)"/><rect x="371" width="93" height="31" field="type 3" style="fill-opacity:0.1;fill:hsl(80,100%,50%)"/><rect x="278" width="93" height="31" field="type 4" style="fill-opacity:0.1;fill:hsl(170,100%,50%)"/><rect x="185" width="93" height="31" field="type 5" style="fill-opacity:0.1;fill:hsl(45,100%,50%)"/><rect x="93" width="93" height="31" field="type 6" style="fill-opacity:0.1;fill:hsl(126,100%,50%)"/><rect width="93" height="31" field="type 7" style="fill-opacity:0.1;fill:hsl(215,100%,50%)"/></g><g transform="translate(46,-11)"><g transform="translate(648)"><text y="6">0</text></g><g transform="translate(556)"><text y="6">1</text></g><g transform="translate(463)"><text y="6">2</text></g><g transform="translate(371)"><text y="6">3</text></g><g transform="translate(278)"><text y="6">4</text></g><g transform="translate(185)"><text y="6">5</text></g><g transform="translate(93)"><text y="6">6</text></g><g transform="translate(0)"><text y="6">7</text></g></g><g transform="translate(46,15)"><g transform="translate(648)"><text y="6"><tspan>no type</tspan></text></g><g transform="translate(556)"><text y="6"><tspan>type 1</tspan></text></g><g transform="translate(463)"><text y="6"><tspan>type 2</tspan></text></g><g transform="translate(371)"><text y="6"><tspan>type 3</tspan></text></g><g transform="translate(278)"><text y="6"><tspan>type 4</tspan></text></g><g transform="translate(185)"><text y="6"><tspan>type 5</tspan></text></g><g transform="translate(93)"><text y="6"><tspan>type 6</tspan></text></g><g transform="translate(0)"><text y="6"><tspan>type 7</tspan></text></g></g><g transform="translate(46,39)"/></g></g></g></svg>