<?xml version="1.0" standalone="no"?>
<!DOCTYPE svg PUBLIC "-//W3C//DTD SVG 1.1//EN" "http://www.w3.org/Graphics/SVG/1.1/DTD/svg11.dtd">
<!-- Created with WaveDrom -->
<svg xmlns="http://www.w3.org/2000/svg" xmlns:xlink="http://www.w3.org/1999/xlink" id="svgcontent_0" viewBox="0 0 225 177" width="225" height="177" class="WaveDrom"><style>.pinname {font-size:12px; font-style:normal; font-variant:normal; font-weight:500; font-stretch:normal; text-align:center; text-anchor:end; font-family:Helvetica} .wirename {font-size:12px; font-style:normal; font-variant:normal; font-weight:500; font-stretch:normal; text-align:center; text-anchor:start; font-family:Helvetica} .wirename:hover {fill:blue} .gate {color:#000; fill:#ffc; fill-opacity: 1;stroke:#000; stroke-width:1; stroke-opacity:1} .gate:hover {fill:red !important; } .wire {fill:none; stroke:#000; stroke-width:1; stroke-opacity:1} .grid {fill:#fff; fill-opacity:1; stroke:none}</style><g transform="translate(0.5, 0.5)"><g><g><g><g transform="translate(16,0)"><path d="M160,88 160,88" class="wire"/></g><g><path d="m160,88 16,0" class="wire"/></g><g transform="translate(192,88)"><title><tspan>z</tspan></title><text x="-14" y="4" class="wirename"><tspan>z</tspan></text></g></g><g><g><g transform="translate(16,0)"><path d="M128,24 128,160" class="wire"/></g><g><path d="m128,24 16,0" class="wire"/></g><g><path d="m128,56 16,0" class="wire"/></g><g><path d="m128,88 16,0" class="wire"/></g><g><path d="m128,112 16,0" class="wire"/></g><g><path d="m128,136 16,0" class="wire"/></g><g><path d="m128,160 16,0" class="wire"/></g><g transform="translate(160,88)"><title><tspan>~&amp;</tspan></title><path class="gate" d="m -16,-10 5,0 c 6,0 11,4 11,10 0,6 -5,10 -11,10 l -5,0 zM 4,0 C 4,1.1 3.1,2 2,2 0.9,2 0,1.1 0,0 c 0,-1.1 0.9,-2 2,-2 1.1,0 2,0.9 2,2 z"/></g></g><g><g><g transform="translate(16,0)"><path d="M96,16 96,32" class="wire"/></g><g><path d="m96,16 16,0" class="wire"/></g><g><path d="m96,32 16,0" class="wire"/></g><g transform="translate(128,24)"><title><tspan>~^</tspan></title><path class="gate" d="m -21,-10 c 1,3 2,6 2,10 m 0,0 c 0,4 -1,7 -2,10 m 3,-20 4,0 c 6,0 12,5 14,10 -2,5 -8,10 -14,10 l -4,0 c 1,-3 2,-6 2,-10 0,-4 -1,-7 -2,-10 zM 4,0 C 4,1.1 3.1,2 2,2 0.9,2 0,1.1 0,0 c 0,-1.1 0.9,-2 2,-2 1.1,0 2,0.9 2,2 z"/></g></g><g><g><g transform="translate(16,0)"><path d="M64,16 64,16" class="wire"/></g><g><path d="m64,16 16,0" class="wire"/></g><g transform="translate(96,16)"><title><tspan>~</tspan></title><path class="gate" d="M -11,-6 -11,6 0,0 z m -5,6 5,0M 4,0 C 4,1.1 3.1,2 2,2 0.9,2 0,1.1 0,0 c 0,-1.1 0.9,-2 2,-2 1.1,0 2,0.9 2,2 z"/></g></g><g><g transform="translate(64,16)"><title><tspan>p0</tspan></title><path d="M 2,0 a 2,2 0 1 1 -4,0 2,2 0 1 1 4,0 z"/><text x="-4" y="4" class="pinname"><tspan>p0</tspan></text></g></g></g><g><g><g transform="translate(16,0)"><path d="M64,32 64,32" class="wire"/></g><g><path d="m64,32 16,0" class="wire"/></g><g transform="translate(96,32)"><title><tspan>~</tspan></title><path class="gate" d="M -11,-6 -11,6 0,0 z m -5,6 5,0M 4,0 C 4,1.1 3.1,2 2,2 0.9,2 0,1.1 0,0 c 0,-1.1 0.9,-2 2,-2 1.1,0 2,0.9 2,2 z"/></g></g><g><g transform="translate(64,32)"><title><tspan>q0</tspan></title><path d="M 2,0 a 2,2 0 1 1 -4,0 2,2 0 1 1 4,0 z"/><text x="-4" y="4" class="pinname"><tspan>q0</tspan></text></g></g></g></g><g><g><g transform="translate(16,0)"><path d="M96,48 96,64" class="wire"/></g><g><path d="m96,48 16,0" class="wire"/></g><g><path d="m96,64 16,0" class="wire"/></g><g transform="translate(128,56)"><title><tspan>~^</tspan></title><path class="gate" d="m -21,-10 c 1,3 2,6 2,10 m 0,0 c 0,4 -1,7 -2,10 m 3,-20 4,0 c 6,0 12,5 14,10 -2,5 -8,10 -14,10 l -4,0 c 1,-3 2,-6 2,-10 0,-4 -1,-7 -2,-10 zM 4,0 C 4,1.1 3.1,2 2,2 0.9,2 0,1.1 0,0 c 0,-1.1 0.9,-2 2,-2 1.1,0 2,0.9 2,2 z"/></g></g><g><g><g transform="translate(16,0)"><path d="M64,48 64,48" class="wire"/></g><g><path d="m64,48 16,0" class="wire"/></g><g transform="translate(96,48)"><title><tspan>~</tspan></title><path class="gate" d="M -11,-6 -11,6 0,0 z m -5,6 5,0M 4,0 C 4,1.1 3.1,2 2,2 0.9,2 0,1.1 0,0 c 0,-1.1 0.9,-2 2,-2 1.1,0 2,0.9 2,2 z"/></g></g><g><g transform="translate(64,48)"><title><tspan>p1</tspan></title><path d="M 2,0 a 2,2 0 1 1 -4,0 2,2 0 1 1 4,0 z"/><text x="-4" y="4" class="pinname"><tspan>p1</tspan></text></g></g></g><g><g><g transform="translate(16,0)"><path d="M64,64 64,64" class="wire"/></g><g><path d="m64,64 16,0" class="wire"/></g><g transform="translate(96,64)"><title><tspan>~</tspan></title><path class="gate" d="M -11,-6 -11,6 0,0 z m -5,6 5,0M 4,0 C 4,1.1 3.1,2 2,2 0.9,2 0,1.1 0,0 c 0,-1.1 0.9,-2 2,-2 1.1,0 2,0.9 2,2 z"/></g></g><g><g transform="translate(64,64)"><title><tspan>q1</tspan></title><path d="M 2,0 a 2,2 0 1 1 -4,0 2,2 0 1 1 4,0 z"/><text x="-4" y="4" class="pinname"><tspan>q1</tspan></text></g></g></g></g><g><g><g transform="translate(16,0)"><path d="M96,80 96,96" class="wire"/></g><g><path d="m96,80 16,0" class="wire"/></g><g><path d="m96,96 16,0" class="wire"/></g><g transform="translate(128,88)"><title><tspan>~^</tspan></title><path class="gate" d="m -21,-10 c 1,3 2,6 2,10 m 0,0 c 0,4 -1,7 -2,10 m 3,-20 4,0 c 6,0 12,5 14,10 -2,5 -8,10 -14,10 l -4,0 c 1,-3 2,-6 2,-10 0,-4 -1,-7 -2,-10 zM 4,0 C 4,1.1 3.1,2 2,2 0.9,2 0,1.1 0,0 c 0,-1.1 0.9,-2 2,-2 1.1,0 2,0.9 2,2 z"/></g></g><g><g><g transform="translate(16,0)"><path d="M64,80 64,80" class="wire"/></g><g><path d="m64,80 16,0" class="wire"/></g><g transform="translate(96,80)"><title><tspan>~</tspan></title><path class="gate" d="M -11,-6 -11,6 0,0 z m -5,6 5,0M 4,0 C 4,1.1 3.1,2 2,2 0.9,2 0,1.1 0,0 c 0,-1.1 0.9,-2 2,-2 1.1,0 2,0.9 2,2 z"/></g></g><g><g transform="translate(64,80)"><title><tspan>p2</tspan></title><path d="M 2,0 a 2,2 0 1 1 -4,0 2,2 0 1 1 4,0 z"/><text x="-4" y="4" class="pinname"><tspan>p2</tspan></text></g></g></g><g><g><g transform="translate(16,0)"><path d="M64,96 64,96" class="wire"/></g><g><path d="m64,96 16,0" class="wire"/></g><g transform="translate(96,96)"><title><tspan>~</tspan></title><path class="gate" d="M -11,-6 -11,6 0,0 z m -5,6 5,0M 4,0 C 4,1.1 3.1,2 2,2 0.9,2 0,1.1 0,0 c 0,-1.1 0.9,-2 2,-2 1.1,0 2,0.9 2,2 z"/></g></g><g><g transform="translate(64,96)"><title><tspan>q2</tspan></title><path d="M 2,0 a 2,2 0 1 1 -4,0 2,2 0 1 1 4,0 z"/><text x="-4" y="4" class="pinname"><tspan>q2</tspan></text></g></g></g></g><g><g transform="translate(128,112)"><title><tspan>...</tspan></title><path d="M 2,0 a 2,2 0 1 1 -4,0 2,2 0 1 1 4,0 z"/><text x="-4" y="4" class="pinname"><tspan>...</tspan></text></g></g><g><g><g transform="translate(16,0)"><path d="M96,128 96,144" class="wire"/></g><g><path d="m96,128 16,0" class="wire"/></g><g><path d="m96,144 16,0" class="wire"/></g><g transform="translate(128,136)"><title><tspan>~^</tspan></title><path class="gate" d="m -21,-10 c 1,3 2,6 2,10 m 0,0 c 0,4 -1,7 -2,10 m 3,-20 4,0 c 6,0 12,5 14,10 -2,5 -8,10 -14,10 l -4,0 c 1,-3 2,-6 2,-10 0,-4 -1,-7 -2,-10 zM 4,0 C 4,1.1 3.1,2 2,2 0.9,2 0,1.1 0,0 c 0,-1.1 0.9,-2 2,-2 1.1,0 2,0.9 2,2 z"/></g></g><g><g><g transform="translate(16,0)"><path d="M64,128 64,128" class="wire"/></g><g><path d="m64,128 16,0" class="wire"/></g><g transform="translate(96,128)"><title><tspan>~</tspan></title><path class="gate" d="M -11,-6 -11,6 0,0 z m -5,6 5,0M 4,0 C 4,1.1 3.1,2 2,2 0.9,2 0,1.1 0,0 c 0,-1.1 0.9,-2 2,-2 1.1,0 2,0.9 2,2 z"/></g></g><g><g transform="translate(64,128)"><title><tspan>p7</tspan></title><path d="M 2,0 a 2,2 0 1 1 -4,0 2,2 0 1 1 4,0 z"/><text x="-4" y="4" class="pinname"><tspan>p7</tspan></text></g></g></g><g><g><g transform="translate(16,0)"><path d="M64,144 64,144" class="wire"/></g><g><path d="m64,144 16,0" class="wire"/></g><g transform="translate(96,144)"><title><tspan>~</tspan></title><path class="gate" d="M -11,-6 -11,6 0,0 z m -5,6 5,0M 4,0 C 4,1.1 3.1,2 2,2 0.9,2 0,1.1 0,0 c 0,-1.1 0.9,-2 2,-2 1.1,0 2,0.9 2,2 z"/></g></g><g><g transform="translate(64,144)"><title><tspan>q7</tspan></title><path d="M 2,0 a 2,2 0 1 1 -4,0 2,2 0 1 1 4,0 z"/><text x="-4" y="4" class="pinname"><tspan>q7</tspan></text></g></g></g></g><g><g><g transform="translate(16,0)"><path d="M96,160 96,160" class="wire"/></g><g><path d="m96,160 16,0" class="wire"/></g><g transform="translate(128,160)"><title><tspan>~</tspan></title><path class="gate" d="M -11,-6 -11,6 0,0 z m -5,6 5,0M 4,0 C 4,1.1 3.1,2 2,2 0.9,2 0,1.1 0,0 c 0,-1.1 0.9,-2 2,-2 1.1,0 2,0.9 2,2 z"/></g></g><g><g transform="translate(96,160)"><title><tspan>~en</tspan></title><path d="M 2,0 a 2,2 0 1 1 -4,0 2,2 0 1 1 4,0 z"/><text x="-4" y="4" class="pinname"><tspan>~en</tspan></text></g></g></g></g></g></g></g></svg>