<?xml version="1.0" encoding="iso-8859-1"?>
<!-- Generator: Adobe Illustrator 19.0.0, SVG Export Plug-In . SVG Version: 6.00 Build 0)  -->
<svg version="1.1" id="Capa_1" xmlns="http://www.w3.org/2000/svg" xmlns:xlink="http://www.w3.org/1999/xlink" x="0px" y="0px"
	 viewBox="0 0 512 512" style="enable-background:new 0 0 512 512;" xml:space="preserve">
<polygon style="fill:#525263;" points="440.137,7.604 7.604,7.604 7.604,504.396 504.396,504.396 504.396,71.864 "/>
<path style="fill:#C0C2D0;" d="M421.131,7.603v164.398c0,8.841-7.158,15.999-15.999,15.999H151.271
	c-8.831,0-15.999-7.158-15.999-15.999V7.603H421.131z"/>
<path style="fill:#DADBE0;" d="M421.131,7.603v164.398c0,8.841-7.158,15.999-15.999,15.999H230.748L301.87,7.603
	C301.87,7.603,421.131,7.603,421.131,7.603z"/>
<path style="fill:#FFF4F5;" d="M403.23,251.837H107.382c-9.888,0-17.905,8.016-17.905,17.905v234.654h331.657V269.742
	C421.135,259.854,413.118,251.837,403.23,251.837z"/>
<rect x="89.473" y="439.174" style="fill:#EA1225;" width="331.654" height="65.222"/>
<rect x="286.527" y="38.133" style="fill:#201D2B;" width="86.036" height="118.916"/>
<path d="M389.217,288.639h-263.66c-4.199,0-7.604,3.405-7.604,7.604c0,4.199,3.405,7.604,7.604,7.604h263.661
	c4.2,0,7.604-3.405,7.604-7.604C396.822,292.044,393.418,288.639,389.217,288.639z"/>
<path d="M389.217,338.596h-263.66c-4.199,0-7.604,3.405-7.604,7.604s3.405,7.604,7.604,7.604h263.661c4.2,0,7.604-3.405,7.604-7.604
	S393.418,338.596,389.217,338.596z"/>
<path d="M389.217,388.552h-263.66c-4.199,0-7.604,3.405-7.604,7.604c0,4.199,3.405,7.604,7.604,7.604h263.661
	c4.2,0,7.604-3.405,7.604-7.604C396.822,391.957,393.418,388.552,389.217,388.552z"/>
<path d="M509.774,66.487l-64.26-64.26C444.088,0.801,442.153,0,440.137,0h-19.002H135.271H70.974c-4.199,0-7.604,3.405-7.604,7.604
	l0,0c0,4.199,3.405,7.604,7.604,7.604h56.693v156.791c0,13.038,10.57,23.609,23.609,23.609h253.855
	c13.038,0,23.608-10.57,23.608-23.608V15.208h8.249l59.805,59.805v421.78h-68.053v-227.05c0-14.088-11.42-25.509-25.509-25.509
	h-56.486c-4.199,0-7.604,3.405-7.604,7.604l0,0c0,4.199,3.405,7.604,7.604,7.604h56.486c5.689,0,10.301,4.612,10.301,10.301V431.57
	H97.081V269.742c0-5.689,4.612-10.301,10.301-10.301h203.875c4.199,0,7.604-3.405,7.604-7.604l0,0c0-4.199-3.405-7.604-7.604-7.604
	H107.382c-14.088,0-25.509,11.42-25.509,25.509v227.05H15.208V15.208h20.279c4.199,0,7.604-3.405,7.604-7.604l0,0
	C43.091,3.405,39.687,0,35.487,0H7.604C3.405,0,0,3.405,0,7.604v496.792C0,508.595,3.405,512,7.604,512h81.873h331.657h83.261
	c4.199,0,7.604-3.405,7.604-7.604V71.864C512,69.847,511.199,67.912,509.774,66.487z M413.531,171.999
	c0,4.632-3.769,8.401-8.4,8.401H151.276c-4.632,0-8.401-3.769-8.401-8.401V15.208h270.655L413.531,171.999L413.531,171.999z
	 M97.081,496.792v-50.014h316.449v50.014H97.081z"/>
<path d="M286.528,164.653h86.036c4.2,0,7.604-3.405,7.604-7.604V38.133c0-4.199-3.404-7.604-7.604-7.604h-86.036
	c-4.2,0-7.604,3.405-7.604,7.604v118.916C278.924,161.249,282.329,164.653,286.528,164.653z M294.132,45.737h70.828v103.708h-70.828
	L294.132,45.737L294.132,45.737z"/>
<g>
</g>
<g>
</g>
<g>
</g>
<g>
</g>
<g>
</g>
<g>
</g>
<g>
</g>
<g>
</g>
<g>
</g>
<g>
</g>
<g>
</g>
<g>
</g>
<g>
</g>
<g>
</g>
<g>
</g>
</svg>
