<?xml version="1.0" encoding="UTF-8" standalone="no"?>
<svg
   xmlns:dc="http://purl.org/dc/elements/1.1/"
   xmlns:cc="http://creativecommons.org/ns#"
   xmlns:rdf="http://www.w3.org/1999/02/22-rdf-syntax-ns#"
   xmlns:svg="http://www.w3.org/2000/svg"
   xmlns="http://www.w3.org/2000/svg"
   xmlns:sodipodi="http://sodipodi.sourceforge.net/DTD/sodipodi-0.dtd"
   xmlns:inkscape="http://www.inkscape.org/namespaces/inkscape"
   width="530"
   height="341"
   viewBox="0 0 530 341"
   fill="none"
   version="1.1"
   id="svg43"
   sodipodi:docname="header.svg"
   inkscape:version="1.0.2-2 (e86c870879, 2021-01-15)">
  <metadata
     id="metadata47">
    <rdf:RDF>
      <cc:Work
         rdf:about="">
        <dc:format>image/svg+xml</dc:format>
        <dc:type
           rdf:resource="http://purl.org/dc/dcmitype/StillImage" />
        <dc:title></dc:title>
      </cc:Work>
    </rdf:RDF>
  </metadata>
  <sodipodi:namedview
     pagecolor="#ffffff"
     bordercolor="#666666"
     borderopacity="1"
     objecttolerance="10"
     gridtolerance="10"
     guidetolerance="10"
     inkscape:pageopacity="0"
     inkscape:pageshadow="2"
     inkscape:window-width="1718"
     inkscape:window-height="1368"
     id="namedview45"
     showgrid="false"
     fit-margin-top="10"
     fit-margin-left="10"
     fit-margin-right="10"
     fit-margin-bottom="10"
     inkscape:zoom="1"
     inkscape:cx="210.49199"
     inkscape:cy="233.8006"
     inkscape:window-x="-7"
     inkscape:window-y="40"
     inkscape:window-maximized="0"
     inkscape:current-layer="svg43" />
  <path
     d="m 257.2,54.086 h 14.91 v 88.401 H 257.2 Z m -130.48,88.401 h -14.9 V 54.086 h 14.9 z m 57.79,10.562 h 14.91 v 33.754 h -14.91 z m -36.46,-37.886 h 14.9 v 54.648 h -14.9 z m 72.69,0 h 14.91 v 54.648 H 220.74 Z M 402.82,54.086 h 14.9 v 88.401 h -14.9 z M 345.03,43.753 h -14.9 V 10 h 14.9 z m 36.46,37.657 h -14.9 V 26.991 h 14.9 z m -72.92,0 H 293.66 V 26.991 h 14.91 z"
     fill="url(#paint1_linear)"
     id="path16"
     style="fill:url(#paint1_linear)" />
  <path
     d="m 346.47,308.938 h -26.84 l -6.88,20.748 H 297.87 L 328.65,241 H 347 l 30.75,88.732 h -16.26 l -24.38,-72.756 -13.37,38.914 h 18.35 z M 78.1,241 v 58.555 C 78.1,320.096 64.86,331 43.92,331 22.98,331 10,320.096 10,299.555 V 241 h 15 v 58.555 c 0,11.919 7.32,18.259 18.92,18.259 11.61,0 19.18,-6.34 19.18,-18.259 V 241 Z m 48.55,27.664 v 61.091 H 111.63 V 241 h 14.01 l 38.99,61.091 V 241 h 15.09 v 88.732 H 165.73 Z M 402.87,241 h 15 v 88.732 h -15 z M 520,297.919 c 0,20.747 -13.49,31.813 -34.79,31.813 H 451.9 V 241 h 33.56 c 21.05,0 34.54,11.019 34.54,31.814 z m -15,-25.105 c 0,-12.173 -7.57,-18.766 -19.54,-18.766 h -18.53 v 62.498 h 18.35 c 12.22,0 19.79,-6.455 19.79,-18.627 z m -246.58,23.329 c 9.95,-3.688 15.89,-12.172 15.89,-26.626 0,-20.033 -11.6,-28.517 -29.26,-28.517 h -31.29 v 88.732 h 15.02 v -75.684 h 15.76 c 8.72,0 14.24,4.196 14.24,15.469 0,11.273 -5.52,15.584 -14.24,15.584 h -7.75 l 21.12,44.631 h 17.27 z"
     fill="url(#paint2_linear)"
     id="path18"
     style="fill:url(#paint2_linear)" />
  <defs
     id="defs41">
    <radialGradient
       id="paint0_radial"
       cx="0"
       cy="0"
       r="1"
       gradientUnits="userSpaceOnUse"
       gradientTransform="matrix(93.6153,0,0,153.55,453.025,334.602)">
      <stop
         stop-color="#F9BE03"
         id="stop26" />
      <stop
         offset="1"
         stop-color="#CC7C19"
         id="stop28" />
    </radialGradient>
    <linearGradient
       id="paint1_linear"
       x1="1239.1"
       y1="361.10999"
       x2="1436.5699"
       y2="163.89101"
       gradientUnits="userSpaceOnUse"
       gradientTransform="translate(-1073,-164)">
      <stop
         stop-color="#E32929"
         id="stop31" />
      <stop
         offset="1"
         stop-color="#FF8D30"
         id="stop33" />
    </linearGradient>
    <linearGradient
       id="paint2_linear"
       x1="1192.01"
       y1="587.35101"
       x2="1475.98"
       y2="304.832"
       gradientUnits="userSpaceOnUse"
       gradientTransform="translate(-1073,-164)">
      <stop
         stop-color="#E32929"
         id="stop36" />
      <stop
         offset="1"
         stop-color="#FF8D30"
         id="stop38" />
    </linearGradient>
  </defs>
</svg>
