<?xml version="1.0" encoding="UTF-8"?>
<!DOCTYPE svg PUBLIC "-//W3C//DTD SVG 1.0//EN" "http://www.w3.org/TR/2001/REC-SVG-20010904/DTD/svg10.dtd">
<!-- Creator: CorelDRAW X7 -->
<svg xmlns="http://www.w3.org/2000/svg" xml:space="preserve" width="258px" height="76px" version="1.0" style="shape-rendering:geometricPrecision; text-rendering:geometricPrecision; image-rendering:optimizeQuality; fill-rule:evenodd; clip-rule:evenodd" viewBox="0 0 323 95" xmlns:xlink="http://www.w3.org/1999/xlink">
 <defs>
  <style type="text/css">
   <![CDATA[
    .fil1 {fill:#474443}
    .fil0 {fill:#CC6600}
    .fil2 {fill:#CC6600;fill-rule:nonzero}
   ]]>
  </style>
 </defs>
 <g id="图层_x0020_1">
  <metadata id="CorelCorpID_0Corel-Layer"/>
  <g id="_1500004669776">
   <polygon class="fil0" points="216,34 216,25 209,25 209,22 201,22 201,18 194,18 194,15 187,15 187,11 179,11 179,7 172,7 172,4 165,4 165,34 "/>
   <polygon class="fil1" points="165,58 165,0 158,0 158,58 "/>
   <path class="fil2" d="M7 77l19 0 0 -5 -19 0 0 5zm0 6l0 12 -7 0 0 -30 23 0c7,0 10,3 10,9 0,3 -1,5 -2,6 1,2 2,4 2,6l0 9 -7 0 0 -9c0,-2 -1,-3 -3,-3l-16 0zm62 12l-23 0c-6,0 -9,-4 -9,-10l0 -20 32 0 0 7 -26 0 0 5 26 0 0 6 -26 0 0 2c0,2 1,3 3,3l23 0 0 7zm4 -30l33 0 0 7 -13 0 0 23 -7 0 0 -23 -13 0 0 -7zm43 12l20 0 0 -5 -20 0 0 5zm0 6l0 12 -6 0 0 -30 23 0c6,0 10,3 10,9 0,3 -1,5 -2,6 1,2 2,4 2,6l0 9 -7 0 0 -9c0,-2 -1,-3 -3,-3l-17 0zm40 12c-6,0 -9,-4 -9,-10l0 -10c0,-7 3,-10 9,-10l14 0c6,0 9,3 9,10l0 10c0,6 -2,10 -8,10l-15 0zm-3 -10c0,2 1,3 3,3l14 0c2,0 3,-1 3,-3l0 -10c0,-2 -1,-3 -3,-3l-14 0c-2,0 -3,1 -3,3l0 10zm30 10l0 -30 30 0 0 7 -23 0 0 5 16 0 0 6 -16 0 0 12 -7 0zm34 -30l0 20c0,6 3,10 9,10l23 0 0 -7 -23 0c-2,0 -3,-1 -3,-3l0 -20 -6 0zm62 15l0 -5c0,-2 -1,-3 -3,-3l-13 0c-2,0 -3,1 -3,3l0 5 19 0zm-19 6l0 9 -7 0 0 -20c0,-7 3,-10 10,-10l13 0c7,0 10,3 10,10l0 20 -7 0 0 -9 -19 0zm63 -9l0 18 -23 0c-7,0 -10,-4 -10,-10l0 -10c0,-7 3,-10 10,-10l23 0 0 7 -23 0c-2,0 -4,1 -4,3l0 10c0,2 2,3 4,3l16 0 0 -5 -8 0 0 -6 15 0zm0 0l0 18 -23 0c-7,0 -10,-4 -10,-10l0 -10c0,-7 3,-10 10,-10l23 0 0 7 -23 0c-2,0 -4,1 -4,3l0 10c0,2 2,3 4,3l16 0 0 -5 -8 0 0 -6 15 0z"/>
   <polygon class="fil1" points="323,58 323,51 0,51 0,58 "/>
  </g>
 </g>
</svg>