<?xml version="1.0" encoding="UTF-8" standalone="no"?>
<!-- Generator: Adobe Illustrator 15.1.0, SVG Export Plug-In . SVG Version: 6.00 Build 0)  -->

<svg
   version="1.1"
   id="Layer_1"
   x="0px"
   y="0px"
   width="1060"
   height="786.99951"
   viewBox="0 0 1060 786.99951"
   enable-background="new 0 0 1259 847"
   xml:space="preserve"
   sodipodi:docname="does_not_compile.svg"
   inkscape:version="1.2.2 (b0a84865, 2022-12-01)"
   xmlns:inkscape="http://www.inkscape.org/namespaces/inkscape"
   xmlns:sodipodi="http://sodipodi.sourceforge.net/DTD/sodipodi-0.dtd"
   xmlns="http://www.w3.org/2000/svg"
   xmlns:svg="http://www.w3.org/2000/svg"><defs
   id="defs227" /><sodipodi:namedview
   id="namedview225"
   pagecolor="#ffffff"
   bordercolor="#999999"
   borderopacity="1"
   inkscape:showpageshadow="0"
   inkscape:pageopacity="0"
   inkscape:pagecheckerboard="0"
   inkscape:deskcolor="#d1d1d1"
   showgrid="false"
   inkscape:zoom="0.78808595"
   inkscape:cx="466.31969"
   inkscape:cy="438.40396"
   inkscape:window-width="1720"
   inkscape:window-height="1359"
   inkscape:window-x="0"
   inkscape:window-y="25"
   inkscape:window-maximized="0"
   inkscape:current-layer="g576" />
<!--<rect fill="#FFFFFF" width="1259" height="847"/>-->
<path
   fill="#8f1f1d"
   d="m 525.403,293.05 c -131.633,0 -251.228,15.825 -339.77,41.615 v 220.298 c 88.542,25.79 208.137,41.614 339.77,41.614 150.657,0 285.535,-20.729 376.134,-53.402 V 346.457 C 810.938,313.781 676.06,293.05 525.403,293.05"
   id="path182" />
<path
   fill="#8f1f1d"
   d="m 907.423,492.442 c -3.856,-10.663 -4.629,-24.154 -1.36,-37.162 5.85,-23.289 22.421,-36.198 37.013,-28.833 3.618,1.827 6.773,4.73 9.387,8.418 0.239,-0.001 0.479,0 0.715,0.016 0,0 44.552,53.106 3.313,116.003 -0.896,3.569 -76.534,91.718 -94.043,94.524 -11.461,1.836 14.89,-89.998 44.975,-152.966"
   id="path184" />
<path
   fill="#8f1f1d"
   d="m 176.479,482.021 c 5.3,-9.631 7.158,-22.788 4.217,-36.426 -5.266,-24.416 -23.91,-41.109 -41.642,-37.285 -4.398,0.948 -8.325,3.072 -11.666,6.099 -0.282,-0.059 -0.564,-0.113 -0.845,-0.153 0,0 -56.292,41.952 -12.057,113.924 0.805,3.741 83.851,108.838 104.311,115.764 13.391,4.531 -11.247,-92.526 -42.318,-161.923"
   id="path186" />
<path
   fill="#e23a26"
   d="m 99.467,490.066 0.007,0.015 c 0.185,0.145 0.357,0.276 -0.007,-0.015"
   id="path188" />
<path
   fill="#e33b26"
   d="m 993.119,412.903 c -0.88,-3.064 -1.756,-6.126 -2.662,-9.162 l 30.683,-44.451 c 3.13,-4.522 3.771,-10.398 1.73,-15.555 -2.04,-5.13 -6.49,-8.81 -11.76,-9.71 l -51.887,-8.805 c -2.008,-4.102 -4.115,-8.142 -6.229,-12.15 l 21.797,-49.903 c 2.243,-5.087 1.769,-10.995 -1.203,-15.608 -2.961,-4.636 -7.99,-7.344 -13.349,-7.133 l -52.656,1.913 c -2.727,-3.55 -5.496,-7.068 -8.322,-10.521 l 12.102,-53.49 c 1.225,-5.433 -0.322,-11.118 -4.104,-15.064 -3.762,-3.932 -9.229,-5.559 -14.426,-4.283 l -51.289,12.608 c -3.321,-2.935 -6.699,-5.833 -10.114,-8.673 l 1.849,-54.914 c 0.197,-5.559 -2.394,-10.842 -6.845,-13.925 -4.445,-3.104 -10.093,-3.573 -14.955,-1.266 l -47.848,22.747 c -3.854,-2.21 -7.728,-4.4 -11.644,-6.517 l -8.455,-54.115 c -0.857,-5.483 -4.386,-10.139 -9.326,-12.266 -4.923,-2.137 -10.568,-1.447 -14.891,1.808 l -42.659,32.007 c -4.2,-1.395 -8.419,-2.732 -12.692,-4.011 L 645.578,21.148 c -1.87,-5.229 -6.182,-9.071 -11.438,-10.151 -5.238,-1.072 -10.63,0.742 -14.263,4.802 L 583.97,55.97 c -4.342,-0.5 -8.685,-0.956 -13.043,-1.331 L 543.204,7.926 c -2.811,-4.732 -7.771,-7.612 -13.116,-7.612 -5.334,0 -10.304,2.88 -13.09,7.612 l -27.733,46.713 c -4.358,0.375 -8.722,0.831 -13.056,1.331 l -35.91,-40.171 c -3.636,-4.06 -9.047,-5.874 -14.268,-4.802 -5.255,1.092 -9.573,4.922 -11.433,10.151 l -18.402,51.316 c -4.26,1.279 -8.481,2.627 -12.691,4.011 L 340.861,44.468 c -4.336,-3.266 -9.98,-3.955 -14.916,-1.808 -4.919,2.127 -8.461,6.783 -9.313,12.266 l -8.461,54.115 c -3.914,2.117 -7.789,4.294 -11.653,6.517 L 248.676,92.811 c -4.858,-2.316 -10.529,-1.838 -14.954,1.266 -4.445,3.083 -7.042,8.366 -6.84,13.925 l 1.835,54.914 c -3.405,2.84 -6.774,5.738 -10.112,8.673 l -51.279,-12.608 c -5.211,-1.265 -10.67,0.351 -14.441,4.283 -3.795,3.946 -5.332,9.631 -4.113,15.064 l 12.079,53.49 c -2.802,3.467 -5.575,6.971 -8.293,10.521 l -52.655,-1.913 c -5.314,-0.157 -10.386,2.497 -13.356,7.133 -2.974,4.613 -3.425,10.521 -1.211,15.608 l 21.814,49.903 c -2.119,4.008 -4.224,8.048 -6.249,12.15 l -51.882,8.805 c -5.271,0.888 -9.715,4.566 -11.765,9.71 -2.037,5.157 -1.375,11.033 1.735,15.555 l 30.69,44.451 c -0.236,0.784 -0.455,1.576 -0.69,2.364 l -16.863,17.911 45.341,64.05 c 0,0 435.152,200.731 838.797,3.396 46.108,-8.273 56.855,-78.559 56.855,-78.559"
   id="path190" />

<g
   id="g580"
   transform="translate(-181,-45)"><path
     d="m 788.629,436.277 c 0,0 54.108,-46.602 95.626,11.5 0,0 29.173,74.328 -12.593,104.708 0,0 -67.353,41.473 -95.627,-11.5 0,0 -36.365,-43.325 12.594,-104.708"
     id="path192" /><path
     fill="#ffffff"
     d="m 843.648,464.356 c -2.452,20.385 -16.456,35.467 -31.276,33.684 -14.817,-1.781 -24.846,-19.755 -22.395,-40.14 2.452,-20.385 16.457,-35.468 31.274,-33.687 14.82,1.784 24.849,19.758 22.397,40.143"
     id="path194" /></g>

<rect
   x="0"
   y="0"
   fill="none"
   width="1060"
   height="782"
   id="rect198" />
<g
   id="g576"
   transform="translate(-181,-23.688035)"><path
     d="m 572.949,399.315 c 0,0 86.384,-26.449 99.021,57.297 0,0 12.086,97.294 -79.356,91.705 -10e-4,0 -113.106,-36.227 -19.665,-149.002"
     id="path196" /><path
     fill="#ffffff"
     d="m 611.925,441.324 c -2.528,21.021 -16.969,36.581 -32.257,34.742 -15.281,-1.837 -25.624,-20.378 -23.095,-41.399 2.529,-21.026 16.973,-36.581 32.253,-34.743 15.287,1.839 25.628,20.374 23.099,41.4"
     id="path200" /></g>
<path
   fill="#e33b26"
   d="m 111.602,499.216 c 10.967,-12.463 37.611,-27.557 35.57,-46.282 -3.653,-33.526 -31.456,-57.999 -62.099,-54.658 -7.599,0.827 -14.658,3.292 -20.923,7.035 -0.463,-0.106 -0.925,-0.211 -1.388,-0.294 0,0 -103.632,50.873 -44.564,152.657 0.557,5.137 117.847,155.668 150.787,167.131 21.559,7.502 -19.911,-128.64 -57.383,-225.589"
   id="path202" />
<path
   fill="#e33b26"
   d="m 953.549,494.673 c -12.692,-10.7 -46.162,-20.418 -46.92,-39.238 -1.355,-33.697 22.512,-62.021 53.312,-63.26 7.638,-0.308 14.983,1.083 21.734,3.857 0.442,-0.174 0.884,-0.347 1.329,-0.497 0,0 110.025,34.951 66.695,144.366 0.21,5.163 -93.468,171.416 -124.345,187.635 -20.208,10.615 5.507,-131.431 28.195,-232.863"
   id="path204" />
<rect
   x="0.059997559"
   y="0.31399918"
   fill="none"
   width="1059.75"
   height="781.68597"
   id="rect206" />
<path
   fill="#e33b26"
   d="m 191.142,500.559 c 0,0 -1.383,137.296 133.166,167.933 l 28.054,-56.363 c 0,0 -97.495,9.431 -104.995,-111.569 h -56.225"
   id="path208" />
<rect
   x="0"
   y="0"
   fill="none"
   width="1060"
   height="782"
   id="rect210" />
<path
   fill="#e33b26"
   d="m 876.362,492.246 c 0,0 1.382,137.296 -133.167,167.933 L 715.14,603.816 c 0,0 97.495,9.431 104.995,-111.569 h 56.227"
   id="path212" />
<path
   fill="#e33b26"
   d="m 779.167,632.279 c -20.25,-48.941 -85.595,-68.373 -145.951,-43.399 -53.126,21.98 -84.637,71.031 -77.624,115.845 41.946,-0.652 86.94,-3.371 130.736,-9.718 0,0 -25.837,41.763 -63.857,78.211 25.566,6.599 55.383,4.768 84.076,-7.104 60.357,-24.973 92.87,-84.893 72.62,-133.835"
   id="path214" />
<path
   fill="#e33b26"
   d="m 404.746,700.985 c 0,0 55.203,7.295 130.67,9.155 6.61,-47.511 -29.38,-97.792 -86.801,-117.242 -63.438,-21.488 -128.989,2.792 -146.414,54.231 -17.425,51.44 19.876,110.561 83.314,132.049 28.121,9.526 56.653,10.049 81.229,3.207 -36.911,-36.504 -61.998,-81.4 -61.998,-81.4"
   id="path216" />
<rect
   x="0.059997559"
   y="0.31399918"
   fill="none"
   width="1059.75"
   height="781.68597"
   id="rect218" />
<g
   id="g222"
   transform="translate(-181,-45)">
	
</g>
</svg>
