<svg id="Layer_1" data-name="Layer 1" xmlns="http://www.w3.org/2000/svg" viewBox="0 0 187.264 233.091"><title>dockerfile</title><path d="M241.632,219.091v-125L183,35.454H64.368a6,6,0,0,0-6,6V219.091H241.632Z" transform="translate(-56.368 -33.454)" style="fill:#e1fbff;stroke:#394d54;stroke-linejoin:round;stroke-width:4px"/><path d="M241.632,99.059H189a6,6,0,0,1-6-6V40.423l58.636,53.668v4.968Z" transform="translate(-56.368 -33.454)" style="stroke:#000;stroke-linejoin:round;stroke-width:4px;opacity:0.12"/><path d="M241.632,94.091H189a6,6,0,0,1-6-6V35.455Z" transform="translate(-56.368 -33.454)" style="fill:#f5feff;stroke:#394d54;stroke-linejoin:round;stroke-width:4px"/><path d="M58.368,219.091v41.455a4,4,0,0,0,4,4H237.632a4,4,0,0,0,4-4V219.091H58.368Z" transform="translate(-56.368 -33.454)" style="fill:#93e4f9;stroke:#394d54;stroke-linejoin:round;stroke-width:4px"/><path d="M72.924,233.745a32.407,32.407,0,0,1,4.81-.363c3.25,0,5.564.754,7.1,2.184a8.071,8.071,0,0,1,2.47,6.292,9.269,9.269,0,0,1-2.522,6.813c-1.638,1.639-4.342,2.522-7.748,2.522a36.542,36.542,0,0,1-4.108-.208V233.745Zm2.262,15.5a14.34,14.34,0,0,0,2.288.13c4.836,0,7.462-2.7,7.462-7.437,0.026-4.134-2.314-6.76-7.1-6.76a12.869,12.869,0,0,0-2.652.233v13.833Z" transform="translate(-56.368 -33.454)" style="fill:#394d54"/><path d="M107.712,242.092c0,6.032-3.666,9.23-8.138,9.23-4.628,0-7.878-3.588-7.878-8.893,0-5.564,3.458-9.2,8.138-9.2C104.618,233.225,107.712,236.891,107.712,242.092Zm-13.6.286c0,3.744,2.028,7.1,5.59,7.1,3.588,0,5.616-3.3,5.616-7.281,0-3.483-1.82-7.124-5.59-7.124C95.985,235.071,94.113,238.529,94.113,242.378Z" transform="translate(-56.368 -33.454)" style="fill:#394d54"/><path d="M125.392,250.464a11.229,11.229,0,0,1-4.628.832c-4.94,0-8.658-3.12-8.658-8.866,0-5.486,3.718-9.2,9.152-9.2a9.386,9.386,0,0,1,4.16.78l-0.546,1.846a8.24,8.24,0,0,0-3.536-.729c-4.108,0-6.838,2.627-6.838,7.229,0,4.29,2.47,7.047,6.734,7.047a9.048,9.048,0,0,0,3.692-.729Z" transform="translate(-56.368 -33.454)" style="fill:#394d54"/><path d="M130.243,233.512H132.5v8.45h0.078c0.468-.676.936-1.3,1.378-1.872l5.356-6.578h2.808l-6.344,7.436,6.838,10.089h-2.678l-5.772-8.606-1.664,1.924v6.683h-2.262V233.512Z" transform="translate(-56.368 -33.454)" style="fill:#394d54"/><path d="M155.982,242.82H149.17v6.317h7.592v1.9h-9.854V233.512h9.465v1.9h-7.2v5.538h6.812v1.873Z" transform="translate(-56.368 -33.454)" style="fill:#394d54"/><path d="M161.783,233.745a23.616,23.616,0,0,1,4.342-.363c2.418,0,3.979.441,5.07,1.43a4.365,4.365,0,0,1,1.378,3.328,4.6,4.6,0,0,1-3.3,4.472v0.078c1.352,0.469,2.158,1.717,2.574,3.536a27.807,27.807,0,0,0,1.352,4.811h-2.34a22.7,22.7,0,0,1-1.17-4.187c-0.521-2.418-1.456-3.328-3.511-3.406h-2.132v7.593h-2.262V233.745Zm2.262,7.982h2.314c2.418,0,3.952-1.326,3.952-3.328,0-2.262-1.639-3.25-4.03-3.276a9.27,9.27,0,0,0-2.236.209v6.4Z" transform="translate(-56.368 -33.454)" style="fill:#394d54"/><path d="M178.22,233.512h9.438v1.9h-7.176v5.824h6.63v1.872h-6.63v7.931H178.22V233.512Z" transform="translate(-56.368 -33.454)" style="fill:#394d54"/><path d="M194.948,233.512v17.524h-2.262V233.512h2.262Z" transform="translate(-56.368 -33.454)" style="fill:#394d54"/><path d="M201.2,233.512h2.263v15.626h7.488v1.9H201.2V233.512Z" transform="translate(-56.368 -33.454)" style="fill:#394d54"/><path d="M224.71,242.82H217.9v6.317h7.592v1.9h-9.854V233.512H225.1v1.9h-7.2v5.538h6.812v1.873Z" transform="translate(-56.368 -33.454)" style="fill:#394d54"/><path id="outline" d="M162.2,129.3h13.981v14.295h7.069a30.658,30.658,0,0,0,9.714-1.63,24.87,24.87,0,0,0,4.723-2.134,17.534,17.534,0,0,1-3.283-9.038c-0.4-4.362.478-10.041,3.43-13.462l1.478-1.7,1.75,1.418c4.41,3.543,8.118,8.493,8.772,14.137a21.37,21.37,0,0,1,16.224,1.509l1.921,1.1-1.011,1.97c-3.958,7.724-12.233,10.118-20.323,9.686-12.1,30.167-38.461,44.442-70.416,44.442-16.509,0-31.656-6.171-40.282-20.819l-0.141-.24-1.258-2.556a40.551,40.551,0,0,1-3.228-20.569l0.2-2.115h11.957V129.3h13.983V115.318h27.965V101.335H162.2V129.3Z" transform="translate(-56.368 -33.454)" style="fill:#394d54"/><g id="body_colors" data-name="body colors"><path d="M207.505,134.587c0.937-7.286-4.515-13.009-7.9-15.726-3.9,4.5-4.5,16.314,1.611,21.285-3.412,3.031-10.6,5.777-17.962,5.777H93.646a37.76,37.76,0,0,0,3.714,20.819l1.02,1.865a34.537,34.537,0,0,0,2.113,3.17h0q5.526,0.355,10.189.25h0a49.973,49.973,0,0,0,14.866-2.164,1.077,1.077,0,0,1,.7,2.034c-0.5.174-1.026,0.337-1.566,0.493h0a46.79,46.79,0,0,1-10.276,1.675c0.243,0-.254.036-0.256,0.036-0.14.008-.315,0.028-0.456,0.036-1.619.09-3.367,0.11-5.153,0.11-1.954,0-3.879-.038-6.03-0.146l-0.056.036c7.467,8.391,19.141,13.423,33.775,13.423,30.971,0,57.241-13.73,68.872-44.552,8.253,0.847,16.184-1.258,19.793-8.3C219.15,131.39,211.76,132.449,207.505,134.587Z" transform="translate(-56.368 -33.454)" style="fill:#00aada"/><path d="M207.505,134.587c0.937-7.286-4.515-13.009-7.9-15.726-3.9,4.5-4.5,16.314,1.611,21.285-3.412,3.031-10.6,5.777-17.962,5.777h-84.3c-0.366,11.768,4,20.7,11.729,26.1h0a49.973,49.973,0,0,0,14.866-2.164,1.077,1.077,0,0,1,.7,2.034c-0.5.174-1.026,0.337-1.566,0.493h0a49.192,49.192,0,0,1-10.55,1.747l-0.1-.1c10.54,5.406,25.823,5.387,43.342-1.343,19.652-7.549,37.937-21.93,50.69-38.377Q207.778,134.449,207.505,134.587Z" transform="translate(-56.368 -33.454)" style="fill:#24b8eb"/><path d="M93.813,155.259a35.834,35.834,0,0,0,3.546,11.481l1.02,1.865a34.477,34.477,0,0,0,2.113,3.17q5.526,0.355,10.19.25a49.973,49.973,0,0,0,14.866-2.164,1.077,1.077,0,0,1,.7,2.034c-0.5.174-1.026,0.337-1.566,0.493h0a49.173,49.173,0,0,1-10.532,1.711c-0.141.008-.387,0.01-0.53,0.018-1.619.09-3.347,0.146-5.135,0.146-1.954,0-3.952-.038-6.1-0.146,7.467,8.393,19.208,13.444,33.848,13.444,26.514,0,49.58-10.064,62.97-32.3H93.813v0Z" transform="translate(-56.368 -33.454)" style="fill:#008bb8"/><path d="M99.763,155.259a26.913,26.913,0,0,0,10.924,16.765,49.973,49.973,0,0,0,14.866-2.164,1.077,1.077,0,0,1,.7,2.034c-0.5.174-1.026,0.337-1.566,0.493h0a49.909,49.909,0,0,1-10.606,1.711c10.54,5.406,25.775,5.327,43.3-1.4a114.457,114.457,0,0,0,29.949-17.437H99.763Z" transform="translate(-56.368 -33.454)" style="fill:#039bc6"/></g><g id="Containers"><path d="M115.96,132.643h0.957v10.1H115.96v-10.1Zm-1.835,0h0.995v10.1h-0.995v-10.1Zm-1.837,0h0.995v10.1h-0.995v-10.1Zm-1.837,0h0.995v10.1h-0.993v-10.1h0Zm-1.835,0h1v10.1h-1v-10.1Zm-1.806,0h0.965v10.1h-0.952v-10.1h-0.013Zm-1.01-1.01h12.118v12.118H105.808V131.63Z" transform="translate(-56.368 -33.454)" style="fill:#00acd3"/><path d="M129.943,118.657H130.9v10.1h-0.957v-10.1Zm-1.835,0H129.1v10.1h-0.993v-10.1Zm-1.837,0h0.995v10.1H126.27v-10.1Zm-1.837,0h0.995v10.1h-0.995v-10.1Zm-1.835,0h0.993v10.1H122.6v-10.1h0Zm-1.806,0h0.97v10.1H120.8v-10.1h-0.008Zm-1-1.01h12.119v12.118H119.792V117.647Z" transform="translate(-56.368 -33.454)" style="fill:#00acd3"/><path d="M129.943,132.643H130.9v10.1h-0.957v-10.1Zm-1.835,0H129.1v10.1h-0.993v-10.1Zm-1.837,0h0.995v10.1H126.27v-10.1Zm-1.837,0h0.995v10.1h-0.995v-10.1Zm-1.835,0h0.993v10.1H122.6v-10.1h0Zm-1.806,0h0.97v10.1H120.8v-10.1h-0.008Zm-1-1.013h12.119v12.118H119.792V131.63Z" transform="translate(-56.368 -33.454)" style="fill:#20c2ef"/><path d="M143.926,132.643h0.955v10.1h-0.955v-10.1Zm-1.837,0h0.995v10.1h-0.995v-10.1Zm-1.835,0h0.995v10.1h-0.995v-10.1Zm-1.837,0h0.995v10.1h-0.993v-10.1h0Zm-1.837,0h0.995v10.1H136.58v-10.1h0Zm-1.8,0h0.955v10.1h-0.954v-10.1h0Zm-1.01-1.01H145.9v12.118H133.773V131.63Z" transform="translate(-56.368 -33.454)" style="fill:#00acd3"/><path d="M143.926,118.657h0.955v10.1h-0.955v-10.1Zm-1.837,0h0.995v10.1h-0.995v-10.1Zm-1.835,0h0.995v10.1h-0.995v-10.1Zm-1.837,0h0.995v10.1h-0.993v-10.1h0Zm-1.837,0h0.995v10.1H136.58v-10.1h0Zm-1.8,0h0.955v10.1h-0.954v-10.1h0Zm-1.01-1.01H145.9v12.118H133.773V117.647h0Z" transform="translate(-56.368 -33.454)" style="fill:#20c2ef"/><path d="M157.908,132.643h0.957v10.1h-0.957v-10.1Zm-1.835,0h0.987v10.1h-0.985v-10.1h0Zm-1.837,0h0.995v10.1h-0.995v-10.1Zm-1.837,0h0.995v10.1H152.4v-10.1Zm-1.835,0h0.995v10.1h-0.995v-10.1Zm-1.806,0h0.955v10.1h-0.947v-10.1h-0.008Zm-1.01-1.01h12.118v12.118H147.756V131.63Z" transform="translate(-56.368 -33.454)" style="fill:#20c2ef"/><path d="M157.908,118.657h0.957v10.1h-0.957v-10.1Zm-1.835,0h0.987v10.1h-0.985v-10.1h0Zm-1.837,0h0.995v10.1h-0.995v-10.1Zm-1.837,0h0.995v10.1H152.4v-10.1Zm-1.835,0h0.995v10.1h-0.995v-10.1Zm-1.806,0h0.955v10.1h-0.947v-10.1h-0.008Zm-1.01-1.01h12.118v12.118H147.756V117.647h-0.008Z" transform="translate(-56.368 -33.454)" style="fill:#00acd3"/><path d="M157.908,104.674h0.957v10.1h-0.957v-10.1Zm-1.835,0h0.987v10.1h-0.985v-10.1h0Zm-1.837,0h0.995v10.1h-0.995v-10.1Zm-1.837,0h0.995v10.1H152.4v-10.1Zm-1.835,0h0.995v10.1h-0.995v-10.1Zm-1.806,0h0.955v10.1h-0.947v-10.1h-0.008Zm-1.01-1.01h12.118v12.118H147.756V103.665h-0.008Z" transform="translate(-56.368 -33.454)" style="fill:#20c2ef"/><path d="M171.889,132.643h0.955v10.1h-0.955v-10.1Zm-1.835,0h0.993v10.1h-0.993v-10.1Zm-1.837,0h0.992v10.1h-0.985v-10.1h-0.007Zm-1.835,0h0.995v10.1h-0.995v-10.1Zm-1.837,0h0.995v10.1h-0.993v-10.1h0Zm-1.806,0H163.7v10.1h-0.949v-10.1h-0.008Zm-1.01-1.01h12.118v12.118H161.738V131.63Z" transform="translate(-56.368 -33.454)" style="fill:#00acd3"/></g><path d="M131.151,163.4a3.343,3.343,0,1,1-3.343,3.343h0a3.344,3.344,0,0,1,3.343-3.343" transform="translate(-56.368 -33.454)" style="fill:#d4edf1"/><path d="M131.151,164.345a2.394,2.394,0,0,1,.867.164,0.977,0.977,0,1,0,1.345,1.313,2.4,2.4,0,1,1-2.211-1.478" transform="translate(-56.368 -33.454)" style="fill:#394d54"/><path d="M140.038,187.487c-8.279-3.929-12.824-9.269-15.352-15.1a51.277,51.277,0,0,1-11.067,1.679q-2.428.136-5.107,0.138-3.088,0-6.506-.182c7.593,7.588,16.933,13.431,34.229,13.538Q138.147,187.559,140.038,187.487Z" transform="translate(-56.368 -33.454)" style="fill:#bfdbe0"/><path d="M127.761,177.766a29,29,0,0,1-3.073-5.38,51.27,51.27,0,0,1-11.07,1.681A35.233,35.233,0,0,0,127.761,177.766Z" transform="translate(-56.368 -33.454)" style="fill:#d4edf1"/></svg>