<?xml version="1.0" encoding="iso-8859-1"?>

<!DOCTYPE svg PUBLIC "-//W3C//DTD SVG 1.1//EN" "http://www.w3.org/Graphics/SVG/1.1/DTD/svg11.dtd">
<!-- Uploaded to: SVG Repo, www.svgrepo.com, Generator: SVG Repo Mixer Tools -->
<svg version="1.1" id="_x34_" xmlns="http://www.w3.org/2000/svg" xmlns:xlink="http://www.w3.org/1999/xlink" 
	 viewBox="0 0 512 512"  xml:space="preserve">
<g>
	<path style="fill:#393939;" d="M512,63.631v410.245c0,14.536-11.838,26.375-26.287,26.375H26.288c-1.045,0-2.089-0.087-3.133-0.261
		c-11.925-1.392-21.5-10.881-22.893-22.894C0.087,476.052,0,474.919,0,473.876V26.288C0,11.839,11.839,0,26.288,0h49.181v116.119
		c0,0.871,0.087,1.83,0.087,2.699c0,0,0.087,0.087,0.087,0.174c1.48,12.098,11.664,21.413,24.112,21.413h312.492
		c12.535,0,22.892-9.574,24.198-21.761c0-0.087,0-0.087,0-0.087c0.087-0.871,0.087-1.653,0.087-2.438V0h11.925L512,63.631z"/>
	<path style="fill:#313231;" d="M438.708,0v116.119c0,12.71-9.836,23.153-22.458,24.199c-0.87,0.087-1.654,0.087-2.524,0.087H98.1
		c-8.443,0-15.842-4.265-20.282-10.706c-1.392-1.915-2.437-4.091-3.133-6.354c-0.784-2.263-1.132-4.701-1.132-7.225V0H438.708z"/>
	<path style="opacity:0.1;fill:#FEFFFF;" d="M438.287,109.319v6.782c0,13.43-11.006,24.282-24.525,24.282H98.139
		c-13.564,0-24.525-10.851-24.525-24.282v-6.782c0,13.43,10.961,24.282,24.525,24.282h315.624
		C427.281,133.601,438.287,122.749,438.287,109.319z"/>
	<path style="fill:#959494;" d="M421.56,0v116.119c0,6.877-2.872,13.057-7.486,17.496c-4.352,4.265-10.271,6.79-16.8,6.79H226.23
		c-6.528,0-12.447-2.525-16.8-6.79c-4.613-4.439-7.486-10.619-7.486-17.496V0H421.56z"/>
	<path style="fill:#F4F5FA;" d="M434.668,199.232v300.975H73.594V199.232c0-8.464,6.925-15.392,15.392-15.392h330.29
		C427.743,183.84,434.668,190.768,434.668,199.232z"/>
	<rect x="115.32" y="236.671" style="fill:#919192;" width="138.81" height="21.389"/>
	<rect x="115.32" y="296.625" style="fill:#919192;" width="276.866" height="21.389"/>
	<rect x="115.32" y="356.579" style="fill:#919192;" width="276.866" height="21.389"/>
	<rect x="115.32" y="416.533" style="fill:#919192;" width="276.866" height="21.389"/>
	<rect x="73.594" y="478.819" style="fill:#97B569;" width="360.708" height="21.389"/>
	<rect x="19.07" y="423.339" style="fill:#313231;" width="29.167" height="29.167"/>
	<rect x="457.543" y="423.339" style="fill:#313231;" width="29.167" height="29.167"/>
	<rect x="359.908" y="183.84" style="fill:#CB7296;" width="22.035" height="28.822"/>
	<rect x="381.943" y="183.84" style="fill:#57BFC3;" width="22.035" height="28.822"/>
	<path style="opacity:0.1;fill:#FFFFFF;" d="M256,0v500.251H26.288c-1.045,0-2.089-0.087-3.133-0.261
		c-11.925-1.392-21.5-10.881-22.893-22.894C0.087,476.052,0,474.919,0,473.876V26.288C0,11.839,11.839,0,26.288,0H256z"/>
	<path style="fill:#313231;" d="M360.767,13.985h-20.863v103.056h20.863c8.882,0,16.082-7.2,16.082-16.082V30.067
		C376.849,21.185,369.649,13.985,360.767,13.985z"/>
</g>
</svg>