<?xml version="1.0" encoding="iso-8859-1"?>
<!-- Generator: Adobe Illustrator 19.0.0, SVG Export Plug-In . SVG Version: 6.00 Build 0)  -->
<svg version="1.1" id="Capa_1" xmlns="http://www.w3.org/2000/svg" xmlns:xlink="http://www.w3.org/1999/xlink" x="0px" y="0px"
	 viewBox="0 0 512 512" style="enable-background:new 0 0 512 512;" xml:space="preserve">
<path style="fill:#F2F2F2;" d="M512,256c0,73.362-30.856,139.525-80.311,186.18c-32.12,30.323-72.077,52.423-116.506,62.945
	C296.187,509.618,276.365,512,256,512c-20.376,0-40.187-2.382-59.183-6.875c-44.439-10.522-84.396-32.622-116.517-62.945
	C30.856,395.515,0,329.362,0,256c0-63.3,22.977-121.25,61.053-165.93c28.776-33.782,66.184-59.988,108.805-75.212
	C196.775,5.235,225.771,0,256,0s59.225,5.235,86.141,14.858c42.621,15.224,80.018,41.42,108.795,75.201
	C489.023,134.74,512,192.69,512,256z"/>
<path style="fill:#222123;" d="M468.741,319.969c0,20.135-4.618,37.794-13.479,51.994c-3.062,22.904-10.459,44.523-21.389,64.125
	c-0.616,1.996-1.337,4.023-2.184,6.092C385.839,485.47,324.023,512,256,512c-68.033,0-129.849-26.53-175.7-69.82
	c-0.836-2.069-1.567-4.096-2.184-6.092c-10.93-19.602-18.328-41.221-21.379-64.125c-8.861-14.2-13.49-31.859-13.49-51.994
	c0-30.208,21.347-49.089,33.865-58.149c2.476-4.556,5.151-9.007,8.004-13.343c-0.063-0.502-0.094-1.003-0.115-1.515
	c-0.878-24.398,8.673-47.877,26.885-66.09c5.12-5.11,10.668-9.206,16.823-12.403c-4.963-0.94-8.61-1.829-9.425-2.038
	c-5.183-1.296-9.226-5.224-10.731-10.219c-7.492-3.887-12.466-8.359-13.385-9.206c-2.487-2.32-4.075-5.381-4.587-8.631
	c-6.907-4.117-10.522-7.68-11.515-8.725c-3.135-3.312-4.566-7.826-3.992-12.257c-3.615-3.26-5.831-5.893-6.343-6.52
	c-3.072-3.772-4.096-8.756-2.853-13.385c-2.811-3.657-4.336-6.468-4.671-7.105c-0.052-0.104-0.104-0.209-0.157-0.313
	c-2.111-4.305-2.038-9.362,0.188-13.594c-2.581-3.814-3.929-6.771-4.232-7.492c-2.017-4.639-1.557-9.989,1.223-14.211
	c0.387-0.596,0.815-1.149,1.264-1.672c-3.626-4.995-3.95-11.891-0.272-17.324c2.863-4.221,7.816-6.552,12.915-6.552h6.468
	l0.021-0.042c2.581-5.078,7.784-8.307,13.479-8.307c3.856,0,7.983,0.23,11.985,0.575c2.8-3.218,6.907-5.162,11.327-5.162
	c1.63,0,3.375,0.125,5.172,0.324c2.863-3.657,7.44-5.757,12.184-5.757c0.909,0,1.829,0.073,2.738,0.23
	c4.827,0.846,9.028,1.87,12.675,2.988c0.606-0.522,1.264-1.003,1.954-1.421c2.403-1.463,5.11-2.205,7.826-2.205
	c2.351,0,4.712,0.554,6.865,1.661c1.797,0.92,3.469,1.839,5.026,2.748c0.387,0.219,0.763,0.449,1.139,0.669
	c1.933-0.867,4.033-1.327,6.165-1.327c1.766,0,3.553,0.313,5.266,0.961c2.957,1.108,6.092,2.988,9.112,5.151
	c1.808-0.731,3.72-1.097,5.642-1.097c1.975,0,3.96,0.387,5.82,1.17c3.615,1.526,7.252,4.065,10.616,6.928
	c0.773-0.115,1.546-0.178,2.33-0.178c3.375,0,6.729,1.139,9.456,3.354c1.066,0.867,23.845,19.613,30.595,47.156
	c6.74-27.544,29.518-46.289,30.584-47.156c2.727-2.215,6.081-3.354,9.456-3.354c0.784,0,1.567,0.063,2.341,0.178
	c3.354-2.863,6.99-5.402,10.606-6.928c1.87-0.784,3.845-1.17,5.831-1.17c1.912,0,3.824,0.366,5.632,1.097
	c3.02-2.163,6.154-4.044,9.112-5.151c1.724-0.648,3.511-0.961,5.277-0.961c2.121,0,4.221,0.46,6.154,1.327
	c0.376-0.23,0.752-0.449,1.149-0.669c1.557-0.909,3.229-1.829,5.015-2.748c2.163-1.108,4.514-1.661,6.865-1.661
	c2.717,0,5.434,0.742,7.826,2.205c0.7,0.418,1.348,0.899,1.964,1.421c3.636-1.118,7.837-2.142,12.664-2.988
	c0.919-0.157,1.829-0.23,2.738-0.23c4.744,0,9.32,2.1,12.184,5.757c1.797-0.199,3.542-0.324,5.172-0.324
	c4.43,0,8.526,1.944,11.337,5.162c4.012-0.345,8.161-0.575,12.027-0.575c5.705,0,10.919,3.229,13.448,8.349c0.01,0,0.01,0,0.01,0
	h6.541c5.099,0,10.041,2.351,12.884,6.593c3.647,5.444,3.312,12.319-0.324,17.283c0.46,0.522,0.888,1.076,1.275,1.672
	c2.769,4.221,3.229,9.571,1.223,14.211c-0.313,0.721-1.661,3.678-4.232,7.492c2.215,4.232,2.299,9.279,0.178,13.584
	c-0.052,0.115-0.105,0.219-0.157,0.324c-0.334,0.637-1.849,3.448-4.66,7.105c1.243,4.629,0.209,9.613-2.863,13.385
	c-0.502,0.627-2.717,3.26-6.343,6.52c0.575,4.43-0.857,8.944-3.992,12.257c-0.982,1.045-4.608,4.608-11.504,8.725
	c-0.522,3.25-2.111,6.311-4.598,8.631c-0.919,0.846-5.883,5.319-13.375,9.206c-1.515,4.995-5.548,8.923-10.742,10.219
	c-0.815,0.209-4.462,1.097-9.425,2.038c6.154,3.197,11.713,7.293,16.823,12.403c18.213,18.213,27.763,41.691,26.896,66.09
	c-0.021,0.512-0.063,1.014-0.115,1.515c2.842,4.336,5.517,8.788,7.993,13.343C447.394,270.879,468.741,289.761,468.741,319.969z"/>
<path style="fill:#81C756;" d="M120.008,64.679c0,0,61.914,18.788,103.797,56.993c7.48-4.035,20.649-13.958,18.844-33.215
	c-2.503-26.697-26.697-46.304-26.697-46.304v9.594c0,0-10.846-14.183-18.772-17.52l-2.086,9.177c0,0-11.263-11.68-17.938-14.183
	c0,0,2.086,4.588,0,10.429c0,0-4.588-6.675-19.189-14.183v10.011c0,0-5.84-6.257-25.028-9.594c0,0,4.588,3.754,7.092,10.846
	c0,0-15.851-5.423-24.612-5.423l7.718,7.718c0,0-17.729-3.128-31.077-3.128l6.257,8.342H71.619c0,0,11.263,11.263,11.263,18.772
	H70.785c0,0,5.423,12.515,17.938,18.355c0,0-4.171,2.086-14.183,2.086c0,0,5.423,10.429,16.686,16.686l-10.846,1.252
	c0,0,9.177,11.263,22.526,15.434l-12.932,2.503c0,0,7.509,7.926,25.445,13.765l-10.011,2.92c0,0,12.097,11.263,26.28,11.263
	l-8.76,4.588c0,0,16.686,4.171,28.783,4.171l-7.509,7.509c0,0,58.173,8.047,68.983-34.449
	C203.874,118.139,179.522,95.452,120.008,64.679z"/>
<g>
	<path style="fill:#CB1948;" d="M255.997,230.703c27.949,0,52.977-14.183,55.898-27.532c2.921-13.349-15.434-37.96-55.898-37.96
		s-58.817,24.612-55.898,37.96C203.019,216.521,228.048,230.703,255.997,230.703z"/>
	<path style="fill:#CB1948;" d="M315.183,505.125C296.187,509.618,276.365,512,256,512c-20.376,0-40.187-2.382-59.183-6.875
		c-0.293-1.881-0.251-3.657,0.125-5.277c3.082-13.343,29.529-19.968,59.058-19.968s55.965,6.625,59.058,19.968
		C315.434,501.457,315.476,503.244,315.183,505.125z"/>
	<path style="fill:#CB1948;" d="M162.297,409.506c-19.489-22.183-43.204-36.546-57.858-27.779
		c-14.655,8.769-25.12,43.776,3.096,75.892s64.28,26.243,74.862,12.84C192.978,457.055,181.786,431.689,162.297,409.506z"/>
</g>
<path style="fill:#CB1948;" d="M182.007,175.247c4.35,0.292,6.66,5.297,4.062,8.797c-7.323,9.862-17.874,22.296-31.855,34.562
	c-17.252,15.131-34.376,25.974-45.98,32.528c-3.636,2.054-8.075-0.539-8.225-4.712c-0.827-23.059,9.416-41.843,22.502-54.929
	C136.335,177.667,153.949,173.369,182.007,175.247z"/>
<g>
	<path style="fill:#CB1948;" d="M91.225,270.332c-17.52,11.68-32.954,27.114-32.954,49.64s6.466,41.506,19.605,54.646
		c13.14,13.14,25.318-39.64,25.863-52.144C104.554,303.805,109.787,261.78,91.225,270.332z"/>
	<ellipse style="fill:#CB1948;" cx="256" cy="404.793" rx="63.812" ry="56.728"/>
	
		<ellipse transform="matrix(-0.7071 -0.7071 0.7071 -0.7071 105.1524 636.8993)" style="fill:#CB1948;" cx="184.482" cy="296.672" rx="55.964" ry="64.919"/>
</g>
<path style="fill:#81C756;" d="M391.986,64.679c0,0-61.914,18.788-103.797,56.993c-7.48-4.035-20.649-13.958-18.844-33.215
	c2.503-26.697,26.697-46.304,26.697-46.304v9.594c0,0,10.846-14.183,18.772-17.52l2.086,9.177c0,0,11.263-11.68,17.938-14.183
	c0,0-2.086,4.588,0,10.429c0,0,4.588-6.675,19.189-14.183v10.011c0,0,5.84-6.257,25.028-9.594c0,0-4.588,3.754-7.092,10.846
	c0,0,15.851-5.423,24.612-5.423l-7.718,7.718c0,0,17.729-3.128,31.077-3.128l-6.257,8.342h26.697c0,0-11.263,11.263-11.263,18.772
	h12.097c0,0-5.423,12.515-17.938,18.355c0,0,4.171,2.086,14.183,2.086c0,0-5.423,10.429-16.686,16.686l10.846,1.252
	c0,0-9.177,11.263-22.526,15.434l12.932,2.503c0,0-7.509,7.926-25.446,13.765l10.011,2.92c0,0-12.097,11.263-26.28,11.263
	l8.76,4.588c0,0-16.686,4.171-28.783,4.171l7.509,7.509c0,0-58.173,8.047-68.983-34.449
	C308.12,118.139,332.472,95.452,391.986,64.679z"/>
<g>
	<path style="fill:#CB1948;" d="M255.997,230.703c-27.949,0-52.977-14.183-55.898-27.532c-2.92-13.349,15.434-37.96,55.898-37.96
		s58.817,24.612,55.898,37.96C308.974,216.521,283.946,230.703,255.997,230.703z"/>
	<path style="fill:#CB1948;" d="M349.697,409.506c19.489-22.183,43.204-36.546,57.858-27.779
		c14.655,8.769,25.12,43.776-3.096,75.892s-64.28,26.243-74.862,12.84C319.016,457.055,330.208,431.689,349.697,409.506z"/>
</g>
<path style="fill:#CB1948;" d="M329.987,175.247c-4.35,0.292-6.66,5.297-4.061,8.797c7.323,9.862,17.874,22.296,31.855,34.562
	c17.252,15.131,34.376,25.974,45.98,32.528c3.636,2.054,8.075-0.539,8.225-4.712c0.827-23.059-9.417-41.843-22.502-54.929
	C375.659,177.667,358.045,173.369,329.987,175.247z"/>
<g>
	<path style="fill:#CB1948;" d="M420.769,270.332c17.52,11.68,32.954,27.114,32.954,49.64s-6.466,41.506-19.605,54.646
		c-13.14,13.14-25.318-39.64-25.863-52.144C407.44,303.805,402.206,261.78,420.769,270.332z"/>
	
		<ellipse transform="matrix(-0.7071 0.7071 -0.7071 -0.7071 768.8735 274.8859)" style="fill:#CB1948;" cx="327.506" cy="296.682" rx="55.964" ry="64.919"/>
</g>
<g>
</g>
<g>
</g>
<g>
</g>
<g>
</g>
<g>
</g>
<g>
</g>
<g>
</g>
<g>
</g>
<g>
</g>
<g>
</g>
<g>
</g>
<g>
</g>
<g>
</g>
<g>
</g>
<g>
</g>
</svg>
