<?xml version="1.0" encoding="UTF-8" standalone="no"?>
<svg
   height="499.82382"
   width="1608.96"
   viewBox="-3.4623507 -25.700174 109.15164 49.493112"
   version="1.1"
   id="svg8"
   sodipodi:docname="logo.svg"
   inkscape:version="1.2.2 (b0a84865, 2022-12-01)"
   xmlns:inkscape="http://www.inkscape.org/namespaces/inkscape"
   xmlns:sodipodi="http://sodipodi.sourceforge.net/DTD/sodipodi-0.dtd"
   xmlns="http://www.w3.org/2000/svg"
   xmlns:svg="http://www.w3.org/2000/svg"
   xmlns:rdf="http://www.w3.org/1999/02/22-rdf-syntax-ns#"
   xmlns:cc="http://creativecommons.org/ns#"
   xmlns:dc="http://purl.org/dc/elements/1.1/">
  <metadata
     id="metadata14">
    <rdf:RDF>
      <cc:Work
         rdf:about="">
        <dc:format>image/svg+xml</dc:format>
        <dc:type
           rdf:resource="http://purl.org/dc/dcmitype/StillImage" />
        <dc:title />
      </cc:Work>
    </rdf:RDF>
  </metadata>
  <defs
     id="defs12" />
  <sodipodi:namedview
     pagecolor="#ffffff"
     bordercolor="#666666"
     borderopacity="1"
     objecttolerance="10"
     gridtolerance="10"
     guidetolerance="10"
     inkscape:pageopacity="0"
     inkscape:pageshadow="2"
     inkscape:window-width="1309"
     inkscape:window-height="404"
     id="namedview10"
     showgrid="false"
     fit-margin-top="0"
     fit-margin-left="0"
     fit-margin-right="0"
     fit-margin-bottom="0"
     inkscape:zoom="0.2296"
     inkscape:cx="618.4669"
     inkscape:cy="370.20906"
     inkscape:window-x="0"
     inkscape:window-y="25"
     inkscape:window-maximized="0"
     inkscape:current-layer="svg8"
     inkscape:showpageshadow="0"
     inkscape:pagecheckerboard="0"
     inkscape:deskcolor="#d1d1d1" />
  <path
     d="m 20.941966,-11.992174 a 68.72,68.72 0 0 0 -0.022,-1.493 c -0.03,-1.084 -0.093,-2.178 -0.286,-3.25 a 10.962,10.962 0 0 0 -1.019,-3.091 10.387,10.387 0 0 0 -4.542,-4.544 10.97,10.97 0 0 0 -3.09,-1.018 c -1.074,-0.193 -2.168,-0.257 -3.252,-0.286 -0.499,-0.014 -0.996,-0.02 -1.494,-0.023 -0.591,-0.003 -1.182,-0.003 -1.774,-0.003 h -18.528 c -0.592,0 -1.182,0 -1.773,0.003 -0.498,0.004 -0.996,0.01 -1.494,0.023 -0.271,0.007 -0.543,0.017 -0.815,0.03 -0.815,0.039 -1.632,0.111 -2.437,0.256 a 11.31,11.31 0 0 0 -2.342,0.674 10.42,10.42 0 0 0 -3.379,2.256 10.383,10.383 0 0 0 -1.912,2.631 c -0.504,0.99 -0.823,2.002 -1.018,3.091 -0.193,1.073 -0.257,2.167 -0.286,3.25 -0.014,0.5 -0.02,0.997 -0.023,1.494 -0.003,0.592 -0.003,1.183 -0.003,1.774 V 8.3098257 c 0,0.592 0,1.183 0.003,1.7740003 0.004,0.498 0.01,0.996 0.023,1.493 0.03,1.085 0.093,2.179 0.286,3.25 a 10.97,10.97 0 0 0 1.018,3.093 10.381,10.381 0 0 0 4.544,4.544 c 0.989,0.503 2.001,0.822 3.09,1.018 1.072,0.193 2.167,0.257 3.251,0.286 0.498,0.013 0.996,0.019 1.494,0.022 0.59,0.004 1.181,0.003 1.773,0.003 h 18.528 c 0.59,0 1.182,10e-4 1.773,-0.003 0.498,-0.003 0.995,-0.009 1.493,-0.022 1.085,-0.03 2.18,-0.093 3.252,-0.286 a 10.97,10.97 0 0 0 3.09,-1.018 10.384,10.384 0 0 0 4.543,-4.544 c 0.504,-0.99 0.823,-2.003 1.019,-3.091 0.193,-1.072 0.257,-2.166 0.286,-3.251 0.013,-0.497 0.019,-0.995 0.022,-1.493 0.004,-0.5910003 0.003,-1.1820003 0.003,-1.7740003 V -10.218174 c 0,-0.591 0,-1.182 -0.003,-1.774 z"
     id="path2"
     inkscape:connector-curvature="0"
     style="fill:#f05138" />
  <path
     d="m 10.669966,4.8498257 -0.003,-0.003 c 0.054,-0.187 0.11,-0.372 0.159,-0.563 2.054,-8.184 -2.96,-17.8599997 -11.44300006,-22.9539997 3.71799996,5.04 5.36100006,11.1439997 3.89999996,16.4819997 -0.13,0.477 -0.286,0.934 -0.459,1.37799997 a 11.353,11.353 0 0 0 -0.742,-0.43899997 c 0,0 -8.44,-5.21 -17.5859999,-14.4269997 -0.24,-0.242 4.877,7.3139997 10.6849999,13.4499997 -2.736,-1.535 -10.3619999,-7.084 -15.1889999,-11.5019997 0.593,0.99 1.299,1.942 2.074,2.859 4.031,5.1119997 9.2889999,11.41999967 15.5869999,16.2639997 -4.425,2.708 -10.6779999,2.918 -16.9039999,0.003 a 25.539,25.539 0 0 1 -4.328,-2.582 25.92,25.92 0 0 0 11.634,9.9750003 c 5.8919999,2.532 11.74999994,2.36 16.113,0.042 l -0.003,0.005 c 0.02,-0.013 0.045,-0.026 0.066,-0.04 0.179,-0.095 0.357,-0.194 0.53,-0.297 2.097,-1.088 6.238,-2.192 8.46,2.132 0.545,1.059 1.702,-4.55 -2.55,-9.7820003 z"
     id="path4"
     inkscape:connector-curvature="0"
     style="fill:#ffffff" />
  <path
     d="m 39.727966,6.4188257 c 0.387,3.433 3.662,5.6840003 8.21,5.6840003 4.321,0 7.437,-2.2500003 7.437,-5.3660003 0,-2.683 -1.888,-4.321 -6.232,-5.412 l -4.207,-1.07000003 c -6.049,-1.49999997 -8.778,-4.22999997 -8.778,-8.73199997 0,-5.5489997 4.844,-9.3919997 11.735,-9.3919997 6.685,0 11.438,3.866 11.598,9.4379997 h -4.435 c -0.341,-3.4119997 -3.116,-5.5039997 -7.277,-5.5039997 -4.117,0 -6.982,2.115 -6.982,5.2069997 0,2.41 1.774,3.844 6.14,4.958 l 3.503,0.91 c 6.777,1.66 9.551,4.298 9.551,9.051 0,6.0500003 -4.799,9.8470003 -12.44,9.8470003 -7.095,0 -11.939,-3.775 -12.303,-9.6200003 h 4.48 z m 48.432,9.0730003 h -4.457 l -5.208,-18.1470003 h -0.09 l -5.186,18.1470003 h -4.456 l -6.595,-23.7650003 h 4.32 l 4.594,19.0800003 h 0.091 l 5.185,-19.0800003 h 4.185 l 5.23,19.0800003 h 0.091 l 4.594,-19.0800003 h 4.275 z m 9.45,-30.155 c 0,-1.432 1.184,-2.592 2.616004,-2.592 1.456,0 2.638,1.16 2.638,2.592 0,1.433 -1.182,2.615 -2.638,2.615 a 2.63,2.63 0 0 1 -2.615004,-2.615 z m 0.456,6.3899997 h 4.343004 V 15.491826 h -4.343004 z m 32.708004,3.503 v -3.503 h -4.593 v -5.6849997 h -4.322 v 5.6849997 h -8.302 v -2.0919997 c 0.022,-2.115 0.84,-3.002 2.797,-3.002 0.636,0 1.273,0.069 1.796,0.16 v -3.413 a 15.16,15.16 0 0 0 -2.296,-0.182 c -4.64,0 -6.596,1.934 -6.596,6.368 v 2.1599997 h -3.32 v 3.503 h 3.32 V 15.490826 h 4.321 V -4.7701743 h 8.281 v 14.03 c 0,4.5940003 1.75,6.3670003 6.299,6.3670003 0.978,0 2.092,-0.068 2.593,-0.181 v -3.548 a 15.36,15.36 0 0 1 -1.638,0.114 c -2.024,0 -2.933,-0.955 -2.933,-3.0930003 v -13.689 z"
     id="path6"
     inkscape:connector-curvature="0"
     style="fill:#808080" />
</svg>
