<svg id="Layer_5" enable-background="new 0 0 64 64" height="512" viewBox="0 0 64 64" width="512" xmlns="http://www.w3.org/2000/svg"><g><g><path d="m8 2v4 32 8h8v-36h28l4 4v-8-4z" fill="#aab2bd"/><path d="m52 38v16 8h-12v-16h-24v-36h28v4h-24v10h28v-6h4z" fill="#e6e9ed"/><path d="m52 18h-4-4v-4-4l4 4z" fill="#5cd6b3"/><path d="m48 18v6h-28v-10h24v4z" fill="#fcd770"/><path d="m38 28h10v12h-10z" fill="#5cd6b3"/><path d="m61 38-2 8 2 8h-9v-16z" fill="#ffeaa7"/><path d="m8 38v8h-2c-1.1 0-2.1-.45-2.83-1.17-.72-.73-1.17-1.73-1.17-2.83 0-2.21 1.79-4 4-4z" fill="#ffeaa7"/><path d="m39 62h-33c-2.21 0-4-1.79-4-4v-16c0 1.1.45 2.1 1.17 2.83.73.72 1.73 1.17 2.83 1.17h2 8 24v16z" fill="#fcd770"/></g><g><path d="m24 51c.551 0 1 .449 1 1h2c0-1.654-1.346-3-3-3s-3 1.346-3 3v4c0 1.654 1.346 3 3 3s3-1.346 3-3h-2c0 .551-.449 1-1 1s-1-.449-1-1v-4c0-.551.449-1 1-1z"/><path d="m16 51c.551 0 1 .449 1 1h2c0-1.654-1.346-3-3-3s-3 1.346-3 3 1.346 3 3 3c.551 0 1 .449 1 1s-.449 1-1 1-1-.449-1-1h-2c0 1.654 1.346 3 3 3s3-1.346 3-3-1.346-3-3-3c-.551 0-1-.449-1-1s.449-1 1-1z"/><path d="m8 49c-1.654 0-3 1.346-3 3v7h2v-2h2v2h2v-7c0-1.654-1.346-3-3-3zm-1 6v-3c0-.551.449-1 1-1s1 .449 1 1v3z"/><path d="m35 53h-4v-4h-2v10h2v-4h4v4h2v-10h-2z"/><path d="m60.031 46 2.25-9h-9.281v-19.414l-4-4v-12.586h-42v36h-1c-2.757 0-5 2.243-5 5v16c0 2.757 2.243 5 5 5h33 2 12v-8h9.281zm-13.031-27v4h-26v-8h22v4zm-2-2v-4.586l4.586 4.586zm2-14v8.586l-2.586-2.586h-29.414v36h-6v-42zm-41 36h1v6h-1c-1.654 0-3-1.346-3-3s1.346-3 3-3zm0 22c-1.654 0-3-1.346-3-3v-12.002c.836.628 1.875 1.002 3 1.002h33v14zm35 0v-16h-24v-34h26v2h-24v12h30v-6h2v42zm18.719-8h-6.719v-14h6.719l-1.75 7z"/><path d="m11 5h2v2h-2z"/><path d="m15 5h30v2h-30z"/><path d="m19 27h2v2h-2z"/><path d="m23 27h12v2h-12z"/><path d="m19 31h16v2h-16z"/><path d="m19 35h16v2h-16z"/><path d="m19 39h16v2h-16z"/><path d="m37 41h12v-14h-12zm2-12h8v10h-8z"/><path d="m43 43h6v2h-6z"/><path d="m43 47h6v2h-6z"/><path d="m43 51h6v2h-6z"/><path d="m43 55h6v2h-6z"/></g></g></svg>