<?xml version="1.0" encoding="UTF-8" standalone="no"?><!DOCTYPE svg PUBLIC "-//W3C//DTD SVG 1.1//EN" "http://www.w3.org/Graphics/SVG/1.1/DTD/svg11.dtd"><!-- Generated by graphviz version 2.40.1 (20161225.0304)
 --><!-- Title: finite_state_machine Pages: 1 --><svg xmlns="http://www.w3.org/2000/svg" xmlns:xlink="http://www.w3.org/1999/xlink" width="251pt" height="974pt" viewBox="0.00 0.00 250.70 973.76">
<g id="graph0" class="graph" transform="scale(1 1) rotate(0) translate(4 969.7566)">
<title>finite_state_machine</title>
<polygon fill="#ffffff" stroke="transparent" points="-4,4 -4,-969.7566 246.6953,-969.7566 246.6953,4 -4,4"/>
<!-- start -->
<g id="node1" class="node">
<title>start</title>
<ellipse fill="#000000" stroke="#000000" cx="143.6505" cy="-963.9566" rx="1.8" ry="1.8"/>
</g>
<!-- Idle -->
<g id="node2" class="node">
<title>Idle</title>
<ellipse fill="none" stroke="#000000" cx="143.6505" cy="-888.4783" rx="20.4602" ry="20.4602"/>
<ellipse fill="none" stroke="#000000" cx="143.6505" cy="-888.4783" rx="24.4566" ry="24.4566"/>
<text text-anchor="middle" x="143.6505" y="-885.1783" font-family="Times,serif" font-size="11.00" fill="#000000">Idle</text>
</g>
<!-- start&#45;&gt;Idle -->
<g id="edge1" class="edge">
<title>start-&gt;Idle</title>
<path fill="none" stroke="#000000" d="M143.6505,-962.0908C143.6505,-956.5787 143.6505,-939.7388 143.6505,-923.5551"/>
<polygon fill="#000000" stroke="#000000" points="147.1506,-923.1405 143.6505,-913.1405 140.1506,-923.1405 147.1506,-923.1405"/>
<text text-anchor="middle" x="153.1187" y="-934.2566" font-family="Times,serif" font-size="11.00" fill="#000000">start</text>
</g>
<!-- Starting -->
<g id="node3" class="node">
<title>Starting</title>
<ellipse fill="none" stroke="#000000" cx="106.6505" cy="-809" rx="31.3923" ry="18"/>
<text text-anchor="middle" x="106.6505" y="-805.7" font-family="Times,serif" font-size="11.00" fill="#000000">Starting</text>
</g>
<!-- Idle&#45;&gt;Starting -->
<g id="edge2" class="edge">
<title>Idle-&gt;Starting</title>
<path fill="none" stroke="#000000" d="M133.1468,-865.9156C128.7883,-856.5534 123.6967,-845.6162 119.148,-835.8454"/>
<polygon fill="#000000" stroke="#000000" points="122.2211,-834.1535 114.8276,-826.5649 115.875,-837.1078 122.2211,-834.1535"/>
</g>
<!-- 3v3_Secondary_en -->
<g id="node4" class="node">
<title>3v3_Secondary_en</title>
<ellipse fill="none" stroke="#000000" cx="82.6505" cy="-736" rx="62.1112" ry="18"/>
<text text-anchor="middle" x="82.6505" y="-732.7" font-family="Times,serif" font-size="11.00" fill="#000000">3v3_Secondary_en</text>
</g>
<!-- Starting&#45;&gt;3v3_Secondary_en -->
<g id="edge3" class="edge">
<title>Starting-&gt;3v3_Secondary_en</title>
<path fill="none" stroke="#000000" d="M100.7179,-790.9551C98.0063,-782.7074 94.7339,-772.7536 91.7232,-763.5962"/>
<polygon fill="#000000" stroke="#000000" points="95.0462,-762.497 88.598,-754.0904 88.3964,-764.6833 95.0462,-762.497"/>
</g>
<!-- 3v3_SecCapLoad -->
<g id="node5" class="node">
<title>3v3_SecCapLoad</title>
<ellipse fill="none" stroke="#000000" cx="79.6505" cy="-650.8" rx="58.057" ry="18"/>
<text text-anchor="middle" x="79.6505" y="-647.5" font-family="Times,serif" font-size="11.00" fill="#000000">3v3_SecCapLoad</text>
</g>
<!-- 3v3_Secondary_en&#45;&gt;3v3_SecCapLoad -->
<g id="edge4" class="edge">
<title>3v3_Secondary_en-&gt;3v3_SecCapLoad</title>
<path fill="none" stroke="#000000" d="M82.0143,-717.9313C81.6165,-706.6354 81.0959,-691.8487 80.6445,-679.0289"/>
<polygon fill="#000000" stroke="#000000" points="84.1356,-678.7133 80.2858,-668.8427 77.14,-678.9597 84.1356,-678.7133"/>
<text text-anchor="middle" x="93.9193" y="-690.1" font-family="Times,serif" font-size="11.00" fill="#000000">&gt;1ms</text>
</g>
<!-- 0v9_en -->
<g id="node6" class="node">
<title>0v9_en</title>
<ellipse fill="none" stroke="#000000" cx="67.6505" cy="-565.6" rx="29.8641" ry="18"/>
<text text-anchor="middle" x="67.6505" y="-562.3" font-family="Times,serif" font-size="11.00" fill="#000000">0v9_en</text>
</g>
<!-- 3v3_SecCapLoad&#45;&gt;0v9_en -->
<g id="edge5" class="edge">
<title>3v3_SecCapLoad-&gt;0v9_en</title>
<path fill="none" stroke="#000000" d="M77.1056,-632.7313C75.5146,-621.4354 73.432,-606.6487 71.6264,-593.8289"/>
<polygon fill="#000000" stroke="#000000" points="75.0523,-593.0568 70.1917,-583.6427 68.1207,-594.0331 75.0523,-593.0568"/>
<text text-anchor="middle" x="86.9193" y="-604.9" font-family="Times,serif" font-size="11.00" fill="#000000">&gt;1ms</text>
</g>
<!-- 1v0_en -->
<g id="node7" class="node">
<title>1v0_en</title>
<ellipse fill="none" stroke="#000000" cx="66.6505" cy="-480.4" rx="29.8641" ry="18"/>
<text text-anchor="middle" x="66.6505" y="-477.1" font-family="Times,serif" font-size="11.00" fill="#000000">1v0_en</text>
</g>
<!-- 0v9_en&#45;&gt;1v0_en -->
<g id="edge6" class="edge">
<title>0v9_en-&gt;1v0_en</title>
<path fill="none" stroke="#000000" d="M67.4384,-547.5313C67.3058,-536.2354 67.1323,-521.4487 66.9818,-508.6289"/>
<polygon fill="#000000" stroke="#000000" points="70.4795,-508.4009 66.8623,-498.4427 63.48,-508.4831 70.4795,-508.4009"/>
<text text-anchor="middle" x="113.8312" y="-519.7" font-family="Times,serif" font-size="11.00" fill="#000000">&gt;1ms and 0v9_Good</text>
</g>
<!-- 2v5_en -->
<g id="node8" class="node">
<title>2v5_en</title>
<ellipse fill="none" stroke="#000000" cx="66.6505" cy="-395.2" rx="29.8641" ry="18"/>
<text text-anchor="middle" x="66.6505" y="-391.9" font-family="Times,serif" font-size="11.00" fill="#000000">2v5_en</text>
</g>
<!-- 1v0_en&#45;&gt;2v5_en -->
<g id="edge7" class="edge">
<title>1v0_en-&gt;2v5_en</title>
<path fill="none" stroke="#000000" d="M66.6505,-462.3313C66.6505,-451.0354 66.6505,-436.2487 66.6505,-423.4289"/>
<polygon fill="#000000" stroke="#000000" points="70.1506,-423.2426 66.6505,-413.2427 63.1506,-423.2427 70.1506,-423.2426"/>
</g>
<!-- 1v1_en -->
<g id="node9" class="node">
<title>1v1_en</title>
<ellipse fill="none" stroke="#000000" cx="66.6505" cy="-322.2" rx="29.8641" ry="18"/>
<text text-anchor="middle" x="66.6505" y="-318.9" font-family="Times,serif" font-size="11.00" fill="#000000">1v1_en</text>
</g>
<!-- 2v5_en&#45;&gt;1v1_en -->
<g id="edge8" class="edge">
<title>2v5_en-&gt;1v1_en</title>
<path fill="none" stroke="#000000" d="M66.6505,-377.1551C66.6505,-369.0828 66.6505,-359.3764 66.6505,-350.3817"/>
<polygon fill="#000000" stroke="#000000" points="70.1506,-350.2903 66.6505,-340.2904 63.1506,-350.2904 70.1506,-350.2903"/>
</g>
<!-- 2v5_A_en -->
<g id="node10" class="node">
<title>2v5_A_en</title>
<ellipse fill="none" stroke="#000000" cx="66.6505" cy="-249.2" rx="38.496" ry="18"/>
<text text-anchor="middle" x="66.6505" y="-245.9" font-family="Times,serif" font-size="11.00" fill="#000000">2v5_A_en</text>
</g>
<!-- 1v1_en&#45;&gt;2v5_A_en -->
<g id="edge9" class="edge">
<title>1v1_en-&gt;2v5_A_en</title>
<path fill="none" stroke="#000000" d="M66.6505,-304.1551C66.6505,-296.0828 66.6505,-286.3764 66.6505,-277.3817"/>
<polygon fill="#000000" stroke="#000000" points="70.1506,-277.2903 66.6505,-267.2904 63.1506,-277.2904 70.1506,-277.2903"/>
</g>
<!-- 1v5_A_en -->
<g id="node11" class="node">
<title>1v5_A_en</title>
<ellipse fill="none" stroke="#000000" cx="68.6505" cy="-176.2" rx="38.496" ry="18"/>
<text text-anchor="middle" x="68.6505" y="-172.9" font-family="Times,serif" font-size="11.00" fill="#000000">1v5_A_en</text>
</g>
<!-- 2v5_A_en&#45;&gt;1v5_A_en -->
<g id="edge10" class="edge">
<title>2v5_A_en-&gt;1v5_A_en</title>
<path fill="none" stroke="#000000" d="M67.1449,-231.1551C67.366,-223.0828 67.632,-213.3764 67.8784,-204.3817"/>
<polygon fill="#000000" stroke="#000000" points="71.3796,-204.3825 68.1549,-194.2904 64.3822,-204.1907 71.3796,-204.3825"/>
</g>
<!-- PWRGood_ADM1184 -->
<g id="node12" class="node">
<title>PWRGood_ADM1184</title>
<ellipse fill="none" stroke="#000000" cx="72.6505" cy="-103.2" rx="72.8013" ry="18"/>
<text text-anchor="middle" x="72.6505" y="-99.9" font-family="Times,serif" font-size="11.00" fill="#000000">PWRGood_ADM1184</text>
</g>
<!-- 1v5_A_en&#45;&gt;PWRGood_ADM1184 -->
<g id="edge11" class="edge">
<title>1v5_A_en-&gt;PWRGood_ADM1184</title>
<path fill="none" stroke="#000000" d="M69.6393,-158.1551C70.0816,-150.0828 70.6134,-140.3764 71.1063,-131.3817"/>
<polygon fill="#000000" stroke="#000000" points="74.6068,-131.4669 71.6592,-121.2904 67.6173,-131.0839 74.6068,-131.4669"/>
</g>
<!-- PWR_Ready -->
<g id="node13" class="node">
<title>PWR_Ready</title>
<ellipse fill="none" stroke="#000000" cx="147.6505" cy="-18" rx="45.3614" ry="18"/>
<text text-anchor="middle" x="147.6505" y="-14.7" font-family="Times,serif" font-size="11.00" fill="#000000">PWR_Ready</text>
</g>
<!-- PWRGood_ADM1184&#45;&gt;PWR_Ready -->
<g id="edge12" class="edge">
<title>PWRGood_ADM1184-&gt;PWR_Ready</title>
<path fill="none" stroke="#000000" d="M88.1905,-85.5465C99.0941,-73.1601 113.822,-56.4292 125.8918,-42.7179"/>
<polygon fill="#000000" stroke="#000000" points="128.6618,-44.8682 132.6421,-35.0495 123.4075,-40.243 128.6618,-44.8682"/>
<text text-anchor="middle" x="126.9193" y="-57.3" font-family="Times,serif" font-size="11.00" fill="#000000">&gt;1ms</text>
</g>
<!-- PWR_Ready&#45;&gt;Idle -->
<g id="edge13" class="edge">
<title>PWR_Ready-&gt;Idle</title>
<path fill="none" stroke="#000000" d="M156.4529,-35.801C163.9957,-52.7139 173.6505,-79.0745 173.6505,-103.2 173.6505,-809 173.6505,-809 173.6505,-809 173.6505,-826.0588 167.5265,-843.9271 160.8122,-858.3912"/>
<polygon fill="#000000" stroke="#000000" points="157.6714,-856.8468 156.3732,-867.3618 163.9453,-859.9514 157.6714,-856.8468"/>
<text text-anchor="middle" x="208.1729" y="-434.5" font-family="Times,serif" font-size="11.00" fill="#000000">System_Restart</text>
</g>
</g>
</svg>