<?xml version="1.0" encoding="UTF-8" standalone="no"?><!DOCTYPE svg PUBLIC "-//W3C//DTD SVG 1.1//EN" "http://www.w3.org/Graphics/SVG/1.1/DTD/svg11.dtd"><!-- Generated by graphviz version 2.40.1 (20161225.0304)
 --><!-- Title: finite_state_machine Pages: 1 --><svg xmlns="http://www.w3.org/2000/svg" xmlns:xlink="http://www.w3.org/1999/xlink" width="165pt" height="280pt" viewBox="0.00 0.00 164.63 280.16">
<g id="graph0" class="graph" transform="scale(1 1) rotate(0) translate(4 276.1566)">
<title>finite_state_machine</title>
<polygon fill="#ffffff" stroke="transparent" points="-4,4 -4,-276.1566 160.6315,-276.1566 160.6315,4 -4,4"/>
<!-- start -->
<g id="node1" class="node">
<title>start</title>
<ellipse fill="#000000" stroke="#000000" cx="88.3158" cy="-270.3566" rx="1.8" ry="1.8"/>
</g>
<!-- Idle -->
<g id="node2" class="node">
<title>Idle</title>
<ellipse fill="none" stroke="#000000" cx="88.3158" cy="-194.8783" rx="20.4602" ry="20.4602"/>
<ellipse fill="none" stroke="#000000" cx="88.3158" cy="-194.8783" rx="24.4566" ry="24.4566"/>
<text text-anchor="middle" x="88.3158" y="-191.5783" font-family="Times,serif" font-size="11.00" fill="#000000">Idle</text>
</g>
<!-- start&#45;&gt;Idle -->
<g id="edge1" class="edge">
<title>start-&gt;Idle</title>
<path fill="none" stroke="#000000" d="M88.3158,-268.4908C88.3158,-262.9787 88.3158,-246.1388 88.3158,-229.9551"/>
<polygon fill="#000000" stroke="#000000" points="91.8159,-229.5405 88.3158,-219.5405 84.8159,-229.5405 91.8159,-229.5405"/>
<text text-anchor="middle" x="97.784" y="-240.6566" font-family="Times,serif" font-size="11.00" fill="#000000">start</text>
</g>
<!-- Run -->
<g id="node3" class="node">
<title>Run</title>
<ellipse fill="none" stroke="#000000" cx="30.3158" cy="-103.2" rx="27" ry="18"/>
<text text-anchor="middle" x="30.3158" y="-99.9" font-family="Times,serif" font-size="11.00" fill="#000000">Run</text>
</g>
<!-- Idle&#45;&gt;Run -->
<g id="edge2" class="edge">
<title>Idle-&gt;Run</title>
<path fill="none" stroke="#000000" d="M74.0712,-174.7656C69.2258,-167.7596 63.85,-159.8002 59.1495,-152.4 54.3944,-144.9139 49.4366,-136.6427 45.0003,-129.0525"/>
<polygon fill="#000000" stroke="#000000" points="47.9335,-127.1333 39.8961,-120.2304 41.8745,-130.6389 47.9335,-127.1333"/>
<text text-anchor="middle" x="91.3989" y="-142.5" font-family="Times,serif" font-size="11.00" fill="#000000">Go_Signalling</text>
</g>
<!-- Warning_Signalling_OK -->
<g id="node4" class="node">
<title>Warning_Signalling_OK</title>
<ellipse fill="none" stroke="#000000" cx="78.3158" cy="-18" rx="78.132" ry="18"/>
<text text-anchor="middle" x="78.3158" y="-14.7" font-family="Times,serif" font-size="11.00" fill="#000000">Warning_Signalling_OK</text>
</g>
<!-- Run&#45;&gt;Warning_Signalling_OK -->
<g id="edge3" class="edge">
<title>Run-&gt;Warning_Signalling_OK</title>
<path fill="none" stroke="#000000" d="M22.0609,-85.8958C18.6006,-76.0278 16.4744,-63.7278 21.8111,-54 24.6783,-48.7736 28.6621,-44.197 33.2005,-40.2194"/>
<polygon fill="#000000" stroke="#000000" points="35.4258,-42.9242 41.2627,-34.0822 31.1858,-37.3544 35.4258,-42.9242"/>
<text text-anchor="middle" x="73.0681" y="-57.3" font-family="Times,serif" font-size="11.00" fill="#000000">WarningTimeout&gt;5sec</text>
</g>
<!-- Warning_Signalling_OK&#45;&gt;Idle -->
<g id="edge4" class="edge">
<title>Warning_Signalling_OK-&gt;Idle</title>
<path fill="none" stroke="#000000" d="M107.4971,-35.0375C113.8677,-40.2548 119.7619,-46.6057 123.3158,-54 142.2606,-93.417 138.0893,-111.2375 123.3158,-152.4 121.0703,-158.6563 117.4609,-164.6491 113.3946,-170.0595"/>
<polygon fill="#000000" stroke="#000000" points="110.4633,-168.1104 106.7589,-178.0365 115.8448,-172.587 110.4633,-168.1104"/>
</g>
</g>
</svg>