<?xml version="1.0" encoding="UTF-8" standalone="no"?><!DOCTYPE svg PUBLIC "-//W3C//DTD SVG 1.1//EN" "http://www.w3.org/Graphics/SVG/1.1/DTD/svg11.dtd"><!-- Generated by graphviz version 2.40.1 (20161225.0304)
 --><!-- Title: finite_state_machine Pages: 1 --><svg xmlns="http://www.w3.org/2000/svg" xmlns:xlink="http://www.w3.org/1999/xlink" width="254pt" height="365pt" viewBox="0.00 0.00 253.66 365.36">
<g id="graph0" class="graph" transform="scale(1 1) rotate(0) translate(4 361.3566)">
<title>finite_state_machine</title>
<polygon fill="#ffffff" stroke="transparent" points="-4,4 -4,-361.3566 249.6645,-361.3566 249.6645,4 -4,4"/>
<!-- start -->
<g id="node1" class="node">
<title>start</title>
<ellipse fill="#000000" stroke="#000000" cx="136.2291" cy="-355.5566" rx="1.8" ry="1.8"/>
</g>
<!-- Idle -->
<g id="node2" class="node">
<title>Idle</title>
<ellipse fill="none" stroke="#000000" cx="136.2291" cy="-280.0783" rx="20.4602" ry="20.4602"/>
<ellipse fill="none" stroke="#000000" cx="136.2291" cy="-280.0783" rx="24.4566" ry="24.4566"/>
<text text-anchor="middle" x="136.2291" y="-276.7783" font-family="Times,serif" font-size="11.00" fill="#000000">Idle</text>
</g>
<!-- start&#45;&gt;Idle -->
<g id="edge1" class="edge">
<title>start-&gt;Idle</title>
<path fill="none" stroke="#000000" d="M136.2291,-353.6908C136.2291,-348.1787 136.2291,-331.3388 136.2291,-315.1551"/>
<polygon fill="#000000" stroke="#000000" points="139.7292,-314.7405 136.2291,-304.7405 132.7292,-314.7405 139.7292,-314.7405"/>
<text text-anchor="middle" x="145.6973" y="-325.8566" font-family="Times,serif" font-size="11.00" fill="#000000">start</text>
</g>
<!-- Monitoring -->
<g id="node3" class="node">
<title>Monitoring</title>
<ellipse fill="none" stroke="#000000" cx="87.2291" cy="-188.4" rx="40.7985" ry="18"/>
<text text-anchor="middle" x="87.2291" y="-185.1" font-family="Times,serif" font-size="11.00" fill="#000000">Monitoring</text>
</g>
<!-- Idle&#45;&gt;Monitoring -->
<g id="edge2" class="edge">
<title>Idle-&gt;Monitoring</title>
<path fill="none" stroke="#000000" d="M121.1806,-260.3642C116.2367,-253.3901 110.9491,-245.3489 106.7937,-237.6 103.15,-230.8053 99.7938,-223.1816 96.9277,-216.0015"/>
<polygon fill="#000000" stroke="#000000" points="100.1774,-214.7002 93.3424,-206.6049 93.6373,-217.1956 100.1774,-214.7002"/>
<text text-anchor="middle" x="135.9468" y="-227.7" font-family="Times,serif" font-size="11.00" fill="#000000">PWR_Ready</text>
</g>
<!-- PWRFail -->
<g id="node4" class="node">
<title>PWRFail</title>
<ellipse fill="none" stroke="#000000" cx="35.2291" cy="-103.2" rx="35.4597" ry="18"/>
<text text-anchor="middle" x="35.2291" y="-99.9" font-family="Times,serif" font-size="11.00" fill="#000000">PWRFail</text>
</g>
<!-- Monitoring&#45;&gt;PWRFail -->
<g id="edge3" class="edge">
<title>Monitoring-&gt;PWRFail</title>
<path fill="none" stroke="#000000" d="M76.4547,-170.7465C69.1552,-158.7866 59.3836,-142.7762 51.1859,-129.3447"/>
<polygon fill="#000000" stroke="#000000" points="54.009,-127.2518 45.8118,-120.5394 48.034,-130.8986 54.009,-127.2518"/>
<text text-anchor="middle" x="102.8067" y="-142.5" font-family="Times,serif" font-size="11.00" fill="#000000">not(PWR_Good)</text>
</g>
<!-- 3v3_PWRFail -->
<g id="node5" class="node">
<title>3v3_PWRFail</title>
<ellipse fill="none" stroke="#000000" cx="99.2291" cy="-18" rx="48.6792" ry="18"/>
<text text-anchor="middle" x="99.2291" y="-14.7" font-family="Times,serif" font-size="11.00" fill="#000000">3v3_PWRFail</text>
</g>
<!-- PWRFail&#45;&gt;3v3_PWRFail -->
<g id="edge4" class="edge">
<title>PWRFail-&gt;3v3_PWRFail</title>
<path fill="none" stroke="#000000" d="M23.6527,-85.7804C18.6301,-75.8739 15.1386,-63.5739 21.2632,-54 27.6014,-44.0921 37.4374,-36.8719 48.0133,-31.6239"/>
<polygon fill="#000000" stroke="#000000" points="49.6718,-34.7186 57.4285,-27.5017 46.8643,-28.3063 49.6718,-34.7186"/>
<text text-anchor="middle" x="93.712" y="-57.3" font-family="Times,serif" font-size="11.00" fill="#000000">not(1v1) or not(1v5) or not(2v5)</text>
</g>
<!-- 3v3_PWRFail&#45;&gt;Idle -->
<g id="edge5" class="edge">
<title>3v3_PWRFail-&gt;Idle</title>
<path fill="none" stroke="#000000" d="M135.9531,-29.9354C147.0058,-35.4403 157.8764,-43.2196 164.2291,-54 205.6567,-124.3016 187.6718,-159.4399 164.2291,-237.6 162.7137,-242.6524 160.3816,-247.6592 157.6964,-252.3667"/>
<polygon fill="#000000" stroke="#000000" points="154.6297,-250.6668 152.2191,-260.9838 160.5373,-254.4219 154.6297,-250.6668"/>
<text text-anchor="middle" x="216.9468" y="-142.5" font-family="Times,serif" font-size="11.00" fill="#000000">PWR_Ready</text>
</g>
</g>
</svg>