<?xml version="1.0" encoding="UTF-8" standalone="no"?><!DOCTYPE svg PUBLIC "-//W3C//DTD SVG 1.1//EN" "http://www.w3.org/Graphics/SVG/1.1/DTD/svg11.dtd"><!-- Generated by graphviz version 2.40.1 (20161225.0304)
 --><!-- Title: finite_state_machine Pages: 1 --><svg xmlns="http://www.w3.org/2000/svg" xmlns:xlink="http://www.w3.org/1999/xlink" width="307pt" height="670pt" viewBox="0.00 0.00 306.61 669.56">
<g id="graph0" class="graph" transform="scale(1 1) rotate(0) translate(4 665.5566)">
<title>finite_state_machine</title>
<polygon fill="#ffffff" stroke="transparent" points="-4,4 -4,-665.5566 302.6128,-665.5566 302.6128,4 -4,4"/>
<!-- start -->
<g id="node1" class="node">
<title>start</title>
<ellipse fill="#000000" stroke="#000000" cx="220" cy="-659.7566" rx="1.8" ry="1.8"/>
</g>
<!-- Idle -->
<g id="node2" class="node">
<title>Idle</title>
<ellipse fill="none" stroke="#000000" cx="220" cy="-584.2783" rx="20.4602" ry="20.4602"/>
<ellipse fill="none" stroke="#000000" cx="220" cy="-584.2783" rx="24.4566" ry="24.4566"/>
<text text-anchor="middle" x="220" y="-580.9783" font-family="Times,serif" font-size="11.00" fill="#000000">Idle</text>
</g>
<!-- start&#45;&gt;Idle -->
<g id="edge1" class="edge">
<title>start-&gt;Idle</title>
<path fill="none" stroke="#000000" d="M220,-657.8908C220,-652.3787 220,-635.5388 220,-619.3551"/>
<polygon fill="#000000" stroke="#000000" points="223.5001,-618.9405 220,-608.9405 216.5001,-618.9405 223.5001,-618.9405"/>
<text text-anchor="middle" x="229.4683" y="-630.0566" font-family="Times,serif" font-size="11.00" fill="#000000">start</text>
</g>
<!-- Live -->
<g id="node3" class="node">
<title>Live</title>
<ellipse fill="none" stroke="#000000" cx="181" cy="-492.6" rx="27" ry="18"/>
<text text-anchor="middle" x="181" y="-489.3" font-family="Times,serif" font-size="11.00" fill="#000000">Live</text>
</g>
<!-- Idle&#45;&gt;Live -->
<g id="edge2" class="edge">
<title>Idle-&gt;Live</title>
<path fill="none" stroke="#000000" d="M210.3595,-561.6162C204.9142,-548.8158 198.0769,-532.7431 192.3708,-519.3296"/>
<polygon fill="#000000" stroke="#000000" points="195.5871,-517.9491 188.4519,-510.1173 189.1457,-520.6894 195.5871,-517.9491"/>
<text text-anchor="middle" x="229.7177" y="-531.9" font-family="Times,serif" font-size="11.00" fill="#000000">PWR_Ready</text>
</g>
<!-- CriticalFail -->
<g id="node4" class="node">
<title>CriticalFail</title>
<ellipse fill="none" stroke="#000000" cx="65" cy="-164" rx="40.789" ry="18"/>
<text text-anchor="middle" x="65" y="-160.7" font-family="Times,serif" font-size="11.00" fill="#000000">CriticalFail</text>
</g>
<!-- Live&#45;&gt;CriticalFail -->
<g id="edge3" class="edge">
<title>Live-&gt;CriticalFail</title>
<path fill="none" stroke="#000000" d="M155.451,-486.262C105.5582,-473.1346 0,-441.3495 0,-407.4 0,-407.4 0,-407.4 0,-249.2 0,-224.0312 18.1513,-201.6707 35.2701,-186.1789"/>
<polygon fill="#000000" stroke="#000000" points="37.6788,-188.7241 42.994,-179.5589 33.1235,-183.4091 37.6788,-188.7241"/>
<text text-anchor="middle" x="25.0514" y="-331.1" font-family="Times,serif" font-size="11.00" fill="#000000">CriticalFail</text>
</g>
<!-- WarningFail -->
<g id="node5" class="node">
<title>WarningFail</title>
<ellipse fill="none" stroke="#000000" cx="156" cy="-407.4" rx="44.0867" ry="18"/>
<text text-anchor="middle" x="156" y="-404.1" font-family="Times,serif" font-size="11.00" fill="#000000">WarningFail</text>
</g>
<!-- Live&#45;&gt;WarningFail -->
<g id="edge4" class="edge">
<title>Live-&gt;WarningFail</title>
<path fill="none" stroke="#000000" d="M175.6981,-474.5313C172.3505,-463.1224 167.9579,-448.1527 164.1705,-435.2449"/>
<polygon fill="#000000" stroke="#000000" points="167.4683,-434.0527 161.2942,-425.4427 160.7514,-436.0236 167.4683,-434.0527"/>
<text text-anchor="middle" x="196.7981" y="-446.7" font-family="Times,serif" font-size="11.00" fill="#000000">WarningFail</text>
</g>
<!-- Disable_PowerSupply -->
<g id="node8" class="node">
<title>Disable_PowerSupply</title>
<ellipse fill="none" stroke="#000000" cx="159" cy="-91" rx="70.5114" ry="18"/>
<text text-anchor="middle" x="159" y="-87.7" font-family="Times,serif" font-size="11.00" fill="#000000">Disable_PowerSupply</text>
</g>
<!-- CriticalFail&#45;&gt;Disable_PowerSupply -->
<g id="edge10" class="edge">
<title>CriticalFail-&gt;Disable_PowerSupply</title>
<path fill="none" stroke="#000000" d="M85.3966,-148.1601C98.0351,-138.3451 114.5005,-125.5581 128.6525,-114.5678"/>
<polygon fill="#000000" stroke="#000000" points="130.9199,-117.2384 136.6712,-108.3405 126.6263,-111.7098 130.9199,-117.2384"/>
</g>
<!-- WarningFail_Signalling -->
<g id="node6" class="node">
<title>WarningFail_Signalling</title>
<ellipse fill="none" stroke="#000000" cx="144" cy="-334.4" rx="75.8484" ry="18"/>
<text text-anchor="middle" x="144" y="-331.1" font-family="Times,serif" font-size="11.00" fill="#000000">WarningFail_Signalling</text>
</g>
<!-- WarningFail&#45;&gt;WarningFail_Signalling -->
<g id="edge5" class="edge">
<title>WarningFail-&gt;WarningFail_Signalling</title>
<path fill="none" stroke="#000000" d="M153.0337,-389.3551C151.7068,-381.2828 150.1112,-371.5764 148.6326,-362.5817"/>
<polygon fill="#000000" stroke="#000000" points="152.0496,-361.7902 146.9738,-352.4904 145.1423,-362.9257 152.0496,-361.7902"/>
</g>
<!-- WarningFail_Signalling&#45;&gt;CriticalFail -->
<g id="edge7" class="edge">
<title>WarningFail_Signalling-&gt;CriticalFail</title>
<path fill="none" stroke="#000000" d="M109.1118,-318.2298C89.2847,-306.9817 66.218,-289.9174 54.8972,-267.2 43.1135,-243.5536 48.1605,-213.1031 54.6137,-191.4208"/>
<polygon fill="#000000" stroke="#000000" points="57.9649,-192.433 57.7243,-181.8409 51.3071,-190.2712 57.9649,-192.433"/>
<text text-anchor="middle" x="80.0514" y="-245.9" font-family="Times,serif" font-size="11.00" fill="#000000">CriticalFail</text>
</g>
<!-- WarningFail_Confirmed -->
<g id="node7" class="node">
<title>WarningFail_Confirmed</title>
<ellipse fill="none" stroke="#000000" cx="191" cy="-249.2" rx="77.3563" ry="18"/>
<text text-anchor="middle" x="191" y="-245.9" font-family="Times,serif" font-size="11.00" fill="#000000">WarningFail_Confirmed</text>
</g>
<!-- WarningFail_Signalling&#45;&gt;WarningFail_Confirmed -->
<g id="edge6" class="edge">
<title>WarningFail_Signalling-&gt;WarningFail_Confirmed</title>
<path fill="none" stroke="#000000" d="M152.7669,-316.4711C157.4621,-307.0719 163.4397,-295.4189 169.1429,-285.2 170.782,-282.263 172.5378,-279.2192 174.3154,-276.2017"/>
<polygon fill="#000000" stroke="#000000" points="177.4756,-277.7374 179.6187,-267.3615 171.4729,-274.1363 177.4756,-277.7374"/>
<text text-anchor="middle" x="201.4286" y="-288.5" font-family="Times,serif" font-size="11.00" fill="#000000">timeout &gt; 5sec</text>
</g>
<!-- WarningFail_Confirmed&#45;&gt;Live -->
<g id="edge9" class="edge">
<title>WarningFail_Confirmed-&gt;Live</title>
<path fill="none" stroke="#000000" d="M218.463,-266.0804C224.7204,-271.3666 230.5396,-277.7898 234,-285.2 266.2462,-354.252 264.1548,-388.9824 229,-456.6 224.9247,-464.4385 218.2813,-471.0346 211.2186,-476.3511"/>
<polygon fill="#000000" stroke="#000000" points="209.1861,-473.5004 202.8639,-482.0022 213.108,-479.2986 209.1861,-473.5004"/>
</g>
<!-- WarningFail_Confirmed&#45;&gt;CriticalFail -->
<g id="edge8" class="edge">
<title>WarningFail_Confirmed-&gt;CriticalFail</title>
<path fill="none" stroke="#000000" d="M165.8049,-232.1633C145.7327,-218.5907 117.536,-199.5243 96.0661,-185.0066"/>
<polygon fill="#000000" stroke="#000000" points="97.8582,-181.9934 87.6138,-179.2912 93.9372,-187.7921 97.8582,-181.9934"/>
<text text-anchor="middle" x="163.7981" y="-203.3" font-family="Times,serif" font-size="11.00" fill="#000000">WarningFail</text>
</g>
<!-- System_Restart -->
<g id="node9" class="node">
<title>System_Restart</title>
<ellipse fill="none" stroke="#000000" cx="246" cy="-18" rx="52.7258" ry="18"/>
<text text-anchor="middle" x="246" y="-14.7" font-family="Times,serif" font-size="11.00" fill="#000000">System_Restart</text>
</g>
<!-- Disable_PowerSupply&#45;&gt;System_Restart -->
<g id="edge11" class="edge">
<title>Disable_PowerSupply-&gt;System_Restart</title>
<path fill="none" stroke="#000000" d="M179.6178,-73.7C191.1592,-64.0159 205.7048,-51.8109 218.2366,-41.2958"/>
<polygon fill="#000000" stroke="#000000" points="220.7183,-43.7823 226.1291,-34.6733 216.2188,-38.42 220.7183,-43.7823"/>
</g>
<!-- System_Restart&#45;&gt;Idle -->
<g id="edge12" class="edge">
<title>System_Restart-&gt;Idle</title>
<path fill="none" stroke="#000000" d="M266.0488,-34.7085C279.9592,-48.2647 296,-68.726 296,-91 296,-492.6 296,-492.6 296,-492.6 296,-523.08 270.794,-548.8591 249.4142,-565.2429"/>
<polygon fill="#000000" stroke="#000000" points="247.1843,-562.5372 241.1702,-571.2597 251.3111,-568.1914 247.1843,-562.5372"/>
</g>
</g>
</svg>