<?xml version="1.0" encoding="UTF-8" standalone="no"?>
<!-- Created with Inkscape (http://www.inkscape.org/) -->

<svg
   width="29.879145mm"
   height="42.442566mm"
   viewBox="0 0 29.879145 42.442566"
   version="1.1"
   id="svg5"
   inkscape:version="1.2.2 (b0a84865, 2022-12-01)"
   sodipodi:docname="mermaid.svg"
   xmlns:inkscape="http://www.inkscape.org/namespaces/inkscape"
   xmlns:sodipodi="http://sodipodi.sourceforge.net/DTD/sodipodi-0.dtd"
   xmlns="http://www.w3.org/2000/svg"
   xmlns:svg="http://www.w3.org/2000/svg">
  <sodipodi:namedview
     id="namedview7"
     pagecolor="#ffffff"
     bordercolor="#999999"
     borderopacity="1"
     inkscape:pageshadow="0"
     inkscape:pageopacity="0"
     inkscape:pagecheckerboard="0"
     inkscape:document-units="mm"
     showgrid="false"
     inkscape:zoom="1.2810466"
     inkscape:cx="153.3902"
     inkscape:cy="164.70907"
     inkscape:window-width="1920"
     inkscape:window-height="1024"
     inkscape:window-x="0"
     inkscape:window-y="0"
     inkscape:window-maximized="0"
     inkscape:current-layer="layer1"
     inkscape:showpageshadow="0"
     inkscape:deskcolor="#d1d1d1" />
  <defs
     id="defs2" />
  <g
     inkscape:label="Layer 1"
     inkscape:groupmode="layer"
     id="layer1"
     transform="translate(104.73756,-80.971431)">
    <path
       style="fill:#999999;stroke-width:0.264583"
       d="m -87.753205,123.12989 c -0.701257,-0.19704 -1.594226,-0.59223 -1.984375,-0.87821 -0.390148,-0.28598 -1.561428,-0.96603 -2.602843,-1.51124 -2.420098,-1.26699 -3.853734,-2.92527 -4.768611,-5.51584 -0.569442,-1.61244 -0.698424,-2.53147 -0.809149,-5.76545 -0.121921,-3.56098 -0.08768,-3.94964 0.460244,-5.22331 0.680248,-1.58128 2.042996,-2.91841 3.969,-3.89439 1.555652,-0.788308 1.941548,-1.502944 1.559243,-2.887539 -0.33777,-1.223304 -1.066572,-1.253889 -2.112757,-0.08866 -2.324653,2.589163 -4.865246,4.925509 -6.691227,6.153299 -1.06255,0.71446 -1.04828,0.73318 -0.48986,-0.64299 0.11471,-0.28269 0.0259,-0.32658 -0.35611,-0.17592 -0.96513,0.38065 -2.22875,0.49742 -2.22875,0.20595 0,-0.15598 0.121,-0.35838 0.2689,-0.44978 0.14789,-0.0914 0.20811,-0.26455 0.13381,-0.38477 -0.21447,-0.34701 0.57657,-0.5386 2.22376,-0.5386 1.70458,0 1.880275,-0.1278 3.000929,-2.182814 l 0.68535,-1.256771 h -0.761977 c -0.446567,0 -0.87361,0.191661 -1.031662,0.463021 -0.256843,0.440972 -0.270068,0.440972 -0.277731,0 -0.0061,-0.35285 -0.232399,-0.463021 -0.950949,-0.463021 -0.87701,0 -0.98333,0.09202 -1.52136,1.316681 -0.63365,1.442344 -0.8534,1.600934 -1.10778,0.799454 -0.13257,-0.4177 -0.31315,-0.493281 -0.85416,-0.357498 l -0.68604,0.172178 0.43946,-0.6274 c 0.54908,-0.783933 0.5943,-1.875394 0.0693,-1.673949 -0.20356,0.07811 -0.441,0.02732 -0.52765,-0.112871 -0.0866,-0.140193 0.0124,-0.320091 0.22001,-0.399772 0.49869,-0.191369 2.12297,-2.747247 2.3691,-3.727901 0.17207,-0.685569 0.14652,-0.733582 -0.2259,-0.424507 -0.23095,0.19167 -0.47989,0.288506 -0.5532,0.215191 -0.30354,-0.303537 0.42917,-1.48261 1.50734,-2.425622 2.236614,-1.956225 2.885629,-2.635166 2.78994,-2.918581 -0.05319,-0.157545 0.237438,-0.490775 0.645843,-0.740512 0.408404,-0.249737 1.090353,-1.143053 1.515441,-1.985147 0.831128,-1.646456 2.427051,-3.518211 3.444454,-4.039777 0.783507,-0.401661 3.87114,-0.127714 4.725601,0.419274 1.789065,1.14528 2.254099,4.569435 0.975498,7.182805 l -0.704416,1.439774 0.531637,0.719077 c 0.292399,0.395493 0.906812,1.462295 1.365359,2.370672 0.722569,1.431402 0.999781,1.722777 2.079281,2.185505 0.685059,0.29365 1.624703,0.823094 2.088097,1.176543 0.962332,0.734006 1.142426,0.780965 1.142426,0.297882 0,-0.522038 1.583391,-2.565666 1.987865,-2.565666 0.512387,0 0.619815,0.813195 0.216244,1.636886 -0.191553,0.390964 -0.276604,0.897629 -0.189,1.125921 0.244247,0.636504 -1.534316,1.287118 -2.908589,1.063986 -1.568365,-0.254646 -4.190992,-1.159275 -4.710329,-1.624746 -0.40426,-0.36233 -0.510654,-0.294507 -1.177023,0.75033 l -0.732586,1.148665 -0.01445,3.83646 c -0.01664,4.41502 0.0145,4.32672 -2.472713,7.01145 -2.107126,2.27446 -2.517891,3.17371 -2.545567,5.5728 -0.02034,1.76276 0.0384,1.9559 1.036777,3.40908 2.129751,3.09997 2.93797,2.95141 4.925385,-0.9053 2.155034,-4.18199 3.208991,-5.29758 6.187115,-6.54895 0.727604,-0.30572 1.793478,-0.64345 2.368608,-0.7505 l 1.045692,-0.19464 -0.813438,1.03168 c -0.891397,1.13054 -2.84059,4.84888 -2.644587,5.04489 0.06739,0.0674 0.759642,-0.23486 1.538338,-0.67167 0.945314,-0.53027 1.983679,-0.85721 3.124668,-0.98382 l 1.708862,-0.18962 -0.94869,1.10833 c -0.521782,0.60959 -1.447046,2.08031 -2.056146,3.26829 -0.928151,1.81024 -1.384573,2.37274 -2.819072,3.47424 l -1.711616,1.3143 -2.042144,0.0857 c -1.185059,0.0497 -2.577264,-0.0647 -3.317156,-0.27255 z"
       id="path1098" />
  </g>
</svg>
