<?xml version="1.0" encoding="us-ascii" standalone="no"?><svg xmlns="http://www.w3.org/2000/svg" xmlns:xlink="http://www.w3.org/1999/xlink" contentStyleType="text/css" height="229px" preserveAspectRatio="none" style="width:571px;height:229px;background:#FFFFFF;" version="1.1" viewBox="0 0 571 229" width="571px" zoomAndPan="magnify"><defs/><g><rect fill="#F1E5E5" height="184.8516" style="stroke:none;stroke-width:1.0;" width="8" x="16" y="27"/><rect fill="#F1E5E5" height="184.8516" style="stroke:none;stroke-width:1.0;" width="8" x="44" y="27"/><rect fill="#F1E5E5" height="184.8516" style="stroke:none;stroke-width:1.0;" width="8" x="72" y="27"/><rect fill="#F1E5E5" height="184.8516" style="stroke:none;stroke-width:1.0;" width="8" x="100" y="27"/><rect fill="#F1E5E5" height="184.8516" style="stroke:none;stroke-width:1.0;" width="8" x="128" y="27"/><rect fill="#F1E5E5" height="184.8516" style="stroke:none;stroke-width:1.0;" width="8" x="156" y="27"/><rect fill="#F1E5E5" height="184.8516" style="stroke:none;stroke-width:1.0;" width="8" x="184" y="27"/><rect fill="#F1E5E5" height="184.8516" style="stroke:none;stroke-width:1.0;" width="8" x="212" y="27"/><rect fill="#F1E5E5" height="184.8516" style="stroke:none;stroke-width:1.0;" width="8" x="240" y="27"/><rect fill="#F1E5E5" height="184.8516" style="stroke:none;stroke-width:1.0;" width="8" x="268" y="27"/><rect fill="#F1E5E5" height="184.8516" style="stroke:none;stroke-width:1.0;" width="8" x="296" y="27"/><rect fill="#F1E5E5" height="184.8516" style="stroke:none;stroke-width:1.0;" width="8" x="324" y="27"/><rect fill="#F1E5E5" height="184.8516" style="stroke:none;stroke-width:1.0;" width="8" x="352" y="27"/><rect fill="#F1E5E5" height="184.8516" style="stroke:none;stroke-width:1.0;" width="8" x="380" y="27"/><rect fill="#F1E5E5" height="184.8516" style="stroke:none;stroke-width:1.0;" width="8" x="408" y="27"/><rect fill="#F1E5E5" height="184.8516" style="stroke:none;stroke-width:1.0;" width="8" x="436" y="27"/><rect fill="#F1E5E5" height="184.8516" style="stroke:none;stroke-width:1.0;" width="8" x="464" y="27"/><text fill="#000000" font-family="sans-serif" font-size="10" lengthAdjust="spacing" textLength="13" x="29" y="25.2822">23</text><text fill="#000000" font-family="sans-serif" font-size="10" lengthAdjust="spacing" textLength="13" x="57" y="25.2822">24</text><text fill="#000000" font-family="sans-serif" font-size="10" lengthAdjust="spacing" textLength="12" x="85" y="25.2822">25</text><text fill="#000000" font-family="sans-serif" font-size="10" lengthAdjust="spacing" textLength="13" x="113" y="25.2822">26</text><text fill="#000000" font-family="sans-serif" font-size="10" lengthAdjust="spacing" textLength="12" x="141" y="25.2822">27</text><text fill="#000000" font-family="sans-serif" font-size="10" lengthAdjust="spacing" textLength="13" x="169" y="25.2822">28</text><text fill="#000000" font-family="sans-serif" font-size="10" lengthAdjust="spacing" textLength="13" x="197" y="25.2822">29</text><text fill="#000000" font-family="sans-serif" font-size="10" lengthAdjust="spacing" textLength="14" x="225" y="25.2822">30</text><text fill="#000000" font-family="sans-serif" font-size="10" lengthAdjust="spacing" textLength="14" x="253" y="25.2822">31</text><text fill="#000000" font-family="sans-serif" font-size="10" lengthAdjust="spacing" textLength="13" x="281" y="25.2822">32</text><text fill="#000000" font-family="sans-serif" font-size="10" lengthAdjust="spacing" textLength="14" x="309" y="25.2822">33</text><text fill="#000000" font-family="sans-serif" font-size="10" lengthAdjust="spacing" textLength="14" x="337" y="25.2822">34</text><text fill="#000000" font-family="sans-serif" font-size="10" lengthAdjust="spacing" textLength="13" x="365" y="25.2822">35</text><text fill="#000000" font-family="sans-serif" font-size="10" lengthAdjust="spacing" textLength="14" x="393" y="25.2822">36</text><text fill="#000000" font-family="sans-serif" font-size="10" lengthAdjust="spacing" textLength="13" x="421" y="25.2822">37</text><text fill="#000000" font-family="sans-serif" font-size="10" lengthAdjust="spacing" textLength="14" x="449" y="25.2822">38</text><text fill="#000000" font-family="sans-serif" font-size="10" lengthAdjust="spacing" textLength="14" x="477" y="25.2822">39</text><line style="stroke:#C0C0C0;stroke-width:1.0;" x1="24" x2="24" y1="16" y2="211.8516"/><line style="stroke:#C0C0C0;stroke-width:1.0;" x1="52" x2="52" y1="16" y2="211.8516"/><line style="stroke:#C0C0C0;stroke-width:1.0;" x1="80" x2="80" y1="16" y2="211.8516"/><line style="stroke:#C0C0C0;stroke-width:1.0;" x1="108" x2="108" y1="16" y2="211.8516"/><line style="stroke:#C0C0C0;stroke-width:1.0;" x1="136" x2="136" y1="16" y2="211.8516"/><line style="stroke:#C0C0C0;stroke-width:1.0;" x1="164" x2="164" y1="16" y2="211.8516"/><line style="stroke:#C0C0C0;stroke-width:1.0;" x1="192" x2="192" y1="16" y2="211.8516"/><line style="stroke:#C0C0C0;stroke-width:1.0;" x1="220" x2="220" y1="16" y2="211.8516"/><line style="stroke:#C0C0C0;stroke-width:1.0;" x1="248" x2="248" y1="16" y2="211.8516"/><line style="stroke:#C0C0C0;stroke-width:1.0;" x1="276" x2="276" y1="16" y2="211.8516"/><line style="stroke:#C0C0C0;stroke-width:1.0;" x1="304" x2="304" y1="16" y2="211.8516"/><line style="stroke:#C0C0C0;stroke-width:1.0;" x1="332" x2="332" y1="16" y2="211.8516"/><line style="stroke:#C0C0C0;stroke-width:1.0;" x1="360" x2="360" y1="16" y2="211.8516"/><line style="stroke:#C0C0C0;stroke-width:1.0;" x1="388" x2="388" y1="16" y2="211.8516"/><line style="stroke:#C0C0C0;stroke-width:1.0;" x1="416" x2="416" y1="16" y2="211.8516"/><line style="stroke:#C0C0C0;stroke-width:1.0;" x1="444" x2="444" y1="16" y2="211.8516"/><line style="stroke:#C0C0C0;stroke-width:1.0;" x1="472" x2="472" y1="16" y2="211.8516"/><line style="stroke:#C0C0C0;stroke-width:1.0;" x1="488" x2="488" y1="16" y2="211.8516"/><line style="stroke:#C0C0C0;stroke-width:1.0;" x1="0" x2="0" y1="0" y2="16"/><line style="stroke:#C0C0C0;stroke-width:1.0;" x1="120" x2="120" y1="0" y2="16"/><text fill="#000000" font-family="sans-serif" font-size="12" font-weight="bold" lengthAdjust="spacing" textLength="59" x="30.5" y="11.1387">Jun 2021</text><line style="stroke:#C0C0C0;stroke-width:1.0;" x1="244" x2="244" y1="0" y2="16"/><text fill="#000000" font-family="sans-serif" font-size="12" font-weight="bold" lengthAdjust="spacing" textLength="54" x="155" y="11.1387">Jul 2021</text><line style="stroke:#C0C0C0;stroke-width:1.0;" x1="368" x2="368" y1="0" y2="16"/><text fill="#000000" font-family="sans-serif" font-size="12" font-weight="bold" lengthAdjust="spacing" textLength="64" x="274" y="11.1387">Aug 2021</text><line style="stroke:#C0C0C0;stroke-width:1.0;" x1="488" x2="488" y1="0" y2="16"/><text fill="#000000" font-family="sans-serif" font-size="12" font-weight="bold" lengthAdjust="spacing" textLength="64" x="396" y="11.1387">Sep 2021</text><line style="stroke:#C0C0C0;stroke-width:1.0;" x1="0" x2="488" y1="0" y2="0"/><line style="stroke:#C0C0C0;stroke-width:1.0;" x1="0" x2="488" y1="16" y2="16"/><line style="stroke:#C0C0C0;stroke-width:1.0;" x1="0" x2="488" y1="27" y2="27"/><line style="stroke:#181818;stroke-width:1.5;" x1="-1" x2="-9" y1="35.4023" y2="35.4023"/><line style="stroke:#181818;stroke-width:1.5;" x1="-9" x2="-9" y1="35.4023" y2="52.207"/><line style="stroke:#181818;stroke-width:1.5;" x1="-9" x2="-1" y1="52.207" y2="52.207"/><polygon fill="#181818" points="-5,48.207,-5,52.207,-5,56.207,-1,52.207" style="stroke:#181818;stroke-width:1.5;"/><line style="stroke:#181818;stroke-width:1.5;" x1="83" x2="91" y1="35.4023" y2="35.4023"/><line style="stroke:#181818;stroke-width:1.5;" x1="91" x2="91" y1="35.4023" y2="52.207"/><line style="stroke:#181818;stroke-width:1.5;" x1="91" x2="83" y1="52.207" y2="52.207"/><polygon fill="#181818" points="87,48.207,87,52.207,87,56.207,83,52.207" style="stroke:#181818;stroke-width:1.5;"/><line style="stroke:#181818;stroke-width:1.5;" x1="75" x2="75" y1="58.6094" y2="69.0117"/><line style="stroke:#181818;stroke-width:1.5;" x1="75" x2="83" y1="69.0117" y2="69.0117"/><polygon fill="#181818" points="79,65.0117,79,69.0117,79,73.0117,83,69.0117" style="stroke:#181818;stroke-width:1.5;"/><line style="stroke:#181818;stroke-width:1.5;" x1="131" x2="131" y1="75.4141" y2="102.6211"/><line style="stroke:#181818;stroke-width:1.5;" x1="131" x2="139" y1="102.6211" y2="102.6211"/><polygon fill="#181818" points="135,98.6211,135,102.6211,135,106.6211,139,102.6211" style="stroke:#181818;stroke-width:1.5;"/><line style="stroke:#181818;stroke-width:1.5;" x1="187" x2="187" y1="109.0234" y2="119.4258"/><line style="stroke:#181818;stroke-width:1.5;" x1="187" x2="195" y1="119.4258" y2="119.4258"/><polygon fill="#181818" points="191,115.4258,191,119.4258,191,123.4258,195,119.4258" style="stroke:#181818;stroke-width:1.5;"/><line style="stroke:#181818;stroke-width:1.5;" x1="187" x2="187" y1="109.0234" y2="136.2305"/><line style="stroke:#181818;stroke-width:1.5;" x1="187" x2="195" y1="136.2305" y2="136.2305"/><polygon fill="#181818" points="191,132.2305,191,136.2305,191,140.2305,195,136.2305" style="stroke:#181818;stroke-width:1.5;"/><line style="stroke:#181818;stroke-width:1.5;" x1="243" x2="243" y1="142.6328" y2="153.0352"/><line style="stroke:#181818;stroke-width:1.5;" x1="243" x2="251" y1="153.0352" y2="153.0352"/><polygon fill="#181818" points="247,149.0352,247,153.0352,247,157.0352,251,153.0352" style="stroke:#181818;stroke-width:1.5;"/><line style="stroke:#181818;stroke-width:1.5;" x1="383" x2="383" y1="159.4375" y2="186.6445"/><line style="stroke:#181818;stroke-width:1.5;" x1="383" x2="391" y1="186.6445" y2="186.6445"/><polygon fill="#181818" points="387,182.6445,387,186.6445,387,190.6445,391,186.6445" style="stroke:#181818;stroke-width:1.5;"/><rect fill="#B0C4DE" height="12.8047" style="stroke:none;stroke-width:1.0;" width="15" x="2" y="29"/><line style="stroke:#696969;stroke-width:1.0;" x1="2" x2="15" y1="29" y2="29"/><line style="stroke:#696969;stroke-width:1.0;" x1="2" x2="15" y1="41.8047" y2="41.8047"/><line style="stroke:#696969;stroke-width:1.0;" x1="2" x2="2" y1="29" y2="41.8047"/><rect fill="#B0C4DE" height="12.8047" style="stroke:none;stroke-width:1.0;" width="21" x="24" y="29"/><line style="stroke:#696969;stroke-width:1.0;" x1="25" x2="44" y1="29" y2="29"/><line style="stroke:#696969;stroke-width:1.0;" x1="25" x2="44" y1="41.8047" y2="41.8047"/><rect fill="#B0C4DE" height="12.8047" style="stroke:none;stroke-width:1.0;" width="21" x="52" y="29"/><line style="stroke:#696969;stroke-width:1.0;" x1="53" x2="72" y1="29" y2="29"/><line style="stroke:#696969;stroke-width:1.0;" x1="53" x2="72" y1="41.8047" y2="41.8047"/><rect fill="#B0C4DE" height="12.8047" style="stroke:none;stroke-width:1.0;" width="2" x="80" y="29"/><line style="stroke:#696969;stroke-width:1.0;" x1="81" x2="82" y1="29" y2="29"/><line style="stroke:#696969;stroke-width:1.0;" x1="81" x2="82" y1="41.8047" y2="41.8047"/><line style="stroke:#696969;stroke-width:1.0;" x1="82" x2="82" y1="29" y2="41.8047"/><line style="stroke:#696969;stroke-width:1.0;stroke-dasharray:2.0,3.0;" x1="19" x2="21" y1="29" y2="29"/><line style="stroke:#696969;stroke-width:1.0;stroke-dasharray:2.0,3.0;" x1="19" x2="21" y1="41.8047" y2="41.8047"/><line style="stroke:#696969;stroke-width:1.0;stroke-dasharray:2.0,3.0;" x1="47" x2="49" y1="29" y2="29"/><line style="stroke:#696969;stroke-width:1.0;stroke-dasharray:2.0,3.0;" x1="47" x2="49" y1="41.8047" y2="41.8047"/><line style="stroke:#696969;stroke-width:1.0;stroke-dasharray:2.0,3.0;" x1="75" x2="77" y1="29" y2="29"/><line style="stroke:#696969;stroke-width:1.0;stroke-dasharray:2.0,3.0;" x1="75" x2="77" y1="41.8047" y2="41.8047"/><rect fill="#B0C4DE" height="12.8047" style="stroke:none;stroke-width:1.0;" width="15" x="2" y="45.8047"/><line style="stroke:#696969;stroke-width:1.0;" x1="2" x2="15" y1="45.8047" y2="45.8047"/><line style="stroke:#696969;stroke-width:1.0;" x1="2" x2="15" y1="58.6094" y2="58.6094"/><line style="stroke:#696969;stroke-width:1.0;" x1="2" x2="2" y1="45.8047" y2="58.6094"/><rect fill="#B0C4DE" height="12.8047" style="stroke:none;stroke-width:1.0;" width="21" x="24" y="45.8047"/><line style="stroke:#696969;stroke-width:1.0;" x1="25" x2="44" y1="45.8047" y2="45.8047"/><line style="stroke:#696969;stroke-width:1.0;" x1="25" x2="44" y1="58.6094" y2="58.6094"/><rect fill="#B0C4DE" height="12.8047" style="stroke:none;stroke-width:1.0;" width="21" x="52" y="45.8047"/><line style="stroke:#696969;stroke-width:1.0;" x1="53" x2="72" y1="45.8047" y2="45.8047"/><line style="stroke:#696969;stroke-width:1.0;" x1="53" x2="72" y1="58.6094" y2="58.6094"/><rect fill="#B0C4DE" height="12.8047" style="stroke:none;stroke-width:1.0;" width="2" x="80" y="45.8047"/><line style="stroke:#696969;stroke-width:1.0;" x1="81" x2="82" y1="45.8047" y2="45.8047"/><line style="stroke:#696969;stroke-width:1.0;" x1="81" x2="82" y1="58.6094" y2="58.6094"/><line style="stroke:#696969;stroke-width:1.0;" x1="82" x2="82" y1="45.8047" y2="58.6094"/><line style="stroke:#696969;stroke-width:1.0;stroke-dasharray:2.0,3.0;" x1="19" x2="21" y1="45.8047" y2="45.8047"/><line style="stroke:#696969;stroke-width:1.0;stroke-dasharray:2.0,3.0;" x1="19" x2="21" y1="58.6094" y2="58.6094"/><line style="stroke:#696969;stroke-width:1.0;stroke-dasharray:2.0,3.0;" x1="47" x2="49" y1="45.8047" y2="45.8047"/><line style="stroke:#696969;stroke-width:1.0;stroke-dasharray:2.0,3.0;" x1="47" x2="49" y1="58.6094" y2="58.6094"/><line style="stroke:#696969;stroke-width:1.0;stroke-dasharray:2.0,3.0;" x1="75" x2="77" y1="45.8047" y2="45.8047"/><line style="stroke:#696969;stroke-width:1.0;stroke-dasharray:2.0,3.0;" x1="75" x2="77" y1="58.6094" y2="58.6094"/><rect fill="#B0C4DE" height="12.8047" style="stroke:none;stroke-width:1.0;" width="15" x="86" y="62.6094"/><line style="stroke:#696969;stroke-width:1.0;" x1="86" x2="99" y1="62.6094" y2="62.6094"/><line style="stroke:#696969;stroke-width:1.0;" x1="86" x2="99" y1="75.4141" y2="75.4141"/><line style="stroke:#696969;stroke-width:1.0;" x1="86" x2="86" y1="62.6094" y2="75.4141"/><rect fill="#B0C4DE" height="12.8047" style="stroke:none;stroke-width:1.0;" width="21" x="108" y="62.6094"/><line style="stroke:#696969;stroke-width:1.0;" x1="109" x2="128" y1="62.6094" y2="62.6094"/><line style="stroke:#696969;stroke-width:1.0;" x1="109" x2="128" y1="75.4141" y2="75.4141"/><rect fill="#B0C4DE" height="12.8047" style="stroke:none;stroke-width:1.0;" width="2" x="136" y="62.6094"/><line style="stroke:#696969;stroke-width:1.0;" x1="137" x2="138" y1="62.6094" y2="62.6094"/><line style="stroke:#696969;stroke-width:1.0;" x1="137" x2="138" y1="75.4141" y2="75.4141"/><line style="stroke:#696969;stroke-width:1.0;" x1="138" x2="138" y1="62.6094" y2="75.4141"/><line style="stroke:#696969;stroke-width:1.0;stroke-dasharray:2.0,3.0;" x1="103" x2="105" y1="62.6094" y2="62.6094"/><line style="stroke:#696969;stroke-width:1.0;stroke-dasharray:2.0,3.0;" x1="103" x2="105" y1="75.4141" y2="75.4141"/><line style="stroke:#696969;stroke-width:1.0;stroke-dasharray:2.0,3.0;" x1="131" x2="133" y1="62.6094" y2="62.6094"/><line style="stroke:#696969;stroke-width:1.0;stroke-dasharray:2.0,3.0;" x1="131" x2="133" y1="75.4141" y2="75.4141"/><polygon fill="#000000" points="138,79.4141,143,84.4141,138,89.4141,133,84.4141" style="stroke:#000000;stroke-width:1.0;"/><rect fill="#90EE90" height="12.8047" style="stroke:none;stroke-width:1.0;" width="15" x="142" y="96.2188"/><line style="stroke:#696969;stroke-width:1.0;" x1="142" x2="155" y1="96.2188" y2="96.2188"/><line style="stroke:#696969;stroke-width:1.0;" x1="142" x2="155" y1="109.0234" y2="109.0234"/><line style="stroke:#696969;stroke-width:1.0;" x1="142" x2="142" y1="96.2188" y2="109.0234"/><rect fill="#90EE90" height="12.8047" style="stroke:none;stroke-width:1.0;" width="21" x="164" y="96.2188"/><line style="stroke:#696969;stroke-width:1.0;" x1="165" x2="184" y1="96.2188" y2="96.2188"/><line style="stroke:#696969;stroke-width:1.0;" x1="165" x2="184" y1="109.0234" y2="109.0234"/><rect fill="#90EE90" height="12.8047" style="stroke:none;stroke-width:1.0;" width="2" x="192" y="96.2188"/><line style="stroke:#696969;stroke-width:1.0;" x1="193" x2="194" y1="96.2188" y2="96.2188"/><line style="stroke:#696969;stroke-width:1.0;" x1="193" x2="194" y1="109.0234" y2="109.0234"/><line style="stroke:#696969;stroke-width:1.0;" x1="194" x2="194" y1="96.2188" y2="109.0234"/><line style="stroke:#696969;stroke-width:1.0;stroke-dasharray:2.0,3.0;" x1="159" x2="161" y1="96.2188" y2="96.2188"/><line style="stroke:#696969;stroke-width:1.0;stroke-dasharray:2.0,3.0;" x1="159" x2="161" y1="109.0234" y2="109.0234"/><line style="stroke:#696969;stroke-width:1.0;stroke-dasharray:2.0,3.0;" x1="187" x2="189" y1="96.2188" y2="96.2188"/><line style="stroke:#696969;stroke-width:1.0;stroke-dasharray:2.0,3.0;" x1="187" x2="189" y1="109.0234" y2="109.0234"/><rect fill="#90EE90" height="12.8047" style="stroke:none;stroke-width:1.0;" width="15" x="198" y="113.0234"/><line style="stroke:#696969;stroke-width:1.0;" x1="198" x2="211" y1="113.0234" y2="113.0234"/><line style="stroke:#696969;stroke-width:1.0;" x1="198" x2="211" y1="125.8281" y2="125.8281"/><line style="stroke:#696969;stroke-width:1.0;" x1="198" x2="198" y1="113.0234" y2="125.8281"/><rect fill="#90EE90" height="12.8047" style="stroke:none;stroke-width:1.0;" width="21" x="220" y="113.0234"/><line style="stroke:#696969;stroke-width:1.0;" x1="221" x2="240" y1="113.0234" y2="113.0234"/><line style="stroke:#696969;stroke-width:1.0;" x1="221" x2="240" y1="125.8281" y2="125.8281"/><rect fill="#90EE90" height="12.8047" style="stroke:none;stroke-width:1.0;" width="21" x="248" y="113.0234"/><line style="stroke:#696969;stroke-width:1.0;" x1="249" x2="268" y1="113.0234" y2="113.0234"/><line style="stroke:#696969;stroke-width:1.0;" x1="249" x2="268" y1="125.8281" y2="125.8281"/><rect fill="#90EE90" height="12.8047" style="stroke:none;stroke-width:1.0;" width="2" x="276" y="113.0234"/><line style="stroke:#696969;stroke-width:1.0;" x1="277" x2="278" y1="113.0234" y2="113.0234"/><line style="stroke:#696969;stroke-width:1.0;" x1="277" x2="278" y1="125.8281" y2="125.8281"/><line style="stroke:#696969;stroke-width:1.0;" x1="278" x2="278" y1="113.0234" y2="125.8281"/><line style="stroke:#696969;stroke-width:1.0;stroke-dasharray:2.0,3.0;" x1="215" x2="217" y1="113.0234" y2="113.0234"/><line style="stroke:#696969;stroke-width:1.0;stroke-dasharray:2.0,3.0;" x1="215" x2="217" y1="125.8281" y2="125.8281"/><line style="stroke:#696969;stroke-width:1.0;stroke-dasharray:2.0,3.0;" x1="243" x2="245" y1="113.0234" y2="113.0234"/><line style="stroke:#696969;stroke-width:1.0;stroke-dasharray:2.0,3.0;" x1="243" x2="245" y1="125.8281" y2="125.8281"/><line style="stroke:#696969;stroke-width:1.0;stroke-dasharray:2.0,3.0;" x1="271" x2="273" y1="113.0234" y2="113.0234"/><line style="stroke:#696969;stroke-width:1.0;stroke-dasharray:2.0,3.0;" x1="271" x2="273" y1="125.8281" y2="125.8281"/><rect fill="#90EE90" height="12.8047" style="stroke:none;stroke-width:1.0;" width="15" x="198" y="129.8281"/><line style="stroke:#696969;stroke-width:1.0;" x1="198" x2="211" y1="129.8281" y2="129.8281"/><line style="stroke:#696969;stroke-width:1.0;" x1="198" x2="211" y1="142.6328" y2="142.6328"/><line style="stroke:#696969;stroke-width:1.0;" x1="198" x2="198" y1="129.8281" y2="142.6328"/><rect fill="#90EE90" height="12.8047" style="stroke:none;stroke-width:1.0;" width="21" x="220" y="129.8281"/><line style="stroke:#696969;stroke-width:1.0;" x1="221" x2="240" y1="129.8281" y2="129.8281"/><line style="stroke:#696969;stroke-width:1.0;" x1="221" x2="240" y1="142.6328" y2="142.6328"/><rect fill="#90EE90" height="12.8047" style="stroke:none;stroke-width:1.0;" width="2" x="248" y="129.8281"/><line style="stroke:#696969;stroke-width:1.0;" x1="249" x2="250" y1="129.8281" y2="129.8281"/><line style="stroke:#696969;stroke-width:1.0;" x1="249" x2="250" y1="142.6328" y2="142.6328"/><line style="stroke:#696969;stroke-width:1.0;" x1="250" x2="250" y1="129.8281" y2="142.6328"/><line style="stroke:#696969;stroke-width:1.0;stroke-dasharray:2.0,3.0;" x1="215" x2="217" y1="129.8281" y2="129.8281"/><line style="stroke:#696969;stroke-width:1.0;stroke-dasharray:2.0,3.0;" x1="215" x2="217" y1="142.6328" y2="142.6328"/><line style="stroke:#696969;stroke-width:1.0;stroke-dasharray:2.0,3.0;" x1="243" x2="245" y1="129.8281" y2="129.8281"/><line style="stroke:#696969;stroke-width:1.0;stroke-dasharray:2.0,3.0;" x1="243" x2="245" y1="142.6328" y2="142.6328"/><rect fill="#90EE90" height="12.8047" style="stroke:none;stroke-width:1.0;" width="15" x="254" y="146.6328"/><line style="stroke:#696969;stroke-width:1.0;" x1="254" x2="267" y1="146.6328" y2="146.6328"/><line style="stroke:#696969;stroke-width:1.0;" x1="254" x2="267" y1="159.4375" y2="159.4375"/><line style="stroke:#696969;stroke-width:1.0;" x1="254" x2="254" y1="146.6328" y2="159.4375"/><rect fill="#90EE90" height="12.8047" style="stroke:none;stroke-width:1.0;" width="21" x="276" y="146.6328"/><line style="stroke:#696969;stroke-width:1.0;" x1="277" x2="296" y1="146.6328" y2="146.6328"/><line style="stroke:#696969;stroke-width:1.0;" x1="277" x2="296" y1="159.4375" y2="159.4375"/><rect fill="#90EE90" height="12.8047" style="stroke:none;stroke-width:1.0;" width="21" x="304" y="146.6328"/><line style="stroke:#696969;stroke-width:1.0;" x1="305" x2="324" y1="146.6328" y2="146.6328"/><line style="stroke:#696969;stroke-width:1.0;" x1="305" x2="324" y1="159.4375" y2="159.4375"/><rect fill="#90EE90" height="12.8047" style="stroke:none;stroke-width:1.0;" width="21" x="332" y="146.6328"/><line style="stroke:#696969;stroke-width:1.0;" x1="333" x2="352" y1="146.6328" y2="146.6328"/><line style="stroke:#696969;stroke-width:1.0;" x1="333" x2="352" y1="159.4375" y2="159.4375"/><rect fill="#90EE90" height="12.8047" style="stroke:none;stroke-width:1.0;" width="21" x="360" y="146.6328"/><line style="stroke:#696969;stroke-width:1.0;" x1="361" x2="380" y1="146.6328" y2="146.6328"/><line style="stroke:#696969;stroke-width:1.0;" x1="361" x2="380" y1="159.4375" y2="159.4375"/><rect fill="#90EE90" height="12.8047" style="stroke:none;stroke-width:1.0;" width="2" x="388" y="146.6328"/><line style="stroke:#696969;stroke-width:1.0;" x1="389" x2="390" y1="146.6328" y2="146.6328"/><line style="stroke:#696969;stroke-width:1.0;" x1="389" x2="390" y1="159.4375" y2="159.4375"/><line style="stroke:#696969;stroke-width:1.0;" x1="390" x2="390" y1="146.6328" y2="159.4375"/><line style="stroke:#696969;stroke-width:1.0;stroke-dasharray:2.0,3.0;" x1="271" x2="273" y1="146.6328" y2="146.6328"/><line style="stroke:#696969;stroke-width:1.0;stroke-dasharray:2.0,3.0;" x1="271" x2="273" y1="159.4375" y2="159.4375"/><line style="stroke:#696969;stroke-width:1.0;stroke-dasharray:2.0,3.0;" x1="299" x2="301" y1="146.6328" y2="146.6328"/><line style="stroke:#696969;stroke-width:1.0;stroke-dasharray:2.0,3.0;" x1="299" x2="301" y1="159.4375" y2="159.4375"/><line style="stroke:#696969;stroke-width:1.0;stroke-dasharray:2.0,3.0;" x1="327" x2="329" y1="146.6328" y2="146.6328"/><line style="stroke:#696969;stroke-width:1.0;stroke-dasharray:2.0,3.0;" x1="327" x2="329" y1="159.4375" y2="159.4375"/><line style="stroke:#696969;stroke-width:1.0;stroke-dasharray:2.0,3.0;" x1="355" x2="357" y1="146.6328" y2="146.6328"/><line style="stroke:#696969;stroke-width:1.0;stroke-dasharray:2.0,3.0;" x1="355" x2="357" y1="159.4375" y2="159.4375"/><line style="stroke:#696969;stroke-width:1.0;stroke-dasharray:2.0,3.0;" x1="383" x2="385" y1="146.6328" y2="146.6328"/><line style="stroke:#696969;stroke-width:1.0;stroke-dasharray:2.0,3.0;" x1="383" x2="385" y1="159.4375" y2="159.4375"/><polygon fill="#000000" points="390,163.4375,395,168.4375,390,173.4375,385,168.4375" style="stroke:#000000;stroke-width:1.0;"/><rect fill="#F4A460" height="12.8047" style="stroke:none;stroke-width:1.0;" width="15" x="394" y="180.2422"/><line style="stroke:#A0522D;stroke-width:1.0;" x1="394" x2="407" y1="180.2422" y2="180.2422"/><line style="stroke:#A0522D;stroke-width:1.0;" x1="394" x2="407" y1="193.0469" y2="193.0469"/><line style="stroke:#A0522D;stroke-width:1.0;" x1="394" x2="394" y1="180.2422" y2="193.0469"/><rect fill="#F4A460" height="12.8047" style="stroke:none;stroke-width:1.0;" width="21" x="416" y="180.2422"/><line style="stroke:#A0522D;stroke-width:1.0;" x1="417" x2="436" y1="180.2422" y2="180.2422"/><line style="stroke:#A0522D;stroke-width:1.0;" x1="417" x2="436" y1="193.0469" y2="193.0469"/><rect fill="#F4A460" height="12.8047" style="stroke:none;stroke-width:1.0;" width="21" x="444" y="180.2422"/><line style="stroke:#A0522D;stroke-width:1.0;" x1="445" x2="464" y1="180.2422" y2="180.2422"/><line style="stroke:#A0522D;stroke-width:1.0;" x1="445" x2="464" y1="193.0469" y2="193.0469"/><rect fill="#F4A460" height="12.8047" style="stroke:none;stroke-width:1.0;" width="14" x="472" y="180.2422"/><line style="stroke:#A0522D;stroke-width:1.0;" x1="473" x2="486" y1="180.2422" y2="180.2422"/><line style="stroke:#A0522D;stroke-width:1.0;" x1="473" x2="486" y1="193.0469" y2="193.0469"/><line style="stroke:#A0522D;stroke-width:1.0;" x1="486" x2="486" y1="180.2422" y2="193.0469"/><line style="stroke:#A0522D;stroke-width:1.0;stroke-dasharray:2.0,3.0;" x1="411" x2="413" y1="180.2422" y2="180.2422"/><line style="stroke:#A0522D;stroke-width:1.0;stroke-dasharray:2.0,3.0;" x1="411" x2="413" y1="193.0469" y2="193.0469"/><line style="stroke:#A0522D;stroke-width:1.0;stroke-dasharray:2.0,3.0;" x1="439" x2="441" y1="180.2422" y2="180.2422"/><line style="stroke:#A0522D;stroke-width:1.0;stroke-dasharray:2.0,3.0;" x1="439" x2="441" y1="193.0469" y2="193.0469"/><line style="stroke:#A0522D;stroke-width:1.0;stroke-dasharray:2.0,3.0;" x1="467" x2="469" y1="180.2422" y2="180.2422"/><line style="stroke:#A0522D;stroke-width:1.0;stroke-dasharray:2.0,3.0;" x1="467" x2="469" y1="193.0469" y2="193.0469"/><rect fill="#B0C4DE" height="12.8047" style="stroke:none;stroke-width:1.0;" width="15" x="2" y="197.0469"/><line style="stroke:#696969;stroke-width:1.0;" x1="2" x2="15" y1="197.0469" y2="197.0469"/><line style="stroke:#696969;stroke-width:1.0;" x1="2" x2="15" y1="209.8516" y2="209.8516"/><line style="stroke:#696969;stroke-width:1.0;" x1="2" x2="2" y1="197.0469" y2="209.8516"/><rect fill="#B0C4DE" height="12.8047" style="stroke:none;stroke-width:1.0;" width="21" x="24" y="197.0469"/><line style="stroke:#696969;stroke-width:1.0;" x1="25" x2="44" y1="197.0469" y2="197.0469"/><line style="stroke:#696969;stroke-width:1.0;" x1="25" x2="44" y1="209.8516" y2="209.8516"/><rect fill="#B0C4DE" height="12.8047" style="stroke:none;stroke-width:1.0;" width="21" x="52" y="197.0469"/><line style="stroke:#696969;stroke-width:1.0;" x1="53" x2="72" y1="197.0469" y2="197.0469"/><line style="stroke:#696969;stroke-width:1.0;" x1="53" x2="72" y1="209.8516" y2="209.8516"/><rect fill="#B0C4DE" height="12.8047" style="stroke:none;stroke-width:1.0;" width="21" x="80" y="197.0469"/><line style="stroke:#696969;stroke-width:1.0;" x1="81" x2="100" y1="197.0469" y2="197.0469"/><line style="stroke:#696969;stroke-width:1.0;" x1="81" x2="100" y1="209.8516" y2="209.8516"/><rect fill="#B0C4DE" height="12.8047" style="stroke:none;stroke-width:1.0;" width="21" x="108" y="197.0469"/><line style="stroke:#696969;stroke-width:1.0;" x1="109" x2="128" y1="197.0469" y2="197.0469"/><line style="stroke:#696969;stroke-width:1.0;" x1="109" x2="128" y1="209.8516" y2="209.8516"/><rect fill="#B0C4DE" height="12.8047" style="stroke:none;stroke-width:1.0;" width="21" x="136" y="197.0469"/><line style="stroke:#696969;stroke-width:1.0;" x1="137" x2="156" y1="197.0469" y2="197.0469"/><line style="stroke:#696969;stroke-width:1.0;" x1="137" x2="156" y1="209.8516" y2="209.8516"/><rect fill="#B0C4DE" height="12.8047" style="stroke:none;stroke-width:1.0;" width="21" x="164" y="197.0469"/><line style="stroke:#696969;stroke-width:1.0;" x1="165" x2="184" y1="197.0469" y2="197.0469"/><line style="stroke:#696969;stroke-width:1.0;" x1="165" x2="184" y1="209.8516" y2="209.8516"/><rect fill="#B0C4DE" height="12.8047" style="stroke:none;stroke-width:1.0;" width="21" x="192" y="197.0469"/><line style="stroke:#696969;stroke-width:1.0;" x1="193" x2="212" y1="197.0469" y2="197.0469"/><line style="stroke:#696969;stroke-width:1.0;" x1="193" x2="212" y1="209.8516" y2="209.8516"/><rect fill="#B0C4DE" height="12.8047" style="stroke:none;stroke-width:1.0;" width="21" x="220" y="197.0469"/><line style="stroke:#696969;stroke-width:1.0;" x1="221" x2="240" y1="197.0469" y2="197.0469"/><line style="stroke:#696969;stroke-width:1.0;" x1="221" x2="240" y1="209.8516" y2="209.8516"/><rect fill="#B0C4DE" height="12.8047" style="stroke:none;stroke-width:1.0;" width="21" x="248" y="197.0469"/><line style="stroke:#696969;stroke-width:1.0;" x1="249" x2="268" y1="197.0469" y2="197.0469"/><line style="stroke:#696969;stroke-width:1.0;" x1="249" x2="268" y1="209.8516" y2="209.8516"/><rect fill="#B0C4DE" height="12.8047" style="stroke:none;stroke-width:1.0;" width="21" x="276" y="197.0469"/><line style="stroke:#696969;stroke-width:1.0;" x1="277" x2="296" y1="197.0469" y2="197.0469"/><line style="stroke:#696969;stroke-width:1.0;" x1="277" x2="296" y1="209.8516" y2="209.8516"/><rect fill="#B0C4DE" height="12.8047" style="stroke:none;stroke-width:1.0;" width="21" x="304" y="197.0469"/><line style="stroke:#696969;stroke-width:1.0;" x1="305" x2="324" y1="197.0469" y2="197.0469"/><line style="stroke:#696969;stroke-width:1.0;" x1="305" x2="324" y1="209.8516" y2="209.8516"/><rect fill="#B0C4DE" height="12.8047" style="stroke:none;stroke-width:1.0;" width="21" x="332" y="197.0469"/><line style="stroke:#696969;stroke-width:1.0;" x1="333" x2="352" y1="197.0469" y2="197.0469"/><line style="stroke:#696969;stroke-width:1.0;" x1="333" x2="352" y1="209.8516" y2="209.8516"/><rect fill="#B0C4DE" height="12.8047" style="stroke:none;stroke-width:1.0;" width="21" x="360" y="197.0469"/><line style="stroke:#696969;stroke-width:1.0;" x1="361" x2="380" y1="197.0469" y2="197.0469"/><line style="stroke:#696969;stroke-width:1.0;" x1="361" x2="380" y1="209.8516" y2="209.8516"/><rect fill="#B0C4DE" height="12.8047" style="stroke:none;stroke-width:1.0;" width="21" x="388" y="197.0469"/><line style="stroke:#696969;stroke-width:1.0;" x1="389" x2="408" y1="197.0469" y2="197.0469"/><line style="stroke:#696969;stroke-width:1.0;" x1="389" x2="408" y1="209.8516" y2="209.8516"/><rect fill="#B0C4DE" height="12.8047" style="stroke:none;stroke-width:1.0;" width="21" x="416" y="197.0469"/><line style="stroke:#696969;stroke-width:1.0;" x1="417" x2="436" y1="197.0469" y2="197.0469"/><line style="stroke:#696969;stroke-width:1.0;" x1="417" x2="436" y1="209.8516" y2="209.8516"/><rect fill="#B0C4DE" height="12.8047" style="stroke:none;stroke-width:1.0;" width="21" x="444" y="197.0469"/><line style="stroke:#696969;stroke-width:1.0;" x1="445" x2="464" y1="197.0469" y2="197.0469"/><line style="stroke:#696969;stroke-width:1.0;" x1="445" x2="464" y1="209.8516" y2="209.8516"/><rect fill="#B0C4DE" height="12.8047" style="stroke:none;stroke-width:1.0;" width="14" x="472" y="197.0469"/><line style="stroke:#696969;stroke-width:1.0;" x1="473" x2="486" y1="197.0469" y2="197.0469"/><line style="stroke:#696969;stroke-width:1.0;" x1="473" x2="486" y1="209.8516" y2="209.8516"/><line style="stroke:#696969;stroke-width:1.0;" x1="486" x2="486" y1="197.0469" y2="209.8516"/><line style="stroke:#696969;stroke-width:1.0;stroke-dasharray:2.0,3.0;" x1="19" x2="21" y1="197.0469" y2="197.0469"/><line style="stroke:#696969;stroke-width:1.0;stroke-dasharray:2.0,3.0;" x1="19" x2="21" y1="209.8516" y2="209.8516"/><line style="stroke:#696969;stroke-width:1.0;stroke-dasharray:2.0,3.0;" x1="47" x2="49" y1="197.0469" y2="197.0469"/><line style="stroke:#696969;stroke-width:1.0;stroke-dasharray:2.0,3.0;" x1="47" x2="49" y1="209.8516" y2="209.8516"/><line style="stroke:#696969;stroke-width:1.0;stroke-dasharray:2.0,3.0;" x1="75" x2="77" y1="197.0469" y2="197.0469"/><line style="stroke:#696969;stroke-width:1.0;stroke-dasharray:2.0,3.0;" x1="75" x2="77" y1="209.8516" y2="209.8516"/><line style="stroke:#696969;stroke-width:1.0;stroke-dasharray:2.0,3.0;" x1="103" x2="105" y1="197.0469" y2="197.0469"/><line style="stroke:#696969;stroke-width:1.0;stroke-dasharray:2.0,3.0;" x1="103" x2="105" y1="209.8516" y2="209.8516"/><line style="stroke:#696969;stroke-width:1.0;stroke-dasharray:2.0,3.0;" x1="131" x2="133" y1="197.0469" y2="197.0469"/><line style="stroke:#696969;stroke-width:1.0;stroke-dasharray:2.0,3.0;" x1="131" x2="133" y1="209.8516" y2="209.8516"/><line style="stroke:#696969;stroke-width:1.0;stroke-dasharray:2.0,3.0;" x1="159" x2="161" y1="197.0469" y2="197.0469"/><line style="stroke:#696969;stroke-width:1.0;stroke-dasharray:2.0,3.0;" x1="159" x2="161" y1="209.8516" y2="209.8516"/><line style="stroke:#696969;stroke-width:1.0;stroke-dasharray:2.0,3.0;" x1="187" x2="189" y1="197.0469" y2="197.0469"/><line style="stroke:#696969;stroke-width:1.0;stroke-dasharray:2.0,3.0;" x1="187" x2="189" y1="209.8516" y2="209.8516"/><line style="stroke:#696969;stroke-width:1.0;stroke-dasharray:2.0,3.0;" x1="215" x2="217" y1="197.0469" y2="197.0469"/><line style="stroke:#696969;stroke-width:1.0;stroke-dasharray:2.0,3.0;" x1="215" x2="217" y1="209.8516" y2="209.8516"/><line style="stroke:#696969;stroke-width:1.0;stroke-dasharray:2.0,3.0;" x1="243" x2="245" y1="197.0469" y2="197.0469"/><line style="stroke:#696969;stroke-width:1.0;stroke-dasharray:2.0,3.0;" x1="243" x2="245" y1="209.8516" y2="209.8516"/><line style="stroke:#696969;stroke-width:1.0;stroke-dasharray:2.0,3.0;" x1="271" x2="273" y1="197.0469" y2="197.0469"/><line style="stroke:#696969;stroke-width:1.0;stroke-dasharray:2.0,3.0;" x1="271" x2="273" y1="209.8516" y2="209.8516"/><line style="stroke:#696969;stroke-width:1.0;stroke-dasharray:2.0,3.0;" x1="299" x2="301" y1="197.0469" y2="197.0469"/><line style="stroke:#696969;stroke-width:1.0;stroke-dasharray:2.0,3.0;" x1="299" x2="301" y1="209.8516" y2="209.8516"/><line style="stroke:#696969;stroke-width:1.0;stroke-dasharray:2.0,3.0;" x1="327" x2="329" y1="197.0469" y2="197.0469"/><line style="stroke:#696969;stroke-width:1.0;stroke-dasharray:2.0,3.0;" x1="327" x2="329" y1="209.8516" y2="209.8516"/><line style="stroke:#696969;stroke-width:1.0;stroke-dasharray:2.0,3.0;" x1="355" x2="357" y1="197.0469" y2="197.0469"/><line style="stroke:#696969;stroke-width:1.0;stroke-dasharray:2.0,3.0;" x1="355" x2="357" y1="209.8516" y2="209.8516"/><line style="stroke:#696969;stroke-width:1.0;stroke-dasharray:2.0,3.0;" x1="383" x2="385" y1="197.0469" y2="197.0469"/><line style="stroke:#696969;stroke-width:1.0;stroke-dasharray:2.0,3.0;" x1="383" x2="385" y1="209.8516" y2="209.8516"/><line style="stroke:#696969;stroke-width:1.0;stroke-dasharray:2.0,3.0;" x1="411" x2="413" y1="197.0469" y2="197.0469"/><line style="stroke:#696969;stroke-width:1.0;stroke-dasharray:2.0,3.0;" x1="411" x2="413" y1="209.8516" y2="209.8516"/><line style="stroke:#696969;stroke-width:1.0;stroke-dasharray:2.0,3.0;" x1="439" x2="441" y1="197.0469" y2="197.0469"/><line style="stroke:#696969;stroke-width:1.0;stroke-dasharray:2.0,3.0;" x1="439" x2="441" y1="209.8516" y2="209.8516"/><line style="stroke:#696969;stroke-width:1.0;stroke-dasharray:2.0,3.0;" x1="467" x2="469" y1="197.0469" y2="197.0469"/><line style="stroke:#696969;stroke-width:1.0;stroke-dasharray:2.0,3.0;" x1="467" x2="469" y1="209.8516" y2="209.8516"/><text fill="#000000" font-family="sans-serif" font-size="11" lengthAdjust="spacing" textLength="140" x="96" y="39.2104">WP1 Literature Research</text><text fill="#000000" font-family="sans-serif" font-size="11" lengthAdjust="spacing" textLength="120" x="96" y="56.0151">WP2 External Survey</text><text fill="#000000" font-family="sans-serif" font-size="11" lengthAdjust="spacing" textLength="194" x="142" y="72.8198">WP3 Synthesising State of the Art</text><text fill="#000000" font-family="sans-serif" font-size="11" lengthAdjust="spacing" textLength="183" x="146" y="89.6245">Theoretical research completed</text><text fill="#000000" font-family="sans-serif" font-size="11" lengthAdjust="spacing" textLength="192" x="198" y="106.4292">WP4 Selection practial application</text><text fill="#000000" font-family="sans-serif" font-size="11" lengthAdjust="spacing" textLength="115" x="282" y="123.2339">WP5 Data Collection</text><text fill="#000000" font-family="sans-serif" font-size="11" lengthAdjust="spacing" textLength="139" x="254" y="140.0386">WP6 ML Model Selection</text><text fill="#000000" font-family="sans-serif" font-size="11" lengthAdjust="spacing" textLength="175" x="394" y="156.8433">WP7 ML Model Implementation</text><text fill="#000000" font-family="sans-serif" font-size="11" lengthAdjust="spacing" textLength="155" x="398" y="173.6479">Implementation completed</text><text fill="#000000" font-family="sans-serif" font-size="11" lengthAdjust="spacing" textLength="77" x="398" y="190.4526">WP8 Fieldtest</text><text fill="#000000" font-family="sans-serif" font-size="11" lengthAdjust="spacing" textLength="112" x="6" y="207.2573">Write Thesis Report</text><line style="stroke:#C0C0C0;stroke-width:1.0;" x1="0" x2="488" y1="211.8516" y2="211.8516"/><line style="stroke:#C0C0C0;stroke-width:1.0;" x1="0" x2="0" y1="211.8516" y2="227.8516"/><line style="stroke:#C0C0C0;stroke-width:1.0;" x1="120" x2="120" y1="211.8516" y2="227.8516"/><text fill="#000000" font-family="sans-serif" font-size="12" font-weight="bold" lengthAdjust="spacing" textLength="59" x="30.5" y="222.9902">Jun 2021</text><line style="stroke:#C0C0C0;stroke-width:1.0;" x1="244" x2="244" y1="211.8516" y2="227.8516"/><text fill="#000000" font-family="sans-serif" font-size="12" font-weight="bold" lengthAdjust="spacing" textLength="54" x="155" y="222.9902">Jul 2021</text><line style="stroke:#C0C0C0;stroke-width:1.0;" x1="368" x2="368" y1="211.8516" y2="227.8516"/><text fill="#000000" font-family="sans-serif" font-size="12" font-weight="bold" lengthAdjust="spacing" textLength="64" x="274" y="222.9902">Aug 2021</text><line style="stroke:#C0C0C0;stroke-width:1.0;" x1="488" x2="488" y1="211.8516" y2="227.8516"/><text fill="#000000" font-family="sans-serif" font-size="12" font-weight="bold" lengthAdjust="spacing" textLength="64" x="396" y="222.9902">Sep 2021</text><line style="stroke:#C0C0C0;stroke-width:1.0;" x1="0" x2="488" y1="227.8516" y2="227.8516"/><!--SRC=[xLLDSzem4BthL-mjv93maO-cEQNagyt031EJvD39GR4NK2CaZxGczR_lseG0ZWrkh-M4aT- -jxj-gxtm91sDfI4IiRE_C2J8ZpnqMfrsitNQRBM5bvIuIAOW7KAehST8-CGKJcAd3FbGQeGtn5UT2l7pQT26dY9q6GF2FNgKBfmyBqGahUfKmxNqZ3xAYNtEsu7htmmqKaEGk1ccgvoLH7j-ZgfWG1DjZMTCdi0H1AcX2NhbbHb3G98Gx0Zu2BuvAgJpMUoTgWxJlFhEH_N32Lg7fBZNuDvJWz1EOus4qJDCP1oZMKXler-fwHW2rEm1PGt4Jl83Ap2PPgdii51KJUPQnAirvhcSm9Ka2PTMlmSMnBTIBjLBg3uRwXJwFUZR2FMI-DybozcA7_9fy6M9-v5zloaQAcjrATzIRWFDNFFaGtFzVRLjgYbN37C6DmfrHEYBXjyQNenUpDxyFlZQF6fb2ew748QvnNWAOxi-M6jtHncqZ7GlCu9r4E586PMbv3VSF4mMPd2CG1c6Z2SK4ABkwWIRLsfwwp2jk4tgXcwT_xf4swUiX8c3qQoob4nBdR1onzU9t63UEk5hBbeF2AI9qgwpRwOPA3H6LbcgLeV51TjflYl5nMvnxXRdRd7k5kT_j3XtItAt9FzgIGuq_pvmtZDqFkjt-v3zT7pOUa6IdSQ3UJMica-IukL7Qehxed4xw86tYGiH8kN9gPSagtDVtCcPXFl4PBXpoFurXlrz2AuNXt1jPifPa_L6t3tsvo3uRYc8BUNWq-E3hY9kFhlFmMDVNE589feuDBGHE-iS7eOt1sUY9yquaMCMGYCkBGkubDy5Vm00]--></g></svg>