<?xml version="1.0" encoding="us-ascii" standalone="no"?><svg xmlns="http://www.w3.org/2000/svg" xmlns:xlink="http://www.w3.org/1999/xlink" contentStyleType="text/css" height="1146px" preserveAspectRatio="none" style="width:474px;height:1146px;background:#FFFFFF;" version="1.1" viewBox="0 0 474 1146" width="474px" zoomAndPan="magnify"><defs/><g><text fill="#000000" font-family="sans-serif" font-size="14" font-weight="bold" lengthAdjust="spacing" textLength="141" x="159.8703" y="22.9951">Servlet Container</text><ellipse cx="153.2406" cy="53.2969" fill="#222222" rx="10" ry="10" style="stroke:#222222;stroke-width:1.0;"/><rect fill="#F1F1F1" height="33.9688" rx="12.5" ry="12.5" style="stroke:#181818;stroke-width:0.5;" width="193" x="56.7406" y="104.2969"/><text fill="#000000" font-family="sans-serif" font-size="12" lengthAdjust="spacing" textLength="173" x="66.7406" y="125.4355">ClickServlet.handleRequest()</text><rect fill="#F1F1F1" height="33.9688" rx="12.5" ry="12.5" style="stroke:#181818;stroke-width:0.5;" width="78" x="114.2406" y="179.2969"/><text fill="#000000" font-family="sans-serif" font-size="12" lengthAdjust="spacing" textLength="58" x="124.2406" y="200.4355">new Page</text><g id="elem_#7"><polygon fill="#F1F1F1" points="153.2406,259.2969,165.2406,271.2969,153.2406,283.2969,141.2406,271.2969,153.2406,259.2969" style="stroke:#181818;stroke-width:0.5;"/></g><rect fill="#F1F1F1" height="33.9688" rx="12.5" ry="12.5" style="stroke:#181818;stroke-width:0.5;" width="94" x="211.2406" y="254.2969"/><text fill="#000000" font-family="sans-serif" font-size="12" lengthAdjust="spacing" textLength="74" x="221.2406" y="275.4355">Page.onInit()</text><g id="elem_#12"><polygon fill="#F1F1F1" points="270.2406,334.2969,282.2406,346.2969,270.2406,358.2969,258.2406,346.2969,270.2406,334.2969" style="stroke:#181818;stroke-width:0.5;"/></g><rect fill="#F1F1F1" height="33.9688" rx="12.5" ry="12.5" style="stroke:#181818;stroke-width:0.5;" width="121" x="317.7406" y="329.2969"/><text fill="#000000" font-family="sans-serif" font-size="12" lengthAdjust="spacing" textLength="101" x="327.7406" y="350.4355">Process controls</text><g id="elem_#17"><polygon fill="#F1F1F1" points="378.2406,404.2969,390.2406,416.2969,378.2406,428.2969,366.2406,416.2969,378.2406,404.2969" style="stroke:#181818;stroke-width:0.5;"/></g><rect fill="#555555" height="8" style="stroke:none;stroke-width:1.0;" width="80" x="281.2406" y="482.2969"/><rect fill="#555555" height="8" style="stroke:none;stroke-width:1.0;" width="80" x="252.2406" y="772.2969"/><g id="elem_#25"><polygon fill="#F1F1F1" points="321.2406,544.2969,333.2406,556.2969,321.2406,568.2969,309.2406,556.2969,321.2406,544.2969" style="stroke:#181818;stroke-width:0.5;"/></g><rect fill="#F1F1F1" height="33.9688" rx="12.5" ry="12.5" style="stroke:#181818;stroke-width:0.5;" width="102" x="182.2406" y="622.2969"/><text fill="#000000" font-family="sans-serif" font-size="12" lengthAdjust="spacing" textLength="82" x="192.2406" y="643.4355">Page.onPost()</text><rect fill="#F1F1F1" height="33.9688" rx="12.5" ry="12.5" style="stroke:#181818;stroke-width:0.5;" width="120" x="232.2406" y="697.2969"/><text fill="#000000" font-family="sans-serif" font-size="12" lengthAdjust="spacing" textLength="100" x="242.2406" y="718.4355">Page.onRender()</text><rect fill="#F1F1F1" height="33.9688" rx="12.5" ry="12.5" style="stroke:#181818;stroke-width:0.5;" width="98" x="304.2406" y="622.2969"/><text fill="#000000" font-family="sans-serif" font-size="12" lengthAdjust="spacing" textLength="78" x="314.2406" y="643.4355">Page.onGet()</text><g id="elem_#37"><polygon fill="#F1F1F1" points="292.2406,821.2969,304.2406,833.2969,292.2406,845.2969,280.2406,833.2969,292.2406,821.2969" style="stroke:#181818;stroke-width:0.5;"/></g><rect fill="#F1F1F1" height="33.9688" rx="12.5" ry="12.5" style="stroke:#181818;stroke-width:0.5;" width="119" x="349.7406" y="865.2969"/><text fill="#000000" font-family="sans-serif" font-size="12" lengthAdjust="spacing" textLength="99" x="359.7406" y="886.4355">redirect request</text><rect fill="#555555" height="8" style="stroke:none;stroke-width:1.0;" width="80" x="300.2406" y="994.2969"/><g id="elem_#44"><polygon fill="#F1F1F1" points="215.2406,924.2969,227.2406,936.2969,215.2406,948.2969,203.2406,936.2969,215.2406,924.2969" style="stroke:#181818;stroke-width:0.5;"/></g><rect fill="#F1F1F1" height="33.9688" rx="12.5" ry="12.5" style="stroke:#181818;stroke-width:0.5;" width="121" x="39.7406" y="919.2969"/><text fill="#000000" font-family="sans-serif" font-size="12" lengthAdjust="spacing" textLength="101" x="49.7406" y="940.4355">Forward request</text><rect fill="#F1F1F1" height="33.9688" rx="12.5" ry="12.5" style="stroke:#181818;stroke-width:0.5;" width="155" x="262.7406" y="919.2969"/><text fill="#000000" font-family="sans-serif" font-size="12" lengthAdjust="spacing" textLength="135" x="272.7406" y="940.4355">Render page template</text><rect fill="#F1F1F1" height="33.9688" rx="12.5" ry="12.5" style="stroke:#181818;stroke-width:0.5;" width="125" x="277.7406" y="1043.2969"/><text fill="#000000" font-family="sans-serif" font-size="12" lengthAdjust="spacing" textLength="105" x="287.7406" y="1064.4355">Page.onDestroy()</text><ellipse cx="340.2406" cy="1129.2969" fill="none" rx="11" ry="11" style="stroke:#222222;stroke-width:1.0;"/><ellipse cx="340.2406" cy="1129.2969" fill="#222222" rx="6" ry="6" style="stroke:#222222;stroke-width:1.0;"/><!--link start to ClickServlet.handleRequest()--><g id="link_start_ClickServlet.handleRequest()"><path d="M153.2406,63.4769 C153.2406,73.9569 153.2406,85.3169 153.2406,98.0869 " fill="none" id="start-to-ClickServlet.handleRequest()" style="stroke:#181818;stroke-width:1.0;"/><polygon fill="#181818" points="153.2406,104.0869,157.2406,95.0869,153.2406,99.0869,149.2406,95.0869,153.2406,104.0869" style="stroke:#181818;stroke-width:1.0;"/></g><!--link ClickServlet.handleRequest() to new Page--><g id="link_ClickServlet.handleRequest()_new Page"><path d="M153.2406,138.4969 C153.2406,150.5949 153.2406,161.0549 153.2406,173.1409 " fill="none" id="ClickServlet.handleRequest()-to-new Page" style="stroke:#181818;stroke-width:1.0;"/><polygon fill="#181818" points="153.2406,179.1409,157.2406,170.1409,153.2406,174.1409,149.2406,170.1409,153.2406,179.1409" style="stroke:#181818;stroke-width:1.0;"/></g><!--link new Page to #7--><g id="link_new Page_#7"><path d="M153.2406,213.4979 C153.2406,227.2759 153.2406,240.7109 153.2406,252.9009 " fill="none" id="new Page-to-#7" style="stroke:#181818;stroke-width:1.0;"/><polygon fill="#181818" points="153.2406,258.9009,157.2406,249.9009,153.2406,253.9009,149.2406,249.9009,153.2406,258.9009" style="stroke:#181818;stroke-width:1.0;"/><text fill="#000000" font-family="sans-serif" font-size="11" lengthAdjust="spacing" textLength="127" x="6" y="251.3758">Page.onSecurityCheck</text></g><!--link #7 to Page.onInit()--><g id="link_#7_Page.onInit()"><path d="M165.2856,271.2969 C176.5976,271.2969 188.2676,271.2969 205.1776,271.2969 " fill="none" id="#7-to-Page.onInit()" style="stroke:#181818;stroke-width:1.0;"/><polygon fill="#181818" points="211.1776,271.2969,202.1776,267.2969,206.1776,271.2969,202.1776,275.2969,211.1776,271.2969" style="stroke:#181818;stroke-width:1.0;"/><text fill="#000000" font-family="sans-serif" font-size="11" lengthAdjust="spacing" textLength="23" x="176.7406" y="265.5073">true</text></g><!--link Page.onInit() to #12--><g id="link_Page.onInit()_#12"><path d="M260.9036,288.4979 C263.2786,302.9479 265.7045,317.7003 267.6785,329.7103 " fill="none" id="Page.onInit()-to-#12" style="stroke:#181818;stroke-width:1.0;"/><polygon fill="#181818" points="268.6516,335.6309,271.139,326.1013,267.8407,330.6971,263.2449,327.3988,268.6516,335.6309" style="stroke:#181818;stroke-width:1.0;"/><text fill="#000000" font-family="sans-serif" font-size="11" lengthAdjust="spacing" textLength="59" x="191.3868" y="324.2864">isForward?</text></g><!--link #12 to Process controls--><g id="link_#12_Process controls"><path d="M282.6296,346.2969 C291.4946,346.2969 298.1556,346.2969 311.3756,346.2969 " fill="none" id="#12-to-Process controls" style="stroke:#181818;stroke-width:1.0;"/><polygon fill="#181818" points="317.3756,346.2969,308.3756,342.2969,312.3756,346.2969,308.3756,350.2969,317.3756,346.2969" style="stroke:#181818;stroke-width:1.0;"/><text fill="#000000" font-family="sans-serif" font-size="11" lengthAdjust="spacing" textLength="14" x="292.9906" y="340.5073">no</text></g><!--link Process controls to #17--><g id="link_Process controls_#17"><path d="M378.2406,363.4119 C378.2406,375.9799 378.2406,387.1049 378.2406,398.1819 " fill="none" id="Process controls-to-#17" style="stroke:#181818;stroke-width:1.0;"/><polygon fill="#181818" points="378.2406,404.1819,382.2406,395.1819,378.2406,399.1819,374.2406,395.1819,378.2406,404.1819" style="stroke:#181818;stroke-width:1.0;"/><text fill="#000000" font-family="sans-serif" font-size="11" lengthAdjust="spacing" textLength="120" x="238.3656" y="396.525">continue processing?</text></g><!--link #17 to RENDERING--><g id="link_#17_RENDERING"><path d="M372.9806,423.5719 C361.0746,437.7759 336.2802,467.3558 327.6182,477.6888 " fill="none" id="#17-to-RENDERING" style="stroke:#181818;stroke-width:1.0;"/><polygon fill="#181818" points="323.7636,482.2869,332.6108,477.9594,326.9757,478.4551,326.48,472.82,323.7636,482.2869" style="stroke:#181818;stroke-width:1.0;"/><text fill="#000000" font-family="sans-serif" font-size="11" lengthAdjust="spacing" textLength="21" x="352.2406" y="459.5073">yes</text></g><!--link #17 to REDIRECT_CHECK--><g id="link_#17_REDIRECT_CHECK"><path d="M385.4306,421.5569 C400.3396,430.9959 433.2406,455.2329 433.2406,485.2969 C433.2406,485.2969 433.2406,485.2969 433.2406,715.2969 C433.2406,759.4589 379.9385,771.1363 338.2525,774.1983 " fill="none" id="#17-to-REDIRECT_CHECK" style="stroke:#181818;stroke-width:1.0;"/><polygon fill="#181818" points="332.2686,774.6379,341.5375,777.9678,337.2552,774.2716,340.9514,769.9893,332.2686,774.6379" style="stroke:#181818;stroke-width:1.0;"/><text fill="#000000" font-family="sans-serif" font-size="11" lengthAdjust="spacing" textLength="14" x="434.2406" y="599.5073">no</text></g><!--link #12 to RENDERING--><g id="link_#12_RENDERING"><path d="M273.2786,355.5159 C283.0566,381.9759 311.3818,458.6199 317.9158,476.3009 " fill="none" id="#12-to-RENDERING" style="stroke:#181818;stroke-width:1.0;"/><polygon fill="#181818" points="319.9956,481.9289,320.6279,472.1003,318.2624,477.2389,313.1239,474.8734,319.9956,481.9289" style="stroke:#181818;stroke-width:1.0;"/><text fill="#000000" font-family="sans-serif" font-size="11" lengthAdjust="spacing" textLength="21" x="300.2406" y="420.5073">yes</text></g><!--link RENDERING to #25--><g id="link_RENDERING_#25"><path d="M321.2406,490.5769 C321.2406,500.1279 321.2406,522.2439 321.2406,538.0969 " fill="none" id="RENDERING-to-#25" style="stroke:#181818;stroke-width:1.0;"/><polygon fill="#181818" points="321.2406,544.0969,325.2406,535.0969,321.2406,539.0969,317.2406,535.0969,321.2406,544.0969" style="stroke:#181818;stroke-width:1.0;"/><text fill="#000000" font-family="sans-serif" font-size="11" lengthAdjust="spacing" textLength="42" x="269.0031" y="533.631">is Post?</text></g><!--link #25 to Page.onPost()--><g id="link_#25_Page.onPost()"><path d="M315.4666,562.6119 C302.5426,574.5079 275.2622,599.6185 255.2122,618.0735 " fill="none" id="#25-to-Page.onPost()" style="stroke:#181818;stroke-width:1.0;"/><polygon fill="#181818" points="250.7976,622.1369,260.1285,618.9848,254.4765,618.7507,254.7106,613.0987,250.7976,622.1369" style="stroke:#181818;stroke-width:1.0;"/><text fill="#000000" font-family="sans-serif" font-size="11" lengthAdjust="spacing" textLength="21" x="285.2406" y="599.5073">yes</text></g><!--link Page.onPost() to render--><g id="link_Page.onPost()_render"><path d="M246.3346,656.4979 C256.1116,668.5949 265.6429,680.3886 275.4119,692.4746 " fill="none" id="Page.onPost()-to-render" style="stroke:#181818;stroke-width:1.0;"/><polygon fill="#181818" points="279.1836,697.1409,276.6369,687.627,276.0405,693.2523,270.4152,692.6559,279.1836,697.1409" style="stroke:#181818;stroke-width:1.0;"/></g><!--link render to REDIRECT_CHECK--><g id="link_render_REDIRECT_CHECK"><path d="M292.2406,731.3759 C292.2406,745.2609 292.2406,758.2579 292.2406,765.9049 " fill="none" id="render-to-REDIRECT_CHECK" style="stroke:#181818;stroke-width:1.0;"/><polygon fill="#181818" points="292.2406,771.9049,296.2406,762.9049,292.2406,766.9049,288.2406,762.9049,292.2406,771.9049" style="stroke:#181818;stroke-width:1.0;"/></g><!--link #25 to Page.onGet()--><g id="link_#25_Page.onGet()"><path d="M324.4256,565.3599 C329.6426,578.5649 337.9,599.4666 344.679,616.6256 " fill="none" id="#25-to-Page.onGet()" style="stroke:#181818;stroke-width:1.0;"/><polygon fill="#181818" points="346.8836,622.2059,347.2969,612.3657,345.0465,617.5556,339.8565,615.3052,346.8836,622.2059" style="stroke:#181818;stroke-width:1.0;"/><text fill="#000000" font-family="sans-serif" font-size="11" lengthAdjust="spacing" textLength="14" x="338.2406" y="599.5073">no</text></g><!--link Page.onGet() to render--><g id="link_Page.onGet()_render"><path d="M339.7026,656.4979 C329.5936,668.5949 319.6881,680.4509 309.5881,692.5369 " fill="none" id="Page.onGet()-to-render" style="stroke:#181818;stroke-width:1.0;"/><polygon fill="#181818" points="305.7406,697.1409,314.5812,692.7998,308.9469,693.3042,308.4425,687.6699,305.7406,697.1409" style="stroke:#181818;stroke-width:1.0;"/></g><!--link #7 to REDIRECT_CHECK--><g id="link_#7_REDIRECT_CHECK"><path d="M152.7566,283.1779 C152.1646,297.4399 151.2406,323.2369 151.2406,345.2969 C151.2406,345.2969 151.2406,345.2969 151.2406,715.2969 C151.2406,759.4589 204.5427,771.1363 246.2287,774.1983 " fill="none" id="#7-to-REDIRECT_CHECK" style="stroke:#181818;stroke-width:1.0;"/><polygon fill="#181818" points="252.2126,774.6379,243.5298,769.9893,247.2261,774.2716,242.9438,777.9678,252.2126,774.6379" style="stroke:#181818;stroke-width:1.0;"/><text fill="#000000" font-family="sans-serif" font-size="11" lengthAdjust="spacing" textLength="28" x="152.2406" y="521.5073">false</text></g><!--link REDIRECT_CHECK to #37--><g id="link_REDIRECT_CHECK_#37"><path d="M292.2406,780.5729 C292.2406,788.3429 292.2406,802.1909 292.2406,814.9179 " fill="none" id="REDIRECT_CHECK-to-#37" style="stroke:#181818;stroke-width:1.0;"/><polygon fill="#181818" points="292.2406,820.9179,296.2406,811.9179,292.2406,815.9179,288.2406,811.9179,292.2406,820.9179" style="stroke:#181818;stroke-width:1.0;"/><text fill="#000000" font-family="sans-serif" font-size="11" lengthAdjust="spacing" textLength="70" x="206.0531" y="810.8141">Do redirect?</text></g><!--link #37 to redirect request--><g id="link_#37_redirect request"><path d="M300.2826,837.5279 C314.3766,843.1889 338.8511,853.0203 363.8261,863.0533 " fill="none" id="#37-to-redirect request" style="stroke:#181818;stroke-width:1.0;"/><polygon fill="#181818" points="369.3936,865.2899,362.5334,858.2233,364.754,863.426,359.5512,865.6467,369.3936,865.2899" style="stroke:#181818;stroke-width:1.0;"/><text fill="#000000" font-family="sans-serif" font-size="11" lengthAdjust="spacing" textLength="21" x="308.7576" y="846.9803">yes</text></g><!--link redirect request to BEFORE_DESTROY--><g id="link_redirect request_BEFORE_DESTROY"><path d="M420.4006,899.3459 C429.2536,914.2479 438.5686,936.5869 428.2406,953.2969 C412.7946,978.2889 384.2334,988.2432 363.3114,992.9492 " fill="none" id="redirect request-to-BEFORE_DESTROY" style="stroke:#181818;stroke-width:1.0;"/><polygon fill="#181818" points="357.4576,994.2659,367.116,996.1933,362.3357,993.1686,365.3605,988.3883,357.4576,994.2659" style="stroke:#181818;stroke-width:1.0;"/></g><!--link #37 to #44--><g id="link_#37_#44"><path d="M287.4236,840.6149 C273.5956,858.7529 237.5194,906.0744 223.6934,924.2094 " fill="none" id="#37-to-#44" style="stroke:#181818;stroke-width:1.0;"/><polygon fill="#181818" points="220.0556,928.9809,228.6932,924.2488,223.0871,925.0047,222.3312,919.3985,220.0556,928.9809" style="stroke:#181818;stroke-width:1.0;"/><text fill="#000000" font-family="sans-serif" font-size="11" lengthAdjust="spacing" textLength="70" x="169.3384" y="937.2194">Do Forward?</text></g><!--reverse link Forward request to #44--><g id="link_Forward request_#44"><path d="M166.7716,936.2969 C182.7886,936.2969 192.4906,936.2969 202.8896,936.2969 " fill="none" id="Forward request-backto-#44" style="stroke:#181818;stroke-width:1.0;"/><polygon fill="#181818" points="160.7716,936.2969,169.7716,940.2969,165.7716,936.2969,169.7716,932.2969,160.7716,936.2969" style="stroke:#181818;stroke-width:1.0;"/><text fill="#000000" font-family="sans-serif" font-size="11" lengthAdjust="spacing" textLength="21" x="171.4906" y="930.5073">yes</text></g><!--link Forward request to BEFORE_DESTROY--><g id="link_Forward request_BEFORE_DESTROY"><path d="M160.8026,952.4379 C217.4586,966.6019 291.9437,985.2228 322.2297,992.7938 " fill="none" id="Forward request-to-BEFORE_DESTROY" style="stroke:#181818;stroke-width:1.0;"/><polygon fill="#181818" points="328.0506,994.2489,320.2894,988.1856,323.1999,993.0363,318.3492,995.9468,328.0506,994.2489" style="stroke:#181818;stroke-width:1.0;"/></g><!--link #44 to Render page template--><g id="link_#44_Render page template"><path d="M227.6826,936.2969 C236.4516,936.2969 243.0146,936.2969 256.5926,936.2969 " fill="none" id="#44-to-Render page template" style="stroke:#181818;stroke-width:1.0;"/><polygon fill="#181818" points="262.5926,936.2969,253.5926,932.2969,257.5926,936.2969,253.5926,940.2969,262.5926,936.2969" style="stroke:#181818;stroke-width:1.0;"/><text fill="#000000" font-family="sans-serif" font-size="11" lengthAdjust="spacing" textLength="14" x="237.9906" y="930.5073">no</text></g><!--link Render page template to BEFORE_DESTROY--><g id="link_Render page template_BEFORE_DESTROY"><path d="M340.2406,953.3759 C340.2406,967.2609 340.2406,980.2579 340.2406,987.9049 " fill="none" id="Render page template-to-BEFORE_DESTROY" style="stroke:#181818;stroke-width:1.0;"/><polygon fill="#181818" points="340.2406,993.9049,344.2406,984.9049,340.2406,988.9049,336.2406,984.9049,340.2406,993.9049" style="stroke:#181818;stroke-width:1.0;"/></g><!--link BEFORE_DESTROY to Page.onDestroy()--><g id="link_BEFORE_DESTROY_Page.onDestroy()"><path d="M340.2406,1002.5229 C340.2406,1010.0689 340.2406,1023.2899 340.2406,1037.282 " fill="none" id="BEFORE_DESTROY-to-Page.onDestroy()" style="stroke:#181818;stroke-width:1.0;"/><polygon fill="#181818" points="340.2406,1043.282,344.2406,1034.282,340.2406,1038.282,336.2406,1034.282,340.2406,1043.282" style="stroke:#181818;stroke-width:1.0;"/></g><!--link Page.onDestroy() to end--><g id="link_Page.onDestroy()_end"><path d="M340.2406,1077.5157 C340.2406,1090.2186 340.2406,1101.4865 340.2406,1112.2573 " fill="none" id="Page.onDestroy()-to-end" style="stroke:#181818;stroke-width:1.0;"/><polygon fill="#181818" points="340.2406,1118.2573,344.2406,1109.2573,340.2406,1113.2573,336.2406,1109.2573,340.2406,1118.2573" style="stroke:#181818;stroke-width:1.0;"/></g><!--SRC=[VPFHRe8m58Rl-nGdNEaIVGDSCa1dbgYftYoBCGqSfB5hNLjcVFkrK1ZBnkvAp_z_FVzfiTmAX3tgJu4M4YKjun8r8PE7ASnc2uWImVDB4Cmh9Wk153zgD7OoZKWZaNY37JjZH0Wl8VBBkP9xp6lDxJsfCBz4O2kK162sUBEwncClMqlUa5pDcxbPAdrZkdWSMgJo1groD0PorwLMmlGUly5bZN1j5LoU1svdlwCvGXp7DDka6LrlLcxjIYWC1eK_e16aQvebXrFod2KlGIKBNfAVyZ5W9ssJm4uP-qSdNNHVzj6XdNJOfOw2skq3Cw2RZw0OQ_1dZ8wpmW6yvuGM1vwIkVL8-g3sSLBb80NNcFUH-ZnTmIcQbz6-YpX-ofPRcftIR7-WszS6wCyDkDyNBR2qFJIKlvdT44QehgpvkRBT6DevmjLD0oo-NmMp-2-aoHeI3oyaTQThTG_FtVqONm00]--></g></svg>