<?xml version="1.0" encoding="us-ascii" standalone="no"?><svg xmlns="http://www.w3.org/2000/svg" xmlns:xlink="http://www.w3.org/1999/xlink" contentStyleType="text/css" height="247px" preserveAspectRatio="none" style="width:1192px;height:247px;background:#FFFFFF;" version="1.1" viewBox="0 0 1192 247" width="1192px" zoomAndPan="magnify"><defs/><g><rect fill="#DA6D9C" height="52.5938" rx="12.5" ry="12.5" style="stroke:#181818;stroke-width:1.5;" width="174" x="529" y="96.2969"/><text fill="#000000" font-family="sans-serif" font-size="14" lengthAdjust="spacing" textLength="78" x="539" y="119.292">Infotronics</text><text fill="#000000" font-family="sans-serif" font-size="14" lengthAdjust="spacing" textLength="146" x="543" y="135.5889">Engineer Everything</text><rect fill="#CC5254" height="36.2969" rx="12.5" ry="12.5" style="stroke:#181818;stroke-width:1.5;" width="157" x="753" y="20"/><text fill="#000000" font-family="sans-serif" font-size="14" lengthAdjust="spacing" textLength="133" x="763" y="42.9951">Computer Science</text><text fill="#000000" font-family="sans-serif" font-size="14" lengthAdjust="spacing" textLength="125" x="963" y="24.6982">Machine Learning</text><path d="M910,38.1484 L920,38.1484 C935,38.1484 935,19.8516 950,19.8516 L960,19.8516 " fill="none" style="stroke:#181818;stroke-width:1.0;"/><text fill="#000000" font-family="sans-serif" font-size="14" lengthAdjust="spacing" textLength="94" x="963" y="42.9951">Data Science</text><path d="M910,38.1484 L920,38.1484 C935,38.1484 935,38.1484 950,38.1484 L960,38.1484 " fill="none" style="stroke:#181818;stroke-width:1.0;"/><text fill="#000000" font-family="sans-serif" font-size="14" lengthAdjust="spacing" textLength="79" x="963" y="61.292">Algorithms</text><path d="M910,38.1484 L920,38.1484 C935,38.1484 935,56.4453 950,56.4453 L960,56.4453 " fill="none" style="stroke:#181818;stroke-width:1.0;"/><path d="M703,122.5938 L713,122.5938 C728,122.5938 728,38.1484 743,38.1484 L753,38.1484 " fill="none" style="stroke:#181818;stroke-width:1.0;"/><rect fill="#F1F1F1" height="36.2969" rx="12.5" ry="12.5" style="stroke:#181818;stroke-width:1.5;" width="230" x="753" y="76.2969"/><text fill="#000000" font-family="sans-serif" font-size="14" lengthAdjust="spacing" textLength="206" x="763" y="99.292">Operational Technology (OT)</text><text fill="#000000" font-family="sans-serif" font-size="14" lengthAdjust="spacing" textLength="120" x="1036" y="80.9951">Robust Software</text><path d="M983,94.4453 L993,94.4453 C1008,94.4453 1008,76.1484 1023,76.1484 L1033,76.1484 " fill="none" style="stroke:#181818;stroke-width:1.0;"/><text fill="#000000" font-family="sans-serif" font-size="14" lengthAdjust="spacing" textLength="59" x="1036" y="99.292">Security</text><path d="M983,94.4453 L993,94.4453 C1008,94.4453 1008,94.4453 1023,94.4453 L1033,94.4453 " fill="none" style="stroke:#181818;stroke-width:1.0;"/><text fill="#000000" font-family="sans-serif" font-size="14" lengthAdjust="spacing" textLength="84" x="1036" y="117.5889">Industry 4.0</text><path d="M983,94.4453 L993,94.4453 C1008,94.4453 1008,112.7422 1023,112.7422 L1033,112.7422 " fill="none" style="stroke:#181818;stroke-width:1.0;"/><path d="M703,122.5938 L713,122.5938 C728,122.5938 728,94.4453 743,94.4453 L753,94.4453 " fill="none" style="stroke:#181818;stroke-width:1.0;"/><rect fill="#00925A" height="36.2969" rx="12.5" ry="12.5" style="stroke:#181818;stroke-width:1.5;" width="104" x="753" y="132.5938"/><text fill="#000000" font-family="sans-serif" font-size="14" lengthAdjust="spacing" textLength="80" x="763" y="155.5889">Electronics</text><text fill="#000000" font-family="sans-serif" font-size="14" lengthAdjust="spacing" textLength="131" x="910" y="137.292">Electronic Circuits</text><path d="M857,150.7422 L867,150.7422 C882,150.7422 882,132.4453 897,132.4453 L907,132.4453 " fill="none" style="stroke:#181818;stroke-width:1.0;"/><text fill="#000000" font-family="sans-serif" font-size="14" lengthAdjust="spacing" textLength="143" x="910" y="155.5889">Embedded Systems</text><path d="M857,150.7422 L867,150.7422 C882,150.7422 882,150.7422 897,150.7422 L907,150.7422 " fill="none" style="stroke:#181818;stroke-width:1.0;"/><text fill="#000000" font-family="sans-serif" font-size="14" lengthAdjust="spacing" textLength="177" x="910" y="173.8857">Wireless Communication</text><path d="M857,150.7422 L867,150.7422 C882,150.7422 882,169.0391 897,169.0391 L907,169.0391 " fill="none" style="stroke:#181818;stroke-width:1.0;"/><path d="M703,122.5938 L713,122.5938 C728,122.5938 728,150.7422 743,150.7422 L753,150.7422 " fill="none" style="stroke:#181818;stroke-width:1.0;"/><rect fill="#F5C400" height="36.2969" rx="12.5" ry="12.5" style="stroke:#181818;stroke-width:1.5;" width="175" x="753" y="188.8906"/><text fill="#000000" font-family="sans-serif" font-size="14" lengthAdjust="spacing" textLength="151" x="763" y="211.8857">Systems Engineering</text><text fill="#000000" font-family="sans-serif" font-size="14" lengthAdjust="spacing" textLength="97" x="981" y="193.5889">Programming</text><path d="M928,207.0391 L938,207.0391 C953,207.0391 953,188.7422 968,188.7422 L978,188.7422 " fill="none" style="stroke:#181818;stroke-width:1.0;"/><text fill="#000000" font-family="sans-serif" font-size="14" lengthAdjust="spacing" textLength="199" x="981" y="211.8857">Model-Driven Development</text><path d="M928,207.0391 L938,207.0391 C953,207.0391 953,207.0391 968,207.0391 L978,207.0391 " fill="none" style="stroke:#181818;stroke-width:1.0;"/><text fill="#000000" font-family="sans-serif" font-size="14" lengthAdjust="spacing" textLength="115" x="981" y="230.1826">System On Chip</text><path d="M928,207.0391 L938,207.0391 C953,207.0391 953,225.3359 968,225.3359 L978,225.3359 " fill="none" style="stroke:#181818;stroke-width:1.0;"/><path d="M703,122.5938 L713,122.5938 C728,122.5938 728,207.0391 743,207.0391 L753,207.0391 " fill="none" style="stroke:#181818;stroke-width:1.0;"/><rect fill="#0095D8" height="36.2969" rx="12.5" ry="12.5" style="stroke:#181818;stroke-width:1.5;" width="184" x="295" y="39.7031"/><text fill="#000000" font-family="sans-serif" font-size="14" lengthAdjust="spacing" textLength="160" x="305" y="62.6982">Industrial Applications</text><text fill="#000000" font-family="sans-serif" font-size="14" lengthAdjust="spacing" textLength="189" x="53" y="44.4014">Industrial Control Systems</text><path d="M295,57.8516 L285,57.8516 C270,57.8516 270,39.5547 255,39.5547 L245,39.5547 " fill="none" style="stroke:#181818;stroke-width:1.0;"/><text fill="#000000" font-family="sans-serif" font-size="14" lengthAdjust="spacing" textLength="171" x="71" y="62.6982">Cyber-Physical Systems</text><path d="M295,57.8516 L285,57.8516 C270,57.8516 270,57.8516 255,57.8516 L245,57.8516 " fill="none" style="stroke:#181818;stroke-width:1.0;"/><text fill="#000000" font-family="sans-serif" font-size="14" lengthAdjust="spacing" textLength="64" x="178" y="80.9951">Robotics</text><path d="M295,57.8516 L285,57.8516 C270,57.8516 270,76.1484 255,76.1484 L245,76.1484 " fill="none" style="stroke:#181818;stroke-width:1.0;"/><path d="M529,122.5938 L519,122.5938 C504,122.5938 504,57.8516 489,57.8516 L479,57.8516 " fill="none" style="stroke:#181818;stroke-width:1.0;"/><rect fill="#EB6A28" height="36.2969" rx="12.5" ry="12.5" style="stroke:#181818;stroke-width:1.5;" width="176" x="303" y="104.4453"/><text fill="#000000" font-family="sans-serif" font-size="14" lengthAdjust="spacing" textLength="152" x="313" y="127.4404">Constrained Systems</text><text fill="#000000" font-family="sans-serif" font-size="14" lengthAdjust="spacing" textLength="166" x="84" y="99.9951">IoT (Internet of Things)</text><path d="M303,122.5938 L293,122.5938 C278,122.5938 278,95.1484 263,95.1484 L253,95.1484 " fill="none" style="stroke:#181818;stroke-width:1.0;"/><text fill="#000000" font-family="sans-serif" font-size="14" lengthAdjust="spacing" textLength="240" x="10" y="118.292">IIoT (Industrial Internet of Things)</text><path d="M303,122.5938 L293,122.5938 C278,122.5938 278,113.4453 263,113.4453 L253,113.4453 " fill="none" style="stroke:#181818;stroke-width:1.0;"/><text fill="#000000" font-family="sans-serif" font-size="14" lengthAdjust="spacing" textLength="182" x="68" y="136.5889">Security-related Systems</text><path d="M303,122.5938 L293,122.5938 C278,122.5938 278,131.7422 263,131.7422 L253,131.7422 " fill="none" style="stroke:#181818;stroke-width:1.0;"/><text fill="#000000" font-family="sans-serif" font-size="14" lengthAdjust="spacing" textLength="138" x="112" y="154.8857">Space Applications</text><path d="M303,122.5938 L293,122.5938 C278,122.5938 278,150.0391 263,150.0391 L253,150.0391 " fill="none" style="stroke:#181818;stroke-width:1.0;"/><path d="M529,122.5938 L519,122.5938 C504,122.5938 504,122.5938 489,122.5938 L479,122.5938 " fill="none" style="stroke:#181818;stroke-width:1.0;"/><rect fill="#B02B56" height="36.2969" rx="12.5" ry="12.5" style="stroke:#181818;stroke-width:1.5;" width="198" x="281" y="169.1875"/><text fill="#000000" font-family="sans-serif" font-size="14" lengthAdjust="spacing" textLength="174" x="291" y="192.1826">Real-Time Programming</text><text fill="#000000" font-family="sans-serif" font-size="14" lengthAdjust="spacing" textLength="215" x="13" y="173.8857">Real-Time Operating Systems</text><path d="M281,187.3359 L271,187.3359 C256,187.3359 256,169.0391 241,169.0391 L231,169.0391 " fill="none" style="stroke:#181818;stroke-width:1.0;"/><text fill="#000000" font-family="sans-serif" font-size="14" lengthAdjust="spacing" textLength="185" x="43" y="192.1826">Communication Protocols</text><path d="M281,187.3359 L271,187.3359 C256,187.3359 256,187.3359 241,187.3359 L231,187.3359 " fill="none" style="stroke:#181818;stroke-width:1.0;"/><text fill="#000000" font-family="sans-serif" font-size="14" lengthAdjust="spacing" textLength="193" x="35" y="210.4795">Deterministic Applications</text><path d="M281,187.3359 L271,187.3359 C256,187.3359 256,205.6328 241,205.6328 L231,205.6328 " fill="none" style="stroke:#181818;stroke-width:1.0;"/><path d="M529,122.5938 L519,122.5938 C504,122.5938 504,187.3359 489,187.3359 L479,187.3359 " fill="none" style="stroke:#181818;stroke-width:1.0;"/><!--SRC=[VLHHRzem47xFhpXfBu14no90ROMgji2sLg2YXdOlaoh7EO9LnuviXogQ-jzt9Z6ZbTXRSlVvkxllFllQEcPS8LHMi3AA9jRL4g-YDZ0JB3UiW3yHm5afrEl-2-2MyTVSw4fbKosrWIyP6sSNd7Bl0Vd2f3k5vdmKZuQVqV4f-EqWJaVZ0AzHIlrs2hiPyU5W4B2vGLIde8F1HJnY0PhA2l-376Nd0QaDK_b9BAPZ5ZVOzsZojTKpwi6TscXdj1BSmcy5SvKBXMXWlaDJkwrGEKmcNekhgwZNWwakoifHFk425SSswONQ0teli6ISZY4ia1b5vvleZ3aM3ZMH6vbh8zosi9xueKJ3dD2AILWZtohgEw-Xyx3kKet0_QZJoZf8zCQzCTCI9SWh8ggRlpkL4SJKC3mRUEAvH1u6d4psqWUsVocO2iChuMoRA5BCCimWgQt3eet-4WObMkj5A2ewjU_NrsXX1_KQrHfBX68hexrfYuCYIvsXxC-Cs94PPhX3gSi2bMk7sbF2WuBfLfIHn8q3Ap8_SXXHa5GtPIdRHlnutYwXu15ggXNDAJ-ECwrJDFtLjhP4y2b7Ecj7YZKhLqJ3QB237bIfiTkXbbv3vqwHCHGwq1jOU-VORfjjquT-JYB3AlkaD7EV5v2KZ1ntFBBlxn6PxAz5WSSI7_aoFfZd06pDHh2FYXplrRCvpRLiapEadebQM1BcOnFNICzIUAjMaYdtj5m0NI3hURwTnOEOp9YYOt7dIRqg_QQ0qqKI4i5HFzseysEr0AihG_DbmgkKLfwx6zsp7OF7IddS9VY_pdhPXMGUWcIwdI0Jxwrp_xniGF1JkwJKRWyU3_ktWcuD6ke9dfVH33UieeTmhhZEI8PBU5f_xvz72zffnN8gX2gQqlD1zuXooLy0]--></g></svg>