<?xml version="1.0" encoding="us-ascii" standalone="no"?><svg xmlns="http://www.w3.org/2000/svg" xmlns:xlink="http://www.w3.org/1999/xlink" contentStyleType="text/css" height="356px" preserveAspectRatio="none" style="width:394px;height:356px;background:#000000;" version="1.1" viewBox="0 0 394 356" width="394px" zoomAndPan="magnify"><defs/><g><rect fill="#000000" height="145.6641" style="stroke:#E7E7E7;stroke-width:1.0;" width="10" x="93.5" y="112.4297"/><rect fill="#000000" height="87.3984" style="stroke:#E7E7E7;stroke-width:1.0;" width="10" x="235.5" y="141.5625"/><rect fill="#000000" height="29.1328" style="stroke:#E7E7E7;stroke-width:1.0;" width="10" x="341" y="170.6953"/><line style="stroke:#E7E7E7;stroke-width:0.5;stroke-dasharray:5.0,5.0;" x1="23" x2="23" y1="81.2969" y2="276.0938"/><line style="stroke:#E7E7E7;stroke-width:0.5;stroke-dasharray:5.0,5.0;" x1="98.5" x2="98.5" y1="81.2969" y2="276.0938"/><line style="stroke:#E7E7E7;stroke-width:0.5;stroke-dasharray:5.0,5.0;" x1="240" x2="240" y1="81.2969" y2="276.0938"/><line style="stroke:#E7E7E7;stroke-width:0.5;stroke-dasharray:5.0,5.0;" x1="346" x2="346" y1="81.2969" y2="276.0938"/><text fill="#FFFFFF" font-family="sans-serif" font-size="14" lengthAdjust="spacing" textLength="31" x="5" y="77.9951">User</text><ellipse cx="23.5" cy="13.5" fill="#1C1C1C" rx="8" ry="8" style="stroke:#E7E7E7;stroke-width:0.5;"/><path d="M23.5,21.5 L23.5,48.5 M10.5,29.5 L36.5,29.5 M23.5,48.5 L10.5,63.5 M23.5,48.5 L36.5,63.5 " fill="none" style="stroke:#E7E7E7;stroke-width:0.5;"/><text fill="#FFFFFF" font-family="sans-serif" font-size="14" lengthAdjust="spacing" textLength="31" x="5" y="288.0889">User</text><ellipse cx="23.5" cy="299.8906" fill="#1C1C1C" rx="8" ry="8" style="stroke:#E7E7E7;stroke-width:0.5;"/><path d="M23.5,307.8906 L23.5,334.8906 M10.5,315.8906 L36.5,315.8906 M23.5,334.8906 L10.5,349.8906 M23.5,334.8906 L36.5,349.8906 " fill="none" style="stroke:#E7E7E7;stroke-width:0.5;"/><rect fill="#1C1C1C" height="30.2969" rx="2.5" ry="2.5" style="stroke:#E7E7E7;stroke-width:0.5;" width="86" x="55.5" y="50"/><text fill="#FFFFFF" font-family="sans-serif" font-size="14" lengthAdjust="spacing" textLength="72" x="62.5" y="69.9951">First Class</text><rect fill="#1C1C1C" height="30.2969" rx="2.5" ry="2.5" style="stroke:#E7E7E7;stroke-width:0.5;" width="86" x="55.5" y="275.0938"/><text fill="#FFFFFF" font-family="sans-serif" font-size="14" lengthAdjust="spacing" textLength="72" x="62.5" y="295.0889">First Class</text><rect fill="#1C1C1C" height="30.2969" rx="2.5" ry="2.5" style="stroke:#E7E7E7;stroke-width:0.5;" width="107" x="187" y="50"/><text fill="#FFFFFF" font-family="sans-serif" font-size="14" lengthAdjust="spacing" textLength="93" x="194" y="69.9951">Second Class</text><rect fill="#1C1C1C" height="30.2969" rx="2.5" ry="2.5" style="stroke:#E7E7E7;stroke-width:0.5;" width="107" x="187" y="275.0938"/><text fill="#FFFFFF" font-family="sans-serif" font-size="14" lengthAdjust="spacing" textLength="93" x="194" y="295.0889">Second Class</text><rect fill="#1C1C1C" height="30.2969" rx="2.5" ry="2.5" style="stroke:#E7E7E7;stroke-width:0.5;" width="84" x="304" y="50"/><text fill="#FFFFFF" font-family="sans-serif" font-size="14" lengthAdjust="spacing" textLength="70" x="311" y="69.9951">Last Class</text><rect fill="#1C1C1C" height="30.2969" rx="2.5" ry="2.5" style="stroke:#E7E7E7;stroke-width:0.5;" width="84" x="304" y="275.0938"/><text fill="#FFFFFF" font-family="sans-serif" font-size="14" lengthAdjust="spacing" textLength="70" x="311" y="295.0889">Last Class</text><rect fill="#000000" height="145.6641" style="stroke:#E7E7E7;stroke-width:1.0;" width="10" x="93.5" y="112.4297"/><rect fill="#000000" height="87.3984" style="stroke:#E7E7E7;stroke-width:1.0;" width="10" x="235.5" y="141.5625"/><rect fill="#000000" height="29.1328" style="stroke:#E7E7E7;stroke-width:1.0;" width="10" x="341" y="170.6953"/><polygon fill="#E7E7E7" points="81.5,108.4297,91.5,112.4297,81.5,116.4297,85.5,112.4297" style="stroke:#E7E7E7;stroke-width:1.0;"/><line style="stroke:#E7E7E7;stroke-width:1.0;" x1="23.5" x2="87.5" y1="112.4297" y2="112.4297"/><text fill="#FFFFFF" font-family="sans-serif" font-size="13" lengthAdjust="spacing" textLength="51" x="30.5" y="107.3638">DoWork</text><polygon fill="#E7E7E7" points="223.5,137.5625,233.5,141.5625,223.5,145.5625,227.5,141.5625" style="stroke:#E7E7E7;stroke-width:1.0;"/><line style="stroke:#E7E7E7;stroke-width:1.0;" x1="103.5" x2="229.5" y1="141.5625" y2="141.5625"/><text fill="#FFFFFF" font-family="sans-serif" font-size="13" lengthAdjust="spacing" textLength="100" x="110.5" y="136.4966">Create Request</text><polygon fill="#E7E7E7" points="329,166.6953,339,170.6953,329,174.6953,333,170.6953" style="stroke:#E7E7E7;stroke-width:1.0;"/><line style="stroke:#E7E7E7;stroke-width:1.0;" x1="245.5" x2="335" y1="170.6953" y2="170.6953"/><text fill="#FFFFFF" font-family="sans-serif" font-size="13" lengthAdjust="spacing" textLength="51" x="252.5" y="165.6294">DoWork</text><polygon fill="#E7E7E7" points="256.5,195.8281,246.5,199.8281,256.5,203.8281,252.5,199.8281" style="stroke:#E7E7E7;stroke-width:1.0;"/><line style="stroke:#E7E7E7;stroke-width:1.0;stroke-dasharray:2.0,2.0;" x1="250.5" x2="345" y1="199.8281" y2="199.8281"/><text fill="#FFFFFF" font-family="sans-serif" font-size="13" lengthAdjust="spacing" textLength="67" x="262.5" y="194.7622">WorkDone</text><line style="stroke:#C7C7C7;stroke-width:2.0;" x1="337" x2="355" y1="190.8281" y2="208.8281"/><line style="stroke:#C7C7C7;stroke-width:2.0;" x1="337" x2="355" y1="208.8281" y2="190.8281"/><polygon fill="#E7E7E7" points="114.5,224.9609,104.5,228.9609,114.5,232.9609,110.5,228.9609" style="stroke:#E7E7E7;stroke-width:1.0;"/><line style="stroke:#E7E7E7;stroke-width:1.0;stroke-dasharray:2.0,2.0;" x1="108.5" x2="239.5" y1="228.9609" y2="228.9609"/><text fill="#FFFFFF" font-family="sans-serif" font-size="13" lengthAdjust="spacing" textLength="108" x="120.5" y="223.895">Request Created</text><polygon fill="#E7E7E7" points="34.5,254.0938,24.5,258.0938,34.5,262.0938,30.5,258.0938" style="stroke:#E7E7E7;stroke-width:1.0;"/><line style="stroke:#E7E7E7;stroke-width:1.0;stroke-dasharray:2.0,2.0;" x1="28.5" x2="97.5" y1="258.0938" y2="258.0938"/><text fill="#FFFFFF" font-family="sans-serif" font-size="13" lengthAdjust="spacing" textLength="34" x="40.5" y="253.0278">Done</text><!--SRC=[POv1Ri9034NtFeN5dWjaKIapKLUig2hMLkB223AczX34xHcd28YwzVl_FzinvJCfZJXAblwWCZ8gJwp6O4ze1nhacl8UV-XK2L1VHF7RMA4cIkhJcNB1rMTIAnXFPBP2CcoN-8jxoSCR3qk-eKKx0hW2rn_ODjZ9JlJewZHHuReDhQFGO5JsovP_Bspb5Ga0mIFnVpj2nFLVsq4dcM6ePPMRUyCCg_Mn-L0CDVE-tiunVz8DyyJhlpi0]--></g></svg>