<?xml version="1.0" standalone="no"?>
<!DOCTYPE svg PUBLIC "-//W3C//DTD SVG 1.1//EN" "http://www.w3.org/Graphics/SVG/1.1/DTD/svg11.dtd">
<!-- Created with WaveDrom -->
<svg xmlns="http://www.w3.org/2000/svg" xmlns:xlink="http://www.w3.org/1999/xlink" width="500" height="120" viewBox="0 0 500 120" class="WaveDrom"><g transform="translate(0.5,0.5)" text-anchor="middle" font-size="14" font-family="sans-serif" font-weight="normal"><g transform="translate(4,21)"><g stroke="black" stroke-width="1" stroke-linecap="round"><line x2="491"/><line y2="53"/><line x2="491" y1="53" y2="53"/><line x1="491" x2="491" y2="53"/><line x1="436" x2="436" y2="6"/><line x1="436" x2="436" y1="53" y2="47"/><line x1="382" x2="382" y2="53"/><line x1="327" x2="327" y2="6"/><line x1="327" x2="327" y1="53" y2="47"/><line x1="273" x2="273" y2="6"/><line x1="273" x2="273" y1="53" y2="47"/><line x1="218" x2="218" y2="6"/><line x1="218" x2="218" y1="53" y2="47"/><line x1="164" x2="164" y2="6"/><line x1="164" x2="164" y1="53" y2="47"/><line x1="109" x2="109" y2="53"/><line x1="55" x2="55" y2="6"/><line x1="55" x2="55" y1="53" y2="47"/></g><g><g><rect x="382" width="109" height="53" field="Machine Nbr" style="fill-opacity:0.1"/><rect x="109" width="273" height="53" field="Sequence Nbr" style="fill-opacity:0.1;fill:hsl(0,100%,50%)"/><rect width="109" height="53" field="Type" style="fill-opacity:0.1;fill:hsl(80,100%,50%)"/></g><g transform="translate(27,-11)"><g transform="translate(436)"><text y="6">0</text></g><g transform="translate(382)"><text y="6">1</text></g><g transform="translate(327)"><text y="6">2</text></g><g transform="translate(109)"><text y="6">6</text></g><g transform="translate(55)"><text y="6">7</text></g><g transform="translate(0)"><text y="6">8</text></g></g><g transform="translate(27,26)"><g transform="translate(409)"><text y="6"><tspan>Machine Nbr</tspan></text></g><g transform="translate(218)"><text y="6"><tspan>Sequence Nbr</tspan></text></g><g transform="translate(27)"><text y="6"><tspan>Type</tspan></text></g></g><g transform="translate(27,61)"><g><g transform="translate(409)"><text y="6"><tspan>Sequentialnumber</tspan></text></g><g transform="translate(409,14)"><text y="6"><tspan>01 - first ...</tspan></text></g><g transform="translate(409,28)"><text y="6"><tspan>02 - second ...</tspan></text></g></g><g transform="translate(218)"><text y="6"><tspan>Continuous Number</tspan></text></g><g transform="translate(27)"><text y="6"><tspan>02 = Type 2</tspan></text></g></g></g></g></g></svg>