<?xml version="1.0" standalone="no"?>
<!DOCTYPE svg PUBLIC "-//W3C//DTD SVG 1.1//EN" "http://www.w3.org/Graphics/SVG/1.1/DTD/svg11.dtd">
<!-- Created with WaveDrom -->
<svg xmlns="http://www.w3.org/2000/svg" xmlns:xlink="http://www.w3.org/1999/xlink" id="svgcontent_0" viewBox="0 0 161 257" width="161" height="257" class="WaveDrom"><style>.pinname {font-size:12px; font-style:normal; font-variant:normal; font-weight:500; font-stretch:normal; text-align:center; text-anchor:end; font-family:Helvetica} .wirename {font-size:12px; font-style:normal; font-variant:normal; font-weight:500; font-stretch:normal; text-align:center; text-anchor:start; font-family:Helvetica} .wirename:hover {fill:blue} .gate {color:#000; fill:#ffc; fill-opacity: 1;stroke:#000; stroke-width:1; stroke-opacity:1} .gate:hover {fill:red !important; } .wire {fill:none; stroke:#000; stroke-width:1; stroke-opacity:1} .grid {fill:#fff; fill-opacity:1; stroke:none}</style><g transform="translate(0.5, 0.5)"><g><g><g><g transform="translate(16,0)"><path d="M96,16 96,16" class="wire"/></g><g><path d="m96,16 16,0" class="wire"/></g><g transform="translate(128,16)"><title><tspan>b3</tspan></title><text x="-14" y="4" class="wirename"><tspan>b3</tspan></text></g></g><g><g transform="translate(96,16)"><title><tspan>g3</tspan></title><path d="M 2,0 a 2,2 0 1 1 -4,0 2,2 0 1 1 4,0 z"/><text x="-4" y="4" class="pinname"><tspan>g3</tspan></text></g></g></g><g><g><g transform="translate(16,0)"><path d="M96,32 96,32" class="wire"/></g><g><path d="m96,32 16,0" class="wire"/></g><g transform="translate(128,32)"><title><tspan>a</tspan></title><text x="-14" y="4" class="wirename"><tspan>a</tspan></text></g></g><g><g><g transform="translate(16,0)"><path d="M64,32 64,32" class="wire"/></g><g><path d="m64,32 16,0" class="wire"/></g><g transform="translate(96,32)"><title><tspan>=</tspan></title><path class="gate" d="M -11,-6 -11,6 0,0 z m -5,6 5,0"/></g></g><g><g transform="translate(64,32)"><title><tspan>a</tspan></title><path d="M 2,0 a 2,2 0 1 1 -4,0 2,2 0 1 1 4,0 z"/><text x="-4" y="4" class="pinname"><tspan>a</tspan></text></g></g></g></g><g><g><g transform="translate(16,0)"><path d="M96,48 96,48" class="wire"/></g><g><path d="m96,48 16,0" class="wire"/></g><g transform="translate(128,48)"><title><tspan text-decoration="overline">a</tspan></title><text x="-14" y="4" class="wirename"><tspan text-decoration="overline">a</tspan></text></g></g><g><g><g transform="translate(16,0)"><path d="M64,48 64,48" class="wire"/></g><g><path d="m64,48 16,0" class="wire"/></g><g transform="translate(96,48)"><title><tspan>~</tspan></title><path class="gate" d="M -11,-6 -11,6 0,0 z m -5,6 5,0M 4,0 C 4,1.1 3.1,2 2,2 0.9,2 0,1.1 0,0 c 0,-1.1 0.9,-2 2,-2 1.1,0 2,0.9 2,2 z"/></g></g><g><g transform="translate(64,48)"><title><tspan>a</tspan></title><path d="M 2,0 a 2,2 0 1 1 -4,0 2,2 0 1 1 4,0 z"/><text x="-4" y="4" class="pinname"><tspan>a</tspan></text></g></g></g></g><g><g><g transform="translate(16,0)"><path d="M96,72 96,72" class="wire"/></g><g><path d="m96,72 16,0" class="wire"/></g><g transform="translate(128,72)"><title><tspan>and</tspan></title><path class="gate" d="m -16,-10 5,0 c 6,0 11,4 11,10 0,6 -5,10 -11,10 l -5,0 z"/></g></g><g><g><g transform="translate(16,0)"><path d="M64,64 64,80" class="wire"/></g><g><path d="m64,64 16,0" class="wire"/></g><g><path d="m64,80 16,0" class="wire"/></g><g transform="translate(96,72)"><title><tspan>&amp;</tspan></title><path class="gate" d="m -16,-10 5,0 c 6,0 11,4 11,10 0,6 -5,10 -11,10 l -5,0 z"/></g></g><g><g transform="translate(64,64)"><title><tspan>a</tspan></title><path d="M 2,0 a 2,2 0 1 1 -4,0 2,2 0 1 1 4,0 z"/><text x="-4" y="4" class="pinname"><tspan>a</tspan></text></g></g><g><g transform="translate(64,80)"><title><tspan>b</tspan></title><path d="M 2,0 a 2,2 0 1 1 -4,0 2,2 0 1 1 4,0 z"/><text x="-4" y="4" class="pinname"><tspan>b</tspan></text></g></g></g></g><g><g><g transform="translate(16,0)"><path d="M96,104 96,104" class="wire"/></g><g><path d="m96,104 16,0" class="wire"/></g><g transform="translate(128,104)"><title><tspan>nand</tspan></title><text x="-14" y="4" class="wirename"><tspan>nand</tspan></text></g></g><g><g><g transform="translate(16,0)"><path d="M64,96 64,112" class="wire"/></g><g><path d="m64,96 16,0" class="wire"/></g><g><path d="m64,112 16,0" class="wire"/></g><g transform="translate(96,104)"><title><tspan>~&amp;</tspan></title><path class="gate" d="m -16,-10 5,0 c 6,0 11,4 11,10 0,6 -5,10 -11,10 l -5,0 zM 4,0 C 4,1.1 3.1,2 2,2 0.9,2 0,1.1 0,0 c 0,-1.1 0.9,-2 2,-2 1.1,0 2,0.9 2,2 z"/></g></g><g><g transform="translate(64,96)"><title><tspan>a</tspan></title><path d="M 2,0 a 2,2 0 1 1 -4,0 2,2 0 1 1 4,0 z"/><text x="-4" y="4" class="pinname"><tspan>a</tspan></text></g></g><g><g transform="translate(64,112)"><title><tspan>b</tspan></title><path d="M 2,0 a 2,2 0 1 1 -4,0 2,2 0 1 1 4,0 z"/><text x="-4" y="4" class="pinname"><tspan>b</tspan></text></g></g></g></g><g><g><g transform="translate(16,0)"><path d="M96,136 96,136" class="wire"/></g><g><path d="m96,136 16,0" class="wire"/></g><g transform="translate(128,136)"><title><tspan>or</tspan></title><path class="gate" d="m -18,-10 4,0 c 6,0 12,5 14,10 -2,5 -8,10 -14,10 l -4,0 c 2.5,-5 2.5,-15 0,-20 z"/></g></g><g><g><g transform="translate(16,0)"><path d="M64,128 64,144" class="wire"/></g><g><path d="m64,128 16,0" class="wire"/></g><g><path d="m64,144 16,0" class="wire"/></g><g transform="translate(96,136)"><title><tspan>|</tspan></title><path class="gate" d="m -18,-10 4,0 c 6,0 12,5 14,10 -2,5 -8,10 -14,10 l -4,0 c 2.5,-5 2.5,-15 0,-20 z"/></g></g><g><g transform="translate(64,128)"><title><tspan>a</tspan></title><path d="M 2,0 a 2,2 0 1 1 -4,0 2,2 0 1 1 4,0 z"/><text x="-4" y="4" class="pinname"><tspan>a</tspan></text></g></g><g><g transform="translate(64,144)"><title><tspan>b</tspan></title><path d="M 2,0 a 2,2 0 1 1 -4,0 2,2 0 1 1 4,0 z"/><text x="-4" y="4" class="pinname"><tspan>b</tspan></text></g></g></g></g><g><g><g transform="translate(16,0)"><path d="M96,168 96,168" class="wire"/></g><g><path d="m96,168 16,0" class="wire"/></g><g transform="translate(128,168)"><title><tspan>nor</tspan></title><text x="-14" y="4" class="wirename"><tspan>nor</tspan></text></g></g><g><g><g transform="translate(16,0)"><path d="M64,160 64,176" class="wire"/></g><g><path d="m64,160 16,0" class="wire"/></g><g><path d="m64,176 16,0" class="wire"/></g><g transform="translate(96,168)"><title><tspan>~|</tspan></title><path class="gate" d="m -18,-10 4,0 c 6,0 12,5 14,10 -2,5 -8,10 -14,10 l -4,0 c 2.5,-5 2.5,-15 0,-20 zM 4,0 C 4,1.1 3.1,2 2,2 0.9,2 0,1.1 0,0 c 0,-1.1 0.9,-2 2,-2 1.1,0 2,0.9 2,2 z"/></g></g><g><g transform="translate(64,160)"><title><tspan>a</tspan></title><path d="M 2,0 a 2,2 0 1 1 -4,0 2,2 0 1 1 4,0 z"/><text x="-4" y="4" class="pinname"><tspan>a</tspan></text></g></g><g><g transform="translate(64,176)"><title><tspan>b</tspan></title><path d="M 2,0 a 2,2 0 1 1 -4,0 2,2 0 1 1 4,0 z"/><text x="-4" y="4" class="pinname"><tspan>b</tspan></text></g></g></g></g><g><g><g transform="translate(16,0)"><path d="M96,200 96,200" class="wire"/></g><g><path d="m96,200 16,0" class="wire"/></g><g transform="translate(128,200)"><title><tspan>xor</tspan></title><path class="gate" d="m -21,-10 c 1,3 2,6 2,10 m 0,0 c 0,4 -1,7 -2,10 m 3,-20 4,0 c 6,0 12,5 14,10 -2,5 -8,10 -14,10 l -4,0 c 1,-3 2,-6 2,-10 0,-4 -1,-7 -2,-10 z"/></g></g><g><g><g transform="translate(16,0)"><path d="M64,192 64,208" class="wire"/></g><g><path d="m64,192 16,0" class="wire"/></g><g><path d="m64,208 16,0" class="wire"/></g><g transform="translate(96,200)"><title><tspan>^</tspan></title><path class="gate" d="m -21,-10 c 1,3 2,6 2,10 m 0,0 c 0,4 -1,7 -2,10 m 3,-20 4,0 c 6,0 12,5 14,10 -2,5 -8,10 -14,10 l -4,0 c 1,-3 2,-6 2,-10 0,-4 -1,-7 -2,-10 z"/></g></g><g><g transform="translate(64,192)"><title><tspan>a</tspan></title><path d="M 2,0 a 2,2 0 1 1 -4,0 2,2 0 1 1 4,0 z"/><text x="-4" y="4" class="pinname"><tspan>a</tspan></text></g></g><g><g transform="translate(64,208)"><title><tspan>b</tspan></title><path d="M 2,0 a 2,2 0 1 1 -4,0 2,2 0 1 1 4,0 z"/><text x="-4" y="4" class="pinname"><tspan>b</tspan></text></g></g></g></g><g><g><g transform="translate(16,0)"><path d="M96,232 96,232" class="wire"/></g><g><path d="m96,232 16,0" class="wire"/></g><g transform="translate(128,232)"><title><tspan>nxor</tspan></title><text x="-14" y="4" class="wirename"><tspan>nxor</tspan></text></g></g><g><g><g transform="translate(16,0)"><path d="M64,224 64,240" class="wire"/></g><g><path d="m64,224 16,0" class="wire"/></g><g><path d="m64,240 16,0" class="wire"/></g><g transform="translate(96,232)"><title><tspan>~^</tspan></title><path class="gate" d="m -21,-10 c 1,3 2,6 2,10 m 0,0 c 0,4 -1,7 -2,10 m 3,-20 4,0 c 6,0 12,5 14,10 -2,5 -8,10 -14,10 l -4,0 c 1,-3 2,-6 2,-10 0,-4 -1,-7 -2,-10 zM 4,0 C 4,1.1 3.1,2 2,2 0.9,2 0,1.1 0,0 c 0,-1.1 0.9,-2 2,-2 1.1,0 2,0.9 2,2 z"/></g></g><g><g transform="translate(64,224)"><title><tspan>a</tspan></title><path d="M 2,0 a 2,2 0 1 1 -4,0 2,2 0 1 1 4,0 z"/><text x="-4" y="4" class="pinname"><tspan>a</tspan></text></g></g><g><g transform="translate(64,240)"><title><tspan>b</tspan></title><path d="M 2,0 a 2,2 0 1 1 -4,0 2,2 0 1 1 4,0 z"/><text x="-4" y="4" class="pinname"><tspan>b</tspan></text></g></g></g></g></g></g></svg>