<?xml version="1.0" standalone="no"?>
<!DOCTYPE svg PUBLIC "-//W3C//DTD SVG 1.1//EN" "http://www.w3.org/Graphics/SVG/1.1/DTD/svg11.dtd">
<!-- Created with WaveDrom -->
<svg xmlns="http://www.w3.org/2000/svg" xmlns:xlink="http://www.w3.org/1999/xlink" width="750" height="149" viewBox="0 0 750 149" class="WaveDrom"><g transform="translate(0.5,0.5)" text-anchor="middle" font-size="14" font-family="sans-serif" font-weight="normal"><g transform="translate(4,114)"><g stroke="black" stroke-width="1" stroke-linecap="round"><line x2="741"/><line y2="31"/><line x2="741" y1="31" y2="31"/><line x1="741" x2="741" y2="31"/><line x1="648" x2="648" y2="3"/><line x1="648" x2="648" y1="31" y2="28"/><line x1="556" x2="556" y2="3"/><line x1="556" x2="556" y1="31" y2="28"/><line x1="463" x2="463" y2="3"/><line x1="463" x2="463" y1="31" y2="28"/><line x1="371" x2="371" y2="3"/><line x1="371" x2="371" y1="31" y2="28"/><line x1="278" x2="278" y2="3"/><line x1="278" x2="278" y1="31" y2="28"/><line x1="185" x2="185" y2="3"/><line x1="185" x2="185" y1="31" y2="28"/><line x1="93" x2="93" y2="3"/><line x1="93" x2="93" y1="31" y2="28"/></g><g><g><rect width="741" height="31" field="lanes" style="fill-opacity:0.1"/></g><g transform="translate(46,-11)"/><g transform="translate(46,15)"><g transform="translate(324)"><text y="6"><tspan>lanes</tspan></text></g></g><g transform="translate(46,39)"/></g></g><g transform="translate(4,83)"><g stroke="black" stroke-width="1" stroke-linecap="round"><line x2="741"/><line y2="31"/><line x2="741" y1="31" y2="31"/><line x1="741" x2="741" y2="31"/><line x1="648" x2="648" y2="3"/><line x1="648" x2="648" y1="31" y2="28"/><line x1="556" x2="556" y2="3"/><line x1="556" x2="556" y1="31" y2="28"/><line x1="463" x2="463" y2="3"/><line x1="463" x2="463" y1="31" y2="28"/><line x1="371" x2="371" y2="3"/><line x1="371" x2="371" y1="31" y2="28"/><line x1="278" x2="278" y2="3"/><line x1="278" x2="278" y1="31" y2="28"/><line x1="185" x2="185" y2="3"/><line x1="185" x2="185" y1="31" y2="28"/><line x1="93" x2="93" y2="3"/><line x1="93" x2="93" y1="31" y2="28"/></g><g><g><rect width="741" height="31" field="register" style="fill-opacity:0.1;fill:hsl(0,100%,50%)"/></g><g transform="translate(46,-11)"/><g transform="translate(46,15)"><g transform="translate(324)"><text y="6"><tspan>register</tspan></text></g></g><g transform="translate(46,39)"/></g></g><g transform="translate(4,52)"><g stroke="black" stroke-width="1" stroke-linecap="round"><line x2="741"/><line y2="31"/><line x2="741" y1="31" y2="31"/><line x1="741" x2="741" y2="31"/><line x1="648" x2="648" y2="3"/><line x1="648" x2="648" y1="31" y2="28"/><line x1="556" x2="556" y2="3"/><line x1="556" x2="556" y1="31" y2="28"/><line x1="463" x2="463" y2="3"/><line x1="463" x2="463" y1="31" y2="28"/><line x1="371" x2="371" y2="3"/><line x1="371" x2="371" y1="31" y2="28"/><line x1="278" x2="278" y2="3"/><line x1="278" x2="278" y1="31" y2="28"/><line x1="185" x2="185" y2="3"/><line x1="185" x2="185" y1="31" y2="28"/><line x1="93" x2="93" y2="3"/><line x1="93" x2="93" y1="31" y2="28"/></g><g><g><rect width="741" height="31" field="compact" style="fill-opacity:0.1;fill:hsl(80,100%,50%)"/></g><g transform="translate(46,-11)"/><g transform="translate(46,15)"><g transform="translate(324)"><text y="6"><tspan>compact</tspan></text></g></g><g transform="translate(46,39)"/></g></g><g transform="translate(4,21)"><g stroke="black" stroke-width="1" stroke-linecap="round"><line x2="741"/><line y2="31"/><line x2="741" y1="31" y2="31"/><line x1="741" x2="741" y2="31"/><line x1="648" x2="648" y2="3"/><line x1="648" x2="648" y1="31" y2="28"/><line x1="556" x2="556" y2="3"/><line x1="556" x2="556" y1="31" y2="28"/><line x1="463" x2="463" y2="3"/><line x1="463" x2="463" y1="31" y2="28"/><line x1="371" x2="371" y2="3"/><line x1="371" x2="371" y1="31" y2="28"/><line x1="278" x2="278" y2="3"/><line x1="278" x2="278" y1="31" y2="28"/><line x1="185" x2="185" y2="3"/><line x1="185" x2="185" y1="31" y2="28"/><line x1="93" x2="93" y2="3"/><line x1="93" x2="93" y1="31" y2="28"/></g><g><g><rect width="741" height="31" field="register" style="fill-opacity:0.1;fill:hsl(170,100%,50%)"/></g><g transform="translate(46,-11)"/><g transform="translate(46,15)"><g transform="translate(324)"><text y="6"><tspan>register</tspan></text></g></g><g transform="translate(46,39)"/></g></g><g transform="translate(4,-3)"><g transform="translate(46,11)"><text y="6">7</text></g><g transform="translate(695,11)"><text y="6">0</text></g></g></g></svg>