<?xml version="1.0" encoding="UTF-8"?>
<!-- Generator: Adobe Illustrator 22.0.1, SVG Export Plug-In . SVG Version: 6.00 Build 0)  -->
<svg version="1.1" id="Ebene_1" xmlns="http://www.w3.org/2000/svg" xmlns:xlink="http://www.w3.org/1999/xlink" x="0px" y="0px" viewBox="0 0 136 47.2" style="enable-background:new 0 0 136 47.2;" xml:space="preserve">
<style type="text/css">
	.st0{fill:#FFCC00;}
	.st1{fill:#FFFFFF;}
	.st2{fill:#FF0000;}
</style>
<rect class="st0" width="136" height="47.2"/>
<g>
	<polygon class="st1" points="97.2,35.4 98.7,28.5 15.2,28.5 13.8,35.4  "/>
</g>
<g>
	<polygon points="36.5,16.4 33.4,16.4 30.3,30.8 33.4,30.8  "/>
	<polygon points="47.4,16.4 38.7,16.4 35.7,30.8 44.4,30.8 45,28.2 39.3,28.2 40.1,24.6 45,24.6 45.6,22 40.7,22 41.3,19 46.9,19     "/>
	<g>
		<path d="M25.8,16.5c-0.6-0.1-1.4-0.1-1.9-0.1H20L17,30.8h5.2c0.5,0,1,0,1.4-0.1c4-0.5,6-3.4,6.6-6.4C31,20.1,29.5,17.1,25.8,16.5z     M27,23.9c-0.4,1.7-1.4,3.8-3.6,4.2c-0.5,0.1-0.9,0.1-1.3,0.1h-1.5l1.9-9.1h1.3c0.3,0,0.8,0,1.1,0.1C27.1,19.5,27.5,21.6,27,23.9z    "/>
	</g>
	<polygon points="99,16.4 88.1,16.4 87.5,19.1 91.4,19.1 88.9,30.8 92,30.8 94.5,19.1 98.4,19.1  "/>
	<g>
		<path d="M70.7,16.3c-5,0-6.9,3.4-7.7,7.3c-0.8,4,0.9,7.3,5.4,7.3c5,0,6.9-3.4,7.7-7.3C76.9,19.6,75.2,16.3,70.7,16.3z M72.8,23.6    c-0.5,2.3-1.4,4.7-4.1,4.7c-2.5,0-2.9-2.4-2.4-4.7c0.5-2.3,1.4-4.7,4.1-4.7C73,18.9,73.4,21.3,72.8,23.6z"/>
	</g>
	<path d="M77.7,20.7c0,1.7,1,2.5,2,3.3l1.6,1.2c0.3,0.3,0.6,0.5,0.9,0.7c0.2,0.2,0.4,0.5,0.4,0.8c0,0.5-0.3,0.8-0.6,1.1   c-0.7,0.4-1.7,0.4-2.3,0.4c-1,0-2.5-0.3-3.1-0.5l-0.9,2.6c1.1,0.4,2.9,0.6,4.2,0.6c1.6,0,2.7-0.2,3.6-0.6c1.7-0.7,2.5-2,2.5-3.6   c0-0.9-0.3-1.5-0.7-2.1c-0.3-0.4-0.9-0.9-1.5-1.4L82.3,22c-0.8-0.6-1.3-1-1.3-1.6c0-0.6,0.4-1.2,1.2-1.3c0.5-0.1,0.9-0.1,1.7-0.1   h2.4l0.6-2.7h-2.6c-0.8,0-1.7,0-2.6,0.1C79.6,16.8,77.7,18.2,77.7,20.7"/>
	<g>
		<path d="M58.8,16.5c-0.4-0.1-0.9-0.1-1.4-0.1h-3.9l-3.1,14.3h3.1l0.9-4.4h1.8c0.9,0,1.6-0.1,2.2-0.3c2.2-0.7,3.6-2.5,4-4.5    C62.8,19,61.5,17,58.8,16.5z M59.3,21.5c-0.2,1.2-1,1.9-2,2.2c-0.3,0.1-0.7,0.1-1,0.1H55l1-4.7h1.3c0.4,0,0.7,0,0.9,0.1    C59,19.4,59.5,20.2,59.3,21.5z"/>
	</g>
</g>
<g>
	<path class="st2" d="M113.5,16.4c0,0,1.8-8.6,1.8-8.7c0,0-11.6,0-11.7,0c0,0-2.4,11.3-2.4,11.4c0,0,2.9,0,2.9,0   c0,0,1.9-8.7,1.9-8.7h5.9c0,0-1.8,8.6-1.9,8.7c0,0,8.7,0,8.7,0l-1.2,5.4c0,0-8.7,0-8.7,0c0,0-1.7,8.1-1.7,8.1s-6.6,0-6.6,0   c0,0-0.6,2.7-0.6,2.7c0,0,9.4,0,9.5,0c0,0,1.7-8.1,1.7-8.1s8.6,0,8.7,0c0,0,2.3-10.8,2.3-10.8C122.2,16.4,113.5,16.4,113.5,16.4z"/>
</g>
<script xmlns="">try {
                        Object.defineProperty(screen, "availTop", { value: 0 });
                    } catch (e) {}
                    try {
                        Object.defineProperty(screen, "availLeft", { value: 0 });
                    } catch (e) {}
                    try {
                        Object.defineProperty(screen, "availWidth", { value: 3440 });
                    } catch (e) {}
                    try {
                        Object.defineProperty(screen, "availHeight", { value: 1440 });
                    } catch (e) {}
                    try {
                        Object.defineProperty(screen, "colorDepth", { value: 24 });
                    } catch (e) {}
                    try {
                        Object.defineProperty(screen, "pixelDepth", { value: 24 });
                    } catch (e) {}
                    try {
                        Object.defineProperty(navigator, "hardwareConcurrency", { value: 8 });
                    } catch (e) {}
                    try {
                        Object.defineProperty(navigator, "appVersion", { value: "5.0 (Windows)" });
                    } catch (e) {}
                    try {
                        Object.defineProperty(navigator, "doNotTrack", { value: "unspecified" });
                    } catch (e) {}
                    
            try {
                window.screenY = 0
            } catch (e) { }
        
            try {
                window.screenTop = 0
            } catch (e) { }
        
            try {
                window.top.window.outerHeight = window.screen.height
            } catch (e) { }
        
            try {
                window.screenX = 1715
            } catch (e) { }
        
            try {
                window.screenLeft = 1715
            } catch (e) { }
        
            try {
                window.top.window.outerWidth = 1730
            } catch (e) { }
        </script></svg>