<?xml version="1.0" encoding="UTF-8" standalone="no"?>
<svg
   height="128"
   width="78"
   version="1.1"
   id="svg242"
   sodipodi:docname="purple-tentacle-2.svg"
   inkscape:version="1.2.2 (b0a84865, 2022-12-01)"
   xmlns:inkscape="http://www.inkscape.org/namespaces/inkscape"
   xmlns:sodipodi="http://sodipodi.sourceforge.net/DTD/sodipodi-0.dtd"
   xmlns="http://www.w3.org/2000/svg"
   xmlns:svg="http://www.w3.org/2000/svg">
  <defs
     id="defs246" />
  <sodipodi:namedview
     id="namedview244"
     pagecolor="#ffffff"
     bordercolor="#999999"
     borderopacity="1"
     inkscape:showpageshadow="0"
     inkscape:pageopacity="0"
     inkscape:pagecheckerboard="0"
     inkscape:deskcolor="#d1d1d1"
     showgrid="false"
     inkscape:zoom="1.84375"
     inkscape:cx="16.813559"
     inkscape:cy="64"
     inkscape:window-width="1309"
     inkscape:window-height="404"
     inkscape:window-x="0"
     inkscape:window-y="25"
     inkscape:window-maximized="0"
     inkscape:current-layer="svg242" />
  <g
     transform="matrix(-1.23991,0,0,1.23991,395.38941,-381.6965)"
     id="g240">
    <path
       d="m 291.3171,344.03134 c 11.83385,-0.96734 12.14841,-2.32409 11.99127,13.82523"
       fill="#ffffff"
       fill-rule="evenodd"
       stroke="#808080"
       stroke-width="2.01628"
       id="path182" />
    <path
       d="m 267.33458,396.93397 c -5.09329,-4.07902 -11.21728,1.25202 -10.43945,3.52684 2.63713,7.71241 36.85806,12.18106 49.6424,6.51012 5.10041,-2.26246 6.15818,-2.48441 10.17283,-5.38154 1.60564,-1.15869 -2.1161,-9.54195 -7.19476,-5.78402"
       fill="#02d53a"
       fill-rule="evenodd"
       stroke="#005c18"
       stroke-width="2.01628"
       id="path184" />
    <path
       d="m 275.37578,311.44333 c -8.96342,0.63537 -9.91499,4.62678 -7.61798,10.1573 1.61117,3.8792 -0.44046,72.88095 -3.52684,73.64045 14.46257,8.29818 27.90925,7.56921 43.87391,0.84644 4.72185,-18.02597 1.24962,-21.42045 -6.95528,-41.59129 -2.2063,-5.42394 -7.08508,-20.32256 -9.34466,-30.56667 l -3.98109,0.48611 c -5.999,-6.88826 -9.17289,-13.2045 -12.44806,-12.97234 z"
       fill="#9c4185"
       fill-rule="evenodd"
       stroke="#600680"
       stroke-linejoin="round"
       stroke-width="2.01628"
       id="path186" />
    <path
       d="m 309.93882,396.93397 c -7.23587,10.38035 -45.41009,7.83993 -47.24719,-1.83449 2.87802,-2.00312 11.29658,3.19192 23.67541,3.10468 14.85627,-0.10471 30.80766,-11.65054 23.57178,-1.27019 z"
       fill="#9c4185"
       fill-rule="evenodd"
       stroke="#600680"
       stroke-width="2.01628"
       id="path188" />
    <path
       d="m 281.30087,318.21487 c -4.15617,1.1285 -6.73701,1.52806 -13.96629,3.66791"
       fill="none"
       stroke="#000000"
       stroke-linecap="round"
       stroke-width="3.6293"
       id="path190" />
    <path
       d="m 289.76613,317.33937 c -0.0708,2.45709 0.20225,5.31711 -2.53775,5.50028 -3.88144,0.25947 -5.97631,-7.46765 -6.48778,-10.1557 -0.54615,-2.8703 0.53401,-4.66569 3.10201,-4.23062 6.13287,1.03904 5.45703,4.82777 5.92352,8.88604 z"
       fill="#ffffff"
       stroke="#808080"
       stroke-width="2.01628"
       id="path192" />
    <path
       d="m 285.25093,314.12372 a 0.28215,0.28215 0 1 1 -0.5643,0 0.28215,0.28215 0 1 1 0.5643,0 z"
       transform="matrix(4.082152,0,0,4.082152,-878.6698,-967.8244)"
       id="path194" />
    <path
       d="m 295.62703,334.67984 c -0.59998,1.82971 0.70418,3.07392 -3.66633,4.37169 -4.43404,1.31663 -6.8997,-5.40118 -6.76993,-7.19316 0.21103,-2.91417 2.07476,-3.32479 4.65382,-2.96095 4.53782,0.64018 5.24257,1.79333 5.78244,5.78242 z"
       fill="#600680"
       stroke="#600680"
       stroke-width="2.01628"
       id="path196" />
    <g
       transform="translate(-20.45568,1.692884)"
       id="g202">
      <path
         d="m 317.63452,331.43514 c -0.59998,1.82971 0.70418,3.07392 -3.66633,4.37169 -4.43404,1.31663 -6.8997,-5.40118 -6.76993,-7.19316 0.21103,-2.91417 2.07476,-3.32479 4.65382,-2.96095 4.53782,0.64018 5.24257,1.79333 5.78244,5.78242 z"
         fill="#02d53a"
         stroke="#005c18"
         stroke-width="2.01628"
         id="path198" />
      <path
         d="m 314.65138,331.04867 c -0.25714,0.78418 0.3018,1.31742 -1.57131,1.87362 -1.90034,0.56428 -2.95707,-2.31484 -2.90145,-3.08284 0.0904,-1.24895 0.88919,-1.42493 1.99453,-1.269 1.94481,0.27437 2.24686,0.76858 2.47823,2.47822 z"
         fill="#005c18"
         id="path200" />
    </g>
    <path
       d="m 305.64326,357.25162 c 1.33055,6.50813 -1.49261,8.25674 -4.3717,7.61639 -4.3625,-0.97028 -8.13134,-3.79563 -8.03959,-7.33424 0.14118,-5.44499 0.1811,-7.59291 4.2306,-8.18067 4.46664,-0.64831 7.07353,4.98416 8.18069,7.89852 z"
       fill="#600680"
       stroke="#600680"
       stroke-width="2.01628"
       id="path204" />
    <g
       transform="translate(-12.27341,9.310861)"
       id="g210">
      <path
         d="m 321.03739,347.16716 c 1.33055,6.50813 -1.49261,8.25674 -4.3717,7.61639 -4.3625,-0.97028 -8.13134,-3.79563 -8.03959,-7.33424 0.14118,-5.44499 0.1811,-7.59291 4.2306,-8.18067 4.46664,-0.64831 7.07353,4.98416 8.18069,7.89852 z"
         fill="#02d53a"
         stroke="#005c18"
         stroke-width="2.01628"
         id="path206" />
      <path
         d="m 317.71107,347.10929 c 0.59743,2.92223 -0.67021,3.70737 -1.96296,3.41985 -1.95881,-0.43567 -3.65107,-1.70428 -3.60987,-3.29316 0.0634,-2.44487 0.0813,-3.40931 1.89959,-3.67322 2.00558,-0.29111 3.17611,2.23794 3.67324,3.54653 z"
         fill="#005c18"
         id="path208" />
    </g>
    <path
       d="m 311.63008,385.08369 c -0.35018,6.64078 -2.80654,8.53927 -7.0521,9.02713 -4.84398,0.55662 -7.85002,-4.32185 -7.89852,-9.02713 -0.0572,-5.54834 1.62272,-9.50689 7.05208,-9.02711 4.76727,0.42128 8.50387,3.89282 7.89854,9.02711 z"
       fill="#600680"
       stroke="#600680"
       stroke-width="2.01628"
       id="path212" />
    <g
       transform="translate(-13.82522,13.68414)"
       id="g218">
      <path
         d="m 328.84106,369.28344 c -0.35018,6.64078 -2.80654,8.53927 -7.0521,9.02713 -4.84398,0.55662 -7.85002,-4.32185 -7.89852,-9.02713 -0.0572,-5.54834 1.62272,-9.50689 7.05208,-9.02711 4.76727,0.42128 8.50387,3.89282 7.89854,9.02711 z"
         fill="#02d53a"
         stroke="#005c18"
         stroke-width="2.01628"
         id="path214" />
      <path
         d="m 325.59872,369.28435 c -0.19765,3.74821 -1.58408,4.81976 -3.98037,5.09512 -2.73405,0.31417 -4.43073,-2.43935 -4.4581,-5.09512 -0.0323,-3.1316 0.9159,-5.3659 3.98035,-5.0951 2.69076,0.23778 4.79978,2.19719 4.45812,5.0951 z"
         fill="#005c18"
         id="path216" />
    </g>
    <g
       fill-rule="evenodd"
       stroke-width="2.01628"
       id="g232">
      <path
         d="m 280.87765,347.27604 c -0.1881,0 -0.1881,0 0,0 z"
         fill="#ffffff"
         stroke="#808080"
         id="path220" />
      <path
         d="m 265.21847,351.22611 c -1.22133,-0.99634 -0.63494,-6.81592 1.55181,-7.47691 2.18674,-0.661 13.01245,-0.74272 15.94133,1.41074 2.92888,2.15346 12.49796,40.89032 12.13234,50.50437 -7.09227,0.53174 -28.77104,-1.27625 -31.17729,-4.37328 -2.40624,-3.09703 2.92113,-30.42044 3.2447,-37.5256"
         fill="#ffffff"
         stroke="#808080"
         stroke-linecap="round"
         id="path222" />
      <path
         d="m 268.60424,361.9477 c -0.18917,0.5675 0.17243,10.0877 6.34832,9.87516 6.17589,-0.21254 3.54675,-10.50276 4.09114,-10.58053"
         fill="#9c4185"
         stroke="#600680"
         id="path224" />
      <path
         d="m 279.18476,359.40837 1e-5,4.51436 -10.58053,-0.28215 -0.28214,-2.25717"
         fill="#ffffff"
         stroke="#808080"
         id="path226" />
      <path
         d="m 269.59176,352.49577 c -1.31952,1.15169 -2.99837,2.71719 -2.11611,9.87515 3.5688,-4.31281 7.89126,-1.68399 11.8502,-2.68041 0.0304,-0.8041 -0.17443,-3.15539 1.41073,-4.51434"
         fill="#ffffff"
         stroke="#808080"
         stroke-linecap="round"
         stroke-linejoin="round"
         id="path228" />
      <path
         d="m 281.01872,348.5457 c 0.25789,0.89878 -0.0284,2.80018 0,4.09114 -4.37346,0.34426 -14.43784,0.57312 -15.65918,-0.42322"
         fill="#ffffff"
         stroke="#808080"
         stroke-linecap="round"
         id="path230" />
    </g>
    <path
       d="m 283.69913,325.26855 2.53932,-0.28214 c -0.60668,0.15167 2.58492,2.44361 4.79651,2.25718 2.21159,-0.18643 3.05339,-1.83396 3.10361,-1.83396 l 1.55182,-0.42323"
       fill="none"
       stroke="#000000"
       stroke-linecap="round"
       stroke-linejoin="round"
       stroke-width="2.90344"
       id="path234" />
    <path
       d="m 270.86142,379.44083 -0.14107,8.46442 c 4.36883,0.95924 7.1136,1.93532 13.82522,1.55181 l 0.14107,-10.1573 z"
       fill="#ffffff"
       fill-rule="evenodd"
       stroke="#808080"
       stroke-width="2.01628"
       id="path236" />
    <path
       d="m 270.72035,383.53197 13.68414,-0.14107 0.14108,-3.95007 -13.402,-0.14107 z"
       fill="#ffffff"
       fill-rule="evenodd"
       stroke="#808080"
       stroke-width="2.01628"
       id="path238" />
  </g>
</svg>
