<?xml version="1.0" encoding="UTF-8" standalone="no"?>
<!-- Generator: Adobe Illustrator 19.0.0, SVG Export Plug-In . SVG Version: 6.00 Build 0)  -->

<svg
   version="1.1"
   id="Capa_1"
   x="0px"
   y="0px"
   viewBox="0 0 2631.5055 799.99613"
   xml:space="preserve"
   sodipodi:docname="logo.svg"
   width="2631.5054"
   height="799.99609"
   inkscape:version="1.2.2 (b0a84865, 2022-12-01)"
   xmlns:inkscape="http://www.inkscape.org/namespaces/inkscape"
   xmlns:sodipodi="http://sodipodi.sourceforge.net/DTD/sodipodi-0.dtd"
   xmlns="http://www.w3.org/2000/svg"
   xmlns:svg="http://www.w3.org/2000/svg"
   xmlns:rdf="http://www.w3.org/1999/02/22-rdf-syntax-ns#"
   xmlns:cc="http://creativecommons.org/ns#"
   xmlns:dc="http://purl.org/dc/elements/1.1/"><metadata
   id="metadata91"><rdf:RDF><cc:Work
       rdf:about=""><dc:format>image/svg+xml</dc:format><dc:type
         rdf:resource="http://purl.org/dc/dcmitype/StillImage" /><dc:title /></cc:Work></rdf:RDF></metadata><defs
   id="defs89" /><sodipodi:namedview
   pagecolor="#ffffff"
   bordercolor="#666666"
   borderopacity="1"
   objecttolerance="10"
   gridtolerance="10"
   guidetolerance="10"
   inkscape:pageopacity="0"
   inkscape:pageshadow="2"
   inkscape:window-width="1800"
   inkscape:window-height="1069"
   id="namedview87"
   showgrid="false"
   fit-margin-top="0"
   fit-margin-left="0"
   fit-margin-right="0"
   fit-margin-bottom="0"
   inkscape:zoom="0.32309956"
   inkscape:cx="1211.7008"
   inkscape:cy="410.09031"
   inkscape:window-x="0"
   inkscape:window-y="44"
   inkscape:window-maximized="0"
   inkscape:current-layer="Capa_1"
   inkscape:showpageshadow="0"
   inkscape:pagecheckerboard="0"
   inkscape:deskcolor="#d1d1d1" />


<g
   id="g56"
   transform="translate(1181.8553,-508.92708)">
</g>
<g
   id="g58"
   transform="translate(1181.8553,-508.92708)">
</g>
<g
   id="g60"
   transform="translate(1181.8553,-508.92708)">
</g>
<g
   id="g62"
   transform="translate(1181.8553,-508.92708)">
</g>
<g
   id="g64"
   transform="translate(1181.8553,-508.92708)">
</g>
<g
   id="g66"
   transform="translate(1181.8553,-508.92708)">
</g>
<g
   id="g68"
   transform="translate(1181.8553,-508.92708)">
</g>
<g
   id="g70"
   transform="translate(1181.8553,-508.92708)">
</g>
<g
   id="g72"
   transform="translate(1181.8553,-508.92708)">
</g>
<g
   id="g74"
   transform="translate(1181.8553,-508.92708)">
</g>
<g
   id="g76"
   transform="translate(1181.8553,-508.92708)">
</g>
<g
   id="g78"
   transform="translate(1181.8553,-508.92708)">
</g>
<g
   id="g80"
   transform="translate(1181.8553,-508.92708)">
</g>
<g
   id="g82"
   transform="translate(1181.8553,-508.92708)">
</g>
<g
   id="g84"
   transform="translate(1181.8553,-508.92708)">
</g>
<g
   id="g652"
   transform="matrix(22.222222,0,0,22.222222,-20.877209,-0.00391071)"><path
     fill="#bf6952"
     d="m 18.985,35 h -1.97 c -6.5,0 -12.803,-4.982 -12.803,-11.956 0,-3.985 1.477,-5.978 1.477,-5.978 0,0 -0.492,-1.993 -0.492,-3.985 0,-5.978 6.303,-10.96 12.803,-10.96 6.5,0 12.803,5.978 12.803,10.96 0,1.993 -0.492,3.985 -0.492,3.985 0,0 1.477,1.993 1.477,5.978 C 31.788,30.018 25.485,35 18.985,35 Z"
     id="path604" /><path
     fill="#d79e84"
     d="M 29.667,15.379 A 6.895,6.895 0 0 0 22.773,8.485 6.87,6.87 0 0 0 18,10.411 6.865,6.865 0 0 0 13.227,8.485 6.895,6.895 0 0 0 6.333,15.379 6.881,6.881 0 0 0 9.215,20.978 10.532,10.532 0 0 0 8.454,24.924 c 0,5.565 4.274,9.015 9.545,9.015 5.271,0 9.545,-3.45 9.545,-9.015 0,-1.401 -0.272,-2.734 -0.761,-3.946 a 6.878,6.878 0 0 0 2.884,-5.599 z"
     id="path606" /><ellipse
     fill="#292f33"
     cx="13"
     cy="17"
     rx="2"
     ry="3"
     id="ellipse608" /><ellipse
     fill="#292f33"
     cx="23"
     cy="17"
     rx="2"
     ry="3"
     id="ellipse610" /><path
     fill="#642116"
     d="m 18,31.5 c 2.715,0 5.027,-1.38 5.895,-3.309 0.359,-0.798 -0.25,-1.691 -1.157,-1.691 h -9.476 c -0.907,0 -1.516,0.893 -1.157,1.691 0.868,1.929 3.18,3.309 5.895,3.309 z"
     id="path612" /><ellipse
     fill="#642116"
     cx="16.5"
     cy="22"
     rx="1"
     ry="1.061"
     id="ellipse614" /><circle
     fill="#642116"
     cx="19.5"
     cy="22"
     r="1"
     id="circle616" /><path
     fill="#bf6952"
     d="m 22.242,0.17 c 0,0 -5.303,-1.061 -7.424,2.121 -2.121,3.182 4.242,1.061 4.242,1.061 0,0 1.061,-3.182 3.182,-3.182 z"
     id="path618" /><path
     fill="#9b3c07"
     d="m 9,31.997 c 0.125,0.659 1.781,1.409 1.781,1.409 L 10,18.996 8,24 c 0,0 0.875,7.337 1,7.997 z m 18,0 c -0.188,0.722 -1.75,1.378 -1.75,1.378 L 26.001,18.996 28,24 c 0,0 -0.812,7.275 -1,7.997 z"
     id="path620" /><path
     fill="#bf6952"
     d="m 2,36 h 8 L 8.988,20.167 4.991,15.999 Z m 32,0 h -8 l 1.002,-15.833 3.997,-4.168 z"
     id="path622" /><path
     fill="#d79e84"
     d="m 30.608,15.053 c 0,0 0.2,-2.476 1.197,-3.542 1.302,-1.393 2.87,-0.314 2.749,1.64 -0.44,7.086 -1.996,9.033 -4.018,10.196 -2.021,1.164 -4.789,0.946 -7.718,-1.872 -2.929,-2.818 -4.158,-4.554 -4.508,-5.797 a 1.414,1.414 0 0 1 2.07,-1.621 c 1.002,0.569 2.51,2.308 2.51,2.308 0,0 -1.947,-2.696 -2.223,-3.738 -0.382,-1.441 1.322,-2.301 2.247,-1.507 0.912,0.783 2.792,3.156 2.792,3.156 0,0 -1.606,-2.464 -1.754,-3.651 -0.146,-1.172 1.239,-2.208 2.463,-1.186 1.223,1.023 3.189,3.971 4.193,5.614 z m -25.216,0 c 0,0 -0.2,-2.476 -1.197,-3.542 -1.302,-1.393 -2.87,-0.314 -2.749,1.64 0.44,7.086 1.996,9.033 4.018,10.196 2.021,1.164 4.789,0.946 7.718,-1.872 2.929,-2.818 4.158,-4.554 4.508,-5.797 a 1.414,1.414 0 0 0 -2.07,-1.621 c -1.002,0.569 -2.51,2.308 -2.51,2.308 0,0 1.947,-2.696 2.223,-3.738 0.382,-1.441 -1.322,-2.301 -2.247,-1.507 -0.912,0.783 -2.792,3.156 -2.792,3.156 0,0 1.606,-2.464 1.754,-3.651 C 12.194,9.453 10.809,8.417 9.585,9.439 8.361,10.461 6.396,13.41 5.392,15.053 Z"
     id="path624" /><path
     fill="#bf6952"
     d="m 28.082,24.512 c -1.83,0 -3.774,-0.909 -5.611,-2.676 -2.795,-2.688 -4.227,-4.546 -4.642,-6.022 a 1.896,1.896 0 0 1 0.656,-2.041 1.893,1.893 0 0 1 2.036,-0.207 4.432,4.432 0 0 1 -0.337,-0.81 c -0.226,-0.851 0.09,-1.666 0.823,-2.126 0.726,-0.456 1.623,-0.412 2.233,0.112 0.084,0.073 0.176,0.157 0.272,0.251 a 1.951,1.951 0 0 1 0.946,-2.239 c 0.727,-0.396 1.577,-0.281 2.275,0.302 1.12,0.936 2.682,3.211 3.59,4.611 0.187,-0.834 0.523,-1.864 1.115,-2.498 0.681,-0.729 1.536,-0.972 2.292,-0.647 0.879,0.379 1.398,1.423 1.321,2.659 -0.436,7.031 -1.956,9.269 -4.268,10.6 -0.847,0.49 -1.76,0.731 -2.701,0.731 z M 19.66,14.362 a 0.899,0.899 0 0 0 -0.559,0.198 0.902,0.902 0 0 0 -0.311,0.983 c 0.355,1.26 1.785,3.083 4.373,5.572 2.474,2.378 5.002,3.017 7.123,1.799 1.658,-0.955 3.315,-2.498 3.768,-9.794 0.057,-0.921 -0.32,-1.507 -0.72,-1.679 -0.355,-0.156 -0.771,-0.008 -1.165,0.412 -0.717,0.768 -1.011,2.6 -1.063,3.241 a 0.5,0.5 0 0 1 -0.925,0.22 C 29.218,13.739 27.274,10.81 26.093,9.824 25.573,9.39 25.146,9.517 24.938,9.632 a 0.94,0.94 0 0 0 -0.491,0.932 c 0.11,0.88 1.248,2.781 1.678,3.44 a 0.5,0.5 0 0 1 -0.811,0.584 c -0.019,-0.023 -1.861,-2.345 -2.727,-3.087 -0.313,-0.27 -0.765,-0.202 -1.05,-0.024 -0.17,0.107 -0.548,0.42 -0.388,1.023 0.207,0.781 1.618,2.845 2.145,3.574 a 0.5,0.5 0 0 1 -0.783,0.621 c -0.403,-0.466 -1.618,-1.77 -2.378,-2.201 A 0.936,0.936 0 0 0 19.66,14.362 Z"
     id="path626" /><path
     fill="#bf6952"
     d="M 7.918,24.512 A 5.364,5.364 0 0 1 5.214,23.782 C 2.903,22.451 1.383,20.214 0.947,13.182 0.87,11.946 1.389,10.902 2.269,10.523 3.019,10.199 3.878,10.44 4.56,11.17 5.152,11.803 5.489,12.833 5.676,13.668 6.584,12.269 8.144,9.994 9.266,9.057 9.965,8.472 10.815,8.358 11.54,8.755 a 1.947,1.947 0 0 1 0.946,2.239 c 0.097,-0.094 0.188,-0.179 0.273,-0.251 0.608,-0.522 1.507,-0.567 2.232,-0.112 0.734,0.46 1.05,1.275 0.825,2.126 -0.059,0.222 -0.18,0.502 -0.336,0.811 a 1.891,1.891 0 0 1 2.034,0.207 c 0.623,0.487 0.874,1.27 0.657,2.041 -0.416,1.478 -1.848,3.335 -4.643,6.022 -1.836,1.765 -3.78,2.674 -5.61,2.674 z M 2.954,11.381 c -0.1,0 -0.196,0.02 -0.29,0.06 -0.399,0.172 -0.776,0.758 -0.719,1.679 0.453,7.296 2.11,8.839 3.768,9.794 2.121,1.221 4.648,0.581 7.122,-1.799 2.588,-2.488 4.018,-4.311 4.373,-5.572 a 0.9,0.9 0 0 0 -0.31,-0.983 0.9,0.9 0 0 0 -1.032,-0.068 c -0.761,0.433 -1.975,1.735 -2.379,2.201 a 0.501,0.501 0 0 1 -0.783,-0.621 c 0.526,-0.729 1.938,-2.793 2.146,-3.574 0.16,-0.603 -0.219,-0.916 -0.389,-1.023 -0.284,-0.179 -0.734,-0.248 -1.049,0.024 -0.865,0.743 -2.707,3.064 -2.725,3.087 A 0.501,0.501 0 0 1 9.876,14.002 c 0.429,-0.659 1.568,-2.561 1.677,-3.44 A 0.944,0.944 0 0 0 11.062,9.63 C 10.854,9.517 10.426,9.389 9.908,9.822 c -1.03,0.86 -2.841,3.449 -4.089,5.49 A 0.501,0.501 0 0 1 4.894,15.092 C 4.842,14.451 4.548,12.619 3.831,11.851 3.539,11.542 3.237,11.381 2.954,11.381 Z"
     id="path628" /><path
     fill="#9b3c07"
     d="m 25.988,9.758 c 0.036,0.026 0.069,0.035 0.106,0.066 1.181,0.986 3.125,3.915 4.088,5.49 0.09,0.146 0.249,0.21 0.414,0.215 0.216,-1.052 0.273,-2.283 0.266,-3.455 a 7.673,7.673 0 0 0 -0.538,1.593 c -0.908,-1.4 -2.47,-3.675 -3.59,-4.611 -0.666,-0.557 -1.468,-0.672 -2.171,-0.34 0.672,0.226 1.12,0.615 1.425,1.042 z M 5.818,15.314 C 7.066,13.272 8.877,10.684 9.907,9.824 9.976,9.766 10.038,9.742 10.103,9.703 A 2.79,2.79 0 0 1 11.462,8.727 C 10.754,8.378 9.94,8.492 9.265,9.057 8.143,9.994 6.582,12.269 5.675,13.668 a 7.894,7.894 0 0 0 -0.488,-1.49 c -0.003,1.141 0.057,2.328 0.265,3.349 0.148,-0.02 0.286,-0.082 0.366,-0.213 z"
     id="path630" /></g><g
   id="g708"
   transform="matrix(22.222222,0,0,22.222222,894.85329,-0.00391071)"><ellipse
     transform="rotate(-14.3,5.8,17)"
     fill="#d79e84"
     cx="5.8010001"
     cy="17"
     rx="3.678"
     ry="5.335"
     id="ellipse654" /><ellipse
     transform="rotate(-75.7,30.2,17)"
     fill="#d79e84"
     cx="30.198999"
     cy="17"
     rx="5.335"
     ry="3.678"
     id="ellipse656" /><path
     fill="#bf6952"
     d="m 18.985,35 h -1.97 c -6.5,0 -12.803,-4.982 -12.803,-11.956 0,-3.985 1.477,-5.978 1.477,-5.978 0,0 -0.492,-1.993 -0.492,-3.985 0,-5.978 6.303,-10.96 12.803,-10.96 6.5,0 12.803,5.978 12.803,10.96 0,1.993 -0.492,3.985 -0.492,3.985 0,0 1.477,1.993 1.477,5.978 C 31.788,30.018 25.485,35 18.985,35 Z"
     id="path658" /><path
     fill="#bf6952"
     d="m 22.242,0.17 c 0,0 -5.303,-1.061 -7.424,2.121 -2.121,3.182 4.242,1.061 4.242,1.061 0,0 1.061,-3.182 3.182,-3.182 z"
     id="path660" /><path
     fill="#d79e84"
     d="M 29.667,15.379 A 6.895,6.895 0 0 0 22.773,8.485 6.87,6.87 0 0 0 18,10.411 6.865,6.865 0 0 0 13.227,8.485 6.895,6.895 0 0 0 6.333,15.379 6.881,6.881 0 0 0 9.215,20.978 10.532,10.532 0 0 0 8.454,24.924 c 0,5.565 4.274,9.015 9.545,9.015 5.271,0 9.545,-3.45 9.545,-9.015 0,-1.401 -0.272,-2.734 -0.761,-3.946 a 6.878,6.878 0 0 0 2.884,-5.599 z"
     id="path662" /><ellipse
     fill="#292f33"
     cx="13"
     cy="17"
     rx="2"
     ry="3"
     id="ellipse664" /><ellipse
     fill="#292f33"
     cx="23"
     cy="17"
     rx="2"
     ry="3"
     id="ellipse666" /><path
     fill="#642116"
     d="m 18,31.5 c 2.715,0 5.027,-1.38 5.895,-3.309 0.359,-0.798 -0.25,-1.691 -1.157,-1.691 h -9.476 c -0.907,0 -1.516,0.893 -1.157,1.691 0.868,1.929 3.18,3.309 5.895,3.309 z"
     id="path668" /><ellipse
     fill="#642116"
     cx="16.5"
     cy="22"
     rx="1"
     ry="1.061"
     id="ellipse670" /><circle
     fill="#642116"
     cx="19.5"
     cy="22"
     r="1"
     id="circle672" /><path
     fill="#bf6952"
     d="M 6.874,23.245 C 7.472,21.952 7.75,20.922 7.75,20 7.75,18.692 7.146,17.44 6.66,16.434 6.386,15.866 6.103,15.278 6.103,15 6.103,14.807 6.245,14.207 6.37,13.677 6.757,12.041 7.238,10.004 6.633,9.028 A 1.065,1.065 0 0 0 5.691,8.5 C 3.74,8.5 0.75,12.756 0.75,18 c 0,2.576 0.174,4.177 0.555,5.112 L 0.5,36 h 7 L 6.663,23.559 C 6.748,23.466 6.82,23.362 6.874,23.245 Z"
     id="path674" /><path
     fill="#9b3c07"
     d="M 6.874,23.245 C 7.472,21.952 7.75,20.922 7.75,20 7.75,18.692 7.146,17.44 6.66,16.434 6.386,15.866 6.103,15.278 6.103,15 6.103,14.807 6.245,14.207 6.37,13.677 6.757,12.041 7.238,10.004 6.633,9.028 A 1.226,1.226 0 0 0 6.356,8.725 C 5.622,10.066 5.197,11.539 5.197,13.081 5.197,15.073 5,19.059 5,23.044 5,23.359 7,36 7,36 H 7.5 L 6.661,23.531 C 6.74,23.442 6.823,23.356 6.874,23.245 Z"
     id="path676" /><path
     fill="#d79e84"
     d="m 5.691,9.5 c -1.373,0 -4.118,3.675 -4.118,8.5 0,2.542 0.185,4.174 0.55,4.851 0.255,0.475 0.985,0.47 1.688,0.463 l 0.232,-0.001 c 1.16,0 1.985,-0.283 2.112,-0.558 C 6.674,21.634 6.926,20.732 6.926,20 6.926,18.964 6.407,17.888 5.949,16.939 5.575,16.163 5.279,15.55 5.279,15 5.279,14.682 5.387,14.209 5.578,13.401 5.842,12.285 6.333,10.207 5.974,9.63 5.951,9.591 5.894,9.5 5.691,9.5 Z"
     id="path678" /><path
     fill="#bf6952"
     d="M 35.5,36 34.695,23.112 C 35.076,22.177 35.25,20.577 35.25,18 c 0,-5.244 -2.99,-9.5 -4.941,-9.5 -0.508,0 -0.792,0.287 -0.942,0.528 -0.606,0.976 -0.124,3.013 0.263,4.649 0.125,0.53 0.267,1.13 0.267,1.323 0,0.278 -0.283,0.866 -0.557,1.434 -0.486,1.006 -1.09,2.259 -1.09,3.566 0,0.922 0.278,1.952 0.877,3.245 0.054,0.117 0.126,0.221 0.211,0.314 L 28.5,36 Z"
     id="path680" /><path
     fill="#9b3c07"
     d="m 31,23.044 c 0,-3.985 -0.197,-7.971 -0.197,-9.963 0,-1.374 -0.493,-2.822 -1.324,-4.201 -0.042,0.05 -0.082,0.1 -0.112,0.148 -0.606,0.976 -0.124,3.013 0.263,4.649 0.125,0.53 0.267,1.13 0.267,1.323 0,0.278 -0.283,0.866 -0.557,1.434 -0.486,1.006 -1.09,2.259 -1.09,3.566 0,0.922 0.278,1.952 0.877,3.245 0.051,0.11 0.134,0.197 0.213,0.286 L 28.5,36 H 29 c 0,0 2,-12.641 2,-12.956 z"
     id="path682" /><path
     fill="#d79e84"
     d="m 30.309,9.5 c -0.203,0 -0.26,0.091 -0.284,0.13 -0.358,0.577 0.133,2.655 0.396,3.771 0.191,0.808 0.299,1.281 0.299,1.599 0,0.55 -0.296,1.163 -0.67,1.939 -0.458,0.949 -0.977,2.025 -0.977,3.061 0,0.732 0.252,1.634 0.77,2.755 0.127,0.274 0.951,0.558 2.112,0.558 l 0.232,0.001 c 0.702,0.007 1.432,0.012 1.689,-0.463 0.365,-0.676 0.55,-2.308 0.55,-4.851 0,-4.825 -2.744,-8.5 -4.117,-8.5 z"
     id="path684" /></g><g
   id="g761"
   transform="matrix(22.222222,0,0,22.222222,1831.5054,-0.00391071)"><ellipse
     transform="rotate(-14.3,5.8,17)"
     fill="#d79e84"
     cx="5.8010001"
     cy="17"
     rx="3.678"
     ry="5.335"
     id="ellipse710" /><ellipse
     transform="rotate(-75.7,30.2,17)"
     fill="#d79e84"
     cx="30.198999"
     cy="17"
     rx="5.335"
     ry="3.678"
     id="ellipse712" /><path
     fill="#bf6952"
     d="m 18.985,35 h -1.97 c -6.5,0 -12.803,-4.982 -12.803,-11.956 0,-3.985 1.477,-5.978 1.477,-5.978 0,0 -0.492,-1.993 -0.492,-3.985 0,-5.978 6.303,-10.96 12.803,-10.96 6.5,0 12.803,5.978 12.803,10.96 0,1.993 -0.492,3.985 -0.492,3.985 0,0 1.477,1.993 1.477,5.978 C 31.788,30.018 25.485,35 18.985,35 Z"
     id="path714" /><path
     fill="#d79e84"
     d="M 29.667,15.379 A 6.895,6.895 0 0 0 22.773,8.485 6.87,6.87 0 0 0 18,10.411 6.865,6.865 0 0 0 13.227,8.485 6.895,6.895 0 0 0 6.333,15.379 6.881,6.881 0 0 0 9.215,20.978 10.532,10.532 0 0 0 8.454,24.924 c 0,5.565 4.274,9.015 9.545,9.015 5.271,0 9.545,-3.45 9.545,-9.015 0,-1.401 -0.272,-2.734 -0.761,-3.946 a 6.878,6.878 0 0 0 2.884,-5.599 z"
     id="path716" /><ellipse
     fill="#292f33"
     cx="13"
     cy="17"
     rx="2"
     ry="3"
     id="ellipse718" /><ellipse
     fill="#292f33"
     cx="23"
     cy="17"
     rx="2"
     ry="3"
     id="ellipse720" /><path
     fill="#642116"
     d="m 18,31.5 c 2.715,0 5.027,-1.38 5.895,-3.309 0.359,-0.798 -0.25,-1.691 -1.157,-1.691 h -9.476 c -0.907,0 -1.516,0.893 -1.157,1.691 0.868,1.929 3.18,3.309 5.895,3.309 z"
     id="path722" /><ellipse
     fill="#642116"
     cx="16.5"
     cy="22"
     rx="1"
     ry="1.061"
     id="ellipse724" /><circle
     fill="#642116"
     cx="19.5"
     cy="22"
     r="1"
     id="circle726" /><path
     fill="#bf6952"
     d="m 22.242,0.17 c 0,0 -5.303,-1.061 -7.424,2.121 -2.121,3.182 4.242,1.061 4.242,1.061 0,0 1.061,-3.182 3.182,-3.182 z M 36,36 22,32 25,26 36,28 Z M 0,36 14,32 11,26 0,28 Z"
     id="path728" /><path
     fill="#d79e84"
     d="m 12.369,25.001 c 0,0 0.118,-1.26 0.094,-2.719 C 12.432,20.376 9.881,19.43 9.088,21.22 8.119,23.408 6.9,28.658 7.619,30.876 c 0.719,2.218 2.531,3.969 6.594,3.844 4.063,-0.125 7.594,-0.906 8.688,-1.594 1.094,-0.688 0.845,-2.378 -0.406,-2.656 -1.125,-0.25 -4.219,0.25 -4.219,0.25 0,0 3.253,-0.694 4.156,-1.281 1.25,-0.812 0.562,-2.594 -0.656,-2.625 -1.202,-0.031 -4.188,0.469 -4.188,0.469 0,0 2.844,-0.75 3.75,-1.531 0.895,-0.771 0.562,-2.469 -1.031,-2.531 -1.593,-0.062 -6.438,0.967 -7.938,1.78 z"
     id="path730" /><path
     fill="#bf6952"
     d="m 13.806,35.227 c -3.52,0 -5.76,-1.411 -6.662,-4.196 -0.806,-2.487 0.56,-7.919 1.487,-10.013 0.418,-0.946 1.3,-1.411 2.297,-1.205 0.995,0.201 2.013,1.111 2.035,2.462 0.012,0.744 -0.011,1.432 -0.038,1.937 2.056,-0.774 5.966,-1.559 7.401,-1.491 0.911,0.036 1.618,0.522 1.89,1.302 a 1.947,1.947 0 0 1 -0.799,2.295 c 0.135,-0.004 0.261,-0.005 0.371,-0.003 0.803,0.021 1.498,0.589 1.731,1.414 0.235,0.834 -0.077,1.65 -0.815,2.13 a 2.17,2.17 0 0 1 -0.185,0.107 l 0.083,0.017 a 1.882,1.882 0 0 1 1.462,1.546 1.978,1.978 0 0 1 -0.898,2.021 c -1.131,0.712 -4.648,1.539 -8.938,1.671 -0.143,0.003 -0.284,0.006 -0.422,0.006 z M 10.488,20.768 c -0.294,0 -0.703,0.111 -0.943,0.654 -1.014,2.29 -2.093,7.314 -1.45,9.3 0.796,2.456 2.794,3.616 6.103,3.498 3.912,-0.12 7.424,-0.881 8.437,-1.517 a 0.976,0.976 0 0 0 0.444,-1.006 0.885,0.885 0 0 0 -0.693,-0.739 c -0.848,-0.188 -3.196,0.121 -4.031,0.255 a 0.5,0.5 0 0 1 -0.184,-0.982 c 0.88,-0.188 3.312,-0.771 3.988,-1.211 0.523,-0.34 0.452,-0.827 0.397,-1.021 -0.091,-0.322 -0.378,-0.675 -0.794,-0.686 -1.174,-0.049 -4.063,0.457 -4.092,0.462 a 0.5,0.5 0 0 1 -0.21,-0.977 c 0.76,-0.201 2.88,-0.849 3.551,-1.427 a 0.944,0.944 0 0 0 0.261,-1.021 c -0.079,-0.225 -0.312,-0.605 -0.985,-0.632 -1.452,-0.06 -6.245,0.944 -7.68,1.721 A 0.502,0.502 0 0 1 11.87,24.953 c 0.001,-0.012 0.115,-1.251 0.092,-2.664 a 1.56,1.56 0 0 0 -1.234,-1.498 1.257,1.257 0 0 0 -0.24,-0.023 z"
     id="path732" /><path
     fill="#d79e84"
     d="m 23.631,25.001 c 0,0 -0.118,-1.26 -0.094,-2.719 0.031,-1.906 2.582,-2.852 3.375,-1.062 0.969,2.188 2.188,7.438 1.469,9.656 -0.719,2.218 -2.531,3.969 -6.594,3.844 -4.063,-0.125 -7.594,-0.906 -8.688,-1.594 -1.094,-0.688 -0.845,-2.378 0.406,-2.656 1.125,-0.25 4.219,0.25 4.219,0.25 0,0 -3.253,-0.694 -4.156,-1.281 -1.25,-0.812 -0.562,-2.594 0.656,-2.625 1.202,-0.031 4.188,0.469 4.188,0.469 0,0 -2.844,-0.75 -3.75,-1.531 -0.895,-0.771 -0.562,-2.469 1.031,-2.531 1.593,-0.062 6.438,0.967 7.938,1.78 z"
     id="path734" /><path
     fill="#bf6952"
     d="m 22.194,35.227 c -0.139,0 -0.279,-0.003 -0.423,-0.007 -4.29,-0.132 -7.807,-0.959 -8.938,-1.671 a 1.978,1.978 0 0 1 -0.897,-2.021 1.88,1.88 0 0 1 1.461,-1.546 l 0.083,-0.017 a 2.501,2.501 0 0 1 -0.184,-0.107 c -0.739,-0.479 -1.051,-1.296 -0.815,-2.13 0.233,-0.825 0.929,-1.394 1.731,-1.414 0.111,-0.002 0.236,-0.001 0.371,0.003 a 1.951,1.951 0 0 1 -0.8,-2.295 c 0.272,-0.779 0.979,-1.266 1.89,-1.302 1.433,-0.049 5.346,0.718 7.401,1.491 a 29.057,29.057 0 0 1 -0.038,-1.937 c 0.022,-1.35 1.04,-2.261 2.034,-2.462 1.004,-0.206 1.879,0.259 2.298,1.205 0.928,2.094 2.293,7.525 1.487,10.013 -0.901,2.785 -3.141,4.196 -6.661,4.197 z M 14.37,30.898 c -0.304,0 -0.567,0.018 -0.755,0.06 a 0.885,0.885 0 0 0 -0.693,0.739 0.975,0.975 0 0 0 0.444,1.006 c 1.012,0.636 4.525,1.396 8.437,1.517 3.3,0.101 5.308,-1.042 6.103,-3.498 0.644,-1.985 -0.437,-7.01 -1.45,-9.3 -0.319,-0.72 -0.933,-0.681 -1.185,-0.63 a 1.559,1.559 0 0 0 -1.233,1.498 c -0.022,1.413 0.091,2.652 0.092,2.665 a 0.498,0.498 0 0 1 -0.223,0.463 0.497,0.497 0 0 1 -0.514,0.022 c -1.435,-0.776 -6.187,-1.786 -7.68,-1.721 -0.674,0.026 -0.907,0.407 -0.985,0.632 a 0.945,0.945 0 0 0 0.261,1.021 c 0.671,0.579 2.791,1.227 3.551,1.427 a 0.5,0.5 0 0 1 -0.211,0.977 c -0.03,-0.005 -2.962,-0.493 -4.092,-0.462 -0.416,0.011 -0.704,0.363 -0.795,0.686 a 0.88,0.88 0 0 0 0.398,1.021 c 0.677,0.439 3.108,1.023 3.988,1.211 a 0.5,0.5 0 0 1 -0.184,0.982 C 16.996,31.108 15.431,30.898 14.37,30.898 Z"
     id="path736" /><path
     fill="#9b3c07"
     d="M 9.643,21.265 C 9.353,21.066 9.082,20.862 8.834,20.652 A 2.384,2.384 0 0 0 8.63,21.018 c -0.532,1.201 -1.203,3.497 -1.531,5.708 l -2.148,0.45 2.998,0.879 0.155,-1.268 c 0.296,-1.973 0.875,-4.091 1.439,-5.365 0.03,-0.065 0.068,-0.104 0.1,-0.157 z m 19.273,5.558 c -0.322,-2.24 -1.007,-4.587 -1.547,-5.805 a 2.268,2.268 0 0 0 -0.216,-0.381 c -0.254,0.216 -0.516,0.424 -0.789,0.624 0.031,0.051 0.063,0.1 0.091,0.161 0.688,1.554 1.405,4.366 1.594,6.634 l 3.021,-0.88 z"
     id="path738" /></g></svg>
