<svg xmlns="http://www.w3.org/2000/svg" xmlns:xlink="http://www.w3.org/1999/xlink" viewBox="0 0 95.27 41" fill="#fff" fill-rule="evenodd" stroke="#000" stroke-linecap="round" stroke-linejoin="round"><use xlink:href="#A" x=".5" y=".5"/><symbol id="A" overflow="visible"><g stroke="none" fill-rule="nonzero"><path d="M10.552 38.62l17.978.504-1.125-19.908L29.088 1l-8.288.377L16.925 0 0 .82.843 18.775 0 39.438l10.534-.82" fill="#f14729"/><path d="M16.728 26.92l-1.878.46 1.025-2.22 1.025-6.203-1.28-.23 1.532-1.926 1.912-6.453-3.365.634s1.775-2.913 3.657-4.812l-2.462-1.696s-7.934 3.135-5.8 13.32l-1.64-.257L11.028 28.2l-1.33.306s1.375 2.494 3.27 3.675c.175.108-2.4-8.346.34-16.77l.256.537s-2.175 8.98 0 16.234c0 0 .1.172 1.188.058 0 0 1.97-3.33 1.97-5.34" fill="#1e5cb3"/><path d="M14.148 14.676s-1.153 4.608-.82 12.078a43.94 43.94 0 0 0 .706 6.087h.003c.217 1.57.375 2.125.927 4.025l-.032 1.22s-4.53-12.974-.784-23.4m2.78-3.994s1.02-.455 2.48-.62c0 0 1.596 2.625-2.332 7.106 0 0 2.344-4.694 1.8-6.162 0 0-.62-.345-1.937-.323m-.483 7.88s.915.2 1.354-.13c0 0-.865 3.03-.625 4.696s-1.425 2.735-1.425 2.735 1.394-1.582.956-2.87c-.304-.894.038-3.18.42-3.906 0 0-.358-.045-.68-.523m-.92 7.98s1.5-.163 1.67-.848c0 0 .185 4.098-1.915 5.788 0 0 1.602-2.242 1.35-4.562l-1.106-.375m-4.25 1.7s-.5.5-1.95-.6c0 0 .466 2.754 3.375 4.015 0 0-1.992-1.346-2.53-2.8 0 0 .704-.187 1.12-.622m-.455-1.045s-1.98-4.505-1.555-10.6c0 0 .463 1.103 1.946 1.5 0 0-.7.13-1.1.072 0 0-1.035 2.57.716 9.03m8.3-20.94s-.74-4.875-5.38.055c-3.692 3.935-3.252 7.278-3.025 9.14.057.478-.687-4.98 3.36-8.57s4.96-.837 5.046-.627"/><path d="M12.302 2.105s-3.625-.933-4.798 9.875c0 0-.894-3.34 1.418-8.062s3.38-1.825 3.38-1.825M7.786 1.3S5.93 3.806 6.35 6.473c0 0-1.407-5.02 1.435-5.172M21.45 8.34s2.195-.725-.948 6.602c0 0 1.628-2.14 2.65-5.506.658-2.16-1.702-1.096-1.702-1.096M25 7.766s1.55 1.26.453 2.927c0 0 2.76-2.603-.453-2.927" fill="#fff200"/></g><path d="M39.102 13.125h2.5V7.933c1.098 0 2.153 0 3.2-.17v5.377h3.716v.97h-3.715v12.905c0 .76 0 1.9 1.604 1.9 1.1 0 1.688-.76 2.365-1.562l.675.465c-.802 1.605-2.87 2.575-4.56 2.575-3.04 0-3.378-1.646-3.378-3.672V14.095h-2.406V12.4m35.12 12.218c-.97 2.997-2.66 5.615-7.05 5.784-6.544 0-8.53-5.446-8.53-8.36 0-7.515 6.037-9.33 8.444-9.33 2.744 0 6.63 1.266 6.63 4.518 0 1.14-.718 2.25-1.9 2.25-1.14 0-1.985-.76-1.985-1.984 0-1.646 1.35-1.858 1.35-2.323 0-1.14-2.66-1.605-3.588-1.605-4.053 0-5.1 2.955-5.1 8.5 0 2.534.632 4.475.875 5.067.632 1.393 1.942 2.28 4.125 2.406 2.45.125 4.813-1.858 5.825-4.897h.875m9.825 5.2v-.97h3.25V1.725h-3.24v-.97h1.816c1.563 0 3.2-.085 4.73-.38v28.5h3.25v.97h-9.796" stroke="#333" fill="#333" fill-rule="nonzero" stroke-width="1.539"/></symbol></svg>