<?xml version="1.0" encoding="UTF-8" standalone="no"?>
<!-- Created with Inkscape (http://www.inkscape.org/) -->

<svg
   width="523.37775"
   height="204.8"
   id="svg2"
   version="1.1"
   inkscape:version="1.2.2 (b0a84865, 2022-12-01)"
   sodipodi:docname="flask.svg"
   xmlns:inkscape="http://www.inkscape.org/namespaces/inkscape"
   xmlns:sodipodi="http://sodipodi.sourceforge.net/DTD/sodipodi-0.dtd"
   xmlns="http://www.w3.org/2000/svg"
   xmlns:svg="http://www.w3.org/2000/svg"
   xmlns:rdf="http://www.w3.org/1999/02/22-rdf-syntax-ns#"
   xmlns:cc="http://creativecommons.org/ns#"
   xmlns:dc="http://purl.org/dc/elements/1.1/">
  <defs
     id="defs4">
    <inkscape:perspective
       sodipodi:type="inkscape:persp3d"
       inkscape:vp_x="0 : 625.98382 : 1"
       inkscape:vp_y="0 : 1137.7778 : 0"
       inkscape:vp_z="846.61417 : 625.98382 : 1"
       inkscape:persp3d-origin="423.30708 : 426.42477 : 1"
       id="perspective10" />
    <inkscape:perspective
       id="perspective2824"
       inkscape:persp3d-origin="0.56888889 : 27.685929 : 1"
       inkscape:vp_z="1.1377778 : 27.875558 : 1"
       inkscape:vp_y="0 : 1137.7778 : 0"
       inkscape:vp_x="0 : 27.875558 : 1"
       sodipodi:type="inkscape:persp3d" />
    <inkscape:perspective
       id="perspective2840"
       inkscape:persp3d-origin="0.56888889 : 27.685929 : 1"
       inkscape:vp_z="1.1377778 : 27.875558 : 1"
       inkscape:vp_y="0 : 1137.7778 : 0"
       inkscape:vp_x="0 : 27.875558 : 1"
       sodipodi:type="inkscape:persp3d" />
    <inkscape:perspective
       id="perspective2878"
       inkscape:persp3d-origin="0.56888889 : 27.685929 : 1"
       inkscape:vp_z="1.1377778 : 27.875558 : 1"
       inkscape:vp_y="0 : 1137.7778 : 0"
       inkscape:vp_x="0 : 27.875558 : 1"
       sodipodi:type="inkscape:persp3d" />
    <inkscape:perspective
       id="perspective2894"
       inkscape:persp3d-origin="0.56888889 : 27.685929 : 1"
       inkscape:vp_z="1.1377778 : 27.875558 : 1"
       inkscape:vp_y="0 : 1137.7778 : 0"
       inkscape:vp_x="0 : 27.875558 : 1"
       sodipodi:type="inkscape:persp3d" />
    <inkscape:perspective
       id="perspective2910"
       inkscape:persp3d-origin="0.56888889 : 27.685929 : 1"
       inkscape:vp_z="1.1377778 : 27.875558 : 1"
       inkscape:vp_y="0 : 1137.7778 : 0"
       inkscape:vp_x="0 : 27.875558 : 1"
       sodipodi:type="inkscape:persp3d" />
    <inkscape:perspective
       id="perspective2926"
       inkscape:persp3d-origin="0.56888889 : 27.685929 : 1"
       inkscape:vp_z="1.1377778 : 27.875558 : 1"
       inkscape:vp_y="0 : 1137.7778 : 0"
       inkscape:vp_x="0 : 27.875558 : 1"
       sodipodi:type="inkscape:persp3d" />
    <inkscape:perspective
       id="perspective2976"
       inkscape:persp3d-origin="0.56888889 : 27.685929 : 1"
       inkscape:vp_z="1.1377778 : 27.875558 : 1"
       inkscape:vp_y="0 : 1137.7778 : 0"
       inkscape:vp_x="0 : 27.875558 : 1"
       sodipodi:type="inkscape:persp3d" />
    <inkscape:perspective
       id="perspective3020"
       inkscape:persp3d-origin="0.56888889 : 27.685929 : 1"
       inkscape:vp_z="1.1377778 : 27.875558 : 1"
       inkscape:vp_y="0 : 1137.7778 : 0"
       inkscape:vp_x="0 : 27.875558 : 1"
       sodipodi:type="inkscape:persp3d" />
    <inkscape:perspective
       id="perspective3036"
       inkscape:persp3d-origin="0.56888889 : 27.685929 : 1"
       inkscape:vp_z="1.1377778 : 27.875558 : 1"
       inkscape:vp_y="0 : 1137.7778 : 0"
       inkscape:vp_x="0 : 27.875558 : 1"
       sodipodi:type="inkscape:persp3d" />
    <inkscape:perspective
       id="perspective3052"
       inkscape:persp3d-origin="0.56888889 : 27.685929 : 1"
       inkscape:vp_z="1.1377778 : 27.875558 : 1"
       inkscape:vp_y="0 : 1137.7778 : 0"
       inkscape:vp_x="0 : 27.875558 : 1"
       sodipodi:type="inkscape:persp3d" />
    <inkscape:perspective
       id="perspective3866"
       inkscape:persp3d-origin="0.56888889 : 27.685929 : 1"
       inkscape:vp_z="1.1377778 : 27.875558 : 1"
       inkscape:vp_y="0 : 1137.7778 : 0"
       inkscape:vp_x="0 : 27.875558 : 1"
       sodipodi:type="inkscape:persp3d" />
  </defs>
  <sodipodi:namedview
     id="base"
     pagecolor="#ffffff"
     bordercolor="#666666"
     borderopacity="1.0"
     inkscape:pageopacity="0.0"
     inkscape:pageshadow="2"
     inkscape:zoom="0.98994949"
     inkscape:cx="199.00005"
     inkscape:cy="30.304576"
     inkscape:document-units="px"
     inkscape:current-layer="layer1"
     showgrid="false"
     inkscape:window-width="1309"
     inkscape:window-height="404"
     inkscape:window-x="0"
     inkscape:window-y="25"
     inkscape:window-maximized="0"
     inkscape:showpageshadow="0"
     inkscape:pagecheckerboard="0"
     inkscape:deskcolor="#d1d1d1" />
  <metadata
     id="metadata7">
    <rdf:RDF>
      <cc:Work
         rdf:about="">
        <dc:format>image/svg+xml</dc:format>
        <dc:type
           rdf:resource="http://purl.org/dc/dcmitype/StillImage" />
        <dc:title />
      </cc:Work>
    </rdf:RDF>
  </metadata>
  <g
     inkscape:label="Layer 1"
     inkscape:groupmode="layer"
     id="layer1"
     transform="translate(-31.653889,-28.12015)">
    <path
       style="fill:#999999;stroke-width:1.13778"
       d="M 110.30177,207.11397 C 102.01621,200.59714 93.177798,194.34892 87.138209,185.55069 74.429829,170.03519 64.644978,152.07163 57.955652,133.19412 53.912411,120.91908 52.52767,107.75873 47.315398,95.958012 41.862841,87.387082 48.249769,78.017649 57.63814,75.293214 c 4.179902,-0.802252 11.529474,-4.744827 2.657793,-1.926872 -7.953741,5.835516 -8.723489,-5.297041 -0.56755,-6.001971 5.566038,-0.739839 7.615027,-5.296405 5.711605,-9.398329 -5.974841,-3.89628 14.488163,-8.178359 4.191998,-13.992164 -10.725816,-11.571957 15.003123,-13.799589 8.655397,-0.657392 -1.519441,10.105813 17.978284,-1.852196 13.454357,9.817822 4.598081,5.604346 17.21863,1.275563 16.90553,9.137941 6.6982,0.460433 8.99705,6.096282 15.2849,6.528963 6.51673,2.942927 18.33051,5.261985 20.54804,12.605609 -6.46533,5.118585 -21.43674,-10.572998 -22.15601,3.59583 1.9531,20.930649 1.45552,42.491949 9.11344,62.424169 3.62216,12.06907 12.40315,21.56975 20.33334,30.96969 7.58755,9.20606 17.86522,15.68671 28.34073,21.14376 9.18923,4.33381 19.09627,7.20814 29.11099,9.0117 4.06198,-3.10692 11.23331,-14.65776 17.56999,-9.78703 0.30064,5.47279 -12.57711,11.44049 -0.60583,10.83563 7.02941,-2.12057 11.90497,5.43634 17.69357,-1.38 5.33298,6.31701 22.16615,-4.03609 18.37161,8.87597 -5.13106,3.31043 -12.61442,1.31006 -17.75393,5.86408 -8.47367,-4.2323 -15.21994,3.78701 -24.60092,2.77284 -10.41796,1.86597 -21.01657,2.61921 -31.5787,2.63557 -17.32782,-1.36906 -35.02261,-1.94615 -51.50685,-7.97913 -9.28616,-2.69837 -18.34837,-7.98591 -26.50987,-13.27593 z m 14.63414,6.34073 c 9.06764,3.92136 17.93415,8.05421 27.87165,9.30084 15.76599,2.19281 32.04726,5.56559 47.86974,2.48897 -7.16107,-3.23356 -14.56444,1.25974 -21.69852,-2.31219 -8.55647,1.84116 -17.73851,-0.46902 -26.43711,-1.60642 -9.89178,-4.40615 -20.56669,-7.43593 -29.82994,-13.1552 -11.57478,-4.22773 5.98633,5.42178 9.11216,6.20333 7.23572,4.10702 -7.95697,-2.10539 -10.09879,-3.81271 -6.06035,-3.39957 -6.83268,-2.68921 -0.60012,0.76328 1.25533,0.73474 2.49582,1.50443 3.81093,2.1301 z m -17.25405,-12.19346 c 8.78681,3.25463 -0.0387,-6.17906 -4.06521,-5.63091 -1.78393,-3.09493 -6.815633,-5.05007 -3.26625,-6.71258 -6.384663,2.2165 -6.688217,-8.42882 -9.689316,-6.90789 -6.754437,-2.13281 -2.628831,-9.6882 -10.674551,-14.32795 -0.734422,-4.88899 -7.993765,-9.12945 -10.309177,-16.50374 -1.02262,-3.77564 -8.201485,-14.61799 -3.791496,-4.52754 3.754888,9.71375 10.361307,18.03241 15.85912,26.34155 4.269037,7.91129 9.309864,16.1795 17.084606,21.11474 2.620794,2.51407 5.151234,6.36624 8.852274,7.15432 z m -25.312938,-27.7916 c 0.306699,-1.32694 1.607025,2.872 0,0 z m 35.835908,31.69309 c 1.94575,-0.87127 -2.79793,-1.09767 0,0 z m 4.76989,1.73994 c -0.49402,-2.40253 -2.17743,1.34342 0,0 z m 5.97047,2.49049 c 2.84249,-2.70644 -4.38054,-1.70647 0,0 z m 10.23306,5.70338 c 1.72726,-2.55305 -5.52815,-0.96348 0,0 z m -19.65022,-13.69808 c 4.41492,-2.85608 -5.70239,-0.0395 0,0 z m 4.47898,2.23338 c -0.12521,-1.50993 -1.59628,0.6762 0,0 z m 22.38546,13.97198 c 3.59858,2.27102 21.01431,4.97766 10.1089,0.93124 -1.82474,0.38469 -20.22131,-5.20347 -10.1089,-0.93124 z m -35.53769,-27.67775 c -0.34987,-1.51432 -5.58574,-1.67185 0,0 z m 10.42125,6.07361 c 2.71213,-1.89162 -5.62924,-1.45903 0,0 z m 8.76573,5.37466 c 3.89195,-1.46732 -6.3136,-1.47423 0,0 z m -23.42751,-16.06669 c 4.22271,3.23836 17.02989,0.41498 6.46687,-1.93315 -4.8077,-2.56273 -15.643182,-4.3169 -8.2575,1.54534 l 1.79062,0.38784 z m 29.36459,17.92245 c 1.75894,-2.99677 -7.37619,-1.71134 0,0 z m -8.92301,-7.09158 c 10.32556,2.92089 -8.68286,-6.52971 -2.54762,-1.07482 l 1.3598,0.61534 1.18783,0.45955 z m 17.88989,10.33989 c 9.77891,0.0933 -8.83261,-1.34811 0,2e-5 z m -42.09404,-26.82848 c -0.38195,-1.82151 -2.41318,0.15268 0,0 z m 58.63583,36.1074 c 0.26078,-3.28978 -3.19131,2.44801 0,0 z m -41.94779,-25.88784 c -0.59149,-1.73228 -3.05547,-0.0707 0,0 z m -15.76064,-11.36241 c 5.61406,-0.33711 -7.686055,-2.47374 0,0 z M 85.108494,166.43861 c -0.698762,-2.69125 -6.108972,-4.83771 0,0 z m 49.014696,31.10618 c -1.02825,-1.1727 -0.48367,0.25652 0,0 z m 30.50847,18.72184 c -0.0978,-1.79203 -1.6616,0.67831 0,0 z m -33.20846,-21.51 c 0.54916,-2.30892 -4.7871,-0.69907 0,0 z m -22.72832,-14.40422 c 4.17654,-0.4472 -6.69062,-2.82352 0,0 z m 38.44705,23.89008 c 6.50857,-2.57851 -6.34358,-1.25878 0,0 z m -19.99852,-13.57534 c 7.50112,0.96713 -8.9252,-5.10208 -1.6458,-0.54306 l 1.64579,0.54311 z m 26.06986,16.02969 c 7.00318,-4.18673 4.69434,9.80397 11.88129,1.18193 7.08933,-5.17623 -6.12222,6.39944 2.61504,0.92292 6.31875,-4.22614 15.65177,2.00334 21.54779,4.03592 4.24003,-0.20829 8.36196,3.66634 12.70867,1.30912 8.36744,-2.25373 -16.36235,-3.34267 -9.87983,-7.34128 -7.65627,2.22831 -13.31306,-2.65652 -17.08047,-7.56063 -8.58807,-1.98312 -18.51788,-6.37383 -22.80399,-13.974 -1.74751,-2.85357 2.52456,0.40201 -1.50853,-4.26255 -5.175,-4.60283 -7.75905,-9.82774 -11.23303,-15.42281 -4.1501,-2.21396 -4.63359,-8.73068 -5.05314,-0.21846 0.0329,-5.37217 -5.01069,-8.98803 -6.24172,-7.48497 -0.0221,-5.17372 5.39757,-2.58033 1.60364,-6.40829 -0.8166,-5.36237 -3.50532,-10.95008 -4.31348,-17.00443 -1.25565,-2.91842 -0.17682,-9.16893 -4.28558,-2.56231 -1.49693,6.98218 -0.49684,-8.58032 1.83103,-3.44842 3.05542,-5.23663 -1.09694,-4.62075 -1.26704,-3.8936 1.99033,-4.41837 1.25973,-10.68555 -0.51933,-8.29467 1.06056,-4.68293 1.67548,-17.234513 -1.58732,-15.01021 1.97784,-4.896952 3.7509,-22.407488 -4.83511,-15.731289 -3.47973,0.04885 -9.50561,1.263155 -12.35402,2.679743 8.93098,4.923001 -0.89833,1.777865 -4.53383,0.995417 -0.473706,4.555256 -4.074598,2.58513 -8.573296,2.62979 7.185377,0.888991 -3.498954,7.348864 -7.620985,4.839546 -5.35336,2.558584 4.620084,8.945253 0.107406,10.919923 0.554591,2.97708 -8.20136,-1.0751 -7.513693,5.80006 -5.197073,-2.1863 -0.715618,8.15554 1.88447,4.65786 8.839262,2.3923 6.22263,7.84646 6.447727,13.02746 -1.440237,3.01898 -7.110536,-7.09622 -1.262864,-6.62775 -4.613365,-7.49424 -5.103198,-2.70883 -8.936751,0.77268 -0.891855,0.25283 9.778518,4.95361 3.082307,7.27802 5.891282,0.90902 6.058893,6.06445 7.258207,9.32676 3.540982,3.68813 2.816257,-4.07246 7.053166,0.35981 -2.681159,-3.94866 -14.201549,-11.12564 -4.926085,-8.82381 -0.04959,-3.97417 -1.677553,-7.17883 1.164197,-7.10108 2.814142,-5.0964 -2.947283,12.56561 3.395953,6.08853 1.755916,-0.76674 2.190838,-5.10287 5.347037,0.40947 4.584217,4.50973 1.655842,7.77759 -4.810708,3.64825 1.156924,3.92473 8.650595,5.32728 7.242351,11.46478 1.492879,5.39807 3.581551,3.40986 5.402171,3.09778 1.42817,5.24485 2.23916,1.38821 2.30691,-1.10768 6.53921,1.39984 5.00752,5.26533 7.0536,7.96597 4.50608,2.03391 -6.44971,-13.78661 1.28644,-4.75712 8.13918,7.34845 3.05243,10.41594 -4.25171,9.23869 4.62293,-0.37346 6.11376,6.24988 11.89626,6.01718 5.27309,2.50854 8.84323,12.1434 -0.24591,8.13261 -3.15249,-2.8424 -14.30839,-6.34891 -5.19659,-0.94234 8.41566,3.89715 15.09965,6.22855 23.21621,11.12046 5.80875,4.14678 8.31834,8.89637 10.51997,9.83655 -4.88201,2.33183 -14.71248,-1.86203 -7.41278,-3.14729 -4.55302,-0.82938 -9.67405,-3.13184 -5.31298,2.54099 3.70832,3.0962 13.13802,2.76819 14.82843,3.11902 -1.43284,3.15719 -3.89199,3.40828 0.0587,3.65315 -4.40746,2.3488 1.41332,2.71249 1.82175,4.0546 z m -9.01291,-25.45201 c -2.68153,-2.80433 -3.37488,-8.05698 -0.47618,-3.48644 1.48649,0.59695 4.76186,8.58371 0.47624,3.48644 z m 29.35163,18.6447 c 1.67258,-0.10832 0.0485,1.27067 0,0 z m -33.58569,-25.5208 c -0.10282,-4.23979 0.96996,3.27018 0,0 z m -2.91717,-3.92494 c -3.3729,-6.51705 4.25212,1.84561 0,0 z M 101.69759,146.0442 c 1.98155,-0.52846 0.97489,3.38903 0,0 z m 28.13531,15.25029 c 1.21692,-4.56994 1.43009,3.83446 0,0 z m -19.87675,-13.82114 c -1.40122,-2.52174 2.93093,2.36504 0,0 z m 17.05846,5.46837 c -3.19545,-7.15916 2.26232,-3.91053 0.70697,1.17332 z M 97.597164,133.32325 c -1.428621,-2.34873 -3.791831,-9.24028 -3.03102,-11.34412 0.688282,3.4263 7.286236,14.7451 3.23649,4.68874 -4.47532,-8.42989 5.349606,2.73625 6.360236,4.83885 0.47061,2.09166 -2.76115,-0.57145 -0.57138,4.33298 -3.993385,-5.58383 -2.35744,3.08437 -5.994326,-2.51645 z m -9.091643,-6.26474 c 0.374259,-5.46111 2.081294,3.7448 0,0 z m 4.089507,1.40775 c 1.951488,-4.12196 3.308935,5.74637 0,0 z m -9.837409,-7.60999 c -3.384838,-3.36352 -5.834307,-6.46408 0.158371,-2.08752 2.3091,0.0901 -5.130242,-7.05087 0.55609,-2.26765 5.979375,1.09024 2.952647,9.80393 -0.714461,4.35517 z m 5.167465,-0.13509 c 1.965678,-1.94791 1.043538,1.9175 0,0 z m 3.179619,1.01933 c -2.980046,-5.5858 3.616769,2.3418 0,0 z m -6.320879,-6.04056 c -9.840002,-8.75692 12.364582,4.57899 1.607567,1.6235 l -1.607629,-1.62342 z m 28.193086,16.38079 c -4.25814,-2.55316 -1.12842,-17.97402 0.3237,-7.42725 4.13957,-1.33911 -0.22856,5.44686 2.859,5.38406 -0.4866,4.28151 -1.86789,5.8208 -3.1827,2.04319 z m 10.42796,6.16315 c 0.41763,-4.64739 0.87893,3.17738 0,0 z m -1.81131,-1.78967 c 0.46883,-1.98539 0.0484,2.33799 0,0 z M 86.714101,112.82241 c -6.321545,-8.72182 18.372069,8.82248 4.048846,2.21218 -1.496669,-0.39144 -3.297516,-0.53121 -4.048846,-2.21218 z m 20.080769,10.64674 c -0.59822,-7.34391 1.33595,1.21732 -2.1e-4,-2e-5 z m 15.24595,9.78017 c 1.17985,-4.18324 0.088,2.76731 0,0 z M 87.682486,109.49373 c 3.757137,-0.80361 15.570144,6.59841 4.722032,2.11436 -1.205356,-1.33438 -3.774921,-0.72812 -4.722032,-2.11436 z m 32.263684,16.08035 c 0.40158,-7.50937 2.24298,-4.4855 0.0139,1.0749 l -0.0138,-1.07489 -5e-5,-1e-5 z m -29.466929,-18.6934 c 1.530829,-2.24553 -4.063723,-10.152461 0.806451,-2.83625 2.104369,1.67209 6.092917,2.80117 2.571397,3.5046 5.538411,4.88581 -1.35082,1.32394 -3.377848,-0.66835 z m 27.871139,16.34778 c 1.05759,-8.55431 0.93265,5.01173 0,0 z M 87.282068,98.979728 c 1.169301,-0.499719 0.617525,1.558002 0,0 z m 7.269969,4.327072 c 1.870981,-3.925925 3.451461,4.37851 0,0 z m 20.506803,11.40767 c -0.0198,-1.50778 0.38688,2.19324 0,0 z m -1.18789,-2.62984 c -2.84628,-7.02196 2.64752,3.71779 0,0 z m -1.74763,-4.60387 c -0.47776,-2.90155 1.62375,3.64528 -9e-5,-1e-5 z m 2.84419,-4.62338 c -1.95314,-3.441918 2.46644,-15.167799 2.9596,-7.895515 -2.06148,5.666425 -0.59468,8.836335 0.84343,1.236068 2.65576,-5.98148 -0.57368,11.803367 -3.80308,6.659477 z m 2.92283,-17.438321 c 0.85143,-1.045527 0.18897,1.259613 0,0 z m -4.88109,96.181171 c -1.15775,-1.01036 0.14537,0.64292 0,0 z m 10.05537,5.08661 c 5.5933,1.43513 5.5647,-0.87025 0.50951,-1.55515 -2.71906,-2.52946 -11.29866,-5.21244 -3.61948,-0.31387 0.50857,1.28827 2.11563,1.25827 3.10997,1.86902 z m -19.859,-13.19023 c 3.08138,2.2978 11.60672,6.51235 4.38976,0.87458 2.43324,-2.827 -4.65731,-4.33177 -2.30521,-6.22282 -5.982637,-3.66085 -4.71946,-3.3352 -0.52806,-3.22002 -7.190053,-3.21379 1.03784,-2.97338 0.65043,-4.62014 -2.77243,-0.54756 -13.770614,-4.88862 -7.300437,0.35659 -6.577364,-3.35361 -1.567405,1.24927 -3.555418,0.76265 -6.725787,-1.83385 5.989705,5.12254 -1.068198,3.39566 3.858578,3.05779 10.385983,7.83239 1.631331,3.23593 -1.153498,1.66041 6.264912,4.17719 8.085802,5.43757 z m 10.51671,6.04175 c 12.78722,4.12061 -6.26918,-5.03422 0,0 z m 53.83554,32.61362 c 0.16494,-2.53684 -1.74767,2.16406 0,0 z m 5.53329,2.32879 c 2.95022,-2.85872 0.12061,4.55364 4.88852,-0.69983 0.0515,-3.76087 -0.14683,-5.98225 -5.47913,-1.41372 -1.46993,0.8152 -2.12617,4.28132 0.59061,2.11355 z M 85.256395,159.31889 c -0.906075,-3.5617 -6.351018,-3.54324 0,0 z m 5.908513,3.87179 c -2.194088,-3.63792 -7.828509,-3.29352 0,0 z m 33.613792,20.27175 c 3.28181,2.91498 15.07284,2.13884 3.98599,0.35871 -1.64206,-2.42786 -10.42677,-1.84354 -3.98599,-0.35871 z m 46.20784,28.53721 c 5.05097,-4.23836 -4.89384,1.89079 0,0 z m 10.50487,7.2189 c 0.0316,-1.36014 -2.17716,0.59549 0,0 z m 0.0162,-1.90419 c 5.59333,-5.9263 -5.41976,0.35051 -5e-5,0 z M 70.72405,147.15266 c -4.767224,-6.80193 -2.96344,-9.85935 -7.560688,-15.41321 -0.870301,-4.24709 -7.886702,-13.8846 -3.629031,-3.67443 3.899778,5.97147 5.05862,15.21703 11.189719,19.08764 z m 109.02909,68.27778 c 10.29039,-6.65117 -4.224,-2.89725 0,0 z m 7.85533,3.07724 c 5.15312,-4.42444 -3.25963,-0.9254 0,0 z M 83.505031,151.80047 c 1.474793,-2.19407 -3.808872,-0.28065 0,0 z m 102.463259,64.60615 c 4.98945,-3.21702 -1.14957,-2.7231 -0.90434,0.29585 l 0.90435,-0.29585 z m -67.71355,-42.68007 c -0.17152,-2.17229 -2.63479,0.18438 0,0 z m 4.18467,2.40787 c -1.32992,-2.68878 -2.04476,0.42235 0,0 z m 71.53494,42.44622 c 6.3921,-4.61122 -3.87482,-0.88285 -1.34174,0.87364 z m -2.44772,-1.18305 c 5.20719,-4.36345 -5.49754,1.9337 0,0 z m 12.50604,8.32834 c 3.49616,-2.34173 -4.24751,-0.75747 0,0 z M 86.711466,150.2183 c 4.686467,1.05002 18.728274,11.54151 10.444192,0.72559 -4.242763,-1.25592 -1.698253,-11.62702 -6.02591,-9.79147 2.904715,4.85251 2.389857,6.91788 -3.708749,3.85865 -7.664989,-3.74161 -4.307498,1.85424 -2.809506,3.39647 -2.041384,0.46391 2.700204,1.77176 2.099973,1.81076 z M 65.360064,133.35615 c 0.839006,-3.47012 -7.725299,-19.09056 -4.04419,-7.82696 1.328766,2.35944 1.193669,6.83107 4.04419,7.82696 z M 104.54906,157.517 c -2.41322,-2.01816 -0.11468,-0.28561 0,0 z m 5.94261,1.38295 c -0.003,-3.67592 -6.56869,-1.49272 0,0 z m 51.49749,32.46446 c -0.98219,-2.51152 -3.88242,-0.0582 1e-4,4e-5 z m 2.47297,1.80643 c -0.36507,-1.40568 -1.42676,0.27134 0,0 z m 20.41191,12.857 c 1.96319,-1.45035 -2.44984,-0.18523 0,0 z M 76.025238,136.0789 c 5.61521,-2.17397 -6.016284,-1.5502 0,0 z m 81.430452,51.30169 c -0.0625,-3.63519 -3.5797,0.90184 0,0 z M 73.806679,130.90901 c 3.606947,-1.21838 -3.336718,-0.80248 0,0 z m 10.4693,5.07137 c -0.06542,-1.19482 -1.10744,0.45224 0,0 z m 127.694401,78.30393 c 4.63815,-0.94037 15.2076,2.36077 16.91593,-1.22978 -5.6325,-0.13675 -19.48711,-3.97384 -20.1426,0.91568 l 1.23298,0.19424 1.99369,0.11985 z M 87.603383,136.8189 c 0.08063,-3.6836 -2.872513,-0.13758 0,0 z M 60.07694,117.72438 c -1.25008,-7.0183 -4.754536,-1.06218 0,0 z m 6.564062,1.64993 c 0.08063,-2.2536 -6.008106,-2.02779 0,0 z m 3.751159,1.84233 c -1.084324,-0.87833 -0.848736,1.10957 0,0 z m 23.60288,15.14126 c 1.111171,-1.02079 -2.630674,-0.75611 0,0 z M 67.893708,117.0616 c -0.634453,-5.30087 -7.602631,-0.79423 0,0 z m -13.457367,-8.73189 c -0.191395,-2.44644 -1.31143,0.92287 0,0 z m 2.001734,-1.51174 c -0.326576,-2.90085 -1.718631,0.36909 0,0 z m 11.060101,6.6019 c 4.67682,-1.83712 -8.518831,-3.8 -0.955612,-0.34709 z M 215.52033,204.8507 c 2.99341,-2.74444 -3.80442,-0.84852 0,0 z m 17.8821,9.26937 c 1.1996,-3.54827 -3.02024,0.46715 0,0 z M 68.628494,107.6229 c 0.492678,-3.43242 -3.707747,0.68155 0,0 z M 52.892657,97.080027 c -0.845329,-4.845921 -0.729702,-13.351897 7.355885,-10.477322 -10.792916,2.142821 7.469897,13.414505 5.163641,4.515116 4.538171,0.2222 8.877704,-2.682065 6.496128,1.725329 8.941523,-0.987544 15.140556,-8.741105 23.777472,-7.654605 6.727747,-0.890303 14.083627,-1.565531 21.333627,-4.273671 5.96088,-0.429432 11.69903,-6.847217 8.4317,-10.651174 -8.12891,-0.687801 -16.63816,0.329265 -25.622876,2.115121 -9.956192,2.069751 -18.999768,6.002127 -29.045334,7.690088 -9.791592,1.315316 1.96949,3.624009 -0.835214,4.138355 -5.109396,1.772813 6.093356,2.968294 -0.662393,4.837181 -4.172224,-0.793304 -8.514976,-2.226841 -6.732787,-6.6236 -9.379485,1.217108 -17.621361,5.109907 -10.211001,14.654744 l 0.551142,0.0042 1e-5,-2.91e-4 z M 75.493806,85.569356 c 2.19916,-8.101505 11.78195,6.666552 3.60454,1.076083 -0.97673,-0.730973 -2.583098,-1.327317 -3.60454,-1.076083 z m 0.427847,-3.927833 c 3.174015,-2.364594 1.687285,1.325693 0,0 z m 4.030252,0.06397 c 0.28653,-3.727906 9.225957,1.973533 1.474011,1.342008 z m 5.513023,-2.216611 c 2.013276,-2.352395 0.578697,2.092442 0,0 z m 1.410347,-0.944412 c 3.352324,-4.027979 18.984515,-2.57071 7.54229,-0.39275 -3.066929,-2.308964 -5.417867,1.361437 -7.54229,0.39275 z m 20.400375,-3.14469 c -0.50995,-11.002564 10.13506,3.909947 0,0 z m 5.78849,-0.03168 c 2.11629,-5.545422 8.21256,-2.225236 0.97932,-1.114347 0.15707,0.590115 -0.2121,2.862845 -0.97932,1.114347 z m -46.718222,29.40842 c 6.323234,-3.8721 -6.712827,-3.35933 0,0 z m 4.675373,1.29919 c 2.216975,-2.35734 -4.817189,-0.95615 0,0 z M 57.245462,96.29886 c 3.613093,-2.775513 -4.275588,-1.055258 0,0 z M 243.95751,213.10591 c 0.10443,-3.22012 -2.7616,1.45109 0,0 z m -18.97229,-12.94717 c 0.53949,-3.70739 -2.43811,0.32322 0,0 z m 24.1894,14.19573 c 5.05166,0.0171 15.30613,-1.56881 4.31465,-1.56378 -1.72481,0.26899 -10.05012,0.2113 -4.31464,1.56375 z M 75.133842,103.80332 c 4.088329,-0.28081 6.396428,-4.509725 -0.790678,-4.266636 -11.138787,-1.153185 9.827565,3.813976 -1.428934,2.393686 -1.512524,1.00164 2.131748,2.15009 2.219612,1.87295 z m 3.600632,1.82244 c -0.426869,-2.62493 -1.264249,1.39444 0,0 z m 4.271099,-11.389046 c 1.774116,-2.200525 -2.45498,-0.588292 0,0 z M 69.408993,71.509322 c 7.296431,-2.482212 17.274189,-5.271423 20.719315,1.222183 -3.506164,-4.219938 -1.414952,-8.374224 1.896629,-2.204339 4.682611,6.24261 7.026819,-2.839312 3.981182,-4.933201 3.470755,4.312457 7.418361,6.350258 2.32383,0.27257 5.536081,-6.659332 -11.085041,0.872031 -14.86291,0.796189 -1.817673,0.815857 -18.766025,4.322293 -14.058046,4.846598 z m 4.276122,-8.189535 c 4.161222,-3.140741 14.391715,1.868218 7.826862,-3.121342 -0.641839,-0.566946 -14.377048,3.783651 -7.826862,3.121342 z m 15.170547,0.626315 c 4.870132,0.124275 -2.100702,-6.542549 3.702675,-3.521603 -0.953111,-3.113673 -6.756759,-3.69659 -9.594101,-4.940585 -1.604807,2.84678 3.266533,8.500453 5.891426,8.462188 z M 76.34522,50.175046 c 1.684825,-2.283981 -2.952772,1.157916 0,0 z m 6.200417,1.484064 c 7.84824,-1.040953 -2.000545,-3.379816 -1.581458,-0.08365 l 1.581458,0.08365 v -10e-6 z M 70.96819,42.600035 c -5.526034,-7.213745 10.392448,1.212608 4.777997,-6.340433 -4.72548,-3.76291 -9.2664,4.234553 -4.777997,6.340433 z m 70.91783,38.198388 c 2.53453,-4.49307 -10.46411,-6.056404 -1.70769,-1.592409 0.8062,0.269405 0.62374,1.903161 1.70769,1.592409 z"
       id="path2900" />
    <g
       style="font-style:normal;font-weight:normal;font-size:40px;font-family:'Bitstream Vera Sans';fill:#999999;fill-opacity:1;stroke:none"
       id="text3850">
      <path
         d="m 261.52029,49.809669 c -0.90675,3.573435 -1.46674,9.573429 -1.67999,18.000001 -9e-5,1.653418 -0.74675,2.480084 -2.24,2.479999 -1.49342,8.5e-5 -2.53341,-0.719914 -3.12001,-2.159999 -1.60007,-3.893243 -3.12007,-6.613241 -4.55999,-8.16 -1.70674,-1.813238 -3.97341,-2.90657 -6.8,-3.280001 -3.04007,-0.479902 -10.6134,-0.7199 -22.72,-0.719999 -2.77338,9.9e-5 -4.58671,0.293431 -5.44,0.879999 -0.53338,0.373431 -0.80004,1.173431 -0.80001,2.4 V 95.48967 c -3e-5,1.226724 0.77331,1.81339 2.32,1.76 4.74662,-0.05327 11.62662,-0.373276 20.64001,-0.96 1.75993,-0.213275 2.9466,-0.786608 3.56,-1.72 0.61326,-0.933272 1.21326,-3.346603 1.8,-7.24 0.37326,-2.133265 1.6266,-2.959931 3.75999,-2.480001 1.81327,0.373403 2.5866,1.200069 2.32001,2.480001 -1.4934,7.253392 -1.97341,16.69338 -1.44001,28.32 0.0532,1.3867 -0.82673,2.13337 -2.63999,2.24 -1.49341,0.16003 -2.42673,-0.63996 -2.80001,-2.40001 -1.38672,-6.66661 -3.96006,-10.22661 -7.71999,-10.67999 -3.76005,-0.45328 -9.88005,-0.67995 -18.36,-0.68 -0.96004,5e-5 -1.44004,0.34672 -1.44001,1.04 v 36 c -3e-5,2.66667 0.98664,4.48 2.96,5.44 1.54662,0.80002 4.87997,1.52 10.00001,2.15999 2.61328,0.26668 3.75995,1.41335 3.43999,3.44001 -0.32004,1.76 -2.66671,2.45334 -7.04,2.08 -12.64002,-1.01333 -23.06668,-0.96 -31.27999,0.16 -2.29336,0.32 -3.44001,-0.61333 -3.44,-2.80001 -1e-5,-1.38665 1.14664,-2.18665 3.44,-2.39999 5.22664,-0.58666 7.83997,-5.17333 7.83999,-13.76 v -68.48 c -2e-5,-3.51991 -0.62669,-6.226573 -1.87999,-8.12 -1.25336,-1.893236 -3.58669,-3.613235 -7.00001,-5.16 -2.13335,-0.959898 -2.93334,-2.266565 -2.39999,-3.920001 0.26664,-1.013226 0.69331,-1.573226 1.28,-1.679999 0.53332,-0.159894 1.94664,-0.05323 4.23999,0.32 3.35999,0.533438 11.27998,0.800105 23.76,0.8 14.71996,1.05e-4 27.43993,-0.319895 38.16001,-0.96 3.57325,-0.213227 5.35991,0.08011 5.35999,0.879999 -8e-5,0.213438 -0.0268,0.426772 -0.08,0.64 z"
         style="font-size:144px;font-family:'High Tower Text';-inkscape-font-specification:'High Tower Text';stroke-width:1.13778;fill:#999999"
         id="path2830" />
      <path
         d="m 313.5203,151.48967 c -4e-5,2.13334 -1.20005,3.06667 -3.60001,2.8 -7.36002,-0.69333 -16.48001,-0.58666 -27.35999,0.32 -2.18669,0.21333 -3.53335,0.16 -4.04,-0.16 -0.50668,-0.32 -0.76001,-1.20001 -0.76,-2.64 -10e-6,-1.28 1.45331,-2.36 4.36,-3.24001 2.90664,-0.87999 4.35998,-3.50664 4.35999,-7.87999 v -72.4 c -1e-5,-4.31991 -0.62667,-7.49324 -1.87999,-9.520001 -1.25336,-2.026568 -3.45336,-3.599899 -6.6,-4.719999 -1.65335,-0.586566 -2.48001,-1.413233 -2.48,-2.480001 -1e-5,-1.599895 1.19999,-2.799894 3.59999,-3.599999 3.62665,-1.173226 7.38665,-2.986557 11.28,-5.44 3.19998,-1.919888 5.22664,-2.879885 6.08,-2.88 1.97331,1.15e-4 2.95998,1.360113 2.96001,4.079999 -3e-5,-0.213222 -0.10672,2.453442 -0.32,8 -0.16003,5.280097 -0.21337,10.480092 -0.16001,15.600001 l 0.32,71.44 c -2e-5,3.25335 0.79998,5.61334 2.40001,7.08 1.59997,1.46667 4.34663,2.44 8.23999,2.91999 2.39996,0.26668 3.59997,1.17335 3.60001,2.72001 z"
         style="font-size:144px;font-family:'High Tower Text';-inkscape-font-specification:'High Tower Text';stroke-width:1.13778;fill:#999999"
         id="path2832" />
      <path
         d="m 386.4803,146.12967 c -8e-5,1.12 -2.04008,2.81334 -6.12,5.07999 -4.08007,2.26667 -7.34673,3.4 -9.8,3.40001 -2.08005,-1e-5 -3.92005,-1.01333 -5.52,-3.04 -1.60004,-2.02666 -2.72005,-3.04 -3.36001,-3.04 -0.48003,0 -3.01337,1.09334 -7.6,3.28 -4.5867,2.18666 -9.20002,3.28 -13.84,3.28 -4.37336,0 -8.02668,-1.28 -10.95999,-3.84 -3.20001,-2.82666 -4.80001,-6.66666 -4.8,-11.52 -10e-6,-9.22664 10.55998,-15.83997 31.68,-19.84 3.62661,-0.6933 5.46662,-2.15997 5.51999,-4.40001 l 0.16001,-5.11999 c 0.31996,-8.74661 -3.54672,-13.119943 -11.60001,-13.12 -2.29336,5.7e-5 -4.46669,2.053388 -6.51999,6.16 -2.05336,4.10671 -5.00003,6.32005 -8.84001,6.64 -4.37335,0.42671 -6.56,-1.41329 -6.55999,-5.52 -10e-6,-2.55995 3.25331,-5.546611 9.75999,-8.960001 6.82664,-3.57327 13.38664,-5.359935 19.68001,-5.359999 10.82661,6.4e-5 16.1866,5.146726 16.07999,15.44 l -0.32,32.96 c -0.0533,3.46668 1.41328,5.20002 4.40001,5.2 0.5866,2e-5 1.70659,-0.13332 3.35999,-0.4 1.65327,-0.26665 2.61327,-0.4 2.88,-0.40001 1.5466,1e-5 2.31993,1.04001 2.32001,3.12001 z m -24.64,-18.24 c 0.0532,-1.33331 -0.25339,-2.21331 -0.92001,-2.64 -0.6667,-0.42664 -1.72003,-0.50664 -3.15999,-0.24 -12.85337,2.29336 -19.28002,6.48002 -19.28,12.55999 -2e-5,6.13336 3.3333,9.20003 10,9.20001 2.66663,2e-5 5.41329,-0.50666 8.24,-1.52001 3.30662,-1.17332 4.95995,-2.58664 4.95999,-4.23999 z"
         style="font-size:144px;font-family:'High Tower Text';-inkscape-font-specification:'High Tower Text';stroke-width:1.13778;fill:#999999"
         id="path2834" />
      <path
         d="m 446.16029,136.60966 c -6e-5,5.65335 -2.17338,10.14668 -6.52,13.48001 -4.34671,3.33334 -10.28003,5 -17.8,5 -5.01336,0 -10.02669,-0.53333 -15.04,-1.6 -4.32,-0.96 -6.82668,-1.84001 -7.51999,-2.64 -0.42668,-0.74666 -0.64001,-4.39998 -0.64,-10.96 -1e-5,-2.82664 0.63999,-4.29332 1.92,-4.4 1.27999,-0.15998 2.37331,0.53335 3.28,2.07999 3.99998,6.98669 10.45331,10.48003 19.35999,10.48001 7.51996,2e-5 11.27997,-2.61333 11.28001,-7.84 -4e-5,-2.29332 -0.85338,-4.21331 -2.56,-5.76 -1.86671,-1.75997 -5.49338,-3.81332 -10.88,-6.16001 -7.78669,-3.46663 -12.98669,-6.50663 -15.6,-9.11999 -2.82669,-2.7733 -4.24001,-6.50663 -4.24,-11.2 -1e-5,-5.75995 2.21332,-10.239944 6.63999,-13.44 4.10665,-3.09327 9.59998,-4.639936 16.48001,-4.64 4.31996,6.4e-5 8.26662,0.34673 11.84,1.039999 3.83995,0.693397 5.83995,1.546729 6,2.56 0.42661,2.986726 1.30661,7.306721 2.64,12.960001 0.15995,0.69338 -0.58672,1.25338 -2.24,1.68 -1.76005,0.37338 -2.93339,0.08 -3.52,-0.88 -4.21339,-6.87995 -9.54671,-10.319943 -16,-10.32 -7.3067,5.7e-5 -10.96002,2.346721 -10.96,7.04 -2e-5,2.61338 0.98663,4.69338 2.96,6.24 1.75997,1.33338 5.8933,3.41337 12.4,6.23999 6.82662,2.93338 11.46661,5.57338 13.91999,7.92001 3.19994,3.04003 4.79994,7.12002 4.8,12.23999 z"
         style="font-size:144px;font-family:'High Tower Text';-inkscape-font-specification:'High Tower Text';stroke-width:1.13778;fill:#999999"
         id="path2836" />
      <path
         d="m 538.96029,151.00966 c -8e-5,1.86668 -1.25341,2.85335 -3.76,2.96001 -3.7334,0.0533 -8.6134,0.31999 -14.63999,0.8 -2.98673,0.58666 -5.12007,0.21334 -6.4,-1.12 -8.42672,-9.06666 -15.57338,-18.55998 -21.44,-28.48 -0.48004,-0.85331 -1.09337,-1.27997 -1.84,-1.28 -0.90671,3e-5 -2.48004,0.80004 -4.72001,2.4 -2.50669,1.38669 -3.76002,3.36003 -3.76,5.92 -2e-5,1.81335 0.0533,4.42669 0.16001,7.84 0.10656,3.41335 0.95997,5.65335 2.56,6.72 1.11997,0.74668 3.70662,1.33334 7.75999,1.76 2.50663,0.32 3.75996,1.25334 3.76001,2.79999 -5e-5,1.22668 -0.20004,1.98668 -0.6,2.28001 -0.40004,0.29333 -1.45338,0.36 -3.16001,0.2 -5.33337,-0.48 -14.34668,-0.21333 -27.03999,0.8 -3.20001,0.26667 -4.93335,-0.13333 -5.20001,-1.2 -0.10656,-0.37334 -0.16,-0.90667 -0.15999,-1.6 -10e-6,-1.65333 1.62665,-2.90666 4.87999,-3.76 2.93332,-0.74665 4.4,-4.18666 4.40001,-10.32 v -69.92 c -10e-6,-4.373243 -0.42668,-7.41324 -1.28,-9.12 -1.17335,-2.186569 -3.62668,-3.893234 -7.36,-5.12 -1.76001,-0.586565 -2.64001,-1.413232 -2.64,-2.480001 -10e-6,-1.546562 1.25332,-2.74656 3.75999,-3.599999 4,-1.333225 7.81332,-3.173223 11.44,-5.520001 2.93332,-1.919886 4.74665,-2.879884 5.44,-2.88 2.18664,1.16e-4 3.27998,1.386781 3.28,4.16 -2e-5,-0.373221 -0.0268,2.266776 -0.08,7.920001 -0.0533,3.893433 -0.08,9.120093 -0.08,15.68 l 0.15999,50.08 c -2e-5,1.3867 0.37331,2.08003 1.12001,2.07999 0.79997,4e-5 2.02663,-0.69329 3.67999,-2.07999 4.42664,-3.46663 9.86663,-7.99995 16.32,-13.6 1.27995,-1.33328 1.91995,-2.39995 1.92,-3.2 -5e-5,-1.439945 -2.16005,-2.453277 -6.47999,-3.04 -1.86671,-0.213276 -2.74671,-1.253275 -2.64,-3.120001 0.15996,-1.866603 1.09329,-2.666603 2.8,-2.4 3.83994,0.533397 9.43993,0.826729 16.8,0.880001 5.11992,0.0534 10.21326,0.08006 15.28,0.08 1.65326,0.0534 2.47992,1.040061 2.48,2.960001 -8e-5,1.81339 -1.30675,2.800055 -3.92001,2.959999 -4.10673,0.160056 -7.9734,1.093389 -11.59999,2.8 -5.06672,2.29338 -10.48006,6.32005 -16.24001,12.07999 -0.42671,0.32005 -0.64005,0.72005 -0.64,1.2 -5e-5,0.74672 0.90663,2.53338 2.72001,5.36001 6.66661,10.13336 12.95993,17.78668 18.88,22.96 3.78659,3.25334 7.33326,4.88002 10.64,4.88 2.45325,2e-5 3.97325,0.17334 4.55999,0.51999 0.58659,0.34668 0.87992,1.26668 0.88001,2.76 z"
         style="font-size:144px;font-family:'High Tower Text';-inkscape-font-specification:'High Tower Text';stroke-width:1.13778;fill:#999999"
         id="path2838" />
    </g>
    <g
       style="font-style:normal;font-weight:normal;font-size:40px;line-height:90%;font-family:'Bitstream Vera Sans';fill:#999999;fill-opacity:1;stroke:none"
       id="text2870"
       transform="translate(0,4.5511111)">
      <path
         d="m 324.47201,174.34124 c -2e-5,0.18666 -0.35779,0.37853 -1.07333,0.57555 -0.46668,0.12445 -0.86076,0.54964 -1.18222,1.27555 -1.86669,4.14816 -3.53632,7.4926 -5.00889,10.03333 -0.0311,0.0623 -0.10888,0.0882 -0.23333,0.0779 -0.1141,-0.0107 -0.19187,-0.0466 -0.23333,-0.10888 -0.24891,-0.37334 -0.88669,-1.67482 -1.91334,-3.90445 -0.94372,-2.05334 -1.45186,-3.07999 -1.52446,-3.07999 -0.11408,0 -0.66889,0.99037 -1.66443,2.97109 -1.13037,2.2089 -1.79927,3.4689 -2.00667,3.78001 -0.0311,0.0725 -0.10379,0.10368 -0.21777,0.0933 -0.11408,0 -0.20224,-0.0415 -0.26445,-0.12445 -0.75704,-1.18223 -2.49927,-4.41777 -5.22666,-9.70667 -0.31112,-0.62221 -0.65852,-1.01628 -1.04222,-1.18223 -0.66372,-0.29036 -0.99557,-0.50294 -0.99557,-0.63777 0,-0.40443 0.22297,-0.58592 0.6689,-0.54445 2.00147,0.20743 3.75406,0.16593 5.25777,-0.12443 0.34222,-0.0622 0.51333,0.0518 0.51333,0.34221 0,0.40446 -0.23333,0.66372 -0.7,0.77779 -0.61186,0.14518 -0.91778,0.37334 -0.91777,0.68443 -10e-6,0.19706 0.0726,0.48743 0.21778,0.87112 0.37333,0.96445 0.93332,2.18815 1.67999,3.67111 0.74666,1.48297 1.18221,2.22444 1.30668,2.22444 0.083,0 0.52368,-0.77258 1.32222,-2.31777 0.79851,-1.54518 1.19776,-2.40074 1.19777,-2.56667 -10e-6,-0.40443 -0.13483,-0.83999 -0.40444,-1.30667 -0.32149,-0.68443 -0.69483,-1.09406 -1.12,-1.22889 -0.68444,-0.23851 -1.02668,-0.47184 -1.02667,-0.7 -10e-6,-0.41479 0.23333,-0.58591 0.70001,-0.51333 1.59702,0.2178 3.28739,0.17632 5.07111,-0.12445 0.34221,-0.0622 0.51331,0.0415 0.51332,0.31111 -1e-5,0.39409 -0.25408,0.6378 -0.76221,0.73112 -0.6015,0.11409 -0.90223,0.42001 -0.90222,0.91778 -10e-6,0.23852 0.0673,0.51853 0.20222,0.84 1.59702,3.90963 2.51997,5.86445 2.76889,5.86445 0.0933,0 0.50813,-0.76223 1.24444,-2.28668 0.78813,-1.62814 1.33776,-2.93998 1.64889,-3.93555 0.0207,-0.0518 0.031,-0.10889 0.031,-0.17111 -2e-5,-0.44592 -0.34743,-0.79333 -1.04222,-1.04223 -0.53928,-0.17628 -0.80891,-0.37332 -0.80889,-0.59111 -2e-5,-0.36294 0.17109,-0.50295 0.51333,-0.42 0.46665,0.10379 1.30665,0.1815 2.52,0.23334 1.14073,0.0415 1.89257,0.0363 2.25556,-0.0156 0.42516,-0.0518 0.63776,0.0674 0.63778,0.35778 z"
         style="font-variant:normal;font-stretch:normal;font-size:28px;line-height:90%;font-family:'High Tower Text';-inkscape-font-specification:'High Tower Text';text-align:end;writing-mode:lr-tb;text-anchor:end;stroke-width:1.13778;fill:#999999"
         id="path2877" />
      <path
         d="m 338.25423,183.16123 c -1e-5,0.44593 -0.60148,1.00074 -1.80445,1.66444 -1.36888,0.7363 -2.77407,1.10445 -4.21554,1.10445 -1.56593,0 -2.88297,-0.51334 -3.95111,-1.54 -1.14075,-1.08888 -1.71112,-2.54073 -1.71112,-4.35555 0,-2.05333 0.63778,-3.70222 1.91333,-4.94667 1.1926,-1.16147 2.65481,-1.74221 4.38667,-1.74223 1.02667,2e-5 1.98592,0.32668 2.87778,0.98002 0.79851,0.58073 1.3274,1.24444 1.58667,1.9911 0.0933,0.25926 0.23332,0.40445 0.42,0.43555 0.26962,0.0518 0.40443,0.23336 0.40445,0.54445 -2e-5,0.42519 -0.50816,0.78815 -1.52445,1.0889 l -7.17112,2.1311 c 0.46667,2.46815 1.73185,3.70222 3.79557,3.70222 1.19257,0 2.55109,-0.43555 4.07555,-1.30667 0.22814,-0.1348 0.4511,-0.20222 0.66888,-0.20222 0.16591,0 0.24888,0.15037 0.24889,0.45111 z m -3.68666,-6.23777 c -10e-6,-0.57036 -0.23075,-1.07073 -0.69222,-1.50112 -0.46149,-0.43035 -1.02927,-0.64554 -1.70334,-0.64555 -1.90815,1e-5 -2.86222,1.37408 -2.86222,4.12222 v 0.37333 l 4.23111,-1.27555 c 0.68444,-0.19704 1.02666,-0.55481 1.02667,-1.07333 z"
         style="font-variant:normal;font-stretch:normal;font-size:28px;line-height:90%;font-family:'High Tower Text';-inkscape-font-specification:'High Tower Text';text-align:end;writing-mode:lr-tb;text-anchor:end;stroke-width:1.13778;fill:#999999"
         id="path2879" />
      <path
         d="m 353.98091,178.79012 c -2e-5,2.05335 -0.71558,3.77482 -2.14667,5.16445 -1.36891,1.33777 -2.99705,2.00667 -4.88445,2.00667 -1.06816,0 -2.18296,-0.1763 -3.34444,-0.52889 -1.12001,-0.34223 -1.68519,-0.65333 -1.69556,-0.93334 -0.0107,-0.23852 -0.005,-1.07332 0.0156,-2.50445 0.031,-1.75259 0.0466,-3.02814 0.0466,-3.82666 0,-1.20295 -0.0107,-2.94777 -0.031,-5.23445 -0.0207,-2.28664 -0.0312,-3.80331 -0.0312,-4.54999 0,-0.74665 -0.11408,-1.25998 -0.34223,-1.54 -0.2074,-0.24888 -0.65851,-0.4459 -1.35332,-0.59112 -0.26963,-0.0933 -0.40445,-0.26443 -0.40445,-0.51333 0,-0.21776 0.20222,-0.39923 0.60667,-0.54444 0.58073,-0.20739 1.30148,-0.5548 2.16222,-1.04223 0.68443,-0.38368 1.10963,-0.57553 1.27556,-0.57555 0.32147,2e-5 0.48221,0.26446 0.48222,0.79333 -10e-6,0.0415 -0.0156,0.58076 -0.0466,1.61777 -0.0207,0.97484 -0.0259,1.96521 -0.0156,2.97112 l 0.031,5.38223 c 0,0.50815 0.17629,0.65334 0.5289,0.43555 1.24442,-0.71554 2.54072,-1.07332 3.88887,-1.07333 1.55555,1e-5 2.82074,0.46927 3.79557,1.40777 0.9748,0.93854 1.46219,2.16482 1.46222,3.67889 z m -2.48889,1.38444 c -2e-5,-1.42073 -0.3941,-2.58739 -1.18223,-3.49999 -0.74668,-0.86074 -1.65408,-1.29111 -2.72222,-1.29112 -0.7363,1e-5 -1.46224,0.19187 -2.17779,0.57556 -0.71555,0.38371 -1.07333,0.78816 -1.07332,1.21333 v 4.16889 c -10e-6,2.00149 1.10444,3.00223 3.31332,3.00222 1.15112,1e-5 2.07927,-0.37074 2.78446,-1.11221 0.70516,-0.74148 1.05776,-1.76037 1.05778,-3.05668 z"
         style="font-variant:normal;font-stretch:normal;font-size:28px;line-height:90%;font-family:'High Tower Text';-inkscape-font-specification:'High Tower Text';text-align:end;writing-mode:lr-tb;text-anchor:end;stroke-width:1.13778;fill:#999999"
         id="path2881" />
      <path
         d="m 379.14979,184.25012 c 0.0415,0.0933 0.0622,0.16074 0.0622,0.20222 -2e-5,0.21777 -0.52891,0.57556 -1.58666,1.07335 -1.22372,0.57036 -1.94447,0.85555 -2.16223,0.85555 -0.18668,0 -0.40185,-0.31372 -0.64555,-0.94112 -0.24372,-0.62741 -0.41224,-0.94111 -0.50555,-0.94111 0.0107,0 -0.57817,0.27222 -1.76557,0.81667 -1.18741,0.54444 -2.08704,0.81666 -2.69888,0.81666 -1.36889,0 -2.55631,-0.49259 -3.56223,-1.47778 -1.21333,-1.17184 -1.82,-2.81554 -1.82,-4.9311 0,-1.77333 0.71556,-3.30296 2.14667,-4.5889 1.26519,-1.13035 2.5563,-1.69554 3.87334,-1.69555 0.93331,1e-5 2.04813,0.11927 3.34444,0.35778 0.40444,0.0725 0.60666,-0.0466 0.60667,-0.35778 v -5.32 c -1e-5,-0.60146 -0.1452,-1.02665 -0.43556,-1.27555 -0.18667,-0.16591 -0.62742,-0.36295 -1.32222,-0.59112 -0.33186,-0.12441 -0.4978,-0.32664 -0.49778,-0.60667 -2e-5,-0.25924 0.22296,-0.45109 0.66889,-0.57555 0.61184,-0.18664 1.34295,-0.49776 2.19333,-0.93333 0.70518,-0.37331 1.14073,-0.55998 1.30667,-0.56 0.38369,2e-5 0.57554,0.26446 0.57555,0.79333 -10e-6,-0.0107 -0.0156,0.50558 -0.0466,1.54778 -0.0311,1.04224 -0.0466,2.05595 -0.0466,3.04111 v 14.14 c -2e-5,0.59111 0.26443,0.88666 0.79334,0.88666 0.19701,0 0.46146,-0.031 0.79332,-0.0933 0.36296,-0.0622 0.60666,0.057 0.73112,0.35778 z m -4.80666,-1.54 v -5.56888 c -2e-5,-0.4563 -0.40446,-0.92814 -1.21334,-1.41555 -0.86074,-0.51851 -1.79408,-0.77779 -2.8,-0.7778 -2.16741,1e-5 -3.25111,1.3378 -3.2511,4.01335 -10e-6,1.4311 0.43036,2.65481 1.2911,3.6711 0.86074,1.0163 1.87185,1.52445 3.03334,1.52445 0.52887,0 1.1511,-0.17629 1.86666,-0.52889 0.71554,-0.35259 1.07332,-0.65852 1.07334,-0.91778 z"
         style="font-variant:normal;font-stretch:normal;font-size:28px;line-height:90%;font-family:'High Tower Text';-inkscape-font-specification:'High Tower Text';text-align:end;writing-mode:lr-tb;text-anchor:end;stroke-width:1.13778;fill:#999999"
         id="path2883" />
      <path
         d="m 392.63646,183.16123 c -10e-6,0.44593 -0.60149,1.00074 -1.80445,1.66444 -1.3689,0.7363 -2.77408,1.10445 -4.21555,1.10445 -1.56594,0 -2.88298,-0.51334 -3.95111,-1.54 -1.14074,-1.08888 -1.71111,-2.54073 -1.71111,-4.35555 0,-2.05333 0.63777,-3.70222 1.91333,-4.94667 1.19258,-1.16147 2.65481,-1.74221 4.38667,-1.74223 1.02665,2e-5 1.98591,0.32668 2.87778,0.98002 0.79851,0.58073 1.32738,1.24444 1.58667,1.9911 0.0933,0.25926 0.23331,0.40445 0.42,0.43555 0.26961,0.0518 0.40441,0.23336 0.40444,0.54445 -3e-5,0.42519 -0.50816,0.78815 -1.52445,1.0889 l -7.17111,2.1311 c 0.46666,2.46815 1.73184,3.70222 3.79556,3.70222 1.19257,0 2.55109,-0.43555 4.07556,-1.30667 0.22813,-0.1348 0.45109,-0.20222 0.66888,-0.20222 0.16591,0 0.24888,0.15037 0.24889,0.45111 z m -3.68667,-6.23777 c -1e-5,-0.57036 -0.23074,-1.07073 -0.69222,-1.50112 -0.46148,-0.43035 -1.02926,-0.64554 -1.70334,-0.64555 -1.90814,1e-5 -2.86222,1.37408 -2.86222,4.12222 v 0.37333 l 4.23112,-1.27555 c 0.68442,-0.19704 1.02665,-0.55481 1.02666,-1.07333 z"
         style="font-variant:normal;font-stretch:normal;font-size:28px;line-height:90%;font-family:'High Tower Text';-inkscape-font-specification:'High Tower Text';text-align:end;writing-mode:lr-tb;text-anchor:end;stroke-width:1.13778;fill:#999999"
         id="path2885" />
      <path
         d="m 409.7009,174.31012 c -10e-6,0.19705 -0.32668,0.39928 -0.97999,0.60667 -0.4252,0.12445 -0.78816,0.54964 -1.0889,1.27555 -0.50816,1.22371 -1.39483,3.01778 -2.66,5.38222 -1.06816,2.00149 -1.89261,3.46371 -2.47332,4.38668 -0.0312,0.0725 -0.0986,0.10368 -0.20223,0.0933 -0.10379,-0.0107 -0.18149,-0.0518 -0.23333,-0.12444 -2.19852,-3.16296 -4.08075,-6.39851 -5.64667,-9.70666 -0.33186,-0.70519 -0.65853,-1.09926 -0.98001,-1.18223 -0.60147,-0.2385 -0.90221,-0.4511 -0.90221,-0.63777 0,-0.41481 0.20222,-0.59629 0.60667,-0.54445 0.63258,0.083 1.5711,0.10379 2.81555,0.0622 1.20296,-0.031 2.04814,-0.0933 2.53555,-0.18667 0.30074,-0.0622 0.4511,0.0518 0.45112,0.34222 -2e-5,0.36297 -0.21261,0.59631 -0.63779,0.7 -0.80888,0.21779 -1.21333,0.49778 -1.21332,0.83999 -10e-6,0.15557 0.0518,0.37852 0.15554,0.66889 0.35259,0.87113 0.98519,2.12854 1.89778,3.77223 0.91259,1.64371 1.43111,2.46555 1.55557,2.46555 0.0933,0 0.53406,-0.78815 1.32222,-2.36444 0.82962,-1.66963 1.4259,-3.01777 1.78889,-4.04445 0.0518,-0.11406 0.0777,-0.22814 0.0779,-0.34222 -1e-5,-0.40444 -0.24891,-0.73628 -0.74667,-0.99555 -0.48741,-0.19704 -0.73111,-0.3837 -0.7311,-0.56001 -10e-6,-0.36295 0.16072,-0.51332 0.48221,-0.45111 0.41481,0.0725 1.14593,0.13483 2.19334,0.18667 1.04739,0.0518 1.72664,0.0623 2.03777,0.0311 0.38369,-0.0726 0.57554,0.0363 0.57556,0.32666 z"
         style="font-variant:normal;font-stretch:normal;font-size:28px;line-height:90%;font-family:'High Tower Text';-inkscape-font-specification:'High Tower Text';text-align:end;writing-mode:lr-tb;text-anchor:end;stroke-width:1.13778;fill:#999999"
         id="path2887" />
      <path
         d="m 423.49869,183.16123 c -1e-5,0.44593 -0.60151,1.00074 -1.80445,1.66444 -1.3689,0.7363 -2.77409,1.10445 -4.21556,1.10445 -1.56593,0 -2.88297,-0.51334 -3.95111,-1.54 -1.14074,-1.08888 -1.71111,-2.54073 -1.71111,-4.35555 0,-2.05333 0.63777,-3.70222 1.91333,-4.94667 1.19259,-1.16147 2.65482,-1.74221 4.38667,-1.74223 1.02665,2e-5 1.98591,0.32668 2.87778,0.98002 0.79851,0.58073 1.32739,1.24444 1.58667,1.9911 0.0933,0.25926 0.23331,0.40445 0.42,0.43555 0.26962,0.0518 0.40442,0.23336 0.40444,0.54445 -2e-5,0.42519 -0.50817,0.78815 -1.52445,1.0889 l -7.17111,2.1311 c 0.46667,2.46815 1.73185,3.70222 3.79556,3.70222 1.19258,0 2.5511,-0.43555 4.07556,-1.30667 0.22814,-0.1348 0.45109,-0.20222 0.66888,-0.20222 0.16591,0 0.24889,0.15037 0.2489,0.45111 z m -3.68668,-6.23777 c -10e-6,-0.57036 -0.23074,-1.07073 -0.69222,-1.50112 -0.46149,-0.43035 -1.02926,-0.64554 -1.70333,-0.64555 -1.90815,1e-5 -2.86222,1.37408 -2.86222,4.12222 v 0.37333 l 4.2311,-1.27555 c 0.68444,-0.19704 1.02666,-0.55481 1.02667,-1.07333 z"
         style="font-variant:normal;font-stretch:normal;font-size:28px;line-height:90%;font-family:'High Tower Text';-inkscape-font-specification:'High Tower Text';text-align:end;writing-mode:lr-tb;text-anchor:end;stroke-width:1.13778;fill:#999999"
         id="path2889" />
      <path
         d="m 433.11202,185.32346 c -10e-6,0.41481 -0.23335,0.59629 -0.70001,0.54444 -1.43111,-0.13481 -3.20445,-0.11408 -5.32,0.0622 -0.42518,0.0415 -0.68703,0.031 -0.78556,-0.0311 -0.0986,-0.0623 -0.14776,-0.23333 -0.14776,-0.51333 0,-0.24888 0.28258,-0.45889 0.84777,-0.62999 0.56519,-0.17112 0.84777,-0.68186 0.84777,-1.53223 v -14.07778 c 0,-0.83998 -0.12186,-1.45702 -0.36556,-1.85111 -0.24369,-0.39406 -0.67148,-0.69998 -1.28333,-0.91777 -0.32148,-0.11406 -0.48223,-0.2748 -0.48221,-0.48223 -2e-5,-0.3111 0.23333,-0.54443 0.7,-0.69999 0.70518,-0.22814 1.43629,-0.58073 2.19333,-1.05778 0.62221,-0.37333 1.01629,-0.55998 1.18223,-0.56002 0.38369,4e-5 0.57554,0.26447 0.57555,0.79335 -10e-6,-0.0414 -0.0207,0.47705 -0.0622,1.55554 -0.031,1.02669 -0.0415,2.03781 -0.031,3.03334 l 0.0623,13.89111 c 0,0.63261 0.15556,1.0915 0.46666,1.37668 0.31111,0.28518 0.84519,0.47444 1.60222,0.56777 0.46667,0.0518 0.7,0.22815 0.70001,0.52888 z"
         style="font-variant:normal;font-stretch:normal;font-size:28px;line-height:90%;font-family:'High Tower Text';-inkscape-font-specification:'High Tower Text';text-align:end;writing-mode:lr-tb;text-anchor:end;stroke-width:1.13778;fill:#999999"
         id="path2891" />
      <path
         d="m 448.18534,179.50567 c -10e-6,1.80445 -0.66889,3.33148 -2.00666,4.58112 -1.33778,1.24964 -2.99705,1.87445 -4.97777,1.87445 -1.98075,0 -3.54668,-0.54963 -4.6978,-1.6489 -1.10962,-1.07851 -1.66443,-2.50444 -1.66443,-4.27777 0,-1.83555 0.7,-3.38074 2.10001,-4.63555 1.3585,-1.21333 2.98146,-1.81999 4.86887,-1.82 2.02222,10e-6 3.59851,0.54445 4.7289,1.63332 1.09924,1.05779 1.64887,2.4889 1.64888,4.29333 z m -2.73778,0.9489 c -1e-5,-1.62815 -0.39408,-2.95037 -1.18222,-3.96667 -0.76741,-0.98518 -1.74223,-1.47777 -2.92443,-1.47778 -1.09927,1e-5 -1.9963,0.38631 -2.69112,1.15888 -0.69482,0.77261 -1.04223,1.71373 -1.04222,2.82334 -1e-5,1.78371 0.40444,3.17335 1.21333,4.16889 0.74666,0.9126 1.72148,1.36889 2.92445,1.36889 1.14073,0 2.04295,-0.37851 2.70666,-1.13555 0.6637,-0.75703 0.99554,-1.73703 0.99555,-2.94 z"
         style="font-variant:normal;font-stretch:normal;font-size:28px;line-height:90%;font-family:'High Tower Text';-inkscape-font-specification:'High Tower Text';text-align:end;writing-mode:lr-tb;text-anchor:end;stroke-width:1.13778;fill:#999999"
         id="path2893" />
      <path
         d="m 464.4409,179.08567 c -10e-6,1.93927 -0.65076,3.58556 -1.95222,4.9389 -1.30149,1.35333 -2.81816,2.02999 -4.55,2.02999 -1.04742,0 -2.05852,-0.18666 -3.03334,-0.56 -0.10368,-0.0415 -0.15555,0.2126 -0.15555,0.76223 v 4.68222 c 0,0.75703 0.61704,1.24444 1.85112,1.46223 0.57035,0.10368 0.93072,0.19962 1.08111,0.28777 0.15036,0.0882 0.22554,0.23593 0.22554,0.44333 0,0.35259 -0.23333,0.51333 -0.69999,0.48222 -2.17779,-0.14518 -4.09112,-0.0933 -5.74,0.15556 -0.34222,0.0518 -0.55481,0.0518 -0.63778,0 -0.083,-0.0518 -0.12444,-0.19186 -0.12444,-0.42 0,-0.1763 0.29555,-0.38889 0.88666,-0.63778 0.50815,-0.2074 0.76222,-0.70518 0.76223,-1.49333 v -13.72 c -1e-5,-1.10961 -0.30593,-1.80444 -0.91779,-2.08444 -0.72592,-0.32147 -1.08889,-0.58592 -1.08889,-0.79334 0,-0.22813 0.2126,-0.39925 0.63778,-0.51334 0.54964,-0.13479 1.11482,-0.37331 1.69556,-0.71555 0.48741,-0.27999 0.78296,-0.41998 0.88666,-0.42 0.31112,2e-5 0.56519,0.28521 0.76223,0.85556 0.29037,0.82964 0.48222,1.24446 0.57555,1.24445 0.0207,1e-5 0.46666,-0.2437 1.33779,-0.73111 0.95406,-0.52888 1.8874,-0.79334 2.8,-0.79335 1.48295,1e-5 2.70665,0.42001 3.6711,1.26001 1.1511,0.9852 1.72666,2.41112 1.72667,4.27777 z m -2.64444,1.24445 c -1e-5,-1.69037 -0.42001,-3.0074 -1.26,-3.95111 -0.68446,-0.78813 -1.48816,-1.18221 -2.41112,-1.18222 -0.71556,1e-5 -1.4,0.2489 -2.05333,0.74667 -0.86074,0.64296 -1.29111,1.54001 -1.2911,2.69111 v 4.40222 c -1e-5,0.28 0.39407,0.57556 1.18222,0.88666 0.85036,0.34224 1.77333,0.51334 2.76888,0.51334 2.04296,0 3.06444,-1.3689 3.06445,-4.10667 z"
         style="font-variant:normal;font-stretch:normal;font-size:28px;line-height:90%;font-family:'High Tower Text';-inkscape-font-specification:'High Tower Text';text-align:end;writing-mode:lr-tb;text-anchor:end;stroke-width:1.13778;fill:#999999"
         id="path2895" />
      <path
         d="m 492.54979,185.35457 c -2e-5,0.34222 -0.16077,0.50296 -0.48223,0.48221 -2.11557,-0.15554 -4.08594,-0.15554 -5.9111,0 -0.40447,0.031 -0.60669,-0.15037 -0.60667,-0.54444 -2e-5,-0.31111 0.2748,-0.47703 0.82445,-0.49777 0.69478,-0.0415 1.0422,-0.60667 1.04222,-1.69556 v -4.13777 c -2e-5,-2.32296 -0.94372,-3.48445 -2.83112,-3.48445 -0.99557,0 -1.90816,0.18149 -2.73777,0.54444 -0.75705,0.32149 -1.14076,0.64297 -1.15111,0.96444 l -0.0623,6.17556 c -2e-5,0.64297 0.0779,1.06816 0.23333,1.27556 0.11407,0.14518 0.36814,0.2489 0.76222,0.3111 0.91258,0.15557 1.36887,0.34742 1.36889,0.57557 -2e-5,0.19703 -0.0259,0.33185 -0.0779,0.40443 -0.0622,0.10368 -0.24891,0.15037 -0.56,0.14001 -1.18223,-0.0415 -2.90372,-0.0207 -5.16444,0.0622 -0.32149,0.0107 -0.5289,-0.0156 -0.62223,-0.0779 -0.0933,-0.0622 -0.14001,-0.20741 -0.13999,-0.43556 -2e-5,-0.26962 0.29553,-0.43555 0.88666,-0.49777 0.64295,-0.0726 0.96443,-0.65852 0.96444,-1.75778 v -4.23112 c -1e-5,-1.14073 -0.25926,-2.02219 -0.77777,-2.64443 -0.45631,-0.56 -1.03705,-0.83999 -1.74223,-0.84 -1.03704,1e-5 -1.97037,0.21 -2.8,0.62999 -0.82963,0.42001 -1.24445,0.86854 -1.24444,1.34556 v 5.67778 c -1e-5,0.64297 0.16593,1.0889 0.49778,1.33778 0.30073,0.22815 0.84517,0.36814 1.63333,0.42 0.42519,0.0207 0.63777,0.16592 0.63777,0.43555 0,0.30074 -0.1711,0.45111 -0.51333,0.45111 -2.5926,0 -4.46963,0.0726 -5.63111,0.21778 -0.39406,0.0518 -0.64814,0.0518 -0.76221,0 -0.0933,-0.0518 -0.14001,-0.1763 -0.14001,-0.37333 0,-0.25926 0.3837,-0.48222 1.15111,-0.66889 0.46667,-0.12445 0.7,-0.7311 0.70001,-1.82 v -4.77555 c -10e-6,-1.21333 -0.32667,-1.91332 -0.98001,-2.1 -0.54963,-0.15554 -0.88407,-0.26962 -1.00334,-0.34223 -0.11925,-0.0725 -0.17888,-0.19184 -0.17888,-0.35777 0,-0.18666 0.53925,-0.58074 1.61777,-1.18223 1.14074,-0.64294 1.84075,-0.96444 2.1,-0.96445 0.21778,1e-5 0.40186,0.31373 0.55224,0.94112 0.15035,0.62741 0.26702,0.94112 0.34999,0.94111 0.11407,1e-5 0.43036,-0.16074 0.9489,-0.48222 0.64295,-0.40444 1.22369,-0.70517 1.74222,-0.90223 0.85035,-0.33183 1.72665,-0.49777 2.62887,-0.49778 0.72593,1e-5 1.35851,0.15557 1.89778,0.46668 0.37334,0.20741 0.71037,0.4926 1.01113,0.85555 0.24886,0.31113 0.37331,0.46668 0.37332,0.46667 -1e-5,1e-5 0.26962,-0.15554 0.8089,-0.46667 0.63256,-0.36295 1.24961,-0.64814 1.8511,-0.85555 0.88146,-0.31111 1.73702,-0.46667 2.56667,-0.46668 2.84146,1e-5 4.26219,1.56076 4.26222,4.68223 v 5.04 c -3e-5,0.59112 0.13997,1.01112 0.42,1.26 0.24886,0.20741 0.73627,0.38371 1.46222,0.52889 0.5496,0.10368 0.82442,0.25926 0.82445,0.46667 z"
         style="font-variant:normal;font-stretch:normal;font-size:28px;line-height:90%;font-family:'High Tower Text';-inkscape-font-specification:'High Tower Text';text-align:end;writing-mode:lr-tb;text-anchor:end;stroke-width:1.13778;fill:#999999"
         id="path2897" />
      <path
         d="m 505.69423,183.16123 c -1e-5,0.44593 -0.60148,1.00074 -1.80444,1.66444 -1.3689,0.7363 -2.77408,1.10445 -4.21555,1.10445 -1.56594,0 -2.88298,-0.51334 -3.95111,-1.54 -1.14074,-1.08888 -1.71111,-2.54073 -1.71111,-4.35555 0,-2.05333 0.63777,-3.70222 1.91333,-4.94667 1.19258,-1.16147 2.65481,-1.74221 4.38667,-1.74223 1.02665,2e-5 1.98591,0.32668 2.87777,0.98002 0.79851,0.58073 1.32739,1.24444 1.58667,1.9911 0.0933,0.25926 0.23332,0.40445 0.41999,0.43555 0.26962,0.0518 0.40444,0.23336 0.40445,0.54445 -1e-5,0.42519 -0.50815,0.78815 -1.52444,1.0889 l -7.17111,2.1311 c 0.46666,2.46815 1.73184,3.70222 3.79555,3.70222 1.19258,0 2.5511,-0.43555 4.07556,-1.30667 0.22813,-0.1348 0.4511,-0.20222 0.66888,-0.20222 0.16592,0 0.24888,0.15037 0.24889,0.45111 z m -3.68666,-6.23777 c -10e-6,-0.57036 -0.23075,-1.07073 -0.69222,-1.50112 -0.46148,-0.43035 -1.02927,-0.64554 -1.70334,-0.64555 -1.90815,1e-5 -2.86223,1.37408 -2.86222,4.12222 v 0.37333 l 4.23112,-1.27555 c 0.68442,-0.19704 1.02665,-0.55481 1.02666,-1.07333 z"
         style="font-variant:normal;font-stretch:normal;font-size:28px;line-height:90%;font-family:'High Tower Text';-inkscape-font-specification:'High Tower Text';text-align:end;writing-mode:lr-tb;text-anchor:end;stroke-width:1.13778;fill:#999999"
         id="path2899" />
      <path
         d="m 524.3609,185.49456 c -10e-6,0.32149 -0.23335,0.46668 -0.69999,0.43556 -2.22966,-0.11407 -3.92001,-0.13481 -5.07112,-0.0622 -0.59112,0.0415 -0.9126,-0.031 -0.96445,-0.21779 -0.0207,-0.0622 -0.031,-0.15036 -0.031,-0.26444 -10e-6,-0.20741 0.30073,-0.39407 0.90222,-0.56 0.54962,-0.15557 0.82444,-0.68964 0.82445,-1.60222 v -4.13778 c -10e-6,-2.37481 -1.03186,-3.56221 -3.09556,-3.56222 -0.92297,1e-5 -1.77852,0.21779 -2.56667,0.65333 -0.74667,0.4252 -1.12,0.86594 -1.11999,1.32222 v 5.69334 c -10e-6,0.97481 0.63777,1.51925 1.91334,1.63333 0.48739,0.0415 0.73109,0.19703 0.7311,0.46666 -10e-6,0.25926 -0.0673,0.41482 -0.20223,0.46668 -0.0622,0.0207 -0.23852,0.0259 -0.52887,0.0156 -1.62815,-0.0622 -3.30816,0.0207 -5.04002,0.24889 -0.37332,0.0518 -0.60665,0.0674 -0.69998,0.0466 -0.20742,-0.0415 -0.31112,-0.20222 -0.31112,-0.48223 0,-0.24887 0.29555,-0.46147 0.88667,-0.63777 0.54963,-0.16592 0.82443,-0.85555 0.82445,-2.06888 v -4.71334 c -2e-5,-0.79851 -0.10379,-1.30666 -0.31112,-1.52444 -0.14519,-0.15555 -0.6274,-0.37333 -1.44667,-0.65334 -0.20741,-0.0725 -0.31111,-0.21777 -0.31111,-0.43555 0,-0.2074 0.2126,-0.38887 0.63777,-0.54445 0.58075,-0.21777 1.21853,-0.56518 1.91334,-1.04223 0.58074,-0.39406 0.95407,-0.59109 1.12,-0.5911 0.27999,1e-5 0.46666,0.3189 0.56,0.95666 0.0933,0.63779 0.22297,0.95668 0.38889,0.95667 -0.083,1e-5 0.44593,-0.30333 1.58668,-0.90999 1.14072,-0.60666 2.2659,-0.91 3.37554,-0.91001 2.68592,1e-5 4.03925,1.52963 4.06,4.5889 l 0.031,5.00888 c -2e-5,0.64297 0.16591,1.10445 0.49778,1.38445 0.24886,0.2074 0.73109,0.3837 1.44667,0.52888 0.46664,0.0933 0.69997,0.26444 0.69999,0.51333 z"
         style="font-variant:normal;font-stretch:normal;font-size:28px;line-height:90%;font-family:'High Tower Text';-inkscape-font-specification:'High Tower Text';text-align:end;writing-mode:lr-tb;text-anchor:end;stroke-width:1.13778;fill:#999999"
         id="path2901" />
      <path
         d="m 534.34757,184.31234 c -10e-6,0.49778 -0.45631,0.92297 -1.36889,1.27555 -0.8089,0.31112 -1.62815,0.46667 -2.45777,0.46667 -2.25038,0 -3.37557,-1.19777 -3.37557,-3.59332 v -5.63112 c 0,-0.71555 -0.057,-1.15369 -0.1711,-1.31444 -0.11408,-0.16074 -0.4926,-0.31888 -1.13556,-0.47445 -0.16592,-0.0415 -0.24889,-0.20221 -0.24889,-0.48221 0,-0.30074 0.0622,-0.48222 0.18667,-0.54445 1.12,-0.54962 2.09481,-1.5348 2.92445,-2.95556 0.11406,-0.19703 0.33703,-0.25924 0.66888,-0.18667 0.22814,0.0725 0.3474,0.20744 0.35777,0.40445 l 0.0622,1.94444 c -10e-6,0.1452 0.0259,0.2489 0.0779,0.31111 0.0725,0.0933 0.23851,0.14001 0.49778,0.14 h 3.46888 c 0.19704,1e-5 0.19704,0.24371 0,0.73112 -0.23853,0.59112 -0.59111,0.88667 -1.05778,0.88666 h -2.34888 c -0.40445,1e-5 -0.65335,0.0675 -0.74667,0.20222 -0.0725,0.0933 -0.10889,0.34743 -0.10889,0.76223 v 5.08666 c 0,1.28593 0.11408,2.10001 0.34223,2.44223 0.30074,0.43555 1.00074,0.65333 2.1,0.65333 0.36296,0 0.80369,-0.0596 1.32223,-0.17889 0.51851,-0.11927 0.79331,-0.17889 0.82444,-0.17889 0.12444,0 0.18666,0.0779 0.18667,0.23333 z"
         style="font-variant:normal;font-stretch:normal;font-size:28px;line-height:90%;font-family:'High Tower Text';-inkscape-font-specification:'High Tower Text';text-align:end;writing-mode:lr-tb;text-anchor:end;stroke-width:1.13778;fill:#999999"
         id="path2903" />
      <path
         d="m 541.40979,185.01235 c -1e-5,2.69629 -1.13556,4.72369 -3.40666,6.08222 -0.20741,0.12444 -0.35779,0.18666 -0.45112,0.18666 -0.14518,0 -0.28,-0.16593 -0.40444,-0.49777 -0.0415,-0.11408 -0.0623,-0.20743 -0.0623,-0.28 0,-0.1763 0.29555,-0.46667 0.88668,-0.87112 1.01629,-0.70518 1.52443,-1.5037 1.52443,-2.39555 0,-0.4563 -0.29556,-0.87112 -0.88666,-1.24445 -0.82963,-0.51852 -1.24445,-1.15629 -1.24445,-1.91333 0,-0.50814 0.17111,-0.93074 0.51333,-1.26778 0.34222,-0.33703 0.79852,-0.50556 1.3689,-0.50556 0.68444,0 1.21591,0.2489 1.59444,0.74667 0.37851,0.49778 0.56777,1.15112 0.56778,1.96001 z"
         style="font-variant:normal;font-stretch:normal;font-size:28px;line-height:90%;font-family:'High Tower Text';-inkscape-font-specification:'High Tower Text';text-align:end;writing-mode:lr-tb;text-anchor:end;stroke-width:1.13778;fill:#999999"
         id="path2905" />
      <path
         d="m 317.39424,208.17767 c -1e-5,1.80445 -0.66892,3.33148 -2.00667,4.58112 -1.3378,1.24964 -2.99705,1.87445 -4.97778,1.87445 -1.98074,0 -3.54668,-0.54963 -4.69778,-1.6489 -1.10962,-1.07851 -1.66444,-2.50444 -1.66444,-4.27778 0,-1.83554 0.69999,-3.38073 2.09999,-4.63554 1.35852,-1.21333 2.98149,-1.81999 4.8689,-1.82 2.02221,10e-6 3.59851,0.54445 4.72888,1.63332 1.09925,1.05779 1.64889,2.4889 1.6489,4.29333 z m -2.73778,0.9489 c -10e-6,-1.62815 -0.39409,-2.95037 -1.18222,-3.96667 -0.76741,-0.98518 -1.74223,-1.47777 -2.92445,-1.47778 -1.09926,1e-5 -1.9963,0.38631 -2.69111,1.15888 -0.69482,0.77261 -1.04222,1.71373 -1.04222,2.82334 0,1.78371 0.40444,3.17333 1.21333,4.16889 0.74666,0.9126 1.72147,1.36889 2.92444,1.36889 1.14074,0 2.04296,-0.37851 2.70668,-1.13555 0.66369,-0.75703 0.99554,-1.73703 0.99555,-2.94 z"
         style="font-variant:normal;font-stretch:normal;font-size:28px;line-height:90%;font-family:'High Tower Text';-inkscape-font-specification:'High Tower Text';text-align:end;writing-mode:lr-tb;text-anchor:end;stroke-width:1.13778;fill:#999999"
         id="path2907" />
      <path
         d="m 336.32534,214.16656 c -2e-5,0.32148 -0.23334,0.46668 -0.69999,0.43556 -2.22965,-0.11408 -3.92002,-0.13481 -5.07112,-0.0622 -0.59112,0.0415 -0.9126,-0.0311 -0.96444,-0.21779 -0.0207,-0.0622 -0.0311,-0.15036 -0.0311,-0.26444 -3e-5,-0.20741 0.30073,-0.39407 0.90221,-0.56 0.54961,-0.15557 0.82444,-0.68964 0.82445,-1.60222 v -4.13778 c -10e-6,-2.37481 -1.03186,-3.56221 -3.09555,-3.56222 -0.92298,1e-5 -1.77853,0.21779 -2.56667,0.65333 -0.74667,0.4252 -1.12001,0.86593 -1.12001,1.32222 v 5.69334 c 0,0.97481 0.63778,1.51925 1.91335,1.63333 0.48739,0.0415 0.7311,0.19703 0.7311,0.46666 0,0.25926 -0.0674,0.41482 -0.20222,0.46667 -0.0623,0.0207 -0.23853,0.0259 -0.52888,0.0156 -1.62816,-0.0622 -3.30816,0.0207 -5.04,0.24889 -0.37335,0.0518 -0.60668,0.0674 -0.70001,0.0466 -0.20741,-0.0415 -0.31112,-0.20222 -0.31111,-0.48223 -10e-6,-0.24888 0.29555,-0.46147 0.88667,-0.63777 0.54962,-0.16593 0.82444,-0.85555 0.82444,-2.06888 v -4.71334 c 0,-0.79851 -0.10379,-1.30666 -0.31112,-1.52444 -0.14517,-0.15555 -0.6274,-0.37333 -1.44665,-0.65334 -0.20741,-0.0725 -0.31112,-0.21777 -0.31112,-0.43556 0,-0.20739 0.2126,-0.38888 0.63778,-0.54444 0.58074,-0.21777 1.21852,-0.56518 1.91334,-1.04223 0.58073,-0.39406 0.95406,-0.59109 1.12,-0.5911 0.27998,1e-5 0.46666,0.3189 0.56,0.95666 0.0933,0.63779 0.22295,0.95668 0.38888,0.95667 -0.083,1e-5 0.44592,-0.30333 1.58667,-0.90999 1.14073,-0.60666 2.26592,-0.91 3.37556,-0.91002 2.68591,2e-5 4.03923,1.52964 4.06,4.58891 l 0.031,5.00887 c -10e-6,0.64298 0.16591,1.10445 0.49778,1.38445 0.24888,0.20741 0.73108,0.38371 1.44667,0.52889 0.46664,0.0933 0.69998,0.26444 0.7,0.51333 z"
         style="font-variant:normal;font-stretch:normal;font-size:28px;line-height:90%;font-family:'High Tower Text';-inkscape-font-specification:'High Tower Text';text-align:end;writing-mode:lr-tb;text-anchor:end;stroke-width:1.13778;fill:#999999"
         id="path2909" />
      <path
         d="m 349.32979,211.83323 c -10e-6,0.44593 -0.60149,1.00074 -1.80445,1.66444 -1.36889,0.7363 -2.77408,1.10445 -4.21555,1.10445 -1.56594,0 -2.88297,-0.51334 -3.9511,-1.54 -1.14075,-1.08888 -1.71112,-2.54073 -1.71112,-4.35556 0,-2.05332 0.63777,-3.70221 1.91334,-4.94666 1.19257,-1.16147 2.6548,-1.74221 4.38666,-1.74223 1.02665,2e-5 1.98591,0.32668 2.87778,0.98002 0.79851,0.58073 1.32739,1.24444 1.58667,1.9911 0.0933,0.25926 0.23331,0.40445 0.42,0.43555 0.26961,0.0518 0.40442,0.23333 0.40444,0.54444 -2e-5,0.4252 -0.50816,0.78816 -1.52445,1.08891 l -7.1711,2.1311 c 0.46665,2.46815 1.73184,3.70222 3.79555,3.70222 1.19257,0 2.55109,-0.43555 4.07556,-1.30667 0.22813,-0.13481 0.45109,-0.20222 0.66889,-0.20222 0.16591,0 0.24887,0.15037 0.24888,0.45111 z m -3.68666,-6.23777 c -2e-5,-0.57036 -0.23075,-1.07073 -0.69223,-1.50112 -0.46148,-0.43035 -1.02926,-0.64554 -1.70334,-0.64555 -1.90814,1e-5 -2.86222,1.37408 -2.86222,4.12222 v 0.37333 l 4.23112,-1.27555 c 0.68443,-0.19704 1.02665,-0.55481 1.02667,-1.07333 z"
         style="font-variant:normal;font-stretch:normal;font-size:28px;line-height:90%;font-family:'High Tower Text';-inkscape-font-specification:'High Tower Text';text-align:end;writing-mode:lr-tb;text-anchor:end;stroke-width:1.13778;fill:#999999"
         id="path2911" />
      <path
         d="m 374.23424,212.92212 c 0.0414,0.0933 0.0622,0.16074 0.0622,0.20222 -2e-5,0.21777 -0.52891,0.57556 -1.58666,1.07335 -1.22373,0.57036 -1.94447,0.85555 -2.16224,0.85555 -0.18668,0 -0.40186,-0.31372 -0.64555,-0.94112 -0.24371,-0.62741 -0.41223,-0.94111 -0.50555,-0.94111 0.0107,0 -0.57816,0.27222 -1.76556,0.81667 -1.18741,0.54444 -2.08704,0.81666 -2.69888,0.81666 -1.3689,0 -2.55631,-0.49259 -3.56223,-1.47778 -1.21333,-1.17184 -1.82,-2.81554 -1.82,-4.9311 0,-1.77333 0.71555,-3.30296 2.14667,-4.5889 1.26517,-1.13036 2.5563,-1.69554 3.87333,-1.69555 0.93332,1e-5 2.04814,0.11927 3.34445,0.35778 0.40444,0.0725 0.60665,-0.0466 0.60666,-0.35778 v -5.32 c -10e-6,-0.60146 -0.14519,-1.02665 -0.43555,-1.27556 -0.18667,-0.1659 -0.62742,-0.36294 -1.32223,-0.59111 -0.33186,-0.12441 -0.49779,-0.32664 -0.49778,-0.60667 -10e-6,-0.25924 0.22296,-0.45109 0.6689,-0.57555 0.61184,-0.18664 1.34295,-0.49776 2.19332,-0.93333 0.70517,-0.37331 1.14074,-0.55998 1.30668,-0.56 0.38369,2e-5 0.57554,0.26446 0.57555,0.79333 -10e-6,-0.0107 -0.0156,0.50558 -0.0466,1.54778 -0.0311,1.04224 -0.0466,2.05595 -0.0466,3.04111 v 14.14 c -10e-6,0.59111 0.26444,0.88666 0.79335,0.88666 0.19701,0 0.46146,-0.031 0.79332,-0.0933 0.36295,-0.0622 0.60666,0.057 0.73111,0.35778 z m -4.80667,-1.54 v -5.56888 c -10e-6,-0.4563 -0.40446,-0.92814 -1.21334,-1.41555 -0.86074,-0.51851 -1.79408,-0.77779 -2.79999,-0.7778 -2.16742,1e-5 -3.25111,1.3378 -3.25111,4.01335 0,1.4311 0.43036,2.65481 1.29111,3.6711 0.86073,1.0163 1.87185,1.52445 3.03333,1.52445 0.52888,0 1.15111,-0.17629 1.86667,-0.52889 0.71554,-0.35259 1.07332,-0.65852 1.07333,-0.91778 z"
         style="font-variant:normal;font-stretch:normal;font-size:28px;line-height:90%;font-family:'High Tower Text';-inkscape-font-specification:'High Tower Text';text-align:end;writing-mode:lr-tb;text-anchor:end;stroke-width:1.13778;fill:#999999"
         id="path2913" />
      <path
         d="m 385.97868,203.41767 c -10e-6,1.25483 -0.36298,1.88223 -1.08889,1.88222 -0.11409,1e-5 -0.49261,-0.0725 -1.13555,-0.21777 -0.64297,-0.14518 -1.11483,-0.21777 -1.41555,-0.21778 -1.1615,1e-5 -1.74224,0.78298 -1.74223,2.34889 v 4.58889 c -10e-6,0.53927 0.18665,0.92297 0.56,1.15112 0.21777,0.13481 0.76222,0.31629 1.63333,0.54443 0.46666,0.11407 0.69999,0.29037 0.69999,0.5289 0,0.28 -0.0389,0.44851 -0.11665,0.50555 -0.0779,0.057 -0.27223,0.07 -0.58334,0.0389 -2.28148,-0.23851 -4.08593,-0.24888 -5.41333,-0.031 -0.41482,0.0725 -0.67927,0.0725 -0.79333,0 -0.0933,-0.0623 -0.14002,-0.2437 -0.14,-0.54445 -2e-5,-0.28 0.28777,-0.50295 0.86332,-0.66888 0.57556,-0.16592 0.86334,-0.6637 0.86334,-1.49334 v -4.99333 c 0,-0.65332 -0.0855,-1.09407 -0.25666,-1.32222 -0.17112,-0.22814 -0.64037,-0.53407 -1.40779,-0.91778 l -0.0933,-0.0466 c -0.2074,-0.10368 -0.31111,-0.24889 -0.31111,-0.43555 0,-0.20741 0.21259,-0.38371 0.63778,-0.52889 0.71555,-0.24889 1.36888,-0.60148 1.96001,-1.05778 0.4874,-0.3837 0.79852,-0.57555 0.93333,-0.57556 0.37332,1e-5 0.59628,0.32149 0.66889,0.96444 0.0933,0.81928 0.20222,1.2289 0.32666,1.2289 0.0107,0 0.59111,-0.38889 1.74222,-1.16668 0.75704,-0.50813 1.58666,-0.76221 2.4889,-0.76222 0.74664,1e-5 1.11998,0.39927 1.11999,1.19779 z"
         style="font-variant:normal;font-stretch:normal;font-size:28px;line-height:90%;font-family:'High Tower Text';-inkscape-font-specification:'High Tower Text';text-align:end;writing-mode:lr-tb;text-anchor:end;stroke-width:1.13778;fill:#999999"
         id="path2915" />
      <path
         d="m 401.39423,208.17767 c -10e-6,1.80445 -0.6689,3.33148 -2.00666,4.58112 -1.33779,1.24964 -2.99704,1.87445 -4.97778,1.87445 -1.98074,0 -3.54666,-0.54963 -4.69778,-1.6489 -1.10963,-1.07851 -1.66445,-2.50444 -1.66445,-4.27778 0,-1.83554 0.70001,-3.38073 2.10001,-4.63554 1.35851,-1.21333 2.98146,-1.81999 4.86889,-1.82 2.02221,10e-6 3.59851,0.54445 4.72888,1.63332 1.09926,1.05779 1.64888,2.4889 1.64889,4.29333 z m -2.73777,0.9489 c -10e-6,-1.62815 -0.39408,-2.95037 -1.18222,-3.96667 -0.76742,-0.98518 -1.74224,-1.47777 -2.92445,-1.47778 -1.09926,1e-5 -1.9963,0.38631 -2.69111,1.15888 -0.69482,0.77261 -1.04223,1.71373 -1.04222,2.82334 -1e-5,1.78371 0.40444,3.17333 1.21333,4.16889 0.74667,0.9126 1.72147,1.36889 2.92445,1.36889 1.14073,0 2.04294,-0.37851 2.70666,-1.13555 0.6637,-0.75703 0.99555,-1.73703 0.99556,-2.94 z"
         style="font-variant:normal;font-stretch:normal;font-size:28px;line-height:90%;font-family:'High Tower Text';-inkscape-font-specification:'High Tower Text';text-align:end;writing-mode:lr-tb;text-anchor:end;stroke-width:1.13778;fill:#999999"
         id="path2917" />
      <path
         d="m 417.64979,207.75767 c -10e-6,1.93927 -0.65075,3.58556 -1.95222,4.9389 -1.3015,1.35333 -2.81817,2.02999 -4.55,2.02999 -1.04741,0 -2.05852,-0.18666 -3.03334,-0.56 -0.10368,-0.0415 -0.15555,0.2126 -0.15555,0.76222 v 4.68223 c 0,0.75703 0.61703,1.24444 1.85111,1.46223 0.57036,0.10368 0.93073,0.19961 1.08111,0.28776 0.15037,0.0882 0.22555,0.23594 0.22555,0.44334 0,0.35259 -0.23334,0.51333 -0.69999,0.48222 -2.17779,-0.14518 -4.09112,-0.0933 -5.74,0.15556 -0.34222,0.0518 -0.55482,0.0518 -0.63778,0 -0.083,-0.0518 -0.12444,-0.19186 -0.12444,-0.42 0,-0.1763 0.29555,-0.38889 0.88666,-0.63778 0.50816,-0.2074 0.76221,-0.70518 0.76223,-1.49333 v -13.72 c -2e-5,-1.10961 -0.30594,-1.80444 -0.91779,-2.08444 -0.72593,-0.32147 -1.08888,-0.58592 -1.08888,-0.79334 0,-0.22813 0.21259,-0.39925 0.63778,-0.51334 0.54962,-0.13479 1.11482,-0.37331 1.69554,-0.71555 0.48741,-0.27999 0.78297,-0.41999 0.88668,-0.42 0.31111,1e-5 0.56517,0.28521 0.76222,0.85556 0.29037,0.82964 0.48222,1.24446 0.57555,1.24445 0.0207,1e-5 0.46667,-0.2437 1.33778,-0.73111 0.95407,-0.52888 1.8874,-0.79334 2.8,-0.79335 1.48296,1e-5 2.70666,0.42001 3.67112,1.26 1.15109,0.98521 1.72665,2.41113 1.72666,4.27778 z m -2.64445,1.24445 c -10e-6,-1.69037 -0.42001,-3.0074 -1.26,-3.95111 -0.68444,-0.78814 -1.48816,-1.18221 -2.4111,-1.18222 -0.71556,1e-5 -1.40001,0.2489 -2.05334,0.74667 -0.86074,0.64296 -1.29112,1.54 -1.29111,2.69111 v 4.40222 c -1e-5,0.28 0.39407,0.57556 1.18222,0.88666 0.85037,0.34224 1.77333,0.51334 2.76889,0.51334 2.04296,0 3.06443,-1.3689 3.06444,-4.10667 z"
         style="font-variant:normal;font-stretch:normal;font-size:28px;line-height:90%;font-family:'High Tower Text';-inkscape-font-specification:'High Tower Text';text-align:end;writing-mode:lr-tb;text-anchor:end;stroke-width:1.13778;fill:#999999"
         id="path2919" />
      <path
         d="m 440.70313,212.95324 c -2e-5,0.21777 -0.39668,0.54703 -1.19001,0.98777 -0.79333,0.44074 -1.42852,0.66111 -1.90555,0.66111 -0.40446,0 -0.76223,-0.19703 -1.07333,-0.59111 -0.31113,-0.39407 -0.5289,-0.59112 -0.65333,-0.59112 -0.0933,0 -0.58594,0.2126 -1.47778,0.63778 -0.89187,0.4252 -1.7889,0.63779 -2.69111,0.63779 -0.85038,0 -1.56075,-0.24889 -2.13111,-0.74667 -0.62223,-0.54963 -0.93334,-1.29629 -0.93334,-2.24 0,-1.79407 2.05333,-3.08 6.16,-3.85778 0.70517,-0.13481 1.06296,-0.41999 1.07334,-0.85555 l 0.031,-0.99556 c 0.0622,-1.70073 -0.68964,-2.5511 -2.25556,-2.55111 -0.44593,1e-5 -0.86852,0.39926 -1.26778,1.19778 -0.39926,0.79853 -0.97222,1.2289 -1.71888,1.2911 -0.85038,0.083 -1.27555,-0.2748 -1.27555,-1.07333 0,-0.49777 0.63257,-1.07851 1.89777,-1.74222 1.3274,-0.6948 2.60295,-1.04221 3.82666,-1.04222 2.10518,1e-5 3.1474,1.00075 3.12667,3.00222 l -0.0622,6.40889 c -0.0107,0.67408 0.2748,1.01111 0.85556,1.01111 0.11405,0 0.33184,-0.0259 0.65333,-0.0779 0.32147,-0.0518 0.50813,-0.0778 0.56,-0.0779 0.30072,1e-5 0.45109,0.20223 0.4511,0.60667 z m -4.79112,-3.54667 c 0.0107,-0.25925 -0.0493,-0.43037 -0.17888,-0.51333 -0.12964,-0.083 -0.33446,-0.0986 -0.61444,-0.0466 -2.49928,0.44593 -3.74891,1.26001 -3.7489,2.44223 -1e-5,1.19259 0.64814,1.78889 1.94445,1.78889 0.51851,0 1.05258,-0.0986 1.60222,-0.29555 0.64295,-0.22814 0.96444,-0.50297 0.96445,-0.82444 z"
         style="font-variant:normal;font-stretch:normal;font-size:28px;line-height:90%;font-family:'High Tower Text';-inkscape-font-specification:'High Tower Text';text-align:end;writing-mode:lr-tb;text-anchor:end;stroke-width:1.13778;fill:#999999"
         id="path2921" />
      <path
         d="m 451.15646,212.98434 c -10e-6,0.49778 -0.45631,0.92297 -1.36889,1.27555 -0.8089,0.31112 -1.62816,0.46667 -2.45778,0.46667 -2.25038,0 -3.37556,-1.19777 -3.37556,-3.59332 v -5.63112 c 0,-0.71555 -0.057,-1.15369 -0.1711,-1.31445 -0.11408,-0.16073 -0.4926,-0.31887 -1.13556,-0.47444 -0.16593,-0.0415 -0.24889,-0.20221 -0.24888,-0.48222 -10e-6,-0.30073 0.0622,-0.48221 0.18666,-0.54444 1.11999,-0.54962 2.09481,-1.5348 2.92444,-2.95556 0.11407,-0.19703 0.33704,-0.25924 0.66889,-0.18667 0.22815,0.0725 0.3474,0.20741 0.35778,0.40445 l 0.0622,1.94444 c 0,0.1452 0.0259,0.2489 0.0779,0.31111 0.0726,0.0933 0.23852,0.14001 0.49778,0.14 h 3.46889 c 0.19703,1e-5 0.19703,0.24371 0,0.73112 -0.23852,0.59112 -0.59112,0.88667 -1.05778,0.88666 h -2.34889 c -0.40445,1e-5 -0.65333,0.0674 -0.74666,0.20222 -0.0725,0.0933 -0.10889,0.34741 -0.10889,0.76223 v 5.08666 c -1e-5,1.28593 0.11407,2.10001 0.34223,2.44223 0.30072,0.43555 1.00072,0.65333 2.09999,0.65333 0.36295,0 0.80369,-0.0596 1.32223,-0.17889 0.5185,-0.11927 0.79332,-0.17889 0.82444,-0.17889 0.12443,0 0.18665,0.0779 0.18666,0.23333 z"
         style="font-variant:normal;font-stretch:normal;font-size:28px;line-height:90%;font-family:'High Tower Text';-inkscape-font-specification:'High Tower Text';text-align:end;writing-mode:lr-tb;text-anchor:end;stroke-width:1.13778;fill:#999999"
         id="path2923" />
      <path
         d="m 473.68091,212.95324 c -2e-5,0.21777 -0.39669,0.54703 -1.19001,0.98777 -0.79334,0.44074 -1.42853,0.66111 -1.90556,0.66111 -0.40444,0 -0.76223,-0.19703 -1.07333,-0.59111 -0.31111,-0.39407 -0.5289,-0.59112 -0.65333,-0.59112 -0.0933,0 -0.58593,0.2126 -1.47777,0.63778 -0.89186,0.4252 -1.7889,0.63779 -2.69112,0.63779 -0.85038,0 -1.56074,-0.24889 -2.1311,-0.74667 -0.62223,-0.54963 -0.93335,-1.29629 -0.93335,-2.24 0,-1.79407 2.05334,-3.08 6.16001,-3.85778 0.70518,-0.13481 1.06295,-0.41999 1.07333,-0.85555 l 0.031,-0.99556 c 0.0622,-1.70073 -0.68965,-2.5511 -2.25555,-2.55111 -0.44595,1e-5 -0.86853,0.39926 -1.26779,1.19778 -0.39927,0.79853 -0.97223,1.2289 -1.71888,1.2911 -0.85038,0.083 -1.27556,-0.2748 -1.27556,-1.07333 0,-0.49777 0.63258,-1.07851 1.89777,-1.74222 1.3274,-0.6948 2.60296,-1.04221 3.82666,-1.04222 2.10518,1e-5 3.14741,1.00075 3.12668,3.00222 l -0.0623,6.40889 c -0.0107,0.67408 0.2748,1.01111 0.85556,1.01111 0.11406,0 0.33183,-0.0259 0.65332,-0.0779 0.32147,-0.0518 0.50815,-0.0778 0.56,-0.0779 0.30073,1e-5 0.45111,0.20223 0.45113,0.60667 z m -4.79112,-3.54667 c 0.0107,-0.25925 -0.0493,-0.43037 -0.17889,-0.51333 -0.12964,-0.083 -0.33445,-0.0986 -0.61444,-0.0466 -2.49927,0.44593 -3.74889,1.26001 -3.74889,2.44223 0,1.19259 0.64814,1.78889 1.94445,1.78889 0.51851,0 1.05258,-0.0986 1.60222,-0.29555 0.64295,-0.22814 0.96444,-0.50297 0.96444,-0.82444 z"
         style="font-variant:normal;font-stretch:normal;font-size:28px;line-height:90%;font-family:'High Tower Text';-inkscape-font-specification:'High Tower Text';text-align:end;writing-mode:lr-tb;text-anchor:end;stroke-width:1.13778;fill:#999999"
         id="path2925" />
      <path
         d="m 492.03646,212.98434 c -10e-6,0.49778 -0.45631,0.92297 -1.3689,1.27555 -0.80888,0.31112 -1.62815,0.46667 -2.45777,0.46667 -2.25038,0 -3.37555,-1.19777 -3.37555,-3.59332 v -5.63112 c 0,-0.71555 -0.057,-1.15369 -0.17111,-1.31445 -0.11407,-0.16073 -0.49259,-0.31887 -1.13557,-0.47444 -0.16592,-0.0415 -0.24888,-0.20221 -0.24888,-0.48222 0,-0.30073 0.0623,-0.48221 0.18667,-0.54444 1.11999,-0.54962 2.09481,-1.5348 2.92444,-2.95556 0.11407,-0.19703 0.33704,-0.25924 0.66889,-0.18667 0.22814,0.0725 0.3474,0.20741 0.35778,0.40445 l 0.0622,1.94444 c -2e-5,0.1452 0.0259,0.2489 0.0779,0.31111 0.0726,0.0933 0.23852,0.14001 0.49778,0.14 h 3.4689 c 0.19702,1e-5 0.19702,0.24371 0,0.73112 -0.23854,0.59112 -0.59113,0.88667 -1.05778,0.88666 h -2.34889 c -0.40446,1e-5 -0.65334,0.0674 -0.74666,0.20222 -0.0726,0.0933 -0.10889,0.34741 -0.10889,0.76223 v 5.08666 c 0,1.28593 0.11407,2.10001 0.34222,2.44223 0.30074,0.43555 1.00075,0.65333 2.10001,0.65333 0.36294,0 0.80369,-0.0596 1.32222,-0.17889 0.51851,-0.11927 0.79331,-0.17889 0.82445,-0.17889 0.12442,0 0.18664,0.0779 0.18666,0.23333 z"
         style="font-variant:normal;font-stretch:normal;font-size:28px;line-height:90%;font-family:'High Tower Text';-inkscape-font-specification:'High Tower Text';text-align:end;writing-mode:lr-tb;text-anchor:end;stroke-width:1.13778;fill:#999999"
         id="path2927" />
      <path
         d="m 499.82979,196.44879 c -10e-6,0.47704 -0.17889,0.92038 -0.53666,1.32999 -0.35779,0.40965 -0.74928,0.61447 -1.17445,0.61445 -0.48742,2e-5 -0.88667,-0.14517 -1.19777,-0.43556 -0.31112,-0.29034 -0.46667,-0.66887 -0.46667,-1.13555 0,-0.45627 0.18925,-0.88146 0.56777,-1.27555 0.37851,-0.39406 0.78555,-0.5911 1.22112,-0.59111 1.05777,1e-5 1.58665,0.49779 1.58666,1.49333 z m 1.72667,17.60888 c -0.0518,0.30074 -0.17631,0.47186 -0.37333,0.51334 -0.0518,0.0107 -0.30075,0 -0.74667,-0.031 -1.5452,-0.10368 -3.06445,-0.083 -4.55778,0.0622 -0.40445,0.0415 -0.65852,0.0259 -0.76222,-0.0466 -0.10379,-0.0725 -0.15555,-0.23852 -0.15555,-0.49777 0,-0.23853 0.27481,-0.43555 0.82443,-0.59111 0.60149,-0.1763 0.90223,-0.75185 0.90223,-1.72667 v -4.07555 c 0,-0.81927 -0.083,-1.39482 -0.24889,-1.72667 -0.22814,-0.45629 -0.7,-0.8037 -1.41555,-1.04222 -0.3215,-0.11408 -0.48222,-0.28518 -0.48222,-0.51334 0,-0.30073 0.23333,-0.52369 0.69999,-0.66889 0.87111,-0.26962 1.6437,-0.62739 2.31778,-1.07333 0.53926,-0.37332 0.8711,-0.55999 0.99555,-0.56 0.41482,1e-5 0.61704,0.26964 0.60668,0.80888 -0.0415,2.71705 -0.0623,5.48594 -0.0623,8.30667 -1e-5,0.67407 0.0986,1.1563 0.29557,1.44667 0.21777,0.32148 0.63258,0.54963 1.24444,0.68445 0.67406,0.15555 0.97999,0.39925 0.91777,0.73111 z"
         style="font-variant:normal;font-stretch:normal;font-size:28px;line-height:90%;font-family:'High Tower Text';-inkscape-font-specification:'High Tower Text';text-align:end;writing-mode:lr-tb;text-anchor:end;stroke-width:1.13778;fill:#999999"
         id="path2929" />
      <path
         d="m 528.94979,214.02657 c -3e-5,0.34222 -0.16077,0.50296 -0.48222,0.48221 -2.11558,-0.15554 -4.08595,-0.15554 -5.91111,0 -0.40447,0.0311 -0.60669,-0.15037 -0.60667,-0.54444 -2e-5,-0.31111 0.2748,-0.47703 0.82444,-0.49777 0.69479,-0.0415 1.04221,-0.60667 1.04223,-1.69556 v -4.13777 c -2e-5,-2.32296 -0.94373,-3.48445 -2.83111,-3.48445 -0.99558,0 -1.90817,0.18149 -2.73778,0.54444 -0.75705,0.32149 -1.14075,0.64297 -1.15111,0.96444 l -0.0623,6.17556 c -2e-5,0.64297 0.0779,1.06815 0.23334,1.27556 0.11406,0.14518 0.36813,0.2489 0.76222,0.3111 0.91257,0.15557 1.36886,0.34742 1.36889,0.57557 -3e-5,0.19703 -0.0259,0.33185 -0.0779,0.40443 -0.0622,0.10368 -0.24892,0.15037 -0.56001,0.14001 -1.18224,-0.0415 -2.90373,-0.0207 -5.16444,0.0622 -0.32149,0.0107 -0.52891,-0.0156 -0.62223,-0.0779 -0.0933,-0.0622 -0.14,-0.20741 -0.13999,-0.43556 -10e-6,-0.26963 0.29553,-0.43555 0.88666,-0.49777 0.64295,-0.0726 0.96443,-0.65852 0.96444,-1.75778 v -4.23112 c -1e-5,-1.14073 -0.25927,-2.02219 -0.77778,-2.64443 -0.45631,-0.56 -1.03704,-0.83999 -1.74223,-0.84 -1.03703,1e-5 -1.97036,0.21 -2.79999,0.62999 -0.82963,0.42001 -1.24444,0.86854 -1.24443,1.34556 v 5.67778 c -10e-6,0.64297 0.16592,1.0889 0.49777,1.33778 0.30072,0.22815 0.84517,0.36814 1.63333,0.42 0.42517,0.0207 0.63776,0.16592 0.63778,0.43555 -2e-5,0.30074 -0.17112,0.45111 -0.51333,0.45111 -2.5926,0 -4.46964,0.0726 -5.63112,0.21778 -0.39408,0.0518 -0.64814,0.0518 -0.76221,0 -0.0933,-0.0518 -0.14001,-0.1763 -0.14001,-0.37333 0,-0.25926 0.38371,-0.48222 1.15111,-0.66889 0.46667,-0.12445 0.7,-0.7311 0.7,-1.82 v -4.77555 c 0,-1.21333 -0.32667,-1.91332 -0.97999,-2.1 -0.54964,-0.15555 -0.88407,-0.26963 -1.00334,-0.34223 -0.11926,-0.0725 -0.17889,-0.19184 -0.17889,-0.35777 0,-0.18666 0.53925,-0.58074 1.61778,-1.18223 1.14074,-0.64296 1.84073,-0.96444 2.09999,-0.96445 0.21777,1e-5 0.40186,0.31373 0.55223,0.94112 0.15036,0.62741 0.26704,0.94112 0.35,0.94111 0.11407,1e-5 0.43037,-0.16074 0.9489,-0.48222 0.64294,-0.40444 1.22369,-0.70517 1.74222,-0.90223 0.85035,-0.33183 1.72664,-0.49777 2.62888,-0.49778 0.72591,1e-5 1.35851,0.15557 1.89778,0.46668 0.37331,0.20741 0.71036,0.4926 1.01111,0.85555 0.24887,0.31113 0.37332,0.46668 0.37334,0.46667 -2e-5,1e-5 0.2696,-0.15554 0.80889,-0.46667 0.63257,-0.36295 1.24961,-0.64814 1.8511,-0.85555 0.88146,-0.31111 1.73701,-0.46667 2.56668,-0.46668 2.84145,1e-5 4.26218,1.56076 4.26221,4.68223 v 5.04 c -3e-5,0.59112 0.13998,1.01112 0.42,1.26 0.24887,0.20741 0.73628,0.38371 1.46222,0.52889 0.5496,0.10368 0.82442,0.25925 0.82445,0.46667 z"
         style="font-variant:normal;font-stretch:normal;font-size:28px;line-height:90%;font-family:'High Tower Text';-inkscape-font-specification:'High Tower Text';text-align:end;writing-mode:lr-tb;text-anchor:end;stroke-width:1.13778;fill:#999999"
         id="path2931" />
      <path
         d="m 542.09423,211.83323 c -1e-5,0.44593 -0.60148,1.00074 -1.80445,1.66444 -1.36888,0.7363 -2.77407,1.10445 -4.21554,1.10445 -1.56593,0 -2.88297,-0.51334 -3.95111,-1.54 -1.14075,-1.08888 -1.71112,-2.54073 -1.71112,-4.35556 0,-2.05332 0.63778,-3.70221 1.91333,-4.94666 1.1926,-1.16147 2.65481,-1.74221 4.38667,-1.74223 1.02667,2e-5 1.98592,0.32668 2.87778,0.98002 0.79851,0.58073 1.3274,1.24444 1.58667,1.9911 0.0933,0.25926 0.23332,0.40445 0.42,0.43555 0.26962,0.0518 0.40443,0.23333 0.40445,0.54444 -2e-5,0.4252 -0.50816,0.78816 -1.52445,1.08891 l -7.17112,2.1311 c 0.46667,2.46815 1.73185,3.70222 3.79557,3.70222 1.19257,0 2.55109,-0.43555 4.07555,-1.30667 0.22814,-0.13481 0.4511,-0.20222 0.66888,-0.20222 0.16591,0 0.24888,0.15037 0.24889,0.45111 z m -3.68666,-6.23777 c -10e-6,-0.57036 -0.23075,-1.07073 -0.69222,-1.50112 -0.46149,-0.43035 -1.02927,-0.64554 -1.70334,-0.64555 -1.90815,1e-5 -2.86222,1.37408 -2.86222,4.12222 v 0.37333 l 4.23111,-1.27555 c 0.68444,-0.19704 1.02666,-0.55481 1.02667,-1.07333 z"
         style="font-variant:normal;font-stretch:normal;font-size:28px;line-height:90%;font-family:'High Tower Text';-inkscape-font-specification:'High Tower Text';text-align:end;writing-mode:lr-tb;text-anchor:end;stroke-width:1.13778;fill:#999999"
         id="path2933" />
    </g>
  </g>
</svg>
