<?xml version="1.0" encoding="UTF-8" standalone="no"?>
<svg
   xmlns:dc="http://purl.org/dc/elements/1.1/"
   xmlns:cc="http://creativecommons.org/ns#"
   xmlns:rdf="http://www.w3.org/1999/02/22-rdf-syntax-ns#"
   xmlns:svg="http://www.w3.org/2000/svg"
   xmlns="http://www.w3.org/2000/svg"
   xmlns:sodipodi="http://sodipodi.sourceforge.net/DTD/sodipodi-0.dtd"
   xmlns:inkscape="http://www.inkscape.org/namespaces/inkscape"
   inkscape:version="1.0.1 (3bc2e813f5, 2020-09-07)"
   sodipodi:docname="streamlit.svg"
   id="svg33"
   version="1.1"
   fill="none"
   viewBox="0 0 143.46098 76.93"
   height="76.93"
   width="143.46098">
  <metadata
     id="metadata37">
    <rdf:RDF>
      <cc:Work
         rdf:about="">
        <dc:format>image/svg+xml</dc:format>
        <dc:type
           rdf:resource="http://purl.org/dc/dcmitype/StillImage" />
        <dc:title></dc:title>
      </cc:Work>
    </rdf:RDF>
  </metadata>
  <sodipodi:namedview
     inkscape:current-layer="g26"
     inkscape:window-maximized="1"
     inkscape:window-y="32"
     inkscape:window-x="-8"
     inkscape:cy="165.79621"
     inkscape:cx="300.86499"
     inkscape:zoom="1.9903081"
     fit-margin-bottom="0"
     fit-margin-right="0"
     fit-margin-left="0"
     fit-margin-top="0"
     showgrid="false"
     id="namedview35"
     inkscape:window-height="1377"
     inkscape:window-width="3440"
     inkscape:pageshadow="2"
     inkscape:pageopacity="0"
     guidetolerance="10"
     gridtolerance="10"
     objecttolerance="10"
     borderopacity="1"
     bordercolor="#666666"
     pagecolor="#ffffff"
     inkscape:document-rotation="0" />
  <g
     transform="translate(-133.00173,-261.285)"
     id="g26"
     clip-path="url(#clip0)">
    <path
       id="path20"
       fill="#ffc7c7"
       d="m 276.355,276.022 c 0,0.04 0,0.04 0,0.081 l -22.169,57.698 c -1.478,2.713 -3.71,4.414 -6.978,4.414 h -84.734 c -2.033,0 -4.149,-1.012 -5.305,-2.065 l 116.397,-62.477 h 0.039 c 1.594,-0.891 3.308,0.648 2.75,2.349 z"
       clip-rule="evenodd"
       fill-rule="evenodd" />
    <path
       id="path22"
       fill="#ff8c8c"
       d="m 254.114,333.805 c -1.546,2.778 -3.698,4.41 -6.973,4.41 h -84.683 c -2.909,0 -5.739,-1.616 -7.094,-4.45 l 47.064,-71.235 c 1.076,-1.66 3.507,-1.66 4.623,0 z"
       clip-rule="evenodd"
       fill-rule="evenodd" />
    <path
       id="path24"
       fill="#ff4b4b"
       d="m 252.389,336.231 c -1.084,1.105 -2.865,1.984 -5.181,1.984 h -84.734 c -2.909,0 -5.966,-1.555 -7.098,-4.454 l -22.248,-57.658 c -0.598,-1.62 1.036,-3.24 2.63,-2.47 0.04,0 0.119,0 0.159,0.04 z"
       clip-rule="evenodd"
       fill-rule="evenodd" />
  </g>
  <defs
     id="defs31">
    <clipPath
       id="clip0">
      <rect
         id="rect28"
         fill="#ffffff"
         height="78.146301"
         width="534"
         y="261"
         x="133" />
    </clipPath>
  </defs>
</svg>
