<?xml version="1.0" encoding="UTF-8" standalone="no"?>
<!-- Creator: CorelDRAW X6 -->

<svg
   xml:space="preserve"
   width="165.10805mm"
   height="104.21877mm"
   version="1.1"
   style="clip-rule:evenodd;fill-rule:evenodd;image-rendering:optimizeQuality;shape-rendering:geometricPrecision;text-rendering:geometricPrecision"
   viewBox="0 0 16510.999 10421.877"
   id="svg553"
   sodipodi:docname="logo.svg"
   inkscape:version="1.2.2 (b0a84865, 2022-12-01)"
   xmlns:inkscape="http://www.inkscape.org/namespaces/inkscape"
   xmlns:sodipodi="http://sodipodi.sourceforge.net/DTD/sodipodi-0.dtd"
   xmlns="http://www.w3.org/2000/svg"
   xmlns:svg="http://www.w3.org/2000/svg"><sodipodi:namedview
   id="namedview555"
   pagecolor="#ffffff"
   bordercolor="#999999"
   borderopacity="1"
   inkscape:showpageshadow="0"
   inkscape:pageopacity="0"
   inkscape:pagecheckerboard="0"
   inkscape:deskcolor="#d1d1d1"
   inkscape:document-units="mm"
   showgrid="false"
   inkscape:zoom="1.2488333"
   inkscape:cx="308.68811"
   inkscape:cy="154.94462"
   inkscape:window-width="1920"
   inkscape:window-height="999"
   inkscape:window-x="1920"
   inkscape:window-y="25"
   inkscape:window-maximized="0"
   inkscape:current-layer="Capa_x0020_1" />

 <defs
   id="defs430">

  <style
   type="text/css"
   id="style428">

   <![CDATA[

     

   ]]>

  </style>

 </defs>

 <g
   id="Capa_x0020_1"
   inkscape:label="Capa 1"
   inkscape:groupmode="layer"
   transform="translate(-4443,-4970.1182)">

  <metadata
   id="CorelCorpID_0Corel-Layer" />

  <path
   class="fil0"
   d="m 4877,9921 h 97 v 97 h 97 v 97 h 290 v -97 h 97 97 v -97 h -97 v 97 97 h 97 v 97 h 97 v -193 h 97 v 386 h -97 v 97 h -97 v 97 h 97 v 97 h -97 v -97 h -97 v -97 h -483 v 97 h -97 -97 v 97 h 97 v -97 -97 h -97 v -97 h -97 v -386 h 97 v 193 h 97 v -97 h 97 v -97 h -97 v -97 z m 579,290 h -97 v 97 h 97 z m -483,0 h 97 v 97 h -97 z"
   id="path433"
   style="fill:#999999" />

  <path
   class="fil0"
   d="m 6748,9921 h 97 v 97 h 97 v 97 h 290 v -97 h 97 97 v -97 h -97 v 97 97 h 97 v 97 h 97 v -193 h 97 v 386 h -97 v 97 h -97 v 97 h 97 v 97 h -97 v -97 h -97 v -97 h -483 v 97 h -97 -97 v 97 h 97 v -97 -97 h -97 v -97 h -97 v -386 h 97 v 193 h 97 v -97 h 97 v -97 h -97 v -97 z m 579,290 h -97 v 97 h 97 z m -483,0 h 97 v 97 h -97 z"
   id="path435"
   style="fill:#999999" />

  <path
   class="fil0"
   d="m 8618,9921 h 97 v 97 h 97 v 97 h 290 v -97 h 97 97 v -97 h -97 v 97 97 h 97 v 97 h 97 v -193 h 97 v 386 h -97 v 97 h -97 v 97 h 97 v 97 h -97 v -97 h -97 v -97 h -483 v 97 h -97 -97 v 97 h 97 v -97 -97 h -97 v -97 h -97 v -386 h 97 v 193 h 97 v -97 h 97 v -97 h -97 v -97 z m 579,290 h -97 v 97 h 97 z m -483,0 h 97 v 97 h -97 z"
   id="path437"
   style="fill:#999999" />

  <path
   class="fil0"
   d="m 12359,9921 h 97 v 97 h 97 v 97 h 290 v -97 h 97 97 v -97 h -97 v 97 97 h 97 v 97 h 97 v -193 h 97 v 386 h -97 v 97 h -97 v 97 h 97 v 97 h -97 v -97 h -97 v -97 h -483 v 97 h -97 -97 v 97 h 97 v -97 -97 h -97 v -97 h -97 v -386 h 97 v 193 h 97 v -97 h 97 v -97 h -97 v -97 z m 579,290 h -97 v 97 h 97 z m -483,0 h 97 v 97 h -97 z"
   id="path439"
   style="fill:#999999" />

  <path
   class="fil0"
   d="m 14230,9921 h 97 v 97 h 97 v 97 h 290 v -97 h 97 97 v -97 h -97 v 97 97 h 97 v 97 h 97 v -193 h 97 v 386 h -97 v 97 h -97 v 97 h 97 v 97 h -97 v -97 h -97 v -97 h -483 v 97 h -97 -97 v 97 h 97 v -97 -97 h -97 v -97 h -97 v -386 h 97 v 193 h 97 v -97 h 97 v -97 h -97 v -97 z m 579,290 h -97 v 97 h 97 z m -483,0 h 97 v 97 h -97 z"
   id="path441"
   style="fill:#999999" />

  <path
   class="fil0"
   d="m 16101,9921 h 97 v 97 h 97 v 97 h 290 v -97 h 97 97 v -97 h -97 v 97 97 h 97 v 97 h 97 v -193 h 97 v 386 h -97 v 97 h -97 v 97 h 97 v 97 h -97 v -97 h -97 v -97 h -483 v 97 h -97 -97 v 97 h 97 v -97 -97 h -97 v -97 h -97 v -386 h 97 v 193 h 97 v -97 h 97 v -97 h -97 v -97 z m 579,290 h -97 v 97 h 97 z m -483,0 h 97 v 97 h -97 z"
   id="path443"
   style="fill:#999999" />

  <path
   class="fil0"
   d="m 17971,9921 h 97 v 97 h 97 v 97 h 290 v -97 h 97 97 v -97 h -97 v 97 97 h 97 v 97 h 97 v -193 h 97 v 386 h -97 v 97 h -97 v 97 h 97 v 97 h -97 v -97 h -97 v -97 h -483 v 97 h -97 -97 v 97 h 97 v -97 -97 h -97 v -97 h -97 v -386 h 97 v 193 h 97 v -97 h 97 v -97 h -97 v -97 z m 579,290 h -97 v 97 h 97 z m -483,0 h 97 v 97 h -97 z"
   id="path445"
   style="fill:#999999" />

  <path
   class="fil0"
   d="m 19842,9921 h 97 v 97 h 97 v 97 h 290 v -97 h 97 97 v -97 h -97 v 97 97 h 97 v 97 h 97 v -193 h 97 v 386 h -97 v 97 h -97 v 97 h 97 v 97 h -97 v -97 h -97 v -97 h -483 v 97 h -97 -97 v 97 h 97 v -97 -97 h -97 v -97 h -97 v -386 h 97 v 193 h 97 v -97 h 97 v -97 h -97 v -97 z m 579,290 h -97 v 97 h 97 z m -483,0 h 97 v 97 h -97 z"
   id="path447"
   style="fill:#999999" />

  <path
   class="fil0"
   d="m 5119,11109 h 193 v 97 h 97 v 97 h 97 v 97 h 97 v 97 97 h -193 v 97 h 97 v 97 97 h 97 v -97 h -97 -97 -97 -193 -97 v -97 -97 h -193 v -193 h 97 v -97 h 97 v -97 h 97 v -97 z m 290,676 v -97 h -97 v 97 97 h 97 z m -290,0 v -97 h -97 -97 v 97 h -97 v 97 h 97 v -97 h 97 v 97 h 97 z m 193,-97 v -97 h -193 v 97 z m 0,-290 h 97 v 97 h -97 z m -290,0 h 97 v 97 h -97 z"
   id="path449"
   style="fill:#999999" />

  <path
   class="fil0"
   d="m 6989,11109 h 193 v 97 h 97 v 97 h 97 v 97 h 97 v 97 97 h -193 v 97 h 97 v 97 97 h 97 v -97 h -97 -97 -97 -193 -97 v -97 -97 h -193 v -193 h 97 v -97 h 97 v -97 h 97 v -97 z m 290,676 v -97 h -97 v 97 97 h 97 z m -290,0 v -97 h -97 -97 v 97 h -97 v 97 h 97 v -97 h 97 v 97 h 97 z m 193,-97 v -97 h -193 v 97 z m 0,-290 h 97 v 97 h -97 z m -290,0 h 97 v 97 h -97 z"
   id="path451"
   style="fill:#999999" />

  <path
   class="fil0"
   d="m 8860,11109 h 193 v 97 h 97 v 97 h 97 v 97 h 97 v 97 97 h -193 v 97 h 97 v 97 97 h 97 v -97 h -97 -97 -97 -193 -97 v -97 -97 h -193 v -193 h 97 v -97 h 97 v -97 h 97 v -97 z m 290,676 v -97 h -97 v 97 97 h 97 z m -290,0 v -97 h -97 -97 v 97 h -97 v 97 h 97 v -97 h 97 v 97 h 97 z m 193,-97 v -97 h -193 v 97 z m 0,-290 h 97 v 97 h -97 z m -290,0 h 97 v 97 h -97 z"
   id="path453"
   style="fill:#999999" />

  <path
   class="fil0"
   d="m 12601,11109 h 193 v 97 h 97 v 97 h 97 v 97 h 97 v 97 97 h -193 v 97 h 97 v 97 97 h 97 v -97 h -97 -97 -97 -193 -97 v -97 -97 h -193 v -193 h 97 v -97 h 97 v -97 h 97 v -97 z m 290,676 v -97 h -97 v 97 97 h 97 z m -290,0 v -97 h -97 -97 v 97 h -97 v 97 h 97 v -97 h 97 v 97 h 97 z m 193,-97 v -97 h -193 v 97 z m 0,-290 h 97 v 97 h -97 z m -290,0 h 97 v 97 h -97 z"
   id="path455"
   style="fill:#999999" />

  <path
   class="fil0"
   d="m 14471,11109 h 193 v 97 h 97 v 97 h 97 v 97 h 97 v 97 97 h -193 v 97 h 97 v 97 97 h 97 v -97 h -97 -97 -97 -193 -97 v -97 -97 h -193 v -193 h 97 v -97 h 97 v -97 h 97 v -97 z m 290,676 v -97 h -97 v 97 97 h 97 z m -290,0 v -97 h -97 -97 v 97 h -97 v 97 h 97 v -97 h 97 v 97 h 97 z m 193,-97 v -97 h -193 v 97 z m 0,-290 h 97 v 97 h -97 z m -290,0 h 97 v 97 h -97 z"
   id="path457"
   style="fill:#999999" />

  <path
   class="fil0"
   d="m 16342,11109 h 193 v 97 h 97 v 97 h 97 v 97 h 97 v 97 97 h -193 v 97 h 97 v 97 97 h 97 v -97 h -97 -97 -97 -193 -97 v -97 -97 h -193 v -193 h 97 v -97 h 97 v -97 h 97 v -97 z m 290,676 v -97 h -97 v 97 97 h 97 z m -290,0 v -97 h -97 -97 v 97 h -97 v 97 h 97 v -97 h 97 v 97 h 97 z m 193,-97 v -97 h -193 v 97 z m 0,-290 h 97 v 97 h -97 z m -290,0 h 97 v 97 h -97 z"
   id="path459"
   style="fill:#999999" />

  <path
   class="fil0"
   d="m 18212,11109 h 193 v 97 h 97 v 97 h 97 v 97 h 97 v 97 97 h -193 v 97 h 97 v 97 97 h 97 v -97 h -97 -97 -97 -193 -97 v -97 -97 h -193 v -193 h 97 v -97 h 97 v -97 h 97 v -97 z m 290,676 v -97 h -97 v 97 97 h 97 z m -290,0 v -97 h -97 -97 v 97 h -97 v 97 h 97 v -97 h 97 v 97 h 97 z m 193,-97 v -97 h -193 v 97 z m 0,-290 h 97 v 97 h -97 z m -290,0 h 97 v 97 h -97 z"
   id="path461"
   style="fill:#999999" />

  <path
   class="fil0"
   d="m 20083,11109 h 193 v 97 h 97 v 97 h 97 v 97 h 97 v 97 97 h -193 v 97 h 97 v 97 97 h 97 v -97 h -97 -97 -97 -193 -97 v -97 -97 h -193 v -193 h 97 v -97 h 97 v -97 h 97 v -97 z m 290,676 v -97 h -97 v 97 97 h 97 z m -290,0 v -97 h -97 -97 v 97 h -97 v 97 h 97 v -97 h 97 v 97 h 97 z m 193,-97 v -97 h -193 v 97 z m 0,-290 h 97 v 97 h -97 z m -290,0 h 97 v 97 h -97 z"
   id="path463"
   style="fill:#999999" />

  <path
   class="fil0"
   d="m 4636,5454 v -290 h 97 v -97 h 290 v -97 h 386 v 97 h 290 v 97 h 97 v 290 h -290 v 97 h 97 v 97 h 193 v 97 h -193 v -97 h -193 v -97 h -97 v 97 h -193 v -97 h -97 v 97 h -193 -193 v 97 h 193 v -97 -97 h 97 v -97 h -290 z m 290,-193 h 193 v 97 h -193 z m 579,97 h -193 v -97 h 193 z"
   id="path465"
   style="fill:#999999" />

  <path
   class="fil0"
   d="m 6507,5454 v -290 h 97 v -97 h 290 v -97 h 386 v 97 h 290 v 97 h 97 v 290 h -290 v 97 h 97 v 97 h 193 v 97 h -193 v -97 h -193 v -97 h -97 v 97 h -193 v -97 h -97 v 97 h -193 -193 v 97 h 193 v -97 -97 h 97 v -97 h -290 z m 290,-193 h 193 v 97 h -193 z m 579,97 h -193 v -97 h 193 z"
   id="path467"
   style="fill:#999999" />

  <path
   class="fil0"
   d="m 8377,5454 v -290 h 97 v -97 h 290 v -97 h 386 v 97 h 290 v 97 h 97 v 290 h -290 v 97 h 97 v 97 h 193 v 97 h -193 v -97 h -193 v -97 h -97 v 97 h -193 v -97 h -97 v 97 h -193 -193 v 97 h 193 v -97 -97 h 97 v -97 h -290 z m 290,-193 h 193 v 97 h -193 z m 579,97 h -193 v -97 h 193 z"
   id="path469"
   style="fill:#999999" />

  <path
   class="fil0"
   d="m 10248,5454 v -290 h 97 v -97 h 290 v -97 h 386 v 97 h 290 v 97 h 97 v 290 h -290 v 97 h 97 v 97 h 193 v 97 h -193 v -97 h -193 v -97 h -97 v 97 h -193 v -97 h -97 v 97 h -193 -193 v 97 h 193 v -97 -97 h 97 v -97 h -290 z m 290,-193 h 193 v 97 h -193 z m 579,97 h -193 v -97 h 193 z"
   id="path471"
   style="fill:#999999" />

  <path
   class="fil0"
   d="m 12118,5454 v -290 h 97 v -97 h 290 v -97 h 386 v 97 h 290 v 97 h 97 v 290 h -290 v 97 h 97 v 97 h 193 v 97 h -193 v -97 h -193 v -97 h -97 v 97 h -193 v -97 h -97 v 97 h -193 -193 v 97 h 193 v -97 -97 h 97 v -97 h -290 z m 290,-193 h 193 v 97 h -193 z m 579,97 h -193 v -97 h 193 z"
   id="path473"
   style="fill:#999999" />

  <path
   class="fil0"
   d="m 13989,5454 v -290 h 97 v -97 h 290 v -97 h 386 v 97 h 290 v 97 h 97 v 290 h -290 v 97 h 97 v 97 h 193 v 97 h -193 v -97 h -193 v -97 h -97 v 97 h -193 v -97 h -97 v 97 h -193 -193 v 97 h 193 v -97 -97 h 97 v -97 h -290 z m 290,-193 h 193 v 97 h -193 z m 579,97 h -193 v -97 h 193 z"
   id="path475"
   style="fill:#999999" />

  <path
   class="fil0"
   d="m 15859,5454 v -290 h 97 v -97 h 290 v -97 h 386 v 97 h 290 v 97 h 97 v 290 h -290 v 97 h 97 v 97 h 193 v 97 h -193 v -97 h -193 v -97 h -97 v 97 h -193 v -97 h -97 v 97 h -193 -193 v 97 h 193 v -97 -97 h 97 v -97 h -290 z m 290,-193 h 193 v 97 h -193 z m 579,97 h -193 v -97 h 193 z"
   id="path477"
   style="fill:#999999" />

  <path
   class="fil0"
   d="m 17730,5454 v -290 h 97 v -97 h 290 v -97 h 386 v 97 h 290 v 97 h 97 v 290 h -290 v 97 h 97 v 97 h 193 v 97 h -193 v -97 h -193 v -97 h -97 v 97 h -193 v -97 h -97 v 97 h -193 -193 v 97 h 193 v -97 -97 h 97 v -97 h -290 z m 290,-193 h 193 v 97 h -193 z m 579,97 h -193 v -97 h 193 z"
   id="path479"
   style="fill:#999999" />

  <path
   class="fil0"
   d="m 19600,5454 v -290 h 97 v -97 h 290 v -97 h 386 v 97 h 290 v 97 h 97 v 290 h -290 v 97 h 97 v 97 h 193 v 97 h -193 v -97 h -193 v -97 h -97 v 97 h -193 v -97 h -97 v 97 h -193 -193 v 97 h 193 v -97 -97 h 97 v -97 h -290 z m 290,-193 h 193 v 97 h -193 z m 579,97 h -193 v -97 h 193 z"
   id="path481"
   style="fill:#999999" />

  <path
   class="fil0"
   d="m 4733,8108 v -97 h -97 v -97 h -193 v -97 h 97 v -97 h 97 v -97 h 97 v -97 h 193 v -97 h 579 v 97 h 193 v 97 h 97 v 97 h 97 v 97 h 97 v 97 h -193 v 97 h -97 v 97 h -97 v -97 h -97 v -97 h -193 v 97 h -193 v -97 h -193 v 97 h -97 v 97 z m 0,-386 h 97 v 97 h -97 z m 386,0 h -97 v 97 h 97 z m 193,0 h 97 v 97 h -97 z m 290,97 h 97 v -97 h -97 z"
   id="path483"
   style="fill:#999999" />

  <path
   class="fil0"
   d="m 6603,8108 v -97 h -97 v -97 h -193 v -97 h 97 v -97 h 97 v -97 h 97 v -97 h 193 v -97 h 579 v 97 h 193 v 97 h 97 v 97 h 97 v 97 h 97 v 97 h -193 v 97 h -97 v 97 h -97 v -97 h -97 v -97 h -193 v 97 h -193 v -97 h -193 v 97 h -97 v 97 z m 0,-386 h 97 v 97 h -97 z m 386,0 h -97 v 97 h 97 z m 193,0 h 97 v 97 h -97 z m 290,97 h 97 v -97 h -97 z"
   id="path485"
   style="fill:#999999" />

  <path
   class="fil0"
   d="m 8474,8108 v -97 h -97 v -97 h -193 v -97 h 97 v -97 h 97 v -97 h 97 v -97 h 193 v -97 h 579 v 97 h 193 v 97 h 97 v 97 h 97 v 97 h 97 v 97 h -193 v 97 h -97 v 97 h -97 v -97 h -97 v -97 h -193 v 97 h -193 v -97 h -193 v 97 h -97 v 97 z m 0,-386 h 97 v 97 h -97 z m 386,0 h -97 v 97 h 97 z m 193,0 h 97 v 97 h -97 z m 290,97 h 97 v -97 h -97 z"
   id="path487"
   style="fill:#999999" />

  <path
   class="fil0"
   d="m 12215,8108 v -97 h -97 v -97 h -193 v -97 h 97 v -97 h 97 v -97 h 97 v -97 h 193 v -97 h 579 v 97 h 193 v 97 h 97 v 97 h 97 v 97 h 97 v 97 h -193 v 97 h -97 v 97 h -97 v -97 h -97 v -97 h -193 v 97 h -193 v -97 h -193 v 97 h -97 v 97 z m 0,-386 h 97 v 97 h -97 z m 386,0 h -97 v 97 h 97 z m 193,0 h 97 v 97 h -97 z m 290,97 h 97 v -97 h -97 z"
   id="path489"
   style="fill:#999999" />

  <path
   class="fil0"
   d="m 14085,8108 v -97 h -97 v -97 h -193 v -97 h 97 v -97 h 97 v -97 h 97 v -97 h 193 v -97 h 579 v 97 h 193 v 97 h 97 v 97 h 97 v 97 h 97 v 97 h -193 v 97 h -97 v 97 h -97 v -97 h -97 v -97 h -193 v 97 h -193 v -97 h -193 v 97 h -97 v 97 z m 0,-386 h 97 v 97 h -97 z m 386,0 h -97 v 97 h 97 z m 193,0 h 97 v 97 h -97 z m 290,97 h 97 v -97 h -97 z"
   id="path491"
   style="fill:#999999" />

  <path
   class="fil0"
   d="m 15956,8108 v -97 h -97 v -97 h -193 v -97 h 97 v -97 h 97 v -97 h 97 v -97 h 193 v -97 h 579 v 97 h 193 v 97 h 97 v 97 h 97 v 97 h 97 v 97 h -193 v 97 h -97 v 97 h -97 v -97 h -97 v -97 h -193 v 97 h -193 v -97 h -193 v 97 h -97 v 97 z m 0,-386 h 97 v 97 h -97 z m 386,0 h -97 v 97 h 97 z m 193,0 h 97 v 97 h -97 z m 290,97 h 97 v -97 h -97 z"
   id="path493"
   style="fill:#999999" />

  <path
   class="fil0"
   d="m 17826,8108 v -97 h -97 v -97 h -193 v -97 h 97 v -97 h 97 v -97 h 97 v -97 h 193 v -97 h 579 v 97 h 193 v 97 h 97 v 97 h 97 v 97 h 97 v 97 h -193 v 97 h -97 v 97 h -97 v -97 h -97 v -97 h -193 v 97 h -193 v -97 h -193 v 97 h -97 v 97 z m 0,-386 h 97 v 97 h -97 z m 386,0 h -97 v 97 h 97 z m 193,0 h 97 v 97 h -97 z m 290,97 h 97 v -97 h -97 z"
   id="path495"
   style="fill:#999999" />

  <path
   class="fil0"
   d="m 19697,8108 v -97 h -97 v -97 h -193 v -97 h 97 v -97 h 97 v -97 h 97 v -97 h 193 v -97 h 579 v 97 h 193 v 97 h 97 v 97 h 97 v 97 h 97 v 97 h -193 v 97 h -97 v 97 h -97 v -97 h -97 v -97 h -193 v 97 h -193 v -97 h -193 v 97 h -97 v 97 z m 0,-386 h 97 v 97 h -97 z m 386,0 h -97 v 97 h 97 z m 193,0 h 97 v 97 h -97 z m 290,97 h 97 v -97 h -97 z"
   id="path497"
   style="fill:#999999" />

  <polygon
   class="fil0"
   points="4926,9467 5022,9467 5022,9370 5022,9274 4926,9274 4926,9081 4829,9081 4829,8791 4926,8791 4926,8984 5022,8984 5119,8984 5119,9177 5022,9177 5022,8984 5022,8888 5119,8888 5119,8791 5022,8791 5022,8598 5119,8598 5119,8791 5312,8791 5312,8598 5408,8598 5408,8791 5312,8791 5312,8888 5408,8888 5408,8984 5408,9177 5312,9177 5312,8984 5408,8984 5505,8984 5505,8791 5601,8791 5601,9081 5505,9081 5505,9274 5408,9274 5408,9370 5505,9370 5505,9467 5408,9467 5408,9370 5312,9370 5312,9274 5119,9274 5119,9370 5022,9370 4926,9370 "
   id="polygon499"
   style="fill:#999999" />

  <polygon
   class="fil0"
   points="6796,9467 6893,9467 6893,9370 6893,9274 6796,9274 6796,9081 6700,9081 6700,8791 6796,8791 6796,8984 6893,8984 6989,8984 6989,9177 6893,9177 6893,8984 6893,8888 6989,8888 6989,8791 6893,8791 6893,8598 6989,8598 6989,8791 7182,8791 7182,8598 7279,8598 7279,8791 7182,8791 7182,8888 7279,8888 7279,8984 7279,9177 7182,9177 7182,8984 7279,8984 7375,8984 7375,8791 7472,8791 7472,9081 7375,9081 7375,9274 7279,9274 7279,9370 7375,9370 7375,9467 7279,9467 7279,9370 7182,9370 7182,9274 6989,9274 6989,9370 6893,9370 6796,9370 "
   id="polygon501"
   style="fill:#999999" />

  <polygon
   class="fil0"
   points="8667,9467 8763,9467 8763,9370 8763,9274 8667,9274 8667,9081 8570,9081 8570,8791 8667,8791 8667,8984 8763,8984 8860,8984 8860,9177 8763,9177 8763,8984 8763,8888 8860,8888 8860,8791 8763,8791 8763,8598 8860,8598 8860,8791 9053,8791 9053,8598 9149,8598 9149,8791 9053,8791 9053,8888 9149,8888 9149,8984 9149,9177 9053,9177 9053,8984 9149,8984 9246,8984 9246,8791 9342,8791 9342,9081 9246,9081 9246,9274 9149,9274 9149,9370 9246,9370 9246,9467 9149,9467 9149,9370 9053,9370 9053,9274 8860,9274 8860,9370 8763,9370 8667,9370 "
   id="polygon503"
   style="fill:#999999" />

  <polygon
   class="fil0"
   points="12408,9467 12504,9467 12504,9370 12504,9274 12408,9274 12408,9081 12311,9081 12311,8791 12408,8791 12408,8984 12504,8984 12601,8984 12601,9177 12504,9177 12504,8984 12504,8888 12601,8888 12601,8791 12504,8791 12504,8598 12601,8598 12601,8791 12794,8791 12794,8598 12890,8598 12890,8791 12794,8791 12794,8888 12890,8888 12890,8984 12890,9177 12794,9177 12794,8984 12890,8984 12987,8984 12987,8791 13084,8791 13084,9081 12987,9081 12987,9274 12890,9274 12890,9370 12987,9370 12987,9467 12890,9467 12890,9370 12794,9370 12794,9274 12601,9274 12601,9370 12504,9370 12408,9370 "
   id="polygon505"
   style="fill:#999999" />

  <polygon
   class="fil0"
   points="14278,9467 14375,9467 14375,9370 14375,9274 14278,9274 14278,9081 14182,9081 14182,8791 14278,8791 14278,8984 14375,8984 14471,8984 14471,9177 14375,9177 14375,8984 14375,8888 14471,8888 14471,8791 14375,8791 14375,8598 14471,8598 14471,8791 14664,8791 14664,8598 14761,8598 14761,8791 14664,8791 14664,8888 14761,8888 14761,8984 14761,9177 14664,9177 14664,8984 14761,8984 14858,8984 14858,8791 14954,8791 14954,9081 14858,9081 14858,9274 14761,9274 14761,9370 14858,9370 14858,9467 14761,9467 14761,9370 14664,9370 14664,9274 14471,9274 14471,9370 14375,9370 14278,9370 "
   id="polygon507"
   style="fill:#999999" />

  <polygon
   class="fil0"
   points="16149,9467 16245,9467 16245,9370 16245,9274 16149,9274 16149,9081 16052,9081 16052,8791 16149,8791 16149,8984 16245,8984 16342,8984 16342,9177 16245,9177 16245,8984 16245,8888 16342,8888 16342,8791 16245,8791 16245,8598 16342,8598 16342,8791 16535,8791 16535,8598 16632,8598 16632,8791 16535,8791 16535,8888 16632,8888 16632,8984 16632,9177 16535,9177 16535,8984 16632,8984 16728,8984 16728,8791 16825,8791 16825,9081 16728,9081 16728,9274 16632,9274 16632,9370 16728,9370 16728,9467 16632,9467 16632,9370 16535,9370 16535,9274 16342,9274 16342,9370 16245,9370 16149,9370 "
   id="polygon509"
   style="fill:#999999" />

  <polygon
   class="fil0"
   points="18019,9467 18116,9467 18116,9370 18116,9274 18019,9274 18019,9081 17923,9081 17923,8791 18019,8791 18019,8984 18116,8984 18212,8984 18212,9177 18116,9177 18116,8984 18116,8888 18212,8888 18212,8791 18116,8791 18116,8598 18212,8598 18212,8791 18406,8791 18406,8598 18502,8598 18502,8791 18406,8791 18406,8888 18502,8888 18502,8984 18502,9177 18406,9177 18406,8984 18502,8984 18599,8984 18599,8791 18695,8791 18695,9081 18599,9081 18599,9274 18502,9274 18502,9370 18599,9370 18599,9467 18502,9467 18502,9370 18406,9370 18406,9274 18212,9274 18212,9370 18116,9370 18019,9370 "
   id="polygon511"
   style="fill:#999999" />

  <polygon
   class="fil0"
   points="19890,9467 19986,9467 19986,9370 19986,9274 19890,9274 19890,9081 19793,9081 19793,8791 19890,8791 19890,8984 19986,8984 20083,8984 20083,9177 19986,9177 19986,8984 19986,8888 20083,8888 20083,8791 19986,8791 19986,8598 20083,8598 20083,8791 20276,8791 20276,8598 20373,8598 20373,8791 20276,8791 20276,8888 20373,8888 20373,8984 20373,9177 20276,9177 20276,8984 20373,8984 20469,8984 20469,8791 20566,8791 20566,9081 20469,9081 20469,9274 20373,9274 20373,9370 20469,9370 20469,9467 20373,9467 20373,9370 20276,9370 20276,9274 20083,9274 20083,9370 19986,9370 19890,9370 "
   id="polygon513"
   style="fill:#999999" />

  <path
   class="fil0"
   d="m 4877,6858 v -193 h -97 v 193 h -97 v -290 h 97 v -97 h 97 v -97 h 97 v -97 h -97 v -97 h 97 v 97 h 97 v 97 h 290 v -97 h 97 v -97 h 97 v 97 h -97 v 97 h 97 v 97 h 97 v 97 h 97 v 290 h -97 v -193 h -97 v 193 h -97 v 97 h -193 v -97 h 193 v -97 h -483 v 97 h 193 v 97 h -193 v -97 h -97 z m 483,-386 h 97 v 97 h -97 z m -386,0 h 97 v 97 h -97 z"
   id="path515"
   style="fill:#999999" />

  <path
   class="fil0"
   d="m 6748,6858 v -193 h -97 v 193 h -97 v -290 h 97 v -97 h 97 v -97 h 97 v -97 h -97 v -97 h 97 v 97 h 97 v 97 h 290 v -97 h 97 v -97 h 97 v 97 h -97 v 97 h 97 v 97 h 97 v 97 h 97 v 290 h -97 v -193 h -97 v 193 h -97 v 97 h -193 v -97 h 193 v -97 h -483 v 97 h 193 v 97 h -193 v -97 h -97 z m 483,-386 h 97 v 97 h -97 z m -386,0 h 97 v 97 h -97 z"
   id="path517"
   style="fill:#999999" />

  <path
   class="fil0"
   d="m 8618,6858 v -193 h -97 v 193 h -97 v -290 h 97 v -97 h 97 v -97 h 97 v -97 h -97 v -97 h 97 v 97 h 97 v 97 h 290 v -97 h 97 v -97 h 97 v 97 h -97 v 97 h 97 v 97 h 97 v 97 h 97 v 290 h -97 v -193 h -97 v 193 h -97 v 97 h -193 v -97 h 193 v -97 h -483 v 97 h 193 v 97 h -193 v -97 h -97 z m 483,-386 h 97 v 97 h -97 z m -386,0 h 97 v 97 h -97 z"
   id="path519"
   style="fill:#999999" />

  <path
   class="fil0"
   d="m 10489,6858 v -193 h -97 v 193 h -97 v -290 h 97 v -97 h 97 v -97 h 97 v -97 h -97 v -97 h 97 v 97 h 97 v 97 h 290 v -97 h 97 v -97 h 97 v 97 h -97 v 97 h 97 v 97 h 97 v 97 h 97 v 290 h -97 v -193 h -97 v 193 h -97 v 97 h -193 v -97 h 193 v -97 h -483 v 97 h 193 v 97 h -193 v -97 h -97 z m 483,-386 h 97 v 97 h -97 z m -386,0 h 97 v 97 h -97 z"
   id="path521"
   style="fill:#999999" />

  <path
   class="fil0"
   d="m 12359,6858 v -193 h -97 v 193 h -97 v -290 h 97 v -97 h 97 v -97 h 97 v -97 h -97 v -97 h 97 v 97 h 97 v 97 h 290 v -97 h 97 v -97 h 97 v 97 h -97 v 97 h 97 v 97 h 97 v 97 h 97 v 290 h -97 v -193 h -97 v 193 h -97 v 97 h -193 v -97 h 193 v -97 h -483 v 97 h 193 v 97 h -193 v -97 h -97 z m 483,-386 h 97 v 97 h -97 z m -386,0 h 97 v 97 h -97 z"
   id="path523"
   style="fill:#999999" />

  <path
   class="fil0"
   d="m 14230,6858 v -193 h -97 v 193 h -97 v -290 h 97 v -97 h 97 v -97 h 97 v -97 h -97 v -97 h 97 v 97 h 97 v 97 h 290 v -97 h 97 v -97 h 97 v 97 h -97 v 97 h 97 v 97 h 97 v 97 h 97 v 290 h -97 v -193 h -97 v 193 h -97 v 97 h -193 v -97 h 193 v -97 h -483 v 97 h 193 v 97 h -193 v -97 h -97 z m 483,-386 h 97 v 97 h -97 z m -386,0 h 97 v 97 h -97 z"
   id="path525"
   style="fill:#999999" />

  <path
   class="fil0"
   d="m 16101,6858 v -193 h -97 v 193 h -97 v -290 h 97 v -97 h 97 v -97 h 97 v -97 h -97 v -97 h 97 v 97 h 97 v 97 h 290 v -97 h 97 v -97 h 97 v 97 h -97 v 97 h 97 v 97 h 97 v 97 h 97 v 290 h -97 v -193 h -97 v 193 h -97 v 97 h -193 v -97 h 193 v -97 h -483 v 97 h 193 v 97 h -193 v -97 h -97 z m 483,-386 h 97 v 97 h -97 z m -386,0 h 97 v 97 h -97 z"
   id="path527"
   style="fill:#999999" />

  <path
   class="fil0"
   d="m 17971,6858 v -193 h -97 v 193 h -97 v -290 h 97 v -97 h 97 v -97 h 97 v -97 h -97 v -97 h 97 v 97 h 97 v 97 h 290 v -97 h 97 v -97 h 97 v 97 h -97 v 97 h 97 v 97 h 97 v 97 h 97 v 290 h -97 v -193 h -97 v 193 h -97 v 97 h -193 v -97 h 193 v -97 h -483 v 97 h 193 v 97 h -193 v -97 h -97 z m 483,-386 h 97 v 97 h -97 z m -386,0 h 97 v 97 h -97 z"
   id="path529"
   style="fill:#999999" />

  <path
   class="fil0"
   d="m 19842,6858 v -193 h -97 v 193 h -97 v -290 h 97 v -97 h 97 v -97 h 97 v -97 h -97 v -97 h 97 v 97 h 97 v 97 h 290 v -97 h 97 v -97 h 97 v 97 h -97 v 97 h 97 v 97 h 97 v 97 h 97 v 290 h -97 v -193 h -97 v 193 h -97 v 97 h -193 v -97 h 193 v -97 h -483 v 97 h 193 v 97 h -193 v -97 h -97 z m 483,-386 h 97 v 97 h -97 z m -386,0 h 97 v 97 h -97 z"
   id="path531"
   style="fill:#999999" />

  <g
   id="_950109488"
   style="fill:#999999">

   <polygon
   class="fil0"
   points="12221,15392 12221,15102 12124,15102 12124,15005 11835,15005 11835,14812 11738,14812 11738,14716 11642,14716 11642,14812 11545,14812 11545,15005 11255,15005 11255,15102 11159,15102 11159,15392 "
   id="polygon533"
   style="fill:#999999" />

   <rect
   class="fil0"
   x="11641"
   y="14220"
   width="96.740997"
   height="193.491"
   id="rect535"
   style="fill:#999999" />

   <rect
   class="fil0"
   x="11641"
   y="13594"
   width="96.740997"
   height="193.491"
   id="rect537"
   style="fill:#999999" />

   <rect
   class="fil0"
   x="11641"
   y="12969"
   width="96.740997"
   height="193.491"
   id="rect539"
   style="fill:#999999" />

   <rect
   class="fil0"
   x="11641"
   y="12343"
   width="96.740997"
   height="193.491"
   id="rect541"
   style="fill:#999999" />

   <rect
   class="fil0"
   x="11641"
   y="11713"
   width="96.740997"
   height="193.491"
   id="rect543"
   style="fill:#999999" />

   <rect
   class="fil0"
   x="11641"
   y="11083"
   width="96.740997"
   height="193.491"
   id="rect545"
   style="fill:#999999" />

   <rect
   class="fil0"
   x="11641"
   y="10454"
   width="96.740997"
   height="193.491"
   id="rect547"
   style="fill:#999999" />

   <rect
   class="fil0"
   x="11641"
   y="9824"
   width="96.740997"
   height="193.491"
   id="rect549"
   style="fill:#999999" />

  </g>

 </g>

</svg>
