<?xml version="1.0" encoding="UTF-8" standalone="no"?>
<svg
   xmlns:dc="http://purl.org/dc/elements/1.1/"
   xmlns:cc="http://creativecommons.org/ns#"
   xmlns:rdf="http://www.w3.org/1999/02/22-rdf-syntax-ns#"
   xmlns:svg="http://www.w3.org/2000/svg"
   xmlns="http://www.w3.org/2000/svg"
   xmlns:sodipodi="http://sodipodi.sourceforge.net/DTD/sodipodi-0.dtd"
   xmlns:inkscape="http://www.inkscape.org/namespaces/inkscape"
   sodipodi:docname="modelsim-logo.svg"
   inkscape:version="1.0 (4035a4fb49, 2020-05-01)"
   id="svg8"
   version="1.1"
   viewBox="0 0 187.0865 28.042433"
   height="28.042433mm"
   width="187.0865mm">
  <defs
     id="defs2" />
  <sodipodi:namedview
     inkscape:window-maximized="1"
     inkscape:window-y="32"
     inkscape:window-x="1912"
     inkscape:window-height="1017"
     inkscape:window-width="1920"
     fit-margin-bottom="0"
     fit-margin-right="0"
     fit-margin-left="0"
     fit-margin-top="0"
     showgrid="false"
     inkscape:document-rotation="0"
     inkscape:current-layer="layer1"
     inkscape:document-units="mm"
     inkscape:cy="291.62704"
     inkscape:cx="541.39482"
     inkscape:zoom="0.98994949"
     inkscape:pageshadow="2"
     inkscape:pageopacity="0.0"
     borderopacity="1.0"
     bordercolor="#666666"
     pagecolor="#ffffff"
     id="base" />
  <metadata
     id="metadata5">
    <rdf:RDF>
      <cc:Work
         rdf:about="">
        <dc:format>image/svg+xml</dc:format>
        <dc:type
           rdf:resource="http://purl.org/dc/dcmitype/StillImage" />
        <dc:title></dc:title>
      </cc:Work>
    </rdf:RDF>
  </metadata>
  <g
     transform="translate(44.156736,-50.944241)"
     id="layer1"
     inkscape:groupmode="layer"
     inkscape:label="Layer 1">
    <g
       transform="translate(-32.778785,-57.390231)"
       id="g847">
      <path
         sodipodi:nodetypes="cscsccsssssscscscsssssscccssccssccccsscccssssscssssscssscsscscsssscssssscccscsss"
         id="path851"
         d="m 102.34586,135.83458 c -2.28557,-0.64352 -3.069064,-1.27326 -3.937723,-3.16493 -0.657648,-1.43216 -0.919579,-5.26814 -0.382393,-5.60014 0.154598,-0.0955 2.059596,-0.28626 4.233336,-0.42381 l 3.95224,-0.25008 0.002,1.54951 c 0.002,1.35694 0.14732,1.64817 1.16836,2.34327 1.38264,0.94127 2.53734,0.99819 4.48009,0.22085 1.36738,-0.54714 2.46297,-1.90786 2.46297,-3.05907 0,-1.06288 -1.59967,-1.91746 -6.04661,-3.23025 -4.10845,-1.21286 -6.68639,-3.98382 -6.11721,-6.57524 0.69631,-3.17027 3.39885,-6.58375 6.18821,-7.81609 3.07999,-1.36074 3.76653,-1.48749 8.09228,-1.49399 3.45101,-0.005 4.68428,0.12499 5.67259,0.59879 2.47689,1.18742 3.51,2.82068 3.49423,5.5241 -0.01,1.67144 -0.3578,1.83274 -4.52553,2.09723 l -3.93573,0.24977 v -1.09678 c 0,-1.39211 -1.00746,-2.32285 -2.56202,-2.36692 -2.54295,-0.0721 -4.67233,1.71008 -3.67422,3.07509 0.38452,0.52586 2.39373,1.23488 5.53068,1.95169 3.02877,0.6921 5.23834,2.10381 6.20713,3.9658 2.00122,3.84629 -2.35517,10.8606 -8.02997,12.9292 -2.95844,1.07842 -9.40714,1.37897 -12.27318,0.572 z m 21.67153,-0.4309 c 0.3632,-0.92402 0.99487,-2.88364 2.81446,-8.73125 0.90563,-2.91042 2.00723,-6.40292 2.44799,-7.76112 l 0.80139,-2.46944 3.76366,-0.10013 c 2.07001,-0.0551 3.7635,0.0243 3.76331,0.17639 -3.3e-4,0.26603 -1.46615,4.92437 -4.66457,14.82388 l -1.50869,4.66959 -3.83011,0.005 c -3.506,0.004 -3.80957,-0.0475 -3.58744,-0.61264 z m 12.53283,0.14645 c 0,-0.50236 0.071,-0.7321 3.69764,-11.96451 l 2.36348,-7.32014 h 3.48701 3.48701 l -0.21167,1.05833 c -0.11642,0.58209 -0.123,1.05834 -0.0146,1.05834 0.10838,0 0.969,-0.47987 1.91249,-1.06637 0.95668,-0.59471 2.67759,-1.24531 3.89076,-1.47092 2.87883,-0.53538 4.53546,-0.0541 5.68965,1.6529 l 0.84202,1.24533 1.09826,-0.73482 c 1.9584,-1.31031 4.10928,-2.14783 6.02337,-2.34538 1.54464,-0.15942 2.13346,-0.0473 3.35419,0.63881 2.09537,1.17767 2.51583,2.35281 1.95392,5.461 -0.38999,2.15724 -2.32253,8.45223 -3.92066,12.771 l -0.55923,1.51127 -3.58222,-0.10016 c -4.22411,-0.11811 -4.02393,0.5181 -1.91848,-6.09738 0.80277,-2.52237 1.4712,-5.30049 1.48541,-6.17362 l 0.0258,-1.5875 -1.41111,-0.0866 c -2.46704,-0.15144 -3.29338,1.10681 -5.6752,8.64149 l -1.70064,5.37986 h -3.80861 c -2.09473,0 -3.80629,-0.11907 -3.80347,-0.26459 0.003,-0.14552 0.25492,-0.97895 0.56022,-1.85208 1.92852,-5.51535 3.32793,-10.48461 3.15106,-11.1893 -0.16724,-0.66635 -0.43951,-0.80514 -1.5794,-0.80514 -2.53345,0 -3.1763,0.93302 -5.45859,7.92243 l -2.02082,6.18868 h -3.6788 c -2.83257,0 -3.6788,-0.10833 -3.6788,-0.47091 z m -5.35785,-21.93835 c -0.10108,-0.10107 0.1754,-1.25201 0.6144,-2.55764 l 0.79818,-2.37387 3.73652,-0.10013 c 2.85714,-0.0766 3.73736,0.006 3.74009,0.35278 0.002,0.2491 -0.34489,1.44509 -0.77079,2.65777 l -0.77437,2.20486 h -3.58013 c -1.96907,0 -3.66283,-0.0827 -3.7639,-0.18378 z"
         style="fill:#0dace2;stroke-width:0.352778" />
      <path
         id="path849"
         d="m 25.954375,135.88034 c -4.675971,-1.47881 -6.552559,-3.99465 -6.810785,-9.13083 -0.187427,-3.72801 0.411053,-5.63843 2.464118,-7.86574 3.635516,-3.94407 10.792676,-4.13661 14.696331,-0.39536 1.951056,1.86989 2.633973,3.57323 2.807819,7.00329 0.136793,2.69895 0.05334,3.27115 -0.720344,4.93889 -2.196409,4.73458 -7.437216,7.03102 -12.437139,5.44975 z m 5.812561,-4.72586 c 2.027749,-1.48434 2.817576,-5.73802 1.558216,-8.39193 -1.140104,-2.40259 -4.405948,-3.34617 -6.712833,-1.9395 -2.249734,1.37182 -3.029948,6.77893 -1.315568,9.11731 1.582484,2.15848 4.44603,2.69582 6.470185,1.21412 z m 16.100401,4.69994 c -1.971142,-0.70255 -3.975717,-2.82002 -4.838189,-5.11067 -0.614687,-1.63256 -0.712897,-2.53598 -0.59599,-5.48244 0.160165,-4.03664 0.796044,-5.66903 2.942404,-7.55356 1.668879,-1.46529 2.700711,-1.84424 5.157498,-1.89414 1.670611,-0.0339 2.294965,0.14215 3.782269,1.06671 l 1.781358,1.10736 0.09829,-4.65346 0.09829,-4.65346 2.557639,-0.10365 2.557639,-0.10365 v 13.78991 13.7899 l -2.38125,-0.10431 -2.381251,-0.10431 -0.111731,-1.16241 -0.111729,-1.16241 -1.201543,1.05497 c -1.978343,1.73701 -4.727988,2.21547 -7.353703,1.27962 z m 6.268735,-4.45064 c 1.496638,-1.17726 1.980805,-2.49139 1.980805,-5.37631 0,-3.10806 -0.607565,-4.76992 -2.053485,-5.61685 -2.354816,-1.37931 -5.192829,-0.24753 -6.07393,2.42223 -0.676783,2.05067 -0.310759,6.09747 0.67697,7.4846 1.371984,1.92678 3.79052,2.40712 5.46964,1.08633 z m 17.500746,4.66324 c -2.303784,-0.76024 -4.399189,-2.46817 -5.538492,-4.51433 -0.853253,-1.53242 -1.260327,-5.26073 -0.838733,-7.68172 0.925022,-5.31186 3.991487,-8.04646 9.022959,-8.04646 1.755229,0 2.726983,0.21653 4.194973,0.93475 3.041227,1.48794 4.441769,3.90646 4.974513,8.59025 l 0.250782,2.20486 h -6.607186 -6.607182 l 0.211839,1.30543 c 0.290537,1.79037 1.848962,3.28063 3.688751,3.52739 1.261992,0.16927 1.580882,0.0628 2.467031,-0.8233 0.559732,-0.55973 1.083332,-1.2124 1.163557,-1.45038 0.112374,-0.33335 0.67226,-0.34812 2.438915,-0.0643 1.261181,0.20259 2.413925,0.48794 2.561654,0.63412 0.488555,0.48342 -1.901988,3.57101 -3.481522,4.49668 -1.211252,0.70984 -2.14508,0.93729 -4.283291,1.04329 -1.503888,0.0746 -3.132243,0.004 -3.618568,-0.15624 z m 6.703092,-11.95223 c -0.008,-1.08331 -0.884852,-3.00179 -1.645257,-3.59993 -2.162133,-1.70073 -5.549805,-0.26474 -5.995907,2.54159 l -0.210294,1.32292 h 3.926713 c 2.159692,0 3.925828,-0.11906 3.924745,-0.26458 z m 94.04245,11.70466 c -1.20025,-1.20025 -0.31112,-3.32619 1.39111,-3.32619 0.88072,0 1.93508,1.16628 1.93508,2.14049 0,1.44192 -2.26319,2.24869 -3.32619,1.1857 z m 1.66452,-0.50397 c -0.20826,-0.79638 -0.66026,-0.92541 -0.92691,-0.26458 -0.0979,0.24253 -0.19047,0.0214 -0.20579,-0.49143 -0.0153,-0.51281 0.19476,-1.01781 0.46682,-1.12222 0.64961,-0.24927 0.91644,0.0519 0.91644,1.03426 0,0.93249 0.54695,1.41335 0.81451,0.7161 0.26461,-0.68955 -0.5499,-2.13853 -1.28129,-2.27938 -1.34581,-0.25918 -2.23201,1.68401 -1.22655,2.68947 0.71038,0.71039 1.65407,0.52579 1.44277,-0.28222 z m -0.10222,-1.41111 c 0,-0.19403 -0.07,-0.35278 -0.15557,-0.35278 -0.0856,0 -0.25368,0.15875 -0.37359,0.35278 -0.11992,0.19403 -0.0499,0.35278 0.15556,0.35278 0.20548,0 0.3736,-0.15875 0.3736,-0.35278 z M -11.343642,122.61414 c -0.05304,-7.37379 -0.04351,-13.56504 0.02116,-13.75833 0.06848,-0.20467 1.7208047,-0.35144 3.9563385,-0.35144 3.2953927,0 3.8853272,0.0874 4.1678419,0.61736 0.1810029,0.33955 1.3214411,4.46991 2.53430739,9.17857 1.21286596,4.70866 2.25216661,8.51425 2.30955691,8.45686 0.1615884,-0.16159 2.0921022,-7.27993 3.5390087,-13.04932 l 1.3049812,-5.20347 h 4.1761594 4.17616 v 13.75833 13.75834 H 12.19604 9.5502068 l -0.037979,-10.31875 -0.037979,-10.31875 -2.5316171,10.23055 -2.5316175,10.23056 -2.6937499,0.10252 c -2.3389962,0.089 -2.71715002,0.0193 -2.871436,-0.52916 -0.097727,-0.34743 -1.2614096,-4.99732 -2.58596,-10.33308 l -2.4082737,-9.70139 -0.093523,10.31875 -0.093523,10.31875 h -2.4558799 -2.4558797 z m 99.09293,13.17171 c -0.129354,-0.12935 -0.235187,-6.3206 -0.235187,-13.75833 v -13.52315 h 2.645834 2.645833 v 13.75833 13.75834 h -2.410647 c -1.325859,0 -2.516484,-0.10584 -2.645833,-0.23519 z"
         style="fill:#252324;stroke-width:0.352778" />
    </g>
  </g>
</svg>
