<?xml version="1.0" encoding="UTF-8" standalone="no"?>
<svg
   viewBox="0 0 466 152"
   version="1.1"
   id="svg2960"
   sodipodi:docname="scala-logo.svg"
   inkscape:version="1.2.2 (b0a84865, 2022-12-01)"
   xmlns:inkscape="http://www.inkscape.org/namespaces/inkscape"
   xmlns:sodipodi="http://sodipodi.sourceforge.net/DTD/sodipodi-0.dtd"
   xmlns="http://www.w3.org/2000/svg"
   xmlns:svg="http://www.w3.org/2000/svg">
  <defs
     id="defs2964" />
  <sodipodi:namedview
     id="namedview2962"
     pagecolor="#ffffff"
     bordercolor="#999999"
     borderopacity="1"
     inkscape:showpageshadow="0"
     inkscape:pageopacity="0"
     inkscape:pagecheckerboard="0"
     inkscape:deskcolor="#d1d1d1"
     showgrid="false"
     inkscape:zoom="1.5526316"
     inkscape:cx="206.74576"
     inkscape:cy="76"
     inkscape:window-width="1309"
     inkscape:window-height="404"
     inkscape:window-x="0"
     inkscape:window-y="25"
     inkscape:window-maximized="0"
     inkscape:current-layer="svg2960" />
  <linearGradient
     id="a"
     gradientUnits="userSpaceOnUse"
     x1=".804"
     y1="792.244"
     x2=".977"
     y2="792.244"
     gradientTransform="matrix(432 0 0 460.8 -333.8 -365010.219)">
    <stop
       offset="0"
       stop-color="#656565"
       id="stop2923" />
    <stop
       offset="1"
       stop-color="#010101"
       id="stop2925" />
  </linearGradient>
  <path
     fill="url(#a)"
     d="M13.4 61s75 7.5 75 20V51s0-12.5-75-20v30z"
     id="path2928" />
  <linearGradient
     id="b"
     gradientUnits="userSpaceOnUse"
     x1=".804"
     y1="791.831"
     x2=".977"
     y2="791.831"
     gradientTransform="matrix(432 0 0 460.8 -333.8 -364779.813)">
    <stop
       offset="0"
       stop-color="#656565"
       id="stop2930" />
    <stop
       offset="1"
       stop-color="#010101"
       id="stop2932" />
  </linearGradient>
  <path
     fill="url(#b)"
     d="M13.4 101s75 7.5 75 20V91s0-12.5-75-20v30z"
     id="path2935" />
  <linearGradient
     id="c"
     gradientUnits="userSpaceOnUse"
     x1=".804"
     y1="792.924"
     x2=".977"
     y2="792.924"
     gradientTransform="matrix(432 0 0 -460.8 -333.8 365415.406)">
    <stop
       offset="0"
       stop-color="#9f1c20"
       id="stop2937" />
    <stop
       offset="1"
       stop-color="#ed2224"
       id="stop2939" />
  </linearGradient>
  <path
     fill="url(#c)"
     d="M88.4 11v30s0 12.5-75 20V31s75-7.5 75-20"
     id="path2942" />
  <linearGradient
     id="d"
     gradientUnits="userSpaceOnUse"
     x1=".804"
     y1="793.337"
     x2=".977"
     y2="793.337"
     gradientTransform="matrix(432 0 0 -460.8 -333.8 365645.813)">
    <stop
       offset="0"
       stop-color="#9f1c20"
       id="stop2944" />
    <stop
       offset="1"
       stop-color="#ed2224"
       id="stop2946" />
  </linearGradient>
  <path
     fill="url(#d)"
     d="M13.4 71s75-7.5 75-20v30s0 12.5-75 20V71z"
     id="path2949" />
  <linearGradient
     id="e"
     gradientUnits="userSpaceOnUse"
     x1=".804"
     y1="793.75"
     x2=".977"
     y2="793.75"
     gradientTransform="matrix(432 0 0 -460.8 -333.8 365876.219)">
    <stop
       offset="0"
       stop-color="#9f1c20"
       id="stop2951" />
    <stop
       offset="1"
       stop-color="#ed2224"
       id="stop2953" />
  </linearGradient>
  <path
     fill="url(#e)"
     d="M13.4 141v-30s75-7.5 75-20v30s0 12.5-75 20"
     id="path2956" />
  <path
     d="M112.9 119.1c1.7-7.3 3.2-14.2 4.8-21.2 5.7 1.6 11 3.9 16.6 4.6 5.6.7 11.4.3 17-.3 3.2-.3 5.4-2.8 5.8-6.3.3-3.3-1.4-5.8-4.2-7.2-3.5-1.8-7.1-3.2-10.7-4.9-4.8-2.2-9.7-4.1-14.2-6.8-9.3-5.5-14.9-13.5-14.3-24.8.6-11.4 6.4-19.5 16.2-24.7 9.4-5 19.6-6.1 30-4.9 6.7.8 13.2 2.9 20.1 4.6-2.1 7.9-3.9 14.7-5.6 21.2-5.9-1.8-11.5-3.6-17.3-4.2-4-.4-8.4 0-12.2 1.2-5.7 1.8-6.4 8.1-1.4 11.4 3.5 2.3 7.7 3.7 11.6 5.4 5.1 2.4 10.5 4.2 15.2 7.2 19.1 11.8 18 39.1-1.8 49.8-10.3 5.5-21.4 6.8-32.8 5.8-7.6-.8-15.2-2.4-22.8-5.9zm216.3 4.3H306c-.6-2.1-1.2-3.9-1.9-6.4-5.8 5.8-12.5 8-20.1 8-11.7 0-20.3-6.2-23.2-16.7-3-11 1.7-22.1 11.6-27.9 8.1-4.7 17-5.8 26.1-6.5 1.1-.1 2.1-.1 3.2-.2-.5-4.2-2.9-6.1-8-6.5-8.3-.7-16 1.1-24 5.1-1.6-5.6-3.1-11-4.9-17.3 6.4-1.8 12.4-4.3 18.7-5 7.7-.8 15.7-.8 23.3.5 12.7 2.3 20.5 12.5 21.1 26.3.4 9.6.3 19.3.3 28.9.1 5.8.1 13 1 17.7zm-26.5-33c-4.9-.6-9.2.2-13.3 2.5-2.8 1.6-4.4 4.3-3.7 7.4.5 2 1.8 4.5 3.5 5.5 5.2 3 12.5-.8 13.3-6.8.5-2.8.2-5.6.2-8.6zm149.9 32.9h-23.2c-.6-2.1-1.2-3.9-1.9-6.4-5.8 5.8-12.5 8-20.1 8-11.7 0-20.3-6.2-23.2-16.7-3-11 1.7-22.1 11.6-27.9 8.1-4.7 17-5.8 26.1-6.5 1.1-.1 2.1-.1 3.2-.2-.5-4.2-2.9-6.1-8-6.5-8.3-.7-16 1.1-24 5.1-1.6-5.6-3.1-11-4.9-17.3 6.4-1.8 12.4-4.3 18.7-5 7.7-.8 15.7-.8 23.3.5 12.7 2.3 20.5 12.5 21.1 26.3.4 9.6.3 19.3.3 28.9 0 5.9.1 13 1 17.7zm-26.5-33c-4.9-.6-9.2.2-13.3 2.5-2.8 1.6-4.4 4.3-3.7 7.4.5 2 1.8 4.5 3.5 5.5 5.2 3 12.5-.8 13.3-6.8.5-2.7.2-5.6.2-8.6zM249.1 71c-9.6-1.9-18.6-3.7-25.3 5.3-4.2 5.7-4.2 15.8 0 21.3 6.8 9.1 16.2 7.3 26.1 5.6.9 5.9 2.6 19.3 2.6 19.3s-.1 0-1.2.4c-18 4.9-39.1 1.4-48.6-9.7-9.8-11.4-11-24.8-6.6-38.7 4.3-13.7 14.6-21.3 28.2-24.2 8.7-1.9 17.5-1.7 26.1.7.8.2 2.2.6 2.2.6S250.2 65 249.1 71zm96.1-52.6H371v104.8h-25.8V18.4z"
     fill="#231F20"
     id="path2958"
     style="fill:#999999" />
</svg>
