<!DOCTYPE svg PUBLIC "-//W3C//DTD SVG 20010904//EN" "http://www.w3.org/TR/2001/REC-SVG-20010904/DTD/svg10.dtd">
<svg version="1.0" xmlns="http://www.w3.org/2000/svg" width="512px" height="512px" viewBox="0 0 5120 5120" preserveAspectRatio="xMidYMid meet">
<g id="layer1" fill="#1f488d" stroke="none">
 <path d="M1531 2908 c-12 -24 -32 -61 -45 -83 -28 -49 -59 -104 -86 -150 -11 -19 -29 -51 -40 -70 -11 -19 -29 -51 -40 -70 -11 -19 -29 -51 -40 -70 -11 -19 -29 -51 -40 -70 -11 -19 -29 -51 -40 -70 -11 -19 -29 -51 -40 -70 -11 -19 -29 -51 -40 -70 -11 -19 -29 -51 -40 -70 -11 -19 -30 -52 -41 -72 -58 -100 -69 -120 -87 -153 -10 -19 -28 -52 -40 -72 -12 -21 -31 -54 -42 -73 -11 -19 -29 -51 -40 -70 -11 -19 -29 -51 -40 -70 -11 -19 -29 -51 -40 -70 -11 -19 -29 -51 -40 -70 -11 -19 -30 -52 -41 -72 -12 -21 -30 -50 -41 -65 -11 -16 -17 -28 -13 -28 6 0 968 682 997 708 16 13 15 19 -16 81 -39 77 -81 208 -96 301 -23 146 -6 354 41 492 24 73 20 85 -10 26z"/>
 </g>
<g id="layer2" fill="#275ab0" stroke="none">
 <path d="M1122 1658 l-502 -359 52 -76 c231 -332 583 -619 960 -782 211 -91 412 -148 628 -177 141 -18 448 -18 597 1 735 97 1365 525 1733 1179 l33 58 -1124 -3 c-1230 -3 -1164 -6 -1314 55 -119 47 -141 59 -220 111 -96 64 -194 157 -263 251 -28 38 -57 76 -64 85 -12 15 -69 -23 -516 -343z"/>
 </g>
<g id="layer3" fill="#367def" stroke="none">
 <path d="M2437 4822 c2 -15 28 -290 59 -612 31 -322 56 -586 57 -587 1 -1 34 -4 72 -7 119 -9 245 -37 320 -71 179 -81 262 -136 364 -240 41 -41 76 -75 77 -75 2 0 -6 17 -18 38 -12 20 -28 48 -35 62 -8 14 -23 39 -33 55 -11 17 -24 39 -30 50 -5 11 -21 38 -35 60 -14 22 -29 49 -35 60 -5 11 -21 38 -35 60 -14 22 -29 49 -35 60 -5 11 -21 38 -34 60 -14 22 -37 63 -52 90 -14 28 -31 56 -37 64 -12 14 -30 43 -46 76 -6 11 -22 38 -36 60 -14 22 -29 49 -35 60 -5 11 -21 38 -35 60 -14 22 -29 49 -35 60 -5 11 -21 38 -35 60 -14 22 -28 47 -32 55 -3 8 -21 38 -38 65 -17 28 -34 57 -38 65 -4 8 -18 33 -32 55 -14 22 -30 49 -35 60 -6 11 -21 38 -35 60 -14 22 -30 49 -35 60 -6 11 -21 38 -35 60 -14 22 -29 49 -34 60 -5 12 -15 26 -23 33 -12 10 -14 7 -11 -16z"/>
 <path d="M2430 3376 c-67 -11 -135 -31 -195 -57 -11 -5 -31 -13 -45 -19 -64 -27 -150 -92 -236 -178 -68 -68 -87 -95 -140 -202 -15 -30 -31 -63 -36 -73 -20 -41 -48 -206 -48 -286 0 -135 25 -241 86 -364 38 -76 44 -85 79 -132 85 -111 253 -243 338 -266 23 -6 47 -14 52 -18 10 -7 96 -28 160 -39 42 -7 183 -7 225 1 91 15 141 27 157 36 10 5 39 17 65 27 26 9 53 23 59 30 6 8 15 14 20 14 30 0 259 209 259 237 0 3 11 20 24 37 59 78 110 237 122 377 7 87 -18 292 -37 313 -5 6 -9 17 -9 25 0 53 -112 224 -209 319 -119 117 -286 196 -466 221 -90 13 -124 12 -225 -3z"/>
 </g>
<g id="layer4" fill="#548dee" stroke="none">
 <path d="M2250 4855 c-853 -119 -1567 -692 -1864 -1498 -42 -112 -86 -280 -111 -417 -22 -123 -32 -487 -16 -630 36 -335 155 -685 324 -954 27 -43 32 -46 43 -31 7 9 83 141 170 293 86 152 273 480 414 727 141 248 273 480 293 517 21 37 44 74 53 82 8 9 26 40 39 70 87 197 273 386 480 488 146 72 241 99 398 113 46 5 77 12 77 19 0 6 -25 268 -55 581 -31 314 -55 584 -54 600 0 17 1 36 0 43 -1 15 -64 14 -191 -3z"/>
 <path d="M1969 3143 l-34 -38 38 34 c34 33 42 41 34 41 -2 0 -19 -17 -38 -37z"/>
 <path d="M3134 1978 l-29 -33 33 29 c30 28 37 36 29 36 -2 0 -16 -15 -33 -32z"/>
 </g>
<g id="layer5" fill="#a8bfe7" stroke="none">
 <path d="M3433 1951 c-140 -206 -380 -375 -611 -431 -29 -6 -52 -17 -52 -23 0 -7 49 -8 158 -4 86 4 503 7 927 7 423 0 765 4 760 8 -6 5 -255 120 -555 257 -300 136 -552 251 -560 255 -11 6 -28 -12 -67 -69z"/>
 </g>
<g id="layer6" fill="#b1cdfd" stroke="none">
 <path d="M2440 4864 c0 -6 37 -70 180 -314 38 -63 130 -221 205 -350 76 -129 192 -327 258 -440 123 -210 143 -244 240 -411 31 -53 57 -103 59 -110 2 -8 10 -19 18 -26 8 -7 12 -13 8 -13 -4 0 12 -30 36 -67 202 -314 232 -690 81 -1021 -21 -45 -36 -84 -34 -86 8 -8 1131 -518 1133 -514 21 25 118 267 150 373 75 247 100 440 93 727 -6 286 -37 467 -122 708 -322 925 -1194 1550 -2162 1550 -79 0 -143 -3 -143 -6z"/>
 </g>
<g id="layer7" fill="#ffffff" stroke="none">
 <path d="M2415 3605 c-152 -20 -259 -56 -388 -129 -248 -141 -440 -394 -508 -668 -26 -105 -36 -306 -20 -408 60 -387 323 -712 686 -847 134 -49 185 -57 375 -58 193 0 211 3 360 57 323 116 580 400 666 736 93 358 -13 746 -275 1009 -241 243 -559 352 -896 308z m350 -245 c298 -83 518 -306 595 -604 28 -109 28 -282 0 -392 -146 -573 -820 -820 -1290 -473 -288 212 -404 548 -310 897 73 267 286 483 560 565 112 34 126 36 255 32 76 -1 135 -9 190 -25z"/>
 </g>

</svg>