<?xml version="1.0" encoding="UTF-8" standalone="no"?>
<svg width="385px" height="340px" viewBox="0 0 385 340" version="1.1" xmlns="http://www.w3.org/2000/svg" xmlns:xlink="http://www.w3.org/1999/xlink">
    <title>Swift logo</title>
    <defs>
        <linearGradient x1="50%" y1="0%" x2="50%" y2="100%" id="lg">
            <stop stop-color="#FEAC3C" offset="0%"></stop>
            <stop stop-color="#FF0028" offset="100%"></stop>
        </linearGradient>
    </defs>
    <path d="M236.5,1.19209744e-08 C399.7,105.6 349.799994,238.4 349.799994,238.4 C349.799994,238.4 367.399994,258.4 376.199994,283.2 C384.999994,308 384.90303,338.4 383.30303,339.2 C381.70303,340 361.073341,304.8 324.999994,304.8 C288.926646,304.8 270.599981,339.2 206.599994,339.2 C62.4977738,339.2 0,221.000003 0,221.000003 C0,221.000003 63.4,266.4 129.800006,264.8 C196.200012,263.2 214.599994,244 214.599994,244 C214.599994,244 184.910324,219.156721 133.8,169.2 C82.6896755,119.243279 34.6,50.4 34.6,50.4 C34.6,50.4 111.645428,111.462295 136.358112,129.424262 C161.070796,147.38623 185.783481,163.664262 185.783481,163.664262 C185.783481,163.664262 161.849558,137.84394 145,117.075415 C128.150442,96.3068904 85,33.6 85,33.6 C85,33.6 151.180531,93.3508197 181.290265,117.07541 C211.4,140.8 269,180.8 269,180.8 C269,180.8 303.7,101.6 236.5,1.19209744e-08 Z" fill="url(#lg)"></path>
</svg>
