<?xml version="1.0" encoding="UTF-8"?>
<svg width="292px" height="153px" viewBox="0 0 292 153" version="1.1" xmlns="http://www.w3.org/2000/svg" xmlns:xlink="http://www.w3.org/1999/xlink">
    <title>logo-000</title>
    <defs>
        <polygon id="path-1" points="0.00600600045 0.0683873141 49.2850545 0.0683873141 49.2850545 62.0619268 0.00600600045 62.0619268"/>
    </defs>
    <g id="logo-000" stroke="none" stroke-width="1" fill="none" fill-rule="evenodd">
        <g id="Raspberry-Pi-logo" transform="translate(35.000000, 45.000000)">
            <path d="M98.7516604,34.9185862 C98.7516604,34.4571252 98.5281371,34.0581266 98.0809904,33.7214902 C97.6338436,33.3850543 96.8045151,33.0868563 95.5930047,32.827297 C93.7468602,32.4522223 92.3550697,31.8969675 91.4175331,31.1614327 C90.4799964,30.4257977 90.0113282,29.4234964 90.0113282,28.1542283 C90.0113282,26.8081835 90.5759923,25.6662426 91.7060213,24.7287059 C92.83575,23.7911692 94.3476605,23.322501 96.2420531,23.322501 C98.2324417,23.322501 99.8165243,23.788967 100.994901,24.7214987 C102.172078,25.6543307 102.737643,26.8322075 102.689595,28.2551291 L102.660566,28.3417156 L98.5930019,28.3417156 C98.5930019,27.7167912 98.3933024,27.2071821 97.994504,26.8127881 C97.5954052,26.4186943 97.0113217,26.2214973 96.2420531,26.2214973 C95.5591709,26.2214973 95.0232354,26.387363 94.6339465,26.7190944 C94.2444574,27.0508259 94.0497629,27.4668415 94.0497629,27.9667409 C94.0497629,28.4476214 94.2538668,28.8418152 94.6627753,29.1494225 C95.0713835,29.4572301 95.9007121,29.7312038 97.1506609,29.9715439 C99.0736822,30.3562282 100.501409,30.9210926 101.43434,31.666237 C102.367273,32.4114816 102.833739,33.4379071 102.833739,34.7455133 C102.833739,36.149516 102.232138,37.2961616 101.030937,38.1854501 C99.8283361,39.0749388 98.2419512,39.519583 96.2708819,39.519583 C94.194007,39.519583 92.5519665,38.993157 91.3454611,37.9403052 C90.1386554,36.8873532 89.5641814,35.6879549 89.621839,34.3417099 L89.6506678,34.2551234 L93.5016152,34.2551234 C93.5305441,35.0916591 93.8045179,35.6974644 94.3238367,36.072439 C94.8429553,36.4474137 95.5209327,36.634901 96.3573683,36.634901 C97.1363466,36.634901 97.7298396,36.4812475 98.138648,36.1734399 C98.5472562,35.8658326 98.7516604,35.4475147 98.7516604,34.9185862" id="Fill-19" fill="#131514" fill-rule="nonzero"/>
            <path d="M115.410304,31.5221931 C115.410304,30.0488211 115.165059,28.8548282 114.674569,27.9399141 C114.184078,27.0252003 113.434329,26.5676431 112.42432,26.5676431 C111.789686,26.5676431 111.249146,26.697673 110.801699,26.9577329 C110.355253,27.2177927 110.0019,27.5885631 109.74164,28.0699441 L109.74164,34.9164841 C110.0019,35.3596269 110.355253,35.6965635 110.801699,35.9277945 C111.249146,36.1590255 111.799696,36.2743407 112.453349,36.2743407 C113.472367,36.2743407 114.220114,35.8748416 114.696591,35.0754429 C115.172066,34.2763446 115.410304,33.1929623 115.410304,31.8254961 L115.410304,31.5221931 Z M119.621511,31.8465171 C119.621511,34.1542226 119.087978,36.0100767 118.020912,37.4137791 C116.953846,38.8177818 115.463357,39.519583 113.549444,39.519583 C112.732628,39.519583 112.006903,39.3681317 111.372269,39.0652291 C110.737635,38.7623264 110.194092,38.3177823 109.74164,37.7310962 L109.74164,45.2166748 L105.544447,45.2166748 L105.544447,23.6109892 L109.338237,23.6109892 L109.583482,25.4570336 C110.044943,24.7744516 110.600498,24.2480257 111.249146,23.8777557 C111.897794,23.507686 112.655551,23.322501 113.520415,23.322501 C115.453347,23.322501 116.953846,24.0774552 118.020912,25.5868633 C119.087978,27.0965716 119.621511,29.0821553 119.621511,31.5436145 L119.621511,31.8465171 L119.621511,31.8465171 Z" id="Fill-20" fill="#131514" fill-rule="nonzero"/>
            <path d="M132.097976,31.5443152 C132.097976,30.0160884 131.873752,28.804578 131.427306,27.9098841 C130.979859,27.0151903 130.218098,26.5676431 129.141022,26.5676431 C128.487369,26.5676431 127.933816,26.7055809 127.482364,26.9812564 C127.029912,27.2570319 126.674557,27.6511256 126.415298,28.1637378 L126.415298,34.8088766 C126.674557,35.2830504 127.032915,35.6456126 127.489371,35.8970638 C127.945828,36.1486151 128.506388,36.2743407 129.170051,36.2743407 C130.256136,36.2743407 131.015895,35.8898566 131.448327,35.1209885 C131.88176,34.3520202 132.097976,33.2612306 132.097976,31.8490196 L132.097976,31.5443152 Z M136.295169,31.8465171 C136.295169,34.1735419 135.77565,36.0341007 134.737613,37.4281935 C133.698575,38.8224865 132.199077,39.519583 130.237117,39.519583 C129.333214,39.519583 128.542424,39.3295932 127.864747,38.9498137 C127.187069,38.5701344 126.612495,38.0148797 126.141024,37.2839494 L125.823707,39.2166804 L122.218105,39.2166804 L122.218105,16.7167013 L126.415298,16.7167013 L126.415298,25.2695462 C126.866749,24.644722 127.40829,24.1639417 128.03792,23.8273053 C128.667549,23.4908692 129.391272,23.322501 130.208088,23.322501 C132.189067,23.322501 133.698575,24.070248 134.737613,25.5652417 C135.77565,27.0605356 136.295169,29.0533265 136.295169,31.5436145 L136.295169,31.8465171 L136.295169,31.8465171 Z" id="Fill-21" fill="#131514" fill-rule="nonzero"/>
            <g id="Group-3" transform="translate(0.000000, 0.052953)">
                <g id="Fill-1-Clipped">
                    <mask id="mask-2" fill="white">
                        <use xlink:href="#path-1"/>
                    </mask>
                    <g id="path-1"/>
                    <path d="M13.341329,0.0694694052 C13.0231111,0.0790790059 12.6802685,0.194894715 12.2915802,0.497196737 C11.3390285,0.13533521 10.4157061,0.00970970073 9.59008122,0.746045356 C8.31510742,0.583082543 7.90069339,0.919218369 7.58667967,1.3117105 C7.30690015,1.3060048 5.49208701,1.02842748 4.66005574,2.25104897 C2.5687664,2.00740555 1.90770595,3.46275955 2.6566542,4.81971526 C2.22952747,5.47106601 1.78718554,6.11450885 2.78578321,7.35594915 C2.43253029,8.04744 2.6515491,8.79758946 3.48388065,9.70549653 C3.26416115,10.6775677 3.69609267,11.3633528 4.47046633,11.8978869 C4.32552152,13.2280158 5.70880352,14.0014885 6.12191626,14.277164 C6.28047467,15.0521383 6.61110499,15.7836691 8.19128371,16.187973 C8.45174393,17.3432272 9.40129261,17.5426264 10.3209114,17.7850687 C7.28157484,19.5252072 4.67547114,21.8147947 4.69298865,27.4324071 L4.24764371,28.2146887 C0.762862157,30.3021742 -2.37257038,37.0114772 2.53032799,42.4646253 C2.85054792,44.1718309 3.38768455,45.3978558 3.86586228,46.7547114 C4.58127704,52.2230748 9.2492407,54.7835329 10.4805709,55.0864355 C12.2847734,56.4399878 14.2061931,57.724371 16.806491,58.62417 C19.25774,61.1141576 21.913193,62.0632058 24.5834608,62.0619283 C24.6225999,62.0619283 24.6624397,62.0619283 24.7015788,62.0619283 C27.3717465,62.0633059 30.0273997,61.1143578 32.4784485,58.62417 C35.0788463,57.724371 37.0003661,56.4399878 38.8045686,55.0864355 C40.0357987,54.7835329 44.7037624,52.2230748 45.419077,46.7547114 C45.8972548,45.3978558 46.4344915,44.1718309 46.7546113,42.4646253 C51.6576098,37.0109767 48.5222774,30.3011732 45.0371955,28.2136877 L44.5914502,27.4316063 C44.6090678,21.8144944 42.0025637,19.5249069 38.9634273,17.7842679 C39.8830461,17.5419257 40.8325948,17.3424264 41.0931551,16.1873724 C42.6733338,15.7827682 43.0038641,15.0513375 43.1623224,14.2763632 C43.5755352,14.0008879 44.9588172,13.2273151 44.8138724,11.896986 C45.5882461,11.362552 46.0200775,10.6766668 45.8005582,9.70479583 C46.6327896,8.79678866 46.8519086,8.0467393 46.4985555,7.35524845 C47.4975536,6.11410845 47.0542107,5.47076571 46.6277846,4.81941496 C47.3760322,3.46245925 46.7157725,2.00720535 44.6236824,2.25094887 C43.7917512,1.02822728 41.9776388,1.3059047 41.6971586,1.3115103 C41.3831448,0.919118269 40.9690311,0.582982443 39.6939572,0.745845156 C38.8683323,0.00940940071 37.9449098,0.13513501 36.9925583,0.496896437 C35.8615283,-0.382081728 35.1132807,0.322522225 34.2585268,0.588788244 C32.8894591,0.148148011 32.5763463,0.751851156 31.9037743,0.997596675 C30.4104824,0.686786151 29.9567291,1.3633621 29.2408138,2.07767576 L28.4080819,2.06145956 C26.1560319,3.36856544 25.0373142,6.03062505 24.640718,7.39909225 C24.2439216,6.03032475 23.1275062,3.36836524 20.8759567,2.06145956 L20.0433248,2.07767576 C19.3266088,1.3633621 18.8727553,0.686786151 17.3796636,0.997596675 C16.7069916,0.751851156 16.3948798,0.148148011 15.024811,0.588788244 C14.4637504,0.41401363 13.9476347,0.0505505037 13.3402279,0.0690690052 L13.341329,0.0694694052" id="Fill-1" fill="#000105" fill-rule="nonzero" mask="url(#mask-2)"/>
                </g>
            </g>
            <path d="M8.90209387,5.87366824 C14.8772635,8.90779957 18.350934,11.3624519 20.2538352,13.4528404 C19.2793616,17.3002843 14.1953823,17.4758597 12.3365251,17.3678518 C12.7170052,17.1933775 13.0346226,16.9842686 13.1472351,16.6631478 C12.6808691,16.3368218 11.0268166,16.6287134 9.87216304,15.989775 C10.3156061,15.8991845 10.5232135,15.8111966 10.7305206,15.4886744 C9.63973083,15.1460321 8.46455673,14.8506369 7.77356638,14.2828697 C8.14653901,14.2875744 8.49458674,14.3650518 8.98177347,14.0323193 C8.0045972,13.5136011 6.96195552,13.1026906 6.15194626,12.3097984 C6.6569508,12.2977864 7.20169504,12.3047934 7.36005325,12.1219107 C6.46585988,11.5762656 5.71120592,10.9692591 5.08648178,10.3053959 C5.79368833,10.3894799 6.09218655,10.3171076 6.26315737,10.1957864 C5.58708191,9.51390512 4.73142705,8.93792967 4.32351952,8.09738991 C4.84854406,8.27566802 5.32872379,8.34393623 5.67496972,8.08177431 C5.4451401,7.57116417 4.46095683,7.27016344 3.89419058,6.07727165 C4.44694283,6.13002436 5.03302837,6.19599026 5.15034558,6.07727165 C4.89368916,5.04804337 4.45364953,4.46916503 4.02191819,3.86966608 C5.20469988,3.85244888 6.99659012,3.87427068 6.91550912,3.77567218 L6.18427856,3.03963683 C7.33943265,2.73333081 8.52151364,3.08888604 9.37987121,3.35294986 C9.76515613,3.05345063 9.3729643,2.67467221 8.90279457,2.28788578 C9.88467554,2.41721499 10.7718619,2.6395371 11.573663,2.94584313 C12.0022912,2.5646623 11.2956852,2.18358157 10.9536435,1.80260094 C12.470559,2.08598406 13.1133012,2.48428199 13.7518391,2.88318052 C14.2153022,2.44564339 13.7783656,2.07387196 13.4656532,1.69309153 C14.6093959,2.11030836 15.1985846,2.6488464 15.8187041,3.18067774 C16.0290142,2.90109842 16.3529379,2.69629381 15.9618471,2.02181996 C16.7737583,2.48288059 17.3852692,3.02612333 17.8379215,3.63483146 C18.3403234,3.31971665 18.1372205,2.88868602 18.1399232,2.49158929 C18.9837663,3.16786494 19.5194014,3.88738378 20.1750564,4.58998574 C20.3069883,4.49539123 20.4227039,4.17407021 20.5247058,3.66606267 C22.5379171,5.58998481 25.3827593,10.4358262 21.2560364,12.3571457 C17.7438275,9.50399521 13.5492367,7.43012326 8.90089267,5.87446904 L8.90209387,5.87366824" id="Fill-4" fill="#64B65B" fill-rule="nonzero"/>
            <path d="M40.5494119,5.87366824 C34.5747427,8.90830007 31.1012726,11.3620515 29.1982713,13.4528404 C30.172845,17.3002843 35.2569243,17.4758597 37.1157814,17.3678518 C36.7351011,17.1933775 36.417684,16.9842686 36.3050714,16.6631478 C36.7715375,16.3368218 38.4254899,16.6287134 39.5801435,15.989775 C39.1367005,15.8991845 38.929093,15.8111966 38.7216858,15.4886744 C39.8126758,15.1460321 40.9877498,14.8506369 41.6788403,14.2828697 C41.3058676,14.2875744 40.9575196,14.3650518 40.4705331,14.0323193 C41.4476092,13.5136011 42.490351,13.1026906 43.3003603,12.3097984 C42.7951555,12.2977864 42.2506115,12.3047934 42.0920531,12.1219107 C42.9866469,11.5762656 43.7412007,10.9692591 44.3657247,10.3053959 C43.6587183,10.3894799 43.3602201,10.3171076 43.1891492,10.1957864 C43.8653247,9.51390512 44.7208795,8.93792967 45.1288871,8.09738991 C44.6039627,8.27566802 44.1236828,8.34393623 43.7774369,8.08177431 C44.0071664,7.57116417 44.9913497,7.27016344 45.5580159,6.07727165 C45.0053637,6.13002436 44.4193783,6.19599026 44.3020611,6.07727165 C44.5590178,5.04754287 44.9992576,4.46886473 45.4307887,3.86916558 C44.2480071,3.85194838 42.4562169,3.87377018 42.5370977,3.77527178 L43.2687287,3.03933653 C42.1132743,2.73293041 40.9311933,3.08838554 40.0729358,3.35244936 C39.687751,3.05295013 40.0797426,2.67417171 40.5498123,2.28768558 C39.5680314,2.41671449 38.680845,2.6390366 37.8789439,2.94534263 C37.4505158,2.564362 38.1571218,2.18328127 38.4989633,1.80220054 C36.9821479,2.08568376 36.3395058,2.48398169 35.7007677,2.88268002 C35.2374048,2.44524299 35.6744414,2.07337146 35.9870537,1.69269113 C34.843311,2.10980786 34.2541224,2.648446 33.6341029,3.18027734 C33.423793,2.90069802 33.0999694,2.69589341 33.4909601,2.02131946 C32.6788487,2.48248019 32.0674379,3.02582303 31.6149858,3.63433096 C31.1124838,3.31921615 31.3155867,2.88838572 31.3127839,2.49128899 C30.4689408,3.16736444 29.9332056,3.88698338 29.2778508,4.58958534 C29.1458189,4.49489073 29.0302034,4.17356971 28.9280013,3.66566227 C26.9146899,5.58948431 24.0697475,10.4354258 28.1967708,12.3567453 C31.7070778,9.50299421 35.9013681,7.42922236 40.5501126,5.87366824 L40.5494119,5.87366824" id="Fill-5" fill="#64B65B" fill-rule="nonzero"/>
            <path d="M31.9521243,45.050709 C31.9727433,48.6406957 28.7851586,51.5665188 24.8325096,51.5856213 C20.8798606,51.6043566 17.6585423,48.7093643 17.6375214,45.1191774 C17.6375214,45.0963546 17.6375214,45.0735318 17.6375214,45.050709 C17.6170008,41.4605221 20.8043852,38.534699 24.7572344,38.5156968 C28.7098834,38.4969613 31.9312017,41.3918535 31.9521243,44.9821405 C31.9521243,45.0050634 31.9521243,45.0277861 31.9521243,45.050709" id="Fill-6" fill="#B1284C" fill-rule="nonzero"/>
            <path d="M20.7924733,26.4806562 C23.7581362,28.3942681 24.2927704,32.7323021 21.9866664,36.169536 C19.6805624,39.6068702 15.4069928,40.8422044 12.44153,38.9284924 C9.47586711,37.0146804 8.94123297,32.6766465 11.247437,29.2392122 C13.553541,25.8019782 17.8270106,24.5667441 20.7924733,26.4806562" id="Fill-7" fill="#B1284C" fill-rule="nonzero"/>
            <path d="M28.7969704,26.13411 C25.8313075,28.047822 25.2967734,32.3859561 27.6028774,35.8230899 C29.9090815,39.2604241 34.1824508,40.4957583 37.1480136,38.5819462 C40.1136765,36.6682343 40.6483107,32.3302004 38.3422067,28.8927661 C36.0361027,25.455432 31.7626333,24.220298 28.7969704,26.13411" id="Fill-8" fill="#B1284C" fill-rule="nonzero"/>
            <path d="M6.15404836,29.6294021 C9.3557471,28.7840575 7.23502834,42.676537 4.62992564,41.5366982 C1.76426264,39.26633 0.841140363,32.6176876 6.15404836,29.6294021" id="Fill-9" fill="#B1284C" fill-rule="nonzero"/>
            <path d="M43.1552153,29.456129 C39.9532162,28.6110847 42.0743354,42.5039646 44.6796383,41.3641258 C47.5452012,39.0936575 48.4681233,32.4444145 43.1552153,29.456129" id="Fill-10" fill="#B1284C" fill-rule="nonzero"/>
            <path d="M32.4167869,19.0907732 C37.9422071,18.171755 42.5400006,21.4051854 42.3544152,27.3069818 C42.1727337,29.5695423 30.3809529,19.4276097 32.4167869,19.0907732" id="Fill-11" fill="#B1284C" fill-rule="nonzero"/>
            <path d="M17.1500342,18.9175001 C11.6241134,17.9984819 7.02682032,21.2327131 7.21240574,27.1339089 C7.39398715,29.3963693 19.1857681,19.2544367 17.1500342,18.9175001" id="Fill-12" fill="#B1284C" fill-rule="nonzero"/>
            <path d="M24.7625397,17.541225 C21.4646448,17.4567406 18.2996828,19.9521337 18.2919267,21.3993796 C18.2827659,23.1580367 20.8993801,24.9587357 24.7849621,25.0044814 C28.7530265,25.0324093 31.284856,23.5631414 31.2977566,21.7481281 C31.3122834,19.6917736 27.6888633,17.5093932 24.7625397,17.5410248 L24.7625397,17.541225" id="Fill-13" fill="#B1284C" fill-rule="nonzero"/>
            <path d="M25.0172942,53.6047552 C27.8924667,53.4810316 31.7507214,54.5168664 31.758329,55.8909392 C31.8060767,57.2252723 28.2592332,60.2400844 24.8266037,60.1819263 C21.2714518,60.3328771 17.7856693,57.3135606 17.8313149,56.2669149 C17.7780617,54.7323818 22.1600396,53.5343849 25.0172942,53.6047552" id="Fill-14" fill="#B1284C" fill-rule="nonzero"/>
            <path d="M14.376263,45.4609188 C16.4232081,47.8902459 17.3564404,52.1581099 15.6482338,53.4160667 C14.0319189,54.3766263 10.1069976,53.9811312 7.31721045,50.0334872 C5.436031,46.7213781 5.67827302,43.3505104 6.99939292,42.3605213 C8.97476647,41.175137 12.0269158,42.7761365 14.376263,45.4609188" id="Fill-15" fill="#B1284C" fill-rule="nonzero"/>
            <path d="M34.9865541,44.6910497 C32.7716414,47.2463026 31.5382091,51.907059 33.1540234,53.4080587 C34.6988667,54.5741236 38.8461101,54.4110607 41.9096709,50.2243779 C44.1339931,47.4124686 43.3886485,42.7161766 42.1181792,41.4692308 C40.2304932,40.0311941 37.5209862,41.8715328 34.9865541,44.6902489 L34.9865541,44.6910497" id="Fill-16" fill="#B1284C" fill-rule="nonzero"/>
            <path d="M59.4777227,27.5772518 L63.1122539,27.5772518 C64.2950356,27.5772518 65.1770168,27.3274022 65.7589982,26.8273026 C66.3405792,26.3274031 66.6314699,25.5868633 66.6314699,24.6061835 C66.6314699,23.6447229 66.3405792,22.8802592 65.7589982,22.3128923 C65.1770168,21.7456256 64.3188594,21.461842 63.184426,21.461842 L59.4777227,21.461842 L59.4777227,27.5772518 Z M59.4777227,30.8224941 L59.4777227,39.2166804 L55.266115,39.2166804 L55.266115,18.2166999 L63.184426,18.2166999 C65.578618,18.2166999 67.4511888,18.7625452 68.8022386,19.8537354 C70.1529881,20.9451258 70.8286632,22.466746 70.8286632,24.4185961 C70.8286632,25.5052818 70.5448797,26.4378134 69.9776129,27.2166999 C69.410146,27.9955697 68.5787153,28.625399 67.48242,29.1061793 C68.7228593,29.4716445 69.6146503,30.0821544 70.1579931,30.9378093 C70.7010357,31.7937644 70.9729073,32.8514211 70.9729073,34.1108793 L70.9729073,35.6542212 C70.9729073,36.2408072 71.0521865,36.8538197 71.2107449,37.4931584 C71.3694034,38.1326974 71.6410749,38.6061704 72.0257592,38.9137777 L72.0257592,39.2166804 L67.6844218,39.2166804 C67.2997375,38.909073 67.0497878,38.394559 66.9343725,37.6734385 C66.8189572,36.952218 66.7612996,36.269636 66.7612996,35.6253924 L66.7612996,34.1398082 C66.7612996,33.0917612 66.4751137,32.2769472 65.9031422,31.6950658 C65.3309706,31.1133847 64.5257661,30.8224941 63.4872285,30.8224941 L59.4777227,30.8224941 L59.4777227,30.8224941 Z" id="Fill-17" fill="#131514" fill-rule="nonzero"/>
            <path d="M79.7565829,36.4041704 C80.4968224,36.4041704 81.1554805,36.221588 81.7324569,35.8561229 C82.3093333,35.490858 82.6988224,35.0677352 82.9007241,34.5868548 L82.9007241,32.3801503 L80.5497753,32.3801503 C79.655582,32.3801503 78.9776046,32.6037737 78.5161436,33.0508203 C78.0545824,33.4979671 77.8238519,34.0388073 77.8238519,34.6734413 C77.8238519,35.1926601 77.9968247,35.610978 78.3429706,35.9281949 C78.6891164,36.2455119 79.160187,36.4041704 79.7565829,36.4041704 Z M83.6074302,39.2166804 C83.4535765,38.861025 83.3212442,38.4860504 83.2107338,38.0916564 C83.1002234,37.6975626 83.0208441,37.2937592 82.9727961,36.880146 C82.5401639,37.639905 81.9704947,38.2697343 81.2636886,38.7695336 C80.5569825,39.2694331 79.7132396,39.519583 78.7324597,39.519583 C77.0976264,39.519583 75.8381681,39.0990629 74.9535843,38.2575221 C74.0688003,37.4162816 73.6266586,36.269636 73.6266586,34.8176854 C73.6266586,33.2887581 74.215647,32.1038743 75.3935238,31.2623335 C76.5712004,30.421093 78.2901178,30.0003727 80.5497753,30.0003727 L82.9007241,30.0003727 L82.9007241,28.7599334 C82.9007241,28.0099841 82.7035271,27.428303 82.3093333,27.0147899 C81.9149392,26.6014769 81.3333582,26.3945702 80.5641897,26.3945702 C79.8813075,26.3945702 79.3548815,26.5604359 78.9849119,26.8921674 C78.614642,27.2238988 78.4295571,27.6831576 78.4295571,28.2695435 L74.3622936,28.2551291 L74.3477791,28.1686427 C74.2805119,26.8514267 74.8525834,25.7143907 76.0641939,24.7575347 C77.2757043,23.800979 78.8670942,23.322501 80.8381635,23.322501 C82.7035271,23.322501 84.2180402,23.7961742 85.3815026,24.7431203 C86.5447648,25.6903667 87.1266461,27.038914 87.1266461,28.7888623 L87.1266461,35.2359033 C87.1266461,35.9667334 87.1819013,36.6543204 87.292612,37.2983638 C87.4029222,37.9427076 87.5784976,38.5820463 87.8190379,39.2166804 L83.6074302,39.2166804 L83.6074302,39.2166804 Z" id="Fill-18" fill="#131514" fill-rule="nonzero"/>
            <path d="M145.42429,26.5676431 C144.645512,26.5676431 144.030898,26.8658411 143.578446,27.4618365 C143.125994,28.0581323 142.847716,28.8418152 142.74161,29.8128854 L142.785654,29.8849574 L147.948812,29.8849574 L147.948812,29.5099828 C147.948812,28.6157894 147.739603,27.901776 147.321185,27.3681429 C146.902767,26.8345098 146.271136,26.5676431 145.42429,26.5676431 Z M145.799665,39.519583 C143.549417,39.519583 141.751621,38.7983624 140.405275,37.3561215 C139.05893,35.9137805 138.386258,34.0820505 138.386258,31.8609315 L138.386258,31.2839551 C138.386258,28.9668401 139.022894,27.0580331 140.297167,25.5580345 C141.571441,24.0580358 143.280148,23.3129915 145.42429,23.3223228 C147.530394,23.3223228 149.165027,23.957135 150.32819,25.226303 C151.491352,26.4955711 152.073934,28.2118859 152.073934,30.3753473 L152.073934,32.6686385 L142.756625,32.6686385 L142.727596,32.7547245 C142.804673,33.7796483 143.148016,34.6224904 143.758626,35.2832506 C144.369236,35.9440107 145.199065,36.2743407 146.247112,36.2743407 C147.179043,36.2743407 147.953817,36.1806471 148.568431,35.9931598 C149.184046,35.8055724 149.857719,35.5099771 150.58845,35.1061736 L151.727588,37.7085736 C151.092954,38.2301948 150.261123,38.6625267 149.232094,39.0052691 C148.203066,39.3480116 147.058923,39.519583 145.799665,39.519583 L145.799665,39.519583 Z" id="Fill-22" fill="#131514" fill-rule="nonzero"/>
            <path d="M162.732582,27.231106 L161.18904,27.1878628 C160.563415,27.1878628 160.049902,27.3176925 159.645498,27.5772518 C159.242095,27.8369112 158.933787,28.2023764 158.722576,28.673447 L158.722576,39.2166804 L154.525383,39.2166804 L154.525383,23.6109892 L158.434288,23.6109892 L158.621475,25.9185947 C158.98684,25.1014783 159.460313,24.4644419 160.042895,24.0075854 C160.624476,23.5510293 161.295146,23.322501 162.053904,23.322501 C162.266116,23.322501 162.46031,23.3394179 162.638488,23.3729514 C162.816666,23.4067852 162.996847,23.4475259 163.179029,23.4955739 L162.732582,27.231106" id="Fill-23" fill="#131514" fill-rule="nonzero"/>
            <path d="M173.073914,27.231106 L171.530372,27.1878628 C170.904747,27.1878628 170.391234,27.3176925 169.98683,27.5772518 C169.583427,27.8369112 169.275119,28.2023764 169.063908,28.673447 L169.063908,39.2166804 L164.866715,39.2166804 L164.866715,23.6109892 L168.77562,23.6109892 L168.962807,25.9185947 C169.328172,25.1014783 169.801645,24.4644419 170.383226,24.0075854 C170.965808,23.5510293 171.636478,23.322501 172.396237,23.322501 C172.607448,23.322501 172.801642,23.3394179 172.97982,23.3729514 C173.157998,23.4067852 173.338178,23.4475259 173.52036,23.4955739 L173.073914,27.231106" id="Fill-24" fill="#131514" fill-rule="nonzero"/>
            <path d="M181.23707,32.6686385 L181.410243,33.5340031 L181.496329,33.5340031 L184.482312,23.6109892 L189.010836,23.6109892 L182.679511,41.5532147 C182.237069,42.668529 181.635468,43.6085682 180.87671,44.3729319 C180.116951,45.1373956 178.977813,45.5194773 177.458295,45.5194773 C177.101939,45.5194773 176.773611,45.4906485 176.470308,45.4329909 C176.167005,45.3753333 175.799637,45.2935516 175.367205,45.187846 L175.857695,42.1156767 C175.981819,42.1347958 176.116955,42.154015 176.261099,42.1734344 C176.405243,42.1925535 176.535373,42.2022632 176.650488,42.2022632 C177.34318,42.2022632 177.876713,42.0314926 178.251087,41.6902517 C178.626462,41.3488105 178.91475,40.9232854 179.116952,40.4137764 L179.607442,39.202266 L174.068908,23.6109892 L178.597433,23.6109892 L181.23707,32.6686385" id="Fill-25" fill="#131514" fill-rule="nonzero"/>
            <path d="M202.612426,28.35613 L206.765575,28.35613 C207.938747,28.35613 208.828636,28.0365107 209.434241,27.3969717 C210.039846,26.757633 210.343149,25.9428189 210.343149,24.9523293 C210.343149,23.9427206 210.041848,23.1086874 209.441248,22.4499292 C208.840648,21.7913713 207.948757,21.461842 206.765575,21.461842 L202.612426,21.461842 L202.612426,28.35613 Z M202.612426,31.6012721 L202.612426,39.2166804 L198.400217,39.2166804 L198.400217,18.2166999 L206.765575,18.2166999 C209.178986,18.2166999 211.077883,18.8322148 212.463267,20.0628443 C213.84765,21.2937741 214.540342,22.9138928 214.540342,24.9234004 C214.540342,26.9332084 213.84765,28.5485222 212.463267,29.7696422 C211.077883,30.9908623 209.178986,31.6012721 206.765575,31.6012721 L202.612426,31.6012721 L202.612426,31.6012721 Z" id="Fill-26" fill="#131514" fill-rule="nonzero"/>
            <path d="M217.511311,39.2166804 L221.722518,39.2166804 L221.722518,23.6109892 L217.511311,23.6109892 L217.511311,39.2166804 Z M217.511311,19.875357 L221.722518,19.875357 L221.722518,16.7167013 L217.511311,16.7167013 L217.511311,19.875357 Z" id="Fill-27" fill="#131514" fill-rule="nonzero"/>
        </g>
    </g>
</svg>