<?xml version="1.0" encoding="UTF-8" standalone="no"?>
<!-- Created with Inkscape (http://www.inkscape.org/) -->

<svg
   xmlns:i="http://ns.adobe.com/AdobeIllustrator/10.0/"
   xmlns:dc="http://purl.org/dc/elements/1.1/"
   xmlns:cc="http://creativecommons.org/ns#"
   xmlns:rdf="http://www.w3.org/1999/02/22-rdf-syntax-ns#"
   xmlns:svg="http://www.w3.org/2000/svg"
   xmlns="http://www.w3.org/2000/svg"
   xmlns:sodipodi="http://sodipodi.sourceforge.net/DTD/sodipodi-0.dtd"
   xmlns:inkscape="http://www.inkscape.org/namespaces/inkscape"
   width="127.67799mm"
   height="33.769001mm"
   viewBox="0 0 127.67799 33.769001"
   version="1.1"
   id="svg8"
   inkscape:version="0.92.4 (5da689c313, 2019-01-14)"
   sodipodi:docname="ubuntu-ros.svg">
  <defs
     id="defs2" />
  <sodipodi:namedview
     id="base"
     pagecolor="#ffffff"
     bordercolor="#666666"
     borderopacity="1.0"
     inkscape:pageopacity="0.0"
     inkscape:pageshadow="2"
     inkscape:zoom="0.98994949"
     inkscape:cx="531.11675"
     inkscape:cy="74.614918"
     inkscape:document-units="mm"
     inkscape:current-layer="layer1"
     showgrid="false"
     fit-margin-top="0"
     fit-margin-left="0"
     fit-margin-right="0"
     fit-margin-bottom="0"
     inkscape:window-width="1920"
     inkscape:window-height="1017"
     inkscape:window-x="-8"
     inkscape:window-y="32"
     inkscape:window-maximized="1" />
  <metadata
     id="metadata5">
    <rdf:RDF>
      <cc:Work
         rdf:about="">
        <dc:format>image/svg+xml</dc:format>
        <dc:type
           rdf:resource="http://purl.org/dc/dcmitype/StillImage" />
        <dc:title></dc:title>
      </cc:Work>
    </rdf:RDF>
  </metadata>
  <g
     inkscape:label="Layer 1"
     inkscape:groupmode="layer"
     id="layer1"
     transform="translate(-31.411004,-140.26431)">
    <g
       id="layer1-2"
       inkscape:label="Layer 1"
       transform="matrix(0.12279635,0,0,0.12279635,97.417022,138.72936)">
      <g
         transform="matrix(3.031339,0,0,2.932114,12.5,12.4941)"
         id="g67">
        <circle
           style="fill:#ff6309"
           id="circle69"
           r="9.1239996"
           cy="46.903999"
           cx="9.1239996"
           i:knockout="Off" />
        <circle
           style="fill:#ffb515"
           id="circle71"
           r="9.1239996"
           cy="84.667"
           cx="74.547997"
           i:knockout="Off" />
        <path
           style="fill:#ff6309"
           id="path73"
           d="m 52.739,24.327 c 11.361,0 20.787,8.436 22.348,19.373 H 90.719 C 90.009,35.106 86.446,27.096 80.489,20.779 76.674,22.722 71.983,22.759 67.998,20.459 64.01,18.156 61.696,14.072 61.474,9.792 58.643,9.132 55.718,8.79 52.739,8.79 c -5.704,0 -11.216,1.245 -16.229,3.606 l 7.826,13.555 c 2.599,-1.046 5.435,-1.624 8.403,-1.624 z"
           i:knockout="Off"
           inkscape:connector-curvature="0" />
        <path
           style="fill:#c90016"
           id="path75"
           d="M 75.088,50.098 C 73.531,61.039 64.103,69.48 52.739,69.48 c -2.97,0 -5.807,-0.578 -8.406,-1.626 L 36.506,81.41 c 5.012,2.362 10.526,3.608 16.232,3.608 2.981,0 5.91,-0.344 8.742,-1.004 0.218,-4.285 2.533,-8.376 6.524,-10.68 3.986,-2.302 8.679,-2.265 12.495,-0.318 5.952,-6.318 9.511,-14.327 10.219,-22.918 z"
           i:knockout="Off"
           inkscape:connector-curvature="0" />
        <path
           style="fill:#ffb515"
           id="path77"
           d="m 30.163,46.904 c 0,-7.193 3.381,-13.61 8.636,-17.747 L 30.975,15.604 c -1.835,1.282 -3.571,2.733 -5.188,4.349 -4.528,4.528 -7.775,9.995 -9.562,15.962 3.6,2.332 5.984,6.38 5.984,10.989 0,4.608 -2.384,8.657 -5.984,10.988 1.787,5.967 5.034,11.434 9.562,15.962 1.616,1.616 3.35,3.065 5.184,4.348 L 38.796,64.648 C 33.542,60.511 30.163,54.094 30.163,46.904 Z"
           i:knockout="Off"
           inkscape:connector-curvature="0" />
        <circle
           style="fill:#c90016"
           id="circle79"
           r="9.1239996"
           cy="9.1260004"
           cx="74.540001"
           i:knockout="Off" />
      </g>
    </g>
    <g
       id="g10"
       transform="matrix(0.33072917,0,0,-0.33072917,31.411004,174.0332)">
      <g
         id="g12"
         transform="scale(0.1)">
        <path
           d="M 218.406,895.094 C 218.406,832.77 169.512,782.242 109.199,782.242 48.8984,782.242 0,832.77 0,895.094 c 0,62.312 48.8984,112.856 109.199,112.856 60.313,0 109.207,-50.544 109.207,-112.856"
           style="fill:#232e4a;fill-opacity:1;fill-rule:nonzero;stroke:none"
           id="path14"
           inkscape:connector-curvature="0" />
        <path
           d="M 218.406,510.512 C 218.406,448.188 169.512,397.66 109.199,397.66 48.8984,397.66 0,448.188 0,510.512 c 0,62.324 48.8984,112.851 109.199,112.851 60.313,0 109.207,-50.527 109.207,-112.851"
           style="fill:#232e4a;fill-opacity:1;fill-rule:nonzero;stroke:none"
           id="path16"
           inkscape:connector-curvature="0" />
        <path
           d="M 218.406,125.934 C 218.406,63.6172 169.512,13.0781 109.199,13.0781 48.8984,13.0781 0,63.6172 0,125.934 c 0,62.312 48.8984,112.851 109.199,112.851 60.313,0 109.207,-50.539 109.207,-112.851"
           style="fill:#232e4a;fill-opacity:1;fill-rule:nonzero;stroke:none"
           id="path18"
           inkscape:connector-curvature="0" />
        <path
           d="m 599.473,510.512 c 0,-62.324 -48.899,-112.852 -109.207,-112.852 -60.305,0 -109.203,50.528 -109.203,112.852 0,62.324 48.898,112.851 109.203,112.851 60.308,0 109.207,-50.527 109.207,-112.851"
           style="fill:#232e4a;fill-opacity:1;fill-rule:nonzero;stroke:none"
           id="path20"
           inkscape:connector-curvature="0" />
        <path
           d="m 599.473,895.094 c 0,-62.324 -48.899,-112.852 -109.207,-112.852 -60.305,0 -109.203,50.528 -109.203,112.852 0,62.312 48.898,112.856 109.203,112.856 60.308,0 109.207,-50.544 109.207,-112.856"
           style="fill:#232e4a;fill-opacity:1;fill-rule:nonzero;stroke:none"
           id="path22"
           inkscape:connector-curvature="0" />
        <path
           d="m 980.535,510.512 c 0,-62.324 -48.894,-112.852 -109.207,-112.852 -60.305,0 -109.199,50.528 -109.199,112.852 0,62.324 48.894,112.851 109.199,112.851 60.313,0 109.207,-50.527 109.207,-112.851"
           style="fill:#232e4a;fill-opacity:1;fill-rule:nonzero;stroke:none"
           id="path24"
           inkscape:connector-curvature="0" />
        <path
           d="m 980.535,895.094 c 0,-62.324 -48.894,-112.852 -109.207,-112.852 -60.305,0 -109.199,50.528 -109.199,112.852 0,62.312 48.894,112.856 109.199,112.856 60.313,0 109.207,-50.544 109.207,-112.856"
           style="fill:#232e4a;fill-opacity:1;fill-rule:nonzero;stroke:none"
           id="path26"
           inkscape:connector-curvature="0" />
        <path
           d="m 980.535,125.934 c 0,-62.3168 -48.894,-112.8559 -109.207,-112.8559 -60.305,0 -109.199,50.5391 -109.199,112.8559 0,62.312 48.894,112.851 109.199,112.851 60.313,0 109.207,-50.539 109.207,-112.851"
           style="fill:#232e4a;fill-opacity:1;fill-rule:nonzero;stroke:none"
           id="path28"
           inkscape:connector-curvature="0" />
        <path
           d="m 599.473,125.934 c 0,-62.3168 -48.899,-112.8559 -109.207,-112.8559 -60.305,0 -109.203,50.5391 -109.203,112.8559 0,62.312 48.898,112.851 109.203,112.851 60.308,0 109.207,-50.539 109.207,-112.851"
           style="fill:#232e4a;fill-opacity:1;fill-rule:nonzero;stroke:none"
           id="path30"
           inkscape:connector-curvature="0" />
        <path
           d="M 1716.12,865.484 H 1436.97 V 547.289 h 279.15 c 95.79,0 162.84,50.914 162.84,158.391 0,103.234 -65.68,159.804 -162.84,159.804 z M 1813.28,420.016 2008.96,15.5586 H 1843.39 L 1653.18,407.281 H 1436.97 V 15.5586 H 1296.03 V 1005.49 h 420.09 c 166.95,0 307.89,-91.927 307.89,-295.568 0,-158.391 -80.73,-255.961 -210.73,-289.906"
           style="fill:#232e4a;fill-opacity:1;fill-rule:nonzero;stroke:none"
           id="path32"
           inkscape:connector-curvature="0" />
        <path
           d="m 3506.08,0 c -139.59,0 -260,62.2227 -340.74,159.801 l 102.64,103.242 c 64.31,-72.129 158.73,-117.383 249.04,-117.383 134.1,0 198.42,48.086 198.42,144.246 0,76.367 -56.09,114.551 -216.21,164.055 -202.52,62.215 -299.67,114.539 -299.67,291.312 0,171.118 139.57,275.767 316.09,275.767 130,0 228.52,-49.497 313.36,-134.345 L 3727.76,780.629 c -60.21,63.641 -128.63,94.754 -223.04,94.754 -112.23,0 -160.12,-56.57 -160.12,-123.035 0,-69.297 43.79,-103.239 209.37,-154.145 C 3742.8,538.805 3860.5,476.582 3860.5,299.809 3860.5,121.617 3751.03,0 3506.08,0"
           style="fill:#232e4a;fill-opacity:1;fill-rule:nonzero;stroke:none"
           id="path36"
           inkscape:connector-curvature="0" />
      </g>
    </g>
  </g>
</svg>
