<?xml version="1.0" encoding="UTF-8" standalone="no"?>
<!-- Created with Inkscape (http://www.inkscape.org/) -->

<svg
   xmlns:dc="http://purl.org/dc/elements/1.1/"
   xmlns:cc="http://creativecommons.org/ns#"
   xmlns:rdf="http://www.w3.org/1999/02/22-rdf-syntax-ns#"
   xmlns:svg="http://www.w3.org/2000/svg"
   xmlns="http://www.w3.org/2000/svg"
   xmlns:sodipodi="http://sodipodi.sourceforge.net/DTD/sodipodi-0.dtd"
   xmlns:inkscape="http://www.inkscape.org/namespaces/inkscape"
   width="62.438454mm"
   height="48.939236mm"
   viewBox="0 0 62.438454 48.939236"
   version="1.1"
   id="svg8"
   inkscape:version="0.92.4 (5da689c313, 2019-01-14)"
   sodipodi:docname="verilator.svg">
  <defs
     id="defs2" />
  <sodipodi:namedview
     id="base"
     pagecolor="#ffffff"
     bordercolor="#666666"
     borderopacity="1.0"
     inkscape:pageopacity="0.0"
     inkscape:pageshadow="2"
     inkscape:zoom="0.7"
     inkscape:cx="378.67214"
     inkscape:cy="-123.6457"
     inkscape:document-units="mm"
     inkscape:current-layer="layer1"
     showgrid="false"
     inkscape:window-width="1920"
     inkscape:window-height="1001"
     inkscape:window-x="-9"
     inkscape:window-y="41"
     inkscape:window-maximized="1"
     fit-margin-top="0"
     fit-margin-left="0"
     fit-margin-right="0"
     fit-margin-bottom="0" />
  <metadata
     id="metadata5">
    <rdf:RDF>
      <cc:Work
         rdf:about="">
        <dc:format>image/svg+xml</dc:format>
        <dc:type
           rdf:resource="http://purl.org/dc/dcmitype/StillImage" />
        <dc:title></dc:title>
      </cc:Work>
    </rdf:RDF>
  </metadata>
  <g
     inkscape:label="Layer 1"
     inkscape:groupmode="layer"
     id="layer1"
     transform="translate(-20.710431,-48.692012)">
    <g
       id="g838"
       transform="translate(-67.017834,-2.4722431)">
      <path
         style="fill:#aceaed;stroke-width:0.26458332"
         d="M 117.94183,90.388758 C 117.64664,90.134096 112.6804,81.710424 106.90574,71.669487 101.13108,61.628549 96.299259,53.300127 96.168355,53.161882 95.78016,52.751918 95.896461,51.909796 96.393368,51.53259 c 0.340926,-0.2588 1.625443,-0.353702 4.871272,-0.359898 l 4.40825,-0.0084 0.61883,0.749968 c 0.34036,0.412483 1.74993,2.732214 3.13238,5.154957 l 2.51354,4.404989 7.4414,0.0044 7.44141,0.0044 0.16562,-0.828114 c 0.0911,-0.455463 0.55479,-1.259134 1.03043,-1.785937 0.47565,-0.526804 1.61831,-2.298711 2.53926,-3.937572 0.92094,-1.638861 1.92737,-3.156908 2.23651,-3.373438 0.43717,-0.306208 1.4472,-0.39369 4.54537,-0.39369 4.31714,0 5.15937,0.230703 5.15937,1.413254 0,0.714522 -20.94019,37.155226 -21.72775,37.811226 -0.30573,0.254661 -0.94621,0.463021 -1.42329,0.463021 -0.47708,0 -1.10894,-0.20836 -1.40414,-0.463021 z"
         id="path846"
         inkscape:connector-curvature="0"
         sodipodi:nodetypes="cssscccccccccccsscscc" />
      <path
         style="fill:#018dd4;stroke-width:0.26458332"
         d="m 136.54389,99.512531 c -1.36101,-0.759971 -2.38739,-2.680526 -2.13929,-4.00303 0.36732,-1.957967 2.187,-3.598566 3.99137,-3.598566 1.79518,0 3.62396,1.640126 3.9871,3.575799 0.37152,1.980364 -1.90531,4.616756 -3.9871,4.616756 -0.43656,0 -1.27,-0.265932 -1.85208,-0.590959 z m 3.38358,-1.520227 c 1.77935,-1.399633 0.69824,-4.759275 -1.5315,-4.759275 -0.9006,0 -1.94438,0.796906 -2.24774,1.716106 -0.61439,1.861616 0.46306,3.575561 2.24774,3.575561 0.47007,0 1.15925,-0.239575 1.5315,-0.532392 z m -49.11109,1.656871 c -0.191203,-0.321234 -3.088115,-7.453048 -3.088115,-7.602535 0,-0.07509 0.349628,-0.136528 0.776952,-0.136528 0.744998,0 0.822977,0.120076 1.895959,2.919458 0.615453,1.605703 1.202498,2.826094 1.304544,2.711979 0.102046,-0.114112 0.645828,-1.427869 1.208406,-2.919458 0.957897,-2.539717 1.069369,-2.711979 1.754961,-2.711979 0.402652,0 0.732094,0.117814 0.732094,0.261805 0,0.143994 -0.679469,1.929932 -1.50993,3.96875 -1.423266,3.494181 -1.551451,3.706945 -2.233343,3.706945 -0.397878,0 -0.776565,-0.0893 -0.841528,-0.198437 z m 5.759075,-0.14564 c -0.07262,-0.189243 -0.09865,-1.945415 -0.05784,-3.902604 l 0.07419,-3.558527 2.84427,-0.0751 2.844275,-0.0751 v 0.802701 0.802701 h -2.11667 -2.116667 v 0.926042 0.926041 h 1.984377 c 1.94028,0 1.98437,0.01471 1.98437,0.661459 0,0.646758 -0.0441,0.661458 -1.98437,0.661458 h -1.984377 v 0.79375 0.79375 h 2.116667 2.11667 v 0.79375 0.79375 h -2.786433 c -2.04272,0 -2.821669,-0.09184 -2.918463,-0.344077 z m 6.621385,0.01773 c -0.0764,-0.198988 -0.10545,-1.963134 -0.0646,-3.920323 l 0.0742,-3.558535 1.96544,-0.07869 c 1.1017,-0.04411 2.29745,0.05884 2.72095,0.234252 2.08412,0.863271 2.44518,3.575711 0.60436,4.540213 l -0.64906,0.340082 1.04131,1.186238 c 0.57272,0.652431 1.04639,1.275535 1.05259,1.384676 0.006,0.10914 -0.33882,0.198437 -0.76672,0.198437 -0.60848,0 -1.02106,-0.288255 -1.8935,-1.322916 -0.73968,-0.877216 -1.31951,-1.322917 -1.72104,-1.322917 -0.5347,0 -0.61498,0.147039 -0.68619,1.256771 -0.0739,1.151596 -0.14166,1.26379 -0.80975,1.340636 -0.43711,0.05028 -0.78471,-0.06103 -0.86794,-0.277932 z m 4.58684,-3.9599 c 0.17463,-0.174625 0.3175,-0.567531 0.3175,-0.873125 0,-0.862938 -0.5243,-1.190625 -1.905,-1.190625 h -1.27 v 1.190625 1.190625 h 1.27 c 0.6985,0 1.41288,-0.142875 1.5875,-0.3175 z m 3.34386,3.942173 c -0.0726,-0.189243 -0.0986,-1.945415 -0.0578,-3.902604 l 0.0742,-3.558527 0.7276,-0.08372 0.72761,-0.08372 v 3.986324 3.986323 h -0.66976 c -0.36838,0 -0.72918,-0.154834 -0.8018,-0.344077 z m 2.91041,0 c -0.0726,-0.189243 -0.0986,-1.945415 -0.0578,-3.902604 l 0.0742,-3.558527 0.72761,-0.08372 0.7276,-0.08372 v 3.180982 3.180982 l 1.91823,0.07774 c 1.8739,0.07594 1.92017,0.09455 2.00195,0.805341 l 0.0837,0.727604 h -2.67171 c -1.94857,0 -2.70745,-0.09313 -2.80375,-0.344077 z m 6.49768,0.163213 c -5.3e-4,-0.118805 0.7436,-1.914339 1.65364,-3.990075 1.61145,-3.675602 1.6746,-3.772239 2.42037,-3.704167 0.70915,0.06473 0.88035,0.32362 2.31593,3.502099 2.05989,4.560752 2.01398,4.373007 1.06929,4.373007 -0.61664,0 -0.84817,-0.165825 -1.10826,-0.79375 -0.32299,-0.779767 -0.36292,-0.79375 -2.26662,-0.79375 -1.85347,0 -1.95296,0.03168 -2.28496,0.727604 -0.23161,0.485482 -0.5886,0.755463 -1.07277,0.811324 -0.39911,0.04605 -0.72609,-0.01349 -0.72662,-0.132292 z m 5.14457,-3.324865 c -0.10105,-0.327422 -0.39668,-1.012031 -0.65695,-1.521354 l -0.47323,-0.926042 -0.28105,0.729401 c -0.15458,0.401169 -0.46535,1.085778 -0.69059,1.521354 l -0.40954,0.791954 h 1.34754 c 1.2755,0 1.33772,-0.03183 1.16382,-0.595313 z m 4.55779,3.32934 c -0.097,-0.09701 -0.17639,-1.525763 -0.17639,-3.175001 v -2.99861 h -1.2082 c -1.16195,0 -1.205,-0.02786 -1.12448,-0.727604 l 0.0837,-0.727604 3.10885,-0.07454 3.10886,-0.07454 v 0.802145 c 0,0.774306 -0.0413,0.802148 -1.19063,0.802148 h -1.19062 v 3.175 c 0,3.149801 -0.005,3.175 -0.61736,3.175 -0.33955,0 -0.69674,-0.07937 -0.79375,-0.176389 z m 13.05277,-3.792361 v -3.96875 h 1.99752 c 3.0614,0 4.3288,0.822965 4.34407,2.820752 0.007,0.910037 -0.13278,1.219766 -0.8058,1.786078 l -0.81422,0.685117 1.07719,1.256631 1.0772,1.256631 -0.82897,0.08566 c -0.71244,0.07362 -0.99404,-0.103047 -2.00328,-1.256771 -0.80558,-0.920896 -1.37559,-1.342427 -1.81527,-1.342427 -0.59274,0 -0.64094,0.09949 -0.64094,1.322917 0,1.293518 -0.0177,1.322916 -0.79375,1.322916 h -0.79375 z m 4.61131,-0.415774 c 0.99055,-0.990544 0.13748,-1.965476 -1.71979,-1.965476 h -1.30402 v 1.190625 1.190625 h 1.30402 c 0.83269,0 1.45429,-0.150278 1.71979,-0.415774 z m -29.97482,-5.338913 c -0.99917,-0.949577 -22.066223,-37.60387 -21.8847,-38.076913 0.261355,-0.68108 1.512889,-0.882984 5.4733,-0.882984 3.76067,0 3.99349,0.03047 4.54842,0.595312 0.32167,0.327422 1.76011,2.649141 3.19653,5.159375 l 2.61166,4.564063 h 7.49687 7.49687 l 0.27181,-1.00942 c 0.14949,-0.555181 0.56755,-1.287255 0.92901,-1.626832 0.36146,-0.339576 1.51006,-2.076248 2.55244,-3.85927 1.19058,-2.036519 2.13244,-3.349937 2.53322,-3.532543 0.86,-0.391846 7.53441,-0.380683 8.40076,0.01405 0.85959,0.391659 1.07491,1.097181 0.61575,2.017597 -0.20058,0.402071 -5.03613,8.837923 -10.74567,18.746339 -7.73132,13.417047 -10.55002,18.092322 -11.04327,18.317065 -1.02616,0.46755 -1.62174,0.364159 -2.453,-0.425839 z m 5.57532,-20.352453 c 2.14061,-3.732293 3.82979,-6.886666 3.75374,-7.009717 -0.12321,-0.199367 -15.44062,-0.0038 -15.68075,0.200192 -0.0536,0.04555 0.6451,1.403991 1.5527,3.018748 0.90761,1.614757 1.60632,2.976168 1.5527,3.025358 -0.0536,0.04919 -1.31743,0.768473 -2.80847,1.598405 -1.49104,0.829932 -2.77647,1.614923 -2.85651,1.744425 -0.11814,0.191159 0.22638,1.137614 0.55578,1.526793 0.0418,0.04937 0.94839,-0.4115 2.01468,-1.024167 1.06628,-0.612666 2.4341,-1.396004 3.0396,-1.740752 l 1.1009,-0.626815 0.64607,1.121814 c 2.43538,4.228697 2.88435,4.957915 3.05078,4.954989 0.10272,-0.0019 1.93817,-3.056979 4.07878,-6.789273 z m 8.32791,-7.011898 c 1.32422,-1.244037 0.3315,-3.658046 -1.5043,-3.658046 -1.80641,0 -2.7845,2.297721 -1.54138,3.620968 0.75889,0.807801 2.20653,0.825424 3.04568,0.03708 z m 6.20706,-4.848671 c 0.42105,-0.257319 2.19306,-3.042709 1.93571,-3.042709 -0.0708,0 -1.72536,0.899431 -3.67675,1.998736 l -3.54798,1.998735 0.43714,0.761657 0.43713,0.761657 1.99091,-1.106746 c 1.095,-0.608711 2.18573,-1.225809 2.42384,-1.37133 z"
         id="path844"
         inkscape:connector-curvature="0" />
      <path
         style="fill:#040404;fill-opacity:1;stroke-width:0.26458332"
         d="m 136.54389,99.512531 c -1.36101,-0.759971 -2.38739,-2.680526 -2.13929,-4.00303 0.36732,-1.957967 2.187,-3.598566 3.99137,-3.598566 1.79518,0 3.62396,1.640126 3.9871,3.575799 0.37152,1.980364 -1.90531,4.616756 -3.9871,4.616756 -0.43656,0 -1.27,-0.265932 -1.85208,-0.590959 z m 3.38358,-1.520227 c 1.77935,-1.399633 0.69824,-4.759275 -1.5315,-4.759275 -0.9006,0 -1.94438,0.796906 -2.24774,1.716106 -0.61439,1.861616 0.46306,3.575561 2.24774,3.575561 0.47007,0 1.15925,-0.239575 1.5315,-0.532392 z m -49.11109,1.656871 c -0.191203,-0.321234 -3.088115,-7.453048 -3.088115,-7.602535 0,-0.07509 0.349628,-0.136528 0.776952,-0.136528 0.744998,0 0.822977,0.120076 1.895959,2.919458 0.615453,1.605703 1.202498,2.826094 1.304544,2.711979 0.102046,-0.114112 0.645828,-1.427869 1.208406,-2.919458 0.957897,-2.539717 1.069369,-2.711979 1.754961,-2.711979 0.402652,0 0.732094,0.117814 0.732094,0.261805 0,0.143994 -0.679469,1.929932 -1.50993,3.96875 -1.423266,3.494181 -1.551451,3.706945 -2.233343,3.706945 -0.397878,0 -0.776565,-0.0893 -0.841528,-0.198437 z m 5.759075,-0.14564 c -0.07262,-0.189243 -0.09865,-1.945415 -0.05784,-3.902604 l 0.07419,-3.558527 2.84427,-0.0751 2.844275,-0.0751 v 0.802701 0.802701 h -2.11667 -2.116667 v 0.926042 0.926041 h 1.984377 c 1.94028,0 1.98437,0.01471 1.98437,0.661459 0,0.646758 -0.0441,0.661458 -1.98437,0.661458 h -1.984377 v 0.79375 0.79375 h 2.116667 2.11667 v 0.79375 0.79375 h -2.786433 c -2.04272,0 -2.821669,-0.09184 -2.918463,-0.344077 z m 6.621385,0.01773 c -0.0764,-0.198988 -0.10545,-1.963134 -0.0646,-3.920323 l 0.0742,-3.558535 1.96544,-0.07869 c 1.1017,-0.04411 2.29745,0.05884 2.72095,0.234252 2.08412,0.863271 2.44518,3.575711 0.60436,4.540213 l -0.64906,0.340082 1.04131,1.186238 c 0.57272,0.652431 1.04639,1.275535 1.05259,1.384676 0.006,0.10914 -0.33882,0.198437 -0.76672,0.198437 -0.60848,0 -1.02106,-0.288255 -1.8935,-1.322916 -0.73968,-0.877216 -1.31951,-1.322917 -1.72104,-1.322917 -0.5347,0 -0.61498,0.147039 -0.68619,1.256771 -0.0739,1.151596 -0.14166,1.26379 -0.80975,1.340636 -0.43711,0.05028 -0.78471,-0.06103 -0.86794,-0.277932 z m 4.58684,-3.9599 c 0.17463,-0.174625 0.3175,-0.567531 0.3175,-0.873125 0,-0.862938 -0.5243,-1.190625 -1.905,-1.190625 h -1.27 v 1.190625 1.190625 h 1.27 c 0.6985,0 1.41288,-0.142875 1.5875,-0.3175 z m 3.34386,3.942173 c -0.0726,-0.189243 -0.0986,-1.945415 -0.0578,-3.902604 l 0.0742,-3.558527 0.7276,-0.08372 0.72761,-0.08372 v 3.986324 3.986323 h -0.66976 c -0.36838,0 -0.72918,-0.154834 -0.8018,-0.344077 z m 2.91041,0 c -0.0726,-0.189243 -0.0986,-1.945415 -0.0578,-3.902604 l 0.0742,-3.558527 0.72761,-0.08372 0.7276,-0.08372 v 3.180982 3.180982 l 1.91823,0.07774 c 1.8739,0.07594 1.92017,0.09455 2.00195,0.805341 l 0.0837,0.727604 h -2.67171 c -1.94857,0 -2.70745,-0.09313 -2.80375,-0.344077 z m 6.49768,0.163213 c -5.3e-4,-0.118805 0.7436,-1.914339 1.65364,-3.990075 1.61145,-3.675602 1.6746,-3.772239 2.42037,-3.704167 0.70915,0.06473 0.88035,0.32362 2.31593,3.502099 2.05989,4.560752 2.01398,4.373007 1.06929,4.373007 -0.61664,0 -0.84817,-0.165825 -1.10826,-0.79375 -0.32299,-0.779767 -0.36292,-0.79375 -2.26662,-0.79375 -1.85347,0 -1.95296,0.03168 -2.28496,0.727604 -0.23161,0.485482 -0.5886,0.755463 -1.07277,0.811324 -0.39911,0.04605 -0.72609,-0.01349 -0.72662,-0.132292 z m 5.14457,-3.324865 c -0.10105,-0.327422 -0.39668,-1.012031 -0.65695,-1.521354 l -0.47323,-0.926042 -0.28105,0.729401 c -0.15458,0.401169 -0.46535,1.085778 -0.69059,1.521354 l -0.40954,0.791954 h 1.34754 c 1.2755,0 1.33772,-0.03183 1.16382,-0.595313 z m 4.55779,3.32934 c -0.097,-0.09701 -0.17639,-1.525763 -0.17639,-3.175001 v -2.99861 h -1.2082 c -1.16195,0 -1.205,-0.02786 -1.12448,-0.727604 l 0.0837,-0.727604 3.10885,-0.07454 3.10886,-0.07454 v 0.802145 c 0,0.774306 -0.0413,0.802148 -1.19063,0.802148 h -1.19062 v 3.175 c 0,3.149801 -0.005,3.175 -0.61736,3.175 -0.33955,0 -0.69674,-0.07937 -0.79375,-0.176389 z m 13.05277,-3.792361 v -3.96875 h 1.99752 c 3.0614,0 4.3288,0.822965 4.34407,2.820752 0.007,0.910037 -0.13278,1.219766 -0.8058,1.786078 l -0.81422,0.685117 1.07719,1.256631 1.0772,1.256631 -0.82897,0.08566 c -0.71244,0.07362 -0.99404,-0.103047 -2.00328,-1.256771 -0.80558,-0.920896 -1.37559,-1.342427 -1.81527,-1.342427 -0.59274,0 -0.64094,0.09949 -0.64094,1.322917 0,1.293518 -0.0177,1.322916 -0.79375,1.322916 h -0.79375 z m 4.61131,-0.415774 c 0.99055,-0.990544 0.13748,-1.965476 -1.71979,-1.965476 h -1.30402 v 1.190625 1.190625 h 1.30402 c 0.83269,0 1.45429,-0.150278 1.71979,-0.415774 z m -29.97482,-5.338913 c -0.99917,-0.949577 -22.066223,-37.60387 -21.8847,-38.076913 0.261355,-0.68108 1.512889,-0.882984 5.4733,-0.882984 3.76067,0 3.99349,0.03047 4.54842,0.595312 0.32167,0.327422 1.76011,2.649141 3.19653,5.159375 l 2.61166,4.564063 h 7.49687 7.49687 l 0.27181,-1.00942 c 0.14949,-0.555181 0.56755,-1.287255 0.92901,-1.626832 0.36146,-0.339576 1.51006,-2.076248 2.55244,-3.85927 1.19058,-2.036519 2.13244,-3.349937 2.53322,-3.532543 0.86,-0.391846 7.53441,-0.380683 8.40076,0.01405 0.85959,0.391659 1.07491,1.097181 0.61575,2.017597 -0.20058,0.402071 -5.03613,8.837923 -10.74567,18.746339 -7.73132,13.417047 -10.55002,18.092322 -11.04327,18.317065 -1.02616,0.46755 -1.62174,0.364159 -2.453,-0.425839 z m 2.71592,-1.587501 c 0.8628,-1.330856 16.56218,-28.600889 16.56218,-28.768735 0,-0.07257 -0.74415,0.275772 -1.65365,0.77409 -1.13397,0.621302 -1.79091,1.181762 -2.09043,1.783413 -0.97375,1.956038 -2.82663,2.789205 -4.4272,1.990738 l -0.80904,-0.403605 -3.22031,5.598247 c -1.77116,3.079037 -3.50645,6.094162 -3.85619,6.700277 -1.448,2.509422 -2.16664,2.297367 -4.18398,-1.234612 -0.83271,-1.457918 -1.59915,-2.70338 -1.70321,-2.767693 -0.1512,-0.09345 -4.60422,2.24052 -4.96713,2.603425 -0.0936,0.09362 7.6749,13.735856 8.19201,14.385914 0.52912,0.665162 1.48741,0.37129 2.15695,-0.661459 z m 2.8594,-18.764952 c 2.14061,-3.732293 3.82979,-6.886666 3.75374,-7.009717 -0.12321,-0.199367 -15.44062,-0.0038 -15.68075,0.200192 -0.0536,0.04555 0.6451,1.403991 1.5527,3.018748 0.90761,1.614757 1.60632,2.976168 1.5527,3.025358 -0.0536,0.04919 -1.31743,0.768473 -2.80847,1.598405 -1.49104,0.829932 -2.77647,1.614923 -2.85651,1.744425 -0.11814,0.191159 0.22638,1.137614 0.55578,1.526793 0.0418,0.04937 0.94839,-0.4115 2.01468,-1.024167 1.06628,-0.612666 2.4341,-1.396004 3.0396,-1.740752 l 1.1009,-0.626815 0.64607,1.121814 c 2.43538,4.228697 2.88435,4.957915 3.05078,4.954989 0.10272,-0.0019 1.93817,-3.056979 4.07878,-6.789273 z m -12.78737,0.280464 c 1.18475,-0.671235 2.21898,-1.325419 2.29828,-1.453742 0.0793,-0.128324 -0.51726,-1.391116 -1.32572,-2.806205 -1.49348,-2.614148 -1.68312,-3.19642 -1.19876,-3.68078 0.18515,-0.185148 -0.58265,-1.754473 -2.4207,-4.947709 l -2.69184,-4.676556 h -3.95762 c -3.659487,0 -3.944413,0.03488 -3.782453,0.463021 0.163354,0.431824 5.825003,10.350234 9.061803,15.875001 0.78862,1.346067 1.5304,2.447396 1.64839,2.447396 0.11799,0 1.18387,-0.549192 2.36862,-1.220426 z m 21.11528,-7.292362 c 1.32422,-1.244037 0.3315,-3.658046 -1.5043,-3.658046 -1.80641,0 -2.7845,2.297721 -1.54138,3.620968 0.75889,0.807801 2.20653,0.825424 3.04568,0.03708 z m 6.20706,-4.848671 c 0.42105,-0.257319 2.19306,-3.042709 1.93571,-3.042709 -0.0708,0 -1.72536,0.899431 -3.67675,1.998736 l -3.54798,1.998735 0.43714,0.761657 0.43713,0.761657 1.99091,-1.106746 c 1.095,-0.608711 2.18573,-1.225809 2.42384,-1.37133 z m 3.13656,-5.215213 c 0,-0.11481 -1.75618,-0.207239 -3.90261,-0.205399 l -3.9026,0.0033 -1.52136,2.624693 c -0.83674,1.443582 -1.52135,2.684323 -1.52135,2.757204 0,0.07288 0.32742,0.170185 0.7276,0.216231 0.52717,0.06066 2.02134,-0.642304 5.42396,-2.551806 2.583,-1.449539 4.69636,-2.729461 4.69636,-2.84427 z"
         id="path842"
         inkscape:connector-curvature="0" />
    </g>
  </g>
</svg>
