<?xml version="1.0" encoding="utf-8"?>
<!-- Uploaded to: SVG Repo, www.svgrepo.com, Generator: SVG Repo Mixer Tools -->
<svg width="800px" height="800px" viewBox="0 -71.47 459.012 459.012" xmlns="http://www.w3.org/2000/svg"><defs><style>.a{fill:#ffffff;}.b{fill:#211715;}.c{fill:#a98a75;}.d{fill:#f4b3b3;}</style></defs><path class="a" d="M113.226,43.769c-1.667,4.111-4,8.833-6.125,12.861,1.375.708,11.736,4.917,14.57,5.639,1.722-4.389,3.513-8.577,4.884-12.9C124.289,48.526,117.868,45.528,113.226,43.769Z"/><path class="a" d="M351.671,46.547c-3.723,3.555-8.278,7.777-11.278,10.916,3.166,3,6.444,6.139,9.375,8.792,3.347-3.431,7.458-7.153,10.791-10.875C359.117,53.861,354.421,49.3,351.671,46.547Z"/><path class="a" d="M333.059,15.158c-4.777-4.389-9.888-9-14.5-12.778-4.666,4.75-8.777,9.611-12.944,14.333,2.846,2.718,9.778,9.084,14.361,12.667C323.476,25.63,330.393,18.324,333.059,15.158Z"/><path class="b" d="M110.912,43.131c-1.715,4.2-3.769,8.273-5.883,12.288a2.431,2.431,0,0,0,.861,3.283c2.31,1.17,4.8,2.062,7.2,3.014a70.187,70.187,0,0,0,7.939,2.867,2.47,2.47,0,0,0,2.952-1.676c1.683-4.28,3.482-8.518,4.884-12.9a2.455,2.455,0,0,0-1.676-2.953c-1.712-.644-3.384-1.424-5.471-2.331-2.6-1.131-5.207-2.257-7.858-3.268a2.42,2.42,0,0,0-2.952,1.677,2.453,2.453,0,0,0,1.676,2.952c4.5,1.715,8.805,3.9,13.329,5.6L124.24,48.73c-1.4,4.383-3.2,8.621-4.884,12.9l2.953-1.677a68.394,68.394,0,0,1-7.725-2.782q-2.094-.826-4.175-1.69l-.5-.208c.236.1.338.145.041.017-.24-.1-.481-.206-.72-.311-.309-.135-.619-.27-.92-.422l.861,3.283c2.311-4.387,4.494-8.842,6.367-13.434a2.415,2.415,0,0,0-1.676-2.953A2.46,2.46,0,0,0,110.912,43.131Z"/><path class="b" d="M349.973,44.849c-3.783,3.611-7.656,7.142-11.277,10.917a2.433,2.433,0,0,0,0,3.394c3.109,2.947,6.2,5.914,9.375,8.792a2.443,2.443,0,0,0,3.394,0c3.573-3.65,7.371-7.077,10.791-10.875a2.453,2.453,0,0,0,0-3.394c-2.882-3.021-5.934-5.883-8.888-8.834-2.189-2.185-5.584,1.208-3.395,3.4,2.955,2.95,6.007,5.812,8.889,8.833V53.683c-3.42,3.8-7.218,7.225-10.791,10.875h3.394c-3.174-2.878-6.266-5.845-9.375-8.792V59.16c3.621-3.775,7.5-7.3,11.278-10.916C355.607,46.106,352.209,42.716,349.973,44.849Z"/><path class="b" d="M334.756,13.461c-4.745-4.357-9.521-8.688-14.5-12.778a2.455,2.455,0,0,0-3.394,0c-4.506,4.6-8.686,9.5-12.944,14.333a2.442,2.442,0,0,0,0,3.394c4.611,4.4,9.348,8.73,14.361,12.667a2.454,2.454,0,0,0,3.394,0c4.391-4.7,8.926-9.308,13.083-14.222a2.463,2.463,0,0,0,0-3.394,2.419,2.419,0,0,0-3.394,0c-4.157,4.914-8.692,9.519-13.083,14.222h3.394c-5.013-3.937-9.75-8.27-14.361-12.667V18.41c4.258-4.83,8.438-9.73,12.944-14.333h-3.394c4.979,4.09,9.755,8.421,14.5,12.778C333.634,18.941,337.038,15.555,334.756,13.461Z"/><path class="a" d="M455.851,82.17a5.478,5.478,0,0,0,.358-4.9,4.438,4.438,0,0,0-4.91-2.038,12.712,12.712,0,0,0-4.14,2.391c.885-.824,1.722-1.618,2.5-2.369a8.642,8.642,0,0,0,3.029-5.365,4.572,4.572,0,0,0-3.64-4.752c-2.4-.415-4.24.8-6.1,2.49q-1.41,1.278-2.87,2.592l.456-.727a13.3,13.3,0,0,0,1.227-3.236,4.895,4.895,0,0,0-2.146-4.8,5.447,5.447,0,0,0-4.9.042,14.483,14.483,0,0,0-3.985,2.695c-4.842,4.5-14.735,12.689-19.577,17.183,0,0-1.289,1.2-3.062,2.841.864-3.182,1.4-5,2.19-8.5a3.555,3.555,0,0,0-.716-3.033,3.235,3.235,0,0,0-1.691-1.044c-3.617-.515-6.311,2.511-8.176,5.652-2.531,4.262-3.712,9.167-4.86,13.989-.854,3.584-2.113,8.438-2.68,12.1-.771.891-1.561,1.767-2.355,2.639,6.679,7.093,13.248,14.537,19.327,21.926l.34-.4c.875-1.021,7.72-7.178,8.787-7.429,8.114-1.912,12.579-4.658,20.371-9.471a88.049,88.049,0,0,0,10.32-7.575,36.262,36.262,0,0,0,5.3-5.508,5.385,5.385,0,0,0,.787-4.928c-.394-1.221-1.76-2.257-3.872-2.174a11.711,11.711,0,0,0-4.775,1.389c2.354-2.02,4.525-3.972,6.23-5.609A18.277,18.277,0,0,0,455.851,82.17Z"/><path class="b" d="M410.1,91.044c.076-1.812-.225-3.729.125-5.517.376-1.924,1.048-3.816,1.535-5.716.539-2.1,1.418-4.47.731-6.628a5.623,5.623,0,0,0-5-3.981c-4.327-.29-7.6,3.171-9.682,6.556-2.43,3.96-3.742,8.492-4.837,12.97-1.135,4.642-2.388,9.293-3.14,14.016l.617-1.059q-3.619,4.164-7.518,8.07c-2.184,2.19,1.209,5.585,3.394,3.394q2.711-2.717,5.293-5.558a20.179,20.179,0,0,0,2.6-3,10.9,10.9,0,0,0,.719-3.207c.871-4.314,1.941-8.61,3.035-12.873,1.071-4.174,2.389-8.612,5.145-12.023a5.737,5.737,0,0,1,4.009-2.5c.391-.028.216-.038.36.068a.955.955,0,0,1,.425.6c.232.868-.341,2.109-.552,2.963-.536,2.17-1.239,4.307-1.731,6.485-.517,2.289-.236,4.626-.333,6.946-.128,3.089,4.672,3.083,4.8,0Z"/><path class="b" d="M449.419,78.906c.967-.718,2.251-1.633,3.429-1.355a1.705,1.705,0,0,1,1.367,2.136c-.217,1.623-1.607,3.12-2.691,4.252s-2.25,2.16-3.4,3.2a169.571,169.571,0,0,1-15.772,12.766,2.464,2.464,0,0,0-.861,3.284,2.419,2.419,0,0,0,3.283.861,180.615,180.615,0,0,0,15.513-12.419,42.089,42.089,0,0,0,6.83-6.977c2.051-2.905,2.949-7.325.064-10.057-2.971-2.812-7.137-2.095-10.179.163a2.473,2.473,0,0,0-.861,3.284,2.418,2.418,0,0,0,3.283.861Z"/><path class="b" d="M425.293,86.5q5.6-4.863,11.132-9.793,2.775-2.472,5.537-4.958c1.5-1.348,3.009-3.16,4.878-4a2.349,2.349,0,0,1,3.3,1.049c.622,1.5-.647,3.157-1.617,4.187-2.836,3.009-6.061,5.72-9.163,8.448q-5.465,4.806-11.113,9.4a2.416,2.416,0,0,0,0,3.394,2.456,2.456,0,0,0,3.394,0q5.736-4.649,11.271-9.538,2.809-2.474,5.562-5.014a35.2,35.2,0,0,0,4.843-5,8.215,8.215,0,0,0,1.464-7.123,6.944,6.944,0,0,0-5.3-4.755,8.894,8.894,0,0,0-7.152,2.213c-2.149,1.7-4.122,3.666-6.165,5.5q-7.088,6.351-14.269,12.6c-2.336,2.029,1.071,5.412,3.394,3.394Z"/><path class="b" d="M412.842,83.072c5.047-4.671,10.369-9.042,15.542-13.571,2.337-2.046,4.7-4.924,7.695-5.977,1.333-.47,2.632-.271,3.181,1.14.451,1.159-.192,2.559-.8,3.618-1.551,2.678,2.6,5.1,4.144,2.422,1.766-3.051,2.318-6.682.062-9.635-2.713-3.552-7.373-2.89-10.776-.783-2.625,1.625-4.834,4.019-7.153,6.045-2.525,2.207-5.073,4.388-7.613,6.579-2.581,2.228-5.17,4.452-7.672,6.768-2.272,2.1,1.128,5.491,3.394,3.394Z"/><path class="b" d="M418.478,86.343c5.254,5.039,9.257,11.113,13.223,17.17a2.454,2.454,0,0,0,3.284.861,2.424,2.424,0,0,0,.861-3.283c-4.181-6.385-8.437-12.832-13.974-18.142a2.4,2.4,0,0,0-3.394,3.394Z"/><path class="a" d="M49.526,127.55l.34.4c6.079-7.389,12.648-14.833,19.327-21.926-.794-.872-1.583-1.748-2.355-2.639-.567-3.661-1.826-8.515-2.679-12.1-1.149-4.822-2.33-9.727-4.86-13.989-1.866-3.141-4.56-6.167-8.177-5.652a3.239,3.239,0,0,0-1.691,1.044,3.558,3.558,0,0,0-.716,3.033c.785,3.5,1.326,5.315,2.19,8.5l-3.061-2.841C43,76.881,33.109,68.687,28.266,64.192A14.468,14.468,0,0,0,24.281,61.5a5.447,5.447,0,0,0-4.9-.042,4.895,4.895,0,0,0-2.146,4.8,13.345,13.345,0,0,0,1.227,3.236l.456.727q-1.457-1.311-2.87-2.592c-1.861-1.688-3.706-2.905-6.1-2.49A4.573,4.573,0,0,0,6.3,69.89a8.651,8.651,0,0,0,3.029,5.365c.774.751,1.611,1.545,2.5,2.369a12.7,12.7,0,0,0-4.14-2.391A4.436,4.436,0,0,0,2.78,77.271a5.478,5.478,0,0,0,.357,4.9,18.277,18.277,0,0,0,3.24,4.075c1.705,1.637,3.876,3.589,6.231,5.609a11.72,11.72,0,0,0-4.775-1.389c-2.112-.083-3.479.953-3.872,2.174a5.382,5.382,0,0,0,.786,4.928,36.311,36.311,0,0,0,5.3,5.508,88.132,88.132,0,0,0,10.32,7.575c7.792,4.813,12.257,7.559,20.371,9.471C41.807,120.372,48.651,126.529,49.526,127.55Z"/><path class="b" d="M53.688,91.044a58.863,58.863,0,0,0-.188-6.131A55.425,55.425,0,0,0,52,79.069q-.4-1.534-.759-3.08c-.152-.656-.406-1.3.125-1.857.2-.213.143-.169.5-.147a4.164,4.164,0,0,1,.92.123,5.036,5.036,0,0,1,2.076,1.286c3.09,2.944,4.586,7.42,5.7,11.422,1.194,4.273,2.2,8.632,3.15,12.966.255,1.167.5,2.338.7,3.515.247,1.448,1.209,2.337,2.159,3.4q2.954,3.314,6.094,6.45c2.184,2.19,5.579-1.2,3.394-3.394q-3.9-3.906-7.518-8.07l.617,1.059c-.661-4.153-1.754-8.226-2.73-12.312-1.079-4.52-2.231-9.07-4.412-13.206-1.829-3.469-4.668-7.268-8.8-7.918a5.754,5.754,0,0,0-5.847,2.167c-1.534,2.17-1.085,4.424-.5,6.829.525,2.174,1.147,4.32,1.719,6.481.541,2.041.229,4.17.316,6.259.128,3.078,4.929,3.094,4.8,0Z"/><path class="b" d="M12.218,89.062c-2.639-1.073-5.921-1.587-8.425.1-2.376,1.6-3,4.837-2.152,7.459.908,2.8,3.239,4.924,5.328,6.875a66.886,66.886,0,0,0,7,5.7,119.18,119.18,0,0,0,14.441,8.936,50.815,50.815,0,0,0,6.992,2.97c1.272.428,2.562.8,3.863,1.126a7.626,7.626,0,0,0,.841.2c.056-.067-.361-.269-.307-.127.044.114.525.332.647.418.154.108.3.221.453.334-.349-.263.105.082.2.162q.537.431,1.064.872,1.208,1.011,2.382,2.061a37.509,37.509,0,0,1,3.285,3.092c2.048,2.321,5.432-1.085,3.394-3.394a52.491,52.491,0,0,0-6.164-5.565,17.01,17.01,0,0,0-2.972-2.19,17.466,17.466,0,0,0-3.159-.924q-1.771-.5-3.5-1.137a70.465,70.465,0,0,1-12.254-6.476,79.553,79.553,0,0,1-12.638-9.3c-1.574-1.463-4.629-3.7-4.454-6.148a1.442,1.442,0,0,1,.3-.965c-.165.151.458-.186.56-.214,1.28-.354,2.835.284,4,.757A2.416,2.416,0,0,0,13.9,92.014a2.46,2.46,0,0,0-1.677-2.952Z"/><path class="b" d="M11.992,74.761c-2.657-1.972-6.076-2.84-9.055-1.018C-.422,75.8-.686,80.156,1.065,83.382c1.593,2.936,4.226,5.193,6.678,7.392q3.729,3.346,7.626,6.5c2.881,2.344,5.812,4.636,8.85,6.775a2.421,2.421,0,0,0,3.284-.861,2.452,2.452,0,0,0-.861-3.284A169.432,169.432,0,0,1,10.869,87.139c-1.155-1.04-2.328-2.079-3.4-3.2s-2.488-2.633-2.692-4.252A1.708,1.708,0,0,1,6.14,77.551c1.183-.279,2.464.638,3.429,1.355a2.417,2.417,0,0,0,3.284-.861,2.457,2.457,0,0,0-.861-3.284Z"/><path class="b" d="M37.089,83.1q-6.391-5.555-12.7-11.2-3.165-2.826-6.311-5.675c-1.913-1.727-3.953-3.3-6.607-3.54a6.944,6.944,0,0,0-6.4,3.067,7.431,7.431,0,0,0-.289,7.413c1,2.143,2.814,3.762,4.506,5.358q2.652,2.5,5.381,4.914,6.217,5.534,12.679,10.784a2.473,2.473,0,0,0,3.395,0,2.419,2.419,0,0,0,0-3.394c-6.561-5.316-13-10.836-19.094-16.681-1.249-1.2-2.814-2.586-2.948-4.435a2.166,2.166,0,0,1,2.4-2.255c1.837.181,3.3,1.907,4.58,3.067Q18.414,73,21.164,75.455,27.394,81.017,33.7,86.5c2.322,2.017,5.731-1.364,3.394-3.394Z"/><path class="b" d="M49.541,79.678C44.875,75.36,39.969,71.3,35.172,67.131c-2.3-2-4.495-4.233-6.938-6.066-3.07-2.3-7.643-3.858-10.93-1.048s-2.91,7.242-.916,10.687c1.547,2.673,5.7.259,4.145-2.422-.61-1.053-1.267-2.462-.8-3.618.562-1.406,1.838-1.614,3.181-1.14,2.993,1.054,5.357,3.93,7.7,5.977,5.174,4.529,10.5,8.9,15.542,13.571,2.265,2.1,5.667-1.29,3.395-3.394Z"/><path class="b" d="M37.116,82.949c-5.537,5.31-9.793,11.757-13.974,18.142a2.4,2.4,0,0,0,4.145,2.422c3.967-6.057,7.97-12.131,13.224-17.17a2.4,2.4,0,1,0-3.4-3.394Z"/><path class="c" d="M171.217,109.211c-.924-27.819,6.395-47.994,17.931-59.038,6.954-6.658,22.626-15.728,40.233-15.728a63.912,63.912,0,0,1,25.558,4.9l7.862,3.974c3.406,2.007,4.621,3.728,8.127,7.11,8.8,8.494,14.922,23.775,15.9,37.459.282,3.948.928,14.219.306,21.328.312,23.492,4.643,36.64,6.879,43.112a43,43,0,0,1,2.714,14.716c.08,8.793-10.848,20.179-23.411,15.673l-89.659,2.151c-11.506.278-18.993-8.19-18.929-16a91.36,91.36,0,0,1,2.784-19.473c2.164-7.732,3.711-21.329,3.711-40.183"/><path class="b" d="M284.73,109.211c.181,12.5,1.441,25.112,4.869,37.164,1.244,4.374,3,8.611,3.944,13.066a35.378,35.378,0,0,1,.7,5.146,19.078,19.078,0,0,1-.06,4.19,14.51,14.51,0,0,1-3.063,6.4c-4.207,5.2-10.78,7.439-17.166,5.224-2.925-1.014-4.182,3.621-1.276,4.629a19.673,19.673,0,0,0,19.032-3.667,19.448,19.448,0,0,0,7.378-15.9,45.783,45.783,0,0,0-2.116-11.821c-.6-1.9-1.282-3.773-1.88-5.673a110.758,110.758,0,0,1-3.355-13.723,154.408,154.408,0,0,1-2.2-25.033c-.045-3.086-4.845-3.095-4.8,0Z"/><path class="b" d="M168.819,109.211c-.009,12.3-.249,25.006-2.99,37.026-.537,2.354-1.216,4.666-1.684,7.037-.657,3.335-1.144,6.71-1.482,10.092a30.844,30.844,0,0,0-.053,8.464,16.818,16.818,0,0,0,3.014,6.874,21.655,21.655,0,0,0,18.029,8.559c3.086-.047,3.095-4.847,0-4.8-5.252.081-10.5-1.856-13.794-6.061a12.744,12.744,0,0,1-2.645-5.985,18.046,18.046,0,0,1-.058-2.8c.059-1.548.186-3.093.346-4.633.314-3.013.775-6.014,1.381-8.983.454-2.224,1.1-4.395,1.6-6.607a114.962,114.962,0,0,0,2.159-14.636c.733-7.825.97-15.693.976-23.549,0-3.089-4.8-3.094-4.8,0Z"/><path class="d" d="M166.829,313.753c0-22.781-1.137-57.7-1.363-63.361-.2-4.964-.775-11.5-4.444-15.943a147.648,147.648,0,0,0-11.729-12.574c-28.125-24-89.2-73.386-102.576-90.054,7.431-9.271,15.748-18.754,24.186-27.614a1.025,1.025,0,0,1,1.326-.109c17.566,13.275,71.672,55.554,85.332,63.891,4.671,2.85,20.79,8.743,24.8,9.832,6.3,1.709,14.752,3.969,11.736,3.351,4.713,9.241,19.832,18.841,35.43,18.976,18.153.157,30.726-10.967,35.709-17.671,0,0,.143-.193.342-.456l1.129-1.488c2.5-.71,6.523-1.791,9.916-2.712,4.012-1.089,20.132-6.982,24.8-9.832,13.66-8.337,67.766-50.616,85.333-63.891a1.025,1.025,0,0,1,1.326.109c8.438,8.86,16.755,18.343,24.185,27.614C398.9,148.489,337.82,197.875,309.7,221.875a147.634,147.634,0,0,0-11.728,12.574c-3.67,4.444-4.249,10.979-4.445,15.943-.226,5.661-1.363,40.58-1.363,63.361Z"/><path class="b" d="M411.159,129.247a52.659,52.659,0,0,1,6.912-6.168c.066-.053.376-.285.023-.019.15-.113.3-.226.453-.334a4.651,4.651,0,0,0,.549-.362c.19-.183.429.032-.272.09a3.5,3.5,0,0,0,.487-.12c.808-.2,1.614-.41,2.413-.643a49.869,49.869,0,0,0,7.224-2.752,105.056,105.056,0,0,0,14.276-8.49,67.73,67.73,0,0,0,7.105-5.4,33.824,33.824,0,0,0,5.984-6.273c1.7-2.592,2.108-6.631-.3-8.962-2.489-2.412-6.3-1.954-9.245-.755a2.475,2.475,0,0,0-1.676,2.952,2.415,2.415,0,0,0,2.952,1.677,8.133,8.133,0,0,1,3.522-.828,2.01,2.01,0,0,1,.954.275c.173.109.168.1.245.324.737,2.124-1.468,4.049-2.809,5.369a77.953,77.953,0,0,1-12.391,9.641,80.287,80.287,0,0,1-12.461,6.961,46.246,46.246,0,0,1-6.654,2.169,9.2,9.2,0,0,0-3.688,2.014,52.967,52.967,0,0,0-7,6.237c-2.037,2.308,1.346,5.716,3.394,3.394Z"/><path class="b" d="M294.559,313.753c0-17.393.461-34.789.99-52.172.163-5.344.04-10.861.749-16.168a22.816,22.816,0,0,1,1.723-6.52,24.159,24.159,0,0,1,4.095-5.629,101.61,101.61,0,0,1,10.365-10.619c11.405-9.706,22.944-19.255,34.424-28.872C359.761,183,372.594,172.2,385.2,161.131c9.257-8.13,18.794-16.271,26.986-25.506.611-.689,1.21-1.39,1.787-2.107a2.5,2.5,0,0,0,0-3.394q-9.092-11.331-18.948-22.018c-1.666-1.811-3.29-3.726-5.073-5.423a3.624,3.624,0,0,0-5.054-.161q-2.329,1.764-4.65,3.541-13.362,10.215-26.684,20.482c-10.059,7.709-20.132,15.4-30.29,22.976-7.227,5.39-14.435,10.918-22.044,15.765-4.167,2.654-8.8,4.327-13.382,6.079a171.068,171.068,0,0,1-16.476,5.393c-1.846.5-3.692,1-5.534,1.519-2.97.833-1.708,5.466,1.276,4.628,5.84-1.638,11.668-3.123,17.376-5.186a143.2,143.2,0,0,0,16.683-6.846,71.827,71.827,0,0,0,8.257-5.349c3.93-2.756,7.805-5.59,11.665-8.442,9.9-7.315,19.7-14.773,29.48-22.25q13.935-10.654,27.832-21.359,2.711-2.079,5.424-4.152l2.3-1.754q.525-.4,1.051-.8a4.811,4.811,0,0,0,.467-.354c.045-.043.168-.092.195-.147q.461-.293-.5-.058-.962-.18-.462.213c.1.357.87.919,1.149,1.215q.656.7,1.31,1.4,1.311,1.4,2.61,2.819,2.442,2.661,4.84,5.359,4.761,5.358,9.345,10.869,2.242,2.7,4.438,5.436v-3.394a113.411,113.411,0,0,1-9.749,10.272c-4.915,4.745-9.984,9.332-15.091,13.868-12.483,11.087-25.241,21.862-38.027,32.6-11.946,10.028-23.959,19.976-35.864,30.052a110.639,110.639,0,0,0-8.908,8.334c-3.556,3.751-7.622,7.646-9.61,12.5-2.437,5.944-2.219,12.674-2.424,19-.549,16.9-.99,33.818-1.117,50.732q-.022,3.138-.025,6.275c0,3.089,4.8,3.094,4.8,0Z"/><path class="b" d="M169.229,313.753c0-17.528-.466-35.06-1-52.579-.17-5.564-.1-11.251-.871-16.772a27.728,27.728,0,0,0-1.934-7.232,23.944,23.944,0,0,0-4.083-6.06,104.828,104.828,0,0,0-10.708-11.238c-11.342-9.83-23-19.311-34.5-28.947-12.995-10.884-25.968-21.8-38.707-32.981-5.393-4.734-10.749-9.515-15.98-14.428-3.867-3.631-7.719-7.314-11.241-11.285q-.918-1.034-1.788-2.107v3.394q8.792-10.954,18.3-21.309,2.43-2.654,4.9-5.266c.106-.112.453-.375.493-.52l.164-.173-1.254-.08c-.007.018.488.37.522.395l1.033.784q2.353,1.787,4.7,3.584,13.008,9.954,25.985,19.948c9.708,7.439,19.431,14.861,29.23,22.18,7.2,5.377,14.389,10.834,21.91,15.759a66.828,66.828,0,0,0,11.915,5.779c4.9,1.971,9.884,3.93,14.964,5.408,1.708.5,3.435.937,5.153,1.4,2.985.81,4.259-3.819,1.276-4.628-5.484-1.487-10.8-3.223-16.113-5.245-4.6-1.752-9.3-3.4-13.5-6.04-7.263-4.57-14.124-9.834-21-14.952-9.908-7.371-19.729-14.86-29.534-22.368q-13.41-10.267-26.795-20.568-2.445-1.872-4.894-3.738c-.7-.534-1.394-1.081-2.106-1.6a3.586,3.586,0,0,0-2.217-.753c-1.388.021-2.271.915-3.163,1.857q-9.8,10.349-18.926,21.313-2.242,2.7-4.438,5.436a2.5,2.5,0,0,0,0,3.394,112.892,112.892,0,0,0,9.664,10.191c4.833,4.669,9.816,9.183,14.837,13.648,12.419,11.042,25.115,21.77,37.84,32.455,11.889,9.983,23.844,19.888,35.7,29.91,2.907,2.458,5.737,4.924,8.393,7.661q2.856,2.944,5.555,6.037a22.21,22.21,0,0,1,4.117,5.821c2.31,5.485,1.979,11.868,2.169,17.728.544,16.83.983,33.67,1.109,50.509q.024,3.138.025,6.275c0,3.089,4.8,3.094,4.8,0Z"/><path class="b" d="M255.577,37.026a68.18,68.18,0,0,0-28.4-4.934,64.871,64.871,0,0,0-28.6,8.388,50.715,50.715,0,0,0-16.53,14.257,64.629,64.629,0,0,0-9.786,21.214,112.835,112.835,0,0,0-3.437,33.26c.1,3.081,4.9,3.095,4.8,0-.533-16.855,1.533-35.061,10.853-49.554A43.624,43.624,0,0,1,198.3,46.215a61,61,0,0,1,25.392-9.061,63.672,63.672,0,0,1,30.612,4.5,2.416,2.416,0,0,0,2.952-1.676,2.458,2.458,0,0,0-1.676-2.952Z"/><path class="b" d="M289.53,109.211a116.345,116.345,0,0,0,.067-14.985,102.579,102.579,0,0,0-1.243-13.258,63.952,63.952,0,0,0-12.5-28.682,79.79,79.79,0,0,0-5.757-6.077,31.13,31.13,0,0,0-6.084-4.968c-2.656-1.591-5.072,2.557-2.422,4.145a24.237,24.237,0,0,1,4.733,3.835c1.71,1.717,3.5,3.375,5.091,5.205a49.827,49.827,0,0,1,7.521,12.145,65.611,65.611,0,0,1,4.53,14.288,83.655,83.655,0,0,1,1.274,12.162,120.649,120.649,0,0,1-.009,16.19,2.419,2.419,0,0,0,2.4,2.4,2.449,2.449,0,0,0,2.4-2.4Z"/><path class="a" d="M272.043,104.907c-6.857-3.976-14.146-13.82-16.7-18.607-2.045-3.834-4.37-11.716-6.018-18.046-8.4,10.93-19.067,18.679-32.318,22.464-3.149.936-.181-9.053.377-13.772-10.3,10.121-21.789,20.934-31.76,28.343a7.025,7.025,0,0,0-5.106-1.884,6.523,6.523,0,0,0-5.86,3.256c-1.991,3.453-1.907,9.817-.571,13.754.947,2.788,2.5,7.054,6.236,10.112a7.628,7.628,0,0,0,6.31,1.653,52.811,52.811,0,0,0,9.827,18.229c4.82,5.769,10.413,10.238,16.491,12.586-.853,3.766-1.841,8.5-2.611,10.125-1.943,4.117-7.911,7.422-15.882,8.747,5.109,9.021,19.862,18.15,35.07,18.281,18.153.157,30.726-10.967,35.709-17.671,0,0,.2-.265.452-.6-8-1.318-14-4.629-15.959-8.758-.793-1.683-1.659-6.689-2.645-10.629,12.172-3.783,22.253-20.964,23.925-25.5.3-.907,1.183-2.743,1.891-4.807l.412.069a7.744,7.744,0,0,0,5.975-1.725c3.738-3.058,5.289-7.324,6.236-10.112,1.336-3.937,1.42-10.3-.571-13.754a6.523,6.523,0,0,0-5.86-3.256,6.9,6.9,0,0,0-5.492,2.3A16.387,16.387,0,0,1,272.043,104.907Z"/><path class="b" d="M247.151,69.438c1.726,6.532,3.4,13.581,6.893,19.434a62,62,0,0,0,11.621,14.241,24.587,24.587,0,0,0,8.713,5.445c2.95.939,4.213-3.694,1.276-4.629-4.918-1.565-9.265-6.508-12.566-10.548a43.829,43.829,0,0,1-7.73-13.249c-1.381-3.929-2.514-7.945-3.578-11.97-.788-2.984-5.42-1.718-4.629,1.276Z"/><path class="b" d="M247.587,66.611A63.64,63.64,0,0,1,230.39,82.3a56.35,56.35,0,0,1-10.611,5.019q-1.311.458-2.642.856a5.323,5.323,0,0,0-.767.225c-.206.1-.332-.106.229-.025a1.581,1.581,0,0,1,.8.276c.046.027.77.726.55.429.263.354.067.3.037-.057-.027-.332.03.463.019.1,0-.136-.015-.272-.017-.407a14.318,14.318,0,0,1,.1-1.8c.329-3.058,1.29-6.66,1.7-9.968.269-2.166-2.743-3.025-4.1-1.7-8.391,8.238-16.912,16.386-26.01,23.847a2.417,2.417,0,0,0,0,3.394,2.455,2.455,0,0,0,3.394,0c9.1-7.461,17.619-15.608,26.011-23.847l-4.1-1.7a5.343,5.343,0,0,0-.088.577c-.066.409-.139.817-.214,1.225-.154.84-.32,1.679-.482,2.518-.345,1.785-.672,3.573-.885,5.38-.327,2.768.1,7.194,4.048,6.443a34.029,34.029,0,0,0,5.9-1.957,65.3,65.3,0,0,0,6.21-2.806,62.69,62.69,0,0,0,11.133-7.467,68.941,68.941,0,0,0,10.376-10.854,2.481,2.481,0,0,0,0-3.394,2.416,2.416,0,0,0-3.4,0Z"/><path class="b" d="M271.408,128.487a22.328,22.328,0,0,1-1.688,5.336c-.28.685-.583,1.361-.848,2.051-.074.194-.145.389-.215.585-.162.447-.095.231-.031.091a50.716,50.716,0,0,1-3.009,5.568,55.15,55.15,0,0,1-11.819,13.92,21.74,21.74,0,0,1-8.733,4.507c-3.008.7-1.735,5.325,1.276,4.629,6.82-1.579,12.493-6.567,16.936-11.752a60.49,60.49,0,0,0,9.372-14.177,39.489,39.489,0,0,0,3.559-10.758,2.411,2.411,0,0,0-2.4-2.4,2.461,2.461,0,0,0-2.4,2.4Z"/><path class="b" d="M183.277,128.949c3.194,13.741,11.821,27.1,24.279,34.131a31.429,31.429,0,0,0,10.756,3.809,2.479,2.479,0,0,0,2.953-1.676,2.419,2.419,0,0,0-1.677-2.953c-8.308-1.238-15.179-6.373-20.592-12.567a50.953,50.953,0,0,1-11.09-22.02c-.7-3.007-5.329-1.734-4.629,1.276Z"/><path class="b" d="M187.3,103.568a10.043,10.043,0,0,0-11.167-1.5,9.8,9.8,0,0,0-4.846,6.762,25.3,25.3,0,0,0,3.829,19.449c2.766,4.072,6.709,6.979,11.823,6.291a2.414,2.414,0,0,0,1.676-2.952,2.464,2.464,0,0,0-2.952-1.676c-3.446.463-6.123-3.32-7.512-5.934a21.5,21.5,0,0,1-2.559-8.259c-.214-2.759-.175-6.174,1.534-8.48-.306.413.142-.143.183-.181.092-.085.614-.529.49-.442a4.555,4.555,0,0,1,1.767-.731,4.955,4.955,0,0,1,4.34,1.051c2.29,2.064,5.695-1.32,3.394-3.394Z"/><path class="b" d="M275.709,106.962a4.952,4.952,0,0,1,4.34-1.051,4.568,4.568,0,0,1,1.767.731c-.124-.087.4.357.49.442s.486.589.183.181c1.711,2.3,1.748,5.722,1.534,8.48A21.458,21.458,0,0,1,281.464,124c-1.391,2.613-4.064,6.4-7.512,5.934A2.483,2.483,0,0,0,271,131.614a2.416,2.416,0,0,0,1.676,2.952c8.252,1.111,13.023-6.854,15.211-13.659a23.736,23.736,0,0,0,.7-10.716,10.968,10.968,0,0,0-4.128-7.537,9.95,9.95,0,0,0-12.146.914c-2.3,2.073,1.1,5.458,3.394,3.394Z"/><path class="b" d="M263.508,180.81c-.154.2-.306.41-.461.613-.405.534.307-.379-.125.162-.226.282-.454.563-.687.839q-.924,1.1-1.926,2.124a45.4,45.4,0,0,1-4.516,4.074,43.384,43.384,0,0,1-12.435,6.839,41.889,41.889,0,0,1-34.41-3.455c-4.847-2.738-9.538-6.4-12.375-11.279-1.553-2.669-5.7-.255-4.145,2.423,2.856,4.908,7.327,8.785,12.08,11.794a48.973,48.973,0,0,0,18.473,7.028,46.213,46.213,0,0,0,34.274-8.479,49.5,49.5,0,0,0,10.4-10.26,2.415,2.415,0,0,0-.861-3.284,2.458,2.458,0,0,0-3.283.861Z"/><path class="b" d="M195.139,184.174c5.093-.871,10.336-2.6,14.289-6.049a12.2,12.2,0,0,0,3.482-4.99,62.247,62.247,0,0,0,1.985-7.847,2.452,2.452,0,0,0-1.676-2.952,2.426,2.426,0,0,0-2.952,1.676c-.557,2.493-1.048,5.036-1.853,7.464-.063.187-.133.371-.2.557-.179.513.232-.408-.027.04-.221.381-.436.752-.675,1.122-.271.417.265-.28-.1.134-.133.151-.261.306-.4.454a12.913,12.913,0,0,1-.981.948c-.057.05-.528.441-.351.3.153-.122-.409.3-.486.353-.389.272-.79.528-1.2.77-.467.276-.946.533-1.432.775-.466.231-.974.462-1.24.571a35.78,35.78,0,0,1-7.463,2.045,2.419,2.419,0,0,0-1.676,2.952,2.454,2.454,0,0,0,2.952,1.676Z"/><path class="b" d="M245.257,165.178a71.438,71.438,0,0,0,1.91,7.952,11.921,11.921,0,0,0,3.484,5c3.956,3.446,9.2,5.177,14.292,6.049A2.469,2.469,0,0,0,267.9,182.5a2.419,2.419,0,0,0-1.676-2.952,35.564,35.564,0,0,1-7.463-2.045c-.28-.115-.675-.294-1.126-.514-.526-.258-1.043-.534-1.547-.832q-.615-.363-1.2-.77c-.187-.13-.374-.263-.554-.4.36.28-.218-.193-.284-.251a12.94,12.94,0,0,1-.983-.948c-.137-.148-.265-.3-.4-.454-.417-.471.235.382-.1-.134-.224-.343-.428-.688-.636-1.041-.332-.562.081.338-.068-.124-.06-.188-.13-.373-.189-.561-.776-2.467-1.215-5.048-1.784-7.567a2.4,2.4,0,0,0-4.628,1.276Z"/><path class="b" d="M228.983,121.727a40.564,40.564,0,0,1,.955,4.37l-.085-.638a2.653,2.653,0,0,1,.016.6l.086-.638a1.431,1.431,0,0,1-.067.271l.242-.573a1.126,1.126,0,0,1-.095.174l.375-.486a.908.908,0,0,1-.143.141l.486-.375a2.859,2.859,0,0,1-.346.183l.573-.242a2.468,2.468,0,0,1-.583.17l.638-.085a2.391,2.391,0,0,1-.548,0l.638.085c-.207-.028-.409-.079-.616-.107a1.812,1.812,0,0,0-.957-.042,1.783,1.783,0,0,0-.892.284,2.4,2.4,0,0,0-.861,3.284,2.3,2.3,0,0,0,1.434,1.1c.484.065.954.188,1.447.21a4.656,4.656,0,0,0,2.149-.514,3.138,3.138,0,0,0,1.729-2.064,5.114,5.114,0,0,0-.021-2.206c-.238-1.408-.563-2.8-.925-4.184a2.4,2.4,0,0,0-2.953-1.677,2.447,2.447,0,0,0-1.676,2.953Z"/><path class="b" d="M205.935,109.307c-.73,2.372-.254,7.828,4.239,8.292,5.94-.035,6.256-6.632,4.256-9.733C212.793,105.326,207.98,104.27,205.935,109.307Z"/><path class="b" d="M253.678,109.307c.73,2.372.254,7.828-4.239,8.292-5.939-.035-6.256-6.632-4.256-9.734C246.819,105.326,251.633,104.27,253.678,109.307Z"/><path class="b" d="M227,143.783a17.42,17.42,0,0,1-2.5-3.409,9.23,9.23,0,0,1-.725-1.644,8.327,8.327,0,0,1-.276-1.065c-.112-.644.19-.83-.766.086-.911.873-.889.678-.275.678h1.909l3.24,0,7.092,0,3.115,0h.562c.663,0,.744.222-.195-.7-.827-.81-.652-1.03-.818-.315q-.143.617-.316,1.225a14.807,14.807,0,0,1-4.114,7.092,2.4,2.4,0,0,0,3.4,3.394,19.524,19.524,0,0,0,5.3-9.06c.587-2,1.24-4.537-.907-5.886-1.234-.776-2.867-.552-4.27-.552l-8.722.006-3.967,0c-1.52,0-3.081-.13-4.222,1.1-1.718,1.851-.646,4.9.238,6.9a20.761,20.761,0,0,0,3.826,5.548A2.4,2.4,0,0,0,227,143.783Z"/></svg>