<?xml version="1.0" encoding="utf-8"?>
<!-- Uploaded to: SVG Repo, www.svgrepo.com, Generator: SVG Repo Mixer Tools -->
<svg width="800px" height="800px" viewBox="-16.95 0 361.506 361.506" xmlns="http://www.w3.org/2000/svg"><defs><style>.a{fill:#ffffff;}.b{fill:#7a7473;}.c{fill:#211715;}.d{fill:#65a0d4;}.e{fill:#3f88c9;}</style></defs><path class="a" d="M241.637,89.046a8.012,8.012,0,0,1,6.409-1.875,7.562,7.562,0,0,1,5.437,3.615,10.677,10.677,0,0,1,1.12,4.3,32.043,32.043,0,0,1-3.267,16.985,20.377,20.377,0,0,1-5.266,6.912,13.507,13.507,0,0,1-6.279,2.83l-1.075.166c-.515,1.928-1.094,3.553-1.378,4.415-1.83,4.966-12.073,22.158-24.961,28.412-.032,4.338-.117,9.305,1.395,13.059,2.587,6.384,16.522,14.429,17.482,14.846,0,0-7.57,29.116-43.57,29.116-45.778,0-43.911-30.238-43.911-30.238.96-.417,12.717-7.34,15.3-13.724,1.721-4.26,1.371-10.093,1.4-14.792A49.862,49.862,0,0,1,148.428,142.4a54.5,54.5,0,0,1-10.385-20.27L136,121.814a13.507,13.507,0,0,1-6.279-2.83,20.377,20.377,0,0,1-5.266-6.912,32.043,32.043,0,0,1-3.267-16.985,10.692,10.692,0,0,1,1.119-4.3,7.564,7.564,0,0,1,5.438-3.615,8.012,8.012,0,0,1,6.409,1.875s5.089-47.737,53.978-47.737S241.637,89.046,241.637,89.046Z"/><path class="b" d="M249.844,52.864a43.263,43.263,0,0,0-1.766-5.769c-2.657-6.787-6.727-14.621-14.97-19.145l-9.673-7.273C213.786,4.7,196,1.577,180.836,2.637,162.832,3.9,150,8.731,138.3,22.474c-17.05,20.026-17.527,46.517-11.085,64.8a3.341,3.341,0,0,1,.475-.1,7.949,7.949,0,0,1,6.36,1.861l8.443-9.186c3.53-5.02,13.54-17.463,21.149-18.984,5.44-1.087,11.238.091,16.881-.136,10.23-.411,18.69-5.256,27.763-8.791,1.208-.47,2.427-.918,3.662-1.328a4.978,4.978,0,0,1,2.152-.353,3.821,3.821,0,0,1,2.17,1.256c10.535,10.28,20.428,25.056,22.214,40.469,1.629-1.483,3.251-2.947,3.251-2.947a7.949,7.949,0,0,1,6.36-1.861,5.618,5.618,0,0,1,.707.149C252.32,76.422,252.215,62.9,249.844,52.864Z"/><path class="c" d="M209.974,154.983a49.4,49.4,0,0,0,.737,11.052,15.507,15.507,0,0,0,3.73,7.091c3.311,3.76,7.6,6.749,11.809,9.423a31.953,31.953,0,0,0,3.792,2.236,2.473,2.473,0,0,0,3.284-.861,2.42,2.42,0,0,0-.861-3.284,33.438,33.438,0,0,1-4.1-2.434,65.607,65.607,0,0,1-7.038-5.111c-2.094-1.777-4.248-3.638-5.306-6.043-1.581-3.595-1.273-8.174-1.245-12.069.023-3.089-4.777-3.092-4.8,0Z"/><path class="c" d="M158.075,154.462c.02,3.753.22,7.666-.818,11.314a14.218,14.218,0,0,1-4.351,6.293,48.343,48.343,0,0,1-6.379,5.026,28.656,28.656,0,0,1-3.965,2.423,2.417,2.417,0,0,0-.861,3.283,2.456,2.456,0,0,0,3.283.861,30.428,30.428,0,0,0,4.412-2.725,53.212,53.212,0,0,0,7.364-5.918,18.437,18.437,0,0,0,5.126-7.967c1.155-4.061,1.012-8.412.989-12.59-.016-3.088-4.816-3.095-4.8,0Z"/><path class="c" d="M129.224,85.742c-6.669-20.057-3.726-43.624,9.714-60.291,6.515-8.08,14.761-14.361,24.738-17.446a73.2,73.2,0,0,1,15.585-2.847,70.337,70.337,0,0,1,14.586.15,42.394,42.394,0,0,1,15.246,4.753,33.172,33.172,0,0,1,12.27,11.827c1.608,2.632,5.761.223,4.145-2.423-5.887-9.636-15.474-15.8-26.438-18.113-10.582-2.234-22.013-1.537-32.5.9a54.8,54.8,0,0,0-27.89,16.191A65.3,65.3,0,0,0,122.3,50.709a72.682,72.682,0,0,0,2.3,36.309c.97,2.917,5.607,1.667,4.628-1.276Z"/><path class="c" d="M144.567,81.056A71.99,71.99,0,0,1,157.26,67.04c2.426-2,4.9-3.586,7.931-4.025,4.836-.7,9.771.232,14.627.131,9.338-.2,17.681-4.148,26.124-7.688,2.248-.942,4.521-1.884,6.852-2.6.881-.272,1.117-.276,1.78.352.768.727,1.5,1.493,2.234,2.258a84.95,84.95,0,0,1,8.286,10.092c5.571,8.005,10.007,17.214,11.055,27.012a2.471,2.471,0,0,0,2.4,2.4,2.416,2.416,0,0,0,2.4-2.4A62.251,62.251,0,0,0,231.12,65.96a90.647,90.647,0,0,0-8.72-11.5c-1.455-1.639-2.955-3.265-4.556-4.764-2.092-1.958-4.349-2.143-7-1.246-9.152,3.1-17.717,8.4-27.438,9.643-5.208.666-10.411-.249-15.629-.077a19.742,19.742,0,0,0-10.982,3.41c-6.507,4.441-11.863,10.814-16.378,17.21a2.421,2.421,0,0,0,.861,3.284,2.452,2.452,0,0,0,3.284-.861Z"/><path class="c" d="M231.9,30.022c6.633,3.706,10.79,10.064,13.573,16.97,2.972,7.375,3.869,15.5,3.648,23.4a60.652,60.652,0,0,1-2.132,14.65c-.833,2.979,3.8,4.251,4.628,1.276a70.031,70.031,0,0,0,1.63-28.123A51.987,51.987,0,0,0,245.067,35.9a31.965,31.965,0,0,0-10.748-10.026c-2.7-1.509-5.123,2.636-2.423,4.144Z"/><path class="a" d="M111.4,359.144c.05-1.35.09-2.54.14-3.53-.3-17.548-1.023-41.31-2.085-65.584l-.505.66-1.664,2.174c-4.538,5.73-14.012,16.924-20.062,22.218-6.032,5.276-15.468,8.509-23.41,7.242-12.366-2-17.774-13.765-22.823-25.243-7.261-16.508-12.423-34.263-17.585-50.752,10.343-2.25,26.813-9.8,37.156-15.24,4.086,10.048,7.689,19,11.81,28.653C79.791,240.514,81.7,230,88.979,210.989c1.351-3.528,2.364-6.7,4.942-9.466,2.42-2.594,5.622-4.213,8.855-5.674,9.935-4.49,33.736-13.6,45.779-19a42.257,42.257,0,0,1,9.65-14.226,80.406,80.406,0,0,0,23.2,16.171c.48.218,1.016.485,1.171.989a1.861,1.861,0,0,1-.269,1.31,15.808,15.808,0,0,1-1.271,1.8l10.5-.013a15.648,15.648,0,0,1-1.265-1.785,1.865,1.865,0,0,1-.268-1.31c.155-.5.691-.771,1.171-.989a80.406,80.406,0,0,0,23.2-16.171,41.591,41.591,0,0,1,9.239,13.3c10.562,4.228,37.5,14.587,47.647,19.49,3.26,1.575,6.833,2.989,9.3,5.636,2.631,2.819,4.157,6.609,5.536,10.209,7.334,19.151,10.415,37.958,14.415,58.847H268.283c-1.237,30.618-2.382,64.383-2.855,87.659-.01.47-.01.93-.02,1.38Z"/><path class="d" d="M190.1,357.339a208.8,208.8,0,0,0,14.765-18.185c1.352-1.969,2.507-3.032,2.635-4.507a34.582,34.582,0,0,0-.335-5.757c-2.813-31.609-6.984-81.021-12.356-127.138a20.1,20.1,0,0,1,1.248-5.5c.774-2.376,2.392-7.827,1.54-5.888-.865-1.047-1.719-2.086-2.523-3.069-1.406-1.721-2.657-3.274-3.535-4.413l-10.5.013c-.877,1.138-2.124,2.686-3.525,4.4-.562.687-1.148,1.4-1.745,2.126.456,2.447,1.335,5.051,1.909,7.509.1.488.226.957.348,1.445a13.378,13.378,0,0,1,.522,3.2c-3.9,42.464-8.917,94.952-12.424,131.273a8.208,8.208,0,0,0,.321,4.117,19.333,19.333,0,0,0,2.128,3.25,148.513,148.513,0,0,0,14.6,17.284,5.926,5.926,0,0,0,3.267,1.7,5,5,0,0,0,3.58-1.775Z"/><path class="c" d="M179.287,203.827c5.012,0,10.024-.111,15.036-.113a2.4,2.4,0,0,0,0-4.8c-5.012,0-10.024.111-15.036.113a2.4,2.4,0,0,0,0,4.8Z"/><path class="c" d="M173.493,190.277c.636,3.091,1.6,6.112,2.329,9.183.658,2.774-.014,5.807-.274,8.618q-.815,8.826-1.639,17.652-1.706,18.3-3.44,36.59-3.225,34.053-6.511,68.1c-.284,2.938-.74,5.809.795,8.5a66.719,66.719,0,0,0,5.761,7.83q3,3.816,6.254,7.429,1.536,1.707,3.12,3.37a15.173,15.173,0,0,0,3.568,3.127,6.632,6.632,0,0,0,8.263-1.558c1.962-2.079,3.794-4.307,5.64-6.489,3.821-4.517,7.318-9.229,10.831-13.981a8.09,8.09,0,0,0,1.583-3.075,13.237,13.237,0,0,0,.066-3.813c-.216-2.477-.462-4.951-.681-7.427q-.661-7.47-1.319-14.94-1.512-17.118-3.085-34.23-1.771-19.1-3.711-38.188-.993-9.7-2.051-19.4-.535-4.9-1.092-9.8-.278-2.437-.559-4.875a10.87,10.87,0,0,1,.593-4.67c.7-2.294,1.481-4.562,2.075-6.888.765-2.994-3.863-4.272-4.628-1.276-.595,2.326-1.376,4.594-2.076,6.888a16.026,16.026,0,0,0-.9,4.789c.028,1.527.362,3.119.535,4.637q1.093,9.568,2.108,19.144,2.011,18.918,3.8,37.859c2.058,21.611,3.935,43.238,5.857,64.861.114,1.286.263,2.57.363,3.857a6.747,6.747,0,0,1-.083,2.712,19.483,19.483,0,0,1-2.061,2.93c-.787,1.119-1.574,2.235-2.394,3.33-3.421,4.571-7.152,8.916-10.925,13.2-.7.792-1.509,2.115-2.586,2.428-.867.251-1.7-.465-2.307-1.07-2.217-2.218-4.326-4.556-6.38-6.925s-4.017-4.774-5.892-7.267c-.87-1.157-1.724-2.328-2.573-3.5a5.6,5.6,0,0,1-1.44-3.843c.187-4.982.94-10,1.418-14.968q.771-8.024,1.54-16.048,1.661-17.328,3.305-34.658,1.7-17.9,3.376-35.809.817-8.744,1.629-17.486.384-4.143.767-8.285.188-2.033.374-4.065a14.825,14.825,0,0,0-.5-5.048c-.72-2.913-1.613-5.8-2.218-8.734-.622-3.024-5.25-1.744-4.628,1.276Z"/><path class="c" d="M191.551,180.48l-10.474.013a2.4,2.4,0,0,0,0,4.8l10.474-.013a2.4,2.4,0,0,0,0-4.8Z"/><path class="c" d="M206.326,200.581c5.691-5.7,10.1-12.46,14.266-19.312,1-1.655,2-3.317,3.007-4.971.626-1.029,1.536-2.093,1.18-3.385a12.74,12.74,0,0,0-1.439-2.747,40.743,40.743,0,0,0-7.264-9.238,2.441,2.441,0,0,0-3.394,0,77.642,77.642,0,0,1-19.528,14.25c-1.566.806-3.832,1.4-4.9,2.877a4.1,4.1,0,0,0,.288,4.795c2.041,2.986,4.491,5.736,6.789,8.523,2.532,3.071,5.09,6.121,7.6,9.208a2.415,2.415,0,0,0,3.394,0,2.455,2.455,0,0,0,0-3.394c-2.555-3.142-5.159-6.245-7.735-9.371-1.464-1.776-2.926-3.555-4.358-5.357-.46-.58-1.916-2-1.83-2.674L192.076,181c-.111.227-.413.193.018.011.288-.122.569-.264.853-.4q.754-.351,1.5-.719,1.62-.8,3.2-1.677,3.355-1.86,6.522-4.035a82.343,82.343,0,0,0,11.906-9.858h-3.394a38.4,38.4,0,0,1,7.711,10.44v-2.423c-5.3,8.642-10.24,17.615-17.461,24.848C200.747,199.376,204.14,202.771,206.326,200.581Z"/><path class="c" d="M169.652,197.187c-7.221-7.233-12.16-16.206-17.461-24.848v2.423a38.4,38.4,0,0,1,7.711-10.44h-3.394a82.289,82.289,0,0,0,11.906,9.858q3.077,2.108,6.334,3.93,1.579.882,3.2,1.689.747.37,1.5.725c.3.139.595.278.894.414a2.446,2.446,0,0,1,.288.148c.231.134.19.1-.124-.09l-.327-1.211c.086.671-1.37,2.094-1.83,2.674-1.432,1.8-2.894,3.581-4.358,5.357-2.576,3.126-5.18,6.229-7.735,9.371a2.471,2.471,0,0,0,0,3.394,2.417,2.417,0,0,0,3.394,0c4.6-5.653,9.44-11.132,13.824-16.956A5.886,5.886,0,0,0,185,179.95c-.063-2.376-2.273-3.146-4.068-4.019a79.142,79.142,0,0,1-10.463-6.148,75.424,75.424,0,0,1-10.569-8.855,2.443,2.443,0,0,0-3.394,0,40.765,40.765,0,0,0-7.264,9.238,12.747,12.747,0,0,0-1.439,2.747c-.336,1.22.467,2.213,1.063,3.193,1.046,1.718,2.08,3.444,3.124,5.163,4.164,6.852,8.575,13.612,14.266,19.312C168.443,202.77,171.838,199.377,169.652,197.187Z"/><path class="c" d="M100.788,200.194c2.419,18.958,3.538,38.1,4.629,57.174q1.956,34.193,2.979,68.432.267,8.549.477,17.1c.131,5.417.324,10.83.125,16.246-.114,3.089,4.686,3.084,4.8,0,.36-9.792-.191-19.658-.483-29.45q-.5-16.742-1.2-33.475c-.931-22.394-2.058-44.79-3.757-67.14-.733-9.643-1.548-19.291-2.772-28.885a2.478,2.478,0,0,0-2.4-2.4,2.413,2.413,0,0,0-2.4,2.4Z"/><path class="c" d="M267.808,359.144c.18-11.032.519-22.063.861-33.091q.584-18.772,1.3-37.539.695-18.467,1.5-36.931.68-15.59,1.475-31.174c.345-6.581.671-13.17,1.213-19.739.038-.456.077-.911.12-1.366a2.417,2.417,0,0,0-2.4-2.4,2.452,2.452,0,0,0-2.4,2.4c-.556,5.97-.842,11.97-1.166,17.956q-.813,15.029-1.455,30.067-.81,18.248-1.5,36.5-.723,18.888-1.334,37.78-.534,16.7-.923,33.4-.045,2.069-.078,4.138c-.051,3.09,4.749,3.09,4.8,0Z"/><path class="a" d="M41.861,181.884c-2.24-8.864-8.533-30.982-10.848-33.937-1.662-2.121-3.63-3.754-7.279-2.2-3.128,1.334-2.621,4.946-2.029,7.931.651,3.287,4.526,18.8,6.789,26.853a6.2,6.2,0,0,0-7.03-1.592c-2.482,1.132-3.439,3.248-3.161,4.777,0,0,.219,1.2.536,2.919a6.019,6.019,0,0,0-5.807.032c-2.143,1.148-4.3,4.22-3.247,6.436l1.416,2.971-.442-.363c-2.722-2.239-7.45-.861-8.218,2.124-.59,2.291.406,4.994,1.681,7.089.152.249.314.516.485.8l.249.767c1.729,5.354,5.1,13.535,10.138,19.365,2.34,2.7,5.043,5.385,7.165,8.284s2.651,6.12,3.687,9.589l.461,1.534c5.484-2.026,20.919-7.793,29.132-11.7l-.292-.822c-.808-3.728-1.7-8.574-1.17-11.732a79.826,79.826,0,0,1,3.562-10.449,19.348,19.348,0,0,0,1.491-8.74c-.373-3.4-1.253-8.253-3.779-11.794a6.842,6.842,0,0,0-1.844-1.74,1.687,1.687,0,0,0-.259-.155c-3.009-1.845-6.966-1.853-10.375-1.708l-.285-1.45C42.468,184.356,42.215,183.285,41.861,181.884Z"/><path class="c" d="M44.9,184.328c-.817-4.107-2.045-8.161-3.176-12.189-1.622-5.779-3.307-11.55-5.24-17.234-1.4-4.13-2.792-9.517-7.156-11.508-3.894-1.777-9.282.25-10.245,4.621-.637,2.888.192,5.929.849,8.749Q22.651,168.436,25.846,180c.817,2.975,5.449,1.711,4.628-1.277-1.831-6.668-3.534-13.374-5.165-20.094-.524-2.163-1.089-4.33-1.467-6.525-.2-1.175-.394-2.736.131-3.575a3.179,3.179,0,0,1,3.217-.853,3.887,3.887,0,0,1,1.332,1.038c.145.154.644.752.532.6-.165-.224.086.129.119.188.305.54.573,1.088.828,1.654.265.587-.073-.2.072.168.076.191.154.381.23.571q.285.722.552,1.449c.4,1.094.785,2.195,1.157,3.3,1.778,5.281,3.351,10.633,4.865,15.994,1.21,4.285,2.527,8.6,3.4,12.972a2.4,2.4,0,0,0,4.628-1.276Z"/><path class="c" d="M2.641,207.127a61.8,61.8,0,0,0,8.991,18.22c2.412,3.188,5.323,5.944,7.825,9.055,2.393,2.975,3.122,6.38,4.175,9.963.869,2.958,5.5,1.7,4.628-1.276-1.075-3.661-1.866-7.406-4.2-10.524-2.427-3.246-5.364-6.038-7.916-9.175-4.125-5.071-6.869-11.364-8.878-17.539-.952-2.925-5.588-1.673-4.629,1.276Z"/><path class="c" d="M45.5,204.82c-.26-1.81-.847-3.542-1.27-5.316a6.686,6.686,0,0,0-2.723-4.071,10.808,10.808,0,0,0-4.82-1.425,16.062,16.062,0,0,1-1.646-.293.7.7,0,0,1-.177-.049c.322.272-.276-.472-.359-.659a2.359,2.359,0,0,1-.171-1.545,3.88,3.88,0,0,1,.382-.971c.107-.207.247-.4.351-.608.245-.489.095-.067,0-.014a11.739,11.739,0,0,1,3.718-.768c3.4-.331,7.234-.636,10.356.042a7.291,7.291,0,0,1,3.925,1.87,11.394,11.394,0,0,1,2.128,3.895,24.041,24.041,0,0,1,1.583,8.363c-.1,4.563-2.3,8.463-3.729,12.741-.353,1.058-.7,2.119-1.01,3.191-.089.311-.182.623-.246.94-.054.269-.078.544-.114.816.089-.669-.082.625-.1.867-.343,3.829.557,7.823,1.358,11.546.649,3.019,5.277,1.741,4.628-1.276-.727-3.382-1.538-6.969-1.171-10.449.038-.353.316-.883.055-.436-.209.357-.025.147.037-.056.113-.379.208-.764.322-1.143.342-1.135.714-2.261,1.095-3.383.387-1.142.786-2.281,1.211-3.409.16-.424.322-.848.5-1.266-.16.38-.087.189.03-.041s.219-.435.319-.658a19.616,19.616,0,0,0,1.585-9.327,31.678,31.678,0,0,0-2.555-10.353,11.644,11.644,0,0,0-8.336-7.008,37.3,37.3,0,0,0-11.865-.266,18.279,18.279,0,0,0-5.386,1.091,6.454,6.454,0,0,0-3.442,4.033,7.343,7.343,0,0,0,.744,6.6,5.685,5.685,0,0,0,4.355,2.56c1.259.182,3.519.1,4.261,1.321a11.433,11.433,0,0,1,.764,2.733,27.823,27.823,0,0,1,.788,3.453,2.415,2.415,0,0,0,2.952,1.677A2.463,2.463,0,0,0,45.5,204.82Z"/><path class="c" d="M15.484,206.721c.113.4.038-.43.027.137s.111-.211-.021.2c-.036.112-.31.84-.1.379a6.552,6.552,0,0,1-.4.741c-.075.121-.157.237-.236.354.021-.031.227-.275.052-.067a6.667,6.667,0,0,1-.491.531c-.1.093-.2.179-.295.267.075-.067.389-.234.032-.034-.077.043-.156.092-.23.139-.294.188-.221.06.042,0-.133.031-.715.182-.5.143.3-.055-.156.011-.228.016-.113.006-.226.01-.339.011s-.952-.054-.521,0a6.614,6.614,0,0,1-.925-.2c-.161-.044-.7-.23-.6-.187.121.051-.409-.213-.53-.286s-.251-.156-.371-.242c.089.063.307.283-.006-.023-.213-.208-.429-.41-.631-.629s-.368-.419-.544-.636c-.257-.315.168.23-.08-.1-.075-.1-.15-.2-.223-.305-.391-.543-.76-1.1-1.119-1.667a26.677,26.677,0,0,1-1.81-3.156c-.006-.015-.167-.416-.067-.16-.048-.124-.094-.248-.137-.373-.1-.291-.194-.585-.271-.882-.044-.169-.076-.339-.118-.508-.011-.044-.078-.469-.034-.124-.043-.335-.026-.669-.04-1,0-.057.035-.478-.015-.1a3.44,3.44,0,0,1,.072-.361,2.928,2.928,0,0,0,.1-.368c.022-.232-.047.128-.078.175.085-.127.488-.692.09-.238.156-.178.321-.339.487-.5.116-.116.324-.169-.063.043.105-.058.2-.136.3-.2s.217-.115.321-.178c.37-.226-.234.036.024-.02.243-.053.478-.163.723-.221.123-.029.252-.043.373-.076.306-.084-.547.013.028.007.257,0,.512,0,.768,0,.155,0,.4.107-.065-.016.123.032.252.048.376.079s.246.077.37.108c.409.1-.139-.135.052.014.126.1.823.523.42.206a2.478,2.478,0,0,0,3.394,0,2.415,2.415,0,0,0,0-3.394,8.11,8.11,0,0,0-9.048-.749c-3.194,1.773-3.94,5.353-3.074,8.7a17.984,17.984,0,0,0,2.209,4.816,33.354,33.354,0,0,0,2.965,4.228,9.435,9.435,0,0,0,9.234,3.092c3.435-.8,6.351-5.193,5.371-8.659a2.4,2.4,0,0,0-4.629,1.276Z"/><path class="c" d="M21.381,185.679c-3-3.3-8.34-2.524-11.377.256a8.418,8.418,0,0,0-2.894,5.817c-.014,2.13,1.355,4.145,2.4,5.921,1.724,2.932,3.784,5.75,5.746,8.532a18.239,18.239,0,0,0,2.9,3.507,8.659,8.659,0,0,0,5.8,1.81c5.275-.226,8.167-5.391,6.84-10.234-.815-2.976-5.447-1.713-4.629,1.276a3.49,3.49,0,0,1-.46,3.258,3.686,3.686,0,0,1-.636.571,2.434,2.434,0,0,1-1.426.335,5.023,5.023,0,0,1-1.665-.29,5.806,5.806,0,0,0-.616-.283c-.042-.01-.3-.192,0,.019.32.225-.109-.108-.144-.144a14.837,14.837,0,0,1-1.822-2.248c-1.371-1.944-2.714-3.917-4.063-5.876a46.18,46.18,0,0,1-2.66-4.4,13.177,13.177,0,0,1-.766-1.567c.06.166,0-.22,0-.264a2.837,2.837,0,0,1,.294-.842,4.631,4.631,0,0,1,2.826-2.388,2.748,2.748,0,0,1,2.954.624c2.083,2.29,5.469-1.112,3.394-3.394Z"/><path class="c" d="M34.469,197.037a3.439,3.439,0,0,1-1.1,3.092,2.072,2.072,0,0,1-2.212.432,7,7,0,0,1-2.532-2.839c-1.075-1.764-2.18-3.506-3.3-5.244-1.819-2.836-3.9-5.773-4.658-9.107,0-.011-.106-.485-.037-.2s.11-.3.009-.065.176-.595.075-.344a2.789,2.789,0,0,1,.982-1.21,3.642,3.642,0,0,1,3.774-.332c1.356.641,2.312,2.141,3.2,3.3,1.022,1.34,2.016,2.714,2.909,4.144,1.632,2.615,5.787.208,4.145-2.422a60.852,60.852,0,0,0-3.6-5.048c-1.291-1.664-2.581-3.36-4.541-4.271-4.338-2.017-10.326-.127-11.551,4.861-.515,2.1.319,4.236,1.155,6.133a47.385,47.385,0,0,0,3.547,6.271c1.353,2.122,2.668,4.268,4.018,6.39a10.668,10.668,0,0,0,4.983,4.574,7.107,7.107,0,0,0,6.792-1.438,7.981,7.981,0,0,0,2.742-6.68c-.156-3.073-4.957-3.092-4.8,0Z"/><path class="c" d="M149.2,173.937c-12.932,5.989-26.381,10.909-39.556,16.38-7,2.905-15.241,5.534-19.519,12.225a32.64,32.64,0,0,0-2.805,6.075c-.895,2.359-1.793,4.717-2.651,7.09-1.577,4.362-3.044,8.763-4.449,13.183-3.142,9.886-6.178,19.786-9.882,29.482a2.419,2.419,0,0,0,1.676,2.952,2.453,2.453,0,0,0,2.952-1.676c3.27-8.557,6.051-17.268,8.787-26.007,2.706-8.641,5.4-17.428,8.987-25.752a15.912,15.912,0,0,1,3.472-5.273,22.008,22.008,0,0,1,5.653-3.7c2.628-1.3,5.472-2.477,7.974-3.522,6.826-2.852,13.7-5.587,20.554-8.365,7.113-2.883,14.264-5.723,21.23-8.949a2.42,2.42,0,0,0,.861-3.284,2.455,2.455,0,0,0-3.284-.861Z"/><path class="c" d="M80.861,273.141c-6.357-14.079-12.17-28.382-17.987-42.69a2.447,2.447,0,0,0-3.525-1.435q-9.013,4.737-18.394,8.741a104.843,104.843,0,0,1-18.189,6.258,2.421,2.421,0,0,0-1.676,2.952c3.578,11.439,7.006,22.93,11.051,34.216,2.07,5.776,4.309,11.49,6.776,17.109a105.506,105.506,0,0,0,6.157,12.465A33.7,33.7,0,0,0,53.926,320.8,22.964,22.964,0,0,0,67.184,325a33.278,33.278,0,0,0,15.209-3.8,41.847,41.847,0,0,0,10.718-8.433A226.42,226.42,0,0,0,111.02,291.9a2.414,2.414,0,0,0-.861-3.284,2.461,2.461,0,0,0-3.283.861l-.906,1.184c-.191.249-.381.5-.573.749-.057.073-.112.148-.169.22.351-.447.072-.1-.122.141q-1.724,2.159-3.5,4.276c-2.929,3.509-5.926,6.964-9.034,10.316-2.758,2.975-5.592,6.165-8.937,8.5a29.749,29.749,0,0,1-13.182,5.155,19.6,19.6,0,0,1-12.326-2.2,24.93,24.93,0,0,1-8.172-8.3,85.624,85.624,0,0,1-6.084-11.808q-3.373-7.584-6.225-15.379c-4.432-12.061-8.1-24.381-11.931-36.639l-1.676,2.953a109.921,109.921,0,0,0,18.967-6.586q9.558-4.056,18.762-8.9l-3.525-1.434c5.973,14.691,11.943,29.38,18.47,43.837a2.419,2.419,0,0,0,3.284.861,2.459,2.459,0,0,0,.861-3.284Z"/><path class="c" d="M221.682,177.719c13.106,5.294,26.416,10.3,39.389,15.777,2.687,1.133,5.494,2.341,8.182,3.607,3.961,1.867,8.357,3.5,10.907,7.264,2.9,4.285,4.474,9.565,6.1,14.43,1.711,5.118,3.184,10.313,4.49,15.549,3,12.021,5.127,24.235,7.454,36.4a2.422,2.422,0,0,0,2.952,1.676,2.45,2.45,0,0,0,1.676-2.952c-2.13-11.137-4.1-22.315-6.714-33.352-1.276-5.385-2.711-10.734-4.387-16.009a107.469,107.469,0,0,0-5.761-15.269,20.693,20.693,0,0,0-4.568-6.324,27.187,27.187,0,0,0-6.537-4.043c-2.91-1.382-5.827-2.738-8.785-4.015-7.342-3.167-14.77-6.138-22.2-9.09-6.97-2.768-13.968-5.466-20.922-8.274a2.415,2.415,0,0,0-2.952,1.676,2.458,2.458,0,0,0,1.676,2.952Z"/><path class="c" d="M243.334,90.743a5.5,5.5,0,0,1,7.892.944,9.2,9.2,0,0,1,1.064,4.739,28.663,28.663,0,0,1-.341,6.047c-1.207,7.063-4.929,15.675-12.8,17.026a2.42,2.42,0,0,0-1.677,2.953,2.456,2.456,0,0,0,2.953,1.676c8.151-1.4,12.989-9.1,15.22-16.45a33.838,33.838,0,0,0,1.4-11.921c-.256-3.951-1.452-7.668-5.094-9.724a10.516,10.516,0,0,0-12.019,1.316,2.421,2.421,0,0,0,0,3.394,2.45,2.45,0,0,0,3.394,0Z"/><path class="c" d="M237.308,115.851a26.877,26.877,0,0,1-1.272,6.781c-.243.817-.51,1.627-.781,2.435-.09.267-.175.536-.273.8-.067.18-.364.843-.057.158a53.521,53.521,0,0,1-3.54,6.492,64.229,64.229,0,0,1-14.2,16.42,27.132,27.132,0,0,1-10.625,5.4c-3.009.691-1.735,5.321,1.276,4.628,7.971-1.832,14.651-7.557,19.919-13.561a68.8,68.8,0,0,0,11.166-16.61,35.072,35.072,0,0,0,3.19-12.94c.1-3.09-4.7-3.086-4.8,0Z"/><path class="c" d="M135.847,87.349a10.475,10.475,0,0,0-10.592-1.977c-3.924,1.548-5.886,4.849-6.384,8.911A32.854,32.854,0,0,0,124.623,117a17.181,17.181,0,0,0,10.735,7.128,2.47,2.47,0,0,0,2.952-1.676,2.419,2.419,0,0,0-1.676-2.953c-7.867-1.351-11.589-9.963-12.8-17.026a28.519,28.519,0,0,1-.349-5.823c.059-1.646.132-3.542,1.071-4.963a5.494,5.494,0,0,1,7.893-.944,2.463,2.463,0,0,0,3.394,0,2.421,2.421,0,0,0,0-3.394Z"/><path class="c" d="M134,115.079c2.916,16.823,12.033,33.286,27.62,41.405a37.449,37.449,0,0,0,13.527,4.046,2.416,2.416,0,0,0,2.4-2.4,2.454,2.454,0,0,0-2.4-2.4c-16.067-1.665-28.586-16.075-33.631-30.549a71.692,71.692,0,0,1-2.887-11.378,2.42,2.42,0,0,0-2.952-1.676A2.455,2.455,0,0,0,134,115.079Z"/><path class="e" d="M294.82,305.386c5.32-4.738,25.891-22.9,30.4-27.416-3.7-3.831-10.778-7.555-19.274-8.346a65.1,65.1,0,0,0-21.825,1.161c-7.218,1.8-16.567,6.26-21.575,12-6.127-5.846-15.2-8.428-23.418-8.7a60.288,60.288,0,0,0-24.322,4.366c-6.279,2.51-11.358,6.111-14.841,12.793,4.816,4.21,27.455,19.725,32.465,23.7Z"/><path class="a" d="M198.859,278.479a33.609,33.609,0,0,0-3.424,3.768,65.012,65.012,0,0,0,5.874,5.427l.575.427c3.329-4.727,7.713-7.562,12.925-9.645a60.288,60.288,0,0,1,24.322-4.366c8.218.271,17.291,2.853,23.418,8.7,5.008-5.744,14.357-10.2,21.575-12a65.1,65.1,0,0,1,21.825-1.161,35.3,35.3,0,0,1,12.6,3.594l.165-.164c1.277-1.213,3.831-3.766,6-6.065-7.852-5.937-12.255-6.824-21.514-7.724-7.047-.686-15.053-.917-21.942.8s-15.724,4.594-20.619,10.039c-5.511-3.885-13.223-6.087-21.506-6.36a60.271,60.271,0,0,0-24.322,4.366,43.5,43.5,0,0,0-9.989,5.323A69.01,69.01,0,0,0,198.859,278.479Z"/><path class="a" d="M275.177,293.09q-.437-.352-.88-.695c-3.777-2.917-6.515-3.373-10.4-1.2L261.818,293c-1.587-1.684-2.933-3.08-3.508-3.578a6.483,6.483,0,0,0-6.219-1.4c-2.453.913-3.48,2.254-3.48,4.308,0,0-.1.743-.233,1.746-1.3-1.376-2.472-2.562-3.366-3.363-.756-.678-4.443-2.5-6.9-.651-2.164,1.626-2.5,3.8-1.245,5.713a7.55,7.55,0,0,1,.359.684l-.549-.287a5.583,5.583,0,0,0-7.9,2.845,8.014,8.014,0,0,0,.632,5.245c1.59,3.073,8.534,10.78,12.283,14.741,8.588,6.075,22.293,1.844,33.27-.708a14.482,14.482,0,0,0,4.35-1.871c4.107-2.85,6.22-6.353,9.574-10.058a26.034,26.034,0,0,0,3.766-4.565c1.092-2.133,1.993-4.454,1.384-6.772a5.1,5.1,0,0,0-1.919-3.045c-1.633-1.077-3.818-.563-5.629.176a28,28,0,0,0-7.458,4.513A34.841,34.841,0,0,0,275.177,293.09Z"/><path class="c" d="M278.107,314.353c-2.316,1.6-5.263,1.98-7.942,2.626-3.223.778-6.454,1.542-9.725,2.089-5.553.929-11.859,1.369-16.86-1.682-2.645-1.613-5.059,2.537-2.423,4.145,5.93,3.617,13.147,3.323,19.759,2.3,3.479-.541,6.91-1.347,10.331-2.172,3.141-.757,6.566-1.281,9.283-3.157a2.462,2.462,0,0,0,.861-3.283,2.421,2.421,0,0,0-3.284-.861Z"/><path class="c" d="M282.716,297.408a32.507,32.507,0,0,0-9.059-8.361,10.571,10.571,0,0,0-5.305-1.611,11.849,11.849,0,0,0-5.661,1.681,2.4,2.4,0,0,0,2.422,4.145,7.679,7.679,0,0,1,1.8-.8,6.878,6.878,0,0,1,1.052-.24c-.422.056.354.007.5.01.058,0,.655.045.354.011-.26-.03.194.039.241.049a7.549,7.549,0,0,1,.9.255c.1.036.5.211.224.082.156.072.31.149.463.229.366.191.721.4,1.068.628a28.188,28.188,0,0,1,6.857,6.34,2.476,2.476,0,0,0,3.284.861,2.416,2.416,0,0,0,.861-3.283Z"/><path class="c" d="M271.656,299.944c-2.627-2.473-4.982-5.277-7.45-7.907-1.224-1.3-2.438-2.629-3.725-3.872a9.357,9.357,0,0,0-8.033-2.7,7.18,7.18,0,0,0-6.237,6.87c-.069,3.09,4.731,3.089,4.8,0,.014-.651-.044-.585.288-1.087-.2.3.329-.326.43-.4-.131.1.563-.307.686-.365a3.636,3.636,0,0,1,3.3.081c1.578.755,2.818,2.455,3.992,3.7,2.848,3.01,5.541,6.245,8.56,9.086,2.248,2.116,5.649-1.271,3.394-3.394Z"/><path class="c" d="M234.13,313.253c-8.8-6.959-18.289-13.067-27.321-19.722q-1.628-1.2-3.234-2.426c-.282-.217.305.238.034.026l-.355-.277c-.2-.155-.392-.31-.586-.467-.339-.273-.674-.55-1-.835l.375,2.908a23.333,23.333,0,0,1,7.444-8.543,40.8,40.8,0,0,1,11.429-5.045c8.858-2.627,18.62-3.431,27.609-.972a29.019,29.019,0,0,1,12.33,6.586,2.428,2.428,0,0,0,3.394,0c5.1-5.755,12.838-9.407,20.186-11.3a54.9,54.9,0,0,1,14.6-1.55A47.442,47.442,0,0,1,313,273.516a25.839,25.839,0,0,1,10.528,6.151v-3.394c-3.457,3.448-7.155,6.67-10.783,9.934q-7.07,6.359-14.189,12.659-2.716,2.412-5.431,4.823c-2.312,2.058,1.093,5.443,3.394,3.394,8.48-7.551,17.013-15.044,25.39-22.71,1.69-1.546,3.39-3.088,5.013-4.706a2.439,2.439,0,0,0,0-3.394c-6.606-6.721-16.173-8.917-25.26-9.355a58.225,58.225,0,0,0-28.769,5.5,38.617,38.617,0,0,0-12.039,8.669h3.394c-7.07-6.639-16.976-9.347-26.495-9.431a62.041,62.041,0,0,0-16.336,2.084,49.268,49.268,0,0,0-13.487,5.463A28.286,28.286,0,0,0,197.9,290.037a2.446,2.446,0,0,0,.375,2.909c3.744,3.254,7.919,6.07,11.944,8.957,5.081,3.645,10.2,7.24,15.275,10.889q1.642,1.179,3.275,2.375c.433.319.865.638,1.3.962l.547.415c.253.191-.428-.337.129.1a2.475,2.475,0,0,0,3.394,0,2.415,2.415,0,0,0,0-3.394Z"/><path class="c" d="M202.52,285.6c.491.373-.014-.021-.2-.178q-.375-.315-.743-.64c-.621-.544-1.233-1.1-1.839-1.659a24.167,24.167,0,0,1-2.6-2.574v3.394c5.51-7.119,13.345-11.975,21.8-14.79a54.608,54.608,0,0,1,27.667-2.17,33.9,33.9,0,0,1,12.831,5.2,2.411,2.411,0,0,0,2.908-.376,26.985,26.985,0,0,1,10.094-6.463,61.987,61.987,0,0,1,12.42-3.571,63.765,63.765,0,0,1,14.9-.394,68.054,68.054,0,0,1,12.152,1.608,33.043,33.043,0,0,1,11.6,6.077l-.486-3.77c-1.955,2.064-3.944,4.1-6,6.065-2.239,2.137,1.158,5.528,3.394,3.394,2.057-1.963,4.046-4,6-6.065a2.443,2.443,0,0,0-.486-3.769,37.46,37.46,0,0,0-11.394-6.182,62.1,62.1,0,0,0-13.04-2.025,74.234,74.234,0,0,0-15.764.119,61.5,61.5,0,0,0-13.681,3.54c-4.8,1.811-9.587,4.207-13.1,8.042l2.908-.375c-7.826-5.435-17.963-7.092-27.315-6.655-9.9.463-20.344,3.233-28.8,8.522a47.044,47.044,0,0,0-12,10.647,2.509,2.509,0,0,0,0,3.394,35.771,35.771,0,0,0,6.359,5.8,2.415,2.415,0,0,0,3.284-.861,2.46,2.46,0,0,0-.861-3.284Z"/><path class="c" d="M237.893,294.1a8.064,8.064,0,0,0-8.7.6,7.237,7.237,0,0,0-2.989,6.362,12.245,12.245,0,0,0,2.8,6.916c1.6,2.151,3.332,4.206,5.1,6.226q2.868,3.285,5.867,6.455c2.126,2.25,5.515-1.149,3.394-3.4a129.417,129.417,0,0,1-10.509-12.111,13.06,13.06,0,0,1-1.432-2.233A5.5,5.5,0,0,1,231,300.73a4.331,4.331,0,0,0,0-.573c.01-.082.218-.879.083-.5s.167-.274.214-.351c.318-.519-.3.29.152-.2a3.553,3.553,0,0,1,1.069-.874,3.157,3.157,0,0,1,2.957.012,2.463,2.463,0,0,0,3.284-.861,2.422,2.422,0,0,0-.861-3.283Z"/><path class="c" d="M259.974,303.243c-2.471-2.677-4.88-5.412-7.338-8.1-1.214-1.329-2.436-2.651-3.691-3.942a18.445,18.445,0,0,0-3.118-2.846c-3.654-2.322-8.744-1.969-11.151,1.934-2.751,4.462,1.317,8.527,3.982,11.788a134.445,134.445,0,0,0,9.628,10.767c2.2,2.171,5.6-1.221,3.394-3.394-2.675-2.638-5.195-5.411-7.6-8.3-1.223-1.47-2.426-2.956-3.638-4.435a14.563,14.563,0,0,1-1.5-2.152,4.407,4.407,0,0,1-.323-.626c-.014-.041-.114-.582-.088-.36.023.2.068-.423-.006-.128a2.331,2.331,0,0,1,2.542-1.776,7.235,7.235,0,0,1,1.649.444c-.277-.114.329.17.453.241.1.056.2.136.307.186.39.188-.277-.323-.094-.072a11.342,11.342,0,0,0,1.212,1.155c.512.507,1.014,1.023,1.512,1.543,1.1,1.145,2.172,2.31,3.241,3.48,2.421,2.652,4.8,5.347,7.232,7.986,2.1,2.275,5.487-1.126,3.394-3.394Z"/><path class="c" d="M282.03,297.362a29.207,29.207,0,0,1,4.485-2.609c1.064-.494,2.669-1.287,3.878-.942,1.005.285,1.369,1.6,1.441,2.522a8.441,8.441,0,0,1-1.407,4.548,18.329,18.329,0,0,1-2.646,3.156c-1.063,1.135-2.062,2.323-3.049,3.524a35.616,35.616,0,0,1-6.625,6.792,2.465,2.465,0,0,0-.861,3.283,2.42,2.42,0,0,0,3.284.861c3.451-2.445,5.952-5.611,8.65-8.813,1.187-1.409,2.493-2.706,3.691-4.1a16.586,16.586,0,0,0,3.18-5.609c1.324-3.937.218-9.52-4.329-10.766-4.116-1.129-8.888,1.748-12.115,4.012a2.465,2.465,0,0,0-.861,3.284,2.422,2.422,0,0,0,3.284.861Z"/><path class="c" d="M178.251,132.04a21.181,21.181,0,0,0,10.2,2.355c3.63-.023,7.325-.727,10.236-3a2.413,2.413,0,0,0,0-3.394,2.462,2.462,0,0,0-3.394,0c.71-.553.1-.087-.086.03-.207.133-.421.256-.64.371-.151.079-.9.393-.3.164-.293.112-.584.225-.882.321a15.162,15.162,0,0,1-5.263.7,15.765,15.765,0,0,1-5.022-.676c-.323-.1-.638-.212-.957-.322-.1-.035-.2-.089-.308-.12.591.173.172.077.014,0q-.593-.279-1.172-.585a2.453,2.453,0,0,0-3.284.861,2.427,2.427,0,0,0,.861,3.284Z"/><path class="c" d="M187.362,107.842a48.7,48.7,0,0,1,1.143,5.227l-.086-.638a3.163,3.163,0,0,1,.019.721l.086-.638a1.713,1.713,0,0,1-.079.325l.242-.574a1.368,1.368,0,0,1-.115.209l.376-.486a1.093,1.093,0,0,1-.171.169l.485-.376a3.4,3.4,0,0,1-.413.22l.573-.242a3.035,3.035,0,0,1-.7.2l.638-.086a2.708,2.708,0,0,1-.655,0l.638.086c-.247-.034-.489-.094-.736-.128a2.658,2.658,0,0,0-1.85.242,2.4,2.4,0,0,0-.861,3.284,2.3,2.3,0,0,0,1.435,1.1c.537.072,1.058.21,1.6.234a5.073,5.073,0,0,0,2.333-.551,3.3,3.3,0,0,0,1.851-2.187,5.591,5.591,0,0,0-.025-2.388c-.284-1.683-.673-3.352-1.106-5a2.4,2.4,0,0,0-4.629,1.276Z"/><path class="c" d="M159.455,93.114c-.873,2.837-.3,9.362,5.07,9.917,7.1-.042,7.48-7.931,5.09-11.64C167.657,88.354,161.9,87.091,159.455,93.114Z"/><path class="c" d="M216.332,93.115c.873,2.836.3,9.361-5.07,9.916-7.1-.042-7.481-7.931-5.09-11.641C208.13,88.354,213.886,87.091,216.332,93.115Z"/></svg>