<?xml version="1.0" encoding="utf-8"?>
<!-- Uploaded to: SVG Repo, www.svgrepo.com, Generator: SVG Repo Mixer Tools -->
<svg width="800px" height="800px" viewBox="-53.03 0 330.202 330.202" xmlns="http://www.w3.org/2000/svg"><defs><style>.a{fill:#ffffff;}.b{fill:#645d5c;}.c{fill:#211715;}</style></defs><path class="a" d="M69.3,173.716c2.815-.889,10.083-3.122,10.423-3.252,5.19-1.87,4.99-5.21,5.64-8.94.315-1.758.557-3.4.76-5.1a54.363,54.363,0,0,1-14.635-11.208,62.215,62.215,0,0,1-12.8-20.312c-.691.247-1.149.409-1.149.409-2.833.963-5.136-.432-6.984-1.72a20.11,20.11,0,0,1-5.635-6.479,31.658,31.658,0,0,1-4.309-16.542,10.549,10.549,0,0,1,.829-4.313,7.471,7.471,0,0,1,5.131-3.913A7.745,7.745,0,0,1,53.775,94.5l4.874-5.856c9.207-11.622,21.38-23.121,33.767-34.9.368,1.241,4.353,11.242,4.9,12.581,1.1-1,14.144-11.8,18.945-15.723,5.762.319,10.812.592,10.812.592,6.33,1.457,12.512,5.925,18.087,11.914a73.214,73.214,0,0,1,11.6,17.931l3.385,7.517a7.908,7.908,0,0,1,6.174-2.235,7.471,7.471,0,0,1,5.594,3.217,10.558,10.558,0,0,1,1.379,4.171,31.663,31.663,0,0,1-2.135,16.959,20.132,20.132,0,0,1-4.752,7.154c-1.665,1.515-3.378,2.424-5.979,1.813l-1.216-.285c-.385,1.911-.846,3.528-1.069,4.389C156.6,128.97,146.9,148.359,133.8,154.762c.178,2.308.488,4.61.878,6.9.63,3.57.43,6.76,5.4,8.55.22.09,7.02,3.3,11.34,5.35,0,0-11.08,20.967-40.709,20.967S69.3,173.716,69.3,173.716Z"/><path class="a" d="M59.761,293.723a60.815,60.815,0,0,1-9.2,11.188,34.011,34.011,0,0,1-3.422,2.728c.251.475.418.793.418.793,1.9,3.734,8.123,13.089,8.59,13.769a13.642,13.642,0,0,0,4.6,4.646c1.956,1.032,4.6,1.124,6.29-.307,1.03-.891,1.554-2.2,2.432-3.223,2.936-3.519,8.443-2.941,13.087-3.139a29.416,29.416,0,0,0,16.2-5.742l9.05-.267a297.524,297.524,0,0,1,.38-30.067c-10.135-.916-30.28-3.562-40.031-5.22A133.045,133.045,0,0,1,59.761,293.723Z"/><path class="a" d="M11.006,208.827c3.812-9.773,8.109-15.982,16.109-20.471,10.105-5.67,26.235-12.872,38.411-15.883a2.318,2.318,0,0,1,2.366.743c10.352,9.055,24.677,13.387,41.463,13.429,14.726.037,35.08-5.6,43.216-11.482a2.183,2.183,0,0,1,2.128-.285c7.9,3.1,23.82,8.594,39.261,18.844,6.711,4.456,11.685,15.324,13.526,20.263,8.839,25.209,13.18,49.4,13.954,70.1.371,9.94.994,19.95-2.325,26.933-4.534,9.542-13.385,12.116-21.5,13.526-25.621,4.422-71.331,3.093-88.364,2.852-1.635-.313-2.161-31.171-1.053-43.311-9.971-.881-30.483-3.576-40.053-5.214-3.756,7.722-10.236,19.346-17.584,26.036a28.234,28.234,0,0,1-6.141,4.343c-5.928,2.85-14.1,4.885-21.228,3.654-8.98-1.546-12.875-7.74-15.631-14.33-7.622-18.143-7.026-61.8,3.344-89.751Z"/><path class="b" d="M40.53,72.831A77.809,77.809,0,0,1,41.3,57.444c1.354-7.8,4.465-16.288,9.95-22.423,2.335-2.612-3.137-3.1-4.023-3.51-.628-.294,10.846-13.669,23.686-18.363A112.133,112.133,0,0,1,82.488,9.235c1.867-.425-1.254-3.713-1.262-3.724,3.017-2.365,11.45-2.93,15.28-3.084,15.89-.637,37.58,5.545,44.062,17.905l7.244,5.132c7.09,2.51,14.98,12.8,17.78,20.09,4.33,11.219,6.03,30.268,3.37,41.489a7.6,7.6,0,0,0-2.637-.714,7.972,7.972,0,0,0-5.634,1.744l-3.925-7.026a73.214,73.214,0,0,0-11.6-17.931C139.586,57.127,133.4,52.659,127.074,51.2L116.893,50.1c-4.154,3.374-18.427,15.194-19.576,16.238-.548-1.339-4.533-11.34-4.9-12.581-12.387,11.775-24.56,23.274-33.767,34.9l-4.443,6.4a7.584,7.584,0,0,0-7.639-2.7,7.227,7.227,0,0,0-1.921.707C42.253,89.611,40.856,81.26,40.53,72.831Z"/><path class="c" d="M161.822,90.285a5.424,5.424,0,0,1,7.743.11c1.077,1.251,1.332,3.082,1.508,4.672a30.7,30.7,0,0,1,.049,6.115,27.8,27.8,0,0,1-3.37,11.037c-1.313,2.324-3.591,5.753-6.682,5.11-3.015-.627-4.3,4-1.276,4.629,8.357,1.739,13.2-7.864,15.029-14.542a33.441,33.441,0,0,0,1.024-12.575c-.452-3.943-1.628-7.814-5.418-9.755a10.41,10.41,0,0,0-12,1.805c-2.218,2.158,1.178,5.55,3.394,3.394Z"/><path class="c" d="M157.411,113.2a30.206,30.206,0,0,1-1.873,10.8c-.149.419-.314.831-.478,1.244a3.257,3.257,0,0,1-.186.438c-.136.307-.272.614-.412.919-.587,1.28-1.219,2.539-1.882,3.78A64.677,64.677,0,0,1,139.6,147.805a26.2,26.2,0,0,1-9.882,5.986c-2.952.884-1.7,5.518,1.276,4.629,7.938-2.375,14.064-8.587,18.954-15.008a72.358,72.358,0,0,0,9.956-17.431,33.613,33.613,0,0,0,2.308-12.784c-.1-3.082-4.9-3.095-4.8,0Z"/><path class="c" d="M54.219,91.715a10.317,10.317,0,0,0-10.987-.637c-3.729,2.07-4.995,5.885-5.032,9.94-.071,7.833,2.727,16.325,8.154,22.088,2.994,3.179,7.336,5.869,11.819,4.524,2.952-.885,1.7-5.52-1.276-4.629-3.2.961-6.433-2.213-8.225-4.535a29.306,29.306,0,0,1-5.652-16.122c-.063-1.742-.172-3.784.741-5.343,1.7-2.9,5.557-2.988,8.035-1.141A2.416,2.416,0,0,0,55.08,95a2.458,2.458,0,0,0-.861-3.284Z"/><path class="c" d="M54.664,120.566c4.588,15.347,14.941,29.693,29.2,37.385A38.328,38.328,0,0,0,96.5,162.277a2.481,2.481,0,0,0,2.952-1.677,2.417,2.417,0,0,0-1.676-2.952c-7.451-1.079-14.181-4.75-19.85-9.609a60.4,60.4,0,0,1-14.671-18.722,61.216,61.216,0,0,1-3.966-10.027c-.883-2.952-5.517-1.7-4.629,1.276Z"/><path class="c" d="M115.2,48.4c-3.658,2.973-7.286,5.984-10.915,8.993-2.892,2.4-5.867,4.73-8.661,7.244l4.012,1.06c-1.69-4.137-3.588-8.308-4.9-12.581a2.427,2.427,0,0,0-4.011-1.059C79,63.192,67.034,74.266,56.952,86.951a2.475,2.475,0,0,0,0,3.394,2.417,2.417,0,0,0,3.394,0C70.428,77.66,82.4,66.586,94.113,55.449L90.1,54.39c1.313,4.273,3.211,8.444,4.9,12.581a2.439,2.439,0,0,0,4.011,1.059c2.794-2.515,5.769-4.848,8.661-7.245,3.63-3.008,7.257-6.02,10.915-8.993a2.416,2.416,0,0,0,0-3.394,2.456,2.456,0,0,0-3.394,0Z"/><path class="c" d="M126.436,53.517c6.81,1.629,12.48,6.355,17.125,11.4a66.081,66.081,0,0,1,11.133,17.339,2.419,2.419,0,0,0,3.284.861,2.458,2.458,0,0,0,.861-3.284A69.431,69.431,0,0,0,146.7,61.25c-5.153-5.505-11.515-10.574-18.987-12.362-3-.718-4.284,3.909-1.276,4.629Z"/><path class="c" d="M142.64,19.12c-4.256-7.965-13.03-12.595-21.262-15.4A70.559,70.559,0,0,0,94.206.148a62.916,62.916,0,0,0-7.778.935,15.675,15.675,0,0,0-6.413,2.356,2.446,2.446,0,0,0-.486,3.769c.244.265.484.537.7.823-.282-.366.238.368.312.492s.145.247.207.376q.12.246-.055-.119.1.458.045-.239V8.13Q82.767,6.6,81.51,7a4.567,4.567,0,0,0-.7.179c-.5.134-.994.28-1.487.432-1.382.428-2.748.91-4.108,1.4a68.239,68.239,0,0,0-13.473,6.06,69.682,69.682,0,0,0-10.334,8.048,44.434,44.434,0,0,0-5.775,6.264,2.955,2.955,0,0,0-.5,3.307c.721,1.248,2.306,1.332,3.551,1.684a9.384,9.384,0,0,1,.928.3c.335.133-.34-.055-.009.008.441.085.026.271.058-.023.017-.167.332.9-.056-.123a2.293,2.293,0,0,1-.12-1.1c.05-.462.176-.138,0-.031.242-.152-.384.43-.469.53a38.694,38.694,0,0,0-4.4,6.38c-4.486,8.155-6.345,17.4-6.547,26.637A94.863,94.863,0,0,0,38.9,81.733c.538,3.965,1.261,8.095,3.148,11.673,1.442,2.733,5.586.31,4.145-2.423-.167-.317-.326-.638-.469-.967.149.342-.221-.592-.279-.758-.33-.939-.6-1.9-.837-2.866a52.075,52.075,0,0,1-1.083-6,93.245,93.245,0,0,1-.607-14.848c.374-9.88,2.977-20.633,9.627-28.372a5.065,5.065,0,0,0,1.674-3.422,3.769,3.769,0,0,0-1.867-3.017c-1.4-.9-3.007-.925-4.489-1.539l1.059.617.354.458.327,1.211c.038.348-.6,1.382-.1.721.083-.11.163-.23.239-.345.324-.492-.273.311.085-.113.722-.853,1.449-1.7,2.22-2.5a68.054,68.054,0,0,1,7.54-6.819A50.54,50.54,0,0,1,69.735,16.2c2.047-.922,4.21-1.626,6.318-2.395,2.219-.809,4.445-1.584,6.733-2.173a3.28,3.28,0,0,0,2.235-4.876,11.579,11.579,0,0,0-2.1-2.939l-.485,3.77C85.16,5.548,89.668,5.3,93.159,5.023a68.1,68.1,0,0,1,12.023.084c8.534.844,17.335,3.221,24.664,7.773a23.588,23.588,0,0,1,8.65,8.663c1.456,2.725,5.6.3,4.144-2.423Z"/><path class="c" d="M147.174,27.778c3.713,1.364,6.895,4.624,9.44,7.635a39.033,39.033,0,0,1,6.664,10.779c3.2,8.247,4.368,17.428,4.539,26.224a57.006,57.006,0,0,1-1.169,13.99c-.7,3,3.928,4.288,4.628,1.276,2.179-9.374,1.585-19.46.119-28.892a68.911,68.911,0,0,0-3.271-13.3,45.169,45.169,0,0,0-7.266-12.438c-3.293-4.127-7.372-8.055-12.408-9.906a2.421,2.421,0,0,0-2.952,1.677,2.451,2.451,0,0,0,1.676,2.952Z"/><path class="c" d="M131.4,154.764a99.7,99.7,0,0,0,1.407,10.293,9.066,9.066,0,0,0,4.462,6.511c.314.176.638.326.967.471-.03-.013,1.361.563.683.269.2.089.405.188.607.282q1.379.645,2.754,1.3,3.966,1.871,7.929,3.75a2.467,2.467,0,0,0,3.284-.861,2.422,2.422,0,0,0-.861-3.284c-4.012-1.9-8-3.9-12.076-5.652a7.65,7.65,0,0,1-1.566-.855c-.138-.1-.144-.1-.018-.016-.122-.1-.239-.214-.352-.329s-.212-.223-.312-.341c.122.162.135.176.04.04a6.775,6.775,0,0,1-.385-.653c-.2-.383.037.234-.128-.316a15.031,15.031,0,0,1-.379-1.478,83.315,83.315,0,0,1-1.256-9.127,2.461,2.461,0,0,0-2.4-2.4,2.419,2.419,0,0,0-2.4,2.4Z"/><path class="c" d="M153.782,177.235c.341-.216,1.19.312,1.591.467q1.231.474,2.464.944c1.738.665,3.476,1.334,5.206,2.022,4.351,1.728,8.651,3.581,12.869,5.616a144.815,144.815,0,0,1,14.8,8.189,25.39,25.39,0,0,1,5.145,4.064,33.841,33.841,0,0,1,3.781,4.987,60.64,60.64,0,0,1,5.53,11.1,2.468,2.468,0,0,0,2.953,1.677,2.42,2.42,0,0,0,1.676-2.953c-2.993-7.978-7.393-16.789-14.629-21.7-9.36-6.349-19.746-11.168-30.219-15.359-2.112-.844-4.234-1.66-6.358-2.472-2.365-.905-4.8-2.271-7.234-.728-2.6,1.651-.2,5.806,2.422,4.144Z"/><path class="c" d="M66.195,174.913c19.41,16.846,48.187,16.671,71.533,9.47,5.52-1.7,11.315-3.762,16.054-7.148a2.466,2.466,0,0,0,.861-3.283,2.418,2.418,0,0,0-3.283-.861,47.87,47.87,0,0,1-12.793,5.985,107.381,107.381,0,0,1-17.258,4.185,75,75,0,0,1-35.725-2.683,48.271,48.271,0,0,1-16-9.059c-2.323-2.016-5.732,1.365-3.394,3.394Z"/><path class="c" d="M69.937,176.03c3.222-1.016,6.455-2,9.677-3.012a13.175,13.175,0,0,0,4.709-2.453,9.175,9.175,0,0,0,2.825-5.163c.555-2.659.911-5.4,1.264-8.088a2.411,2.411,0,0,0-2.4-2.4,2.461,2.461,0,0,0-2.4,2.4c-.245,1.87-.616,4.093-.959,6.1-.131.769-.375,1.487-.559,2.238-.078.316.2-.376.042-.092-.042.075-.074.158-.113.235-.079.156-.165.31-.257.458-.119.192-.3.411-.039.1a7.365,7.365,0,0,1-.506.554c-.143.138-.292.271-.448.394.349-.274-.191.106-.309.178-.2.122-.408.236-.618.342a2.6,2.6,0,0,1-.5.231c-.35.134-.707.244-1.064.356-1.452.457-2.907.905-4.361,1.356-1.755.544-3.51,1.086-5.262,1.639a2.4,2.4,0,1,0,1.276,4.628Z"/><path class="c" d="M13.32,209.465a47.951,47.951,0,0,1,5.943-11.246,28.378,28.378,0,0,1,8.44-7.433,165.615,165.615,0,0,1,25.078-11.705c2.52-.956,5.063-1.853,7.634-2.664q1.724-.544,3.467-1.03.879-.245,1.763-.47c.083-.021.721-.073.446-.121-.075-.013.017.035.1.117,2.247,2.118,5.647-1.27,3.394-3.394s-4.666-1.414-7.342-.66c-2.448.69-4.869,1.476-7.268,2.321-5.034,1.775-9.979,3.809-14.847,6-4.531,2.037-9,4.222-13.356,6.62a34.98,34.98,0,0,0-10.159,8.083,50.963,50.963,0,0,0-7.925,14.308,2.417,2.417,0,0,0,1.676,2.952,2.456,2.456,0,0,0,2.952-1.676Z"/><path class="c" d="M184.523,276.3c-8.915-.1-17.832-.045-26.746.01-11.455.07-22.91.187-34.362.452-4.83.112-9.662.235-14.486.5a2.529,2.529,0,0,0-2.314,1.762,18.437,18.437,0,0,0-.861,5.427c-.246,2.878-.354,5.768-.432,8.655q-.288,10.643.09,21.3c.1,2.857.227,5.718.495,8.565.161,1.714.177,3.817,1.032,5.374.751,1.37,2.046,1.458,3.462,1.48q2.313.036,4.626.079,5.729.1,11.459.18c19.442.247,39,.3,58.374-1.5,4.386-.409,8.77-.926,13.113-1.666a42.624,42.624,0,0,0,12.946-4,23.6,23.6,0,0,0,10.269-10.672c2.474-5.237,2.922-11.158,2.953-16.873a241.4,241.4,0,0,0-11.182-72.439q-1.489-4.816-3.159-9.575a2.459,2.459,0,0,0-2.952-1.676,2.423,2.423,0,0,0-1.677,2.952c7.868,22.5,12.975,46.073,13.887,69.932.227,5.948.614,11.979-.1,17.909-.576,4.8-2.269,9.4-5.735,12.862-5.871,5.872-15.128,6.939-22.876,7.868-18.75,2.25-37.789,2.286-56.647,2.154-7.429-.052-14.855-.192-22.283-.314a6.461,6.461,0,0,0-1.984-.031c.62-.263,1.534.743,1.711,1.031-.225-.367.121.623.106.275a16.046,16.046,0,0,0-.379-1.793c-.087-.511.061.569-.008-.066-.026-.237-.056-.474-.082-.711q-.09-.849-.158-1.7c-.11-1.335-.191-2.671-.259-4.008-.344-6.71-.412-13.439-.335-20.155.036-3.191.11-6.383.27-9.571.064-1.288.142-2.575.252-3.86.046-.534.1-1.068.157-1.6.026-.235.057-.47.086-.7-.071.583-.033.213.024-.117a8,8,0,0,1,.422-1.729l-2.314,1.762c9.609-.525,19.248-.624,28.869-.757q16.887-.233,33.776-.246c4.316,0,8.633,0,12.949.042,3.089.034,3.092-4.766,0-4.8Z"/><path class="c" d="M45.484,309.643c1.649,3.211,3.674,6.247,5.632,9.275,1.717,2.653,3.39,5.616,5.626,7.867a10.165,10.165,0,0,0,7.074,3.234c2.986.019,5.1-1.592,6.675-4a6.507,6.507,0,0,1,4.827-3.094,49.454,49.454,0,0,1,6.887-.334,31.989,31.989,0,0,0,17.76-6.084,2.472,2.472,0,0,0,.861-3.283,2.417,2.417,0,0,0-3.284-.861,27.348,27.348,0,0,1-14.135,5.364c-4.443.325-9.386-.385-13.391,2.02a9.216,9.216,0,0,0-2.372,2.03c-.74.9-1.32,2.409-2.305,3.065-1.456.971-3.476.075-4.64-.921-2.069-1.77-3.506-4.454-4.978-6.718a114.584,114.584,0,0,1-6.092-9.984c-1.412-2.748-5.555-.323-4.145,2.423Z"/><path class="c" d="M107.078,281.474c-6.273-.486-12.527-1.3-18.765-2.111-6.086-.793-12.185-1.6-18.226-2.692a2.468,2.468,0,0,0-2.953,1.676,2.422,2.422,0,0,0,1.677,2.953c10.264,1.854,20.674,3.114,31.037,4.265,2.407.268,4.816.522,7.23.709a2.421,2.421,0,0,0,2.4-2.4,2.448,2.448,0,0,0-2.4-2.4Z"/><path class="c" d="M182.456,216.8c-1.5,17.225-3.336,34.43-5.239,51.614-.358,3.232-.71,6.466-1.131,9.69a2.411,2.411,0,0,0,2.4,2.4,2.462,2.462,0,0,0,2.4-2.4c2.138-16.366,3.631-32.84,5.238-49.265.393-4.011.781-8.024,1.132-12.039a2.419,2.419,0,0,0-2.4-2.4,2.45,2.45,0,0,0-2.4,2.4Z"/><path class="a" d="M48.115,225.971a117.354,117.354,0,0,0,7.7-12.312c1.068-2.953,1.182-6.275,2.074-11.259,1.781-9.908.429-12.246,3.111-20,2.59-6.832,5.2-9.838,9.3-15.745,1.367-1.969,6.561-6.349,9.17-8.251a139.438,139.438,0,0,1,11.969-7.231c3.837-1.881,7.5-3.049,11.764-2.8,2.057.123,4.339,1,5.03,2.945.588,1.654.27,4.034-1.264,4.885-4.178,2.318-8.857,3.854-12.252,5.907-4.714,2.849-7.374,5.517-11.6,9.285,0,0-.258.23-.7.62,4.611-.634,10.84-.987,14.323-.15a11.066,11.066,0,0,1,2.006.752c.978.512,3.456,1.887,4.38,2.489,4.027,2.622,7.805,4.993,9.464,8.347a6.583,6.583,0,0,1,.193,4.794c-.507,1.028-1.722,2.259-4.384,2.056,1.177.934,1.379,3.217,1.162,5.037-.2,1.635-2.111,3.722-5.148,3.944,1.259,3.222-1.192,7.259-3.963,6.556-.9-.229-2.884-.9-4.727-1.279l-.274.295c-.973,1.048-1.588,4.467-1.888,5.864-.881,4.105-2.464,8.478-6.085,10.6-1.712,1-3.713,1.393-5.515,2.225-1.7.788-3.184,4.955-3.99,7.447l-1.744,7.512"/><path class="c" d="M63.318,183.038a43.659,43.659,0,0,1,4.217-8.23c.859-1.317,1.77-2.6,2.681-3.881q.705-.992,1.407-1.986c.251-.357.5-.72.752-1.075.022-.031.208-.273.045-.066s.129-.145.161-.178a55.367,55.367,0,0,1,10.848-8.962c4.538-2.877,9.3-6.122,14.578-7.422a15.916,15.916,0,0,1,5.2-.46c.876.08,2.211.327,2.693,1.166a1.864,1.864,0,0,1-.335,2.3,28.728,28.728,0,0,1-5.024,2.418,54.658,54.658,0,0,0-10.159,5.447,113.525,113.525,0,0,0-8.962,7.595c-2.309,2.062,1.095,5.447,3.394,3.394a97.311,97.311,0,0,1,8.312-7.074,58.02,58.02,0,0,1,10.241-5.4c1.829-.815,4.025-1.577,5.561-2.887a6.229,6.229,0,0,0,1.985-4.826c-.062-4.187-3.485-6.552-7.362-6.908-7.1-.651-13.51,2.994-19.353,6.535a76.064,76.064,0,0,0-13.341,9.972,51.9,51.9,0,0,0-6.486,8.414,51.6,51.6,0,0,0-5.679,10.835,2.418,2.418,0,0,0,1.676,2.952,2.454,2.454,0,0,0,2.952-1.676Z"/><path class="c" d="M80.087,174.826a58.742,58.742,0,0,1,8.055-.958,28,28,0,0,1,7.959.316c2.266.573,4.439,2.1,6.377,3.366,2.588,1.685,5.668,3.42,7.419,6.053a4.484,4.484,0,0,1,.792,3.452.787.787,0,0,1-.391.543,3.043,3.043,0,0,1-1.9.31,2.423,2.423,0,0,0-1.7,4.1c.7.64.714,2.658.382,3.36.212-.45-.381.49-.2.271a3.317,3.317,0,0,1-2.467,1.253,2.468,2.468,0,0,0-2.4,2.4,2.416,2.416,0,0,0,2.4,2.4c3.042-.307,6.064-1.809,7.207-4.824.953-2.512.534-6.383-1.524-8.254l-1.7,4.1c3.937.191,7.077-2.272,7.151-6.32.078-4.236-2.83-7.337-5.984-9.761a66.971,66.971,0,0,0-9.12-5.817c-3.015-1.621-6.351-1.865-9.719-1.83A65.829,65.829,0,0,0,78.811,170.2a2.424,2.424,0,0,0-1.677,2.952,2.451,2.451,0,0,0,2.953,1.677Z"/><path class="c" d="M109.609,188.236a59.651,59.651,0,0,0-10.481-6.013,46.644,46.644,0,0,0-12.836-2.989,2.415,2.415,0,0,0-2.4,2.4,2.456,2.456,0,0,0,2.4,2.4,40.071,40.071,0,0,1,11.172,2.658,58,58,0,0,1,9.722,5.688,2.423,2.423,0,0,0,3.284-.861,2.447,2.447,0,0,0-.861-3.283Z"/><path class="c" d="M105.623,197.217a63.638,63.638,0,0,0-7.475-4.54,31.246,31.246,0,0,0-10.121-2.6,2.418,2.418,0,0,0-2.4,2.4,2.451,2.451,0,0,0,2.4,2.4,16.675,16.675,0,0,1,1.7.211q1.127.189,2.234.467a22.943,22.943,0,0,1,4.285,1.512,71.313,71.313,0,0,1,6.958,4.3,2.4,2.4,0,1,0,2.423-4.144Z"/><path class="c" d="M93.664,206.468c.242-.272-.179.123-.26.176.342-.221-.287.08-.233.086a.9.9,0,0,0,.272-.067c.151-.078-.371.052-.387.049a1.7,1.7,0,0,0,.272-.018,6.444,6.444,0,0,1,.786.024c.131.011.265.039.395.041.025,0-.558-.091-.3-.038.092.019.187.03.279.046a33.639,33.639,0,0,1,3.777.947,7.711,7.711,0,0,0,4.033.46,6.232,6.232,0,0,0,3.9-3.265,7.906,7.906,0,0,0,.523-6.258,2.4,2.4,0,0,0-4.629,1.276,5.492,5.492,0,0,0,.27.986c-.011-.017-.037-.485-.035-.221,0,.083.013.167.016.25.007.195,0,.388-.012.582a.9.9,0,0,1-.023.248c-.032.024.119-.509.023-.232-.052.151-.069.322-.112.477s-.112.306-.151.461c-.068.267.068-.226.089-.2a1.706,1.706,0,0,1-.139.283q-.109.206-.235.4c-.041.064-.092.124-.13.19-.125.218.124-.194.146-.188a3.629,3.629,0,0,0-.3.323c-.05.049-.114.094-.159.147-.172.2.381-.234.151-.115a2.643,2.643,0,0,0-.354.214c-.175.136.238-.1.266-.1a1.017,1.017,0,0,0-.19.065c-.1.025-.563.118-.137.053.48-.074-.168-.052-.219-.031.162-.067.531.108.152,0-.081-.024-.162-.044-.243-.067-.215-.06-.429-.123-.643-.187-.545-.161-1.089-.324-1.636-.477a26.105,26.105,0,0,0-4.049-.83c-1.424-.163-3.156-.023-4.173,1.122a2.4,2.4,0,0,0,3.394,3.395Z"/><path class="c" d="M80.285,231.637a35.628,35.628,0,0,1,1.27-3.475,14.327,14.327,0,0,1,.918-1.759c-.044.071.492-.682.3-.437.077-.1.565-.456.221-.244,1.341-.828,3.118-1.109,4.562-1.752a11.47,11.47,0,0,0,3.917-2.857,19.686,19.686,0,0,0,4.028-8.159c.309-1.174.524-2.369.8-3.552.146-.631.3-1.261.5-1.879.067-.209.194-.594.242-.7-.037.08.474-.705.11-.266a2.468,2.468,0,0,0,0-3.394,2.419,2.419,0,0,0-3.394,0c-1.688,2.033-2.023,4.778-2.583,7.276-.62,2.766-1.5,5.743-3.576,7.789-2.269,2.238-5.93,1.988-8.132,4.249-2,2.06-2.937,5.218-3.8,7.883-.958,2.945,3.676,4.206,4.629,1.276Z"/><path class="c" d="M50.187,227.183A82.127,82.127,0,0,0,55.7,218.7c.652-1.116,1.288-2.24,1.927-3.363a13.063,13.063,0,0,0,1.3-4.053,181.227,181.227,0,0,0,2.584-19.689,34.171,34.171,0,0,1,1.807-8.554c1-2.93-3.634-4.187-4.628-1.276a37.9,37.9,0,0,0-1.832,8.228c-.281,2.588-.369,5.192-.673,7.779-.414,3.529-1.067,7.047-1.6,10.56a20.43,20.43,0,0,1-.928,4.261c-.068.175.007,0-.17.322-.12.216-.245.43-.367.645q-.519.915-1.044,1.827a87.063,87.063,0,0,1-6.029,9.376,2.415,2.415,0,0,0,.861,3.284,2.459,2.459,0,0,0,3.283-.861Z"/><path class="c" d="M28.765,255.577q4.14-8,8.3-15.994,1.927-3.691,3.864-7.378c.9-1.7,1.975-3.514,2.736-5.183-.043.093-.6-.345-.055.028a4.848,4.848,0,0,0,.548.277q.521.261,1.044.517,1.35.66,2.71,1.3c1.985.933,3.981,1.842,5.981,2.743,4.4,1.982,8.823,3.92,13.237,5.874,4.01,1.775,8.024,3.549,11.987,5.43a5.307,5.307,0,0,1,1.117.545c.268.225.08.039.046-.057.282.791-.436,2.135-.694,2.867-.666,1.886-1.387,3.753-2.13,5.61-3.09,7.725-6.537,15.315-10.095,22.834-3.791,8.013-8.02,16.036-13.61,22.956-3.2,3.96-6.886,7.631-11.6,9.722a35.476,35.476,0,0,1-16.043,3.167,16.57,16.57,0,0,1-11.807-5.362,28.866,28.866,0,0,1-5.249-9.65c-2.559-7.291-3.472-15.053-3.947-22.7a180.538,180.538,0,0,1,.611-28.863,151.379,151.379,0,0,1,5.4-28.5q.948-3.176,2.094-6.287a2.421,2.421,0,0,0-1.676-2.952,2.451,2.451,0,0,0-2.953,1.676,138.305,138.305,0,0,0-6.923,29.672,186.1,186.1,0,0,0-1.555,31.1c.307,8.638,1.122,17.5,3.577,25.817C6.2,303.3,10.914,311.8,19.9,314.59c5.76,1.79,12.176,1.211,17.918-.344a34.192,34.192,0,0,0,14.968-8.13c7.661-7.264,13.085-17.035,17.645-26.45q5.4-11.154,10.173-22.614c.9-2.142,1.769-4.294,2.595-6.463a22.52,22.52,0,0,0,1.868-6.291,4.975,4.975,0,0,0-1.107-3.642,8.123,8.123,0,0,0-2.921-1.85c-1.933-.911-3.878-1.8-5.827-2.671-8.9-4-17.924-7.775-26.721-12.016-2.114-1.02-4.256-2.531-6.67-1.523-2.388,1-3.367,4.024-4.5,6.164q-4.2,7.966-8.338,15.963-2.189,4.214-4.368,8.432c-1.417,2.739,2.723,5.17,4.144,2.422Z"/><path class="c" d="M106.2,135.892c.515-.326,1.042-.629,1.586-.9a10.152,10.152,0,0,1,1.288-.572,17.675,17.675,0,0,1,2.075-.635,11.793,11.793,0,0,1,1.591-.282,39.978,39.978,0,0,1,4.239-.121c.586.018,1.171.05,1.755.106.15.014.3.03.449.048-.282-.041-.288-.041-.016,0,.239.043.477.085.714.138a2.4,2.4,0,0,0,1.276-4.629,27.209,27.209,0,0,0-8.7-.314,20.284,20.284,0,0,0-8.677,3.02,2.4,2.4,0,1,0,2.422,4.144Z"/><path class="c" d="M110.942,108.99c.29.869.559,1.744.816,2.623a19.632,19.632,0,0,1,.706,2.8l-.086-.638a2.418,2.418,0,0,1,0,.551l.086-.638a1.735,1.735,0,0,1-.064.248l.242-.573a1.256,1.256,0,0,1-.12.215l.375-.486a.738.738,0,0,1-.116.121l.485-.376a3.212,3.212,0,0,1-.606.345l.573-.242a2.805,2.805,0,0,1-.648.178l.638-.085a6.793,6.793,0,0,1-1.217-.068,2.413,2.413,0,0,0-2.4,2.4,2.458,2.458,0,0,0,2.4,2.4,9.249,9.249,0,0,0,1.011.084,5.164,5.164,0,0,0,2.379-.678,3.339,3.339,0,0,0,1.7-2.207,5.4,5.4,0,0,0-.111-2.384c-.395-1.641-.88-3.261-1.413-4.862a2.541,2.541,0,0,0-1.1-1.435,2.4,2.4,0,0,0-3.526,2.711Z"/><path class="c" d="M82.416,94.1c-.669,2.811.3,9.113,5.55,9.314,6.9-.489,6.767-8.176,4.211-11.628C90.084,88.954,84.413,88.09,82.416,94.1Z"/><path class="c" d="M137.44,90.526c1.027,2.7.885,9.075-4.3,9.953-6.9.406-7.766-7.234-5.678-10.988C129.172,86.418,134.684,84.829,137.44,90.526Z"/></svg>