<?xml version="1.0" encoding="utf-8"?>
<!-- Uploaded to: SVG Repo, www.svgrepo.com, Generator: SVG Repo Mixer Tools -->
<svg width="800px" height="800px" viewBox="0 -76.63 426.722 426.722" xmlns="http://www.w3.org/2000/svg"><defs><style>.a{fill:#b5886a;}.b{fill:#ffffff;}.c{fill:#211715;}.d{fill:#f4b3b3;}.e{fill:#7a7473;}</style></defs><path class="a" d="M38.009,34.18A50,50,0,0,0,32.1,47.94a48.052,48.052,0,0,0-1.519,14.02c.212,5.08,1.395,9.922,2.005,14.922a72.39,72.39,0,0,1,.777,13.808,105.331,105.331,0,0,1-2.641,19.948c-2.226,8.746-7.333,16.971-6.953,25.982a22.764,22.764,0,0,0,4,11.777s4.116,5.679,19.116,5.763a227.281,227.281,0,0,0,47.329-4.952c7.108-1.649,26.448-8.312,31.359-11.03,4.646-2.1,4.82-5.389,4.594-8.834-.161-2.449-2.422-9.352-2.553-14.332L134,74.669a80.366,80.366,0,0,0-.1-27.584c-1.591-7.757-5.473-16.413-10.724-22.306C114.083,14.57,100.731,8.544,84.3,8.116A48.039,48.039,0,0,0,52.615,18.209l-6.332,5.905A48.976,48.976,0,0,0,38.009,34.18Z"/><path class="b" d="M53.341,134.391l3.451-1.93c2.748-2.4,3.221-4.468,3.263-6.525.059-2.306.126-7.857.159-12.069a63.305,63.305,0,0,1-6.454-7.632s-2.093-2.989-2.995-4.707l-.347-.856a12.783,12.783,0,0,1-5.72-2.14,17.327,17.327,0,0,1-5.6-8.422c-1.219-3.412-1.294-8.917.513-11.909a5.975,5.975,0,0,1,5.328-2.816,6.621,6.621,0,0,1,4.623,1.606,19.167,19.167,0,0,0,8.993-1.276,45.557,45.557,0,0,0,6.083-3.055C71.169,68.8,84.269,57.753,92.082,49.4c-.257,3.516-.63,7.688-.913,11.007a1.622,1.622,0,0,0,2.212,1.616c11.4-4.346,21.736-11.429,28.737-21.419,1.764,2.277,3.683,5.435,7.821,13.871,2.117,4.318,3.262,9.73,3.984,21.243-.5,5.861-.813,11.66-1.209,17.063-.809,11.02-3.8,21.069-11.262,27.643-6.032,5.311-12.438,8.322-19.8,9.176,0,.33,0,.538,0,.538-.013,2.72-.025,3.96-.037,6.68a2.3,2.3,0,0,0,.239,1.267,2.269,2.269,0,0,0,.778.654q2.421,1.47,4.916,2.813c-.263,3.4-5.951,4.839-9.265,5.328-9.209,1.362-19.884-1.034-29.013-4.519a175.1,175.1,0,0,1-16.53-7.637Z"/><path class="b" d="M367.846,72.66a6.957,6.957,0,0,1,4.859-1.687c3.481.115,4.965,1.908,5.6,2.959,1.9,3.146,1.82,8.932.539,12.519a18.212,18.212,0,0,1-5.884,8.852A13.417,13.417,0,0,1,367,97.547c-.246.534-.416.905-.416.905-.947,1.806-3.148,4.948-3.148,4.948a66.742,66.742,0,0,1-6.656,7.895c0,.074,0,.113,0,.113.035,4.417.106,10.248.168,12.669.044,2.155.539,4.32,3.419,6.838l6.808,3a160.614,160.614,0,0,1-21.327,8.73c-9.973,3.25-22.423,6.957-32.8,5.423-3.753-.555-7.754-2.031-9.042-5.972q4.253-2.13,8.322-4.6a2.369,2.369,0,0,0,.815-.685,2.4,2.4,0,0,0,.251-1.327c-.013-2.851-.026-4.15-.039-7,0,0,0-.19,0-.49-7.845-.858-14.658-4.03-21.068-9.675-7.847-6.91-10.988-17.473-11.838-29.057-.49-6.679-.863-13.934-1.555-21.2,0,0-7.871-36.74,45.558-35.794C374.669,33.16,367.846,72.66,367.846,72.66Z"/><path class="c" d="M109.579,105.7c-.19.153-.359.331-.539.494-.126.114-.277.215-.4.336.06-.061.531-.377.206-.165-.092.06-.181.124-.273.182-.211.133-.43.245-.65.361-.363.191-.021-.051.125-.043a1.634,1.634,0,0,0-.43.159,9.266,9.266,0,0,1-1,.273c-.19.042-.38.075-.571.108-.659.114.506-.029-.2.021a22.374,22.374,0,0,1-2.641-.006q-.271-.031.116.021c-.1-.015-.2-.031-.3-.049-.162-.028-.324-.058-.485-.093q-.537-.114-1.063-.277c-.165-.052-.759-.373-.918-.329.17-.047.458.205.045.011-.118-.055-.235-.112-.35-.172a8.386,8.386,0,0,1-1-.6,2.411,2.411,0,0,0-3.284.861,2.464,2.464,0,0,0,.861,3.283,13.859,13.859,0,0,0,9.237,2.129,11.5,11.5,0,0,0,4.88-1.482,20.75,20.75,0,0,0,2.021-1.627,2.407,2.407,0,0,0,0-3.395,2.471,2.471,0,0,0-3.394,0Z"/><path class="c" d="M84.363,80.678c-.706,2.192-.331,7.262,3.834,7.747,5.512.039,5.886-6.079,4.068-8.982C90.777,77.066,86.323,76.028,84.363,80.678Z"/><path class="c" d="M115.106,79.538c-.544,2.267-.049,7.427,3.6,7.755,4.812-.183,4.936-6.445,3.254-9.335C120.585,75.591,116.663,74.711,115.106,79.538Z"/><path class="c" d="M105.007,92.078a36.4,36.4,0,0,1,2.062,3.857l-.242-.574a2.4,2.4,0,0,1,.163.562l-.085-.638a1.619,1.619,0,0,1,0,.231l.085-.638a.99.99,0,0,1-.055.214l.242-.573a.64.64,0,0,1-.077.128l.376-.486a2.647,2.647,0,0,1-.365.337l.486-.375a2.4,2.4,0,0,1-.438.256l.574-.242a2.324,2.324,0,0,1-.525.139l.638-.086c-.4.051-.8.086-1.2.144a2.393,2.393,0,0,0-1.434,1.1,2.4,2.4,0,0,0,.861,3.283l.573.242a2.4,2.4,0,0,0,1.276,0l.052-.007-.638.086a10.816,10.816,0,0,0,1.4-.185,4.656,4.656,0,0,0,1.922-1.09,3.162,3.162,0,0,0,1.048-2.4,5.069,5.069,0,0,0-.639-2.152c-.581-1.215-1.236-2.4-1.92-3.556a2.492,2.492,0,0,0-1.435-1.1,2.4,2.4,0,0,0-2.71,3.526Z"/><path class="c" d="M120.046,41.818a42.631,42.631,0,0,1,3.347,5.205c1.753,3.124,3.458,6.337,4.913,9.611.109.254.112.259.007.014.055.134.109.268.161.4.105.276.211.552.309.83.182.514.347,1.033.5,1.556a40.894,40.894,0,0,1,.966,4.191,103.259,103.259,0,0,1,1.244,11.628,2.457,2.457,0,0,0,2.4,2.4,2.421,2.421,0,0,0,2.4-2.4c-.455-6.921-.91-14.2-3.675-20.654a106.787,106.787,0,0,0-4.945-9.759A43.553,43.553,0,0,0,124.19,39.4a2.48,2.48,0,0,0-3.283-.861,2.416,2.416,0,0,0-.861,3.284Z"/><path class="c" d="M57.815,113.847q-.039,4.689-.108,9.377c-.018,1.147,0,2.309-.089,3.454-.043.527.049-.125-.055.357a6.541,6.541,0,0,1-.285,1.011,8.58,8.58,0,0,1-.768,1.286c-.24.311-.532.576-.8.862-.577.62-.2.242-.161.211a5.8,5.8,0,0,1-.511.286l-2.146,1.2-3.631,2.03c-2.7,1.507-.279,5.655,2.423,4.144,3.184-1.779,6.678-3.189,8.891-6.2,1.749-2.384,1.869-5.077,1.918-7.913.058-3.367.092-6.734.12-10.1.025-3.089-4.775-3.092-4.8,0Z"/><path class="c" d="M113.817,142.052q-4.759-2.271-9.3-4.975-.227-.135-.452-.271c-.105-.063-.21-.126-.313-.191q-.213-.141.064.079a2.59,2.59,0,0,1,.181.361q.033.366.019.1c-.006-.11-.007-.221,0-.331,0-.744.007-1.488.012-2.232q.012-2.225.025-4.448a2.4,2.4,0,0,0-4.8,0q-.012,2.382-.027,4.764a23.3,23.3,0,0,0,.02,2.576,4.173,4.173,0,0,0,2,3.224A81.406,81.406,0,0,0,111.4,146.2a2.4,2.4,0,0,0,2.422-4.145Z"/><path class="c" d="M125.22,115.012a50.312,50.312,0,0,0,1.515,9.469c.308,1.337.644,2.671.9,4.02.046.235.091.471.127.707-.082-.544,0,.048.007.136.033.584.061,1.168.047,1.754a5.99,5.99,0,0,1-.568,2.672,5.349,5.349,0,0,1-2.7,2.252c-1.266.591-2.546,1.155-3.818,1.732a2.417,2.417,0,0,0-.861,3.284,2.457,2.457,0,0,0,3.283.861c1.449-.658,2.949-1.252,4.358-1.991a9.5,9.5,0,0,0,5.033-7.713,22.451,22.451,0,0,0-.829-7.457,51.411,51.411,0,0,1-1.7-9.726c-.11-3.079-4.91-3.094-4.8,0Z"/><path class="c" d="M53.826,20.282c6.95-5.14,14.872-8.713,23.537-9.543a59.252,59.252,0,0,1,23.824,2.589,46.33,46.33,0,0,1,18.369,11.113A45.582,45.582,0,0,1,131.2,45.993a60.589,60.589,0,0,1,1.522,13.1,76.212,76.212,0,0,1-1.034,14.942,2.468,2.468,0,0,0,1.676,2.952,2.42,2.42,0,0,0,2.952-1.676c3.135-17.688,1.006-37.908-11.182-51.933C114.057,10.627,96.726,5.048,80.175,5.745A51.732,51.732,0,0,0,51.4,16.137a2.475,2.475,0,0,0-.861,3.284,2.418,2.418,0,0,0,3.284.861Z"/><path class="c" d="M51.262,75.294A9.624,9.624,0,0,0,40.4,74.172c-2.717,1.549-3.956,4.515-4.367,7.488-.951,6.887,1.713,14.757,7.455,18.944,2.916,2.126,7.324,3.193,10.8,2.074,2.928-.943,1.676-5.579-1.276-4.629-2.539.818-5.7-.285-7.606-2.057A15.855,15.855,0,0,1,41,88.061c-.654-2.774-.7-6.175.724-8.716.062-.111.455-.586.1-.176a5.4,5.4,0,0,1,.538-.553,4.886,4.886,0,0,1,1.149-.594,4.682,4.682,0,0,1,4.35.666,2.465,2.465,0,0,0,3.394,0,2.421,2.421,0,0,0,0-3.394Z"/><path class="c" d="M66.91,116.587a57.526,57.526,0,0,1-9.237-9.152c-.806-1-1.537-1.959-2.326-3.117a43.61,43.61,0,0,1-2.509-4,2.4,2.4,0,0,0-4.145,2.423,52.5,52.5,0,0,0,5.416,7.879,57.7,57.7,0,0,0,9.407,9.363,2.477,2.477,0,0,0,3.394,0,2.416,2.416,0,0,0,0-3.394Z"/><path class="c" d="M75.984,127.6c12.2,5.074,26.09,6.822,38.26.686A36.589,36.589,0,0,0,128.32,116.1c3.485-5.292,5.3-11.565,6.189-17.788,1.214-8.493,1.279-17.148,2.084-25.688a2.417,2.417,0,0,0-2.4-2.4,2.452,2.452,0,0,0-2.4,2.4c-.684,7.259-.933,14.553-1.617,21.81a44.652,44.652,0,0,1-4.5,16.714c-5.366,10.118-16.736,16.167-28.006,16.312-7.1.091-13.892-1.778-20.4-4.487a2.414,2.414,0,0,0-2.952,1.677,2.461,2.461,0,0,0,1.676,2.952Z"/><path class="c" d="M44.586,22.417a52.569,52.569,0,0,0-13.4,20.413,51.423,51.423,0,0,0-2.848,13,56.5,56.5,0,0,0,.753,14.024c.7,4.385,1.4,8.75,1.76,13.18a77.4,77.4,0,0,1-.208,12.415A87.768,87.768,0,0,1,28.59,109.28a113.46,113.46,0,0,1-4.119,12.188c-1.658,4.522-3.094,9.221-3.117,14.083A25.233,25.233,0,0,0,25.7,149.608c1.709,2.555,5.868.155,4.145-2.423a20.679,20.679,0,0,1-3.695-11.421,34.676,34.676,0,0,1,2.434-11.6c1.368-3.883,2.985-7.682,4.116-11.646A79.136,79.136,0,0,0,35.118,99a96.427,96.427,0,0,0,.715-12.684A103.471,103.471,0,0,0,34.582,73.91c-.66-4.369-1.561-8.694-1.63-13.129A45.807,45.807,0,0,1,34.685,47.6,47.608,47.608,0,0,1,47.98,25.811c2.26-2.116-1.139-5.5-3.394-3.394Z"/><path class="d" d="M11.869,164.725a35.706,35.706,0,0,1,8.106-10.8,62.33,62.33,0,0,1,11.3-7.447q10.623-5.93,21.235-11.866c5.568,2.7,9.8,5.1,16.766,7.748,9.12,3.49,19.8,5.88,29.01,4.52,2.74-.4,7.1-1.46,8.68-3.73l1.378-1.98c5.361,2.6,11.588,5.568,15.437,8.038a47.885,47.885,0,0,1,20.973,29.568c.971,4,1.952,8.941,2.553,13.014,1.4,9.585,4.611,53.52,6.529,78.769-14.452,0-131.986.485-151.22.491.5-26.221,1.485-70.965,2.5-79.8C6.148,182.208,7.847,172.737,11.869,164.725Z"/><path class="e" d="M342.507,3.242a66.983,66.983,0,0,0-9.949-.778c-15.509-.077-31.64,5.947-41.007,16.859-4.418,5.148-9.595,11.174-12,23.248-.964,4.841-2.184,11.894-.662,25.494l.181,1.624.211-1.018c.982-4.734,10.52-17.548,17.21-21.057.785-.411,1.792.146,2.11,1.457a8.613,8.613,0,0,1,.206,3.138,1.634,1.634,0,0,0,2.329,1.755c4.706-2.614,13.77-9.9,23.589-11.873a25.1,25.1,0,0,1,9.577,1.546c2.979,1.291,16.2,6.414,25.569,24.428a9.511,9.511,0,0,0,3.4,3.428,7.386,7.386,0,0,0,4.58,1.167,6.957,6.957,0,0,1,4.859-1.687c3.481.115,4.965,1.908,5.6,2.959a13,13,0,0,1,1.463,6.349c8.281-15.975,8.265-37.882-1.033-53.448a48.97,48.97,0,0,0-6.417-8.518L365.8,12.568A53.047,53.047,0,0,0,342.507,3.242Z"/><path class="b" d="M256.194,217.854c2.006-15.915,6.784-40.1,9.361-44.914a46.91,46.91,0,0,1,6.8-9.541,58.623,58.623,0,0,1,9.524-8.11c7.627-5.11,14.363-9.276,22.037-13.48,1.189,4.159,5.289,5.692,9.13,6.26,10.376,1.534,22.826-2.173,32.8-5.423a160.434,160.434,0,0,0,21.333-8.733,229.47,229.47,0,0,1,34.493,20.8A34.139,34.139,0,0,1,411.679,165.5a38.546,38.546,0,0,1,4.567,11.674,322.757,322.757,0,0,1,4.474,35.517c1.2,14.666,2.689,40.345,3.6,57.873-18.179,0-160,.5-182.94.5a54.305,54.305,0,0,1-8.316-11.329c-4-7.085-7.722-16.7-11.194-24.047-4.2-8.914-7.712-17.13-11.37-26.282,0,0-.229-.566-.468-1.131,7.368-3.728,25.258-12.563,31.946-16.114,1.936,3.567,9.212,19.776,13.719,29.713l.43-3.462Q256.16,218.132,256.194,217.854Z"/><path class="b" d="M176.907,148.162a4.372,4.372,0,0,1,1.917-3.671c2.169-1.041,5.4-.4,7.559,1.383l1.407-.1c.412-.03,1.065-.744,1.446-.9,1.962-.82,5.948-.1,7.576,1.265,5.537,4.653,10.484,10,16.2,13.865a28.623,28.623,0,0,0,3.356,1.981c-.149-.5-.239-.8-.239-.8-.687-2.306-2.293-6.138-2.391-7.954a4.624,4.624,0,0,1,.687-2.478,3.113,3.113,0,0,1,1.448-1.069,5.75,5.75,0,0,1,4.575,1.244,15.146,15.146,0,0,1,3.141,3.484c2.517,3.893,5.095,7.7,7.612,11.6a25.778,25.778,0,0,1,3.137,5.924,25.073,25.073,0,0,1,.9,5.2,42.7,42.7,0,0,1-.093,6.142c-.019.439-.045.886-.058,1.335a33.925,33.925,0,0,0,3.343,7.006l1.136,1.813c-6.333,3.272-17.335,8.739-24.828,12.489l-.714-1.294c-1.794-3.244-3.711-7.4-6.773-9.276-1.8-1.1-3.882-1.5-5.812-2.3a45.881,45.881,0,0,1-14.459-9.48,78.094,78.094,0,0,1-8.589-10.847c-1.868-2.838-3.491-5.095-2.982-6.758.322-1.051.719-1.75,1.441-1.886l1.836-.245c-2.706-2.969-5.417-6.465-4.908-8.829.652-3.029,2.79-3.579,4.952-3.441A4.382,4.382,0,0,1,176.907,148.162Z"/><path class="c" d="M102.019,140.708c9.648,4.959,20.19,8.819,28.049,16.562a45.615,45.615,0,0,1,9.232,13.078c2.474,5.248,3.688,10.966,4.764,16.635.293,1.545.566,3.095.807,4.649.058.379.111.758.169,1.137.026.172.077.639-.019-.146.019.156.041.312.06.468q.232,1.887.427,3.778c.371,3.556.692,7.117,1,10.678.853,9.76,1.616,19.529,2.368,29.3q1.3,16.857,2.555,33.716a2.46,2.46,0,0,0,2.4,2.4,2.419,2.419,0,0,0,2.4-2.4c-1.539-20.282-3-40.573-4.735-60.84-.589-6.868-1.071-13.79-2.2-20.6-1-6.027-2.151-12.18-4.42-17.875a51.179,51.179,0,0,0-8.873-14.66,52.263,52.263,0,0,0-14.389-11.432c-5.613-3.084-11.483-5.667-17.177-8.594-2.743-1.409-5.174,2.731-2.423,4.145Z"/><path class="c" d="M5.015,271.055C5.4,250.949,5.8,230.84,6.5,210.742c.221-6.346.317-12.749.967-19.071,1.082-10.519,3.2-21.736,9.335-30.58,3.963-5.713,9.725-9.206,15.681-12.538Q43.3,142.5,54.13,136.459c2.7-1.508.279-5.656-2.423-4.145Q41.971,137.76,32.228,143.2c-5.826,3.252-11.841,6.44-16.385,11.444-7.96,8.766-10.988,20.691-12.562,32.132-.908,6.606-1.175,13.236-1.43,19.894-.38,9.963-.645,19.93-.89,29.9Q.537,253.81.215,271.055c-.059,3.09,4.741,3.09,4.8,0Z"/><path class="c" d="M127.19,180.654c1.364,5.276,1.747,10.51,2.28,15.935.514,5.226,1,10.478,1.176,15.729.176,5.112-.442,10.3-.785,15.395-.373,5.54-.706,11.077-.92,16.625q-.505,13.146-1,26.293c-.111,3.089,4.689,3.085,4.8,0,.485-13.562.864-27.14,1.767-40.681.37-5.559,1-11.18.957-16.756-.037-4.895-.562-9.823-1.015-14.691-.589-6.345-1.034-12.936-2.634-19.125-.773-2.988-5.4-1.721-4.629,1.276Z"/><path class="c" d="M37.788,192.049c.469,7.751-.024,15.628-.241,23.38-.339,12.158-.785,24.314-1.246,36.468q-.361,9.531-.739,19.061c-.121,3.089,4.679,3.084,4.8,0q.693-17.7,1.339-35.4c.388-11.038.775-22.08.94-33.124.052-3.454.156-6.935-.053-10.386-.185-3.07-4.987-3.091-4.8,0Z"/><path class="c" d="M25.607,158.311A27.428,27.428,0,0,1,34,164.7a16.561,16.561,0,0,1,1.863,2.606q.419.72.774,1.473c.243.51.287.624.415.953.541,1.391.9,2.832,1.369,4.245a2.456,2.456,0,0,0,2.953,1.676,2.424,2.424,0,0,0,1.676-2.952c-.51-1.53-.9-3.089-1.506-4.588a23.462,23.462,0,0,0-3.945-6.57,32.151,32.151,0,0,0-9.57-7.379,2.452,2.452,0,0,0-3.284.861,2.426,2.426,0,0,0,.861,3.283Z"/><path class="c" d="M51.293,136.685c7.321,3.559,14.508,7.264,22.3,9.723,8.119,2.561,16.838,4.049,25.329,2.789,3.718-.551,7.768-1.7,10.114-4.833a2.414,2.414,0,0,0-.861-3.283,2.457,2.457,0,0,0-3.284.861c-1.274,1.7-4.988,2.295-7.106,2.606a41.319,41.319,0,0,1-11.2-.08,78.887,78.887,0,0,1-22.124-6.679c-3.634-1.644-7.164-3.5-10.75-5.248a2.463,2.463,0,0,0-3.284.861,2.422,2.422,0,0,0,.861,3.283Z"/><path class="c" d="M369.543,74.357a4.982,4.982,0,0,1,4.45-.8,4.449,4.449,0,0,1,1.482.7,6.275,6.275,0,0,1,.548.558q.172.206-.07-.1c.068.094.134.19.2.289,1.5,2.733,1.523,6.248.832,9.241a16.794,16.794,0,0,1-4.441,8.245c-2.073,2.011-5.508,3.338-8.351,2.42-2.946-.952-4.208,3.681-1.276,4.628,3.461,1.118,7.585.11,10.627-1.742a17.807,17.807,0,0,0,6.668-8.289A22.087,22.087,0,0,0,382.123,79.1c-.228-3.079-1.047-6.428-3.54-8.47a9.858,9.858,0,0,0-12.434.33,2.421,2.421,0,0,0,0,3.394,2.449,2.449,0,0,0,3.394,0Z"/><path class="c" d="M301.678,107.025c-.8-.586-.044,0,.236.224a9.786,9.786,0,0,0,1.544,1.076,12.252,12.252,0,0,0,5.243,1.317,14.8,14.8,0,0,0,9.806-2.992,2.406,2.406,0,0,0,0-3.4,2.476,2.476,0,0,0-3.395,0c.755-.589.173-.139-.024-.008s-.41.259-.622.377c-.257.145-.523.27-.787.4-.394.2.331-.106.039-.012-.169.055-.333.13-.5.19a13.542,13.542,0,0,1-2.269.574c.494-.083-.174.018-.279.028q-.363.031-.728.045c-.49.018-.982.01-1.471-.021-.22-.014-.44-.035-.659-.059.416.045.046.005-.157-.034a9.066,9.066,0,0,1-.947-.229c-.152-.045-.3-.1-.452-.148-.5-.163.111.023.1.052,0,.011-.639-.321-.686-.349-.189-.11-.368-.233-.548-.355-.451-.3.454.388-.006-.011-.33-.285-.662-.558-1.015-.816a2.409,2.409,0,0,0-3.283.861,2.468,2.468,0,0,0,.861,3.284Z"/><path class="c" d="M329.864,75.606c.847,2.268.7,7.609-3.653,8.319-5.786.306-6.473-6.1-4.7-9.236C322.956,72.122,327.583,70.817,329.864,75.606Z"/><path class="c" d="M297.528,75.887c.68,2.354.409,7.8-3.409,8.316-5.062.039-5.493-6.53-3.866-9.646C291.586,72.006,295.661,70.893,297.528,75.887Z"/><path class="c" d="M258.525,218.406a296.34,296.34,0,0,1,6.912-37.387,59.161,59.161,0,0,1,1.746-5.853c.065-.175.136-.347.2-.521.156-.419-.207.42-.02.05.215-.427.426-.848.661-1.266a50.168,50.168,0,0,1,2.827-4.435c4.6-6.484,11.129-10.988,17.717-15.235q11.565-7.456,23.819-13.722c2.748-1.413.323-5.557-2.423-4.145-7.442,3.827-14.723,7.946-21.792,12.426-6.963,4.413-14.078,8.968-19.333,15.445a42.1,42.1,0,0,0-5.594,8.45,35.676,35.676,0,0,0-1.9,5.533c-1.627,5.839-2.831,11.8-3.965,17.755-1.446,7.595-2.7,15.232-3.653,22.905a2.413,2.413,0,0,0,2.4,2.4,2.459,2.459,0,0,0,2.4-2.4Z"/><path class="c" d="M302.857,145.179c2.727,3.724,6.993,4.965,11.4,5.444a49.567,49.567,0,0,0,13.589-.713,138.245,138.245,0,0,0,26.723-7.831c4.625-1.8,9.149-3.841,13.619-5.994a2.421,2.421,0,0,0,.861-3.283,2.449,2.449,0,0,0-3.283-.861,174.762,174.762,0,0,1-22.9,9.146c-7.966,2.535-16.261,4.94-24.688,4.938-3.5,0-8.866-.114-11.176-3.269a2.472,2.472,0,0,0-3.284-.861,2.419,2.419,0,0,0-.861,3.284Z"/><path class="c" d="M366.076,136.038A233.055,233.055,0,0,1,396.2,153.71c4,2.794,8.087,5.664,11.1,9.558a35.269,35.269,0,0,1,6.474,13.774c2.363,10.715,3.378,21.82,4.305,32.735.778,9.175,1.38,18.365,1.951,27.555q1.031,16.61,1.887,33.228c.16,3.074,4.961,3.093,4.8,0-1-19.3-2.033-38.609-3.6-57.87-.931-11.465-2.151-22.907-4.2-34.232a42.1,42.1,0,0,0-5.827-15.244,40.944,40.944,0,0,0-10.551-10.828,222.9,222.9,0,0,0-34.04-20.493,2.459,2.459,0,0,0-3.283.861,2.422,2.422,0,0,0,.861,3.284Z"/><path class="c" d="M354.379,111.408q.042,5.254.124,10.507c.05,2.945.153,5.757,1.945,8.247a9.185,9.185,0,0,0,2.971,2.942c.745.368,1.529.674,2.289,1.009l4.368,1.925a2.477,2.477,0,0,0,3.283-.861,2.418,2.418,0,0,0-.861-3.284l-3.968-1.749-2.382-1.05a5,5,0,0,1-.54-.238c.367.219-.177-.222-.309-.355a9.578,9.578,0,0,1-.706-.761c-1.545-1.939-1.259-3.879-1.3-6.417q-.078-4.957-.114-9.915c-.025-3.087-4.825-3.094-4.8,0Z"/><path class="c" d="M304.429,86.185a47.408,47.408,0,0,0-2.087,4.4l.242-.574a5.331,5.331,0,0,0-.61,2.215,3.156,3.156,0,0,0,1.184,2.487,4.528,4.528,0,0,0,1.972,1.02c.481.089.951.1,1.432.145a2.408,2.408,0,0,0,1.7-.7,2.4,2.4,0,0,0,0-3.394,2.717,2.717,0,0,0-1.7-.7c-.242-.024-.485-.019-.726-.049l.638.086a2.294,2.294,0,0,1-.5-.136l.574.242a2.607,2.607,0,0,1-.48-.278l.485.376a2.864,2.864,0,0,1-.315-.277l.375.486a.949.949,0,0,1-.117-.2l.242.573a.856.856,0,0,1-.038-.151l.086.638a1.49,1.49,0,0,1,0-.327l-.086.638a3.045,3.045,0,0,1,.2-.679l-.242.574q.195-.454.385-.911l-.242.574c.526-1.243,1.14-2.455,1.772-3.647a2.532,2.532,0,0,0,.242-1.85,2.4,2.4,0,0,0-4.387-.573Z"/><path class="c" d="M353.094,117.763a60.6,60.6,0,0,0,9.888-9.842,54.972,54.972,0,0,0,5.674-8.257,2.451,2.451,0,0,0-.861-3.284,2.426,2.426,0,0,0-3.283.861A55.619,55.619,0,0,1,349.7,114.369a2.414,2.414,0,0,0,0,3.394,2.459,2.459,0,0,0,3.394,0Z"/><path class="c" d="M338.767,121.108a55.481,55.481,0,0,1-19.308,4.7,35.1,35.1,0,0,1-17.245-3.544,33.4,33.4,0,0,1-13.3-11.6,42.807,42.807,0,0,1-5.647-17.145c-.517-3.89-.677-7.831-.935-11.744-.3-4.573-.616-9.146-1.046-13.709a2.466,2.466,0,0,0-2.4-2.4,2.417,2.417,0,0,0-2.4,2.4c.755,8.008.94,16.076,1.817,24.07.735,6.707,2.26,13.408,5.536,19.364,6.452,11.732,19.823,18.817,33,19.121,8.034.186,15.831-1.815,23.206-4.883a2.482,2.482,0,0,0,1.676-2.953,2.415,2.415,0,0,0-2.952-1.676Z"/><path class="c" d="M370.622,20.013C382.087,32.281,385.688,50.071,382.2,66.26a51.847,51.847,0,0,1-4.5,12.8c-1.408,2.743,2.732,5.174,4.145,2.423a60.152,60.152,0,0,0,1.268-51.468,50.774,50.774,0,0,0-9.1-13.4c-2.113-2.261-5.5,1.138-3.394,3.4Z"/><path class="c" d="M281.289,68.065a101.45,101.45,0,0,1-.688-14.037c.048-1.63.15-3.259.319-4.881.144-1.385.234-2.038.5-3.585,1.312-7.557,3.875-14.53,8.584-20.639a56.779,56.779,0,0,1,7.163-7.856A46,46,0,0,1,308.078,10.1a58.251,58.251,0,0,1,26.629-5.188,53.95,53.95,0,0,1,29.878,9.732,2.418,2.418,0,0,0,3.284-.861,2.453,2.453,0,0,0-.861-3.283C350.858-1.173,328.019-2.89,309.664,4.241a53.727,53.727,0,0,0-12.618,6.809,52.324,52.324,0,0,0-9.072,8.792,51.8,51.8,0,0,0-6.288,9.176,49.619,49.619,0,0,0-4.519,13.269,84.438,84.438,0,0,0-.678,25.778,2.471,2.471,0,0,0,2.4,2.4,2.416,2.416,0,0,0,2.4-2.4Z"/><path class="c" d="M333.04,45.69a47.462,47.462,0,0,1,18.316,13.684,57.66,57.66,0,0,1,6.443,9.9c1.435,2.736,5.579.313,4.144-2.423-5.2-9.909-13-18.692-23.095-23.767-1.11-.558-2.247-1.048-3.386-1.541a2.478,2.478,0,0,0-3.283.861,2.417,2.417,0,0,0,.861,3.283Z"/><path class="c" d="M281.6,69.309c.577-2.6,2.67-5.6,4.521-8.163a52.141,52.141,0,0,1,8.312-9.192A18.412,18.412,0,0,1,296.2,50.6a8.771,8.771,0,0,0,1.083-.678c.215-.2.088-.071.089-.084q-1.466-.729-1.114-.255a.165.165,0,0,1,.031.13,16.323,16.323,0,0,0,.173,1.8,7.3,7.3,0,0,0,.025,1.671,4.069,4.069,0,0,0,2.606,3.124c2.165.762,4.021-.683,5.757-1.794,1.769-1.131,3.517-2.293,5.3-3.4,4.864-3.016,9.985-5.706,15.654-6.8a2.423,2.423,0,0,0,1.677-2.952,2.451,2.451,0,0,0-2.953-1.677,47.68,47.68,0,0,0-15.038,6.21c-2.012,1.19-3.97,2.466-5.931,3.737-.8.517-1.593,1.034-2.4,1.53a9.425,9.425,0,0,0-.938.558c-.48.379-.383-.172.412.057a4.468,4.468,0,0,1,.577.426c.2-.116.037-1.642.021-1.829a9.734,9.734,0,0,0-.428-2.318,4.321,4.321,0,0,0-2.929-2.877c-2.182-.548-4.34,1.372-5.923,2.627a53,53,0,0,0-9.095,9.72c-2.314,3.056-5.037,6.679-5.886,10.5-.669,3.009,3.958,4.3,4.629,1.276Z"/><path class="c" d="M303.087,145.209a91.78,91.78,0,0,0,10.636-5.754,4.212,4.212,0,0,0,2.039-3.28c.084-.892.027-1.805.022-2.7q-.015-2.5-.029-4.992a2.4,2.4,0,1,0-4.8,0q.011,2.277.026,4.552c0,.816.018,1.633.013,2.449v.23c-.015.262-.014.309,0,.139.022-.023.162-.4.17-.421l.137-.122c-.1.063-.2.125-.3.185-.2.12-.4.239-.592.357q-4.746,2.835-9.743,5.213a2.412,2.412,0,0,0-.861,3.283,2.464,2.464,0,0,0,3.284.861Z"/><path class="c" d="M393.453,156.844a33.941,33.941,0,0,0-5.35,3.782,35.891,35.891,0,0,0-8.8,10.535,28.263,28.263,0,0,0-3.05,8.932,2.477,2.477,0,0,0,1.677,2.953,2.418,2.418,0,0,0,2.952-1.677,24.347,24.347,0,0,1,2.243-7.163,29.24,29.24,0,0,1,1.8-3.084,23.546,23.546,0,0,1,1.815-2.418,37.128,37.128,0,0,1,4.291-4.3q.448-.383.909-.753c.075-.06.591-.465.335-.267-.239.185.228-.171.31-.232q.771-.575,1.571-1.109c.557-.371,1.123-.739,1.713-1.057,2.718-1.47.3-5.616-2.423-4.145Z"/><path class="c" d="M383.606,270.666l-.438-23.492-.7-37.467-.161-8.629c-.058-3.085-4.858-3.1-4.8,0l.438,23.492.7,37.467.161,8.629c.058,3.085,4.858,3.1,4.8,0Z"/><path class="c" d="M271.388,186.457l-.177,28.748-.28,45.428-.064,10.343c-.019,3.089,4.781,3.092,4.8,0l.177-28.748.281-45.429.063-10.342c.019-3.09-4.781-3.093-4.8,0Z"/><path class="c" d="M243.063,269.349c-6.156-6.357-9.992-14.356-13.547-22.355-3.7-8.325-7.57-16.579-11.191-24.939-2.069-4.778-3.971-9.622-5.98-14.424l-1.1,2.71c10.64-5.381,21.409-10.528,31.945-16.114l-3.284-.861c2.305,4.271,4.214,8.785,6.229,13.2,2.68,5.87,5.327,11.755,8,17.631.914,2.011,1.817,4.03,2.773,6.022a2.422,2.422,0,0,0,3.283.861,2.452,2.452,0,0,0,.861-3.284c-4.9-10.207-9.318-20.646-14.111-30.9-.931-1.993-1.841-4.008-2.886-5.945a2.443,2.443,0,0,0-3.284-.861c-10.535,5.587-21.3,10.733-31.945,16.114a2.4,2.4,0,0,0-1.1,2.711c3.74,8.935,7.359,17.9,11.465,26.676,3.78,8.082,6.971,16.483,11.239,24.329a58.594,58.594,0,0,0,9.249,12.831c2.153,2.223,5.545-1.173,3.394-3.394Z"/><path class="c" d="M237.533,186.314a64.1,64.1,0,0,1,.179-6.829,30.719,30.719,0,0,0-.676-6.706c-.937-4.456-3.93-8.268-6.387-11.993-1.317-1.994-2.64-3.985-3.947-5.985a23.659,23.659,0,0,0-4.237-5.31c-3.2-2.727-8.917-3.616-10.68,1.208-1.346,3.686.963,7.639,2.026,11.117.9,2.946,5.534,1.69,4.628-1.276-.552-1.808-1.255-3.567-1.812-5.374-.13-.422-.255-.847-.358-1.277-.046-.188-.088-.377-.124-.568.014.207.01.174-.011-.1-.008-.367.034-1.1.484-1.3-.29.129.306.042.465.058a3.6,3.6,0,0,1,1.23.409,7.608,7.608,0,0,1,2,1.695,45.081,45.081,0,0,1,4.083,5.936c1.406,2.128,2.817,4.252,4.207,6.39a29.734,29.734,0,0,1,3.273,5.734,20.422,20.422,0,0,1,1.04,6.868c.007,2.429-.406,4.877-.183,7.3a2.465,2.465,0,0,0,2.4,2.4,2.417,2.417,0,0,0,2.4-2.4Z"/><path class="c" d="M176.2,161.753a5.03,5.03,0,0,0-3.292,4.693c-.084,1.866.946,3.661,1.9,5.188a88.587,88.587,0,0,0,8.475,11.45,43.709,43.709,0,0,0,9.688,8.253,59.689,59.689,0,0,0,11.361,5.262c4,1.478,5.693,5.745,7.605,9.227,1.488,2.708,5.634.289,4.145-2.423-1.682-3.061-3.237-6.439-5.885-8.81-2.815-2.522-6.644-3.094-9.961-4.709a44.413,44.413,0,0,1-9.422-6,52.777,52.777,0,0,1-7.968-8.942c-1.367-1.858-2.669-3.775-3.893-5.73a8.989,8.989,0,0,1-1.2-2.324c-.067-.252-.059-.309-.043-.368.143-.53.353-.314-.234-.137,2.951-.887,1.694-5.521-1.276-4.629Z"/><path class="c" d="M178.039,149.134c-3.786.121-7.075,2.955-6.693,6.994.33,3.494,3.067,6.534,5.307,9.031a114.755,114.755,0,0,0,15.717,14.485,2.416,2.416,0,0,0,3.284-.861,2.462,2.462,0,0,0-.861-3.284,111.9,111.9,0,0,1-12.824-11.669,31.625,31.625,0,0,1-5.305-6.594,4.779,4.779,0,0,1-.534-1.38c-.035-.176-.038-.164-.011.035a3.361,3.361,0,0,1-.008-.46c-.093.589.151-.486.182-.553.395-.854.928-.918,1.746-.944,3.081-.1,3.095-4.9,0-4.8Z"/><path class="c" d="M201.6,169.494c-4.152-3.534-8.21-7.179-12.2-10.892q-2.955-2.747-5.848-5.561-1.26-1.231-2.5-2.484c-.589-.6-1.577-1.334-1.732-2.172a1.747,1.747,0,0,1,.17-1.111c-.067.163.518-.819.3-.492.141-.209.558-.33.112-.142.053-.022.11-.056.159-.07a4.272,4.272,0,0,1,1.7-.16c1.932.212,3.152,1.365,4.463,2.651,3.013,2.955,6.023,5.912,9.075,8.826,3.44,3.285,6.892,6.622,10.645,9.553a2.479,2.479,0,0,0,3.394,0,2.415,2.415,0,0,0,0-3.394c-7.352-5.741-13.855-12.645-20.513-19.156-3.541-3.463-11.042-5.316-13.616.273-1.42,3.085-.384,5.892,1.877,8.2,1.953,2,3.958,3.942,5.983,5.866,4.927,4.681,9.969,9.25,15.145,13.655a2.464,2.464,0,0,0,3.394,0,2.42,2.42,0,0,0,0-3.394Z"/><path class="c" d="M219.5,160.873a45.242,45.242,0,0,1-8.172-5.076c-2.9-2.321-5.592-4.878-8.327-7.384-2.384-2.184-4.721-4.794-7.9-5.742a12.46,12.46,0,0,0-4.229-.534,8.246,8.246,0,0,0-2.149.374,4.62,4.62,0,0,0-1.022.5c-.183.118-.876.552-.541.452-2.955.876-1.7,5.51,1.276,4.629a8.689,8.689,0,0,0,1.808-1.025c-.317.177.32-.089.391-.1-.255.046.335-.027.393-.029a8.161,8.161,0,0,1,3.412.572,11.775,11.775,0,0,1,2.95,2.294c1.318,1.173,2.613,2.37,3.911,3.565,2.591,2.387,5.2,4.748,8,6.894a47.636,47.636,0,0,0,7.782,4.762c2.754,1.381,5.187-2.758,2.423-4.145Z"/><path class="c" d="M196.964,179.191a65.332,65.332,0,0,1,15.548-12.8,2.4,2.4,0,1,0-2.423-4.145,70.49,70.49,0,0,0-16.52,13.55,2.455,2.455,0,0,0,0,3.394,2.424,2.424,0,0,0,3.4,0Z"/><path class="c" d="M193.581,180.848c1.361-.042,2.724-.059,4.083.022a15.646,15.646,0,0,1,3.31.478,16.118,16.118,0,0,1,1.553.466c.08.028.9.371.5.188.21.1.419.195.624.3a12.223,12.223,0,0,1,1.384.824c.126.086.25.176.373.268-.184-.14-.167-.121.052.055.225.21.455.411.672.629a2.4,2.4,0,1,0,3.395-3.394c-4.211-4.208-10.3-4.808-15.947-4.636a2.4,2.4,0,1,0,0,4.8Z"/><path class="c" d="M424.318,268.162q-11.51,0-23.019.05-20.247.056-40.494.119l-46.963.143q-21.384.065-42.767.123-13.926.038-27.852.061h-1.857c-3.089,0-3.094,4.8,0,4.8q12.624,0,25.248-.05,20.82-.054,41.64-.118,23.514-.07,47.028-.144,20.877-.063,41.755-.123,12.879-.036,25.757-.061h1.524c3.089,0,3.094-4.8,0-4.8Z"/><path class="c" d="M153.834,268.162c-6.285,0-12.571.028-18.857.048q-16.826.056-33.651.118l-39.085.141q-17.817.065-35.635.123-11.406.038-22.81.06H2.318c-3.088,0-3.093,4.8,0,4.8q10.317,0,20.635-.049,17.284-.054,34.57-.118l39.137-.141q17.412-.063,34.823-.123,10.569-.036,21.137-.059h1.214c3.089,0,3.094-4.8,0-4.8Z"/><path class="c" d="M204.442,196.63a12.083,12.083,0,0,0,2.789.72,48.5,48.5,0,0,0,5.016.511,2.417,2.417,0,0,0,2.4-2.4,2.452,2.452,0,0,0-2.4-2.4q-1.886-.087-3.756-.336l.638.085a13.832,13.832,0,0,1-3.411-.809,2.4,2.4,0,0,0-1.85.242,2.4,2.4,0,0,0-.861,3.284,2.824,2.824,0,0,0,1.435,1.1Z"/><path class="c" d="M233.392,186.927a38.07,38.07,0,0,0,2.957,5.89,2.513,2.513,0,0,0,1.434,1.1,2.452,2.452,0,0,0,1.849-.242,2.42,2.42,0,0,0,1.1-1.434,2.453,2.453,0,0,0-.242-1.85,34.758,34.758,0,0,1-2.527-4.863l.242.573c-.063-.151-.126-.3-.187-.453a2.69,2.69,0,0,0-1.1-1.434,2.4,2.4,0,0,0-3.284.861,2.325,2.325,0,0,0-.242,1.849Z"/><path class="c" d="M59.2,78.03c6.562-2.654,12.152-6.871,17.6-11.311A173.235,173.235,0,0,0,93.779,51.1l-4.1-1.7q-.215,2.9-.465,5.8a43.306,43.306,0,0,0-.444,5.525,4.042,4.042,0,0,0,3.855,3.8c1.789.05,3.709-1.09,5.313-1.792a66.442,66.442,0,0,0,18.091-11.62,56.974,56.974,0,0,0,8.158-9.291,2.42,2.42,0,0,0-.861-3.284,2.451,2.451,0,0,0-3.283.861,54.827,54.827,0,0,1-17.03,15.362q-2.589,1.529-5.306,2.824c-.846.4-1.7.794-2.56,1.163a17.506,17.506,0,0,0-2.407.968c.023-.274,1.07.638.826.7a11.886,11.886,0,0,0,.136-1.587q.129-1.485.256-2.969c.184-2.15.362-4.3.521-6.451.154-2.083-2.727-3.156-4.1-1.7a173.051,173.051,0,0,1-16.4,15.145C69.067,66.89,63.871,70.994,57.92,73.4a2.475,2.475,0,0,0-1.676,2.952A2.417,2.417,0,0,0,59.2,78.03Z"/></svg>