<?xml version="1.0" encoding="UTF-8" standalone="no"?>
<!-- Uploaded to: SVG Repo, www.svgrepo.com, Generator: SVG Repo Mixer Tools -->

<svg
   width="1593.1621"
   height="572.97595"
   viewBox="0 0 127.45297 45.838076"
   version="1.1"
   id="svg483"
   sodipodi:docname="logo.svg"
   inkscape:version="1.2.2 (b0a84865, 2022-12-01)"
   xml:space="preserve"
   xmlns:inkscape="http://www.inkscape.org/namespaces/inkscape"
   xmlns:sodipodi="http://sodipodi.sourceforge.net/DTD/sodipodi-0.dtd"
   xmlns="http://www.w3.org/2000/svg"
   xmlns:svg="http://www.w3.org/2000/svg"><defs
     id="defs487" /><sodipodi:namedview
     id="namedview485"
     pagecolor="#ffffff"
     bordercolor="#999999"
     borderopacity="1"
     inkscape:showpageshadow="0"
     inkscape:pageopacity="0"
     inkscape:pagecheckerboard="0"
     inkscape:deskcolor="#d1d1d1"
     showgrid="false"
     inkscape:zoom="0.46493734"
     inkscape:cx="1008.7381"
     inkscape:cy="321.54871"
     inkscape:window-width="1859"
     inkscape:window-height="999"
     inkscape:window-x="61"
     inkscape:window-y="25"
     inkscape:window-maximized="0"
     inkscape:current-layer="svg483" /><path
     d="m 50.907838,33.285691 -6.4,8.81 c 0.126398,0.51352 0.219921,1.034577 0.28,1.56 -0.282007,1.515677 -1.785428,2.478233 -3.28,2.1 -1.313331,-0.131056 -2.371009,-1.135233 -2.57,-2.44 -0.03,-0.09 -12.53,-8.59 -12.53,-8.59 -1.409121,0.358871 -2.84093,-0.498419 -3.19,-1.91 -0.96,-2.59 1.91,-3.28 1.91,-3.28 l 0.59,-8.47 c -0.481403,-0.204346 -0.886955,-0.553959 -1.16,-1 -0.332652,-0.436662 -0.426362,-1.010166 -0.25,-1.53 l -6.56,-4.6 c -1.270607,0.193227 -2.552117,-0.274147 -3.4,-1.24 -0.702988,-0.951269 -0.727062,-2.243202 -0.06,-3.2199997 l -1.78,-4.1 c -0.704368,0.212917 -1.462424,0.159533 -2.13,-0.15 -0.6394962,-0.330037 -1.0295732,-1.000969 -1.0000002,-1.72 0.03,-0.1 -3.68,-0.1 -3.68,-0.1 -0.02909,0.748209 -0.331512,1.459784 -0.85,2 -0.94,1.22 -4.03000002,0.82 -4.72000002,-1.09 -0.5763313,-1.949579 0.867227,-3.91082746 2.90000002,-3.93999996 1.1311363,-0.059046 2.150746,0.67756996 2.45,1.76999996 l 4.15,0.07 c 0.212796,-0.592412 0.5091222,-1.151391 0.8800002,-1.65999996 0.4,-0.41 2.62,-1.18 3.84,0.38 1.22,1.55999996 -0.09,3.74999996 -0.09,3.74999996 l 1.22,3.93 c 0.252696,-0.09712 0.513799,-0.170763 0.78,-0.22 1.145821,-0.150713 2.272238,0.390909 2.87,1.38 0.487002,0.9970427 0.487002,2.1629567 0,3.1599997 l 6.22,3.75 c 0.911627,-1.133211 2.504777,-1.449312 3.78,-0.75 1.301946,0.69119 1.996845,2.154134 1.71,3.6 0.09,0.12 17.84,7.37 17.84,7.37 0.491634,-0.147511 0.992812,-0.261111 1.5,-0.34 0.66,-0.09 3.29,-0.31 4,3.06 0.72,3.38 -3.27,3.66 -3.27,3.66 z m -1.12,-0.82 c -0.579702,-0.437806 -1.060223,-0.993302 -1.41,-1.63 -0.447638,-0.587924 -0.574971,-1.359413 -0.34,-2.06 0,0 -2.51,-0.93 -5.91,-2.31 -3.4,-1.38 -12,-5.53 -12,-5.53 0,0 -0.1,0.29 -1.2,0.75 -0.569832,0.284942 -1.223966,0.352489 -1.84,0.19 -0.06,0 -0.25,7.63 -0.25,7.63 0.859498,0.262268 1.579178,0.856003 2,1.65 0.94,1.47 -0.56,3 -0.56,3 l 11.94,7.13 c 0.438961,-0.246542 0.897117,-0.457227 1.37,-0.63 0.665971,-0.152511 1.365292,-0.0024 1.91,0.41 z"
     fill="#1d1d1b"
     id="path465"
     style="fill:#ececec;stroke:#808080;stroke-opacity:1;stroke-width:0.8;stroke-dasharray:none"
     sodipodi:nodetypes="ccccccccccccccccccccccccscccccccccccccccscccccccccc" /><path
     d="m 2.0878378,4.5356913 c 1.16,0.81 2.59,0.34 2.47,-1.25 -0.013236,-1.344852 -1.5295561,-2.123191 -2.63,-1.35 -0.8341339,0.700142 -0.7536863,2.007416 0.16,2.6 z"
     fill="#cbe7f5"
     id="path467"
     sodipodi:nodetypes="cccc"
     style="stroke:#808080;stroke-width:0.8;stroke-dasharray:none" /><g
     fill="#ffe19b"
     id="g475"
     transform="translate(-4.8721622,-9.0643087)"><path
       d="m 15.9,10.47 a 1.66,1.66 0 0 1 2.62,1.35 c 0.13,1.59 -1.31,2.06 -2.47,1.25 a 1.62,1.62 0 0 1 -0.15,-2.6 z"
       id="path469"
       style="stroke:#808080;stroke-width:0.8;stroke-dasharray:none" /><path
       d="m 20.55,18.94 a 1.67,1.67 0 0 1 2.63,1.35 c 0.12,1.59 -1.31,2.06 -2.47,1.25 a 1.62,1.62 0 0 1 -0.16,-2.6 z"
       id="path471"
       style="stroke:#808080;stroke-width:0.8;stroke-dasharray:none" /><path
       d="m 31.3,26.35 a 2,2 0 0 1 3.19,1.5 c 0.13,1.59 -2,2.19 -3.19,1.37 a 1.84,1.84 0 0 1 0,-2.87 z"
       id="path473"
       style="stroke:#808080;stroke-width:0.8;stroke-dasharray:none" /></g><path
     d="m 49.307838,29.505691 c -0.05,1.41 1.62,2.92 2.89,1.92 1.28766,-0.939065 1.013364,-2.933425 -0.48,-3.49 -1.121014,-0.371279 -2.2966,0.394559 -2.41,1.57 z"
     fill="#cbe7f5"
     id="path477"
     sodipodi:nodetypes="cccc"
     style="stroke:#808080;stroke-width:0.8;stroke-dasharray:none" /><path
     d="m 24.967838,33.435691 c 1.01,0.7 2.88,0.19 2.77,-1.2 -0.106701,-1.360951 -1.654966,-2.087573 -2.77,-1.3 -0.801668,0.640532 -0.801668,1.859468 0,2.5 z"
     fill="#cbe7f5"
     id="path479"
     sodipodi:nodetypes="cccc"
     style="stroke:#808080;stroke-width:0.8;stroke-dasharray:none" /><path
     d="m 40.817838,44.505691 c 1,0.7 2.87,0.19 2.77,-1.2 -0.106701,-1.360951 -1.654966,-2.087573 -2.77,-1.3 -0.809801,0.6366 -0.809801,1.8634 0,2.5 z"
     fill="#ffe19b"
     id="path481"
     sodipodi:nodetypes="cccc"
     style="stroke:#808080;stroke-width:0.8;stroke-dasharray:none" /><g
     id="g2623"
     transform="matrix(1.1539938,0,0,1.1539938,60.01563,-13.568357)"><path
       d="M 10.53,37.52 A 3.27,3.27 0 0 1 6.71,37.3 c -1.9,-1.53 -1.09,-3.53 0,-4.62 1.09,-1.09 4.28,-1.1 5,0.62 a 2.85,2.85 0 0 1 0,2.69 l 11.32,8.75 a 2,2 0 0 1 1.25,-0.53 3.44,3.44 0 0 1 1.34,0.12 l 6.56,-12.59 a 3.06,3.06 0 0 1 0.57,-3.25 2.78,2.78 0 0 1 4.25,0.31 2.41,2.41 0 0 1 0.15,2 l 8.72,6.87 7.91,-18.9 A 3.68,3.68 0 0 1 53,16.18 a 2.62,2.62 0 0 1 3.21,-2.44 2.85,2.85 0 0 1 1.91,4.09 3.79,3.79 0 0 1 -2.78,1.81 l -7.5,17.82 a 2,2 0 0 1 0.94,2.62 2.71,2.71 0 0 1 -4.1,1.25 c -1,-0.81 -0.28,-2.75 -0.28,-2.75 l -8,-6.5 a 3.06,3.06 0 0 1 -1.28,0.56 4.47,4.47 0 0 1 -1.81,-0.06 L 27.06,45 c 0,0 1.68,2.4 -0.07,4.31 a 2.84,2.84 0 0 1 -4.65,-0.5 4.09,4.09 0 0 1 -0.6,-2.41 z"
       fill="#1d1d1b"
       id="path2596"
       style="fill:#ececec;stroke:#808080;stroke-opacity:1;stroke-width:0.69324463;stroke-dasharray:none" /><path
       d="m 8.15,33.27 a 2,2 0 0 1 2.78,1.41 2,2 0 0 1 -2.72,2.15 1.86,1.86 0 0 1 -0.06,-3.56 z"
       fill="#cbe7f5"
       id="path2598"
       style="stroke:#808080;stroke-width:0.69324463;stroke-dasharray:none" /><g
       fill="#ffe19b"
       id="g2606"><path
         d="m 24.18,45.71 a 1.65,1.65 0 0 1 2.32,1.18 1.7,1.7 0 0 1 -2.27,1.8 1.55,1.55 0 0 1 -0.05,-2.98 z"
         id="path2600"
         style="stroke:#808080;stroke-width:0.69324463;stroke-dasharray:none" /><path
         d="m 34.13,29 a 1.37,1.37 0 0 1 1.94,1 1.43,1.43 0 0 1 -1.9,1.51 A 1.3,1.3 0 0 1 34.13,29 Z"
         id="path2602"
         style="stroke:#808080;stroke-width:0.69324463;stroke-dasharray:none" /><path
         d="m 55.16,15.16 a 1.53,1.53 0 0 1 2.16,1.1 1.59,1.59 0 0 1 -2.11,1.67 1.44,1.44 0 0 1 -0.05,-2.77 z"
         id="path2604"
         style="stroke:#808080;stroke-width:0.69324463;stroke-dasharray:none" /></g><path
       d="m 46.11,38.49 a 1.17,1.17 0 0 1 1.65,0.83 1.21,1.21 0 0 1 -1.61,1.28 1.1,1.1 0 0 1 -0.04,-2.11 z"
       fill="#cbe7f5"
       id="path2608"
       style="stroke:#808080;stroke-width:0.69324463;stroke-dasharray:none" /></g></svg>
