<?xml version="1.0" encoding="UTF-8"?>
<!-- Generator: Adobe Illustrator 17.1.0, SVG Export Plug-In . SVG Version: 6.00 Build 0)  -->
<!DOCTYPE svg PUBLIC "-//W3C//DTD SVG 1.1//EN" "http://www.w3.org/Graphics/SVG/1.1/DTD/svg11.dtd">
<svg version="1.1" id="Layer_1" xmlns="http://www.w3.org/2000/svg" xmlns:xlink="http://www.w3.org/1999/xlink" x="0px" y="0px" viewBox="62 0 836 560" enable-background="new 62 0 836 560" xml:space="preserve">
<g>
	<g id="XMLID_19_">
		<path id="XMLID_39_" fill="#009688" d="M121.2,299.1c24.8,0,47.7,18.9,47.7,51.6s-22.9,51.6-47.7,51.6c-24.9,0-48-18.9-48-51.6    C73.4,318,96.3,299.1,121.2,299.1z M121.2,378.6c12,0,18-11,18-28s-6.1-28-18-28c-12.1,0-18,11-18,28    C103.2,367.7,109.1,378.6,121.2,378.6z"/>
		<path id="XMLID_36_" fill="#009688" d="M218.1,407.5v28.6H189V301.3h23.8l2,9.8h0.8c7.8-6.9,17.7-12.1,28-12.1    c23.8,0,38.4,19.5,38.4,49.9c0,33.7-20.2,53.1-41.5,53.1c-8.6,0-16.5-3.7-23.4-10.3L218.1,407.5z M233.8,378.5    c10.1,0,18.2-8.8,18.2-29c0-17.7-5.4-26.6-17-26.6c-5.9,0-11.1,2.7-16.9,8.9v40.3C223.3,376.8,228.9,378.5,233.8,378.5z"/>
		<path id="XMLID_33_" fill="#009688" d="M343.2,299.1c28,0,41.8,20.4,41.8,47.2c0,5.2-0.7,9.9-1.2,12.3H325    c2.5,14.8,12.5,21.4,25.6,21.4c7.2,0,14-2.2,21.2-6.6l9.8,17.7c-10.1,6.9-23.3,11.1-34.9,11.1c-28.1,0-49.7-19-49.7-51.6    C296.8,318.8,319.6,299.1,343.2,299.1z M360.2,340.6c0-11.3-4.7-19.2-16.5-19.2c-9.1,0-17,6.1-19,19.2H360.2z"/>
		<path id="XMLID_31_" fill="#009688" d="M405.2,301.5h23.8l2,12.5h0.8c8.3-7.9,18.2-14.8,31.5-14.8c21.4,0,30.5,15,30.5,39.6v61    h-29.2v-57.3c0-14.3-3.7-18.7-12.1-18.7c-7.4,0-12,3.4-18.2,9.4v66.4h-29.2V301.5L405.2,301.5z"/>
		<path id="XMLID_28_" fill="#009688" d="M554.3,299.1c11,0,17.4,4,24.1,10.3l-1.2-15v-33.5h29.2v138.9h-23.8l-2-9.8h-0.8    c-6.9,6.9-16.7,12.1-26.1,12.1c-24.4,0-40.3-19.4-40.3-51.6C513.4,318.5,533.4,299.1,554.3,299.1z M561.2,378.5    c6.4,0,11.3-2.4,16-8.9v-40.3c-5.2-4.7-11-6.4-16.2-6.4c-9.3,0-17.7,8.8-17.7,27.3C543.4,369.7,549.9,378.5,561.2,378.5z"/>
		<path id="XMLID_25_" fill="#009688" d="M683.9,336.5c-0.7-8.8-4.9-14.3-15.5-14.3c-8.3,0-16.7,3.4-26.1,8.9L632,311.9    c12.5-7.6,26.6-12.8,42-12.8c25.1,0,39.1,14.3,39.1,44.3v56.3h-23.8l-2.2-10.1h-0.7c-8.3,7.4-17.7,12.5-28.8,12.5    c-17.9,0-29.2-13.1-29.2-29.7C628.6,351.8,645,340.6,683.9,336.5z M667.6,379.6c6.7,0,11.1-3.2,16.2-8.3v-17.2    c-20.7,2.7-27.5,8.8-27.5,16.2C656.3,376.6,660.7,379.6,667.6,379.6z"/>
		<path id="XMLID_23_" fill="#009688" d="M741.9,324.4h-13.5v-21.6l15-1.2l3.4-26.1h24.1v26.1h23.6v22.8h-23.6v39.4    c0,11.1,4.9,15.7,12.6,15.7c3.2,0,6.7-1,9.3-2l4.6,21.2c-5.2,1.5-12.3,3.5-21.7,3.5c-24.4,0-33.9-15.3-33.9-38.1L741.9,324.4    L741.9,324.4z"/>
		<path id="XMLID_20_" fill="#009688" d="M863.2,336.5c-0.7-8.8-4.9-14.3-15.5-14.3c-8.3,0-16.7,3.4-26.1,8.9l-10.3-19.2    c12.5-7.6,26.6-12.8,42-12.8c25.1,0,39.1,14.3,39.1,44.3v56.3h-23.8l-2.2-10.1h-0.7c-8.3,7.4-17.7,12.5-28.8,12.5    c-17.9,0-29.2-13.1-29.2-29.7C807.9,351.8,824.3,340.6,863.2,336.5z M847,379.6c6.7,0,11.1-3.2,16.2-8.3v-17.2    c-20.7,2.7-27.5,8.8-27.5,16.2C835.8,376.6,840,379.6,847,379.6z"/>
	</g>
	<g id="XMLID_5_">
		<path id="XMLID_17_" fill="#000100" d="M89.7,524.7c8.3,0,14.5,6.4,14.5,15c0,8.4-6.2,14.8-14.5,14.8s-14.5-6.4-14.5-14.8    C75.2,531.2,81.4,524.7,89.7,524.7z"/>
		<path id="XMLID_15_" fill="#000100" d="M128.1,528.6c7.2,5.6,14,8.4,20.7,8.4c7.1,0,10.3-2.5,10.3-6.7c0-5.4-8.1-7.8-16.3-11    c-9.8-3.7-21.2-10.4-21.2-23.6c0-14.8,12.1-25.1,30.8-25.1c12.3,0,21.4,5.1,28.3,10.3l-10.6,14.3c-5.9-4.2-11.3-6.7-17-6.7    c-6.2,0-9.1,2.2-9.1,6.2c0,5.2,7.4,7.1,15.7,10.3c10.3,3.7,21.7,9.4,21.7,24.1s-11.5,26-33,26c-10.4,0-22.8-4.6-30.8-11.1    L128.1,528.6z"/>
		<path id="XMLID_13_" fill="#000100" d="M189.6,472.3h23.6l7.8,37.2c1.3,7.9,2.2,15.7,3.5,23.8h0.7c1.5-8.1,2.7-16.2,4.7-23.8    l8.9-37.2h20.6l9.1,37.2c2,7.9,3.4,15.7,5.1,23.8h0.7c1.5-8.1,2.2-15.8,3.7-23.8l7.6-37.2h22.1l-19.2,80.4h-27.8l-7.2-32    c-1.7-7.4-2.9-14.8-4.4-23.4h-0.7c-1.5,8.6-2.5,16-4,23.4l-7.1,32h-27.5L189.6,472.3z"/>
		<path id="XMLID_10_" fill="#000100" d="M319.9,448.1c0-7.2,5.9-12.3,13.8-12.3c8.1,0,13.8,5.1,13.8,12.3c0,7.2-5.7,12.5-13.8,12.5    C325.8,460.5,319.9,455.3,319.9,448.1z M321.9,472.3h23.8v80.4h-23.8V472.3z"/>
		<path id="XMLID_8_" fill="#000100" d="M370.1,528.6c7.2,5.6,14,8.4,20.7,8.4c7.1,0,10.3-2.5,10.3-6.7c0-5.4-8.1-7.8-16.3-11    c-9.8-3.7-21.2-10.4-21.2-23.6c0-14.8,12.1-25.1,30.8-25.1c12.3,0,21.4,5.1,28.3,10.3l-10.6,14.3c-5.9-4.2-11.3-6.7-17-6.7    c-6.2,0-9.1,2.2-9.1,6.2c0,5.2,7.4,7.1,15.7,10.3c10.3,3.7,21.7,9.4,21.7,24.1s-11.5,26-33,26c-10.4,0-22.8-4.6-30.8-11.1    L370.1,528.6z"/>
		<path id="XMLID_6_" fill="#000100" d="M441.9,528.6c7.2,5.6,14,8.4,20.7,8.4c7.1,0,10.3-2.5,10.3-6.7c0-5.4-8.1-7.8-16.3-11    c-9.8-3.7-21.2-10.4-21.2-23.6c0-14.8,12.1-25.1,30.8-25.1c12.3,0,21.4,5.1,28.3,10.3l-10.6,14.3c-5.9-4.2-11.3-6.7-17-6.7    c-6.2,0-9.1,2.2-9.1,6.2c0,5.2,7.4,7.1,15.7,10.3c10.3,3.7,21.7,9.4,21.7,24.1s-11.5,26-33,26c-10.4,0-22.8-4.6-30.8-11.1    L441.9,528.6z"/>
	</g>
	<g id="XMLID_2_">
		<path id="XMLID_4_" fill="#009688" d="M138.9,58.8c29.7-21.2,71.1-18.5,97.7,8.1s29.2,68.1,8.1,97.7l28.3,28.3    c36.6-45.3,33.7-112.1-8.4-154.2S155.9-6.1,110.4,30.3L138.9,58.8z"/>
		<path id="XMLID_3_" d="M225.9,183c-29.5,20.2-70.3,17.2-96.6-8.9c-26.3-26.3-29.2-66.9-8.9-96.6L92.1,49.2    C56.7,94.5,59.7,160.4,101.3,202c22.6,22.6,52.1,33.9,81.7,33.9c25.1,0,50.2-8.3,71.1-24.4L225.9,183z"/>
	</g>
</g>
<script xmlns="">try {
                        Object.defineProperty(screen, "availTop", { value: 0 });
                    } catch (e) {}
                    try {
                        Object.defineProperty(screen, "availLeft", { value: 0 });
                    } catch (e) {}
                    try {
                        Object.defineProperty(screen, "availWidth", { value: 3440 });
                    } catch (e) {}
                    try {
                        Object.defineProperty(screen, "availHeight", { value: 1440 });
                    } catch (e) {}
                    try {
                        Object.defineProperty(screen, "colorDepth", { value: 24 });
                    } catch (e) {}
                    try {
                        Object.defineProperty(screen, "pixelDepth", { value: 24 });
                    } catch (e) {}
                    try {
                        Object.defineProperty(navigator, "hardwareConcurrency", { value: 8 });
                    } catch (e) {}
                    try {
                        Object.defineProperty(navigator, "appVersion", { value: "5.0 (Windows)" });
                    } catch (e) {}
                    try {
                        Object.defineProperty(navigator, "doNotTrack", { value: "unspecified" });
                    } catch (e) {}
                    
            try {
                window.screenY = 0
            } catch (e) { }
        
            try {
                window.screenTop = 0
            } catch (e) { }
        
            try {
                window.top.window.outerHeight = window.screen.height
            } catch (e) { }
        
            try {
                window.screenX = 1715
            } catch (e) { }
        
            try {
                window.screenLeft = 1715
            } catch (e) { }
        
            try {
                window.top.window.outerWidth = 1730
            } catch (e) { }
        </script></svg>