<?xml version="1.0" encoding="iso-8859-1"?>
<!-- Uploaded to: SVG Repo, www.svgrepo.com, Generator: SVG Repo Mixer Tools -->
<svg height="800px" width="800px" version="1.1" id="Layer_1" xmlns="http://www.w3.org/2000/svg" xmlns:xlink="http://www.w3.org/1999/xlink" 
	 viewBox="0 0 512 512" xml:space="preserve">
<path style="fill:#EDEDED;" d="M460.8,482.358H51.2c-11.906,0-21.558-9.651-21.558-21.558V51.2c0-11.906,9.651-21.558,21.558-21.558
	h409.6c11.906,0,21.558,9.651,21.558,21.558v409.6C482.358,472.707,472.706,482.358,460.8,482.358z"/>
<path style="fill:#56889B;" d="M261.389,428.463H250.61c-11.906,0-21.558-9.651-21.558-21.558V29.642
	c0-11.906,9.651-21.558,21.558-21.558h10.779c11.906,0,21.558,9.651,21.558,21.558v377.263
	C282.947,418.812,273.296,428.463,261.389,428.463z"/>
<path style="fill:#98C7E5;" d="M83.537,428.463H72.758c-11.906,0-21.558-9.651-21.558-21.558v-86.232
	c0-11.906,9.651-21.558,21.558-21.558h10.779c11.906,0,21.558,9.651,21.558,21.558v86.232
	C105.094,418.812,95.443,428.463,83.537,428.463z M460.8,406.906v-32.337c0-11.906-9.651-21.558-21.558-21.558h-10.779
	c-11.906,0-21.558,9.651-21.558,21.558v32.337c0,11.906,9.651,21.558,21.558,21.558h10.779
	C451.148,428.463,460.8,418.812,460.8,406.906z"/>
<path style="fill:#73A4BC;" d="M172.463,428.463h-10.779c-11.906,0-21.558-9.651-21.558-21.558V180.548
	c0-11.906,9.651-21.558,21.558-21.558h10.779c11.906,0,21.558,9.651,21.558,21.558v226.358
	C194.021,418.812,184.369,428.463,172.463,428.463z M371.873,406.906V277.558c0-11.906-9.651-21.558-21.558-21.558h-10.779
	c-11.906,0-21.558,9.651-21.558,21.558v129.347c0,11.906,9.651,21.558,21.558,21.558h10.779
	C362.222,428.463,371.873,418.812,371.873,406.906z"/>
<path d="M428.463,436.548h10.779c16.344,0,29.642-13.298,29.642-29.642v-32.337c0-16.344-13.298-29.642-29.642-29.642h-10.779
	c-16.344,0-29.642,13.298-29.642,29.642v32.337C398.821,423.25,412.119,436.548,428.463,436.548z M414.989,374.569
	c0-7.43,6.044-13.474,13.474-13.474h10.779c7.43,0,13.474,6.044,13.474,13.474v32.337c0,7.43-6.044,13.474-13.474,13.474h-10.779
	c-7.43,0-13.474-6.044-13.474-13.474V374.569z M509.633,488.075l-21.558,21.558c-1.579,1.578-3.649,2.367-5.717,2.367
	s-4.138-0.789-5.717-2.367c-3.157-3.158-3.157-8.276,0-11.433l7.758-7.757H27.601l7.758,7.757c3.157,3.158,3.157,8.276,0,11.433
	c-3.158,3.156-8.276,3.156-11.433,0L2.368,488.075c-3.157-3.158-3.157-8.276,0-11.433l21.558-21.558
	c3.158-3.156,8.276-3.156,11.433,0c3.157,3.158,3.157,8.276,0,11.433l-7.758,7.757h456.798l-7.758-7.757
	c-3.157-3.158-3.157-8.276,0-11.433c3.158-3.156,8.276-3.156,11.433,0l21.558,21.558C512.79,479.799,512.79,484.917,509.633,488.075
	z M72.758,436.548h10.779c16.344,0,29.642-13.298,29.642-29.642v-86.232c0-16.344-13.298-29.642-29.642-29.642H72.758
	c-16.344,0-29.642,13.298-29.642,29.642v86.232C43.116,423.25,56.414,436.548,72.758,436.548z M59.284,320.674
	c0-7.43,6.044-13.474,13.474-13.474h10.779c7.43,0,13.474,6.044,13.474,13.474v86.232c0,7.43-6.044,13.474-13.474,13.474H72.758
	c-7.43,0-13.474-6.044-13.474-13.474V320.674z M339.537,436.548h10.779c16.344,0,29.642-13.298,29.642-29.642V277.558
	c0-16.344-13.298-29.642-29.642-29.642h-10.779c-16.344,0-29.642,13.298-29.642,29.642v129.347
	C309.894,423.25,323.192,436.548,339.537,436.548z M326.063,277.558c0-7.43,6.044-13.474,13.474-13.474h10.779
	c7.43,0,13.474,6.044,13.474,13.474v129.347c0,7.43-6.044,13.474-13.474,13.474h-10.779c-7.43,0-13.474-6.044-13.474-13.474V277.558
	z M250.61,436.548h10.779c16.344,0,29.642-13.298,29.642-29.642V29.642C291.031,13.298,277.733,0,261.389,0H250.61
	c-16.344,0-29.642,13.298-29.642,29.642v377.263C220.968,423.25,234.266,436.548,250.61,436.548z M237.137,29.642
	c0-7.43,6.044-13.474,13.474-13.474h10.779c7.43,0,13.474,6.044,13.474,13.474v377.263c0,7.43-6.044,13.474-13.474,13.474H250.61
	c-7.43,0-13.474-6.044-13.474-13.474V29.642z M161.684,436.548h10.779c16.344,0,29.642-13.298,29.642-29.642V180.548
	c0-16.344-13.298-29.642-29.642-29.642h-10.779c-16.344,0-29.642,13.298-29.642,29.642v226.358
	C132.042,423.25,145.34,436.548,161.684,436.548z M148.21,180.548c0-7.43,6.044-13.474,13.474-13.474h10.779
	c7.43,0,13.474,6.044,13.474,13.474v226.358c0,7.43-6.044,13.474-13.474,13.474h-10.779c-7.43,0-13.474-6.044-13.474-13.474V180.548
	z"/>
</svg>