<!--?xml version="1.0" encoding="utf-8"?-->
<!-- Generator: Adobe Illustrator 22.0.0, SVG Export Plug-In . SVG Version: 6.00 Build 0)  -->
<svg version="1.1" id="Layer_1" xmlns="http://www.w3.org/2000/svg" xmlns:xlink="http://www.w3.org/1999/xlink" x="0px" y="0px" viewBox="0 0 600 250" style="" xml:space="preserve">
<style type="text/css">
	.st0{fill:none;stroke:#B094FF;stroke-width:5;stroke-linecap:round;stroke-linejoin:round;stroke-miterlimit:10;}
	.st1{fill:none;stroke:#9670FF;stroke-width:5;stroke-linecap:round;stroke-linejoin:round;stroke-miterlimit:10;}
	.st2{fill:none;stroke:#7C4DFF;stroke-width:5;stroke-linecap:round;stroke-linejoin:round;stroke-miterlimit:10;}
	.st3{fill:#777777;}
</style>
<path class="st0 PYjzZDjg_0" d="M9,236.5c60.4,5.8,119.5-156.2,135.5-223.2"></path>
<path class="st1 PYjzZDjg_1" d="M9,236.8c98.8-2.6,185.5-148.5,224.5-223.5"></path>
<path class="st2 PYjzZDjg_2" d="M9,236.8c135.2-14.1,336.3-72.5,560-146.1"></path>
<path class="st1 PYjzZDjg_3" d="M9,236.8L589.8,202.7"></path>
<path class="st0 PYjzZDjg_4" d="M9,236.8L591,236.8"></path>
<g>
	<path class="st3 PYjzZDjg_5" d="M542.2,179c-3.4,0-5.9,3-5.9,6.7c0,3,1.9,4.9,4.7,4.9c3.4,0,5.9-3,5.9-6.7C546.9,180.9,545,179,542.2,179z
		 M541,189.3c-2,0-3.2-1.4-3.2-3.7c0-3,1.8-5.4,4.4-5.4c2,0,3.2,1.4,3.2,3.7C545.4,186.9,543.6,189.3,541,189.3z"></path>
	<path class="st3 PYjzZDjg_6" d="M551.9,179.1c-2.1,2-3.5,5.1-3.5,8.5c0,1.9,0.4,4,0.9,5.2h1.2c-0.4-1.3-0.7-3-0.7-5.1c0-3.2,1.3-6.3,3.6-8.6
		H551.9z"></path>
	<path class="st3 PYjzZDjg_7" d="M557.2,183.3c1,0,1.7,0.6,1.7,1.6c0,0.2,0,0.5-0.1,0.8l-1,4.6h1.4l1-4.9c0.1-0.3,0.1-0.7,0.1-1
		c0-1.4-1.1-2.4-2.6-2.4c-1.2,0-2.1,0.5-2.6,1.4h0l0.3-1.3h-1.3l-1.7,8.1h1.4l1-4.9C555.1,184.2,556,183.3,557.2,183.3z"></path>
	<path class="st3 PYjzZDjg_8" d="M560,192.8h1.5c2.1-2,3.5-5.1,3.5-8.5c0-1.9-0.4-4-0.9-5.2h-1.2c0.4,1.3,0.7,3,0.7,5.1
		C563.6,187.4,562.3,190.5,560,192.8z"></path>
</g>
<path class="st3 PYjzZDjg_9" d="M542.2,217c-3.4,0-5.9,3-5.9,6.7c0,3,1.9,4.9,4.7,4.9c3.4,0,5.9-3,5.9-6.7C546.9,218.9,545,217,542.2,217z
	 M541,227.3c-2,0-3.2-1.4-3.2-3.7c0-3,1.8-5.4,4.4-5.4c2,0,3.2,1.4,3.2,3.7C545.4,224.9,543.6,227.3,541,227.3z"></path>
<path class="st3 PYjzZDjg_10" d="M551.9,217.1c-2.1,2-3.5,5.1-3.5,8.5c0,1.9,0.4,4,0.9,5.2h1.2c-0.4-1.3-0.7-3-0.7-5.1c0-3.2,1.3-6.3,3.6-8.6
	H551.9z"></path>
<path class="st3 PYjzZDjg_11" d="M557.7,217.1L554.2,219.3L553.9,220.9L557.3,218.8L557.3,218.8L555.3,228.4L556.7,228.4L559.1,217.1Z"></path>
<path class="st3 PYjzZDjg_12" d="M561.5,217.1c0.4,1.3,0.7,3,0.7,5.1c0,3.2-1.3,6.3-3.6,8.6h1.5c2.1-2,3.5-5.1,3.5-8.5c0-1.9-0.4-4-0.9-5.2
	H561.5z"></path>
<g>
	<path class="st3 PYjzZDjg_13" d="M241.2,39c-3.4,0-5.9,3-5.9,6.7c0,3,1.9,4.9,4.7,4.9c3.4,0,5.9-3,5.9-6.7C245.9,40.9,244,39,241.2,39z
		 M240,49.3c-2,0-3.2-1.4-3.2-3.7c0-3,1.8-5.4,4.4-5.4c2,0,3.2,1.4,3.2,3.7C244.4,46.9,242.6,49.3,240,49.3z"></path>
	<path class="st3 PYjzZDjg_14" d="M252.4,39.1h-1.5c-2.1,2-3.5,5.1-3.5,8.5c0,1.9,0.4,4,0.9,5.2h1.2c-0.4-1.3-0.7-3-0.7-5.1
		C248.8,44.5,250.1,41.5,252.4,39.1z"></path>
	<path class="st3 PYjzZDjg_15" d="M256.8,42.1c-1.2,0-2.1,0.5-2.6,1.4h0l0.3-1.3h-1.3l-1.7,8.1h1.4l1-4.9c0.3-1.3,1.3-2.2,2.4-2.2
		c1,0,1.7,0.6,1.7,1.6c0,0.2,0,0.5-0.1,0.8l-1,4.6h1.4l1-4.9c0.1-0.3,0.1-0.7,0.1-1C259.4,43.1,258.2,42.1,256.8,42.1z"></path>
	<path class="st3 PYjzZDjg_16" d="M266.2,39.1L263.8,50.4L265.2,50.4L267.6,39.1Z"></path>
	<path class="st3 PYjzZDjg_17" d="M271.7,42.1c-2.4,0-4.2,2.1-4.2,4.8c0,2.2,1.3,3.6,3.4,3.6c2.4,0,4.2-2.1,4.2-4.8
		C275.1,43.6,273.8,42.1,271.7,42.1z M271,49.4c-1.2,0-2-1-2-2.4c0-2,1.2-3.6,2.8-3.6c1.2,0,2,1,2,2.4
		C273.7,47.8,272.6,49.4,271,49.4z"></path>
	<path class="st3 PYjzZDjg_18" d="M282.8,44L282.8,44c-0.3-1.1-1.3-1.9-2.6-1.9c-2.6,0-4.1,2.4-4.1,4.8c0,2.1,1.2,3.5,3.1,3.5
		c1,0,2.1-0.6,2.6-1.4h0l-0.2,1c-0.4,1.5-1.3,2.3-2.7,2.3c-1.1,0-1.8-0.5-1.9-1.2h-1.4c0,1.4,1.4,2.4,3.3,2.4c2,0,3.6-1.2,4-3.5
		l1.6-7.7h-1.3L282.8,44z M279.5,49.2c-1.3,0-2-0.9-2-2.3c0-2,1.1-3.6,2.7-3.6c1.2,0,2.1,0.9,2.1,2.3
		C282.3,47.6,281.2,49.2,279.5,49.2z"></path>
	<path class="st3 PYjzZDjg_19" d="M290.7,39.1h-1.5c-2.1,2-3.5,5.1-3.5,8.5c0,1.9,0.4,4,0.9,5.2h1.2c-0.4-1.3-0.7-3-0.7-5.1
		C287.1,44.5,288.4,41.5,290.7,39.1z"></path>
	<path class="st3 PYjzZDjg_20" d="M297.7,44.5c0-1.4-1.1-2.4-2.6-2.4c-1.2,0-2.1,0.5-2.6,1.4h0l0.3-1.3h-1.3l-1.7,8.1h1.4l1-4.9
		c0.3-1.3,1.3-2.2,2.4-2.2c1,0,1.7,0.6,1.7,1.6c0,0.2,0,0.5-0.1,0.8l-1,4.6h1.4l1-4.9C297.6,45.2,297.7,44.8,297.7,44.5z"></path>
	<path class="st3 PYjzZDjg_21" d="M300.2,39.1c0.4,1.3,0.7,3,0.7,5.1c0,3.2-1.3,6.3-3.6,8.6h1.5c2.1-2,3.5-5.1,3.5-8.5c0-1.9-0.4-4-0.9-5.2
		H300.2z"></path>
	<path class="st3 PYjzZDjg_22" d="M308.5,43.7h-2.6l0,0l1.5-1.1c1.3-0.9,1.6-1.4,1.6-2.1c0-0.9-0.8-1.5-1.9-1.5c-1.2,0-2.1,0.7-2.1,1.7h1
		c0.1-0.5,0.5-0.8,1.1-0.8c0.5,0,0.9,0.3,0.9,0.7c0,0.4-0.2,0.7-1.2,1.4l-2.3,1.8l-0.2,0.8h4.1L308.5,43.7z"></path>
	<path class="st3 PYjzZDjg_23" d="M310.3,39.1c0.4,1.3,0.7,3,0.7,5.1c0,3.2-1.3,6.3-3.6,8.6h1.5c2.1-2,3.5-5.1,3.5-8.5c0-1.9-0.4-4-0.9-5.2
		H310.3z"></path>
</g>
<g>
	<path class="st3 PYjzZDjg_24" d="M157.2,38c-3.4,0-5.9,3-5.9,6.7c0,3,1.9,4.9,4.7,4.9c3.4,0,5.9-3,5.9-6.7C161.9,39.9,160,38,157.2,38z
		 M156,48.3c-2,0-3.2-1.4-3.2-3.7c0-3,1.8-5.4,4.4-5.4c2,0,3.2,1.4,3.2,3.7C160.4,45.9,158.6,48.3,156,48.3z"></path>
	<path class="st3 PYjzZDjg_25" d="M168.4,38.1h-1.5c-2.1,2-3.5,5.1-3.5,8.5c0,1.9,0.4,4,0.9,5.2h1.2c-0.4-1.3-0.7-3-0.7-5.1
		C164.8,43.5,166.1,40.5,168.4,38.1z"></path>
	<path class="st3 PYjzZDjg_26" d="M172.8,41.1c-1.2,0-2.1,0.5-2.6,1.4h0l0.3-1.3h-1.3l-1.7,8.1h1.4l1-4.9c0.3-1.3,1.3-2.2,2.4-2.2
		c1,0,1.7,0.6,1.7,1.6c0,0.2,0,0.5-0.1,0.8l-1,4.6h1.4l1-4.9c0.1-0.3,0.1-0.7,0.1-1C175.4,42.1,174.2,41.1,172.8,41.1z"></path>
	<path class="st3 PYjzZDjg_27" d="M181.1,42.7h-2.6l0,0l1.5-1.1c1.3-0.9,1.6-1.4,1.6-2.1c0-0.9-0.8-1.5-1.9-1.5c-1.2,0-2.1,0.7-2.1,1.7h1
		c0.1-0.5,0.5-0.8,1.1-0.8c0.5,0,0.9,0.3,0.9,0.7c0,0.4-0.2,0.7-1.2,1.4l-2.3,1.8l-0.2,0.8h4.1L181.1,42.7z"></path>
	<path class="st3 PYjzZDjg_28" d="M182.9,38.1c0.4,1.3,0.7,3,0.7,5.1c0,3.2-1.3,6.3-3.6,8.6h1.5c2.1-2,3.5-5.1,3.5-8.5c0-1.9-0.4-4-0.9-5.2
		H182.9z"></path>
</g>
<g>
	<path class="st3 PYjzZDjg_29" d="M462.2,79c-3.4,0-5.9,3-5.9,6.7c0,3,1.9,4.9,4.7,4.9c3.4,0,5.9-3,5.9-6.7C466.9,80.9,465,79,462.2,79z
		 M461,89.3c-2,0-3.2-1.4-3.2-3.7c0-3,1.8-5.4,4.4-5.4c2,0,3.2,1.4,3.2,3.7C465.4,86.9,463.6,89.3,461,89.3z"></path>
	<path class="st3 PYjzZDjg_30" d="M473.4,79.1h-1.5c-2.1,2-3.5,5.1-3.5,8.5c0,1.9,0.4,4,0.9,5.2h1.2c-0.4-1.3-0.7-3-0.7-5.1
		C469.8,84.5,471.1,81.5,473.4,79.1z"></path>
	<path class="st3 PYjzZDjg_31" d="M477.8,82.1c-1.2,0-2.1,0.5-2.6,1.4h0l0.3-1.3h-1.3l-1.7,8.1h1.4l1-4.9c0.3-1.3,1.3-2.2,2.4-2.2
		c1,0,1.7,0.6,1.7,1.6c0,0.2,0,0.5-0.1,0.8l-1,4.6h1.4l1-4.9c0.1-0.3,0.1-0.7,0.1-1C480.4,83.1,479.2,82.1,477.8,82.1z"></path>
	<path class="st3 PYjzZDjg_32" d="M487.2,79.1L484.8,90.4L486.2,90.4L488.6,79.1Z"></path>
	<path class="st3 PYjzZDjg_33" d="M492.7,82.1c-2.4,0-4.2,2.1-4.2,4.8c0,2.2,1.3,3.6,3.4,3.6c2.4,0,4.2-2.1,4.2-4.8
		C496.1,83.6,494.8,82.1,492.7,82.1z M492,89.4c-1.2,0-2-1-2-2.4c0-2,1.2-3.6,2.8-3.6c1.2,0,2,1,2,2.4
		C494.7,87.8,493.6,89.4,492,89.4z"></path>
	<path class="st3 PYjzZDjg_34" d="M503.8,84L503.8,84c-0.3-1.1-1.3-1.9-2.6-1.9c-2.6,0-4.1,2.4-4.1,4.8c0,2.1,1.2,3.5,3.1,3.5
		c1,0,2.1-0.6,2.6-1.4h0l-0.2,1c-0.4,1.5-1.3,2.3-2.7,2.3c-1.1,0-1.8-0.5-1.9-1.2h-1.4c0,1.4,1.4,2.4,3.3,2.4c2,0,3.6-1.2,4-3.5
		l1.6-7.7h-1.3L503.8,84z M500.5,89.2c-1.3,0-2-0.9-2-2.3c0-2,1.1-3.6,2.7-3.6c1.2,0,2.1,0.9,2.1,2.3
		C503.3,87.6,502.2,89.2,500.5,89.2z"></path>
	<path class="st3 PYjzZDjg_35" d="M515.6,79.1h-1.5c-2.1,2-3.5,5.1-3.5,8.5c0,1.9,0.4,4,0.9,5.2h1.2c-0.4-1.3-0.7-3-0.7-5.1
		C512,84.5,513.2,81.5,515.6,79.1z"></path>
	<path class="st3 PYjzZDjg_36" d="M519.4,83.3c1,0,1.7,0.6,1.7,1.6c0,0.2,0,0.5-0.1,0.8l-1,4.6h1.4l1-4.9c0.1-0.3,0.1-0.7,0.1-1
		c0-1.4-1.1-2.4-2.6-2.4c-1.2,0-2.1,0.5-2.6,1.4h0l0.3-1.3h-1.3l-1.7,8.1h1.4l1-4.9C517.2,84.2,518.2,83.3,519.4,83.3z"></path>
	<path class="st3 PYjzZDjg_37" d="M525.1,79.1c0.4,1.3,0.7,3,0.7,5.1c0,3.2-1.3,6.3-3.6,8.6h1.5c2.1-2,3.5-5.1,3.5-8.5c0-1.9-0.4-4-0.9-5.2
		H525.1z"></path>
	<path class="st3 PYjzZDjg_38" d="M528.8,92.8c2.1-2,3.5-5.1,3.5-8.5c0-1.9-0.4-4-0.9-5.2h-1.2c0.4,1.3,0.7,3,0.7,5.1c0,3.2-1.3,6.3-3.6,8.6
		H528.8z"></path>
</g>
<style data-made-with="vivus-instant">.PYjzZDjg_0{stroke-dasharray:274 276;stroke-dashoffset:275;animation:PYjzZDjg_draw 726ms ease 0ms forwards;}.PYjzZDjg_1{stroke-dasharray:330 332;stroke-dashoffset:331;animation:PYjzZDjg_draw 874ms ease 726ms forwards;}.PYjzZDjg_2{stroke-dasharray:580 582;stroke-dashoffset:581;animation:PYjzZDjg_draw 1535ms ease 1601ms forwards;}.PYjzZDjg_3{stroke-dasharray:582 584;stroke-dashoffset:583;animation:PYjzZDjg_draw 1541ms ease 3137ms forwards;}.PYjzZDjg_4{stroke-dasharray:582 584;stroke-dashoffset:583;animation:PYjzZDjg_draw 1541ms ease 4678ms forwards;}.PYjzZDjg_5{stroke-dasharray:62 64;stroke-dashoffset:63;animation:PYjzZDjg_draw 166ms ease 6219ms forwards;}.PYjzZDjg_6{stroke-dasharray:33 35;stroke-dashoffset:34;animation:PYjzZDjg_draw 89ms ease 6386ms forwards;}.PYjzZDjg_7{stroke-dasharray:44 46;stroke-dashoffset:45;animation:PYjzZDjg_draw 118ms ease 6476ms forwards;}.PYjzZDjg_8{stroke-dasharray:33 35;stroke-dashoffset:34;animation:PYjzZDjg_draw 89ms ease 6595ms forwards;}.PYjzZDjg_9{stroke-dasharray:62 64;stroke-dashoffset:63;animation:PYjzZDjg_draw 166ms ease 6685ms forwards;}.PYjzZDjg_10{stroke-dasharray:33 35;stroke-dashoffset:34;animation:PYjzZDjg_draw 89ms ease 6851ms forwards;}.PYjzZDjg_11{stroke-dasharray:34 36;stroke-dashoffset:35;animation:PYjzZDjg_draw 92ms ease 6941ms forwards;}.PYjzZDjg_12{stroke-dasharray:33 35;stroke-dashoffset:34;animation:PYjzZDjg_draw 89ms ease 7034ms forwards;}.PYjzZDjg_13{stroke-dasharray:62 64;stroke-dashoffset:63;animation:PYjzZDjg_draw 166ms ease 7123ms forwards;}.PYjzZDjg_14{stroke-dasharray:33 35;stroke-dashoffset:34;animation:PYjzZDjg_draw 89ms ease 7290ms forwards;}.PYjzZDjg_15{stroke-dasharray:44 46;stroke-dashoffset:45;animation:PYjzZDjg_draw 118ms ease 7380ms forwards;}.PYjzZDjg_16{stroke-dasharray:26 28;stroke-dashoffset:27;animation:PYjzZDjg_draw 71ms ease 7499ms forwards;}.PYjzZDjg_17{stroke-dasharray:43 45;stroke-dashoffset:44;animation:PYjzZDjg_draw 116ms ease 7570ms forwards;}.PYjzZDjg_18{stroke-dasharray:66 68;stroke-dashoffset:67;animation:PYjzZDjg_draw 177ms ease 7687ms forwards;}.PYjzZDjg_19{stroke-dasharray:33 35;stroke-dashoffset:34;animation:PYjzZDjg_draw 89ms ease 7864ms forwards;}.PYjzZDjg_20{stroke-dasharray:44 46;stroke-dashoffset:45;animation:PYjzZDjg_draw 118ms ease 7954ms forwards;}.PYjzZDjg_21{stroke-dasharray:33 35;stroke-dashoffset:34;animation:PYjzZDjg_draw 89ms ease 8072ms forwards;}.PYjzZDjg_22{stroke-dasharray:28 30;stroke-dashoffset:29;animation:PYjzZDjg_draw 76ms ease 8162ms forwards;}.PYjzZDjg_23{stroke-dasharray:33 35;stroke-dashoffset:34;animation:PYjzZDjg_draw 89ms ease 8239ms forwards;}.PYjzZDjg_24{stroke-dasharray:62 64;stroke-dashoffset:63;animation:PYjzZDjg_draw 166ms ease 8329ms forwards;}.PYjzZDjg_25{stroke-dasharray:33 35;stroke-dashoffset:34;animation:PYjzZDjg_draw 89ms ease 8495ms forwards;}.PYjzZDjg_26{stroke-dasharray:44 46;stroke-dashoffset:45;animation:PYjzZDjg_draw 118ms ease 8585ms forwards;}.PYjzZDjg_27{stroke-dasharray:28 30;stroke-dashoffset:29;animation:PYjzZDjg_draw 76ms ease 8704ms forwards;}.PYjzZDjg_28{stroke-dasharray:33 35;stroke-dashoffset:34;animation:PYjzZDjg_draw 89ms ease 8781ms forwards;}.PYjzZDjg_29{stroke-dasharray:62 64;stroke-dashoffset:63;animation:PYjzZDjg_draw 166ms ease 8871ms forwards;}.PYjzZDjg_30{stroke-dasharray:33 35;stroke-dashoffset:34;animation:PYjzZDjg_draw 89ms ease 9037ms forwards;}.PYjzZDjg_31{stroke-dasharray:44 46;stroke-dashoffset:45;animation:PYjzZDjg_draw 118ms ease 9127ms forwards;}.PYjzZDjg_32{stroke-dasharray:26 28;stroke-dashoffset:27;animation:PYjzZDjg_draw 71ms ease 9246ms forwards;}.PYjzZDjg_33{stroke-dasharray:43 45;stroke-dashoffset:44;animation:PYjzZDjg_draw 116ms ease 9318ms forwards;}.PYjzZDjg_34{stroke-dasharray:66 68;stroke-dashoffset:67;animation:PYjzZDjg_draw 177ms ease 9434ms forwards;}.PYjzZDjg_35{stroke-dasharray:33 35;stroke-dashoffset:34;animation:PYjzZDjg_draw 89ms ease 9611ms forwards;}.PYjzZDjg_36{stroke-dasharray:44 46;stroke-dashoffset:45;animation:PYjzZDjg_draw 118ms ease 9701ms forwards;}.PYjzZDjg_37{stroke-dasharray:33 35;stroke-dashoffset:34;animation:PYjzZDjg_draw 89ms ease 9820ms forwards;}.PYjzZDjg_38{stroke-dasharray:33 35;stroke-dashoffset:34;animation:PYjzZDjg_draw 89ms ease 9910ms forwards;}@keyframes PYjzZDjg_draw{100%{stroke-dashoffset:0;}}@keyframes PYjzZDjg_fade{0%{stroke-opacity:1;}97.1830985915493%{stroke-opacity:1;}100%{stroke-opacity:0;}}</style></svg>
