<?xml version="1.0" encoding="iso-8859-1"?>
<!-- Uploaded to: SVG Repo, www.svgrepo.com, Generator: SVG Repo Mixer Tools -->
<svg version="1.1" id="Layer_1" xmlns="http://www.w3.org/2000/svg" xmlns:xlink="http://www.w3.org/1999/xlink" 
	 viewBox="0 0 512 512" xml:space="preserve">
<path style="fill:#73C470;" d="M211.286,472.21h162.452c7.091,0,12.84,5.749,12.84,12.84v18.926h76.85
	c22.395,0,40.547-18.155,40.547-40.547V48.572c0-22.394-18.152-40.547-40.547-40.547h-76.85v18.926c0,7.091-5.749,12.84-12.84,12.84
	H161.504c-7.091,0-12.84-5.749-12.84-12.84V8.025H48.572c-22.391,0-40.546,18.153-40.546,40.547v414.857
	c0,22.391,18.154,40.547,40.547,40.547h100.093v-18.926c0-7.091,5.749-12.84,12.84-12.84h23.031"/>
<g style="opacity:0.2;">
	<path style="fill:#231F20;" d="M33.39,463.428V48.572c0-22.394,18.154-40.547,40.546-40.547H48.572
		c-22.391,0-40.546,18.153-40.546,40.547v414.857c0,22.391,18.154,40.547,40.547,40.547h25.363
		C51.544,503.975,33.39,485.82,33.39,463.428z"/>
</g>
<g>
	<polyline style="fill:#EBF25F;" points="358.38,217.74 358.38,193.131 386.578,193.131 386.578,315.108 358.38,315.108 
		358.38,243.42 	"/>
	<rect x="120.469" y="193.131" style="fill:#EBF25F;" width="28.197" height="121.977"/>
	<rect x="192.532" y="121.068" style="fill:#EBF25F;" width="121.977" height="28.198"/>
	<rect x="192.532" y="360.86" style="fill:#EBF25F;" width="121.977" height="28.197"/>
</g>
<path style="fill:#547475;" d="M358.38,315.108v29.7c0,8.864-7.187,16.05-16.05,16.05H164.714c-8.865,0-16.05-7.186-16.05-16.05
	V167.192c0-8.864,7.185-16.05,16.05-16.05h177.616c8.863,0,16.05,7.186,16.05,16.05v25.938 M180.764,328.759h145.517V183.242
	H180.764L180.764,328.759L180.764,328.759z"/>
<rect x="180.762" y="183.244" style="fill:#384949;" width="145.517" height="145.517"/>
<g style="opacity:0.2;">
	<rect x="180.762" y="183.244" style="fill:#231F20;" width="25.57" height="145.517"/>
</g>
<g>
	<circle style="fill:#8AACAD;" cx="53.082" cy="51.915" r="15.692"/>
	<circle style="fill:#8AACAD;" cx="460.079" cy="51.915" r="15.693"/>
	<circle style="fill:#8AACAD;" cx="460.079" cy="460.582" r="15.693"/>
</g>
<rect x="475.776" y="167.195" style="fill:#EBF25F;" width="28.198" height="177.616"/>
<g>
	<path style="fill:#231F20;" d="M192.534,397.08h10.763v27.574c0,4.432,3.592,8.025,8.025,8.025c4.433,0,8.025-3.593,8.025-8.025
		V397.08h12.482v27.574c0,4.432,3.592,8.025,8.025,8.025s8.025-3.593,8.025-8.025V397.08h12.482v27.574
		c0,4.432,3.592,8.025,8.025,8.025s8.025-3.593,8.025-8.025V397.08h12.484v27.574c0,4.432,3.592,8.025,8.025,8.025
		s8.025-3.593,8.025-8.025V397.08h9.567c4.433,0,8.025-3.593,8.025-8.025v-20.172h19.795c13.274,0,24.074-10.799,24.074-24.074
		v-21.676h20.173c4.433,0,8.025-3.593,8.025-8.025v-9.224h29.113c4.433,0,8.025-3.593,8.025-8.025c0-4.432-3.592-8.025-8.025-8.025
		h-29.113v-12.483h29.113c4.433,0,8.025-3.593,8.025-8.025c0-4.432-3.592-8.025-8.025-8.025h-29.113v-12.482h29.113
		c4.433,0,8.025-3.593,8.025-8.025s-3.592-8.025-8.025-8.025h-29.113v-12.483h29.113c4.433,0,8.025-3.593,8.025-8.025
		c0-4.432-3.592-8.025-8.025-8.025h-29.113v-11.105c0-4.432-3.592-8.025-8.025-8.025h-20.173v-17.914
		c0-13.275-10.8-24.074-24.074-24.074h-19.795v-22.053c0-4.432-3.592-8.025-8.025-8.025h-9.567V85.465
		c0-4.432-3.592-8.025-8.025-8.025s-8.025,3.593-8.025,8.025v27.574H276.41V85.465c0-4.432-3.592-8.025-8.025-8.025
		s-8.025,3.593-8.025,8.025v27.574h-12.482V85.465c0-4.432-3.592-8.025-8.025-8.025s-8.025,3.593-8.025,8.025v27.574h-12.482V85.465
		c0-4.432-3.592-8.025-8.025-8.025c-4.433,0-8.025,3.593-8.025,8.025v27.574h-10.763c-4.433,0-8.025,3.593-8.025,8.025v22.053
		h-19.795c-13.274,0-24.074,10.799-24.074,24.074v17.914h-20.172c-4.433,0-8.025,3.593-8.025,8.025v11.105H84.525
		c-4.433,0-8.025,3.593-8.025,8.025c0,4.432,3.592,8.025,8.025,8.025h27.918v12.483H84.525c-4.433,0-8.025,3.593-8.025,8.025
		c0,4.432,3.592,8.025,8.025,8.025h27.918v12.482H84.525c-4.433,0-8.025,3.593-8.025,8.025s3.592,8.025,8.025,8.025h27.918v12.483
		H84.525c-4.433,0-8.025,3.593-8.025,8.025s3.592,8.025,8.025,8.025h27.918v9.224c0,4.432,3.592,8.025,8.025,8.025h20.172v21.676
		c0,13.275,10.8,24.074,24.074,24.074h19.795v20.172C184.509,393.487,188.102,397.08,192.534,397.08z M200.559,129.088h105.928
		v12.149H200.559L200.559,129.088L200.559,129.088z M306.486,381.031H200.559v-12.147h105.928V381.031z M128.492,307.083V201.156
		h12.147v105.928H128.492z M156.69,344.809v-29.7V193.131v-25.938c0-4.425,3.599-8.025,8.025-8.025h177.616
		c4.425,0,8.025,3.599,8.025,8.025v25.938l0,0l0,0v24.609c0,4.432,3.592,8.025,8.025,8.025c4.433,0,8.025-3.593,8.025-8.025v-16.585
		h12.149v105.928h-12.149V243.42c0-4.432-3.592-8.025-8.025-8.025c-4.433,0-8.025,3.593-8.025,8.025v71.688l0,0v29.7
		c0,4.425-3.599,8.025-8.025,8.025h-27.819H192.534h-27.819C160.289,352.833,156.69,349.234,156.69,344.809z"/>
	<path style="fill:#231F20;" d="M334.306,328.759V183.242c0-4.432-3.592-8.025-8.025-8.025H180.764
		c-4.433,0-8.025,3.593-8.025,8.025v145.517c0,4.432,3.592,8.025,8.025,8.025h145.517
		C330.714,336.784,334.306,333.191,334.306,328.759z M318.256,320.734H188.789V191.267h129.467V320.734z"/>
	<path style="fill:#231F20;" d="M76.799,51.915c0-13.078-10.639-23.717-23.717-23.717S29.364,38.837,29.364,51.915
		s10.639,23.718,23.717,23.718S76.799,64.993,76.799,51.915z M53.082,59.583c-4.227,0-7.667-3.44-7.667-7.669
		s3.44-7.667,7.667-7.667s7.667,3.44,7.667,7.667C60.749,56.143,57.309,59.583,53.082,59.583z"/>
	<path style="fill:#231F20;" d="M460.085,75.632c13.078,0,23.717-10.64,23.717-23.718s-10.639-23.717-23.717-23.717
		c-13.079,0-23.719,10.64-23.719,23.717C436.365,64.993,447.005,75.632,460.085,75.632z M460.085,44.247
		c4.227,0,7.667,3.44,7.667,7.667c0,4.229-3.44,7.669-7.667,7.669c-4.229,0-7.67-3.44-7.67-7.669
		C452.415,47.687,455.856,44.247,460.085,44.247z"/>
	<path style="fill:#231F20;" d="M460.085,484.296c13.078,0,23.717-10.64,23.717-23.718c0-13.078-10.639-23.718-23.717-23.718
		c-13.079,0-23.719,10.64-23.719,23.718C436.365,473.656,447.005,484.296,460.085,484.296z M460.085,452.911
		c4.227,0,7.667,3.44,7.667,7.669s-3.44,7.669-7.667,7.669c-4.229,0-7.67-3.44-7.67-7.669
		C452.415,456.349,455.856,452.911,460.085,452.911z"/>
	<path style="fill:#231F20;" d="M463.428,0h-76.85c-4.433,0-8.025,3.593-8.025,8.025v18.926c0,2.655-2.159,4.815-4.815,4.815
		H161.504c-2.655,0-4.815-2.16-4.815-4.815V8.025c0-4.432-3.592-8.025-8.025-8.025H48.572C21.79,0,0.001,21.789,0.001,48.572
		v414.857C0.001,490.211,21.79,512,48.573,512h100.093c4.433,0,8.025-3.593,8.025-8.025v-18.926c0-2.655,2.16-4.815,4.815-4.815
		h23.031c4.433,0,8.025-3.593,8.025-8.025c0-4.432-3.592-8.025-8.025-8.025h-23.031c-11.504,0-20.865,9.36-20.865,20.865v10.901
		H48.572c-17.933,0-32.522-14.589-32.522-32.522V48.572C16.051,30.639,30.64,16.05,48.572,16.05h92.068v10.901
		c0,11.504,9.36,20.865,20.865,20.865h212.234c11.504,0,20.865-9.36,20.865-20.865V16.05h68.825
		c17.933,0,32.522,14.589,32.522,32.521v110.596h-20.173c-4.433,0-8.025,3.593-8.025,8.025v177.616c0,4.432,3.592,8.025,8.025,8.025
		h20.173v110.596c0,17.933-14.589,32.522-32.522,32.522h-68.825v-10.901c0-11.504-9.36-20.865-20.865-20.865H211.285
		c-4.433,0-8.025,3.593-8.025,8.025c0,4.432,3.592,8.025,8.025,8.025h162.452c2.656,0,4.815,2.16,4.815,4.815v18.926
		c0,4.432,3.592,8.025,8.025,8.025h76.85c26.782,0,48.572-21.789,48.572-48.572v-118.62V167.192V48.572
		C511.999,21.789,490.21,0,463.428,0z M483.802,336.784V175.217h12.149v161.567H483.802z"/>
	<path style="fill:#231F20;" d="M210.708,220.308h86.821c4.433,0,8.025-3.593,8.025-8.025s-3.592-8.025-8.025-8.025h-86.821
		c-4.433,0-8.025,3.593-8.025,8.025S206.277,220.308,210.708,220.308z"/>
	<path style="fill:#231F20;" d="M210.708,307.859h86.821c4.433,0,8.025-3.593,8.025-8.025s-3.592-8.025-8.025-8.025h-86.821
		c-4.433,0-8.025,3.593-8.025,8.025S206.277,307.859,210.708,307.859z"/>
	<path style="fill:#231F20;" d="M210.708,278.676h86.821c4.433,0,8.025-3.593,8.025-8.025c0-4.432-3.592-8.025-8.025-8.025h-86.821
		c-4.433,0-8.025,3.593-8.025,8.025C202.684,275.083,206.277,278.676,210.708,278.676z"/>
	<path style="fill:#231F20;" d="M210.708,249.492h86.821c4.433,0,8.025-3.593,8.025-8.025c0-4.432-3.592-8.025-8.025-8.025h-86.821
		c-4.433,0-8.025,3.593-8.025,8.025C202.684,245.899,206.277,249.492,210.708,249.492z"/>
	<path style="fill:#231F20;" d="M48.672,343.168h-0.024c-4.433,0-8.013,3.593-8.013,8.025c0,4.432,3.604,8.025,8.037,8.025
		s8.025-3.593,8.025-8.025C56.697,346.761,53.105,343.168,48.672,343.168z"/>
	<path style="fill:#231F20;" d="M48.672,430.719h-0.024c-4.433,0-8.013,3.593-8.013,8.025c0,4.432,3.604,8.025,8.037,8.025
		s8.025-3.593,8.025-8.025C56.697,434.312,53.105,430.719,48.672,430.719z"/>
	<path style="fill:#231F20;" d="M48.672,401.536h-0.024c-4.433,0-8.013,3.593-8.013,8.025c0,4.432,3.604,8.025,8.037,8.025
		s8.025-3.593,8.025-8.025C56.697,405.129,53.105,401.536,48.672,401.536z"/>
	<path style="fill:#231F20;" d="M48.672,372.352h-0.024c-4.433,0-8.013,3.593-8.013,8.025s3.604,8.025,8.037,8.025
		s8.025-3.593,8.025-8.025S53.105,372.352,48.672,372.352z"/>
	<path style="fill:#231F20;" d="M48.672,92.067h-0.024c-4.433,0-8.013,3.593-8.013,8.025c0,4.432,3.604,8.025,8.037,8.025
		s8.025-3.593,8.025-8.025C56.697,95.66,53.105,92.067,48.672,92.067z"/>
	<path style="fill:#231F20;" d="M48.672,179.618h-0.024c-4.433,0-8.013,3.593-8.013,8.025s3.604,8.025,8.037,8.025
		s8.025-3.593,8.025-8.025C56.697,183.211,53.105,179.618,48.672,179.618z"/>
	<path style="fill:#231F20;" d="M48.672,150.434h-0.024c-4.433,0-8.013,3.593-8.013,8.025c0,4.432,3.604,8.025,8.037,8.025
		s8.025-3.593,8.025-8.025C56.697,154.027,53.105,150.434,48.672,150.434z"/>
	<path style="fill:#231F20;" d="M48.672,121.251h-0.024c-4.433,0-8.013,3.593-8.013,8.025s3.604,8.025,8.037,8.025
		s8.025-3.593,8.025-8.025S53.105,121.251,48.672,121.251z"/>
	<path style="fill:#231F20;" d="M79.949,474.547c4.433,0,8.025-3.605,8.025-8.037c0-4.432-3.592-8.025-8.025-8.025
		c-4.433,0-8.025,3.593-8.025,8.025v0.022C71.924,470.965,75.516,474.547,79.949,474.547z"/>
	<path style="fill:#231F20;" d="M101.107,466.51v0.022c0,4.432,3.592,8.013,8.025,8.013c4.433,0,8.025-3.605,8.025-8.037
		c0-4.432-3.592-8.025-8.025-8.025C104.699,458.485,101.107,462.078,101.107,466.51z"/>
</g>
</svg>