<?xml version="1.0" encoding="UTF-8" standalone="no"?>
<svg
   version="1.0"
   width="624.76251"
   height="163.45508"
   id="svg75"
   sodipodi:docname="xilinx.svg"
   inkscape:version="1.2.2 (b0a84865, 2022-12-01)"
   xmlns:inkscape="http://www.inkscape.org/namespaces/inkscape"
   xmlns:sodipodi="http://sodipodi.sourceforge.net/DTD/sodipodi-0.dtd"
   xmlns="http://www.w3.org/2000/svg"
   xmlns:svg="http://www.w3.org/2000/svg">
  <defs
     id="defs196" />
  <sodipodi:namedview
     id="namedview194"
     pagecolor="#ffffff"
     bordercolor="#999999"
     borderopacity="1"
     inkscape:showpageshadow="0"
     inkscape:pageopacity="0"
     inkscape:pagecheckerboard="0"
     inkscape:deskcolor="#d1d1d1"
     showgrid="false"
     inkscape:zoom="4.5038393"
     inkscape:cx="596.26905"
     inkscape:cy="40.520984"
     inkscape:window-width="1800"
     inkscape:window-height="1069"
     inkscape:window-x="0"
     inkscape:window-y="44"
     inkscape:window-maximized="0"
     inkscape:current-layer="svg75" />
  <path
     d="M 269.30962,26.39564 205.3216,136.1601 H 192.32614 L 256.85379,26.39564 h 12.45583 m -54.7698,-0.22483 54.7698,109.98929 H 248.39996 L 192.32614,26.17081 h 22.21368"
     id="path4"
     style="fill:#999999" />
  <path
     d="m 275.11038,135.8903 h 18.52639 V 26.66544 h -18.52639 z"
     id="path8"
     style="fill:#999999" />
  <path
     d="M 364.72961,135.8903 H 308.97052 V 26.39564 h 18.75125 v 100.50127 h 37.00784 v 8.99339"
     id="path10"
     style="fill:#999999" />
  <path
     d="m 373.72301,135.8903 h 18.79622 V 26.66544 h -18.79622 z"
     id="path12"
     style="fill:#999999" />
  <path
     d="M 405.73952,136.1601 V 26.66544 h 17.17739 l 50.22816,84.35811 V 26.39564 h 11.64646 V 136.1601 H 463.92681 L 417.65578,57.60275 v 78.55735 h -11.91626"
     id="path14"
     style="fill:#999999" />
  <path
     d="M 34.35703,2.87789 2.340523,34.89441 48.65656,81.43524 2.115695,127.93114 34.35703,159.94765 H 85.6644 L 54.0526,128.20094 100.45852,81.66007 53.37809,34.62461 85.1248,2.87789 Z"
     id="path16"
     style="fill:#8e0027;stroke:#8e0027;stroke-width:4.23139524" />
  <path
     d="M 88.31743,2.20337 103.15656,17.0425 128.24814,42.269 167.63924,2.87789 117.41111,2.74301 103.15656,17.0425"
     id="path18"
     style="fill:#8e0027;stroke:#8e0027;stroke-width:4.40676641" />
  <path
     d="m 88.76712,160.39731 40.20051,-40.20051 41.05488,41.05488 -51.44229,-0.13488 -15.42366,-15.24385"
     id="path20"
     style="fill:#8e0027;stroke:#8e0027;stroke-width:4.40676641" />
  <path
     d="M 568.8798,26.39564 504.89178,136.1601 H 491.94126 L 556.46891,26.39564 H 568.8798 M 514.15498,26.17081 568.8798,136.1601 H 547.97015 L 491.94126,26.17081 h 22.21372"
     id="path22"
     style="fill:#999999" />
  <path
     d="m 604.35879,63.8082 c 10.38736,0 18.75121,-8.36388 18.75121,-18.75125 0,-10.34243 -8.36385,-18.75125 -18.75121,-18.75125 -10.34244,0 -18.75126,8.40882 -18.75126,18.75125 0,10.38737 8.40882,18.75125 18.75126,18.75125 z"
     id="path30"
     style="fill:none;stroke:#999999;stroke-width:3.30507469" />
  <path
     d="m 605.56,33.219 c 2.76,0 5.94,0.517 7.41,3.013 1.2,2.153 1.2,4.908 0,7.146 -1.12,1.98 -3.36,2.927 -5.6,3.186 l 6.8,10.503 h -3.96 l -6.45,-10.245 h -3.88 v 10.245 h -3.7 V 33.305 Z m -1.55,10.503 c 1.47,0 3.02,0 4.4,-0.602 1.72,-0.775 2.06,-2.841 1.55,-4.563 -0.87,-1.378 -1.9,-1.98 -3.19,-2.152 -0.86,-0.09 -1.38,-0.173 -2.15,-0.173 h -4.48 v 7.577"
     id="path32"
     style="fill:#999999" />
</svg>
