<?xml version="1.0" encoding="UTF-8" standalone="no"?>
<!-- Uploaded to: SVG Repo, www.svgrepo.com, Generator: SVG Repo Mixer Tools -->

<svg
   fill="#000000"
   version="1.1"
   id="Layer_1"
   width="800px"
   height="800px"
   viewBox="0 0 256 165"
   xml:space="preserve"
   sodipodi:docname="logo.svg"
   inkscape:version="1.2.2 (b0a84865, 2022-12-01)"
   xmlns:inkscape="http://www.inkscape.org/namespaces/inkscape"
   xmlns:sodipodi="http://sodipodi.sourceforge.net/DTD/sodipodi-0.dtd"
   xmlns="http://www.w3.org/2000/svg"
   xmlns:svg="http://www.w3.org/2000/svg"><defs
   id="defs1936" /><sodipodi:namedview
   id="namedview1934"
   pagecolor="#ffffff"
   bordercolor="#999999"
   borderopacity="1"
   inkscape:showpageshadow="0"
   inkscape:pageopacity="0"
   inkscape:pagecheckerboard="0"
   inkscape:deskcolor="#d1d1d1"
   showgrid="false"
   inkscape:zoom="0.295"
   inkscape:cx="259.32203"
   inkscape:cy="400"
   inkscape:window-width="960"
   inkscape:window-height="1024"
   inkscape:window-x="0"
   inkscape:window-y="0"
   inkscape:window-maximized="0"
   inkscape:current-layer="Layer_1" />
<path
   d="M240.4,72.5l-25.9,76.1h-39.3c0-9.8-7.4-17.1-17.7-17.1h-61c0,0-13.9-47.2-21.3-59.2C70.4,64.5,63,59.6,53.3,59.6l0,0  c-15,0-26.3,12.4-34.5,30.3C8.8,111.7,3.1,137.6,2,163h217.5c3.1,0,5.9-2,6.9-5L254,77.1L240.4,72.5z M128,34.6  c0,18-14.6,32.6-32.6,32.6c-18,0-32.6-14.6-32.6-32.6C62.8,16.6,77.4,2,95.4,2c2.1,0,4.1,0.2,6,0.6L94,18.5c-0.3,0-0.7-0.1-1-0.1  c-7.6,0-13.8,6.2-13.8,13.8S85.4,46,93,46s13.8-6.2,13.8-13.8c0-3.7-1.5-7.1-3.9-9.6l7.9-16.8C121,11.4,128,22.2,128,34.6z"
   id="path1931"
   style="fill:#b3b3b3" />
</svg>
