<?xml version="1.0" encoding="UTF-8" standalone="no"?>
<!-- Uploaded to: SVG Repo, www.svgrepo.com, Generator: SVG Repo Mixer Tools -->

<svg
   fill="#000000"
   height="800px"
   width="800px"
   version="1.1"
   id="Layer_1"
   viewBox="0 0 508.116 508.116"
   xml:space="preserve"
   sodipodi:docname="logo.svg"
   inkscape:version="1.2.2 (b0a84865, 2022-12-01)"
   xmlns:inkscape="http://www.inkscape.org/namespaces/inkscape"
   xmlns:sodipodi="http://sodipodi.sourceforge.net/DTD/sodipodi-0.dtd"
   xmlns="http://www.w3.org/2000/svg"
   xmlns:svg="http://www.w3.org/2000/svg"><defs
   id="defs2241" /><sodipodi:namedview
   id="namedview2239"
   pagecolor="#ffffff"
   bordercolor="#999999"
   borderopacity="1"
   inkscape:showpageshadow="0"
   inkscape:pageopacity="0"
   inkscape:pagecheckerboard="0"
   inkscape:deskcolor="#d1d1d1"
   showgrid="false"
   inkscape:zoom="0.295"
   inkscape:cx="259.32203"
   inkscape:cy="400"
   inkscape:window-width="960"
   inkscape:window-height="1024"
   inkscape:window-x="0"
   inkscape:window-y="0"
   inkscape:window-maximized="0"
   inkscape:current-layer="Layer_1" />
<g
   id="g2164"
   style="fill:#b3b3b3">
	<g
   id="g2162"
   style="fill:#b3b3b3">
		<path
   d="M42.4,154.333c-23.3,0-42.4,19-42.4,42.3v30.3c0,23.3,19,42.3,42.3,42.3s42.4-18.9,42.4-42.3v-30.3    C84.7,173.333,65.7,154.333,42.4,154.333z M56.5,226.932c0,7.8-6.3,14.1-14.1,14.1c-7.8,0-14.1-6.3-14.1-14.1v-30.3    c0-7.8,6.3-14.1,14.1-14.1c7.8,0,14.1,6.3,14.1,14.1V226.932z"
   id="path2160"
   style="fill:#b3b3b3" />
	</g>
</g>
<g
   id="g2170"
   style="fill:#b3b3b3">
	<g
   id="g2168"
   style="fill:#b3b3b3">
		<path
   d="M98.8,0.132c-23.3,0-42.3,19-42.3,42.3v30.3c0,23.4,18.9,42.3,42.3,42.3c23.3,0,42.3-19,42.3-42.3v-30.3    C141.1,19.132,122.1,0.132,98.8,0.132z M112.9,72.732c0,7.8-6.3,14.1-14.1,14.1s-14.1-6.3-14.1-14.1v-30.3    c0-7.8,6.3-14.1,14.1-14.1s14.1,6.3,14.1,14.1V72.732z"
   id="path2166"
   style="fill:#b3b3b3" />
	</g>
</g>
<g
   id="g2176"
   style="fill:#b3b3b3">
	<g
   id="g2174"
   style="fill:#b3b3b3">
		<path
   d="M14.1,0.132c-7.8,0-14.1,6.3-14.1,14.1v86.7c0,7.8,6.3,14.1,14.1,14.1c7.8,0,14.1-6.3,14.1-14.1v-86.7    C28.2,6.432,21.9,0.132,14.1,0.132z"
   id="path2172"
   style="fill:#b3b3b3" />
	</g>
</g>
<g
   id="g2182"
   style="fill:#b3b3b3">
	<g
   id="g2180"
   style="fill:#b3b3b3">
		<path
   d="M268.1,0.132c-23.3,0-42.3,19-42.3,42.3v30.3c0,23.4,19,42.3,42.3,42.3c23.3,0,42.3-19,42.3-42.3v-30.3    C310.4,19.132,291.4,0.132,268.1,0.132z M282.2,72.732c0,7.8-6.3,14.1-14.1,14.1s-14.1-6.3-14.1-14.1v-30.3    c0-7.8,6.3-14.1,14.1-14.1c7.8,0,14.1,6.3,14.1,14.1V72.732z"
   id="path2178"
   style="fill:#b3b3b3" />
	</g>
</g>
<g
   id="g2188"
   style="fill:#b3b3b3">
	<g
   id="g2186"
   style="fill:#b3b3b3">
		<path
   d="M183.5,0.132c-7.8,0-14.1,6.3-14.1,14.1v86.7c-0.1,7.8,6.3,14.1,14.1,14.1s14.1-6.3,14.1-14.1v-86.7    C197.6,6.432,191.3,0.132,183.5,0.132z"
   id="path2184"
   style="fill:#b3b3b3" />
	</g>
</g>
<g
   id="g2194"
   style="fill:#b3b3b3">
	<g
   id="g2192"
   style="fill:#b3b3b3">
		<path
   d="M437.4,0.132c-23.3,0-42.3,19-42.3,42.3v30.3c0,23.4,19,42.3,42.3,42.3s42.3-19,42.3-42.3v-30.3    C479.7,19.132,460.7,0.132,437.4,0.132z M451.5,72.732c0,7.8-6.3,14.1-14.1,14.1c-7.8,0-14.1-6.3-14.1-14.1v-30.3    c0-7.8,6.3-14.1,14.1-14.1c7.8,0,14.1,6.3,14.1,14.1V72.732z"
   id="path2190"
   style="fill:#b3b3b3" />
	</g>
</g>
<g
   id="g2200"
   style="fill:#b3b3b3">
	<g
   id="g2198"
   style="fill:#b3b3b3">
		<path
   d="M352.8,0.132c-7.8,0-14.1,6.3-14.1,14.1v86.7c0,7.8,6.3,14.1,14.1,14.1s14.1-6.3,14.1-14.1v-86.7    C366.9,6.432,360.6,0.132,352.8,0.132z"
   id="path2196"
   style="fill:#b3b3b3" />
	</g>
</g>
<g
   id="g2206"
   style="fill:#b3b3b3">
	<g
   id="g2204"
   style="fill:#b3b3b3">
		<path
   d="M98.8,304.532c-23.3,0-42.3,19-42.3,42.3v30.3c0,23.3,19,42.3,42.3,42.3c23.3,0,42.3-19,42.3-42.3v-30.3    C141.1,323.532,122.1,304.532,98.8,304.532z M112.9,377.132c0,7.8-6.3,14.1-14.1,14.1s-14.1-6.3-14.1-14.1v-30.3    c0-7.8,6.3-14.1,14.1-14.1s14.1,6.3,14.1,14.1V377.132z"
   id="path2202"
   style="fill:#b3b3b3" />
	</g>
</g>
<g
   id="g2212"
   style="fill:#b3b3b3">
	<g
   id="g2210"
   style="fill:#b3b3b3">
		<path
   d="M14.1,304.532c-7.8,0-14.1,6.3-14.1,14.1v86.7c0,7.8,6.3,14.1,14.1,14.1c7.8,0,14.1-6.3,14.1-14.1v-86.7    C28.2,310.832,21.9,304.532,14.1,304.532z"
   id="path2208"
   style="fill:#b3b3b3" />
	</g>
</g>
<g
   id="g2218"
   style="fill:#b3b3b3">
	<g
   id="g2216"
   style="fill:#b3b3b3">
		<path
   d="M432.8,269.132C433.2,269.232,433.5,269.232,432.8,269.132L432.8,269.132z"
   id="path2214"
   style="fill:#b3b3b3" />
	</g>
</g>
<g
   id="g2224"
   style="fill:#b3b3b3">
	<g
   id="g2222"
   style="fill:#b3b3b3">
		<path
   d="M495.7,435.632l-28.7-28.4c7.9-7.7,12.8-18.4,12.8-30.1v-30.3c-1.2-21.3-15.7-43.2-46.1-42.1c1.3-11.7,0.9-23.6-0.9-35.6    c-0.4,0-0.8-0.1,0-0.1c23.3,0,47-13.4,47-42.2v-30.3c0-23.3-19-42.3-42.3-42.3c-21.5,0-39.4,16.2-42,37    c-26.4-28.4-64-46.2-105.7-46.2c-36.6,0-69.9,13.7-95.4,36.2c-6.2-15.8-21.5-27-39.4-27c-23.3,0-42.3,19-42.3,42.3v30.3    c0,20.6,14.7,37.7,34.2,41.5c-1,7-1.8,14.1-1.8,21.4c0,79.8,64.9,144.7,144.7,144.7c24.5,0,47.6-6.2,67.9-17l78.1,78.1    c15.5,16.3,44,16.9,59.9,0C512.8,478.532,511.7,451.632,495.7,435.632z M437.4,332.732c7.8,0,14.1,6.3,14.1,14.1v30.3    c0,4-1.7,7.6-4.4,10.2l-23.8-23.8v-16.7C424.5,338.332,429,333.432,437.4,332.732z M423.3,196.632c0-7.8,6.3-14.1,14.1-14.1    c7.8,0,14.1,6.3,14.1,14.1v30.3c0,7.8-6.3,14.1-14.1,14.1c-7.8,0-14.1-6.3-14.1-14.1V196.632z M169.1,210.132    c-6.3,9.6-11.4,19.9-15.3,30.8h-0.1c-7.2-0.7-12.8-6.7-12.8-14v-30.3c0-7.8,6.3-14.1,14.1-14.1s14.1,6.3,14.1,14.1V210.132z     M289.8,406.332c-64.3,0-116.5-52.1-116.5-116.5c0-64.3,52.1-116.5,116.5-116.5s116.5,52.1,116.5,116.5    C406.2,354.232,354.1,406.332,289.8,406.332z M475.6,475.732c-5.3,5.3-14.6,5.3-19.9,0l-74.1-74.1c7.3-6,14-12.7,19.9-19.9    l74.1,74.1C480.7,461.232,481.4,470.032,475.6,475.732z"
   id="path2220"
   style="fill:#b3b3b3" />
	</g>
</g>
<g
   id="g2230"
   style="fill:#b3b3b3">
	<g
   id="g2228"
   style="fill:#b3b3b3">
		<path
   d="M289.8,211.432c-7.8,0-14.1,6.3-14.1,14.1v73.3c0,7.8,6.3,14.1,14.1,14.1s14.1-6.3,14.1-14.1v-73.3    C303.9,217.833,297.6,211.432,289.8,211.432z"
   id="path2226"
   style="fill:#b3b3b3" />
	</g>
</g>
<g
   id="g2236"
   style="fill:#b3b3b3">
	<g
   id="g2234"
   style="fill:#b3b3b3">
		<path
   d="M289.8,331.932c-7.8,0-14.1,6.3-14.1,14.1v8.2c0,7.8,6.3,14.1,14.1,14.1s14.1-6.3,14.1-14.1v-8.2    C303.9,338.232,297.6,331.932,289.8,331.932z"
   id="path2232"
   style="fill:#b3b3b3" />
	</g>
</g>
</svg>
