<svg height="128" width="78" xmlns="http://www.w3.org/2000/svg"><g transform="matrix(1.23991 0 0 1.23991 -316.2029 -381.6965)"><path d="m291.3171 344.03134c11.83385-.96734 12.14841-2.32409 11.99127 13.82523" fill="#fff" fill-rule="evenodd" stroke="#808080" stroke-width="2.016277"/><path d="m267.33458 396.93397c-5.09329-4.07902-11.21728 1.25202-10.43945 3.52684 2.63713 7.71241 36.85806 12.18106 49.6424 6.51012 5.10041-2.26246 6.15818-2.48441 10.17283-5.38154 1.60564-1.15869-2.1161-9.54195-7.19476-5.78402" fill="#02d53a" fill-rule="evenodd" stroke="#005c18" stroke-width="2.016277"/><path d="m275.37578 311.44333c-8.96342.63537-9.91499 4.62678-7.61798 10.1573 1.61117 3.8792-.44046 72.88095-3.52684 73.64045 14.46257 8.29818 27.90925 7.56921 43.87391.84644 4.72185-18.02597 1.24962-21.42045-6.95528-41.59129-2.2063-5.42394-7.08508-20.32256-9.34466-30.56667l-3.98109.48611c-5.999-6.88826-9.17289-13.2045-12.44806-12.97234z" fill="#9c4185" fill-rule="evenodd" stroke="#600680" stroke-linejoin="round" stroke-width="2.016277"/><path d="m309.93882 396.93397c-7.23587 10.38035-45.41009 7.83993-47.24719-1.83449 2.87802-2.00312 11.29658 3.19192 23.67541 3.10468 14.85627-.10471 30.80766-11.65054 23.57178-1.27019z" fill="#9c4185" fill-rule="evenodd" stroke="#600680" stroke-width="2.016277"/><path d="m281.30087 318.21487c-4.15617 1.1285-6.73701 1.52806-13.96629 3.66791" fill="none" stroke="#000" stroke-linecap="round" stroke-width="3.629299"/><path d="m289.76613 317.33937c-.07084 2.45709.20225 5.31711-2.53775 5.50028-3.88144.25947-5.97631-7.46765-6.48778-10.1557-.54615-2.8703.53401-4.66569 3.10201-4.23062 6.13287 1.03904 5.45703 4.82777 5.92352 8.88604z" fill="#fff" stroke="#808080" stroke-width="2.016277"/><path d="m285.25093 314.12372a.28214732.28214732 0 1 1 -.5643 0 .28214732.28214732 0 1 1 .5643 0z" transform="matrix(4.082152 0 0 4.082152 -878.6698 -967.8244)"/><path d="m295.62703 334.67984c-.59998 1.82971.70418 3.07392-3.66633 4.37169-4.43404 1.31663-6.8997-5.40118-6.76993-7.19316.21103-2.91417 2.07476-3.32479 4.65382-2.96095 4.53782.64018 5.24257 1.79333 5.78244 5.78242z" fill="#600680" stroke="#600680" stroke-width="2.016277"/><g transform="translate(-20.45568 1.692884)"><path d="m317.63452 331.43514c-.59998 1.82971.70418 3.07392-3.66633 4.37169-4.43404 1.31663-6.8997-5.40118-6.76993-7.19316.21103-2.91417 2.07476-3.32479 4.65382-2.96095 4.53782.64018 5.24257 1.79333 5.78244 5.78242z" fill="#02d53a" stroke="#005c18" stroke-width="2.016277"/><path d="m314.65138 331.04867c-.25714.78418.3018 1.31742-1.57131 1.87362-1.90034.56428-2.95707-2.31484-2.90145-3.08284.09044-1.24895.88919-1.42493 1.99453-1.269 1.94481.27437 2.24686.76858 2.47823 2.47822z" fill="#005c18"/></g><path d="m305.64326 357.25162c1.33055 6.50813-1.49261 8.25674-4.3717 7.61639-4.3625-.97028-8.13134-3.79563-8.03959-7.33424.14118-5.44499.1811-7.59291 4.2306-8.18067 4.46664-.64831 7.07353 4.98416 8.18069 7.89852z" fill="#600680" stroke="#600680" stroke-width="2.016277"/><g transform="translate(-12.27341 9.310861)"><path d="m321.03739 347.16716c1.33055 6.50813-1.49261 8.25674-4.3717 7.61639-4.3625-.97028-8.13134-3.79563-8.03959-7.33424.14118-5.44499.1811-7.59291 4.2306-8.18067 4.46664-.64831 7.07353 4.98416 8.18069 7.89852z" fill="#02d53a" stroke="#005c18" stroke-width="2.016277"/><path d="m317.71107 347.10929c.59743 2.92223-.67021 3.70737-1.96296 3.41985-1.95881-.43567-3.65107-1.70428-3.60987-3.29316.0634-2.44487.08132-3.40931 1.89959-3.67322 2.00558-.29111 3.17611 2.23794 3.67324 3.54653z" fill="#005c18"/></g><path d="m311.63008 385.08369c-.35018 6.64078-2.80654 8.53927-7.0521 9.02713-4.84398.55662-7.85002-4.32185-7.89852-9.02713-.05719-5.54834 1.62272-9.50689 7.05208-9.02711 4.76727.42128 8.50387 3.89282 7.89854 9.02711z" fill="#600680" stroke="#600680" stroke-width="2.016277"/><g transform="translate(-13.82522 13.68414)"><path d="m328.84106 369.28344c-.35018 6.64078-2.80654 8.53927-7.0521 9.02713-4.84398.55662-7.85002-4.32185-7.89852-9.02713-.05719-5.54834 1.62272-9.50689 7.05208-9.02711 4.76727.42128 8.50387 3.89282 7.89854 9.02711z" fill="#02d53a" stroke="#005c18" stroke-width="2.016277"/><path d="m325.59872 369.28435c-.19765 3.74821-1.58408 4.81976-3.98037 5.09512-2.73405.31417-4.43073-2.43935-4.4581-5.09512-.03228-3.1316.9159-5.3659 3.98035-5.0951 2.69076.23778 4.79978 2.19719 4.45812 5.0951z" fill="#005c18"/></g><g fill-rule="evenodd" stroke-width="2.016277"><path d="m280.87765 347.27604c-.1881 0-.1881 0 0 0z" fill="#fff" stroke="#808080"/><path d="m265.21847 351.22611c-1.22133-.99634-.63494-6.81592 1.55181-7.47691 2.18674-.661 13.01245-.74272 15.94133 1.41074s12.49796 40.89032 12.13234 50.50437c-7.09227.53174-28.77104-1.27625-31.17729-4.37328-2.40624-3.09703 2.92113-30.42044 3.2447-37.5256" fill="#fff" stroke="#808080" stroke-linecap="round"/><path d="m268.60424 361.9477c-.18917.5675.17243 10.0877 6.34832 9.87516s3.54675-10.50276 4.09114-10.58053" fill="#9c4185" stroke="#600680"/><path d="m279.18476 359.40837.00001 4.51436-10.58053-.28215-.28214-2.25717" fill="#fff" stroke="#808080"/><path d="m269.59176 352.49577c-1.31952 1.15169-2.99837 2.71719-2.11611 9.87515 3.5688-4.31281 7.89126-1.68399 11.8502-2.68041.03045-.8041-.17443-3.15539 1.41073-4.51434" fill="#fff" stroke="#808080" stroke-linecap="round" stroke-linejoin="round"/><path d="m281.01872 348.5457c.25789.89878-.0284 2.80018 0 4.09114-4.37346.34426-14.43784.57312-15.65918-.42322" fill="#fff" stroke="#808080" stroke-linecap="round"/></g><path d="m283.69913 325.26855 2.53932-.28214c-.60668.15167 2.58492 2.44361 4.79651 2.25718s3.05339-1.83396 3.10361-1.83396l1.55182-.42323" fill="none" stroke="#000" stroke-linecap="round" stroke-linejoin="round" stroke-width="2.90344"/><path d="m270.86142 379.44083-.14107 8.46442c4.36883.95924 7.1136 1.93532 13.82522 1.55181l.14107-10.1573z" fill="#fff" fill-rule="evenodd" stroke="#808080" stroke-width="2.016277"/><path d="m270.72035 383.53197 13.68414-.14107.14108-3.95007-13.402-.14107z" fill="#fff" fill-rule="evenodd" stroke="#808080" stroke-width="2.016277"/></g></svg>