<?xml version="1.0" encoding="UTF-8" standalone="no"?>
<!-- Created with Inkscape (http://www.inkscape.org/) -->

<svg
   width="376.37494"
   height="108.67066"
   id="svg2"
   sodipodi:version="0.32"
   inkscape:version="1.2.2 (b0a84865, 2022-12-01)"
   version="1.0"
   sodipodi:docname="braille-sounds.svg"
   inkscape:output_extension="org.inkscape.output.svg.inkscape"
   xmlns:inkscape="http://www.inkscape.org/namespaces/inkscape"
   xmlns:sodipodi="http://sodipodi.sourceforge.net/DTD/sodipodi-0.dtd"
   xmlns="http://www.w3.org/2000/svg"
   xmlns:svg="http://www.w3.org/2000/svg"
   xmlns:rdf="http://www.w3.org/1999/02/22-rdf-syntax-ns#"
   xmlns:cc="http://creativecommons.org/ns#"
   xmlns:dc="http://purl.org/dc/elements/1.1/">
  <defs
     id="defs4">
    <rect
       x="-5.8000001e-06"
       y="42.666683"
       width="255.99998"
       height="74.666695"
       id="rect4359" />
    <marker
       style="overflow:visible"
       id="Arrow2Send"
       refX="0"
       refY="0"
       orient="auto"
       inkscape:stockid="Arrow2Send"
       inkscape:isstock="true">
      <path
         transform="matrix(-0.3,0,0,-0.3,0.69,0)"
         d="M 8.7185878,4.0337352 -2.2072895,0.01601326 8.7185884,-4.0017078 c -1.7454984,2.3720609 -1.7354408,5.6174519 -6e-7,8.035443 z"
         style="fill:context-stroke;fill-rule:evenodd;stroke-width:0.625;stroke-linejoin:round"
         id="path1733" />
    </marker>
    <marker
       style="overflow:visible"
       id="Arrow2Sstart"
       refX="0"
       refY="0"
       orient="auto"
       inkscape:stockid="Arrow2Sstart"
       inkscape:isstock="true">
      <path
         transform="matrix(0.3,0,0,0.3,-0.69,0)"
         d="M 8.7185878,4.0337352 -2.2072895,0.01601326 8.7185884,-4.0017078 c -1.7454984,2.3720609 -1.7354408,5.6174519 -6e-7,8.035443 z"
         style="fill:context-stroke;fill-rule:evenodd;stroke-width:0.625;stroke-linejoin:round"
         id="path1730" />
    </marker>
    <marker
       style="overflow:visible"
       id="Arrow1Sstart"
       refX="0"
       refY="0"
       orient="auto"
       inkscape:stockid="Arrow1Sstart"
       inkscape:isstock="true">
      <path
         transform="matrix(0.2,0,0,0.2,1.2,0)"
         style="fill:context-stroke;fill-rule:evenodd;stroke:context-stroke;stroke-width:1pt"
         d="M 0,0 5,-5 -12.5,0 5,5 Z"
         id="path1712" />
    </marker>
    <marker
       style="overflow:visible"
       id="Arrow2Mend"
       refX="0"
       refY="0"
       orient="auto"
       inkscape:stockid="Arrow2Mend"
       inkscape:isstock="true">
      <path
         transform="scale(-0.6)"
         d="M 8.7185878,4.0337352 -2.2072895,0.01601326 8.7185884,-4.0017078 c -1.7454984,2.3720609 -1.7354408,5.6174519 -6e-7,8.035443 z"
         style="fill:context-stroke;fill-rule:evenodd;stroke-width:0.625;stroke-linejoin:round"
         id="path1727" />
    </marker>
    <marker
       style="overflow:visible"
       id="Arrow2Lstart"
       refX="0"
       refY="0"
       orient="auto"
       inkscape:stockid="Arrow2Lstart"
       inkscape:isstock="true">
      <path
         transform="matrix(1.1,0,0,1.1,1.1,0)"
         d="M 8.7185878,4.0337352 -2.2072895,0.01601326 8.7185884,-4.0017078 c -1.7454984,2.3720609 -1.7354408,5.6174519 -6e-7,8.035443 z"
         style="fill:context-stroke;fill-rule:evenodd;stroke-width:0.625;stroke-linejoin:round"
         id="path1718" />
    </marker>
    <marker
       inkscape:stockid="EmptyTriangleOutM"
       orient="auto"
       refY="0"
       refX="0"
       id="EmptyTriangleOutM"
       style="overflow:visible"
       inkscape:isstock="true">
      <path
         id="path1339"
         d="M 5.77,0 -2.88,5 V -5 Z"
         style="fill:#ffffff;fill-rule:evenodd;stroke:#000000;stroke-width:1pt;stroke-opacity:1"
         transform="matrix(0.4,0,0,0.4,-1.8,0)"
         inkscape:connector-curvature="0" />
    </marker>
    <marker
       inkscape:stockid="Arrow2Mend"
       orient="auto"
       refY="0"
       refX="0"
       id="marker2124"
       style="overflow:visible"
       inkscape:isstock="true">
      <path
         id="path2122"
         style="fill:#000000;fill-opacity:1;fill-rule:evenodd;stroke:#000000;stroke-width:0.625;stroke-linejoin:round;stroke-opacity:1"
         d="M 8.7185878,4.0337352 -2.2072895,0.01601326 8.7185884,-4.0017078 c -1.7454984,2.3720609 -1.7354408,5.6174519 -6e-7,8.035443 z"
         transform="scale(-0.6)"
         inkscape:connector-curvature="0" />
    </marker>
    <marker
       inkscape:stockid="Arrow2Lend"
       orient="auto"
       refY="0"
       refX="0"
       id="Arrow2Lend"
       style="overflow:visible"
       inkscape:isstock="true">
      <path
         id="path1197"
         style="fill:#000000;fill-opacity:1;fill-rule:evenodd;stroke:#000000;stroke-width:0.625;stroke-linejoin:round;stroke-opacity:1"
         d="M 8.7185878,4.0337352 -2.2072895,0.01601326 8.7185884,-4.0017078 c -1.7454984,2.3720609 -1.7354408,5.6174519 -6e-7,8.035443 z"
         transform="matrix(-1.1,0,0,-1.1,-1.1,0)"
         inkscape:connector-curvature="0" />
    </marker>
    <inkscape:perspective
       sodipodi:type="inkscape:persp3d"
       inkscape:vp_x="0 : 576.67528 : 1"
       inkscape:vp_y="0 : 1066.6667 : 0"
       inkscape:vp_z="793.70078 : 576.67528 : 1"
       inkscape:persp3d-origin="396.85039 : 389.58867 : 1"
       id="perspective10" />
    <inkscape:perspective
       id="perspective2410"
       inkscape:persp3d-origin="396.85039 : 389.58867 : 1"
       inkscape:vp_z="793.70078 : 576.67528 : 1"
       inkscape:vp_y="0 : 1066.6667 : 0"
       inkscape:vp_x="0 : 576.67528 : 1"
       sodipodi:type="inkscape:persp3d" />
    <rect
       x="-5.8000001e-06"
       y="42.666683"
       width="255.99998"
       height="74.666695"
       id="rect8138" />
    <rect
       x="-5.8000001e-06"
       y="42.666683"
       width="255.99998"
       height="74.666695"
       id="rect8144" />
    <rect
       x="-5.8000001e-06"
       y="42.666683"
       width="255.99998"
       height="74.666695"
       id="rect8150" />
    <rect
       x="-5.8000001e-06"
       y="42.666683"
       width="255.99998"
       height="74.666695"
       id="rect8156" />
    <rect
       x="-5.8000001e-06"
       y="42.666683"
       width="255.99998"
       height="74.666695"
       id="rect9425" />
    <rect
       x="-5.8000001e-06"
       y="42.666683"
       width="255.99998"
       height="74.666695"
       id="rect11679" />
    <rect
       x="-5.8000001e-06"
       y="42.666683"
       width="255.99998"
       height="74.666695"
       id="rect11685" />
    <rect
       x="-5.8000001e-06"
       y="42.666683"
       width="255.99998"
       height="74.666695"
       id="rect11793" />
    <rect
       x="-5.8000001e-06"
       y="42.666683"
       width="255.99998"
       height="74.666695"
       id="rect12211" />
    <rect
       x="-5.8000001e-06"
       y="42.666683"
       width="255.99998"
       height="74.666695"
       id="rect12219" />
    <rect
       x="-5.8000001e-06"
       y="42.666683"
       width="255.99998"
       height="74.666695"
       id="rect12227" />
    <clipPath
       clipPathUnits="userSpaceOnUse"
       id="clipPath1015">
      <path
         d="m 184.507,563.998 h 50.995 v -43.002 h -50.995 z"
         id="path1013" />
    </clipPath>
  </defs>
  <sodipodi:namedview
     id="base"
     pagecolor="#ffffff"
     bordercolor="#666666"
     borderopacity="1.0"
     gridtolerance="10000"
     guidetolerance="10"
     objecttolerance="10"
     inkscape:pageopacity="0.0"
     inkscape:pageshadow="2"
     inkscape:zoom="1.0616761"
     inkscape:cx="227.47051"
     inkscape:cy="56.985365"
     inkscape:document-units="pt"
     inkscape:current-layer="g911"
     showgrid="true"
     inkscape:window-width="1800"
     inkscape:window-height="1069"
     inkscape:window-x="0"
     inkscape:window-y="44"
     units="in"
     inkscape:window-maximized="0"
     showguides="true"
     inkscape:snap-text-baseline="true"
     fit-margin-top="0"
     fit-margin-left="0"
     fit-margin-right="0"
     fit-margin-bottom="0"
     inkscape:pagecheckerboard="0"
     inkscape:snap-global="true"
     inkscape:snap-center="true"
     inkscape:showpageshadow="0"
     inkscape:deskcolor="#d1d1d1">
    <inkscape:grid
       type="xygrid"
       id="grid3017"
       empspacing="8"
       visible="true"
       enabled="true"
       snapvisiblegridlinesonly="true"
       units="pt"
       spacingx="1.3333333"
       spacingy="1.3333333"
       dotted="true"
       originx="-218.16054"
       originy="-379.73835" />
    <inkscape:grid
       type="xygrid"
       id="grid3019"
       empspacing="8"
       visible="true"
       enabled="true"
       snapvisiblegridlinesonly="true"
       units="pt"
       spacingx="10.666667"
       spacingy="10.666667"
       originx="-218.16054"
       originy="-379.73835" />
  </sodipodi:namedview>
  <metadata
     id="metadata7">
    <rdf:RDF>
      <cc:Work
         rdf:about="">
        <dc:format>image/svg+xml</dc:format>
        <dc:type
           rdf:resource="http://purl.org/dc/dcmitype/StillImage" />
      </cc:Work>
    </rdf:RDF>
  </metadata>
  <g
     inkscape:label="Layer 1"
     inkscape:groupmode="layer"
     id="layer1"
     transform="translate(8.2056957,278.8368)">
    <g
       id="g973"
       inkscape:label="Code - The Hidden Language of Computer Hardware and Software"
       transform="matrix(1.3333333,0,0,-1.3333333,71.892409,-192.43083)">
      <g
         id="g911"
         inkscape:label="Code - The Hidden Language of Computer Hardware and Software"
         transform="translate(-123.28658,-242.35952)">
        <g
           id="g1571"
           transform="translate(64.795,304.001)"
           style="fill:#999999">
          <path
             d="m 0,0 c -0.422,0 -0.791,0.158 -1.108,0.475 -0.316,0.316 -0.474,0.685 -0.474,1.107 0,0.421 0.158,0.791 0.474,1.107 C -0.791,3.005 -0.422,3.163 0,3.163 0.421,3.163 0.79,3.005 1.107,2.689 1.423,2.373 1.582,2.003 1.582,1.582 1.582,1.16 1.423,0.791 1.107,0.475 0.79,0.158 0.421,0 0,0 Z m 4.86,-9.717 c -0.422,0 -0.791,0.158 -1.108,0.474 -0.316,0.317 -0.474,0.685 -0.474,1.107 0,0.422 0.158,0.791 0.474,1.108 0.317,0.316 0.686,0.474 1.108,0.474 0.421,0 0.791,-0.158 1.107,-0.474 0.316,-0.317 0.475,-0.686 0.475,-1.108 0,-0.422 -0.159,-0.79 -0.475,-1.107 C 5.651,-9.559 5.281,-9.717 4.86,-9.717 Z M 0,-3.787 c -0.129,0 -0.246,0.053 -0.352,0.159 -0.105,0.105 -0.158,0.222 -0.158,0.351 0,0.129 0.053,0.246 0.158,0.352 0.106,0.105 0.223,0.158 0.352,0.158 0.129,0 0.246,-0.053 0.351,-0.158 0.106,-0.106 0.158,-0.223 0.158,-0.352 0,-0.129 -0.052,-0.246 -0.158,-0.351 C 0.246,-3.734 0.129,-3.787 0,-3.787 Z m 0,-4.858 c -0.129,0 -0.246,0.053 -0.352,0.158 -0.105,0.105 -0.158,0.223 -0.158,0.351 0,0.129 0.053,0.247 0.158,0.352 0.106,0.105 0.223,0.158 0.352,0.158 0.129,0 0.246,-0.053 0.351,-0.158 0.106,-0.105 0.158,-0.223 0.158,-0.352 0,-0.128 -0.052,-0.246 -0.158,-0.351 C 0.246,-8.592 0.129,-8.645 0,-8.645 Z M 4.86,1.072 C 4.731,1.072 4.614,1.125 4.508,1.23 4.403,1.336 4.35,1.453 4.35,1.582 4.35,1.711 4.403,1.828 4.508,1.933 4.614,2.039 4.731,2.092 4.86,2.092 4.989,2.092 5.106,2.039 5.211,1.933 5.317,1.828 5.369,1.711 5.369,1.582 5.369,1.453 5.317,1.336 5.211,1.23 5.106,1.125 4.989,1.072 4.86,1.072 Z m 0,-4.859 c -0.129,0 -0.246,0.053 -0.352,0.159 -0.105,0.105 -0.158,0.222 -0.158,0.351 0,0.129 0.053,0.246 0.158,0.352 0.106,0.105 0.223,0.158 0.352,0.158 0.129,0 0.246,-0.053 0.351,-0.158 0.106,-0.106 0.158,-0.223 0.158,-0.352 0,-0.129 -0.052,-0.246 -0.158,-0.351 C 5.106,-3.734 4.989,-3.787 4.86,-3.787"
             style="fill:#999999;fill-opacity:1;fill-rule:evenodd;stroke:none"
             id="path1573" />
        </g>
        <g
           id="g1575"
           transform="translate(94.952,304.001)"
           style="fill:#999999">
          <path
             d="m 0,0 c -0.422,0 -0.791,0.158 -1.107,0.475 -0.316,0.316 -0.475,0.685 -0.475,1.107 0,0.421 0.159,0.791 0.475,1.107 C -0.791,3.005 -0.422,3.163 0,3.163 0.422,3.163 0.791,3.005 1.108,2.689 1.424,2.373 1.582,2.003 1.582,1.582 1.582,1.16 1.424,0.791 1.108,0.475 0.791,0.158 0.422,0 0,0 Z m 0,-4.858 c -0.422,0 -0.791,0.158 -1.107,0.474 -0.316,0.316 -0.475,0.685 -0.475,1.107 0,0.422 0.159,0.791 0.475,1.107 0.316,0.317 0.685,0.475 1.107,0.475 0.422,0 0.791,-0.158 1.108,-0.475 0.316,-0.316 0.474,-0.685 0.474,-1.107 0,-0.422 -0.158,-0.791 -0.474,-1.107 C 0.791,-4.7 0.422,-4.858 0,-4.858 Z m 4.86,-4.859 c -0.422,0 -0.791,0.158 -1.107,0.474 -0.316,0.317 -0.475,0.685 -0.475,1.107 0,0.422 0.159,0.791 0.475,1.108 0.316,0.316 0.685,0.474 1.107,0.474 0.422,0 0.791,-0.158 1.108,-0.474 0.316,-0.317 0.474,-0.686 0.474,-1.108 0,-0.422 -0.158,-0.79 -0.474,-1.107 C 5.651,-9.559 5.282,-9.717 4.86,-9.717 Z M 0,-8.645 c -0.128,0 -0.246,0.053 -0.351,0.158 -0.105,0.105 -0.158,0.223 -0.158,0.351 0,0.129 0.053,0.247 0.158,0.352 0.105,0.105 0.223,0.158 0.351,0.158 0.129,0 0.247,-0.053 0.352,-0.158 C 0.458,-7.889 0.51,-8.007 0.51,-8.136 0.51,-8.264 0.458,-8.382 0.352,-8.487 0.247,-8.592 0.129,-8.645 0,-8.645 Z M 4.86,1.072 C 4.732,1.072 4.614,1.125 4.509,1.23 4.404,1.336 4.351,1.453 4.351,1.582 c 0,0.129 0.053,0.246 0.158,0.351 0.105,0.106 0.223,0.159 0.351,0.159 0.129,0 0.247,-0.053 0.352,-0.159 C 5.318,1.828 5.37,1.711 5.37,1.582 5.37,1.453 5.318,1.336 5.212,1.23 5.107,1.125 4.989,1.072 4.86,1.072 Z m 0,-4.859 c -0.128,0 -0.246,0.053 -0.351,0.159 -0.105,0.105 -0.158,0.222 -0.158,0.351 0,0.129 0.053,0.246 0.158,0.352 0.105,0.105 0.223,0.158 0.351,0.158 0.129,0 0.247,-0.053 0.352,-0.158 C 5.318,-3.031 5.37,-3.148 5.37,-3.277 5.37,-3.406 5.318,-3.523 5.212,-3.628 5.107,-3.734 4.989,-3.787 4.86,-3.787"
             style="fill:#999999;fill-opacity:1;fill-rule:evenodd;stroke:none"
             id="path1577" />
        </g>
        <g
           id="g1579"
           transform="translate(125.11,304.001)"
           style="fill:#999999">
          <path
             d="m 0,0 c -0.422,0 -0.791,0.158 -1.107,0.475 -0.317,0.316 -0.475,0.685 -0.475,1.107 0,0.421 0.158,0.791 0.475,1.107 C -0.791,3.005 -0.422,3.163 0,3.163 0.422,3.163 0.791,3.005 1.108,2.689 1.424,2.373 1.582,2.003 1.582,1.582 1.582,1.16 1.424,0.791 1.108,0.475 0.791,0.158 0.422,0 0,0 Z M 4.86,0 C 4.438,0 4.069,0.158 3.753,0.475 3.436,0.791 3.278,1.16 3.278,1.582 c 0,0.421 0.158,0.791 0.475,1.107 0.316,0.316 0.685,0.474 1.107,0.474 0.422,0 0.791,-0.158 1.108,-0.474 C 6.284,2.373 6.442,2.003 6.442,1.582 6.442,1.16 6.284,0.791 5.968,0.475 5.651,0.158 5.282,0 4.86,0 Z m 0,-9.717 c -0.422,0 -0.791,0.158 -1.107,0.474 -0.317,0.317 -0.475,0.685 -0.475,1.107 0,0.422 0.158,0.791 0.475,1.108 0.316,0.316 0.685,0.474 1.107,0.474 0.422,0 0.791,-0.158 1.108,-0.474 0.316,-0.317 0.474,-0.686 0.474,-1.108 0,-0.422 -0.158,-0.79 -0.474,-1.107 C 5.651,-9.559 5.282,-9.717 4.86,-9.717 Z M 0,-3.787 c -0.129,0 -0.246,0.053 -0.351,0.159 -0.106,0.105 -0.158,0.222 -0.158,0.351 0,0.129 0.052,0.246 0.158,0.352 0.105,0.105 0.222,0.158 0.351,0.158 0.129,0 0.246,-0.053 0.352,-0.158 C 0.457,-3.031 0.51,-3.148 0.51,-3.277 0.51,-3.406 0.457,-3.523 0.352,-3.628 0.246,-3.734 0.129,-3.787 0,-3.787 Z m 0,-4.858 c -0.129,0 -0.246,0.053 -0.351,0.158 -0.106,0.105 -0.158,0.223 -0.158,0.351 0,0.129 0.052,0.247 0.158,0.352 0.105,0.105 0.222,0.158 0.351,0.158 0.129,0 0.246,-0.053 0.352,-0.158 C 0.457,-7.889 0.51,-8.007 0.51,-8.136 0.51,-8.264 0.457,-8.382 0.352,-8.487 0.246,-8.592 0.129,-8.645 0,-8.645 Z m 4.86,4.858 c -0.129,0 -0.246,0.053 -0.351,0.159 -0.106,0.105 -0.158,0.222 -0.158,0.351 0,0.129 0.052,0.246 0.158,0.352 0.105,0.105 0.222,0.158 0.351,0.158 0.129,0 0.246,-0.053 0.352,-0.158 C 5.317,-3.031 5.37,-3.148 5.37,-3.277 5.37,-3.406 5.317,-3.523 5.212,-3.628 5.106,-3.734 4.989,-3.787 4.86,-3.787"
             style="fill:#999999;fill-opacity:1;fill-rule:evenodd;stroke:none"
             id="path1581" />
        </g>
        <g
           id="g1583"
           transform="translate(155.268,304.001)"
           style="fill:#999999">
          <path
             d="m 0,0 c -0.422,0 -0.791,0.158 -1.107,0.475 -0.317,0.316 -0.475,0.685 -0.475,1.107 0,0.421 0.158,0.791 0.475,1.107 C -0.791,3.005 -0.422,3.163 0,3.163 0.422,3.163 0.791,3.005 1.108,2.689 1.424,2.373 1.582,2.003 1.582,1.582 1.582,1.16 1.424,0.791 1.108,0.475 0.791,0.158 0.422,0 0,0 Z M 4.86,0 C 4.438,0 4.069,0.158 3.753,0.475 3.436,0.791 3.278,1.16 3.278,1.582 c 0,0.421 0.158,0.791 0.475,1.107 0.316,0.316 0.685,0.474 1.107,0.474 0.422,0 0.791,-0.158 1.108,-0.474 C 6.284,2.373 6.442,2.003 6.442,1.582 6.442,1.16 6.284,0.791 5.968,0.475 5.651,0.158 5.282,0 4.86,0 Z m 0,-4.858 c -0.422,0 -0.791,0.158 -1.107,0.474 -0.317,0.316 -0.475,0.685 -0.475,1.107 0,0.422 0.158,0.791 0.475,1.107 0.316,0.317 0.685,0.475 1.107,0.475 0.422,0 0.791,-0.158 1.108,-0.475 0.316,-0.316 0.474,-0.685 0.474,-1.107 0,-0.422 -0.158,-0.791 -0.474,-1.107 C 5.651,-4.7 5.282,-4.858 4.86,-4.858 Z m 0,-4.859 c -0.422,0 -0.791,0.158 -1.107,0.474 -0.317,0.317 -0.475,0.685 -0.475,1.107 0,0.422 0.158,0.791 0.475,1.108 0.316,0.316 0.685,0.474 1.107,0.474 0.422,0 0.791,-0.158 1.108,-0.474 0.316,-0.317 0.474,-0.686 0.474,-1.108 0,-0.422 -0.158,-0.79 -0.474,-1.107 C 5.651,-9.559 5.282,-9.717 4.86,-9.717 Z M 0,-3.787 c -0.129,0 -0.246,0.053 -0.351,0.159 -0.106,0.105 -0.158,0.222 -0.158,0.351 0,0.129 0.052,0.246 0.158,0.352 0.105,0.105 0.222,0.158 0.351,0.158 0.129,0 0.246,-0.053 0.352,-0.158 C 0.457,-3.031 0.51,-3.148 0.51,-3.277 0.51,-3.406 0.457,-3.523 0.352,-3.628 0.246,-3.734 0.129,-3.787 0,-3.787 Z m 0,-4.858 c -0.129,0 -0.246,0.053 -0.351,0.158 -0.106,0.105 -0.158,0.223 -0.158,0.351 0,0.129 0.052,0.247 0.158,0.352 0.105,0.105 0.222,0.158 0.351,0.158 0.129,0 0.246,-0.053 0.352,-0.158 C 0.457,-7.889 0.51,-8.007 0.51,-8.136 0.51,-8.264 0.457,-8.382 0.352,-8.487 0.246,-8.592 0.129,-8.645 0,-8.645"
             style="fill:#999999;fill-opacity:1;fill-rule:evenodd;stroke:none"
             id="path1585" />
        </g>
        <g
           id="g1587"
           transform="translate(185.426,304.001)"
           style="fill:#999999">
          <path
             d="m 0,0 c -0.422,0 -0.791,0.158 -1.108,0.475 -0.316,0.316 -0.474,0.685 -0.474,1.107 0,0.421 0.158,0.791 0.474,1.107 C -0.791,3.005 -0.422,3.163 0,3.163 0.422,3.163 0.791,3.005 1.107,2.689 1.424,2.373 1.582,2.003 1.582,1.582 1.582,1.16 1.424,0.791 1.107,0.475 0.791,0.158 0.422,0 0,0 Z m 4.86,-4.858 c -0.422,0 -0.791,0.158 -1.108,0.474 -0.316,0.316 -0.474,0.685 -0.474,1.107 0,0.422 0.158,0.791 0.474,1.107 0.317,0.317 0.686,0.475 1.108,0.475 0.422,0 0.791,-0.158 1.108,-0.475 0.316,-0.316 0.474,-0.685 0.474,-1.107 0,-0.422 -0.158,-0.791 -0.474,-1.107 C 5.651,-4.7 5.282,-4.858 4.86,-4.858 Z m 0,-4.859 c -0.422,0 -0.791,0.158 -1.108,0.474 -0.316,0.317 -0.474,0.685 -0.474,1.107 0,0.422 0.158,0.791 0.474,1.108 0.317,0.316 0.686,0.474 1.108,0.474 0.422,0 0.791,-0.158 1.108,-0.474 0.316,-0.317 0.474,-0.686 0.474,-1.108 0,-0.422 -0.158,-0.79 -0.474,-1.107 C 5.651,-9.559 5.282,-9.717 4.86,-9.717 Z M 0,-3.787 c -0.129,0 -0.246,0.053 -0.352,0.159 -0.105,0.105 -0.158,0.222 -0.158,0.351 0,0.129 0.053,0.246 0.158,0.352 0.106,0.105 0.223,0.158 0.352,0.158 0.129,0 0.246,-0.053 0.352,-0.158 C 0.457,-3.031 0.51,-3.148 0.51,-3.277 0.51,-3.406 0.457,-3.523 0.352,-3.628 0.246,-3.734 0.129,-3.787 0,-3.787 Z m 0,-4.858 c -0.129,0 -0.246,0.053 -0.352,0.158 -0.105,0.105 -0.158,0.223 -0.158,0.351 0,0.129 0.053,0.247 0.158,0.352 0.106,0.105 0.223,0.158 0.352,0.158 0.129,0 0.246,-0.053 0.352,-0.158 C 0.457,-7.889 0.51,-8.007 0.51,-8.136 0.51,-8.264 0.457,-8.382 0.352,-8.487 0.246,-8.592 0.129,-8.645 0,-8.645 Z M 4.86,1.072 C 4.731,1.072 4.614,1.125 4.509,1.23 4.403,1.336 4.35,1.453 4.35,1.582 4.35,1.711 4.403,1.828 4.509,1.933 4.614,2.039 4.731,2.092 4.86,2.092 4.989,2.092 5.106,2.039 5.212,1.933 5.317,1.828 5.37,1.711 5.37,1.582 5.37,1.453 5.317,1.336 5.212,1.23 5.106,1.125 4.989,1.072 4.86,1.072"
             style="fill:#999999;fill-opacity:1;fill-rule:evenodd;stroke:none"
             id="path1589" />
        </g>
        <g
           id="g1591"
           transform="translate(215.584,304.001)"
           style="fill:#999999">
          <path
             d="m 0,0 c -0.422,0 -0.791,0.158 -1.108,0.475 -0.316,0.316 -0.474,0.685 -0.474,1.107 0,0.421 0.158,0.791 0.474,1.107 C -0.791,3.005 -0.422,3.163 0,3.163 0.422,3.163 0.791,3.005 1.107,2.689 1.424,2.373 1.582,2.003 1.582,1.582 1.582,1.16 1.424,0.791 1.107,0.475 0.791,0.158 0.422,0 0,0 Z m 0,-4.858 c -0.422,0 -0.791,0.158 -1.108,0.474 -0.316,0.316 -0.474,0.685 -0.474,1.107 0,0.422 0.158,0.791 0.474,1.107 0.317,0.317 0.686,0.475 1.108,0.475 0.422,0 0.791,-0.158 1.107,-0.475 0.317,-0.316 0.475,-0.685 0.475,-1.107 0,-0.422 -0.158,-0.791 -0.475,-1.107 C 0.791,-4.7 0.422,-4.858 0,-4.858 Z M 4.86,0 C 4.438,0 4.069,0.158 3.752,0.475 3.436,0.791 3.278,1.16 3.278,1.582 c 0,0.421 0.158,0.791 0.474,1.107 0.317,0.316 0.686,0.474 1.108,0.474 0.422,0 0.791,-0.158 1.107,-0.474 C 6.284,2.373 6.442,2.003 6.442,1.582 6.442,1.16 6.284,0.791 5.967,0.475 5.651,0.158 5.282,0 4.86,0 Z m 0,-9.717 c -0.422,0 -0.791,0.158 -1.108,0.474 -0.316,0.317 -0.474,0.685 -0.474,1.107 0,0.422 0.158,0.791 0.474,1.108 0.317,0.316 0.686,0.474 1.108,0.474 0.422,0 0.791,-0.158 1.107,-0.474 0.317,-0.317 0.475,-0.686 0.475,-1.108 0,-0.422 -0.158,-0.79 -0.475,-1.107 C 5.651,-9.559 5.282,-9.717 4.86,-9.717 Z M 0,-8.645 c -0.129,0 -0.246,0.053 -0.352,0.158 -0.105,0.105 -0.158,0.223 -0.158,0.351 0,0.129 0.053,0.247 0.158,0.352 0.106,0.105 0.223,0.158 0.352,0.158 0.129,0 0.246,-0.053 0.352,-0.158 C 0.457,-7.889 0.51,-8.007 0.51,-8.136 0.51,-8.264 0.457,-8.382 0.352,-8.487 0.246,-8.592 0.129,-8.645 0,-8.645 Z m 4.86,4.858 c -0.129,0 -0.246,0.053 -0.352,0.159 -0.105,0.105 -0.158,0.222 -0.158,0.351 0,0.129 0.053,0.246 0.158,0.352 0.106,0.105 0.223,0.158 0.352,0.158 0.129,0 0.246,-0.053 0.352,-0.158 C 5.317,-3.031 5.37,-3.148 5.37,-3.277 5.37,-3.406 5.317,-3.523 5.212,-3.628 5.106,-3.734 4.989,-3.787 4.86,-3.787"
             style="fill:#999999;fill-opacity:1;fill-rule:evenodd;stroke:none"
             id="path1593" />
        </g>
        <g
           id="g1595"
           transform="translate(245.742,304.001)"
           style="fill:#999999">
          <path
             d="m 0,0 c -0.422,0 -0.791,0.158 -1.108,0.475 -0.316,0.316 -0.474,0.685 -0.474,1.107 0,0.421 0.158,0.791 0.474,1.107 C -0.791,3.005 -0.422,3.163 0,3.163 0.422,3.163 0.791,3.005 1.107,2.689 1.424,2.373 1.582,2.003 1.582,1.582 1.582,1.16 1.424,0.791 1.107,0.475 0.791,0.158 0.422,0 0,0 Z m 0,-4.858 c -0.422,0 -0.791,0.158 -1.108,0.474 -0.316,0.316 -0.474,0.685 -0.474,1.107 0,0.422 0.158,0.791 0.474,1.107 0.317,0.317 0.686,0.475 1.108,0.475 0.422,0 0.791,-0.158 1.107,-0.475 0.317,-0.316 0.475,-0.685 0.475,-1.107 0,-0.422 -0.158,-0.791 -0.475,-1.107 C 0.791,-4.7 0.422,-4.858 0,-4.858 Z M 4.86,0 C 4.438,0 4.069,0.158 3.752,0.475 3.436,0.791 3.278,1.16 3.278,1.582 c 0,0.421 0.158,0.791 0.474,1.107 0.317,0.316 0.686,0.474 1.108,0.474 0.422,0 0.791,-0.158 1.107,-0.474 C 6.284,2.373 6.442,2.003 6.442,1.582 6.442,1.16 6.284,0.791 5.967,0.475 5.651,0.158 5.282,0 4.86,0 Z m 0,-4.858 c -0.422,0 -0.791,0.158 -1.108,0.474 -0.316,0.316 -0.474,0.685 -0.474,1.107 0,0.422 0.158,0.791 0.474,1.107 0.317,0.317 0.686,0.475 1.108,0.475 0.422,0 0.791,-0.158 1.107,-0.475 0.317,-0.316 0.475,-0.685 0.475,-1.107 0,-0.422 -0.158,-0.791 -0.475,-1.107 C 5.651,-4.7 5.282,-4.858 4.86,-4.858 Z m 0,-4.859 c -0.422,0 -0.791,0.158 -1.108,0.474 -0.316,0.317 -0.474,0.685 -0.474,1.107 0,0.422 0.158,0.791 0.474,1.108 0.317,0.316 0.686,0.474 1.108,0.474 0.422,0 0.791,-0.158 1.107,-0.474 0.317,-0.317 0.475,-0.686 0.475,-1.108 0,-0.422 -0.158,-0.79 -0.475,-1.107 C 5.651,-9.559 5.282,-9.717 4.86,-9.717 Z M 0,-8.645 c -0.129,0 -0.246,0.053 -0.352,0.158 -0.105,0.105 -0.158,0.223 -0.158,0.351 0,0.129 0.053,0.247 0.158,0.352 0.106,0.105 0.223,0.158 0.352,0.158 0.129,0 0.246,-0.053 0.352,-0.158 C 0.457,-7.889 0.51,-8.007 0.51,-8.136 0.51,-8.264 0.457,-8.382 0.352,-8.487 0.246,-8.592 0.129,-8.645 0,-8.645"
             style="fill:#999999;fill-opacity:1;fill-rule:evenodd;stroke:none"
             id="path1597" />
        </g>
        <g
           id="g1599"
           transform="translate(275.9,304.001)"
           style="fill:#999999">
          <path
             d="m 0,0 c -0.422,0 -0.791,0.158 -1.108,0.475 -0.316,0.316 -0.474,0.685 -0.474,1.107 0,0.421 0.158,0.791 0.474,1.107 C -0.791,3.005 -0.422,3.163 0,3.163 0.422,3.163 0.791,3.005 1.107,2.689 1.423,2.373 1.582,2.003 1.582,1.582 1.582,1.16 1.423,0.791 1.107,0.475 0.791,0.158 0.422,0 0,0 Z m 0,-4.858 c -0.422,0 -0.791,0.158 -1.108,0.474 -0.316,0.316 -0.474,0.685 -0.474,1.107 0,0.422 0.158,0.791 0.474,1.107 0.317,0.317 0.686,0.475 1.108,0.475 0.422,0 0.791,-0.158 1.107,-0.475 0.316,-0.316 0.475,-0.685 0.475,-1.107 0,-0.422 -0.159,-0.791 -0.475,-1.107 C 0.791,-4.7 0.422,-4.858 0,-4.858 Z m 4.86,0 c -0.422,0 -0.791,0.158 -1.108,0.474 -0.316,0.316 -0.474,0.685 -0.474,1.107 0,0.422 0.158,0.791 0.474,1.107 0.317,0.317 0.686,0.475 1.108,0.475 0.422,0 0.791,-0.158 1.107,-0.475 0.316,-0.316 0.475,-0.685 0.475,-1.107 0,-0.422 -0.159,-0.791 -0.475,-1.107 C 5.651,-4.7 5.282,-4.858 4.86,-4.858 Z m 0,-4.859 c -0.422,0 -0.791,0.158 -1.108,0.474 -0.316,0.317 -0.474,0.685 -0.474,1.107 0,0.422 0.158,0.791 0.474,1.108 0.317,0.316 0.686,0.474 1.108,0.474 0.422,0 0.791,-0.158 1.107,-0.474 0.316,-0.317 0.475,-0.686 0.475,-1.108 0,-0.422 -0.159,-0.79 -0.475,-1.107 C 5.651,-9.559 5.282,-9.717 4.86,-9.717 Z M 0,-8.645 c -0.129,0 -0.246,0.053 -0.352,0.158 -0.105,0.105 -0.158,0.223 -0.158,0.351 0,0.129 0.053,0.247 0.158,0.352 0.106,0.105 0.223,0.158 0.352,0.158 0.129,0 0.246,-0.053 0.351,-0.158 C 0.457,-7.889 0.51,-8.007 0.51,-8.136 0.51,-8.264 0.457,-8.382 0.351,-8.487 0.246,-8.592 0.129,-8.645 0,-8.645 Z M 4.86,1.072 C 4.731,1.072 4.614,1.125 4.508,1.23 4.403,1.336 4.35,1.453 4.35,1.582 4.35,1.711 4.403,1.828 4.508,1.933 4.614,2.039 4.731,2.092 4.86,2.092 4.989,2.092 5.106,2.039 5.211,1.933 5.317,1.828 5.37,1.711 5.37,1.582 5.37,1.453 5.317,1.336 5.211,1.23 5.106,1.125 4.989,1.072 4.86,1.072"
             style="fill:#999999;fill-opacity:1;fill-rule:evenodd;stroke:none"
             id="path1601" />
        </g>
        <g
           id="g1603"
           transform="translate(306.057,299.143)"
           style="fill:#999999">
          <path
             d="m 0,0 c -0.421,0 -0.791,0.158 -1.107,0.474 -0.316,0.316 -0.475,0.685 -0.475,1.107 0,0.422 0.159,0.791 0.475,1.107 C -0.791,3.005 -0.421,3.163 0,3.163 0.422,3.163 0.791,3.005 1.108,2.688 1.424,2.372 1.582,2.003 1.582,1.581 1.582,1.159 1.424,0.79 1.108,0.474 0.791,0.158 0.422,0 0,0 Z M 4.86,4.858 C 4.439,4.858 4.069,5.016 3.753,5.333 3.437,5.649 3.278,6.018 3.278,6.44 c 0,0.421 0.159,0.791 0.475,1.107 0.316,0.316 0.686,0.474 1.107,0.474 0.422,0 0.791,-0.158 1.108,-0.474 C 6.284,7.231 6.442,6.861 6.442,6.44 6.442,6.018 6.284,5.649 5.968,5.333 5.651,5.016 5.282,4.858 4.86,4.858 Z m 0,-9.717 c -0.421,0 -0.791,0.158 -1.107,0.474 -0.316,0.317 -0.475,0.685 -0.475,1.107 0,0.422 0.159,0.791 0.475,1.108 0.316,0.316 0.686,0.474 1.107,0.474 0.422,0 0.791,-0.158 1.108,-0.474 0.316,-0.317 0.474,-0.686 0.474,-1.108 0,-0.422 -0.158,-0.79 -0.474,-1.107 C 5.651,-4.701 5.282,-4.859 4.86,-4.859 Z M 0,5.93 c -0.128,0 -0.246,0.053 -0.351,0.158 -0.105,0.106 -0.158,0.223 -0.158,0.352 0,0.129 0.053,0.246 0.158,0.351 C -0.246,6.897 -0.128,6.95 0,6.95 0.129,6.95 0.247,6.897 0.352,6.791 0.458,6.686 0.51,6.569 0.51,6.44 0.51,6.311 0.458,6.194 0.352,6.088 0.247,5.983 0.129,5.93 0,5.93 Z m 0,-9.717 c -0.128,0 -0.246,0.053 -0.351,0.158 -0.105,0.105 -0.158,0.223 -0.158,0.351 0,0.129 0.053,0.247 0.158,0.352 0.105,0.105 0.223,0.158 0.351,0.158 0.129,0 0.247,-0.053 0.352,-0.158 C 0.458,-3.031 0.51,-3.149 0.51,-3.278 0.51,-3.406 0.458,-3.524 0.352,-3.629 0.247,-3.734 0.129,-3.787 0,-3.787 Z M 4.86,1.071 C 4.732,1.071 4.614,1.124 4.509,1.23 4.404,1.335 4.351,1.452 4.351,1.581 4.351,1.71 4.404,1.827 4.509,1.933 4.614,2.038 4.732,2.091 4.86,2.091 4.989,2.091 5.107,2.038 5.212,1.933 5.318,1.827 5.37,1.71 5.37,1.581 5.37,1.452 5.318,1.335 5.212,1.23 5.107,1.124 4.989,1.071 4.86,1.071"
             style="fill:#999999;fill-opacity:1;fill-rule:evenodd;stroke:none"
             id="path1605" />
        </g>
        <g
           id="g1607"
           transform="translate(336.215,299.143)"
           style="fill:#999999">
          <path
             d="m 0,0 c -0.422,0 -0.791,0.158 -1.107,0.474 -0.316,0.316 -0.475,0.685 -0.475,1.107 0,0.422 0.159,0.791 0.475,1.107 C -0.791,3.005 -0.422,3.163 0,3.163 0.422,3.163 0.791,3.005 1.108,2.688 1.424,2.372 1.582,2.003 1.582,1.581 1.582,1.159 1.424,0.79 1.108,0.474 0.791,0.158 0.422,0 0,0 Z M 4.86,4.858 C 4.439,4.858 4.069,5.016 3.753,5.333 3.437,5.649 3.278,6.018 3.278,6.44 c 0,0.421 0.159,0.791 0.475,1.107 0.316,0.316 0.686,0.474 1.107,0.474 0.422,0 0.791,-0.158 1.108,-0.474 C 6.284,7.231 6.442,6.861 6.442,6.44 6.442,6.018 6.284,5.649 5.968,5.333 5.651,5.016 5.282,4.858 4.86,4.858 Z M 4.86,0 C 4.439,0 4.069,0.158 3.753,0.474 3.437,0.79 3.278,1.159 3.278,1.581 c 0,0.422 0.159,0.791 0.475,1.107 0.316,0.317 0.686,0.475 1.107,0.475 0.422,0 0.791,-0.158 1.108,-0.475 C 6.284,2.372 6.442,2.003 6.442,1.581 6.442,1.159 6.284,0.79 5.968,0.474 5.651,0.158 5.282,0 4.86,0 Z m 0,-4.859 c -0.421,0 -0.791,0.158 -1.107,0.474 -0.316,0.317 -0.475,0.685 -0.475,1.107 0,0.422 0.159,0.791 0.475,1.108 0.316,0.316 0.686,0.474 1.107,0.474 0.422,0 0.791,-0.158 1.108,-0.474 0.316,-0.317 0.474,-0.686 0.474,-1.108 0,-0.422 -0.158,-0.79 -0.474,-1.107 C 5.651,-4.701 5.282,-4.859 4.86,-4.859 Z M 0,5.93 c -0.129,0 -0.245,0.053 -0.351,0.158 -0.106,0.106 -0.158,0.223 -0.158,0.352 0,0.129 0.052,0.246 0.158,0.351 C -0.245,6.897 -0.129,6.95 0,6.95 0.129,6.95 0.246,6.897 0.352,6.791 0.458,6.686 0.51,6.569 0.51,6.44 0.51,6.311 0.458,6.194 0.352,6.088 0.246,5.983 0.129,5.93 0,5.93 Z m 0,-9.717 c -0.129,0 -0.245,0.053 -0.351,0.158 -0.106,0.105 -0.158,0.223 -0.158,0.351 0,0.129 0.052,0.247 0.158,0.352 0.106,0.105 0.222,0.158 0.351,0.158 0.129,0 0.246,-0.053 0.352,-0.158 C 0.458,-3.031 0.51,-3.149 0.51,-3.278 0.51,-3.406 0.458,-3.524 0.352,-3.629 0.246,-3.734 0.129,-3.787 0,-3.787"
             style="fill:#999999;fill-opacity:1;fill-rule:evenodd;stroke:none"
             id="path1609" />
        </g>
        <g
           id="g1611"
           transform="translate(66.464,279.71)"
           style="fill:#999999">
          <path
             d="m 0,0 c -0.304,-0.232 -0.568,-0.376 -0.976,-0.376 -0.872,0 -1.4,0.727 -1.4,1.551 0,0.608 0.36,1.376 1.048,1.376 0.752,0 0.736,-0.648 1.072,-0.648 0.192,0 0.304,0.168 0.304,0.352 0,0.424 -0.672,0.552 -1.08,0.552 -1.152,0 -1.984,-0.96 -1.984,-2.12 0,-0.847 0.76,-1.655 1.592,-1.655 0.632,0 1.168,0.376 1.56,0.831 L 0,0"
             style="fill:#999999;fill-opacity:1;fill-rule:nonzero;stroke:none"
             id="path1613" />
        </g>
        <g
           id="g1615"
           transform="translate(67.548,279.334)"
           style="fill:#999999">
          <path
             d="m 0,0 c 0,-0.264 -0.16,-0.264 -0.384,-0.264 h -0.144 v -0.208 c 0.288,0.008 0.576,0.016 0.864,0.016 0.288,0 0.568,-0.016 0.848,-0.016 v 0.208 H 1.04 c -0.224,0 -0.4,0 -0.4,0.264 v 2.255 c 0.184,0.168 0.504,0.448 0.88,0.448 0.728,0 0.784,-0.608 0.784,-1.192 V 0.608 c 0,-0.784 -0.024,-0.872 -0.4,-0.872 H 1.76 v -0.208 c 0.288,0.008 0.576,0.016 0.864,0.016 0.304,0 0.584,-0.016 0.864,-0.016 v 0.208 H 3.344 c -0.224,0 -0.4,0 -0.4,0.264 v 1.975 c 0,0.696 -0.376,1.208 -1.072,1.208 -0.648,0 -1.16,-0.64 -1.232,-0.704 V 5.526 C 0.64,5.59 0.624,5.638 0.576,5.638 0.552,5.638 0.488,5.598 0.4,5.55 0.232,5.454 -0.104,5.31 -0.424,5.206 V 5.078 C -0.12,4.99 0,4.974 0,4.454 V 0"
             style="fill:#999999;fill-opacity:1;fill-rule:nonzero;stroke:none"
             id="path1617" />
        </g>
        <g
           id="g1619"
           transform="translate(96.979,282.309)"
           style="fill:#999999">
          <path
             d="m 0,0 c -0.208,-0.032 -0.32,-0.04 -0.464,-0.04 -0.328,0 -0.552,0.072 -0.776,0.136 -0.192,0.056 -0.464,0.112 -0.704,0.112 -0.984,0 -1.496,-0.536 -1.496,-1.232 0,-0.528 0.304,-0.831 0.752,-1.064 -0.112,-0.103 -0.44,-0.263 -0.664,-0.399 -0.032,-0.08 -0.032,-0.168 -0.032,-0.256 0,-0.368 0.368,-0.6 0.704,-0.696 v -0.016 c -0.488,-0.096 -0.936,-0.408 -0.936,-0.92 0,-0.432 0.496,-0.896 1.512,-0.896 1.704,0 2.12,1.224 2.12,1.536 0,0.6 -0.408,0.808 -1.096,0.808 -0.32,0 -0.712,0.008 -1.104,0.008 -0.528,0 -0.56,0.247 -0.56,0.368 0,0.192 0.088,0.295 0.24,0.408 0.16,-0.033 0.32,-0.048 0.44,-0.048 0.992,0 1.48,0.648 1.48,1.231 0,0.216 -0.072,0.44 -0.208,0.608 L 0,-0.384 Z m -0.576,-4.095 c 0,-0.712 -0.912,-0.92 -1.4,-0.92 -0.56,0 -1.056,0.264 -1.056,0.816 0,0.752 0.808,0.752 1.328,0.752 0.424,0 1.128,-0.064 1.128,-0.648 z m -0.648,3.047 c 0,-0.488 -0.232,-0.936 -0.776,-0.936 -0.552,0 -0.752,0.608 -0.752,1.072 0,0.424 0.216,0.912 0.704,0.912 0.56,0 0.824,-0.56 0.824,-1.048"
             style="fill:#999999;fill-opacity:1;fill-rule:evenodd;stroke:none"
             id="path1621" />
        </g>
        <g
           id="g1623"
           transform="translate(97.933,279.334)"
           style="fill:#999999">
          <path
             d="m 0,0 c 0,-0.264 -0.16,-0.264 -0.384,-0.264 h -0.144 v -0.208 c 0.288,0.008 0.576,0.016 0.864,0.016 0.288,0 0.568,-0.016 0.848,-0.016 v 0.208 H 1.04 c -0.224,0 -0.4,0 -0.4,0.264 v 2.255 c 0.184,0.168 0.504,0.448 0.88,0.448 0.728,0 0.784,-0.608 0.784,-1.192 V 0.608 c 0,-0.784 -0.024,-0.872 -0.4,-0.872 H 1.76 v -0.208 c 0.288,0.008 0.576,0.016 0.864,0.016 0.304,0 0.584,-0.016 0.864,-0.016 v 0.208 H 3.344 c -0.224,0 -0.4,0 -0.4,0.264 v 1.975 c 0,0.696 -0.376,1.208 -1.072,1.208 -0.648,0 -1.16,-0.64 -1.232,-0.704 V 5.526 C 0.64,5.59 0.624,5.638 0.576,5.638 0.552,5.638 0.488,5.598 0.4,5.55 0.232,5.454 -0.104,5.31 -0.424,5.206 V 5.078 C -0.12,4.99 0,4.974 0,4.454 V 0"
             style="fill:#999999;fill-opacity:1;fill-rule:nonzero;stroke:none"
             id="path1625" />
        </g>
        <g
           id="g1627"
           transform="translate(124.117,279.934)"
           style="fill:#999999">
          <path
             d="m 0,0 0.089,-0.92 c 0.28,-0.16 0.656,-0.272 0.975,-0.272 0.952,0 1.377,0.56 1.377,1.088 0,1.255 -1.856,0.967 -1.856,1.903 0,0.344 0.304,0.528 0.624,0.528 0.511,0 0.792,-0.288 0.872,-0.792 H 2.265 L 2.209,2.351 c -0.313,0.16 -0.656,0.232 -0.912,0.232 -0.88,0 -1.24,-0.576 -1.24,-1.024 0,-1.287 1.744,-0.984 1.744,-1.927 0,-0.28 -0.176,-0.568 -0.648,-0.568 -0.584,0 -0.904,0.448 -1.008,0.976 L 0,0"
             style="fill:#999999;fill-opacity:1;fill-rule:nonzero;stroke:none"
             id="path1629" />
        </g>
        <g
           id="g1631"
           transform="translate(127.646,279.334)"
           style="fill:#999999">
          <path
             d="m 0,0 c 0,-0.264 -0.16,-0.264 -0.384,-0.264 h -0.144 v -0.208 c 0.288,0.008 0.576,0.016 0.864,0.016 0.288,0 0.568,-0.016 0.848,-0.016 v 0.208 H 1.04 c -0.224,0 -0.4,0 -0.4,0.264 v 2.255 c 0.184,0.168 0.504,0.448 0.88,0.448 0.728,0 0.784,-0.608 0.784,-1.192 V 0.608 c 0,-0.784 -0.024,-0.872 -0.4,-0.872 H 1.76 v -0.208 c 0.288,0.008 0.576,0.016 0.864,0.016 0.304,0 0.584,-0.016 0.864,-0.016 v 0.208 H 3.344 c -0.224,0 -0.4,0 -0.4,0.264 v 1.975 c 0,0.696 -0.376,1.208 -1.072,1.208 -0.648,0 -1.16,-0.64 -1.232,-0.704 V 5.526 C 0.64,5.59 0.624,5.638 0.576,5.638 0.552,5.638 0.488,5.598 0.4,5.55 0.232,5.454 -0.104,5.31 -0.424,5.206 V 5.078 C -0.12,4.99 0,4.974 0,4.454 V 0"
             style="fill:#999999;fill-opacity:1;fill-rule:nonzero;stroke:none"
             id="path1633" />
        </g>
        <g
           id="g1635"
           transform="translate(155.486,281.965)"
           style="fill:#999999">
          <path
             d="M 0,0 H 1.192 V 0.432 H 0 V 1.248 H -0.096 C -0.504,0.6 -0.752,0.448 -1.168,0.128 V 0 h 0.528 v -2.479 c 0,-0.472 0.248,-0.744 0.76,-0.744 0.432,0 0.784,0.256 1.064,0.544 l -0.12,0.12 C 0.88,-2.719 0.72,-2.791 0.504,-2.791 0.288,-2.791 0,-2.647 0,-2.119 V 0"
             style="fill:#999999;fill-opacity:1;fill-rule:nonzero;stroke:none"
             id="path1637" />
        </g>
        <g
           id="g1639"
           transform="translate(157.577,279.334)"
           style="fill:#999999">
          <path
             d="m 0,0 c 0,-0.264 -0.16,-0.264 -0.384,-0.264 h -0.144 v -0.208 c 0.288,0.008 0.576,0.016 0.864,0.016 0.288,0 0.568,-0.016 0.848,-0.016 v 0.208 H 1.04 c -0.224,0 -0.4,0 -0.4,0.264 v 2.255 c 0.184,0.168 0.504,0.448 0.88,0.448 0.728,0 0.784,-0.608 0.784,-1.192 V 0.608 c 0,-0.784 -0.024,-0.872 -0.4,-0.872 H 1.76 v -0.208 c 0.288,0.008 0.576,0.016 0.864,0.016 0.304,0 0.584,-0.016 0.864,-0.016 v 0.208 H 3.344 c -0.224,0 -0.4,0 -0.4,0.264 v 1.975 c 0,0.696 -0.376,1.208 -1.072,1.208 -0.648,0 -1.16,-0.64 -1.232,-0.704 V 5.526 C 0.64,5.59 0.624,5.638 0.576,5.638 0.552,5.638 0.488,5.598 0.4,5.55 0.232,5.454 -0.104,5.31 -0.424,5.206 V 5.078 C -0.12,4.99 0,4.974 0,4.454 V 0"
             style="fill:#999999;fill-opacity:1;fill-rule:nonzero;stroke:none"
             id="path1641" />
        </g>
        <g
           id="g1643"
           transform="translate(184.402,278.742)"
           style="fill:#999999">
          <path
             d="M 0,0 0.28,0.048 1.24,2.519 2.224,0 2.513,0.048 3.64,2.871 c 0.144,0.36 0.264,0.576 0.624,0.576 V 3.655 C 4.04,3.655 3.84,3.639 3.632,3.639 3.384,3.639 3.128,3.647 2.88,3.655 V 3.447 C 3.04,3.439 3.36,3.447 3.36,3.215 3.36,3.015 3.272,2.759 3.232,2.647 3.008,2.063 2.784,1.479 2.552,0.904 H 2.537 L 1.872,2.663 C 1.784,2.879 1.688,3.175 1.688,3.255 c 0,0.192 0.248,0.176 0.448,0.192 V 3.655 C 1.872,3.655 1.608,3.639 1.345,3.639 1.056,3.639 0.76,3.647 0.472,3.655 V 3.447 C 0.8,3.423 1.048,3.303 1.048,2.927 1.048,2.831 1.04,2.743 1.008,2.663 l -0.68,-1.759 -0.84,2.151 c -0.032,0.08 -0.064,0.184 -0.064,0.24 0,0.12 0.136,0.152 0.416,0.152 v 0.208 c -0.24,0 -0.512,-0.016 -0.792,-0.016 -0.264,0 -0.536,0.008 -0.8,0.016 V 3.447 c 0.304,0 0.384,-0.008 0.616,-0.616 L 0,0"
             style="fill:#999999;fill-opacity:1;fill-rule:nonzero;stroke:none"
             id="path1645" />
        </g>
        <g
           id="g1647"
           transform="translate(189.513,279.334)"
           style="fill:#999999">
          <path
             d="m 0,0 c 0,-0.264 -0.16,-0.264 -0.384,-0.264 h -0.144 v -0.208 c 0.287,0.008 0.576,0.016 0.864,0.016 0.287,0 0.568,-0.016 0.848,-0.016 v 0.208 H 1.039 c -0.223,0 -0.399,0 -0.399,0.264 v 2.255 c 0.184,0.168 0.504,0.448 0.88,0.448 0.728,0 0.784,-0.608 0.784,-1.192 V 0.608 c 0,-0.784 -0.024,-0.872 -0.4,-0.872 H 1.759 v -0.208 c 0.289,0.008 0.577,0.016 0.865,0.016 0.304,0 0.584,-0.016 0.864,-0.016 v 0.208 H 3.344 c -0.224,0 -0.4,0 -0.4,0.264 v 1.975 c 0,0.696 -0.376,1.208 -1.072,1.208 -0.648,0 -1.161,-0.64 -1.232,-0.704 V 5.526 C 0.64,5.59 0.623,5.638 0.576,5.638 0.552,5.638 0.488,5.598 0.4,5.55 0.232,5.454 -0.104,5.31 -0.424,5.206 V 5.078 C -0.121,4.99 0,4.974 0,4.454 V 0"
             style="fill:#999999;fill-opacity:1;fill-rule:nonzero;stroke:none"
             id="path1649" />
        </g>
        <g
           id="g1651"
           transform="translate(217.198,281.069)"
           style="fill:#999999">
          <path
             d="M 0,0 0.072,0.048 C 0.08,0.096 0.08,0.144 0.08,0.192 0.072,1.04 -0.624,1.448 -1.272,1.448 c -0.56,0 -1.616,-0.464 -1.616,-2.032 0,-0.511 0.256,-1.743 1.528,-1.743 0.656,0 1.112,0.416 1.48,0.904 l -0.112,0.112 c -0.296,-0.297 -0.64,-0.536 -1.08,-0.536 -0.64,0 -1.128,0.624 -1.176,1.383 -0.016,0.272 -0.016,0.392 0,0.464 z m -2.224,0.256 c 0.096,0.576 0.432,0.936 0.92,0.936 0.448,0 0.696,-0.328 0.696,-0.736 0,-0.096 -0.024,-0.2 -0.224,-0.2 h -1.392"
             style="fill:#999999;fill-opacity:1;fill-rule:evenodd;stroke:none"
             id="path1653" />
        </g>
        <g
           id="g1655"
           transform="translate(221.297,284.86)"
           style="fill:#999999">
          <path
             d="m 0,0 c 0,0.064 -0.016,0.112 -0.064,0.112 -0.024,0 -0.088,-0.04 -0.176,-0.088 -0.168,-0.096 -0.504,-0.24 -0.824,-0.344 v -0.128 c 0.304,-0.088 0.424,-0.104 0.424,-0.624 v -1.415 c -0.232,0.096 -0.496,0.144 -0.752,0.144 -1.104,0 -1.976,-0.96 -1.976,-2.04 0,-0.895 0.528,-1.735 1.488,-1.735 0.488,0 0.936,0.288 1.224,0.584 h 0.016 v -0.368 c 0,-0.096 0.008,-0.216 0.088,-0.216 0.048,0 0.256,0.08 0.504,0.16 0.232,0.072 0.448,0.136 0.568,0.16 h 0.008 v 0.16 H 0.392 C 0.08,-5.638 0,-5.638 0,-5.31 Z m -0.64,-5.166 c 0,-0.296 -0.536,-0.472 -0.776,-0.472 -0.728,0 -1.264,0.655 -1.264,1.535 0,1.08 0.624,1.504 1.192,1.504 0.352,0 0.848,-0.144 0.848,-0.736 v -1.831"
             style="fill:#999999;fill-opacity:1;fill-rule:evenodd;stroke:none"
             id="path1657" />
        </g>
        <g
           id="g1659"
           transform="translate(248.017,281.069)"
           style="fill:#999999">
          <path
             d="M 0,0 0.072,0.048 C 0.08,0.096 0.08,0.144 0.08,0.192 0.072,1.04 -0.624,1.448 -1.272,1.448 c -0.56,0 -1.616,-0.464 -1.616,-2.032 0,-0.511 0.256,-1.743 1.528,-1.743 0.656,0 1.112,0.416 1.48,0.904 l -0.112,0.112 c -0.296,-0.297 -0.64,-0.536 -1.08,-0.536 -0.64,0 -1.128,0.624 -1.176,1.383 -0.016,0.272 -0.016,0.392 0,0.464 z m -2.224,0.256 c 0.096,0.576 0.432,0.936 0.92,0.936 0.448,0 0.696,-0.328 0.696,-0.736 0,-0.096 -0.024,-0.2 -0.224,-0.2 h -1.392"
             style="fill:#999999;fill-opacity:1;fill-rule:evenodd;stroke:none"
             id="path1661" />
        </g>
        <g
           id="g1663"
           transform="translate(248.605,278.862)"
           style="fill:#999999">
          <path
             d="M 0,0 C 0.288,0.008 0.624,0.016 0.952,0.016 1.296,0.016 1.632,0.008 2.072,0 V 0.208 H 1.624 c -0.224,0 -0.384,0 -0.384,0.264 v 1.879 c 0,0.48 0.448,0.664 0.584,0.664 0.28,0 0.28,-0.192 0.528,-0.192 0.224,0 0.376,0.192 0.376,0.408 0,0.288 -0.256,0.424 -0.456,0.424 -0.488,0 -0.824,-0.512 -1.024,-0.824 H 1.232 v 0.72 c 0,0.08 -0.024,0.104 -0.072,0.104 -0.072,0 -0.392,-0.208 -0.976,-0.456 V 3.079 C 0.304,3.015 0.6,2.967 0.6,2.719 V 0.472 C 0.6,0.208 0.44,0.208 0.216,0.208 H 0 V 0"
             style="fill:#999999;fill-opacity:1;fill-rule:nonzero;stroke:none"
             id="path1665" />
        </g>
        <g
           id="g1667"
           transform="translate(274.245,280.613)"
           style="fill:#999999">
          <path
             d="m 0,0 c 0,-1.135 0.872,-1.871 1.936,-1.871 1.024,0 1.84,0.872 1.84,1.904 0,1.135 -0.832,1.871 -1.944,1.871 C 0.76,1.904 0,1.032 0,0 Z m 0.736,0.08 c 0,0.688 0.312,1.616 1.104,1.616 0.848,0 1.2,-1.088 1.2,-1.744 0,-0.688 -0.312,-1.615 -1.112,-1.615 -0.84,0 -1.192,1.088 -1.192,1.743"
             style="fill:#999999;fill-opacity:1;fill-rule:evenodd;stroke:none"
             id="path1669" />
        </g>
        <g
           id="g1671"
           transform="translate(282.041,282.253)"
           style="fill:#999999">
          <path
             d="m 0,0 c 0,0.088 0,0.144 -0.064,0.144 -0.08,0 -0.528,-0.064 -1.248,-0.112 v -0.144 c 0.288,-0.08 0.672,-0.168 0.672,-0.328 v -2.151 c -0.336,-0.28 -0.696,-0.488 -0.968,-0.488 -0.696,0 -0.696,0.688 -0.696,0.928 v 2.063 c 0,0.176 0,0.232 -0.088,0.232 -0.104,0 -0.744,-0.048 -1.032,-0.056 v -0.152 c 0.448,-0.04 0.48,-0.24 0.48,-0.448 v -2.047 c 0,-0.672 0.448,-0.952 0.88,-0.952 0.568,0 0.936,0.28 1.416,0.672 v -0.648 l 0.04,-0.024 c 0.152,0.048 0.808,0.216 1.152,0.248 v 0.168 C 0.44,-3.095 0.32,-3.103 0.224,-3.103 0.088,-3.103 0,-3.095 0,-2.951 V 0"
             style="fill:#999999;fill-opacity:1;fill-rule:evenodd;stroke:none"
             id="path1673" />
        </g>
        <g
           id="g1675"
           transform="translate(303.514,280.613)"
           style="fill:#999999">
          <path
             d="m 0,0 c 0,-1.135 0.872,-1.871 1.936,-1.871 1.024,0 1.84,0.872 1.84,1.904 0,1.135 -0.832,1.871 -1.944,1.871 C 0.76,1.904 0,1.032 0,0 Z m 0.736,0.08 c 0,0.688 0.312,1.616 1.104,1.616 0.848,0 1.2,-1.088 1.2,-1.744 0,-0.688 -0.312,-1.615 -1.112,-1.615 -0.84,0 -1.192,1.088 -1.192,1.743"
             style="fill:#999999;fill-opacity:1;fill-rule:evenodd;stroke:none"
             id="path1677" />
        </g>
        <g
           id="g1679"
           transform="translate(309.478,278.742)"
           style="fill:#999999">
          <path
             d="M 0,0 0.28,0.048 1.24,2.519 2.224,0 2.512,0.048 3.64,2.871 c 0.144,0.36 0.264,0.576 0.624,0.576 V 3.655 C 4.04,3.655 3.84,3.639 3.632,3.639 3.384,3.639 3.128,3.647 2.88,3.655 V 3.447 C 3.04,3.439 3.36,3.447 3.36,3.215 3.36,3.015 3.272,2.759 3.232,2.647 3.008,2.063 2.784,1.479 2.552,0.904 H 2.536 L 1.872,2.663 C 1.784,2.879 1.688,3.175 1.688,3.255 c 0,0.192 0.248,0.176 0.448,0.192 V 3.655 C 1.872,3.655 1.608,3.639 1.344,3.639 1.056,3.639 0.76,3.647 0.472,3.655 V 3.447 C 0.8,3.423 1.048,3.303 1.048,2.927 1.048,2.831 1.04,2.743 1.008,2.663 l -0.68,-1.759 -0.84,2.151 c -0.032,0.08 -0.064,0.184 -0.064,0.24 0,0.12 0.136,0.152 0.416,0.152 v 0.208 c -0.24,0 -0.512,-0.016 -0.792,-0.016 -0.264,0 -0.536,0.008 -0.8,0.016 V 3.447 c 0.304,0 0.384,-0.008 0.616,-0.616 L 0,0"
             style="fill:#999999;fill-opacity:1;fill-rule:nonzero;stroke:none"
             id="path1681" />
        </g>
        <g
           id="g1723"
           transform="translate(337.634,278.742)"
           style="fill:#999999">
          <path
             d="M 0,0 0.28,0.048 1.24,2.519 2.224,0 2.512,0.048 3.64,2.871 c 0.144,0.36 0.264,0.576 0.624,0.576 V 3.655 C 4.04,3.655 3.84,3.639 3.632,3.639 3.384,3.639 3.128,3.647 2.88,3.655 V 3.447 C 3.04,3.439 3.36,3.447 3.36,3.215 3.36,3.015 3.272,2.759 3.232,2.647 3.008,2.063 2.784,1.479 2.552,0.904 H 2.536 L 1.872,2.663 C 1.784,2.879 1.688,3.175 1.688,3.255 c 0,0.192 0.248,0.176 0.448,0.192 V 3.655 C 1.872,3.655 1.608,3.639 1.344,3.639 1.056,3.639 0.76,3.647 0.472,3.655 V 3.447 C 0.8,3.423 1.048,3.303 1.048,2.927 1.048,2.831 1.04,2.743 1.008,2.663 l -0.68,-1.759 -0.84,2.151 c -0.032,0.08 -0.064,0.184 -0.064,0.24 0,0.12 0.136,0.152 0.416,0.152 v 0.208 c -0.24,0 -0.512,-0.016 -0.792,-0.016 -0.264,0 -0.536,0.008 -0.8,0.016 V 3.447 c 0.304,0 0.384,-0.008 0.616,-0.616 L 0,0"
             style="fill:#999999;fill-opacity:1;fill-rule:nonzero;stroke:none"
             id="path1725" />
        </g>
        <g
           id="g1771"
           transform="translate(65.157215,257.489)"
           style="fill:#999999">
          <path
             d="m 0,0 c -0.422,0 -0.791,0.158 -1.108,0.474 -0.316,0.317 -0.474,0.686 -0.474,1.108 0,0.421 0.158,0.791 0.474,1.107 C -0.791,3.005 -0.422,3.164 0,3.164 0.422,3.164 0.791,3.005 1.107,2.689 1.423,2.373 1.582,2.003 1.582,1.582 1.582,1.16 1.423,0.791 1.107,0.474 0.791,0.158 0.422,0 0,0 Z m 0,5.932 c -0.129,0 -0.246,0.052 -0.352,0.158 -0.105,0.105 -0.158,0.222 -0.158,0.351 0,0.129 0.053,0.246 0.158,0.352 C -0.246,6.898 -0.129,6.951 0,6.951 0.129,6.951 0.246,6.898 0.351,6.793 0.457,6.687 0.51,6.57 0.51,6.441 0.51,6.312 0.457,6.195 0.351,6.09 0.246,5.984 0.129,5.932 0,5.932 Z m 0,-9.719 c -0.129,0 -0.246,0.052 -0.352,0.158 -0.105,0.105 -0.158,0.222 -0.158,0.351 0,0.129 0.053,0.246 0.158,0.352 0.106,0.105 0.223,0.158 0.352,0.158 0.129,0 0.246,-0.053 0.351,-0.158 C 0.457,-3.032 0.51,-3.149 0.51,-3.278 0.51,-3.407 0.457,-3.524 0.351,-3.629 0.246,-3.735 0.129,-3.787 0,-3.787 Z M 4.86,5.932 C 4.731,5.932 4.613,5.984 4.508,6.09 4.403,6.195 4.35,6.312 4.35,6.441 4.35,6.57 4.403,6.687 4.508,6.793 4.613,6.898 4.731,6.951 4.86,6.951 4.988,6.951 5.106,6.898 5.211,6.793 5.317,6.687 5.369,6.57 5.369,6.441 5.369,6.312 5.317,6.195 5.211,6.09 5.106,5.984 4.988,5.932 4.86,5.932 Z m 0,-4.86 C 4.731,1.072 4.613,1.125 4.508,1.23 4.403,1.335 4.35,1.453 4.35,1.582 4.35,1.71 4.403,1.828 4.508,1.933 4.613,2.039 4.731,2.092 4.86,2.092 4.988,2.092 5.106,2.039 5.211,1.933 5.317,1.828 5.369,1.71 5.369,1.582 5.369,1.453 5.317,1.335 5.211,1.23 5.106,1.125 4.988,1.072 4.86,1.072 Z m 0,-4.859 c -0.129,0 -0.247,0.052 -0.352,0.158 -0.105,0.105 -0.158,0.222 -0.158,0.351 0,0.129 0.053,0.246 0.158,0.352 0.105,0.105 0.223,0.158 0.352,0.158 0.128,0 0.246,-0.053 0.351,-0.158 0.106,-0.106 0.158,-0.223 0.158,-0.352 0,-0.129 -0.052,-0.246 -0.158,-0.351 C 5.106,-3.735 4.988,-3.787 4.86,-3.787"
             style="fill:#999999;fill-opacity:1;fill-rule:evenodd;stroke:none"
             id="path1773" />
        </g>
        <g
           id="g1775"
           transform="translate(95.312215,257.489)"
           style="fill:#999999">
          <path
             d="m 0,0 c -0.421,0 -0.79,0.158 -1.107,0.474 -0.316,0.317 -0.474,0.686 -0.474,1.108 0,0.421 0.158,0.791 0.474,1.107 C -0.79,3.005 -0.421,3.164 0,3.164 0.422,3.164 0.792,3.005 1.108,2.689 1.424,2.373 1.582,2.003 1.582,1.582 1.582,1.16 1.424,0.791 1.108,0.474 0.792,0.158 0.422,0 0,0 Z m 0,-4.86 c -0.421,0 -0.79,0.158 -1.107,0.475 -0.316,0.316 -0.474,0.685 -0.474,1.107 0,0.422 0.158,0.791 0.474,1.107 0.317,0.317 0.686,0.475 1.107,0.475 0.422,0 0.792,-0.158 1.108,-0.475 C 1.424,-2.487 1.582,-2.856 1.582,-3.278 1.582,-3.7 1.424,-4.069 1.108,-4.385 0.792,-4.702 0.422,-4.86 0,-4.86 Z M 0,5.932 c -0.128,0 -0.245,0.052 -0.351,0.158 -0.105,0.105 -0.158,0.222 -0.158,0.351 0,0.129 0.053,0.246 0.158,0.352 C -0.245,6.898 -0.128,6.951 0,6.951 0.13,6.951 0.247,6.898 0.352,6.793 0.458,6.687 0.51,6.57 0.51,6.441 0.51,6.312 0.458,6.195 0.352,6.09 0.247,5.984 0.13,5.932 0,5.932 Z m 4.86,0 C 4.731,5.932 4.614,5.984 4.509,6.09 4.403,6.195 4.351,6.312 4.351,6.441 4.351,6.57 4.403,6.687 4.509,6.793 4.614,6.898 4.731,6.951 4.86,6.951 4.989,6.951 5.106,6.898 5.212,6.793 5.317,6.687 5.37,6.57 5.37,6.441 5.37,6.312 5.317,6.195 5.212,6.09 5.106,5.984 4.989,5.932 4.86,5.932 Z m 0,-4.86 C 4.731,1.072 4.614,1.125 4.509,1.23 4.403,1.335 4.351,1.453 4.351,1.582 4.351,1.71 4.403,1.828 4.509,1.933 4.614,2.039 4.731,2.092 4.86,2.092 4.989,2.092 5.106,2.039 5.212,1.933 5.317,1.828 5.37,1.71 5.37,1.582 5.37,1.453 5.317,1.335 5.212,1.23 5.106,1.125 4.989,1.072 4.86,1.072 Z m 0,-4.859 c -0.129,0 -0.246,0.052 -0.351,0.158 -0.106,0.105 -0.158,0.222 -0.158,0.351 0,0.129 0.052,0.246 0.158,0.352 0.105,0.105 0.222,0.158 0.351,0.158 0.129,0 0.246,-0.053 0.352,-0.158 C 5.317,-3.032 5.37,-3.149 5.37,-3.278 5.37,-3.407 5.317,-3.524 5.212,-3.629 5.106,-3.735 4.989,-3.787 4.86,-3.787"
             style="fill:#999999;fill-opacity:1;fill-rule:evenodd;stroke:none"
             id="path1777" />
        </g>
        <g
           id="g1779"
           transform="translate(125.46822,257.489)"
           style="fill:#999999">
          <path
             d="m 0,0 c -0.422,0 -0.791,0.158 -1.107,0.474 -0.316,0.317 -0.474,0.686 -0.474,1.108 0,0.421 0.158,0.791 0.474,1.107 C -0.791,3.005 -0.422,3.164 0,3.164 0.422,3.164 0.791,3.005 1.108,2.689 1.424,2.373 1.582,2.003 1.582,1.582 1.582,1.16 1.424,0.791 1.108,0.474 0.791,0.158 0.422,0 0,0 Z M 4.86,0 C 4.438,0 4.069,0.158 3.753,0.474 3.436,0.791 3.278,1.16 3.278,1.582 c 0,0.421 0.158,0.791 0.475,1.107 0.316,0.316 0.685,0.475 1.107,0.475 0.422,0 0.791,-0.159 1.107,-0.475 C 6.284,2.373 6.442,2.003 6.442,1.582 6.442,1.16 6.284,0.791 5.967,0.474 5.651,0.158 5.282,0 4.86,0 Z M 0,5.932 c -0.128,0 -0.246,0.052 -0.351,0.158 -0.106,0.105 -0.158,0.222 -0.158,0.351 0,0.129 0.052,0.246 0.158,0.352 C -0.246,6.898 -0.128,6.951 0,6.951 0.129,6.951 0.247,6.898 0.352,6.793 0.458,6.687 0.51,6.57 0.51,6.441 0.51,6.312 0.458,6.195 0.352,6.09 0.247,5.984 0.129,5.932 0,5.932 Z m 0,-9.719 c -0.128,0 -0.246,0.052 -0.351,0.158 -0.106,0.105 -0.158,0.222 -0.158,0.351 0,0.129 0.052,0.246 0.158,0.352 0.105,0.105 0.223,0.158 0.351,0.158 0.129,0 0.247,-0.053 0.352,-0.158 C 0.458,-3.032 0.51,-3.149 0.51,-3.278 0.51,-3.407 0.458,-3.524 0.352,-3.629 0.247,-3.735 0.129,-3.787 0,-3.787 Z M 4.86,5.932 C 4.731,5.932 4.614,5.984 4.509,6.09 4.403,6.195 4.351,6.312 4.351,6.441 4.351,6.57 4.403,6.687 4.509,6.793 4.614,6.898 4.731,6.951 4.86,6.951 4.989,6.951 5.106,6.898 5.212,6.793 5.317,6.687 5.37,6.57 5.37,6.441 5.37,6.312 5.317,6.195 5.212,6.09 5.106,5.984 4.989,5.932 4.86,5.932 Z m 0,-9.719 c -0.129,0 -0.246,0.052 -0.351,0.158 -0.106,0.105 -0.158,0.222 -0.158,0.351 0,0.129 0.052,0.246 0.158,0.352 0.105,0.105 0.222,0.158 0.351,0.158 0.129,0 0.246,-0.053 0.352,-0.158 C 5.317,-3.032 5.37,-3.149 5.37,-3.278 5.37,-3.407 5.317,-3.524 5.212,-3.629 5.106,-3.735 4.989,-3.787 4.86,-3.787"
             style="fill:#999999;fill-opacity:1;fill-rule:evenodd;stroke:none"
             id="path1781" />
        </g>
        <g
           id="g1783"
           transform="translate(155.62422,257.489)"
           style="fill:#999999">
          <path
             d="m 0,0 c -0.422,0 -0.791,0.158 -1.107,0.474 -0.316,0.317 -0.475,0.686 -0.475,1.108 0,0.421 0.159,0.791 0.475,1.107 C -0.791,3.005 -0.422,3.164 0,3.164 0.422,3.164 0.791,3.005 1.108,2.689 1.424,2.373 1.582,2.003 1.582,1.582 1.582,1.16 1.424,0.791 1.108,0.474 0.791,0.158 0.422,0 0,0 Z M 4.86,0 C 4.438,0 4.069,0.158 3.753,0.474 3.436,0.791 3.278,1.16 3.278,1.582 c 0,0.421 0.158,0.791 0.475,1.107 0.316,0.316 0.685,0.475 1.107,0.475 0.422,0 0.791,-0.159 1.107,-0.475 C 6.284,2.373 6.442,2.003 6.442,1.582 6.442,1.16 6.284,0.791 5.967,0.474 5.651,0.158 5.282,0 4.86,0 Z m 0,-4.86 c -0.422,0 -0.791,0.158 -1.107,0.475 -0.317,0.316 -0.475,0.685 -0.475,1.107 0,0.422 0.158,0.791 0.475,1.107 0.316,0.317 0.685,0.475 1.107,0.475 0.422,0 0.791,-0.158 1.107,-0.475 C 6.284,-2.487 6.442,-2.856 6.442,-3.278 6.442,-3.7 6.284,-4.069 5.967,-4.385 5.651,-4.702 5.282,-4.86 4.86,-4.86 Z M 0,5.932 c -0.129,0 -0.246,0.052 -0.351,0.158 -0.106,0.105 -0.158,0.222 -0.158,0.351 0,0.129 0.052,0.246 0.158,0.352 C -0.246,6.898 -0.129,6.951 0,6.951 0.129,6.951 0.247,6.898 0.352,6.793 0.457,6.687 0.51,6.57 0.51,6.441 0.51,6.312 0.457,6.195 0.352,6.09 0.247,5.984 0.129,5.932 0,5.932 Z m 0,-9.719 c -0.129,0 -0.246,0.052 -0.351,0.158 -0.106,0.105 -0.158,0.222 -0.158,0.351 0,0.129 0.052,0.246 0.158,0.352 0.105,0.105 0.222,0.158 0.351,0.158 0.129,0 0.247,-0.053 0.352,-0.158 C 0.457,-3.032 0.51,-3.149 0.51,-3.278 0.51,-3.407 0.457,-3.524 0.352,-3.629 0.247,-3.735 0.129,-3.787 0,-3.787 Z M 4.86,5.932 C 4.731,5.932 4.614,5.984 4.509,6.09 4.403,6.195 4.35,6.312 4.35,6.441 4.35,6.57 4.403,6.687 4.509,6.793 4.614,6.898 4.731,6.951 4.86,6.951 4.989,6.951 5.106,6.898 5.212,6.793 5.317,6.687 5.37,6.57 5.37,6.441 5.37,6.312 5.317,6.195 5.212,6.09 5.106,5.984 4.989,5.932 4.86,5.932"
             style="fill:#999999;fill-opacity:1;fill-rule:evenodd;stroke:none"
             id="path1785" />
        </g>
        <g
           id="g1787"
           transform="translate(185.78022,257.489)"
           style="fill:#999999">
          <path
             d="m 0,0 c -0.422,0 -0.791,0.158 -1.107,0.474 -0.317,0.317 -0.475,0.686 -0.475,1.108 0,0.421 0.158,0.791 0.475,1.107 C -0.791,3.005 -0.422,3.164 0,3.164 0.422,3.164 0.791,3.005 1.108,2.689 1.424,2.373 1.582,2.003 1.582,1.582 1.582,1.16 1.424,0.791 1.108,0.474 0.791,0.158 0.422,0 0,0 Z m 4.86,-4.86 c -0.422,0 -0.791,0.158 -1.108,0.475 -0.316,0.316 -0.474,0.685 -0.474,1.107 0,0.422 0.158,0.791 0.474,1.107 0.317,0.317 0.686,0.475 1.108,0.475 0.422,0 0.791,-0.158 1.107,-0.475 C 6.284,-2.487 6.442,-2.856 6.442,-3.278 6.442,-3.7 6.284,-4.069 5.967,-4.385 5.651,-4.702 5.282,-4.86 4.86,-4.86 Z M 0,5.932 c -0.129,0 -0.246,0.052 -0.351,0.158 -0.106,0.105 -0.158,0.222 -0.158,0.351 0,0.129 0.052,0.246 0.158,0.352 C -0.246,6.898 -0.129,6.951 0,6.951 0.129,6.951 0.246,6.898 0.352,6.793 0.457,6.687 0.51,6.57 0.51,6.441 0.51,6.312 0.457,6.195 0.352,6.09 0.246,5.984 0.129,5.932 0,5.932 Z m 0,-9.719 c -0.129,0 -0.246,0.052 -0.351,0.158 -0.106,0.105 -0.158,0.222 -0.158,0.351 0,0.129 0.052,0.246 0.158,0.352 0.105,0.105 0.222,0.158 0.351,0.158 0.129,0 0.246,-0.053 0.352,-0.158 C 0.457,-3.032 0.51,-3.149 0.51,-3.278 0.51,-3.407 0.457,-3.524 0.352,-3.629 0.246,-3.735 0.129,-3.787 0,-3.787 Z M 4.86,5.932 C 4.731,5.932 4.614,5.984 4.509,6.09 4.403,6.195 4.35,6.312 4.35,6.441 4.35,6.57 4.403,6.687 4.509,6.793 4.614,6.898 4.731,6.951 4.86,6.951 4.989,6.951 5.106,6.898 5.211,6.793 5.317,6.687 5.37,6.57 5.37,6.441 5.37,6.312 5.317,6.195 5.211,6.09 5.106,5.984 4.989,5.932 4.86,5.932 Z m 0,-4.86 C 4.731,1.072 4.614,1.125 4.509,1.23 4.403,1.335 4.35,1.453 4.35,1.582 4.35,1.71 4.403,1.828 4.509,1.933 4.614,2.039 4.731,2.092 4.86,2.092 4.989,2.092 5.106,2.039 5.211,1.933 5.317,1.828 5.37,1.71 5.37,1.582 5.37,1.453 5.317,1.335 5.211,1.23 5.106,1.125 4.989,1.072 4.86,1.072"
             style="fill:#999999;fill-opacity:1;fill-rule:evenodd;stroke:none"
             id="path1789" />
        </g>
        <g
           id="g1791"
           transform="translate(215.93622,257.489)"
           style="fill:#999999">
          <path
             d="m 0,0 c -0.422,0 -0.791,0.158 -1.107,0.474 -0.317,0.317 -0.475,0.686 -0.475,1.108 0,0.421 0.158,0.791 0.475,1.107 C -0.791,3.005 -0.422,3.164 0,3.164 0.422,3.164 0.791,3.005 1.107,2.689 1.424,2.373 1.582,2.003 1.582,1.582 1.582,1.16 1.424,0.791 1.107,0.474 0.791,0.158 0.422,0 0,0 Z m 0,-4.86 c -0.422,0 -0.791,0.158 -1.107,0.475 -0.317,0.316 -0.475,0.685 -0.475,1.107 0,0.422 0.158,0.791 0.475,1.107 0.316,0.317 0.685,0.475 1.107,0.475 0.422,0 0.791,-0.158 1.107,-0.475 C 1.424,-2.487 1.582,-2.856 1.582,-3.278 1.582,-3.7 1.424,-4.069 1.107,-4.385 0.791,-4.702 0.422,-4.86 0,-4.86 Z M 4.86,0 C 4.438,0 4.069,0.158 3.752,0.474 3.436,0.791 3.278,1.16 3.278,1.582 c 0,0.421 0.158,0.791 0.474,1.107 0.317,0.316 0.686,0.475 1.108,0.475 0.421,0 0.791,-0.159 1.107,-0.475 C 6.284,2.373 6.442,2.003 6.442,1.582 6.442,1.16 6.284,0.791 5.967,0.474 5.651,0.158 5.281,0 4.86,0 Z M 0,5.932 c -0.129,0 -0.246,0.052 -0.352,0.158 -0.105,0.105 -0.158,0.222 -0.158,0.351 0,0.129 0.053,0.246 0.158,0.352 C -0.246,6.898 -0.129,6.951 0,6.951 0.129,6.951 0.246,6.898 0.352,6.793 0.457,6.687 0.51,6.57 0.51,6.441 0.51,6.312 0.457,6.195 0.352,6.09 0.246,5.984 0.129,5.932 0,5.932 Z m 4.86,0 C 4.731,5.932 4.614,5.984 4.508,6.09 4.403,6.195 4.35,6.312 4.35,6.441 4.35,6.57 4.403,6.687 4.508,6.793 4.614,6.898 4.731,6.951 4.86,6.951 4.989,6.951 5.106,6.898 5.211,6.793 5.317,6.687 5.37,6.57 5.37,6.441 5.37,6.312 5.317,6.195 5.211,6.09 5.106,5.984 4.989,5.932 4.86,5.932 Z m 0,-9.719 c -0.129,0 -0.246,0.052 -0.352,0.158 -0.105,0.105 -0.158,0.222 -0.158,0.351 0,0.129 0.053,0.246 0.158,0.352 0.106,0.105 0.223,0.158 0.352,0.158 0.129,0 0.246,-0.053 0.351,-0.158 C 5.317,-3.032 5.37,-3.149 5.37,-3.278 5.37,-3.407 5.317,-3.524 5.211,-3.629 5.106,-3.735 4.989,-3.787 4.86,-3.787"
             style="fill:#999999;fill-opacity:1;fill-rule:evenodd;stroke:none"
             id="path1793" />
        </g>
        <g
           id="g1795"
           transform="translate(246.09222,257.489)"
           style="fill:#999999">
          <path
             d="m 0,0 c -0.422,0 -0.791,0.158 -1.108,0.474 -0.316,0.317 -0.474,0.686 -0.474,1.108 0,0.421 0.158,0.791 0.474,1.107 C -0.791,3.005 -0.422,3.164 0,3.164 0.422,3.164 0.791,3.005 1.107,2.689 1.424,2.373 1.582,2.003 1.582,1.582 1.582,1.16 1.424,0.791 1.107,0.474 0.791,0.158 0.422,0 0,0 Z m 0,-4.86 c -0.422,0 -0.791,0.158 -1.108,0.475 -0.316,0.316 -0.474,0.685 -0.474,1.107 0,0.422 0.158,0.791 0.474,1.107 0.317,0.317 0.686,0.475 1.108,0.475 0.422,0 0.791,-0.158 1.107,-0.475 C 1.424,-2.487 1.582,-2.856 1.582,-3.278 1.582,-3.7 1.424,-4.069 1.107,-4.385 0.791,-4.702 0.422,-4.86 0,-4.86 Z M 4.86,0 C 4.438,0 4.069,0.158 3.752,0.474 3.436,0.791 3.278,1.16 3.278,1.582 c 0,0.421 0.158,0.791 0.474,1.107 0.317,0.316 0.686,0.475 1.108,0.475 0.421,0 0.791,-0.159 1.107,-0.475 C 6.283,2.373 6.442,2.003 6.442,1.582 6.442,1.16 6.283,0.791 5.967,0.474 5.651,0.158 5.281,0 4.86,0 Z m 0,-4.86 c -0.422,0 -0.791,0.158 -1.108,0.475 -0.316,0.316 -0.474,0.685 -0.474,1.107 0,0.422 0.158,0.791 0.474,1.107 0.317,0.317 0.686,0.475 1.108,0.475 0.421,0 0.791,-0.158 1.107,-0.475 C 6.283,-2.487 6.442,-2.856 6.442,-3.278 6.442,-3.7 6.283,-4.069 5.967,-4.385 5.651,-4.702 5.281,-4.86 4.86,-4.86 Z M 0,5.932 c -0.129,0 -0.246,0.052 -0.352,0.158 -0.105,0.105 -0.158,0.222 -0.158,0.351 0,0.129 0.053,0.246 0.158,0.352 C -0.246,6.898 -0.129,6.951 0,6.951 0.129,6.951 0.246,6.898 0.352,6.793 0.457,6.687 0.51,6.57 0.51,6.441 0.51,6.312 0.457,6.195 0.352,6.09 0.246,5.984 0.129,5.932 0,5.932 Z m 4.86,0 C 4.731,5.932 4.614,5.984 4.508,6.09 4.403,6.195 4.35,6.312 4.35,6.441 4.35,6.57 4.403,6.687 4.508,6.793 4.614,6.898 4.731,6.951 4.86,6.951 4.989,6.951 5.106,6.898 5.211,6.793 5.317,6.687 5.369,6.57 5.369,6.441 5.369,6.312 5.317,6.195 5.211,6.09 5.106,5.984 4.989,5.932 4.86,5.932"
             style="fill:#999999;fill-opacity:1;fill-rule:evenodd;stroke:none"
             id="path1797" />
        </g>
        <g
           id="g1799"
           transform="translate(276.24822,257.489)"
           style="fill:#999999">
          <path
             d="m 0,0 c -0.422,0 -0.791,0.158 -1.108,0.474 -0.316,0.317 -0.474,0.686 -0.474,1.108 0,0.421 0.158,0.791 0.474,1.107 C -0.791,3.005 -0.422,3.164 0,3.164 0.422,3.164 0.791,3.005 1.107,2.689 1.423,2.373 1.582,2.003 1.582,1.582 1.582,1.16 1.423,0.791 1.107,0.474 0.791,0.158 0.422,0 0,0 Z m 0,-4.86 c -0.422,0 -0.791,0.158 -1.108,0.475 -0.316,0.316 -0.474,0.685 -0.474,1.107 0,0.422 0.158,0.791 0.474,1.107 0.317,0.317 0.686,0.475 1.108,0.475 0.422,0 0.791,-0.158 1.107,-0.475 C 1.423,-2.487 1.582,-2.856 1.582,-3.278 1.582,-3.7 1.423,-4.069 1.107,-4.385 0.791,-4.702 0.422,-4.86 0,-4.86 Z m 4.86,0 c -0.422,0 -0.791,0.158 -1.108,0.475 -0.316,0.316 -0.475,0.685 -0.475,1.107 0,0.422 0.159,0.791 0.475,1.107 0.317,0.317 0.686,0.475 1.108,0.475 0.421,0 0.79,-0.158 1.107,-0.475 C 6.283,-2.487 6.441,-2.856 6.441,-3.278 6.441,-3.7 6.283,-4.069 5.967,-4.385 5.65,-4.702 5.281,-4.86 4.86,-4.86 Z M 0,5.932 c -0.129,0 -0.246,0.052 -0.352,0.158 -0.105,0.105 -0.158,0.222 -0.158,0.351 0,0.129 0.053,0.246 0.158,0.352 C -0.246,6.898 -0.129,6.951 0,6.951 0.129,6.951 0.246,6.898 0.351,6.793 0.457,6.687 0.51,6.57 0.51,6.441 0.51,6.312 0.457,6.195 0.351,6.09 0.246,5.984 0.129,5.932 0,5.932 Z m 4.86,0 C 4.731,5.932 4.613,5.984 4.508,6.09 4.403,6.195 4.35,6.312 4.35,6.441 4.35,6.57 4.403,6.687 4.508,6.793 4.613,6.898 4.731,6.951 4.86,6.951 4.988,6.951 5.106,6.898 5.211,6.793 5.316,6.687 5.369,6.57 5.369,6.441 5.369,6.312 5.316,6.195 5.211,6.09 5.106,5.984 4.988,5.932 4.86,5.932 Z m 0,-4.86 C 4.731,1.072 4.613,1.125 4.508,1.23 4.403,1.335 4.35,1.453 4.35,1.582 4.35,1.71 4.403,1.828 4.508,1.933 4.613,2.039 4.731,2.092 4.86,2.092 4.988,2.092 5.106,2.039 5.211,1.933 5.316,1.828 5.369,1.71 5.369,1.582 5.369,1.453 5.316,1.335 5.211,1.23 5.106,1.125 4.988,1.072 4.86,1.072"
             style="fill:#999999;fill-opacity:1;fill-rule:evenodd;stroke:none"
             id="path1801" />
        </g>
        <g
           id="g1803"
           transform="translate(306.40422,252.629)"
           style="fill:#999999">
          <path
             d="m 0,0 c -0.422,0 -0.791,0.158 -1.108,0.475 -0.316,0.316 -0.474,0.685 -0.474,1.107 0,0.422 0.158,0.791 0.474,1.107 C -0.791,3.006 -0.422,3.164 0,3.164 0.422,3.164 0.79,3.006 1.107,2.689 1.423,2.373 1.581,2.004 1.581,1.582 1.581,1.16 1.423,0.791 1.107,0.475 0.79,0.158 0.422,0 0,0 Z M 4.859,4.86 C 4.437,4.86 4.068,5.018 3.752,5.334 3.436,5.651 3.277,6.02 3.277,6.442 c 0,0.421 0.159,0.791 0.475,1.107 0.316,0.316 0.685,0.475 1.107,0.475 0.422,0 0.791,-0.159 1.108,-0.475 C 6.283,7.233 6.441,6.863 6.441,6.442 6.441,6.02 6.283,5.651 5.967,5.334 5.65,5.018 5.281,4.86 4.859,4.86 Z M 0,10.792 c -0.129,0 -0.246,0.052 -0.352,0.158 -0.105,0.105 -0.158,0.222 -0.158,0.351 0,0.129 0.053,0.246 0.158,0.352 0.106,0.105 0.223,0.158 0.352,0.158 0.129,0 0.246,-0.053 0.351,-0.158 C 0.457,11.547 0.51,11.43 0.51,11.301 0.51,11.172 0.457,11.055 0.351,10.95 0.246,10.844 0.129,10.792 0,10.792 Z m 0,-4.86 c -0.129,0 -0.246,0.053 -0.352,0.158 -0.105,0.105 -0.158,0.223 -0.158,0.352 0,0.128 0.053,0.246 0.158,0.351 C -0.246,6.899 -0.129,6.952 0,6.952 0.129,6.952 0.246,6.899 0.351,6.793 0.457,6.688 0.51,6.57 0.51,6.442 0.51,6.313 0.457,6.195 0.351,6.09 0.246,5.985 0.129,5.932 0,5.932 Z m 4.859,4.86 c -0.129,0 -0.246,0.052 -0.351,0.158 -0.106,0.105 -0.158,0.222 -0.158,0.351 0,0.129 0.052,0.246 0.158,0.352 0.105,0.105 0.222,0.158 0.351,0.158 0.129,0 0.246,-0.053 0.352,-0.158 C 5.316,11.547 5.369,11.43 5.369,11.301 5.369,11.172 5.316,11.055 5.211,10.95 5.105,10.844 4.988,10.792 4.859,10.792 Z m 0,-9.719 C 4.73,1.073 4.613,1.125 4.508,1.231 4.402,1.336 4.35,1.453 4.35,1.582 4.35,1.711 4.402,1.828 4.508,1.934 4.613,2.039 4.73,2.092 4.859,2.092 4.988,2.092 5.105,2.039 5.211,1.934 5.316,1.828 5.369,1.711 5.369,1.582 5.369,1.453 5.316,1.336 5.211,1.231 5.105,1.125 4.988,1.073 4.859,1.073"
             style="fill:#999999;fill-opacity:1;fill-rule:evenodd;stroke:none"
             id="path1805" />
        </g>
        <g
           id="g1807"
           transform="translate(336.55922,252.629)"
           style="fill:#999999">
          <path
             d="m 0,0 c -0.421,0 -0.791,0.158 -1.107,0.475 -0.316,0.316 -0.474,0.685 -0.474,1.107 0,0.422 0.158,0.791 0.474,1.107 C -0.791,3.006 -0.421,3.164 0,3.164 0.422,3.164 0.791,3.006 1.108,2.689 1.424,2.373 1.582,2.004 1.582,1.582 1.582,1.16 1.424,0.791 1.108,0.475 0.791,0.158 0.422,0 0,0 Z M 4.86,4.86 C 4.438,4.86 4.069,5.018 3.753,5.334 3.436,5.651 3.278,6.02 3.278,6.442 c 0,0.421 0.158,0.791 0.475,1.107 0.316,0.316 0.685,0.475 1.107,0.475 0.422,0 0.791,-0.159 1.107,-0.475 C 6.284,7.233 6.442,6.863 6.442,6.442 6.442,6.02 6.284,5.651 5.967,5.334 5.651,5.018 5.282,4.86 4.86,4.86 Z M 4.86,0 C 4.438,0 4.069,0.158 3.753,0.475 3.436,0.791 3.278,1.16 3.278,1.582 c 0,0.422 0.158,0.791 0.475,1.107 0.316,0.317 0.685,0.475 1.107,0.475 0.422,0 0.791,-0.158 1.107,-0.475 C 6.284,2.373 6.442,2.004 6.442,1.582 6.442,1.16 6.284,0.791 5.967,0.475 5.651,0.158 5.282,0 4.86,0 Z M 0,10.792 c -0.128,0 -0.245,0.052 -0.351,0.158 -0.106,0.105 -0.158,0.222 -0.158,0.351 0,0.129 0.052,0.246 0.158,0.352 0.106,0.105 0.223,0.158 0.351,0.158 0.129,0 0.247,-0.053 0.352,-0.158 C 0.458,11.547 0.51,11.43 0.51,11.301 0.51,11.172 0.458,11.055 0.352,10.95 0.247,10.844 0.129,10.792 0,10.792 Z m 0,-4.86 c -0.128,0 -0.245,0.053 -0.351,0.158 -0.106,0.105 -0.158,0.223 -0.158,0.352 0,0.128 0.052,0.246 0.158,0.351 C -0.245,6.899 -0.128,6.952 0,6.952 0.129,6.952 0.247,6.899 0.352,6.793 0.458,6.688 0.51,6.57 0.51,6.442 0.51,6.313 0.458,6.195 0.352,6.09 0.247,5.985 0.129,5.932 0,5.932 Z m 4.86,4.86 c -0.129,0 -0.246,0.052 -0.351,0.158 -0.106,0.105 -0.159,0.222 -0.159,0.351 0,0.129 0.053,0.246 0.159,0.352 0.105,0.105 0.222,0.158 0.351,0.158 0.129,0 0.246,-0.053 0.352,-0.158 C 5.317,11.547 5.37,11.43 5.37,11.301 5.37,11.172 5.317,11.055 5.212,10.95 5.106,10.844 4.989,10.792 4.86,10.792"
             style="fill:#999999;fill-opacity:1;fill-rule:evenodd;stroke:none"
             id="path1809" />
        </g>
        <g
           id="g1811"
           transform="translate(67.028215,239.412)"
           style="fill:#999999">
          <path
             d="M 0,0 0.072,0.048 C 0.08,0.096 0.08,0.144 0.08,0.192 0.072,1.04 -0.624,1.448 -1.272,1.448 c -0.56,0 -1.616,-0.464 -1.616,-2.032 0,-0.512 0.256,-1.744 1.528,-1.744 0.656,0 1.112,0.416 1.48,0.904 l -0.112,0.112 c -0.296,-0.296 -0.64,-0.536 -1.08,-0.536 -0.64,0 -1.128,0.624 -1.176,1.384 -0.016,0.272 -0.016,0.392 0,0.464 z m -2.224,0.256 c 0.096,0.576 0.432,0.936 0.92,0.936 0.448,0 0.696,-0.328 0.696,-0.736 0,-0.096 -0.024,-0.2 -0.224,-0.2 h -1.392"
             style="fill:#999999;fill-opacity:1;fill-rule:evenodd;stroke:none"
             id="path1813" />
        </g>
        <g
           id="g1815"
           transform="translate(69.847215,237.924)"
           style="fill:#999999">
          <path
             d="m 0,0 c -0.264,-0.232 -0.504,-0.464 -0.88,-0.464 -0.312,0 -0.568,0.264 -0.568,0.576 0,0.6 1.04,0.784 1.448,0.944 z M 1.224,-0.272 C 1.152,-0.36 1.032,-0.408 0.928,-0.408 0.752,-0.408 0.64,-0.28 0.64,0.048 v 2.216 c 0,0.44 -0.616,0.672 -0.976,0.672 -0.304,0 -0.44,-0.112 -0.72,-0.256 -0.56,-0.288 -0.92,-0.488 -0.92,-0.912 0,-0.056 0.024,-0.16 0.144,-0.16 0.192,0 0.448,0.112 0.448,0.336 0.016,0.36 0.256,0.56 0.608,0.56 C -0.264,2.504 0,2.264 0,1.816 V 1.288 c -1.728,-0.592 -2.056,-0.712 -2.088,-1.352 0,-0.424 0.352,-0.776 0.864,-0.776 0.496,0 0.856,0.248 1.232,0.592 0.016,-0.288 0.168,-0.592 0.496,-0.592 0.32,0 0.568,0.224 0.792,0.432 l -0.072,0.136"
             style="fill:#999999;fill-opacity:1;fill-rule:evenodd;stroke:none"
             id="path1817" />
        </g>
        <g
           id="g1823"
           transform="translate(94.794215,243.204)"
           style="fill:#999999">
          <path
             d="m 0,0 c 0,0.064 -0.016,0.112 -0.064,0.112 -0.024,0 -0.088,-0.04 -0.176,-0.088 -0.168,-0.096 -0.504,-0.24 -0.824,-0.344 v -0.128 c 0.304,-0.088 0.424,-0.104 0.424,-0.624 v -3.44 c 0,-0.488 -0.04,-0.952 -0.112,-1.424 l 0.168,-0.088 0.24,0.184 c 0.208,-0.088 0.52,-0.28 1.112,-0.28 1.144,0 1.912,1.048 1.912,2.096 0,0.872 -0.56,1.68 -1.488,1.68 C 0.752,-2.344 0.32,-2.648 0,-2.92 Z m 0,-3.152 c 0.216,0.184 0.464,0.376 0.76,0.376 0.624,0 1.28,-0.72 1.28,-1.584 0,-0.712 -0.36,-1.552 -1.216,-1.552 C 0.288,-5.912 0,-5.4 0,-5.096 v 1.944"
             style="fill:#999999;fill-opacity:1;fill-rule:evenodd;stroke:none"
             id="path1825" />
        </g>
        <g
           id="g1827"
           transform="translate(99.238215,243.204)"
           style="fill:#999999">
          <path
             d="m 0,0 c 0,0.064 -0.016,0.112 -0.064,0.112 -0.024,0 -0.088,-0.04 -0.176,-0.088 -0.168,-0.096 -0.504,-0.24 -0.824,-0.344 v -0.128 c 0.304,-0.088 0.424,-0.104 0.424,-0.624 v -3.44 c 0,-0.488 -0.04,-0.952 -0.112,-1.424 l 0.168,-0.088 0.24,0.184 c 0.208,-0.088 0.52,-0.28 1.112,-0.28 1.144,0 1.912,1.048 1.912,2.096 0,0.872 -0.56,1.68 -1.488,1.68 C 0.752,-2.344 0.32,-2.648 0,-2.92 Z m 0,-3.152 c 0.216,0.184 0.464,0.376 0.76,0.376 0.624,0 1.28,-0.72 1.28,-1.584 0,-0.712 -0.36,-1.552 -1.216,-1.552 C 0.288,-5.912 0,-5.4 0,-5.096 v 1.944"
             style="fill:#999999;fill-opacity:1;fill-rule:evenodd;stroke:none"
             id="path1829" />
        </g>
        <g
           id="g1831"
           transform="translate(97.162215,225.677)"
           style="fill:#999999">
          <path
             d="m 0,0 c 0.72,0.16 1.336,0.616 1.336,1.528 0,0.408 -0.288,0.936 -0.8,0.936 -0.304,0 -0.592,-0.152 -0.592,-0.488 0,-0.256 0.208,-0.464 0.472,-0.464 0.296,0 0.448,-0.088 0.448,-0.392 0,-0.496 -0.472,-0.848 -0.92,-0.928 z m 0.64,3.784 c 0.288,0 0.528,0.232 0.528,0.52 C 1.168,4.592 0.92,4.84 0.64,4.84 0.36,4.84 0.112,4.584 0.112,4.304 0.112,4.016 0.36,3.784 0.64,3.784"
             style="fill:#999999;fill-opacity:1;fill-rule:evenodd;stroke:none"
             id="path1833" />
        </g>
        <g
           id="g1835"
           transform="translate(127.62222,238.052)"
           style="fill:#999999">
          <path
             d="m 0,0 c -0.304,-0.232 -0.568,-0.376 -0.976,-0.376 -0.871,0 -1.399,0.728 -1.399,1.552 0,0.608 0.36,1.376 1.048,1.376 0.751,0 0.735,-0.648 1.071,-0.648 0.192,0 0.304,0.168 0.304,0.352 0,0.424 -0.672,0.552 -1.079,0.552 -1.153,0 -1.984,-0.96 -1.984,-2.12 0,-0.848 0.76,-1.656 1.591,-1.656 0.632,0 1.168,0.376 1.56,0.832 L 0,0"
             style="fill:#999999;fill-opacity:1;fill-rule:nonzero;stroke:none"
             id="path1837" />
        </g>
        <g
           id="g1839"
           transform="translate(131.17822,238.052)"
           style="fill:#999999">
          <path
             d="m 0,0 c -0.304,-0.232 -0.568,-0.376 -0.976,-0.376 -0.872,0 -1.4,0.728 -1.4,1.552 0,0.608 0.36,1.376 1.048,1.376 0.752,0 0.736,-0.648 1.072,-0.648 0.192,0 0.304,0.168 0.304,0.352 0,0.424 -0.672,0.552 -1.08,0.552 -1.152,0 -1.984,-0.96 -1.984,-2.12 0,-0.848 0.76,-1.656 1.592,-1.656 0.632,0 1.168,0.376 1.56,0.832 L 0,0"
             style="fill:#999999;fill-opacity:1;fill-rule:nonzero;stroke:none"
             id="path1841" />
        </g>
        <g
           id="g1843"
           transform="translate(127.95822,227.085)"
           style="fill:#999999">
          <path
             d="M 0,0 C 0.288,0 0.528,0.232 0.528,0.52 0.528,0.808 0.28,1.056 0,1.056 -0.28,1.056 -0.528,0.8 -0.528,0.52 -0.528,0.232 -0.28,0 0,0 Z m 0,2.376 c 0.288,0 0.528,0.232 0.528,0.52 0,0.288 -0.248,0.536 -0.528,0.536 -0.28,0 -0.528,-0.256 -0.528,-0.536 0,-0.288 0.248,-0.52 0.528,-0.52"
             style="fill:#999999;fill-opacity:1;fill-rule:evenodd;stroke:none"
             id="path1845" />
        </g>
        <g
           id="g1847"
           transform="translate(156.93422,243.204)"
           style="fill:#999999">
          <path
             d="m 0,0 c 0,0.064 -0.016,0.112 -0.064,0.112 -0.024,0 -0.088,-0.04 -0.176,-0.088 -0.168,-0.096 -0.504,-0.24 -0.824,-0.344 v -0.128 c 0.304,-0.088 0.424,-0.104 0.424,-0.624 v -1.416 c -0.232,0.096 -0.496,0.144 -0.752,0.144 -1.104,0 -1.976,-0.96 -1.976,-2.04 0,-0.896 0.528,-1.736 1.488,-1.736 0.488,0 0.936,0.288 1.224,0.584 h 0.016 v -0.368 c 0,-0.096 0.008,-0.216 0.088,-0.216 0.048,0 0.256,0.08 0.504,0.16 0.232,0.072 0.448,0.136 0.568,0.16 h 0.008 v 0.16 H 0.392 C 0.08,-5.64 0,-5.64 0,-5.312 Z m -0.64,-5.168 c 0,-0.296 -0.536,-0.472 -0.776,-0.472 -0.728,0 -1.264,0.656 -1.264,1.536 0,1.08 0.624,1.504 1.192,1.504 0.352,0 0.848,-0.144 0.848,-0.736 v -1.832"
             style="fill:#999999;fill-opacity:1;fill-rule:evenodd;stroke:none"
             id="path1849" />
        </g>
        <g
           id="g1851"
           transform="translate(157.93022,237.204)"
           style="fill:#999999">
          <path
             d="M 0,0 C 0.296,0.008 0.584,0.016 0.872,0.016 1.16,0.016 1.44,0 1.712,0 V 0.208 H 1.576 c -0.224,0 -0.4,0 -0.4,0.264 V 3.544 C 1.176,3.608 1.16,3.656 1.12,3.656 1.08,3.656 1.032,3.648 0.976,3.616 0.944,3.592 0.496,3.44 0.12,3.328 V 3.2 C 0.416,3.04 0.536,2.992 0.536,2.64 V 0.472 C 0.536,0.208 0.376,0.208 0.152,0.208 H 0 Z m 1.248,5.288 c 0,0.216 -0.184,0.384 -0.392,0.384 -0.2,0 -0.392,-0.184 -0.392,-0.384 0,-0.208 0.184,-0.4 0.392,-0.4 0.216,0 0.392,0.184 0.392,0.4"
             style="fill:#999999;fill-opacity:1;fill-rule:evenodd;stroke:none"
             id="path1853" />
        </g>
        <g
           id="g1855"
           transform="translate(160.24122,238.276)"
           style="fill:#999999">
          <path
             d="m 0,0 0.088,-0.92 c 0.28,-0.16 0.656,-0.272 0.976,-0.272 0.952,0 1.376,0.56 1.376,1.088 0,1.256 -1.856,0.968 -1.856,1.904 0,0.344 0.304,0.528 0.624,0.528 C 1.72,2.328 2,2.04 2.08,1.536 H 2.264 L 2.208,2.352 C 1.896,2.512 1.552,2.584 1.296,2.584 0.416,2.584 0.056,2.008 0.056,1.56 0.056,0.272 1.8,0.576 1.8,-0.368 c 0,-0.28 -0.176,-0.568 -0.648,-0.568 -0.584,0 -0.904,0.448 -1.008,0.976 L 0,0"
             style="fill:#999999;fill-opacity:1;fill-rule:nonzero;stroke:none"
             id="path1857" />
        </g>
        <g
           id="g1863"
           transform="translate(187.41422,239.412)"
           style="fill:#999999">
          <path
             d="M 0,0 0.072,0.048 C 0.08,0.096 0.08,0.144 0.08,0.192 0.072,1.04 -0.624,1.448 -1.272,1.448 c -0.56,0 -1.616,-0.464 -1.616,-2.032 0,-0.512 0.256,-1.744 1.528,-1.744 0.656,0 1.112,0.416 1.48,0.904 l -0.112,0.112 c -0.296,-0.296 -0.64,-0.536 -1.08,-0.536 -0.64,0 -1.128,0.624 -1.176,1.384 -0.016,0.272 -0.016,0.392 0,0.464 z m -2.224,0.256 c 0.096,0.576 0.432,0.936 0.92,0.936 0.448,0 0.696,-0.328 0.696,-0.736 0,-0.096 -0.024,-0.2 -0.224,-0.2 h -1.392"
             style="fill:#999999;fill-opacity:1;fill-rule:evenodd;stroke:none"
             id="path1865" />
        </g>
        <g
           id="g1867"
           transform="translate(188.55322,237.676)"
           style="fill:#999999">
          <path
             d="m 0,0 c 0,-0.264 -0.16,-0.264 -0.384,-0.264 h -0.144 v -0.208 c 0.288,0.008 0.576,0.016 0.864,0.016 0.288,0 0.568,-0.016 0.848,-0.016 v 0.208 H 1.04 c -0.224,0 -0.4,0 -0.4,0.264 v 2.368 c 0.264,0.176 0.672,0.384 0.928,0.384 0.456,0 0.736,-0.224 0.736,-0.68 L 2.304,0 c 0,-0.264 -0.16,-0.264 -0.384,-0.264 H 1.776 v -0.208 c 0.288,0.008 0.576,0.016 0.864,0.016 0.288,0 0.568,-0.016 0.848,-0.016 v 0.208 H 3.344 c -0.224,0 -0.4,0 -0.4,0.264 v 2.064 c 0,0.624 -0.24,1.12 -0.92,1.12 -0.536,0 -0.928,-0.272 -1.384,-0.6 v 0.52 c 0,0.064 -0.024,0.08 -0.048,0.08 C 0.208,3.016 -0.12,2.912 -0.464,2.8 V 2.648 C -0.088,2.496 0,2.416 0,2.12 V 0"
             style="fill:#999999;fill-opacity:1;fill-rule:evenodd;stroke:none"
             id="path1869" />
        </g>
        <g
           id="g1871"
           transform="translate(216.22422,240.308)"
           style="fill:#999999">
          <path
             d="M 0,0 H 1.192 V 0.432 H 0 V 1.248 H -0.096 C -0.504,0.6 -0.752,0.448 -1.168,0.128 V 0 h 0.528 v -2.48 c 0,-0.472 0.248,-0.744 0.76,-0.744 0.432,0 0.784,0.256 1.064,0.544 l -0.12,0.12 C 0.88,-2.72 0.72,-2.792 0.504,-2.792 0.288,-2.792 0,-2.648 0,-2.12 V 0"
             style="fill:#999999;fill-opacity:1;fill-rule:nonzero;stroke:none"
             id="path1873" />
        </g>
        <g
           id="g1875"
           transform="translate(217.90722,238.956)"
           style="fill:#999999">
          <path
             d="m 0,0 c 0,-1.136 0.872,-1.872 1.936,-1.872 1.023,0 1.839,0.872 1.839,1.904 0,1.136 -0.832,1.872 -1.943,1.872 C 0.76,1.904 0,1.032 0,0 Z m 0.736,0.08 c 0,0.688 0.312,1.616 1.104,1.616 0.847,0 1.199,-1.088 1.199,-1.744 0,-0.688 -0.311,-1.616 -1.111,-1.616 -0.84,0 -1.192,1.088 -1.192,1.744"
             style="fill:#999999;fill-opacity:1;fill-rule:evenodd;stroke:none"
             id="path1877" />
        </g>
        <g
           id="g1879"
           transform="translate(218.55022,228.709)"
           style="fill:#999999">
          <path
             d="m 0,0 0.288,1.952 c 0.056,0.368 0.12,0.816 0.12,1.111 0,0.361 -0.048,0.801 -0.504,0.801 -0.448,0 -0.496,-0.44 -0.496,-0.801 0,-0.295 0.064,-0.743 0.12,-1.111 L -0.184,0 Z m -0.088,-1.624 c 0.288,0 0.528,0.232 0.528,0.52 0,0.288 -0.248,0.536 -0.528,0.536 -0.28,0 -0.528,-0.256 -0.528,-0.536 0,-0.288 0.248,-0.52 0.528,-0.52"
             style="fill:#999999;fill-opacity:1;fill-rule:evenodd;stroke:none"
             id="path1881" />
        </g>
        <g
           id="g1883"
           transform="translate(247.75122,232.908)"
           style="fill:#999999">
          <path
             d="m 0,0 c -0.736,-1.287 -1.192,-2.375 -1.192,-3.623 0,-1.392 0.48,-2.648 1.168,-3.624 l 0.184,0.096 c -0.552,1.16 -0.824,2.44 -0.824,3.528 0,1.008 0.192,1.935 0.848,3.536 L 0,0"
             style="fill:#999999;fill-opacity:1;fill-rule:nonzero;stroke:none"
             id="path1885" />
        </g>
        <g
           id="g1887"
           transform="translate(249.25722,232.812)"
           style="fill:#999999">
          <path
             d="m 0,0 c 0.552,-1.159 0.824,-2.439 0.824,-3.527 0,-1.008 -0.192,-1.936 -0.848,-3.536 L 0.16,-7.151 c 0.736,1.288 1.192,2.376 1.192,3.624 0,1.392 -0.48,2.648 -1.168,3.623 L 0,0"
             style="fill:#999999;fill-opacity:1;fill-rule:nonzero;stroke:none"
             id="path1889" />
        </g>
        <g
           id="g1891"
           transform="translate(248.37622,240.652)"
           style="fill:#999999">
          <path
             d="m 0,0 c -0.208,-0.032 -0.32,-0.04 -0.464,-0.04 -0.328,0 -0.552,0.072 -0.776,0.136 -0.192,0.056 -0.464,0.112 -0.704,0.112 -0.984,0 -1.496,-0.536 -1.496,-1.232 0,-0.528 0.304,-0.832 0.752,-1.064 -0.112,-0.104 -0.44,-0.264 -0.664,-0.4 -0.032,-0.08 -0.032,-0.168 -0.032,-0.256 0,-0.368 0.368,-0.6 0.704,-0.696 v -0.016 c -0.488,-0.096 -0.936,-0.408 -0.936,-0.92 0,-0.432 0.496,-0.896 1.512,-0.896 1.704,0 2.12,1.224 2.12,1.537 0,0.599 -0.408,0.807 -1.096,0.807 -0.32,0 -0.712,0.008 -1.104,0.008 -0.528,0 -0.56,0.248 -0.56,0.368 0,0.192 0.088,0.296 0.24,0.408 0.16,-0.032 0.32,-0.048 0.44,-0.048 0.992,0 1.48,0.648 1.48,1.232 0,0.216 -0.072,0.44 -0.208,0.608 L 0,-0.384 Z m -0.576,-4.096 c 0,-0.712 -0.912,-0.919 -1.4,-0.919 -0.56,0 -1.056,0.263 -1.056,0.815 0,0.752 0.808,0.752 1.328,0.752 0.424,0 1.128,-0.064 1.128,-0.648 z m -0.648,3.048 c 0,-0.488 -0.232,-0.936 -0.776,-0.936 -0.552,0 -0.752,0.608 -0.752,1.072 0,0.424 0.216,0.912 0.704,0.912 0.56,0 0.824,-0.56 0.824,-1.048"
             style="fill:#999999;fill-opacity:1;fill-rule:evenodd;stroke:none"
             id="path1893" />
        </g>
        <g
           id="g1895"
           transform="translate(252.38522,240.652)"
           style="fill:#999999">
          <path
             d="m 0,0 c -0.208,-0.032 -0.32,-0.04 -0.464,-0.04 -0.328,0 -0.552,0.072 -0.776,0.136 -0.192,0.056 -0.464,0.112 -0.704,0.112 -0.984,0 -1.496,-0.536 -1.496,-1.232 0,-0.528 0.304,-0.832 0.752,-1.064 -0.112,-0.104 -0.44,-0.264 -0.664,-0.4 -0.032,-0.08 -0.032,-0.168 -0.032,-0.256 0,-0.368 0.368,-0.6 0.704,-0.696 v -0.016 c -0.488,-0.096 -0.936,-0.408 -0.936,-0.92 0,-0.432 0.496,-0.896 1.512,-0.896 1.704,0 2.12,1.224 2.12,1.537 0,0.599 -0.408,0.807 -1.096,0.807 -0.32,0 -0.712,0.008 -1.104,0.008 -0.528,0 -0.56,0.248 -0.56,0.368 0,0.192 0.088,0.296 0.24,0.408 0.16,-0.032 0.32,-0.048 0.44,-0.048 0.992,0 1.48,0.648 1.48,1.232 0,0.216 -0.072,0.44 -0.208,0.608 L 0,-0.384 Z m -0.576,-4.096 c 0,-0.712 -0.912,-0.919 -1.4,-0.919 -0.56,0 -1.056,0.263 -1.056,0.815 0,0.752 0.808,0.752 1.328,0.752 0.424,0 1.128,-0.064 1.128,-0.648 z m -0.648,3.048 c 0,-0.488 -0.232,-0.936 -0.776,-0.936 -0.552,0 -0.752,0.608 -0.752,1.072 0,0.424 0.216,0.912 0.704,0.912 0.56,0 0.824,-0.56 0.824,-1.048"
             style="fill:#999999;fill-opacity:1;fill-rule:evenodd;stroke:none"
             id="path1897" />
        </g>
        <g
           id="g1899"
           transform="translate(274.59722,237.676)"
           style="fill:#999999">
          <path
             d="m 0,0 c 0,-0.264 -0.16,-0.264 -0.384,-0.264 h -0.144 v -0.208 c 0.288,0.008 0.576,0.016 0.864,0.016 0.288,0 0.568,-0.016 0.848,-0.016 v 0.208 H 1.04 c -0.224,0 -0.4,0 -0.4,0.264 v 2.256 c 0.184,0.168 0.504,0.448 0.88,0.448 0.728,0 0.784,-0.608 0.784,-1.192 V 0.608 c 0,-0.784 -0.024,-0.872 -0.4,-0.872 H 1.76 v -0.208 c 0.288,0.008 0.576,0.016 0.864,0.016 0.304,0 0.584,-0.016 0.864,-0.016 v 0.208 H 3.344 c -0.224,0 -0.4,0 -0.4,0.264 v 1.976 c 0,0.696 -0.376,1.208 -1.072,1.208 -0.648,0 -1.16,-0.64 -1.232,-0.704 V 5.528 C 0.64,5.592 0.624,5.64 0.576,5.64 0.552,5.64 0.488,5.6 0.4,5.552 0.232,5.456 -0.104,5.312 -0.424,5.208 V 5.08 C -0.12,4.992 0,4.976 0,4.456 V 0"
             style="fill:#999999;fill-opacity:1;fill-rule:nonzero;stroke:none"
             id="path1901" />
        </g>
        <g
           id="g1903"
           transform="translate(278.55322,237.204)"
           style="fill:#999999">
          <path
             d="M 0,0 C 0.296,0.008 0.584,0.016 0.872,0.016 1.16,0.016 1.44,0 1.712,0 V 0.208 H 1.576 c -0.224,0 -0.4,0 -0.4,0.264 V 3.544 C 1.176,3.608 1.16,3.656 1.12,3.656 1.08,3.656 1.032,3.648 0.976,3.616 0.944,3.592 0.496,3.44 0.12,3.328 V 3.2 C 0.416,3.04 0.536,2.992 0.536,2.64 V 0.472 C 0.536,0.208 0.376,0.208 0.152,0.208 H 0 Z m 1.248,5.288 c 0,0.216 -0.184,0.384 -0.392,0.384 -0.2,0 -0.392,-0.184 -0.392,-0.384 0,-0.208 0.184,-0.4 0.392,-0.4 0.216,0 0.392,0.184 0.392,0.4"
             style="fill:#999999;fill-opacity:1;fill-rule:evenodd;stroke:none"
             id="path1905" />
        </g>
        <g
           id="g1907"
           transform="translate(280.86522,238.276)"
           style="fill:#999999">
          <path
             d="m 0,0 0.088,-0.92 c 0.28,-0.16 0.656,-0.272 0.976,-0.272 0.952,0 1.376,0.56 1.376,1.088 0,1.256 -1.856,0.968 -1.856,1.904 0,0.344 0.304,0.528 0.624,0.528 C 1.72,2.328 2,2.04 2.08,1.536 H 2.264 L 2.208,2.352 C 1.896,2.512 1.552,2.584 1.296,2.584 0.416,2.584 0.056,2.008 0.056,1.56 0.056,0.272 1.8,0.576 1.8,-0.368 c 0,-0.28 -0.176,-0.568 -0.648,-0.568 -0.584,0 -0.904,0.448 -1.008,0.976 L 0,0"
             style="fill:#999999;fill-opacity:1;fill-rule:nonzero;stroke:none"
             id="path1909" />
        </g>
        <g
           id="g1911"
           transform="translate(278.43322,232.788)"
           style="fill:#999999">
          <path
             d="m 0,0 c -0.608,-0.176 -1.112,-0.583 -1.112,-1.263 0,-0.448 0.248,-0.88 0.744,-0.88 0.264,0 0.488,0.12 0.488,0.416 0,0.368 -0.2,0.416 -0.408,0.416 -0.2,0 -0.4,0.016 -0.4,0.336 0,0.439 0.4,0.664 0.768,0.784 z M 1.632,0 C 1.024,-0.176 0.52,-0.583 0.52,-1.263 c 0,-0.448 0.248,-0.88 0.744,-0.88 0.264,0 0.488,0.12 0.488,0.416 0,0.368 -0.2,0.416 -0.408,0.416 -0.2,0 -0.4,0.016 -0.4,0.336 0,0.439 0.4,0.664 0.768,0.784 L 1.632,0"
             style="fill:#999999;fill-opacity:1;fill-rule:evenodd;stroke:none"
             id="path1913" />
        </g>
        <g
           id="g1915"
           transform="translate(305.79522,237.204)"
           style="fill:#999999">
          <path
             d="M 0,0 C 0.296,0.008 0.584,0.016 0.872,0.016 1.16,0.016 1.44,0 1.712,0 V 0.208 H 1.576 c -0.224,0 -0.4,0 -0.4,0.264 V 3.544 C 1.176,3.608 1.16,3.656 1.12,3.656 1.08,3.656 1.032,3.648 0.976,3.616 0.944,3.592 0.496,3.44 0.12,3.328 V 3.2 C 0.416,3.04 0.536,2.992 0.536,2.64 V 0.472 C 0.536,0.208 0.376,0.208 0.152,0.208 H 0 Z m 1.248,5.288 c 0,0.216 -0.184,0.384 -0.392,0.384 -0.2,0 -0.392,-0.184 -0.392,-0.384 0,-0.208 0.184,-0.4 0.392,-0.4 0.216,0 0.392,0.184 0.392,0.4"
             style="fill:#999999;fill-opacity:1;fill-rule:evenodd;stroke:none"
             id="path1917" />
        </g>
        <g
           id="g1919"
           transform="translate(308.51522,237.676)"
           style="fill:#999999">
          <path
             d="m 0,0 c 0,-0.264 -0.16,-0.264 -0.384,-0.264 h -0.144 v -0.208 c 0.288,0.008 0.576,0.016 0.864,0.016 0.288,0 0.568,-0.016 0.848,-0.016 v 0.208 H 1.04 c -0.224,0 -0.401,0 -0.401,0.264 v 2.368 c 0.265,0.176 0.673,0.384 0.929,0.384 0.455,0 0.736,-0.224 0.736,-0.68 L 2.304,0 c 0,-0.264 -0.161,-0.264 -0.384,-0.264 H 1.776 v -0.208 c 0.288,0.008 0.576,0.016 0.863,0.016 0.288,0 0.569,-0.016 0.849,-0.016 v 0.208 H 3.343 c -0.223,0 -0.399,0 -0.399,0.264 v 2.064 c 0,0.624 -0.24,1.12 -0.921,1.12 -0.535,0 -0.927,-0.272 -1.384,-0.6 v 0.52 c 0,0.064 -0.023,0.08 -0.047,0.08 C 0.208,3.016 -0.12,2.912 -0.464,2.8 V 2.648 C -0.088,2.496 0,2.416 0,2.12 V 0"
             style="fill:#999999;fill-opacity:1;fill-rule:evenodd;stroke:none"
             id="path1921" />
        </g>
        <g
           id="g1923"
           transform="translate(334.34322,237.084)"
           style="fill:#999999">
          <path
             d="M 0,0 0.28,0.048 1.24,2.52 2.224,0 2.512,0.048 3.64,2.872 c 0.144,0.36 0.264,0.576 0.624,0.576 V 3.656 C 4.04,3.656 3.84,3.64 3.632,3.64 3.384,3.64 3.128,3.648 2.88,3.656 V 3.448 C 3.04,3.44 3.36,3.448 3.36,3.216 3.36,3.016 3.272,2.76 3.232,2.648 3.008,2.064 2.784,1.48 2.552,0.904 H 2.536 L 1.872,2.664 C 1.784,2.88 1.688,3.176 1.688,3.256 c 0,0.192 0.248,0.176 0.448,0.192 V 3.656 C 1.872,3.656 1.608,3.64 1.344,3.64 1.056,3.64 0.76,3.648 0.472,3.656 V 3.448 C 0.8,3.424 1.048,3.304 1.048,2.928 1.048,2.832 1.04,2.744 1.008,2.664 l -0.68,-1.76 -0.84,2.152 c -0.032,0.08 -0.064,0.184 -0.064,0.24 0,0.12 0.136,0.152 0.416,0.152 v 0.208 c -0.24,0 -0.512,-0.016 -0.792,-0.016 -0.264,0 -0.536,0.008 -0.8,0.016 V 3.448 c 0.304,0 0.384,-0.008 0.616,-0.616 L 0,0"
             style="fill:#999999;fill-opacity:1;fill-rule:nonzero;stroke:none"
             id="path1925" />
        </g>
        <g
           id="g1927"
           transform="translate(341.13322,237.924)"
           style="fill:#999999">
          <path
             d="m 0,0 c -0.264,-0.232 -0.504,-0.464 -0.88,-0.464 -0.312,0 -0.568,0.264 -0.568,0.576 0,0.6 1.04,0.784 1.448,0.944 z M 1.224,-0.272 C 1.152,-0.36 1.032,-0.408 0.928,-0.408 0.752,-0.408 0.64,-0.28 0.64,0.048 v 2.216 c 0,0.44 -0.616,0.672 -0.976,0.672 -0.304,0 -0.44,-0.112 -0.72,-0.256 -0.56,-0.288 -0.92,-0.488 -0.92,-0.912 0,-0.056 0.024,-0.16 0.144,-0.16 0.192,0 0.448,0.112 0.448,0.336 0.016,0.36 0.256,0.56 0.608,0.56 C -0.264,2.504 0,2.264 0,1.816 V 1.288 c -1.728,-0.592 -2.056,-0.712 -2.088,-1.352 0,-0.424 0.352,-0.776 0.864,-0.776 0.496,0 0.856,0.248 1.232,0.592 0.016,-0.288 0.168,-0.592 0.496,-0.592 0.32,0 0.568,0.224 0.792,0.432 l -0.072,0.136"
             style="fill:#999999;fill-opacity:1;fill-rule:evenodd;stroke:none"
             id="path1929" />
        </g>
        <g
           id="g1931"
           transform="translate(343.05422,238.276)"
           style="fill:#999999">
          <path
             d="m 0,0 0.088,-0.92 c 0.28,-0.16 0.656,-0.272 0.976,-0.272 0.952,0 1.376,0.56 1.376,1.088 0,1.256 -1.856,0.968 -1.856,1.904 0,0.344 0.304,0.528 0.624,0.528 C 1.72,2.328 2,2.04 2.08,1.536 H 2.264 L 2.208,2.352 C 1.896,2.512 1.552,2.584 1.296,2.584 0.416,2.584 0.056,2.008 0.056,1.56 0.056,0.272 1.8,0.576 1.8,-0.368 c 0,-0.28 -0.176,-0.568 -0.648,-0.568 -0.584,0 -0.904,0.448 -1.008,0.976 L 0,0"
             style="fill:#999999;fill-opacity:1;fill-rule:nonzero;stroke:none"
             id="path1933" />
        </g>
        <g
           id="g1935"
           transform="translate(339.48522,230.645)"
           style="fill:#999999">
          <path
             d="m 0,0 c 0.608,0.176 1.112,0.584 1.112,1.263 0,0.449 -0.248,0.88 -0.744,0.88 -0.264,0 -0.488,-0.12 -0.488,-0.415 0,-0.368 0.2,-0.416 0.408,-0.416 0.2,0 0.4,-0.016 0.4,-0.336 0,-0.44 -0.4,-0.664 -0.768,-0.784 z m -1.632,0 c 0.608,0.176 1.112,0.584 1.112,1.263 0,0.449 -0.248,0.88 -0.744,0.88 -0.264,0 -0.488,-0.12 -0.488,-0.415 0,-0.368 0.2,-0.416 0.408,-0.416 0.2,0 0.4,-0.016 0.4,-0.336 0,-0.44 -0.4,-0.664 -0.768,-0.784 L -1.632,0"
             style="fill:#999999;fill-opacity:1;fill-rule:evenodd;stroke:none"
             id="path1937" />
        </g>
        <g
           id="g3222"
           transform="translate(64.795,221.501)" />
      </g>
    </g>
  </g>
</svg>
