<?xml version="1.0" encoding="utf-8"?>
<!-- Uploaded to: SVG Repo, www.svgrepo.com, Generator: SVG Repo Mixer Tools -->
<svg width="800px" height="800px" viewBox="-54.34 0 385.56 385.56" xmlns="http://www.w3.org/2000/svg"><defs><style>.a{fill:#957f6e;}.b{fill:#211715;}.c{fill:#f4b467;}.d{fill:#ffffff;}</style></defs><path class="a" d="M100.2,164.778a27.549,27.549,0,0,0,13.506-10.17,46.741,46.741,0,0,1-16.1-12.858A54.7,54.7,0,0,1,87.185,121.4l-2.055-.317a13.545,13.545,0,0,1-6.3-2.84q-.478-.387-.92-.806a27,27,0,0,0-3.036,9.638,43.967,43.967,0,0,0-.3,6.1c.075,4.838,1.294,9.789,1.537,14.627.225,4.838-1.781,10.37-6.376,11.927C67.643,163.1,85.135,170.13,100.2,164.778Z"/><path class="b" d="M75.837,116.229a32.02,32.02,0,0,0-3.59,13.318c-.315,5.144.618,10.112,1.2,15.2.415,3.623.577,7.657-1.782,10.721a6.289,6.289,0,0,1-1.406,1.343c-.891.609-2.021.752-2.615,1.739a3.6,3.6,0,0,0-.342,2.759c.421,1.639,1.962,2.836,3.327,3.676a24.579,24.579,0,0,0,5.914,2.484,41.788,41.788,0,0,0,17.331,1.264,31.691,31.691,0,0,0,20.033-10.494,2.464,2.464,0,0,0,0-3.394,2.421,2.421,0,0,0-3.4,0,27.9,27.9,0,0,1-19.767,9.407,38.064,38.064,0,0,1-9.695-.62,35.21,35.21,0,0,1-4.245-1.109c-.567-.188-1.124-.4-1.679-.616-.571-.226.319.145-.024-.011-.136-.061-.273-.121-.408-.184-.256-.119-.511-.243-.762-.374-.49-.256-.945-.556-1.415-.846-.532-.329.321.344-.167-.128-.141-.136-.29-.3-.441-.424-.41-.332.268.46.02.032-.331-.573.123.521,0,.061s.017.688.035.219c-.03.789-.11.616-.045.4.06-.195-.343.68-.113.286l-1.435,1.1a11.922,11.922,0,0,0,7.067-7.323c1.412-3.691,1.134-7.555.633-11.391-1.09-8.344-2.243-16.929,1.911-24.677,1.459-2.722-2.683-5.149-4.145-2.422Z"/><path class="c" d="M232.559,343.3c8.059-2.074,9.126-.933,17.783-7.279,7.336-5.378,17.331-10.038,21.7-18.415a24.825,24.825,0,0,0,2.36-13.177,129.967,129.967,0,0,0-6.221-32.687c-3.763-11.155-10.6-22.652-14.66-33.7-2.969-8.084-5.917-16.176-8.661-24.339-2.988-8.885-6.3-18.07-13-24.626-3.694-3.613-8.212-6.214-12.815-8.607-3.616-2.134-6.951-3.956-9.655-5.4a16.426,16.426,0,0,0,3.087-9.163c-.1-6.392-5.491-11.712-11.513-13.854-1.962-.7-4.018-1.143-5.9-2.025-4-1.873-8.634-7.651-14.8-9.752l-83.977-.929c-6.243,2.119-11.241,7.959-15.242,9.831-1.886.882-3.942,1.327-5.9,2.024-6.023,2.143-11.413,7.463-11.513,13.854-.057,3.643,1.573,7.086,3.712,10.072-2.682,1.429-5.979,3.232-9.549,5.339-4.6,2.393-9.121,4.994-12.815,8.607-6.7,6.556-10.011,15.741-13,24.626-2.745,8.163-5.693,16.255-8.662,24.339-4.058,11.05-10.9,22.547-14.66,33.7A129.967,129.967,0,0,0,2.43,304.428a24.825,24.825,0,0,0,2.36,13.177c4.366,8.377,14.36,13.037,21.7,18.415,8.657,6.346,9.724,5.205,17.783,7.279Z"/><path class="d" d="M191.167,88.2a8.037,8.037,0,0,1,6.433-1.882,7.588,7.588,0,0,1,5.457,3.628,10.712,10.712,0,0,1,1.124,4.318,32.158,32.158,0,0,1-3.279,17.048,20.437,20.437,0,0,1-5.286,6.938,13.545,13.545,0,0,1-6.3,2.84l-1.079.167c-.517,1.936-1.1,3.566-1.384,4.432-1.781,4.834-11.507,21.214-23.9,27.923.925,4.073.22,8.94,6.021,11.035.375.135,10.952,3.226,16.241,4.957-2.253,4.473-10.6,9.352-17.891,11.6,0,0-9.415,3.061-29.234,3.061s-30.356-4.025-30.356-4.025c-6.944-2.147-14.828-6.4-17.634-10.4.952-.3,1.617-.515,1.617-.515,5.491-1.763,15.044-4.556,15.4-4.685,5.488-1.982,5.154-6.444,5.884-10.368A47.283,47.283,0,0,1,97.609,141.75,54.687,54.687,0,0,1,87.185,121.4l-2.055-.317a13.545,13.545,0,0,1-6.3-2.84,20.437,20.437,0,0,1-5.286-6.938,32.158,32.158,0,0,1-3.279-17.048,10.727,10.727,0,0,1,1.123-4.318,7.592,7.592,0,0,1,5.458-3.628A8.037,8.037,0,0,1,83.277,88.2s-.056-51.408,55.055-51.408S191.167,88.2,191.167,88.2Z"/><path class="b" d="M208.026,222.614c.8,10.9-.259,24.606-11.02,30.482-2.712,1.481-.292,5.627,2.422,4.145,12.291-6.712,14.328-21.966,13.4-34.627a2.459,2.459,0,0,0-2.4-2.4,2.421,2.421,0,0,0-2.4,2.4Z"/><path class="b" d="M41.676,291.494c-2.582,1.391-5.188,2.736-7.778,4.112a2.42,2.42,0,0,0-.861,3.283,2.453,2.453,0,0,0,3.284.861c2.59-1.375,5.2-2.721,7.778-4.111a2.422,2.422,0,0,0,.861-3.284,2.453,2.453,0,0,0-3.284-.861Z"/><path class="b" d="M233.2,345.613c4.567-1.163,9.109-1.721,13.261-4.113,2.794-1.61,5.316-3.634,7.992-5.424,2.609-1.746,5.278-3.4,7.851-5.2,5.314-3.715,10.292-8.075,12.786-14.214,2.942-7.244,1.623-15.456.6-22.963a121.069,121.069,0,0,0-5.336-23.008c-2.54-7.388-6.081-14.388-9.405-21.441-3.338-7.08-6.05-14.336-8.7-21.694-2.617-7.255-4.906-14.644-7.677-21.84-2.5-6.5-5.643-12.885-10.579-17.906-5.267-5.358-12.276-8.685-18.762-12.295q-2.189-1.218-4.4-2.4c-2.724-1.457-5.151,2.686-2.423,4.144,3.178,1.7,6.276,3.532,9.428,5.277a83.2,83.2,0,0,1,8.873,5.3c5.417,3.943,9.041,9.511,11.747,15.552,2.917,6.509,4.9,13.444,7.274,20.159,2.595,7.335,5.108,14.745,8.223,21.878,3.006,6.884,6.507,13.542,9.435,20.461a107.889,107.889,0,0,1,6.323,20.981q1.131,5.676,1.751,11.438a56.1,56.1,0,0,1,.508,10.939c-.576,6.48-4.233,11.343-9.149,15.3a96.69,96.69,0,0,1-8.047,5.578c-3,1.948-5.849,4.1-8.837,6.051a31.6,31.6,0,0,1-3.548,2.052,15.93,15.93,0,0,1-2.775,1c-2.534.692-5.142,1.1-7.688,1.746-2.992.762-1.724,5.392,1.276,4.628Z"/><path class="b" d="M64,222.614c-.93,12.662,1.107,27.915,13.4,34.627,2.712,1.481,5.137-2.662,2.422-4.145C69.061,247.22,68,233.513,68.8,222.614a2.421,2.421,0,0,0-2.4-2.4,2.446,2.446,0,0,0-2.4,2.4Z"/><path class="b" d="M44.907,340.985c-4.339-1.105-8.609-1.586-12.25-3.708-2.74-1.6-5.223-3.584-7.856-5.346-2.454-1.642-4.961-3.2-7.392-4.881-4.735-3.269-9.589-7.25-11.5-12.889a25.805,25.805,0,0,1-1.05-10.2c.274-3.861.687-7.715,1.28-11.54A115,115,0,0,1,11.7,270.31c2.511-6.825,5.846-13.311,8.92-19.89,3.256-6.969,5.908-14.131,8.517-21.36,2.554-7.075,4.817-14.262,7.467-21.3,2.588-6.874,5.991-13.585,11.653-18.438a52.05,52.05,0,0,1,9.6-6.179c3.551-1.887,7-3.968,10.549-5.865,2.725-1.458.3-5.6-2.423-4.145-3.231,1.728-6.375,3.61-9.592,5.362a73.328,73.328,0,0,0-9.2,5.584,41.935,41.935,0,0,0-12.869,16.7c-3.072,6.805-5.2,14-7.679,21.033-2.63,7.449-5.145,15-8.359,22.227-3.168,7.121-6.766,14.043-9.744,21.248A110.317,110.317,0,0,0,2.057,287.9c-.706,3.914-1.24,7.861-1.632,11.818a47.221,47.221,0,0,0-.1,11.693c1.011,6.818,5.025,12.3,10.289,16.537,4.938,3.979,10.468,7.161,15.622,10.844a36.341,36.341,0,0,0,7.512,4.343,34.584,34.584,0,0,0,5.9,1.564c1.332.278,2.658.58,3.977.915,2.995.763,4.273-3.865,1.276-4.628Z"/><path class="b" d="M231.921,294.832a43.64,43.64,0,0,1,4.825,1.565c.195.077.389.157.584.236.3.121-.434-.191-.143-.059l.284.124q.553.248,1.1.518a17.781,17.781,0,0,1,2,1.164,2.417,2.417,0,0,0,3.284-.861,2.459,2.459,0,0,0-.861-3.284,24.912,24.912,0,0,0-4.819-2.409A43.6,43.6,0,0,0,233.2,290.2a2.4,2.4,0,0,0-1.276,4.629Z"/><path class="b" d="M87.56,170.3c2.117,3.743,6.259,6.293,9.949,8.253a65.633,65.633,0,0,0,9.895,4.111,75.289,75.289,0,0,0,14.569,3.031,142.428,142.428,0,0,0,30.385.382,82.219,82.219,0,0,0,15.111-2.411,47.119,47.119,0,0,0,10.029-4.249c4.083-2.28,8.606-5.349,10.341-9.894a2.419,2.419,0,0,0-1.676-2.952,2.453,2.453,0,0,0-2.953,1.676c.1-.259-.209.413-.3.564a8.356,8.356,0,0,1-.61.909,15.921,15.921,0,0,1-1.922,1.941,30.548,30.548,0,0,1-5.306,3.611,42.14,42.14,0,0,1-8.62,3.69,67.023,67.023,0,0,1-12.082,2.122,146.033,146.033,0,0,1-28.823.208,78.534,78.534,0,0,1-16.06-2.99,58.332,58.332,0,0,1-7.126-2.684c-3.73-1.734-8.635-4.161-10.659-7.741-1.52-2.689-5.669-.272-4.145,2.423Z"/><path class="d" d="M138.054,244.669c-39.486.286-78.782.515-92.734.563a4.009,4.009,0,0,0-4,4.029c.08,22.669,1.174,101.122,2.007,129.958a4.016,4.016,0,0,0,4.085,3.9c12.61-.194,51.664-.074,90.641.059,38.978-.133,78.032-.253,90.641-.059a4.017,4.017,0,0,0,4.086-3.9c.833-28.836,1.926-107.289,2.007-129.958a4.009,4.009,0,0,0-4-4.029C216.836,245.184,177.541,244.955,138.054,244.669Z"/><path class="b" d="M138.054,242.269q-41.392.3-82.787.52l-6.341.029c-1.907.008-4.082-.248-5.882.453-2.887,1.125-4.133,3.774-4.121,6.731q.009,2.028.024,4.056.079,11.678.231,23.355.369,31.123.91,62.246.243,13.922.545,27.844.12,5.3.263,10.59c.086,3.088,1.13,5.85,4.245,7.023,1.738.654,3.8.379,5.623.363,25.287-.227,50.581-.024,75.869.06,28.8.1,57.608-.168,86.412-.116,4.238.008,8.477.019,12.715.06,2.048.019,4.2.274,6.075-.748,2.7-1.473,3.308-4.1,3.386-6.931.22-7.936.382-15.873.536-23.809q.606-31.2,1-62.4.181-13.724.323-27.446.053-5.229.09-10.459c.008-1.33.026-2.659.022-3.989a6.6,6.6,0,0,0-4.746-6.651c-1.772-.486-3.883-.226-5.711-.234q-3.228-.014-6.457-.03-8.049-.039-16.1-.086-21.426-.123-42.849-.268-11.637-.079-23.274-.163c-3.089-.022-3.092,4.778,0,4.8q40.819.3,81.64.514l6.1.029c1.643.007,3.355-.121,4.992.02,1.818.156,1.6,1.921,1.592,3.307q-.011,2.033-.026,4.064-.084,11.636-.235,23.272-.362,30.375-.889,60.748-.237,13.678-.53,27.357-.12,5.369-.261,10.739c-.035,1.268.276,3.289-1.4,3.59a12.854,12.854,0,0,1-2.287-.016q-1.246-.013-2.495-.023c-24.926-.193-49.856-.014-74.782.069-28.262.093-56.525-.157-84.787-.118-4.427.006-8.854.016-13.281.053a22.756,22.756,0,0,1-4.366.019c-1.741-.349-1.348-2.644-1.384-3.973-.214-7.964-.376-15.928-.529-23.893q-.585-30.457-.968-60.917-.178-13.394-.318-26.786-.053-5.252-.092-10.5-.015-2-.025-4c-.007-1.583.006-2.967,1.952-2.99,23.193-.284,46.4-.246,69.59-.4q11.392-.077,22.786-.159C141.142,247.047,141.149,242.247,138.054,242.269Z"/><path class="b" d="M60.367,368.493c19.134-.119,38.27-.017,57.4.042,23.358.072,46.716-.038,70.074-.072,9.3-.014,18.6-.028,27.9.03,3.089.019,3.093-4.781,0-4.8-19.134-.119-38.27-.017-57.4.042-23.359.072-46.716-.038-70.075-.072-9.3-.014-18.6-.028-27.9.03-3.088.019-3.095,4.819,0,4.8Z"/><path class="b" d="M138.054,297.53c-2.884.027-5.768.065-8.652.068A2.437,2.437,0,0,0,127,300q-.018,4.539-.012,9.076c0,1.777.005,3.554.021,5.332.006.638,0,1.28.026,1.917a2.532,2.532,0,0,0,2.708,2.642c5.183,0,10.368-.036,15.552-.011a5,5,0,0,0,2.579-.3c1.174-.687,1.193-1.93,1.209-3.12.023-1.664.028-3.328.031-4.992q.013-5.271-.009-10.541a2.437,2.437,0,0,0-2.4-2.4c-2.884,0-5.769-.041-8.653-.068a2.4,2.4,0,1,0,0,4.8c2.884.027,5.769.065,8.653.068l-2.4-2.4c.021,5.524.1,11.057-.041,16.579l.327-1.211h0l2.072-1.189c-.951-.087-1.932-.027-2.885-.027-1.909,0-3.817.02-5.726.02-1.863,0-3.727-.018-5.59-.019-1,0-2.025-.065-3.02.026l2.072,1.189h0l.328,1.211c-.137-5.522-.062-11.055-.041-16.579l-2.4,2.4c2.884,0,5.768-.041,8.652-.068a2.4,2.4,0,1,0,0-4.8Z"/><path class="b" d="M101.163,191.592c-5.349-.425-10.687-2.5-15.457-4.934a51.5,51.5,0,0,1-13.971-9.971c-3.755-3.932-7.291-9.7-4.939-15.224a13.99,13.99,0,0,1,4.995-5.866c2.694-1.845,5.644-2.463,8.654-3.588,6.025-2.252,10.007-7.891,16.036-10.192a2.47,2.47,0,0,0,1.676-2.953,2.418,2.418,0,0,0-2.952-1.676,35.2,35.2,0,0,0-8.962,5.374c-2.07,1.6-4.115,3.531-6.535,4.6-1.726.765-3.613,1.135-5.383,1.785a22.951,22.951,0,0,0-4.341,2.1,19.827,19.827,0,0,0-6.858,7.044c-7.316,13.323,7.611,25.748,17.943,31.527,6.152,3.442,13.01,6.21,20.094,6.773a2.419,2.419,0,0,0,2.4-2.4,2.448,2.448,0,0,0-2.4-2.4Z"/><path class="b" d="M92.358,171.643c4.927-1.578,9.9-3.019,14.848-4.515a10.412,10.412,0,0,0,6.1-4.44c1.381-2.3,1.535-4.964,1.973-7.538A2.471,2.471,0,0,0,113.6,152.2a2.419,2.419,0,0,0-2.952,1.677c-.2,1.2-.33,2.406-.558,3.6a14.051,14.051,0,0,1-.4,1.63c-.029.087-.363.893-.191.532-.1.215-.214.427-.337.631a5,5,0,0,1-2.355,1.943,12.631,12.631,0,0,1-1.362.438c-4.793,1.434-9.595,2.842-14.36,4.369-2.931.939-1.678,5.575,1.276,4.628Z"/><path class="b" d="M185.015,167.015c-4.641-1.488-9.318-2.864-13.989-4.258a7.384,7.384,0,0,1-3.757-2.008c-.329-.377.022.078-.218-.3a7.489,7.489,0,0,1-.464-.842c.175.374-.087-.234-.114-.314-.1-.3-.192-.611-.27-.921a32.794,32.794,0,0,1-.577-3.367,2.414,2.414,0,0,0-2.952-1.676A2.462,2.462,0,0,0,161,156.278c.383,2.685.826,5.294,2.562,7.478a10.95,10.95,0,0,0,5.621,3.459c4.858,1.457,9.728,2.88,14.558,4.428,2.949.945,4.211-3.688,1.276-4.628Z"/><path class="b" d="M179.621,142.59c4.974,1.762,8.446,5.908,12.785,8.7,2.531,1.629,5.49,2.133,8.257,3.2a17,17,0,0,1,6.213,4.19,11.468,11.468,0,0,1,3.131,6.15c.4,2.925-.706,5.784-2.195,8.242-3.119,5.146-8.122,8.771-13.324,11.61-3.3,1.8-6.733,3.459-10.182,4.966a30.475,30.475,0,0,1-9.371,2.792,2.462,2.462,0,0,0-2.4,2.4,2.418,2.418,0,0,0,2.4,2.4c7.107-.6,13.722-4.227,19.985-7.376,6.066-3.049,11.837-7.024,15.848-12.584,3.981-5.518,5.606-12.5,2.029-18.645a20.057,20.057,0,0,0-6.376-6.538c-2.808-1.848-5.948-2.614-9.074-3.72-2.709-.959-4.833-2.956-7.039-4.724a32.574,32.574,0,0,0-9.411-5.693,2.4,2.4,0,1,0-1.276,4.628Z"/><path class="a" d="M163.563,53.745c1.907,6.334,4.869,14.479,7.068,18.12,3,4.962,11.142,15.8,18.914,18.744,1.086-3.068,4.737-4.79,8.055-4.294a6.667,6.667,0,0,1,1,.226c4.528-10.418,2.243-28.029.434-36.812C193.446,22.518,165.834.918,136.878,2.5,107.922.918,80.311,22.518,74.72,49.729c-1.514,7.339-1.333,19.895.044,25.754l2.167,10.826a7.623,7.623,0,0,1,7.659,3.547c10.931-8.272,30.1-20.214,39.594-28.1-.827,4.96-3.765,13.4-.064,12.53,15.541-3.479,30.431-10.516,39.369-21.507"/><path class="b" d="M77.078,74.845a49.645,49.645,0,0,1-.991-9.807,81.964,81.964,0,0,1,.461-11.66,49.775,49.775,0,0,1,7.168-19.82A61.113,61.113,0,0,1,117.821,7.241a55.315,55.315,0,0,1,10.753-2.172c3.836-.365,7.722-.272,11.569-.253a56.4,56.4,0,0,1,21.665,4.535,60.859,60.859,0,0,1,31.127,29.578,63.542,63.542,0,0,1,5.1,19.355c.926,7.378,1.438,15.2-.156,22.527a28.5,28.5,0,0,1-1.557,5A2.415,2.415,0,0,0,198,88.765a2.463,2.463,0,0,0,2.952-1.676c3.053-7.261,3.009-15.786,2.42-23.509-.55-7.219-1.552-14.674-4-21.52-5.33-14.94-16.735-27.407-30.728-34.747A63.688,63.688,0,0,0,145.718.323,112.377,112.377,0,0,0,133.795.016a60.123,60.123,0,0,0-12.059,1.275A66.054,66.054,0,0,0,82.6,26.635,57.88,57.88,0,0,0,72.745,47.56a70.964,70.964,0,0,0-1.07,23.6,42.517,42.517,0,0,0,.775,4.958c.689,3.01,5.318,1.736,4.628-1.276Z"/><path class="b" d="M161.248,54.383c1.143,3.777,2.413,7.52,3.86,11.192A48.456,48.456,0,0,0,169.133,74a61.985,61.985,0,0,0,12.248,14.3c2.753,2.288,5.871,4.409,9.424,5.179,3.011.653,4.3-3.974,1.276-4.629-5.529-1.2-10.114-6.164-13.685-10.37a49.1,49.1,0,0,1-8.369-13.454c-1.573-3.9-2.932-7.9-4.15-11.921-.892-2.949-5.527-1.692-4.629,1.276Z"/><path class="b" d="M161.792,51.078a55.3,55.3,0,0,1-19.054,14.37,82.412,82.412,0,0,1-11.631,4.5q-3.175.975-6.411,1.738l-.607.142-.2.046q-.678.128-.272.078c.056-.1-.064-.036.135.011a1.609,1.609,0,0,1,.487.159,1.718,1.718,0,0,1,.476.478c-.231-.263.009.067.054.148a1.213,1.213,0,0,1-.083-.343c0,.359.009.2.016-.065.089-3.179,1.219-6.585,1.8-9.952a2.422,2.422,0,0,0-4.011-2.335c-4.8,3.98-10.039,7.546-15.213,11.1-5.9,4.053-11.861,8.024-17.717,12.143-2.895,2.036-5.76,4.116-8.543,6.3a2.414,2.414,0,0,0,0,3.394,2.46,2.46,0,0,0,3.394,0c10.444-8.217,22.246-15.357,33.158-23.207,2.829-2.035,5.631-4.117,8.315-6.341l-4.012-2.335c-.613,3.569-1.9,7.13-1.97,10.775a4.751,4.751,0,0,0,1.8,4.3c1.723,1.1,3.89.228,5.683-.222A83.32,83.32,0,0,0,153.76,64.682a53.189,53.189,0,0,0,11.426-10.209,2.47,2.47,0,0,0,0-3.395,2.419,2.419,0,0,0-3.394,0Z"/><path class="b" d="M186.831,115.1a27.045,27.045,0,0,1-1.277,6.809c-.256.859-.538,1.709-.823,2.558-.077.229-.151.461-.235.688-.066.178-.365.846-.056.156a53.964,53.964,0,0,1-3.587,6.573,64.055,64.055,0,0,1-14.3,16.487,27.236,27.236,0,0,1-10.6,5.365c-3.009.691-1.735,5.32,1.276,4.628,8.054-1.851,14.8-7.661,20.1-13.739A69.363,69.363,0,0,0,188.4,128.148a35.174,35.174,0,0,0,3.229-13.046c.1-3.089-4.7-3.086-4.8,0Z"/><path class="b" d="M83.14,114.325c2.926,16.884,12.076,33.406,27.718,41.554a37.585,37.585,0,0,0,13.573,4.061,2.415,2.415,0,0,0,2.4-2.4,2.454,2.454,0,0,0-2.4-2.4c-16.13-1.672-28.7-16.138-33.765-30.671a71.951,71.951,0,0,1-2.9-11.42,2.419,2.419,0,0,0-2.952-1.676,2.454,2.454,0,0,0-1.676,2.952Z"/><path class="b" d="M192.864,89.894a5.526,5.526,0,0,1,7.936.95,9.248,9.248,0,0,1,1.068,4.761,28.7,28.7,0,0,1-.342,6.072c-1.213,7.092-4.95,15.739-12.851,17.1A2.42,2.42,0,0,0,187,121.725a2.457,2.457,0,0,0,2.953,1.677c8.178-1.405,13.032-9.13,15.27-16.5a33.965,33.965,0,0,0,1.409-11.964c-.257-3.963-1.455-7.69-5.109-9.753A10.545,10.545,0,0,0,189.47,86.5a2.421,2.421,0,0,0,0,3.394,2.45,2.45,0,0,0,3.394,0Z"/><path class="b" d="M84.974,86.5a10.506,10.506,0,0,0-10.623-1.982c-3.934,1.552-5.9,4.862-6.4,8.935a32.978,32.978,0,0,0,5.772,22.8,17.242,17.242,0,0,0,10.77,7.15,2.472,2.472,0,0,0,2.953-1.677,2.42,2.42,0,0,0-1.677-2.952c-7.9-1.357-11.638-10-12.85-17.1a28.693,28.693,0,0,1-.351-5.848c.06-1.654.134-3.558,1.077-4.985a5.522,5.522,0,0,1,7.936-.95,2.463,2.463,0,0,0,3.394,0,2.421,2.421,0,0,0,0-3.394Z"/><path class="b" d="M127.861,135.142a21.234,21.234,0,0,0,10.233,2.363c3.641-.023,7.348-.728,10.268-3a2.413,2.413,0,0,0,0-3.394,2.462,2.462,0,0,0-3.394,0c.71-.553.094-.085-.088.031-.208.134-.423.258-.642.372-.151.08-.905.394-.307.166-.294.112-.585.226-.885.322a15.244,15.244,0,0,1-5.285.706,15.843,15.843,0,0,1-5.043-.679c-.325-.1-.641-.213-.961-.323-.1-.035-.2-.089-.309-.12.59.173.169.076.012,0-.4-.187-.788-.382-1.176-.587a2.453,2.453,0,0,0-3.284.861,2.426,2.426,0,0,0,.861,3.283Z"/><path class="b" d="M137.01,110.86a48.754,48.754,0,0,1,1.147,5.246l-.086-.638a3.132,3.132,0,0,1,.019.724l.086-.638a1.823,1.823,0,0,1-.079.326l.242-.574a1.379,1.379,0,0,1-.115.21l.375-.486a1.058,1.058,0,0,1-.172.169l.486-.375a3.356,3.356,0,0,1-.415.22l.573-.242a3.068,3.068,0,0,1-.7.2l.638-.086a2.733,2.733,0,0,1-.658,0l.638.086c-.248-.035-.491-.095-.739-.128a2.649,2.649,0,0,0-1.849.242,2.4,2.4,0,0,0-.861,3.283,2.3,2.3,0,0,0,1.434,1.1c.539.073,1.061.211,1.609.235a5.078,5.078,0,0,0,2.337-.552,3.306,3.306,0,0,0,1.854-2.19,5.605,5.605,0,0,0-.025-2.391c-.285-1.691-.676-3.366-1.111-5.023a2.4,2.4,0,1,0-4.628,1.276Z"/><path class="b" d="M108.99,96.079c-.876,2.847-.3,9.4,5.089,9.954,7.129-.043,7.508-7.961,5.108-11.684C117.222,91.3,111.445,90.033,108.99,96.079Z"/><path class="b" d="M166.079,96.079c.876,2.847.306,9.4-5.088,9.954-7.129-.043-7.509-7.961-5.109-11.684C157.846,91.3,163.624,90.033,166.079,96.079Z"/></svg>