<?xml version="1.0" encoding="iso-8859-1"?>
<!-- Uploaded to: SVG Repo, www.svgrepo.com, Generator: SVG Repo Mixer Tools -->
<svg height="800px" width="800px" version="1.1" id="Layer_1" xmlns="http://www.w3.org/2000/svg" xmlns:xlink="http://www.w3.org/1999/xlink" 
	 viewBox="0 0 512 512" xml:space="preserve">
<polygon style="fill:#FAFAFA;" points="503.983,72.15 8.017,72.15 8.017,439.85 430.23,439.85 503.983,366.096 "/>
<polygon style="fill:#E5E5E5;" points="8.017,72.15 8.017,439.85 365.244,439.85 75.373,72.15 "/>
<polygon style="fill:#CCCCCC;" points="430.23,439.85 503.983,366.096 430.23,366.096 "/>
<polygon style="fill:#FF8C78;" points="196.142,405.645 161.937,379.992 127.733,405.645 127.733,268.827 196.142,268.827 "/>
<polygon style="fill:#DF7A6E;" points="196.142,342.352 196.142,268.827 127.733,268.827 127.733,340.137 161.937,355.407 "/>
<polygon style="fill:#FF8C78;" points="161.937,106.355 187.733,121.248 217.52,121.248 232.413,147.044 258.209,161.937 
	258.209,191.724 273.102,217.52 258.209,243.315 258.209,273.102 232.413,287.995 217.52,313.792 187.733,313.792 161.937,328.685 
	136.142,313.792 106.355,313.792 91.462,287.995 65.665,273.102 65.665,243.315 50.772,217.52 65.665,191.724 65.665,161.937 
	91.462,147.044 106.355,121.248 136.142,121.248 "/>
<circle style="fill:#CCCCCC;" cx="161.937" cy="217.52" r="76.96"/>
<circle style="fill:#FAFAFA;" cx="161.937" cy="217.52" r="57.72"/>
<polygon style="fill:#6DDAE1;" points="133.958,196.509 132.008,260.276 191.866,260.276 191.866,206.831 164.191,178.369 "/>
<path d="M512,72.15c0-4.428-3.588-8.017-8.017-8.017H8.017C3.589,64.134,0,67.722,0,72.15v256.534c0,4.428,3.589,8.017,8.017,8.017
	s8.017-3.588,8.017-8.017V80.167h479.933v277.912H430.23c-4.428,0-8.017,3.588-8.017,8.017v65.737H16.033v-51.841
	c0-4.428-3.589-8.017-8.017-8.017S0,375.563,0,379.992v59.858c0,4.428,3.589,8.017,8.017,8.017H430.23
	c2.1,0,4.184-0.863,5.669-2.347l73.754-73.754c1.485-1.486,2.347-3.568,2.347-5.669V72.15z M438.246,420.496v-46.384h46.384
	L438.246,420.496z"/>
<path d="M262.217,154.995l-23.936-13.82l-13.82-23.936c-1.432-2.48-4.078-4.008-6.942-4.008H189.88l-23.935-13.819
	c-2.48-1.432-5.537-1.432-8.017,0l-23.936,13.82h-27.638c-2.865,0-5.51,1.529-6.942,4.008l-13.82,23.936l-23.936,13.82
	c-2.48,1.432-4.008,4.078-4.008,6.942v27.638L43.83,213.511c-1.432,2.48-1.432,5.537,0,8.017l13.82,23.936v27.638
	c0,2.865,1.529,5.51,4.008,6.942l23.936,13.82l13.82,23.936c1.432,2.48,4.078,4.008,6.942,4.008h13.36v83.837
	c0,6.47,7.639,10.303,12.827,6.413l29.395-22.046l29.395,22.046c5.192,3.893,12.827,0.049,12.827-6.413v-83.838h13.361
	c2.865,0,5.51-1.529,6.942-4.008l13.82-23.936l23.936-13.82c2.48-1.432,4.008-4.078,4.008-6.942v-27.638l13.82-23.936
	c1.432-2.48,1.432-5.537,0-8.017l-13.82-23.936v-27.637C266.225,159.073,264.698,156.427,262.217,154.995z M166.747,373.578
	c-2.851-2.138-6.769-2.138-9.62,0l-21.378,16.033v-66.79l22.18,12.805c2.456,1.418,5.56,1.418,8.017,0l22.18-12.805v66.79
	L166.747,373.578z M251.266,239.307c-0.703,1.219-1.074,2.602-1.074,4.008v25.159l-21.787,12.58
	c-1.219,0.703-2.231,1.715-2.934,2.934l-12.58,21.787h-25.159c-1.407,0-2.79,0.371-4.008,1.074l-21.786,12.579l-21.787-12.58
	c-1.219-0.703-2.602-1.074-4.008-1.074h-25.159l-12.58-21.787c-0.703-1.22-1.716-2.231-2.934-2.934l-21.786-12.579v-25.159
	c0-1.407-0.371-2.79-1.074-4.008l-12.58-21.787l12.58-21.787c0.703-1.219,1.074-2.602,1.074-4.008v-25.159l21.787-12.58
	c1.219-0.703,2.231-1.715,2.934-2.934l12.58-21.787h25.159c1.407,0,2.79-0.371,4.008-1.074l21.786-12.579l21.787,12.58
	c1.219,0.703,2.602,1.074,4.008,1.074h25.159l12.58,21.787c0.703,1.22,1.716,2.231,2.934,2.934l21.787,12.58v25.159
	c0,1.407,0.371,2.79,1.074,4.008l12.579,21.786L251.266,239.307z"/>
<path d="M161.937,132.543c-46.856,0-84.977,38.12-84.977,84.977s38.121,84.977,84.977,84.977s84.977-38.12,84.977-84.977
	S208.793,132.543,161.937,132.543z M161.937,286.463c-38.015,0-68.944-30.928-68.944-68.944s30.928-68.944,68.944-68.944
	s68.944,30.928,68.944,68.944S199.953,286.463,161.937,286.463z"/>
<path d="M167.309,168.815c-3.01-2.724-7.764-2.715-10.764,0.017l-16.52,15.018v-0.534c0-4.428-3.589-8.017-8.017-8.017
	c-4.427,0-8.017,3.588-8.017,8.017v15.111l-14.478,13.161c-2.974,2.703-3.469,7.352-1.116,10.614
	c2.761,3.828,8.404,4.428,11.901,1.251l3.693-3.357v40.181c0,4.428,3.589,8.017,8.017,8.017h59.858c4.427,0,8.017-3.588,8.017-8.017
	v-40.181l3.693,3.357c3.496,3.179,9.14,2.577,11.901-1.251c2.354-3.262,1.858-7.911-1.116-10.614l-47.031-42.756
	C167.324,168.825,167.316,168.821,167.309,168.815z M183.85,206.831v45.428h-13.896v-26.188c0-4.428-3.589-8.017-8.017-8.017
	s-8.017,3.588-8.017,8.017v26.188h-13.896v-46.741l21.912-19.92l22.015,20.013C183.891,206.01,183.85,206.415,183.85,206.831z"/>
<path d="M307.307,191.332h84.656c4.428,0,8.017-3.588,8.017-8.017s-3.588-8.017-8.017-8.017h-84.656
	c-4.428,0-8.017,3.588-8.017,8.017S302.878,191.332,307.307,191.332z"/>
<path d="M461.228,191.332c4.428,0,8.017-3.588,8.017-8.017s-3.588-8.017-8.017-8.017h-38.48c-4.428,0-8.017,3.588-8.017,8.017
	s3.588,8.017,8.017,8.017H461.228z"/>
<path d="M307.307,234.088h153.921c4.428,0,8.017-3.588,8.017-8.017s-3.588-8.017-8.017-8.017H307.307
	c-4.428,0-8.017,3.588-8.017,8.017S302.878,234.088,307.307,234.088z"/>
<path d="M307.307,276.843h53.872c4.428,0,8.017-3.588,8.017-8.017s-3.588-8.017-8.017-8.017h-53.872
	c-4.428,0-8.017,3.588-8.017,8.017S302.878,276.843,307.307,276.843z"/>
<path d="M469.244,268.827c0-4.428-3.588-8.017-8.017-8.017h-69.264c-4.428,0-8.017,3.588-8.017,8.017s3.588,8.017,8.017,8.017
	h69.264C465.656,276.843,469.244,273.255,469.244,268.827z"/>
<path d="M345.787,320.668c-4.428,0-8.017,3.588-8.017,8.017c0,4.428,3.588,8.017,8.017,8.017h76.96c4.428,0,8.017-3.588,8.017-8.017
	c0-4.428-3.588-8.017-8.017-8.017H345.787z"/>
</svg>