<?xml version="1.0" encoding="UTF-8" standalone="no"?>
<!-- Created with Inkscape (http://www.inkscape.org/) -->

<svg
   xmlns:dc="http://purl.org/dc/elements/1.1/"
   xmlns:cc="http://creativecommons.org/ns#"
   xmlns:rdf="http://www.w3.org/1999/02/22-rdf-syntax-ns#"
   xmlns:svg="http://www.w3.org/2000/svg"
   xmlns="http://www.w3.org/2000/svg"
   xmlns:sodipodi="http://sodipodi.sourceforge.net/DTD/sodipodi-0.dtd"
   xmlns:inkscape="http://www.inkscape.org/namespaces/inkscape"
   width="51.026367mm"
   height="50.841488mm"
   viewBox="0 0 51.026367 50.841488"
   version="1.1"
   id="svg8"
   inkscape:version="0.92.4 (5da689c313, 2019-01-14)"
   sodipodi:docname="spinal-hdl.svg">
  <defs
     id="defs2" />
  <sodipodi:namedview
     id="base"
     pagecolor="#ffffff"
     bordercolor="#666666"
     borderopacity="1.0"
     inkscape:pageopacity="0.0"
     inkscape:pageshadow="2"
     inkscape:zoom="1.979899"
     inkscape:cx="-253.66848"
     inkscape:cy="67.158001"
     inkscape:document-units="mm"
     inkscape:current-layer="layer1"
     showgrid="false"
     inkscape:window-width="3440"
     inkscape:window-height="1377"
     inkscape:window-x="-8"
     inkscape:window-y="32"
     inkscape:window-maximized="1"
     fit-margin-top="0"
     fit-margin-left="0"
     fit-margin-right="0"
     fit-margin-bottom="0" />
  <metadata
     id="metadata5">
    <rdf:RDF>
      <cc:Work
         rdf:about="">
        <dc:format>image/svg+xml</dc:format>
        <dc:type
           rdf:resource="http://purl.org/dc/dcmitype/StillImage" />
        <dc:title></dc:title>
      </cc:Work>
    </rdf:RDF>
  </metadata>
  <g
     inkscape:label="Layer 1"
     inkscape:groupmode="layer"
     id="layer1"
     transform="translate(-228.1192,-225.51792)">
    <g
       id="g826"
       transform="translate(52.785732,-3.2740517)">
      <path
         inkscape:connector-curvature="0"
         id="path842"
         d="m 194.38347,260.00612 c -1.00009,-0.50585 -1.4494,-1.62392 -1.04498,-2.60029 0.88631,-2.13975 3.65468,-1.80205 4.1155,0.50203 0.13872,0.69364 0.0327,0.96564 -0.63797,1.63628 -0.87469,0.8747 -1.41408,0.97713 -2.43255,0.46198 z m -5.91212,-2.52273 c -0.85443,-0.94413 -0.20484,-2.42656 1.0633,-2.42656 0.66471,0 1.40923,0.7931 1.40923,1.50118 0,1.21209 -1.65313,1.8308 -2.47253,0.92538 z m 11.62737,-0.60925 c -1.80138,-0.48177 -2.64947,-2.26259 -1.91484,-4.02081 0.81127,-1.94164 3.40926,-2.30974 4.7826,-0.67762 1.83072,2.17569 -0.15233,5.42464 -2.86776,4.69843 z m 14.97516,-1.07648 c -0.78376,-0.78376 0.0344,-1.94288 0.95949,-1.35935 0.60153,0.37943 0.65448,0.76592 0.17113,1.24927 -0.51097,0.51097 -0.71031,0.53038 -1.13062,0.11008 z m -29.67403,-2.18132 c -0.71456,-0.86099 0.46797,-1.89688 1.26059,-1.10427 0.33696,0.33696 0.37146,0.5437 0.14956,0.89608 -0.38634,0.61348 -0.99875,0.70389 -1.41015,0.20819 z m 25.70528,-0.99368 c -0.9819,-0.98191 0.30995,-2.98374 1.51078,-2.34107 0.91212,0.48815 1.18402,1.27305 0.69797,2.01485 -0.46097,0.70354 -1.65507,0.8799 -2.20875,0.32622 z m -5.9399,-0.76203 c -0.65378,-0.38079 -1.28484,-1.70747 -1.08317,-2.27715 0.59834,-1.69019 2.48227,-2.21359 3.67489,-1.02097 1.72754,1.72754 -0.47531,4.53081 -2.59172,3.29812 z"
         style="fill:#aeaeb0;stroke-width:0.26458335"
         sodipodi:nodetypes="ccccccsscccccccscccccccccscss" />
      <path
         inkscape:connector-curvature="0"
         id="path840"
         d="m 190.01784,273.67127 c -3.0994,-0.49922 -6.24333,-1.74682 -8.76755,-3.47921 -2.61238,-1.79289 -5.91682,-5.55147 -5.91682,-6.72998 0,-0.73085 0.45024,-0.56116 1.79727,0.67734 0.68499,0.6298 1.53982,1.34417 1.89962,1.5875 0.78376,0.53003 2.65311,0.60263 2.65311,0.10302 0,-0.18666 -0.42073,-1.13172 -0.93496,-2.10013 -3.34925,-6.3074 -3.73176,-15.06547 -0.94411,-21.61635 2.53065,-5.94696 7.32656,-10.57031 13.10501,-12.6335 1.48144,-0.52895 3.32614,-0.85904 3.32614,-0.59518 0,0.11988 -1.05181,0.76121 -2.33736,1.42516 -2.89566,1.49556 -6.32643,4.22135 -8.1693,6.49064 -3.74531,4.61193 -5.3626,10.77857 -4.16238,15.87098 1.67452,7.10484 7.61299,11.83302 14.18638,11.29513 3.18618,-0.26072 5.80966,-1.96791 8.73307,-5.6829 0.76682,-0.97446 1.51493,-1.85596 1.66246,-1.95889 0.38661,-0.26972 1.71305,1.06734 2.28552,2.3038 0.63471,1.37092 0.63486,3.4801 2.6e-4,5.14996 -1.02486,2.69723 -3.97914,6.05687 -6.92585,7.87618 -1.89826,1.17199 -4.92103,1.95852 -7.89446,2.05415 -1.54122,0.0496 -3.15949,0.0326 -3.59605,-0.0377 z"
         style="fill:#ec252c;fill-opacity:1;stroke-width:0.26458335"
         sodipodi:nodetypes="ccsscssccscssscccccccc" />
      <path
         inkscape:connector-curvature="0"
         id="path844"
         d="m 205.11039,279.41678 c -0.17744,-0.28711 0.0695,-0.46216 1.77816,-1.26046 3.76751,-1.76023 7.98547,-5.35123 10.23875,-8.71688 5.30101,-7.91792 3.85641,-18.13774 -3.25756,-23.04562 -2.09251,-1.44361 -4.43331,-2.18491 -6.8993,-2.18491 -3.85838,0 -6.37991,1.44055 -9.5718,5.46836 -1.03465,1.30562 -1.94205,2.20456 -2.22529,2.20456 -0.63853,0 -1.69066,-1.28954 -2.25255,-2.76083 -1.11378,-2.91641 0.20789,-6.35097 3.82521,-9.94039 2.52218,-2.50272 4.00136,-3.41167 6.8256,-4.1943 7.092,-1.9653 14.70758,0.14216 19.92505,5.51385 3.16452,3.25807 3.97345,6.03854 1.06349,3.65548 -2.3636,-1.93563 -2.50909,-2.03538 -3.18918,-2.18638 -0.3638,-0.0808 -0.83816,-0.0321 -1.05413,0.1081 -0.33291,0.21616 -0.23961,0.56039 0.61312,2.26192 1.93125,3.85364 2.82057,7.60826 2.82057,11.90817 0,6.97558 -2.28366,12.54154 -7.11474,17.34079 -2.05403,2.0405 -2.99711,2.75779 -4.92211,3.74366 -1.30969,0.67075 -3.22753,1.46966 -4.26186,1.77536 -2.16257,0.63915 -2.13958,0.63611 -2.34143,0.30952 z"
         style="fill:#2b2728;fill-opacity:1;stroke-width:0.26458335"
         sodipodi:nodetypes="cccsscsccccscccssccc" />
    </g>
  </g>
</svg>
