<?xml version="1.0" encoding="UTF-8" standalone="no"?><!DOCTYPE svg PUBLIC "-//W3C//DTD SVG 1.1//EN" "http://www.w3.org/Graphics/SVG/1.1/DTD/svg11.dtd"><!-- Generated by graphviz version 2.40.1 (20161225.0304)
 --><!-- Title: spinal_datatypes Pages: 1 --><svg xmlns="http://www.w3.org/2000/svg" xmlns:xlink="http://www.w3.org/1999/xlink" width="370pt" height="260pt" viewBox="0.00 0.00 370.22 260.00">
<g id="graph0" class="graph" transform="scale(1 1) rotate(0) translate(4 256)">
<title>spinal_datatypes</title>
<polygon fill="#ffffff" stroke="transparent" points="-4,4 -4,-256 366.2209,-256 366.2209,4 -4,4"/>
<!-- Bundle -->
<g id="node1" class="node">
<title>Bundle</title>
<polygon fill="none" stroke="#000000" points="56.6644,-180 -.2226,-180 -.2226,-144 56.6644,-144 56.6644,-180"/>
<text text-anchor="middle" x="28.2209" y="-157.8" font-family="Times,serif" font-size="14.00" fill="#000000">Bundle</text>
</g>
<!-- Data -->
<g id="node8" class="node">
<title>Data</title>
<polygon fill="none" stroke="#000000" stroke-dasharray="5,2" points="128.2209,-252 74.2209,-252 74.2209,-216 128.2209,-216 128.2209,-252"/>
<text text-anchor="middle" x="101.2209" y="-229.8" font-family="Times,serif" font-size="14.00" fill="#000000">Data</text>
</g>
<!-- Bundle&#45;&gt;Data -->
<g id="edge2" class="edge">
<title>Bundle-&gt;Data</title>
<path fill="none" stroke="#000000" d="M46.6419,-180.1686C55.3738,-188.781 65.9526,-199.2149 75.4632,-208.5952"/>
<polygon fill="none" stroke="#000000" points="73.2284,-211.3069 82.8058,-215.8372 78.1439,-206.3231 73.2284,-211.3069"/>
</g>
<!-- Vec -->
<g id="node2" class="node">
<title>Vec</title>
<polygon fill="none" stroke="#000000" points="128.2209,-180 74.2209,-180 74.2209,-144 128.2209,-144 128.2209,-180"/>
<text text-anchor="middle" x="101.2209" y="-157.8" font-family="Times,serif" font-size="14.00" fill="#000000">Vec</text>
</g>
<!-- Vec&#45;&gt;Data -->
<g id="edge3" class="edge">
<title>Vec-&gt;Data</title>
<path fill="none" stroke="#000000" d="M101.2209,-180.1686C101.2209,-187.869 101.2209,-197.0257 101.2209,-205.5834"/>
<polygon fill="none" stroke="#000000" points="97.721,-205.5867 101.2209,-215.5867 104.721,-205.5868 97.721,-205.5867"/>
</g>
<!-- Enum -->
<g id="node3" class="node">
<title>Enum</title>
<polygon fill="none" stroke="#000000" points="137.2209,-108 83.2209,-108 83.2209,-72 137.2209,-72 137.2209,-108"/>
<text text-anchor="middle" x="110.2209" y="-85.8" font-family="Times,serif" font-size="14.00" fill="#000000">Enum</text>
</g>
<!-- BaseType -->
<g id="node9" class="node">
<title>BaseType</title>
<polygon fill="none" stroke="#000000" stroke-dasharray="5,2" points="218.1985,-180 146.2433,-180 146.2433,-144 218.1985,-144 218.1985,-180"/>
<text text-anchor="middle" x="182.2209" y="-157.8" font-family="Times,serif" font-size="14.00" fill="#000000">BaseType</text>
</g>
<!-- Enum&#45;&gt;BaseType -->
<g id="edge4" class="edge">
<title>Enum-&gt;BaseType</title>
<path fill="none" stroke="#000000" d="M128.3895,-108.1686C136.9361,-116.7152 147.2766,-127.0557 156.6011,-136.3802"/>
<polygon fill="none" stroke="#000000" points="154.2617,-138.9905 163.8076,-143.5867 159.2114,-134.0408 154.2617,-138.9905"/>
</g>
<!-- Bool -->
<g id="node4" class="node">
<title>Bool</title>
<polygon fill="none" stroke="#000000" points="209.2209,-108 155.2209,-108 155.2209,-72 209.2209,-72 209.2209,-108"/>
<text text-anchor="middle" x="182.2209" y="-85.8" font-family="Times,serif" font-size="14.00" fill="#000000">Bool</text>
</g>
<!-- Bool&#45;&gt;BaseType -->
<g id="edge5" class="edge">
<title>Bool-&gt;BaseType</title>
<path fill="none" stroke="#000000" d="M182.2209,-108.1686C182.2209,-115.869 182.2209,-125.0257 182.2209,-133.5834"/>
<polygon fill="none" stroke="#000000" points="178.721,-133.5867 182.2209,-143.5867 185.721,-133.5868 178.721,-133.5867"/>
</g>
<!-- Bits -->
<g id="node5" class="node">
<title>Bits</title>
<polygon fill="none" stroke="#000000" points="218.2209,-36 164.2209,-36 164.2209,0 218.2209,0 218.2209,-36"/>
<text text-anchor="middle" x="191.2209" y="-13.8" font-family="Times,serif" font-size="14.00" fill="#000000">Bits</text>
</g>
<!-- BitVector -->
<g id="node10" class="node">
<title>BitVector</title>
<polygon fill="none" stroke="#000000" stroke-dasharray="5,2" points="298.926,-108 227.5158,-108 227.5158,-72 298.926,-72 298.926,-108"/>
<text text-anchor="middle" x="263.2209" y="-85.8" font-family="Times,serif" font-size="14.00" fill="#000000">BitVector</text>
</g>
<!-- Bits&#45;&gt;BitVector -->
<g id="edge7" class="edge">
<title>Bits-&gt;BitVector</title>
<path fill="none" stroke="#000000" d="M209.3895,-36.1686C217.9361,-44.7152 228.2766,-55.0557 237.6011,-64.3802"/>
<polygon fill="none" stroke="#000000" points="235.2617,-66.9905 244.8076,-71.5867 240.2114,-62.0408 235.2617,-66.9905"/>
</g>
<!-- UInt -->
<g id="node6" class="node">
<title>UInt</title>
<polygon fill="none" stroke="#000000" points="290.2209,-36 236.2209,-36 236.2209,0 290.2209,0 290.2209,-36"/>
<text text-anchor="middle" x="263.2209" y="-13.8" font-family="Times,serif" font-size="14.00" fill="#000000">UInt</text>
</g>
<!-- UInt&#45;&gt;BitVector -->
<g id="edge8" class="edge">
<title>UInt-&gt;BitVector</title>
<path fill="none" stroke="#000000" d="M263.2209,-36.1686C263.2209,-43.869 263.2209,-53.0257 263.2209,-61.5834"/>
<polygon fill="none" stroke="#000000" points="259.721,-61.5867 263.2209,-71.5867 266.721,-61.5868 259.721,-61.5867"/>
</g>
<!-- SInt -->
<g id="node7" class="node">
<title>SInt</title>
<polygon fill="none" stroke="#000000" points="362.2209,-36 308.2209,-36 308.2209,0 362.2209,0 362.2209,-36"/>
<text text-anchor="middle" x="335.2209" y="-13.8" font-family="Times,serif" font-size="14.00" fill="#000000">SInt</text>
</g>
<!-- SInt&#45;&gt;BitVector -->
<g id="edge9" class="edge">
<title>SInt-&gt;BitVector</title>
<path fill="none" stroke="#000000" d="M317.0523,-36.1686C308.5057,-44.7152 298.1652,-55.0557 288.8407,-64.3802"/>
<polygon fill="none" stroke="#000000" points="286.2304,-62.0408 281.6342,-71.5867 291.1801,-66.9905 286.2304,-62.0408"/>
</g>
<!-- BaseType&#45;&gt;Data -->
<g id="edge1" class="edge">
<title>BaseType-&gt;Data</title>
<path fill="none" stroke="#000000" d="M161.7812,-180.1686C151.9004,-188.9515 139.8885,-199.6288 129.1759,-209.1511"/>
<polygon fill="none" stroke="#000000" points="126.8029,-206.5776 121.6541,-215.8372 131.4535,-211.8094 126.8029,-206.5776"/>
</g>
<!-- BitVector&#45;&gt;BaseType -->
<g id="edge6" class="edge">
<title>BitVector-&gt;BaseType</title>
<path fill="none" stroke="#000000" d="M242.7812,-108.1686C232.9004,-116.9515 220.8885,-127.6288 210.1759,-137.1511"/>
<polygon fill="none" stroke="#000000" points="207.8029,-134.5776 202.6541,-143.8372 212.4535,-139.8094 207.8029,-134.5776"/>
</g>
</g>
</svg>